G04 #@! TF.GenerationSoftware,KiCad,Pcbnew,5.1.6-c6e7f7d~86~ubuntu18.04.1*
G04 #@! TF.CreationDate,2020-06-20T00:16:09+12:00*
G04 #@! TF.ProjectId,M1 Address Decoding,4d312041-6464-4726-9573-73204465636f,rev?*
G04 #@! TF.SameCoordinates,Original*
G04 #@! TF.FileFunction,Soldermask,Top*
G04 #@! TF.FilePolarity,Negative*
%FSLAX46Y46*%
G04 Gerber Fmt 4.6, Leading zero omitted, Abs format (unit mm)*
G04 Created by KiCad (PCBNEW 5.1.6-c6e7f7d~86~ubuntu18.04.1) date 2020-06-20 00:16:09*
%MOMM*%
%LPD*%
G01*
G04 APERTURE LIST*
%ADD10C,0.100000*%
G04 APERTURE END LIST*
D10*
G36*
X133590512Y-137152927D02*
G01*
X133739812Y-137182624D01*
X133903784Y-137250544D01*
X134051354Y-137349147D01*
X134176853Y-137474646D01*
X134275456Y-137622216D01*
X134343376Y-137786188D01*
X134378000Y-137960259D01*
X134378000Y-138137741D01*
X134343376Y-138311812D01*
X134275456Y-138475784D01*
X134176853Y-138623354D01*
X134051354Y-138748853D01*
X133903784Y-138847456D01*
X133739812Y-138915376D01*
X133590512Y-138945073D01*
X133565742Y-138950000D01*
X133388258Y-138950000D01*
X133363488Y-138945073D01*
X133214188Y-138915376D01*
X133050216Y-138847456D01*
X132902646Y-138748853D01*
X132777147Y-138623354D01*
X132678544Y-138475784D01*
X132610624Y-138311812D01*
X132576000Y-138137741D01*
X132576000Y-137960259D01*
X132610624Y-137786188D01*
X132678544Y-137622216D01*
X132777147Y-137474646D01*
X132902646Y-137349147D01*
X133050216Y-137250544D01*
X133214188Y-137182624D01*
X133363488Y-137152927D01*
X133388258Y-137148000D01*
X133565742Y-137148000D01*
X133590512Y-137152927D01*
G37*
G36*
X131050512Y-137152927D02*
G01*
X131199812Y-137182624D01*
X131363784Y-137250544D01*
X131511354Y-137349147D01*
X131636853Y-137474646D01*
X131735456Y-137622216D01*
X131803376Y-137786188D01*
X131838000Y-137960259D01*
X131838000Y-138137741D01*
X131803376Y-138311812D01*
X131735456Y-138475784D01*
X131636853Y-138623354D01*
X131511354Y-138748853D01*
X131363784Y-138847456D01*
X131199812Y-138915376D01*
X131050512Y-138945073D01*
X131025742Y-138950000D01*
X130848258Y-138950000D01*
X130823488Y-138945073D01*
X130674188Y-138915376D01*
X130510216Y-138847456D01*
X130362646Y-138748853D01*
X130237147Y-138623354D01*
X130138544Y-138475784D01*
X130070624Y-138311812D01*
X130036000Y-138137741D01*
X130036000Y-137960259D01*
X130070624Y-137786188D01*
X130138544Y-137622216D01*
X130237147Y-137474646D01*
X130362646Y-137349147D01*
X130510216Y-137250544D01*
X130674188Y-137182624D01*
X130823488Y-137152927D01*
X130848258Y-137148000D01*
X131025742Y-137148000D01*
X131050512Y-137152927D01*
G37*
G36*
X113270512Y-137152927D02*
G01*
X113419812Y-137182624D01*
X113583784Y-137250544D01*
X113731354Y-137349147D01*
X113856853Y-137474646D01*
X113955456Y-137622216D01*
X114023376Y-137786188D01*
X114058000Y-137960259D01*
X114058000Y-138137741D01*
X114023376Y-138311812D01*
X113955456Y-138475784D01*
X113856853Y-138623354D01*
X113731354Y-138748853D01*
X113583784Y-138847456D01*
X113419812Y-138915376D01*
X113270512Y-138945073D01*
X113245742Y-138950000D01*
X113068258Y-138950000D01*
X113043488Y-138945073D01*
X112894188Y-138915376D01*
X112730216Y-138847456D01*
X112582646Y-138748853D01*
X112457147Y-138623354D01*
X112358544Y-138475784D01*
X112290624Y-138311812D01*
X112256000Y-138137741D01*
X112256000Y-137960259D01*
X112290624Y-137786188D01*
X112358544Y-137622216D01*
X112457147Y-137474646D01*
X112582646Y-137349147D01*
X112730216Y-137250544D01*
X112894188Y-137182624D01*
X113043488Y-137152927D01*
X113068258Y-137148000D01*
X113245742Y-137148000D01*
X113270512Y-137152927D01*
G37*
G36*
X115810512Y-137152927D02*
G01*
X115959812Y-137182624D01*
X116123784Y-137250544D01*
X116271354Y-137349147D01*
X116396853Y-137474646D01*
X116495456Y-137622216D01*
X116563376Y-137786188D01*
X116598000Y-137960259D01*
X116598000Y-138137741D01*
X116563376Y-138311812D01*
X116495456Y-138475784D01*
X116396853Y-138623354D01*
X116271354Y-138748853D01*
X116123784Y-138847456D01*
X115959812Y-138915376D01*
X115810512Y-138945073D01*
X115785742Y-138950000D01*
X115608258Y-138950000D01*
X115583488Y-138945073D01*
X115434188Y-138915376D01*
X115270216Y-138847456D01*
X115122646Y-138748853D01*
X114997147Y-138623354D01*
X114898544Y-138475784D01*
X114830624Y-138311812D01*
X114796000Y-138137741D01*
X114796000Y-137960259D01*
X114830624Y-137786188D01*
X114898544Y-137622216D01*
X114997147Y-137474646D01*
X115122646Y-137349147D01*
X115270216Y-137250544D01*
X115434188Y-137182624D01*
X115583488Y-137152927D01*
X115608258Y-137148000D01*
X115785742Y-137148000D01*
X115810512Y-137152927D01*
G37*
G36*
X118350512Y-137152927D02*
G01*
X118499812Y-137182624D01*
X118663784Y-137250544D01*
X118811354Y-137349147D01*
X118936853Y-137474646D01*
X119035456Y-137622216D01*
X119103376Y-137786188D01*
X119138000Y-137960259D01*
X119138000Y-138137741D01*
X119103376Y-138311812D01*
X119035456Y-138475784D01*
X118936853Y-138623354D01*
X118811354Y-138748853D01*
X118663784Y-138847456D01*
X118499812Y-138915376D01*
X118350512Y-138945073D01*
X118325742Y-138950000D01*
X118148258Y-138950000D01*
X118123488Y-138945073D01*
X117974188Y-138915376D01*
X117810216Y-138847456D01*
X117662646Y-138748853D01*
X117537147Y-138623354D01*
X117438544Y-138475784D01*
X117370624Y-138311812D01*
X117336000Y-138137741D01*
X117336000Y-137960259D01*
X117370624Y-137786188D01*
X117438544Y-137622216D01*
X117537147Y-137474646D01*
X117662646Y-137349147D01*
X117810216Y-137250544D01*
X117974188Y-137182624D01*
X118123488Y-137152927D01*
X118148258Y-137148000D01*
X118325742Y-137148000D01*
X118350512Y-137152927D01*
G37*
G36*
X120890512Y-137152927D02*
G01*
X121039812Y-137182624D01*
X121203784Y-137250544D01*
X121351354Y-137349147D01*
X121476853Y-137474646D01*
X121575456Y-137622216D01*
X121643376Y-137786188D01*
X121678000Y-137960259D01*
X121678000Y-138137741D01*
X121643376Y-138311812D01*
X121575456Y-138475784D01*
X121476853Y-138623354D01*
X121351354Y-138748853D01*
X121203784Y-138847456D01*
X121039812Y-138915376D01*
X120890512Y-138945073D01*
X120865742Y-138950000D01*
X120688258Y-138950000D01*
X120663488Y-138945073D01*
X120514188Y-138915376D01*
X120350216Y-138847456D01*
X120202646Y-138748853D01*
X120077147Y-138623354D01*
X119978544Y-138475784D01*
X119910624Y-138311812D01*
X119876000Y-138137741D01*
X119876000Y-137960259D01*
X119910624Y-137786188D01*
X119978544Y-137622216D01*
X120077147Y-137474646D01*
X120202646Y-137349147D01*
X120350216Y-137250544D01*
X120514188Y-137182624D01*
X120663488Y-137152927D01*
X120688258Y-137148000D01*
X120865742Y-137148000D01*
X120890512Y-137152927D01*
G37*
G36*
X123430512Y-137152927D02*
G01*
X123579812Y-137182624D01*
X123743784Y-137250544D01*
X123891354Y-137349147D01*
X124016853Y-137474646D01*
X124115456Y-137622216D01*
X124183376Y-137786188D01*
X124218000Y-137960259D01*
X124218000Y-138137741D01*
X124183376Y-138311812D01*
X124115456Y-138475784D01*
X124016853Y-138623354D01*
X123891354Y-138748853D01*
X123743784Y-138847456D01*
X123579812Y-138915376D01*
X123430512Y-138945073D01*
X123405742Y-138950000D01*
X123228258Y-138950000D01*
X123203488Y-138945073D01*
X123054188Y-138915376D01*
X122890216Y-138847456D01*
X122742646Y-138748853D01*
X122617147Y-138623354D01*
X122518544Y-138475784D01*
X122450624Y-138311812D01*
X122416000Y-138137741D01*
X122416000Y-137960259D01*
X122450624Y-137786188D01*
X122518544Y-137622216D01*
X122617147Y-137474646D01*
X122742646Y-137349147D01*
X122890216Y-137250544D01*
X123054188Y-137182624D01*
X123203488Y-137152927D01*
X123228258Y-137148000D01*
X123405742Y-137148000D01*
X123430512Y-137152927D01*
G37*
G36*
X125970512Y-137152927D02*
G01*
X126119812Y-137182624D01*
X126283784Y-137250544D01*
X126431354Y-137349147D01*
X126556853Y-137474646D01*
X126655456Y-137622216D01*
X126723376Y-137786188D01*
X126758000Y-137960259D01*
X126758000Y-138137741D01*
X126723376Y-138311812D01*
X126655456Y-138475784D01*
X126556853Y-138623354D01*
X126431354Y-138748853D01*
X126283784Y-138847456D01*
X126119812Y-138915376D01*
X125970512Y-138945073D01*
X125945742Y-138950000D01*
X125768258Y-138950000D01*
X125743488Y-138945073D01*
X125594188Y-138915376D01*
X125430216Y-138847456D01*
X125282646Y-138748853D01*
X125157147Y-138623354D01*
X125058544Y-138475784D01*
X124990624Y-138311812D01*
X124956000Y-138137741D01*
X124956000Y-137960259D01*
X124990624Y-137786188D01*
X125058544Y-137622216D01*
X125157147Y-137474646D01*
X125282646Y-137349147D01*
X125430216Y-137250544D01*
X125594188Y-137182624D01*
X125743488Y-137152927D01*
X125768258Y-137148000D01*
X125945742Y-137148000D01*
X125970512Y-137152927D01*
G37*
G36*
X128510512Y-137152927D02*
G01*
X128659812Y-137182624D01*
X128823784Y-137250544D01*
X128971354Y-137349147D01*
X129096853Y-137474646D01*
X129195456Y-137622216D01*
X129263376Y-137786188D01*
X129298000Y-137960259D01*
X129298000Y-138137741D01*
X129263376Y-138311812D01*
X129195456Y-138475784D01*
X129096853Y-138623354D01*
X128971354Y-138748853D01*
X128823784Y-138847456D01*
X128659812Y-138915376D01*
X128510512Y-138945073D01*
X128485742Y-138950000D01*
X128308258Y-138950000D01*
X128283488Y-138945073D01*
X128134188Y-138915376D01*
X127970216Y-138847456D01*
X127822646Y-138748853D01*
X127697147Y-138623354D01*
X127598544Y-138475784D01*
X127530624Y-138311812D01*
X127496000Y-138137741D01*
X127496000Y-137960259D01*
X127530624Y-137786188D01*
X127598544Y-137622216D01*
X127697147Y-137474646D01*
X127822646Y-137349147D01*
X127970216Y-137250544D01*
X128134188Y-137182624D01*
X128283488Y-137152927D01*
X128308258Y-137148000D01*
X128485742Y-137148000D01*
X128510512Y-137152927D01*
G37*
G36*
X153910512Y-137152927D02*
G01*
X154059812Y-137182624D01*
X154223784Y-137250544D01*
X154371354Y-137349147D01*
X154496853Y-137474646D01*
X154595456Y-137622216D01*
X154663376Y-137786188D01*
X154698000Y-137960259D01*
X154698000Y-138137741D01*
X154663376Y-138311812D01*
X154595456Y-138475784D01*
X154496853Y-138623354D01*
X154371354Y-138748853D01*
X154223784Y-138847456D01*
X154059812Y-138915376D01*
X153910512Y-138945073D01*
X153885742Y-138950000D01*
X153708258Y-138950000D01*
X153683488Y-138945073D01*
X153534188Y-138915376D01*
X153370216Y-138847456D01*
X153222646Y-138748853D01*
X153097147Y-138623354D01*
X152998544Y-138475784D01*
X152930624Y-138311812D01*
X152896000Y-138137741D01*
X152896000Y-137960259D01*
X152930624Y-137786188D01*
X152998544Y-137622216D01*
X153097147Y-137474646D01*
X153222646Y-137349147D01*
X153370216Y-137250544D01*
X153534188Y-137182624D01*
X153683488Y-137152927D01*
X153708258Y-137148000D01*
X153885742Y-137148000D01*
X153910512Y-137152927D01*
G37*
G36*
X136130512Y-137152927D02*
G01*
X136279812Y-137182624D01*
X136443784Y-137250544D01*
X136591354Y-137349147D01*
X136716853Y-137474646D01*
X136815456Y-137622216D01*
X136883376Y-137786188D01*
X136918000Y-137960259D01*
X136918000Y-138137741D01*
X136883376Y-138311812D01*
X136815456Y-138475784D01*
X136716853Y-138623354D01*
X136591354Y-138748853D01*
X136443784Y-138847456D01*
X136279812Y-138915376D01*
X136130512Y-138945073D01*
X136105742Y-138950000D01*
X135928258Y-138950000D01*
X135903488Y-138945073D01*
X135754188Y-138915376D01*
X135590216Y-138847456D01*
X135442646Y-138748853D01*
X135317147Y-138623354D01*
X135218544Y-138475784D01*
X135150624Y-138311812D01*
X135116000Y-138137741D01*
X135116000Y-137960259D01*
X135150624Y-137786188D01*
X135218544Y-137622216D01*
X135317147Y-137474646D01*
X135442646Y-137349147D01*
X135590216Y-137250544D01*
X135754188Y-137182624D01*
X135903488Y-137152927D01*
X135928258Y-137148000D01*
X136105742Y-137148000D01*
X136130512Y-137152927D01*
G37*
G36*
X138670512Y-137152927D02*
G01*
X138819812Y-137182624D01*
X138983784Y-137250544D01*
X139131354Y-137349147D01*
X139256853Y-137474646D01*
X139355456Y-137622216D01*
X139423376Y-137786188D01*
X139458000Y-137960259D01*
X139458000Y-138137741D01*
X139423376Y-138311812D01*
X139355456Y-138475784D01*
X139256853Y-138623354D01*
X139131354Y-138748853D01*
X138983784Y-138847456D01*
X138819812Y-138915376D01*
X138670512Y-138945073D01*
X138645742Y-138950000D01*
X138468258Y-138950000D01*
X138443488Y-138945073D01*
X138294188Y-138915376D01*
X138130216Y-138847456D01*
X137982646Y-138748853D01*
X137857147Y-138623354D01*
X137758544Y-138475784D01*
X137690624Y-138311812D01*
X137656000Y-138137741D01*
X137656000Y-137960259D01*
X137690624Y-137786188D01*
X137758544Y-137622216D01*
X137857147Y-137474646D01*
X137982646Y-137349147D01*
X138130216Y-137250544D01*
X138294188Y-137182624D01*
X138443488Y-137152927D01*
X138468258Y-137148000D01*
X138645742Y-137148000D01*
X138670512Y-137152927D01*
G37*
G36*
X141210512Y-137152927D02*
G01*
X141359812Y-137182624D01*
X141523784Y-137250544D01*
X141671354Y-137349147D01*
X141796853Y-137474646D01*
X141895456Y-137622216D01*
X141963376Y-137786188D01*
X141998000Y-137960259D01*
X141998000Y-138137741D01*
X141963376Y-138311812D01*
X141895456Y-138475784D01*
X141796853Y-138623354D01*
X141671354Y-138748853D01*
X141523784Y-138847456D01*
X141359812Y-138915376D01*
X141210512Y-138945073D01*
X141185742Y-138950000D01*
X141008258Y-138950000D01*
X140983488Y-138945073D01*
X140834188Y-138915376D01*
X140670216Y-138847456D01*
X140522646Y-138748853D01*
X140397147Y-138623354D01*
X140298544Y-138475784D01*
X140230624Y-138311812D01*
X140196000Y-138137741D01*
X140196000Y-137960259D01*
X140230624Y-137786188D01*
X140298544Y-137622216D01*
X140397147Y-137474646D01*
X140522646Y-137349147D01*
X140670216Y-137250544D01*
X140834188Y-137182624D01*
X140983488Y-137152927D01*
X141008258Y-137148000D01*
X141185742Y-137148000D01*
X141210512Y-137152927D01*
G37*
G36*
X143750512Y-137152927D02*
G01*
X143899812Y-137182624D01*
X144063784Y-137250544D01*
X144211354Y-137349147D01*
X144336853Y-137474646D01*
X144435456Y-137622216D01*
X144503376Y-137786188D01*
X144538000Y-137960259D01*
X144538000Y-138137741D01*
X144503376Y-138311812D01*
X144435456Y-138475784D01*
X144336853Y-138623354D01*
X144211354Y-138748853D01*
X144063784Y-138847456D01*
X143899812Y-138915376D01*
X143750512Y-138945073D01*
X143725742Y-138950000D01*
X143548258Y-138950000D01*
X143523488Y-138945073D01*
X143374188Y-138915376D01*
X143210216Y-138847456D01*
X143062646Y-138748853D01*
X142937147Y-138623354D01*
X142838544Y-138475784D01*
X142770624Y-138311812D01*
X142736000Y-138137741D01*
X142736000Y-137960259D01*
X142770624Y-137786188D01*
X142838544Y-137622216D01*
X142937147Y-137474646D01*
X143062646Y-137349147D01*
X143210216Y-137250544D01*
X143374188Y-137182624D01*
X143523488Y-137152927D01*
X143548258Y-137148000D01*
X143725742Y-137148000D01*
X143750512Y-137152927D01*
G37*
G36*
X146290512Y-137152927D02*
G01*
X146439812Y-137182624D01*
X146603784Y-137250544D01*
X146751354Y-137349147D01*
X146876853Y-137474646D01*
X146975456Y-137622216D01*
X147043376Y-137786188D01*
X147078000Y-137960259D01*
X147078000Y-138137741D01*
X147043376Y-138311812D01*
X146975456Y-138475784D01*
X146876853Y-138623354D01*
X146751354Y-138748853D01*
X146603784Y-138847456D01*
X146439812Y-138915376D01*
X146290512Y-138945073D01*
X146265742Y-138950000D01*
X146088258Y-138950000D01*
X146063488Y-138945073D01*
X145914188Y-138915376D01*
X145750216Y-138847456D01*
X145602646Y-138748853D01*
X145477147Y-138623354D01*
X145378544Y-138475784D01*
X145310624Y-138311812D01*
X145276000Y-138137741D01*
X145276000Y-137960259D01*
X145310624Y-137786188D01*
X145378544Y-137622216D01*
X145477147Y-137474646D01*
X145602646Y-137349147D01*
X145750216Y-137250544D01*
X145914188Y-137182624D01*
X146063488Y-137152927D01*
X146088258Y-137148000D01*
X146265742Y-137148000D01*
X146290512Y-137152927D01*
G37*
G36*
X148830512Y-137152927D02*
G01*
X148979812Y-137182624D01*
X149143784Y-137250544D01*
X149291354Y-137349147D01*
X149416853Y-137474646D01*
X149515456Y-137622216D01*
X149583376Y-137786188D01*
X149618000Y-137960259D01*
X149618000Y-138137741D01*
X149583376Y-138311812D01*
X149515456Y-138475784D01*
X149416853Y-138623354D01*
X149291354Y-138748853D01*
X149143784Y-138847456D01*
X148979812Y-138915376D01*
X148830512Y-138945073D01*
X148805742Y-138950000D01*
X148628258Y-138950000D01*
X148603488Y-138945073D01*
X148454188Y-138915376D01*
X148290216Y-138847456D01*
X148142646Y-138748853D01*
X148017147Y-138623354D01*
X147918544Y-138475784D01*
X147850624Y-138311812D01*
X147816000Y-138137741D01*
X147816000Y-137960259D01*
X147850624Y-137786188D01*
X147918544Y-137622216D01*
X148017147Y-137474646D01*
X148142646Y-137349147D01*
X148290216Y-137250544D01*
X148454188Y-137182624D01*
X148603488Y-137152927D01*
X148628258Y-137148000D01*
X148805742Y-137148000D01*
X148830512Y-137152927D01*
G37*
G36*
X174230512Y-137152927D02*
G01*
X174379812Y-137182624D01*
X174543784Y-137250544D01*
X174691354Y-137349147D01*
X174816853Y-137474646D01*
X174915456Y-137622216D01*
X174983376Y-137786188D01*
X175018000Y-137960259D01*
X175018000Y-138137741D01*
X174983376Y-138311812D01*
X174915456Y-138475784D01*
X174816853Y-138623354D01*
X174691354Y-138748853D01*
X174543784Y-138847456D01*
X174379812Y-138915376D01*
X174230512Y-138945073D01*
X174205742Y-138950000D01*
X174028258Y-138950000D01*
X174003488Y-138945073D01*
X173854188Y-138915376D01*
X173690216Y-138847456D01*
X173542646Y-138748853D01*
X173417147Y-138623354D01*
X173318544Y-138475784D01*
X173250624Y-138311812D01*
X173216000Y-138137741D01*
X173216000Y-137960259D01*
X173250624Y-137786188D01*
X173318544Y-137622216D01*
X173417147Y-137474646D01*
X173542646Y-137349147D01*
X173690216Y-137250544D01*
X173854188Y-137182624D01*
X174003488Y-137152927D01*
X174028258Y-137148000D01*
X174205742Y-137148000D01*
X174230512Y-137152927D01*
G37*
G36*
X189470512Y-137152927D02*
G01*
X189619812Y-137182624D01*
X189783784Y-137250544D01*
X189931354Y-137349147D01*
X190056853Y-137474646D01*
X190155456Y-137622216D01*
X190223376Y-137786188D01*
X190258000Y-137960259D01*
X190258000Y-138137741D01*
X190223376Y-138311812D01*
X190155456Y-138475784D01*
X190056853Y-138623354D01*
X189931354Y-138748853D01*
X189783784Y-138847456D01*
X189619812Y-138915376D01*
X189470512Y-138945073D01*
X189445742Y-138950000D01*
X189268258Y-138950000D01*
X189243488Y-138945073D01*
X189094188Y-138915376D01*
X188930216Y-138847456D01*
X188782646Y-138748853D01*
X188657147Y-138623354D01*
X188558544Y-138475784D01*
X188490624Y-138311812D01*
X188456000Y-138137741D01*
X188456000Y-137960259D01*
X188490624Y-137786188D01*
X188558544Y-137622216D01*
X188657147Y-137474646D01*
X188782646Y-137349147D01*
X188930216Y-137250544D01*
X189094188Y-137182624D01*
X189243488Y-137152927D01*
X189268258Y-137148000D01*
X189445742Y-137148000D01*
X189470512Y-137152927D01*
G37*
G36*
X192010512Y-137152927D02*
G01*
X192159812Y-137182624D01*
X192323784Y-137250544D01*
X192471354Y-137349147D01*
X192596853Y-137474646D01*
X192695456Y-137622216D01*
X192763376Y-137786188D01*
X192798000Y-137960259D01*
X192798000Y-138137741D01*
X192763376Y-138311812D01*
X192695456Y-138475784D01*
X192596853Y-138623354D01*
X192471354Y-138748853D01*
X192323784Y-138847456D01*
X192159812Y-138915376D01*
X192010512Y-138945073D01*
X191985742Y-138950000D01*
X191808258Y-138950000D01*
X191783488Y-138945073D01*
X191634188Y-138915376D01*
X191470216Y-138847456D01*
X191322646Y-138748853D01*
X191197147Y-138623354D01*
X191098544Y-138475784D01*
X191030624Y-138311812D01*
X190996000Y-138137741D01*
X190996000Y-137960259D01*
X191030624Y-137786188D01*
X191098544Y-137622216D01*
X191197147Y-137474646D01*
X191322646Y-137349147D01*
X191470216Y-137250544D01*
X191634188Y-137182624D01*
X191783488Y-137152927D01*
X191808258Y-137148000D01*
X191985742Y-137148000D01*
X192010512Y-137152927D01*
G37*
G36*
X156450512Y-137152927D02*
G01*
X156599812Y-137182624D01*
X156763784Y-137250544D01*
X156911354Y-137349147D01*
X157036853Y-137474646D01*
X157135456Y-137622216D01*
X157203376Y-137786188D01*
X157238000Y-137960259D01*
X157238000Y-138137741D01*
X157203376Y-138311812D01*
X157135456Y-138475784D01*
X157036853Y-138623354D01*
X156911354Y-138748853D01*
X156763784Y-138847456D01*
X156599812Y-138915376D01*
X156450512Y-138945073D01*
X156425742Y-138950000D01*
X156248258Y-138950000D01*
X156223488Y-138945073D01*
X156074188Y-138915376D01*
X155910216Y-138847456D01*
X155762646Y-138748853D01*
X155637147Y-138623354D01*
X155538544Y-138475784D01*
X155470624Y-138311812D01*
X155436000Y-138137741D01*
X155436000Y-137960259D01*
X155470624Y-137786188D01*
X155538544Y-137622216D01*
X155637147Y-137474646D01*
X155762646Y-137349147D01*
X155910216Y-137250544D01*
X156074188Y-137182624D01*
X156223488Y-137152927D01*
X156248258Y-137148000D01*
X156425742Y-137148000D01*
X156450512Y-137152927D01*
G37*
G36*
X158990512Y-137152927D02*
G01*
X159139812Y-137182624D01*
X159303784Y-137250544D01*
X159451354Y-137349147D01*
X159576853Y-137474646D01*
X159675456Y-137622216D01*
X159743376Y-137786188D01*
X159778000Y-137960259D01*
X159778000Y-138137741D01*
X159743376Y-138311812D01*
X159675456Y-138475784D01*
X159576853Y-138623354D01*
X159451354Y-138748853D01*
X159303784Y-138847456D01*
X159139812Y-138915376D01*
X158990512Y-138945073D01*
X158965742Y-138950000D01*
X158788258Y-138950000D01*
X158763488Y-138945073D01*
X158614188Y-138915376D01*
X158450216Y-138847456D01*
X158302646Y-138748853D01*
X158177147Y-138623354D01*
X158078544Y-138475784D01*
X158010624Y-138311812D01*
X157976000Y-138137741D01*
X157976000Y-137960259D01*
X158010624Y-137786188D01*
X158078544Y-137622216D01*
X158177147Y-137474646D01*
X158302646Y-137349147D01*
X158450216Y-137250544D01*
X158614188Y-137182624D01*
X158763488Y-137152927D01*
X158788258Y-137148000D01*
X158965742Y-137148000D01*
X158990512Y-137152927D01*
G37*
G36*
X161530512Y-137152927D02*
G01*
X161679812Y-137182624D01*
X161843784Y-137250544D01*
X161991354Y-137349147D01*
X162116853Y-137474646D01*
X162215456Y-137622216D01*
X162283376Y-137786188D01*
X162318000Y-137960259D01*
X162318000Y-138137741D01*
X162283376Y-138311812D01*
X162215456Y-138475784D01*
X162116853Y-138623354D01*
X161991354Y-138748853D01*
X161843784Y-138847456D01*
X161679812Y-138915376D01*
X161530512Y-138945073D01*
X161505742Y-138950000D01*
X161328258Y-138950000D01*
X161303488Y-138945073D01*
X161154188Y-138915376D01*
X160990216Y-138847456D01*
X160842646Y-138748853D01*
X160717147Y-138623354D01*
X160618544Y-138475784D01*
X160550624Y-138311812D01*
X160516000Y-138137741D01*
X160516000Y-137960259D01*
X160550624Y-137786188D01*
X160618544Y-137622216D01*
X160717147Y-137474646D01*
X160842646Y-137349147D01*
X160990216Y-137250544D01*
X161154188Y-137182624D01*
X161303488Y-137152927D01*
X161328258Y-137148000D01*
X161505742Y-137148000D01*
X161530512Y-137152927D01*
G37*
G36*
X164070512Y-137152927D02*
G01*
X164219812Y-137182624D01*
X164383784Y-137250544D01*
X164531354Y-137349147D01*
X164656853Y-137474646D01*
X164755456Y-137622216D01*
X164823376Y-137786188D01*
X164858000Y-137960259D01*
X164858000Y-138137741D01*
X164823376Y-138311812D01*
X164755456Y-138475784D01*
X164656853Y-138623354D01*
X164531354Y-138748853D01*
X164383784Y-138847456D01*
X164219812Y-138915376D01*
X164070512Y-138945073D01*
X164045742Y-138950000D01*
X163868258Y-138950000D01*
X163843488Y-138945073D01*
X163694188Y-138915376D01*
X163530216Y-138847456D01*
X163382646Y-138748853D01*
X163257147Y-138623354D01*
X163158544Y-138475784D01*
X163090624Y-138311812D01*
X163056000Y-138137741D01*
X163056000Y-137960259D01*
X163090624Y-137786188D01*
X163158544Y-137622216D01*
X163257147Y-137474646D01*
X163382646Y-137349147D01*
X163530216Y-137250544D01*
X163694188Y-137182624D01*
X163843488Y-137152927D01*
X163868258Y-137148000D01*
X164045742Y-137148000D01*
X164070512Y-137152927D01*
G37*
G36*
X166610512Y-137152927D02*
G01*
X166759812Y-137182624D01*
X166923784Y-137250544D01*
X167071354Y-137349147D01*
X167196853Y-137474646D01*
X167295456Y-137622216D01*
X167363376Y-137786188D01*
X167398000Y-137960259D01*
X167398000Y-138137741D01*
X167363376Y-138311812D01*
X167295456Y-138475784D01*
X167196853Y-138623354D01*
X167071354Y-138748853D01*
X166923784Y-138847456D01*
X166759812Y-138915376D01*
X166610512Y-138945073D01*
X166585742Y-138950000D01*
X166408258Y-138950000D01*
X166383488Y-138945073D01*
X166234188Y-138915376D01*
X166070216Y-138847456D01*
X165922646Y-138748853D01*
X165797147Y-138623354D01*
X165698544Y-138475784D01*
X165630624Y-138311812D01*
X165596000Y-138137741D01*
X165596000Y-137960259D01*
X165630624Y-137786188D01*
X165698544Y-137622216D01*
X165797147Y-137474646D01*
X165922646Y-137349147D01*
X166070216Y-137250544D01*
X166234188Y-137182624D01*
X166383488Y-137152927D01*
X166408258Y-137148000D01*
X166585742Y-137148000D01*
X166610512Y-137152927D01*
G37*
G36*
X169150512Y-137152927D02*
G01*
X169299812Y-137182624D01*
X169463784Y-137250544D01*
X169611354Y-137349147D01*
X169736853Y-137474646D01*
X169835456Y-137622216D01*
X169903376Y-137786188D01*
X169938000Y-137960259D01*
X169938000Y-138137741D01*
X169903376Y-138311812D01*
X169835456Y-138475784D01*
X169736853Y-138623354D01*
X169611354Y-138748853D01*
X169463784Y-138847456D01*
X169299812Y-138915376D01*
X169150512Y-138945073D01*
X169125742Y-138950000D01*
X168948258Y-138950000D01*
X168923488Y-138945073D01*
X168774188Y-138915376D01*
X168610216Y-138847456D01*
X168462646Y-138748853D01*
X168337147Y-138623354D01*
X168238544Y-138475784D01*
X168170624Y-138311812D01*
X168136000Y-138137741D01*
X168136000Y-137960259D01*
X168170624Y-137786188D01*
X168238544Y-137622216D01*
X168337147Y-137474646D01*
X168462646Y-137349147D01*
X168610216Y-137250544D01*
X168774188Y-137182624D01*
X168923488Y-137152927D01*
X168948258Y-137148000D01*
X169125742Y-137148000D01*
X169150512Y-137152927D01*
G37*
G36*
X171690512Y-137152927D02*
G01*
X171839812Y-137182624D01*
X172003784Y-137250544D01*
X172151354Y-137349147D01*
X172276853Y-137474646D01*
X172375456Y-137622216D01*
X172443376Y-137786188D01*
X172478000Y-137960259D01*
X172478000Y-138137741D01*
X172443376Y-138311812D01*
X172375456Y-138475784D01*
X172276853Y-138623354D01*
X172151354Y-138748853D01*
X172003784Y-138847456D01*
X171839812Y-138915376D01*
X171690512Y-138945073D01*
X171665742Y-138950000D01*
X171488258Y-138950000D01*
X171463488Y-138945073D01*
X171314188Y-138915376D01*
X171150216Y-138847456D01*
X171002646Y-138748853D01*
X170877147Y-138623354D01*
X170778544Y-138475784D01*
X170710624Y-138311812D01*
X170676000Y-138137741D01*
X170676000Y-137960259D01*
X170710624Y-137786188D01*
X170778544Y-137622216D01*
X170877147Y-137474646D01*
X171002646Y-137349147D01*
X171150216Y-137250544D01*
X171314188Y-137182624D01*
X171463488Y-137152927D01*
X171488258Y-137148000D01*
X171665742Y-137148000D01*
X171690512Y-137152927D01*
G37*
G36*
X151370512Y-137152927D02*
G01*
X151519812Y-137182624D01*
X151683784Y-137250544D01*
X151831354Y-137349147D01*
X151956853Y-137474646D01*
X152055456Y-137622216D01*
X152123376Y-137786188D01*
X152158000Y-137960259D01*
X152158000Y-138137741D01*
X152123376Y-138311812D01*
X152055456Y-138475784D01*
X151956853Y-138623354D01*
X151831354Y-138748853D01*
X151683784Y-138847456D01*
X151519812Y-138915376D01*
X151370512Y-138945073D01*
X151345742Y-138950000D01*
X151168258Y-138950000D01*
X151143488Y-138945073D01*
X150994188Y-138915376D01*
X150830216Y-138847456D01*
X150682646Y-138748853D01*
X150557147Y-138623354D01*
X150458544Y-138475784D01*
X150390624Y-138311812D01*
X150356000Y-138137741D01*
X150356000Y-137960259D01*
X150390624Y-137786188D01*
X150458544Y-137622216D01*
X150557147Y-137474646D01*
X150682646Y-137349147D01*
X150830216Y-137250544D01*
X150994188Y-137182624D01*
X151143488Y-137152927D01*
X151168258Y-137148000D01*
X151345742Y-137148000D01*
X151370512Y-137152927D01*
G37*
G36*
X176770512Y-137152927D02*
G01*
X176919812Y-137182624D01*
X177083784Y-137250544D01*
X177231354Y-137349147D01*
X177356853Y-137474646D01*
X177455456Y-137622216D01*
X177523376Y-137786188D01*
X177558000Y-137960259D01*
X177558000Y-138137741D01*
X177523376Y-138311812D01*
X177455456Y-138475784D01*
X177356853Y-138623354D01*
X177231354Y-138748853D01*
X177083784Y-138847456D01*
X176919812Y-138915376D01*
X176770512Y-138945073D01*
X176745742Y-138950000D01*
X176568258Y-138950000D01*
X176543488Y-138945073D01*
X176394188Y-138915376D01*
X176230216Y-138847456D01*
X176082646Y-138748853D01*
X175957147Y-138623354D01*
X175858544Y-138475784D01*
X175790624Y-138311812D01*
X175756000Y-138137741D01*
X175756000Y-137960259D01*
X175790624Y-137786188D01*
X175858544Y-137622216D01*
X175957147Y-137474646D01*
X176082646Y-137349147D01*
X176230216Y-137250544D01*
X176394188Y-137182624D01*
X176543488Y-137152927D01*
X176568258Y-137148000D01*
X176745742Y-137148000D01*
X176770512Y-137152927D01*
G37*
G36*
X179310512Y-137152927D02*
G01*
X179459812Y-137182624D01*
X179623784Y-137250544D01*
X179771354Y-137349147D01*
X179896853Y-137474646D01*
X179995456Y-137622216D01*
X180063376Y-137786188D01*
X180098000Y-137960259D01*
X180098000Y-138137741D01*
X180063376Y-138311812D01*
X179995456Y-138475784D01*
X179896853Y-138623354D01*
X179771354Y-138748853D01*
X179623784Y-138847456D01*
X179459812Y-138915376D01*
X179310512Y-138945073D01*
X179285742Y-138950000D01*
X179108258Y-138950000D01*
X179083488Y-138945073D01*
X178934188Y-138915376D01*
X178770216Y-138847456D01*
X178622646Y-138748853D01*
X178497147Y-138623354D01*
X178398544Y-138475784D01*
X178330624Y-138311812D01*
X178296000Y-138137741D01*
X178296000Y-137960259D01*
X178330624Y-137786188D01*
X178398544Y-137622216D01*
X178497147Y-137474646D01*
X178622646Y-137349147D01*
X178770216Y-137250544D01*
X178934188Y-137182624D01*
X179083488Y-137152927D01*
X179108258Y-137148000D01*
X179285742Y-137148000D01*
X179310512Y-137152927D01*
G37*
G36*
X181850512Y-137152927D02*
G01*
X181999812Y-137182624D01*
X182163784Y-137250544D01*
X182311354Y-137349147D01*
X182436853Y-137474646D01*
X182535456Y-137622216D01*
X182603376Y-137786188D01*
X182638000Y-137960259D01*
X182638000Y-138137741D01*
X182603376Y-138311812D01*
X182535456Y-138475784D01*
X182436853Y-138623354D01*
X182311354Y-138748853D01*
X182163784Y-138847456D01*
X181999812Y-138915376D01*
X181850512Y-138945073D01*
X181825742Y-138950000D01*
X181648258Y-138950000D01*
X181623488Y-138945073D01*
X181474188Y-138915376D01*
X181310216Y-138847456D01*
X181162646Y-138748853D01*
X181037147Y-138623354D01*
X180938544Y-138475784D01*
X180870624Y-138311812D01*
X180836000Y-138137741D01*
X180836000Y-137960259D01*
X180870624Y-137786188D01*
X180938544Y-137622216D01*
X181037147Y-137474646D01*
X181162646Y-137349147D01*
X181310216Y-137250544D01*
X181474188Y-137182624D01*
X181623488Y-137152927D01*
X181648258Y-137148000D01*
X181825742Y-137148000D01*
X181850512Y-137152927D01*
G37*
G36*
X184390512Y-137152927D02*
G01*
X184539812Y-137182624D01*
X184703784Y-137250544D01*
X184851354Y-137349147D01*
X184976853Y-137474646D01*
X185075456Y-137622216D01*
X185143376Y-137786188D01*
X185178000Y-137960259D01*
X185178000Y-138137741D01*
X185143376Y-138311812D01*
X185075456Y-138475784D01*
X184976853Y-138623354D01*
X184851354Y-138748853D01*
X184703784Y-138847456D01*
X184539812Y-138915376D01*
X184390512Y-138945073D01*
X184365742Y-138950000D01*
X184188258Y-138950000D01*
X184163488Y-138945073D01*
X184014188Y-138915376D01*
X183850216Y-138847456D01*
X183702646Y-138748853D01*
X183577147Y-138623354D01*
X183478544Y-138475784D01*
X183410624Y-138311812D01*
X183376000Y-138137741D01*
X183376000Y-137960259D01*
X183410624Y-137786188D01*
X183478544Y-137622216D01*
X183577147Y-137474646D01*
X183702646Y-137349147D01*
X183850216Y-137250544D01*
X184014188Y-137182624D01*
X184163488Y-137152927D01*
X184188258Y-137148000D01*
X184365742Y-137148000D01*
X184390512Y-137152927D01*
G37*
G36*
X186930512Y-137152927D02*
G01*
X187079812Y-137182624D01*
X187243784Y-137250544D01*
X187391354Y-137349147D01*
X187516853Y-137474646D01*
X187615456Y-137622216D01*
X187683376Y-137786188D01*
X187718000Y-137960259D01*
X187718000Y-138137741D01*
X187683376Y-138311812D01*
X187615456Y-138475784D01*
X187516853Y-138623354D01*
X187391354Y-138748853D01*
X187243784Y-138847456D01*
X187079812Y-138915376D01*
X186930512Y-138945073D01*
X186905742Y-138950000D01*
X186728258Y-138950000D01*
X186703488Y-138945073D01*
X186554188Y-138915376D01*
X186390216Y-138847456D01*
X186242646Y-138748853D01*
X186117147Y-138623354D01*
X186018544Y-138475784D01*
X185950624Y-138311812D01*
X185916000Y-138137741D01*
X185916000Y-137960259D01*
X185950624Y-137786188D01*
X186018544Y-137622216D01*
X186117147Y-137474646D01*
X186242646Y-137349147D01*
X186390216Y-137250544D01*
X186554188Y-137182624D01*
X186703488Y-137152927D01*
X186728258Y-137148000D01*
X186905742Y-137148000D01*
X186930512Y-137152927D01*
G37*
G36*
X138665796Y-134611989D02*
G01*
X138819812Y-134642624D01*
X138983784Y-134710544D01*
X139131354Y-134809147D01*
X139256853Y-134934646D01*
X139355456Y-135082216D01*
X139423376Y-135246188D01*
X139458000Y-135420259D01*
X139458000Y-135597741D01*
X139423376Y-135771812D01*
X139355456Y-135935784D01*
X139256853Y-136083354D01*
X139131354Y-136208853D01*
X138983784Y-136307456D01*
X138819812Y-136375376D01*
X138671341Y-136404908D01*
X138645742Y-136410000D01*
X138468258Y-136410000D01*
X138442659Y-136404908D01*
X138294188Y-136375376D01*
X138130216Y-136307456D01*
X137982646Y-136208853D01*
X137857147Y-136083354D01*
X137758544Y-135935784D01*
X137690624Y-135771812D01*
X137656000Y-135597741D01*
X137656000Y-135420259D01*
X137690624Y-135246188D01*
X137758544Y-135082216D01*
X137857147Y-134934646D01*
X137982646Y-134809147D01*
X138130216Y-134710544D01*
X138294188Y-134642624D01*
X138448204Y-134611989D01*
X138468258Y-134608000D01*
X138645742Y-134608000D01*
X138665796Y-134611989D01*
G37*
G36*
X179305796Y-134611989D02*
G01*
X179459812Y-134642624D01*
X179623784Y-134710544D01*
X179771354Y-134809147D01*
X179896853Y-134934646D01*
X179995456Y-135082216D01*
X180063376Y-135246188D01*
X180098000Y-135420259D01*
X180098000Y-135597741D01*
X180063376Y-135771812D01*
X179995456Y-135935784D01*
X179896853Y-136083354D01*
X179771354Y-136208853D01*
X179623784Y-136307456D01*
X179459812Y-136375376D01*
X179311341Y-136404908D01*
X179285742Y-136410000D01*
X179108258Y-136410000D01*
X179082659Y-136404908D01*
X178934188Y-136375376D01*
X178770216Y-136307456D01*
X178622646Y-136208853D01*
X178497147Y-136083354D01*
X178398544Y-135935784D01*
X178330624Y-135771812D01*
X178296000Y-135597741D01*
X178296000Y-135420259D01*
X178330624Y-135246188D01*
X178398544Y-135082216D01*
X178497147Y-134934646D01*
X178622646Y-134809147D01*
X178770216Y-134710544D01*
X178934188Y-134642624D01*
X179088204Y-134611989D01*
X179108258Y-134608000D01*
X179285742Y-134608000D01*
X179305796Y-134611989D01*
G37*
G36*
X184385796Y-134611989D02*
G01*
X184539812Y-134642624D01*
X184703784Y-134710544D01*
X184851354Y-134809147D01*
X184976853Y-134934646D01*
X185075456Y-135082216D01*
X185143376Y-135246188D01*
X185178000Y-135420259D01*
X185178000Y-135597741D01*
X185143376Y-135771812D01*
X185075456Y-135935784D01*
X184976853Y-136083354D01*
X184851354Y-136208853D01*
X184703784Y-136307456D01*
X184539812Y-136375376D01*
X184391341Y-136404908D01*
X184365742Y-136410000D01*
X184188258Y-136410000D01*
X184162659Y-136404908D01*
X184014188Y-136375376D01*
X183850216Y-136307456D01*
X183702646Y-136208853D01*
X183577147Y-136083354D01*
X183478544Y-135935784D01*
X183410624Y-135771812D01*
X183376000Y-135597741D01*
X183376000Y-135420259D01*
X183410624Y-135246188D01*
X183478544Y-135082216D01*
X183577147Y-134934646D01*
X183702646Y-134809147D01*
X183850216Y-134710544D01*
X184014188Y-134642624D01*
X184168204Y-134611989D01*
X184188258Y-134608000D01*
X184365742Y-134608000D01*
X184385796Y-134611989D01*
G37*
G36*
X186925796Y-134611989D02*
G01*
X187079812Y-134642624D01*
X187243784Y-134710544D01*
X187391354Y-134809147D01*
X187516853Y-134934646D01*
X187615456Y-135082216D01*
X187683376Y-135246188D01*
X187718000Y-135420259D01*
X187718000Y-135597741D01*
X187683376Y-135771812D01*
X187615456Y-135935784D01*
X187516853Y-136083354D01*
X187391354Y-136208853D01*
X187243784Y-136307456D01*
X187079812Y-136375376D01*
X186931341Y-136404908D01*
X186905742Y-136410000D01*
X186728258Y-136410000D01*
X186702659Y-136404908D01*
X186554188Y-136375376D01*
X186390216Y-136307456D01*
X186242646Y-136208853D01*
X186117147Y-136083354D01*
X186018544Y-135935784D01*
X185950624Y-135771812D01*
X185916000Y-135597741D01*
X185916000Y-135420259D01*
X185950624Y-135246188D01*
X186018544Y-135082216D01*
X186117147Y-134934646D01*
X186242646Y-134809147D01*
X186390216Y-134710544D01*
X186554188Y-134642624D01*
X186708204Y-134611989D01*
X186728258Y-134608000D01*
X186905742Y-134608000D01*
X186925796Y-134611989D01*
G37*
G36*
X189465796Y-134611989D02*
G01*
X189619812Y-134642624D01*
X189783784Y-134710544D01*
X189931354Y-134809147D01*
X190056853Y-134934646D01*
X190155456Y-135082216D01*
X190223376Y-135246188D01*
X190258000Y-135420259D01*
X190258000Y-135597741D01*
X190223376Y-135771812D01*
X190155456Y-135935784D01*
X190056853Y-136083354D01*
X189931354Y-136208853D01*
X189783784Y-136307456D01*
X189619812Y-136375376D01*
X189471341Y-136404908D01*
X189445742Y-136410000D01*
X189268258Y-136410000D01*
X189242659Y-136404908D01*
X189094188Y-136375376D01*
X188930216Y-136307456D01*
X188782646Y-136208853D01*
X188657147Y-136083354D01*
X188558544Y-135935784D01*
X188490624Y-135771812D01*
X188456000Y-135597741D01*
X188456000Y-135420259D01*
X188490624Y-135246188D01*
X188558544Y-135082216D01*
X188657147Y-134934646D01*
X188782646Y-134809147D01*
X188930216Y-134710544D01*
X189094188Y-134642624D01*
X189248204Y-134611989D01*
X189268258Y-134608000D01*
X189445742Y-134608000D01*
X189465796Y-134611989D01*
G37*
G36*
X192655600Y-134611989D02*
G01*
X192688652Y-134622015D01*
X192719103Y-134638292D01*
X192745799Y-134660201D01*
X192767708Y-134686897D01*
X192783985Y-134717348D01*
X192794011Y-134750400D01*
X192798000Y-134790903D01*
X192798000Y-136227097D01*
X192794011Y-136267600D01*
X192783985Y-136300652D01*
X192767708Y-136331103D01*
X192745799Y-136357799D01*
X192719103Y-136379708D01*
X192688652Y-136395985D01*
X192655600Y-136406011D01*
X192615097Y-136410000D01*
X191178903Y-136410000D01*
X191138400Y-136406011D01*
X191105348Y-136395985D01*
X191074897Y-136379708D01*
X191048201Y-136357799D01*
X191026292Y-136331103D01*
X191010015Y-136300652D01*
X190999989Y-136267600D01*
X190996000Y-136227097D01*
X190996000Y-134790903D01*
X190999989Y-134750400D01*
X191010015Y-134717348D01*
X191026292Y-134686897D01*
X191048201Y-134660201D01*
X191074897Y-134638292D01*
X191105348Y-134622015D01*
X191138400Y-134611989D01*
X191178903Y-134608000D01*
X192615097Y-134608000D01*
X192655600Y-134611989D01*
G37*
G36*
X133585796Y-134611989D02*
G01*
X133739812Y-134642624D01*
X133903784Y-134710544D01*
X134051354Y-134809147D01*
X134176853Y-134934646D01*
X134275456Y-135082216D01*
X134343376Y-135246188D01*
X134378000Y-135420259D01*
X134378000Y-135597741D01*
X134343376Y-135771812D01*
X134275456Y-135935784D01*
X134176853Y-136083354D01*
X134051354Y-136208853D01*
X133903784Y-136307456D01*
X133739812Y-136375376D01*
X133591341Y-136404908D01*
X133565742Y-136410000D01*
X133388258Y-136410000D01*
X133362659Y-136404908D01*
X133214188Y-136375376D01*
X133050216Y-136307456D01*
X132902646Y-136208853D01*
X132777147Y-136083354D01*
X132678544Y-135935784D01*
X132610624Y-135771812D01*
X132576000Y-135597741D01*
X132576000Y-135420259D01*
X132610624Y-135246188D01*
X132678544Y-135082216D01*
X132777147Y-134934646D01*
X132902646Y-134809147D01*
X133050216Y-134710544D01*
X133214188Y-134642624D01*
X133368204Y-134611989D01*
X133388258Y-134608000D01*
X133565742Y-134608000D01*
X133585796Y-134611989D01*
G37*
G36*
X131045796Y-134611989D02*
G01*
X131199812Y-134642624D01*
X131363784Y-134710544D01*
X131511354Y-134809147D01*
X131636853Y-134934646D01*
X131735456Y-135082216D01*
X131803376Y-135246188D01*
X131838000Y-135420259D01*
X131838000Y-135597741D01*
X131803376Y-135771812D01*
X131735456Y-135935784D01*
X131636853Y-136083354D01*
X131511354Y-136208853D01*
X131363784Y-136307456D01*
X131199812Y-136375376D01*
X131051341Y-136404908D01*
X131025742Y-136410000D01*
X130848258Y-136410000D01*
X130822659Y-136404908D01*
X130674188Y-136375376D01*
X130510216Y-136307456D01*
X130362646Y-136208853D01*
X130237147Y-136083354D01*
X130138544Y-135935784D01*
X130070624Y-135771812D01*
X130036000Y-135597741D01*
X130036000Y-135420259D01*
X130070624Y-135246188D01*
X130138544Y-135082216D01*
X130237147Y-134934646D01*
X130362646Y-134809147D01*
X130510216Y-134710544D01*
X130674188Y-134642624D01*
X130828204Y-134611989D01*
X130848258Y-134608000D01*
X131025742Y-134608000D01*
X131045796Y-134611989D01*
G37*
G36*
X128505796Y-134611989D02*
G01*
X128659812Y-134642624D01*
X128823784Y-134710544D01*
X128971354Y-134809147D01*
X129096853Y-134934646D01*
X129195456Y-135082216D01*
X129263376Y-135246188D01*
X129298000Y-135420259D01*
X129298000Y-135597741D01*
X129263376Y-135771812D01*
X129195456Y-135935784D01*
X129096853Y-136083354D01*
X128971354Y-136208853D01*
X128823784Y-136307456D01*
X128659812Y-136375376D01*
X128511341Y-136404908D01*
X128485742Y-136410000D01*
X128308258Y-136410000D01*
X128282659Y-136404908D01*
X128134188Y-136375376D01*
X127970216Y-136307456D01*
X127822646Y-136208853D01*
X127697147Y-136083354D01*
X127598544Y-135935784D01*
X127530624Y-135771812D01*
X127496000Y-135597741D01*
X127496000Y-135420259D01*
X127530624Y-135246188D01*
X127598544Y-135082216D01*
X127697147Y-134934646D01*
X127822646Y-134809147D01*
X127970216Y-134710544D01*
X128134188Y-134642624D01*
X128288204Y-134611989D01*
X128308258Y-134608000D01*
X128485742Y-134608000D01*
X128505796Y-134611989D01*
G37*
G36*
X125965796Y-134611989D02*
G01*
X126119812Y-134642624D01*
X126283784Y-134710544D01*
X126431354Y-134809147D01*
X126556853Y-134934646D01*
X126655456Y-135082216D01*
X126723376Y-135246188D01*
X126758000Y-135420259D01*
X126758000Y-135597741D01*
X126723376Y-135771812D01*
X126655456Y-135935784D01*
X126556853Y-136083354D01*
X126431354Y-136208853D01*
X126283784Y-136307456D01*
X126119812Y-136375376D01*
X125971341Y-136404908D01*
X125945742Y-136410000D01*
X125768258Y-136410000D01*
X125742659Y-136404908D01*
X125594188Y-136375376D01*
X125430216Y-136307456D01*
X125282646Y-136208853D01*
X125157147Y-136083354D01*
X125058544Y-135935784D01*
X124990624Y-135771812D01*
X124956000Y-135597741D01*
X124956000Y-135420259D01*
X124990624Y-135246188D01*
X125058544Y-135082216D01*
X125157147Y-134934646D01*
X125282646Y-134809147D01*
X125430216Y-134710544D01*
X125594188Y-134642624D01*
X125748204Y-134611989D01*
X125768258Y-134608000D01*
X125945742Y-134608000D01*
X125965796Y-134611989D01*
G37*
G36*
X123425796Y-134611989D02*
G01*
X123579812Y-134642624D01*
X123743784Y-134710544D01*
X123891354Y-134809147D01*
X124016853Y-134934646D01*
X124115456Y-135082216D01*
X124183376Y-135246188D01*
X124218000Y-135420259D01*
X124218000Y-135597741D01*
X124183376Y-135771812D01*
X124115456Y-135935784D01*
X124016853Y-136083354D01*
X123891354Y-136208853D01*
X123743784Y-136307456D01*
X123579812Y-136375376D01*
X123431341Y-136404908D01*
X123405742Y-136410000D01*
X123228258Y-136410000D01*
X123202659Y-136404908D01*
X123054188Y-136375376D01*
X122890216Y-136307456D01*
X122742646Y-136208853D01*
X122617147Y-136083354D01*
X122518544Y-135935784D01*
X122450624Y-135771812D01*
X122416000Y-135597741D01*
X122416000Y-135420259D01*
X122450624Y-135246188D01*
X122518544Y-135082216D01*
X122617147Y-134934646D01*
X122742646Y-134809147D01*
X122890216Y-134710544D01*
X123054188Y-134642624D01*
X123208204Y-134611989D01*
X123228258Y-134608000D01*
X123405742Y-134608000D01*
X123425796Y-134611989D01*
G37*
G36*
X120885796Y-134611989D02*
G01*
X121039812Y-134642624D01*
X121203784Y-134710544D01*
X121351354Y-134809147D01*
X121476853Y-134934646D01*
X121575456Y-135082216D01*
X121643376Y-135246188D01*
X121678000Y-135420259D01*
X121678000Y-135597741D01*
X121643376Y-135771812D01*
X121575456Y-135935784D01*
X121476853Y-136083354D01*
X121351354Y-136208853D01*
X121203784Y-136307456D01*
X121039812Y-136375376D01*
X120891341Y-136404908D01*
X120865742Y-136410000D01*
X120688258Y-136410000D01*
X120662659Y-136404908D01*
X120514188Y-136375376D01*
X120350216Y-136307456D01*
X120202646Y-136208853D01*
X120077147Y-136083354D01*
X119978544Y-135935784D01*
X119910624Y-135771812D01*
X119876000Y-135597741D01*
X119876000Y-135420259D01*
X119910624Y-135246188D01*
X119978544Y-135082216D01*
X120077147Y-134934646D01*
X120202646Y-134809147D01*
X120350216Y-134710544D01*
X120514188Y-134642624D01*
X120668204Y-134611989D01*
X120688258Y-134608000D01*
X120865742Y-134608000D01*
X120885796Y-134611989D01*
G37*
G36*
X118345796Y-134611989D02*
G01*
X118499812Y-134642624D01*
X118663784Y-134710544D01*
X118811354Y-134809147D01*
X118936853Y-134934646D01*
X119035456Y-135082216D01*
X119103376Y-135246188D01*
X119138000Y-135420259D01*
X119138000Y-135597741D01*
X119103376Y-135771812D01*
X119035456Y-135935784D01*
X118936853Y-136083354D01*
X118811354Y-136208853D01*
X118663784Y-136307456D01*
X118499812Y-136375376D01*
X118351341Y-136404908D01*
X118325742Y-136410000D01*
X118148258Y-136410000D01*
X118122659Y-136404908D01*
X117974188Y-136375376D01*
X117810216Y-136307456D01*
X117662646Y-136208853D01*
X117537147Y-136083354D01*
X117438544Y-135935784D01*
X117370624Y-135771812D01*
X117336000Y-135597741D01*
X117336000Y-135420259D01*
X117370624Y-135246188D01*
X117438544Y-135082216D01*
X117537147Y-134934646D01*
X117662646Y-134809147D01*
X117810216Y-134710544D01*
X117974188Y-134642624D01*
X118128204Y-134611989D01*
X118148258Y-134608000D01*
X118325742Y-134608000D01*
X118345796Y-134611989D01*
G37*
G36*
X115805796Y-134611989D02*
G01*
X115959812Y-134642624D01*
X116123784Y-134710544D01*
X116271354Y-134809147D01*
X116396853Y-134934646D01*
X116495456Y-135082216D01*
X116563376Y-135246188D01*
X116598000Y-135420259D01*
X116598000Y-135597741D01*
X116563376Y-135771812D01*
X116495456Y-135935784D01*
X116396853Y-136083354D01*
X116271354Y-136208853D01*
X116123784Y-136307456D01*
X115959812Y-136375376D01*
X115811341Y-136404908D01*
X115785742Y-136410000D01*
X115608258Y-136410000D01*
X115582659Y-136404908D01*
X115434188Y-136375376D01*
X115270216Y-136307456D01*
X115122646Y-136208853D01*
X114997147Y-136083354D01*
X114898544Y-135935784D01*
X114830624Y-135771812D01*
X114796000Y-135597741D01*
X114796000Y-135420259D01*
X114830624Y-135246188D01*
X114898544Y-135082216D01*
X114997147Y-134934646D01*
X115122646Y-134809147D01*
X115270216Y-134710544D01*
X115434188Y-134642624D01*
X115588204Y-134611989D01*
X115608258Y-134608000D01*
X115785742Y-134608000D01*
X115805796Y-134611989D01*
G37*
G36*
X113265796Y-134611989D02*
G01*
X113419812Y-134642624D01*
X113583784Y-134710544D01*
X113731354Y-134809147D01*
X113856853Y-134934646D01*
X113955456Y-135082216D01*
X114023376Y-135246188D01*
X114058000Y-135420259D01*
X114058000Y-135597741D01*
X114023376Y-135771812D01*
X113955456Y-135935784D01*
X113856853Y-136083354D01*
X113731354Y-136208853D01*
X113583784Y-136307456D01*
X113419812Y-136375376D01*
X113271341Y-136404908D01*
X113245742Y-136410000D01*
X113068258Y-136410000D01*
X113042659Y-136404908D01*
X112894188Y-136375376D01*
X112730216Y-136307456D01*
X112582646Y-136208853D01*
X112457147Y-136083354D01*
X112358544Y-135935784D01*
X112290624Y-135771812D01*
X112256000Y-135597741D01*
X112256000Y-135420259D01*
X112290624Y-135246188D01*
X112358544Y-135082216D01*
X112457147Y-134934646D01*
X112582646Y-134809147D01*
X112730216Y-134710544D01*
X112894188Y-134642624D01*
X113048204Y-134611989D01*
X113068258Y-134608000D01*
X113245742Y-134608000D01*
X113265796Y-134611989D01*
G37*
G36*
X141205796Y-134611989D02*
G01*
X141359812Y-134642624D01*
X141523784Y-134710544D01*
X141671354Y-134809147D01*
X141796853Y-134934646D01*
X141895456Y-135082216D01*
X141963376Y-135246188D01*
X141998000Y-135420259D01*
X141998000Y-135597741D01*
X141963376Y-135771812D01*
X141895456Y-135935784D01*
X141796853Y-136083354D01*
X141671354Y-136208853D01*
X141523784Y-136307456D01*
X141359812Y-136375376D01*
X141211341Y-136404908D01*
X141185742Y-136410000D01*
X141008258Y-136410000D01*
X140982659Y-136404908D01*
X140834188Y-136375376D01*
X140670216Y-136307456D01*
X140522646Y-136208853D01*
X140397147Y-136083354D01*
X140298544Y-135935784D01*
X140230624Y-135771812D01*
X140196000Y-135597741D01*
X140196000Y-135420259D01*
X140230624Y-135246188D01*
X140298544Y-135082216D01*
X140397147Y-134934646D01*
X140522646Y-134809147D01*
X140670216Y-134710544D01*
X140834188Y-134642624D01*
X140988204Y-134611989D01*
X141008258Y-134608000D01*
X141185742Y-134608000D01*
X141205796Y-134611989D01*
G37*
G36*
X156445796Y-134611989D02*
G01*
X156599812Y-134642624D01*
X156763784Y-134710544D01*
X156911354Y-134809147D01*
X157036853Y-134934646D01*
X157135456Y-135082216D01*
X157203376Y-135246188D01*
X157238000Y-135420259D01*
X157238000Y-135597741D01*
X157203376Y-135771812D01*
X157135456Y-135935784D01*
X157036853Y-136083354D01*
X156911354Y-136208853D01*
X156763784Y-136307456D01*
X156599812Y-136375376D01*
X156451341Y-136404908D01*
X156425742Y-136410000D01*
X156248258Y-136410000D01*
X156222659Y-136404908D01*
X156074188Y-136375376D01*
X155910216Y-136307456D01*
X155762646Y-136208853D01*
X155637147Y-136083354D01*
X155538544Y-135935784D01*
X155470624Y-135771812D01*
X155436000Y-135597741D01*
X155436000Y-135420259D01*
X155470624Y-135246188D01*
X155538544Y-135082216D01*
X155637147Y-134934646D01*
X155762646Y-134809147D01*
X155910216Y-134710544D01*
X156074188Y-134642624D01*
X156228204Y-134611989D01*
X156248258Y-134608000D01*
X156425742Y-134608000D01*
X156445796Y-134611989D01*
G37*
G36*
X176765796Y-134611989D02*
G01*
X176919812Y-134642624D01*
X177083784Y-134710544D01*
X177231354Y-134809147D01*
X177356853Y-134934646D01*
X177455456Y-135082216D01*
X177523376Y-135246188D01*
X177558000Y-135420259D01*
X177558000Y-135597741D01*
X177523376Y-135771812D01*
X177455456Y-135935784D01*
X177356853Y-136083354D01*
X177231354Y-136208853D01*
X177083784Y-136307456D01*
X176919812Y-136375376D01*
X176771341Y-136404908D01*
X176745742Y-136410000D01*
X176568258Y-136410000D01*
X176542659Y-136404908D01*
X176394188Y-136375376D01*
X176230216Y-136307456D01*
X176082646Y-136208853D01*
X175957147Y-136083354D01*
X175858544Y-135935784D01*
X175790624Y-135771812D01*
X175756000Y-135597741D01*
X175756000Y-135420259D01*
X175790624Y-135246188D01*
X175858544Y-135082216D01*
X175957147Y-134934646D01*
X176082646Y-134809147D01*
X176230216Y-134710544D01*
X176394188Y-134642624D01*
X176548204Y-134611989D01*
X176568258Y-134608000D01*
X176745742Y-134608000D01*
X176765796Y-134611989D01*
G37*
G36*
X136125796Y-134611989D02*
G01*
X136279812Y-134642624D01*
X136443784Y-134710544D01*
X136591354Y-134809147D01*
X136716853Y-134934646D01*
X136815456Y-135082216D01*
X136883376Y-135246188D01*
X136918000Y-135420259D01*
X136918000Y-135597741D01*
X136883376Y-135771812D01*
X136815456Y-135935784D01*
X136716853Y-136083354D01*
X136591354Y-136208853D01*
X136443784Y-136307456D01*
X136279812Y-136375376D01*
X136131341Y-136404908D01*
X136105742Y-136410000D01*
X135928258Y-136410000D01*
X135902659Y-136404908D01*
X135754188Y-136375376D01*
X135590216Y-136307456D01*
X135442646Y-136208853D01*
X135317147Y-136083354D01*
X135218544Y-135935784D01*
X135150624Y-135771812D01*
X135116000Y-135597741D01*
X135116000Y-135420259D01*
X135150624Y-135246188D01*
X135218544Y-135082216D01*
X135317147Y-134934646D01*
X135442646Y-134809147D01*
X135590216Y-134710544D01*
X135754188Y-134642624D01*
X135908204Y-134611989D01*
X135928258Y-134608000D01*
X136105742Y-134608000D01*
X136125796Y-134611989D01*
G37*
G36*
X143745796Y-134611989D02*
G01*
X143899812Y-134642624D01*
X144063784Y-134710544D01*
X144211354Y-134809147D01*
X144336853Y-134934646D01*
X144435456Y-135082216D01*
X144503376Y-135246188D01*
X144538000Y-135420259D01*
X144538000Y-135597741D01*
X144503376Y-135771812D01*
X144435456Y-135935784D01*
X144336853Y-136083354D01*
X144211354Y-136208853D01*
X144063784Y-136307456D01*
X143899812Y-136375376D01*
X143751341Y-136404908D01*
X143725742Y-136410000D01*
X143548258Y-136410000D01*
X143522659Y-136404908D01*
X143374188Y-136375376D01*
X143210216Y-136307456D01*
X143062646Y-136208853D01*
X142937147Y-136083354D01*
X142838544Y-135935784D01*
X142770624Y-135771812D01*
X142736000Y-135597741D01*
X142736000Y-135420259D01*
X142770624Y-135246188D01*
X142838544Y-135082216D01*
X142937147Y-134934646D01*
X143062646Y-134809147D01*
X143210216Y-134710544D01*
X143374188Y-134642624D01*
X143528204Y-134611989D01*
X143548258Y-134608000D01*
X143725742Y-134608000D01*
X143745796Y-134611989D01*
G37*
G36*
X181845796Y-134611989D02*
G01*
X181999812Y-134642624D01*
X182163784Y-134710544D01*
X182311354Y-134809147D01*
X182436853Y-134934646D01*
X182535456Y-135082216D01*
X182603376Y-135246188D01*
X182638000Y-135420259D01*
X182638000Y-135597741D01*
X182603376Y-135771812D01*
X182535456Y-135935784D01*
X182436853Y-136083354D01*
X182311354Y-136208853D01*
X182163784Y-136307456D01*
X181999812Y-136375376D01*
X181851341Y-136404908D01*
X181825742Y-136410000D01*
X181648258Y-136410000D01*
X181622659Y-136404908D01*
X181474188Y-136375376D01*
X181310216Y-136307456D01*
X181162646Y-136208853D01*
X181037147Y-136083354D01*
X180938544Y-135935784D01*
X180870624Y-135771812D01*
X180836000Y-135597741D01*
X180836000Y-135420259D01*
X180870624Y-135246188D01*
X180938544Y-135082216D01*
X181037147Y-134934646D01*
X181162646Y-134809147D01*
X181310216Y-134710544D01*
X181474188Y-134642624D01*
X181628204Y-134611989D01*
X181648258Y-134608000D01*
X181825742Y-134608000D01*
X181845796Y-134611989D01*
G37*
G36*
X146285796Y-134611989D02*
G01*
X146439812Y-134642624D01*
X146603784Y-134710544D01*
X146751354Y-134809147D01*
X146876853Y-134934646D01*
X146975456Y-135082216D01*
X147043376Y-135246188D01*
X147078000Y-135420259D01*
X147078000Y-135597741D01*
X147043376Y-135771812D01*
X146975456Y-135935784D01*
X146876853Y-136083354D01*
X146751354Y-136208853D01*
X146603784Y-136307456D01*
X146439812Y-136375376D01*
X146291341Y-136404908D01*
X146265742Y-136410000D01*
X146088258Y-136410000D01*
X146062659Y-136404908D01*
X145914188Y-136375376D01*
X145750216Y-136307456D01*
X145602646Y-136208853D01*
X145477147Y-136083354D01*
X145378544Y-135935784D01*
X145310624Y-135771812D01*
X145276000Y-135597741D01*
X145276000Y-135420259D01*
X145310624Y-135246188D01*
X145378544Y-135082216D01*
X145477147Y-134934646D01*
X145602646Y-134809147D01*
X145750216Y-134710544D01*
X145914188Y-134642624D01*
X146068204Y-134611989D01*
X146088258Y-134608000D01*
X146265742Y-134608000D01*
X146285796Y-134611989D01*
G37*
G36*
X148825796Y-134611989D02*
G01*
X148979812Y-134642624D01*
X149143784Y-134710544D01*
X149291354Y-134809147D01*
X149416853Y-134934646D01*
X149515456Y-135082216D01*
X149583376Y-135246188D01*
X149618000Y-135420259D01*
X149618000Y-135597741D01*
X149583376Y-135771812D01*
X149515456Y-135935784D01*
X149416853Y-136083354D01*
X149291354Y-136208853D01*
X149143784Y-136307456D01*
X148979812Y-136375376D01*
X148831341Y-136404908D01*
X148805742Y-136410000D01*
X148628258Y-136410000D01*
X148602659Y-136404908D01*
X148454188Y-136375376D01*
X148290216Y-136307456D01*
X148142646Y-136208853D01*
X148017147Y-136083354D01*
X147918544Y-135935784D01*
X147850624Y-135771812D01*
X147816000Y-135597741D01*
X147816000Y-135420259D01*
X147850624Y-135246188D01*
X147918544Y-135082216D01*
X148017147Y-134934646D01*
X148142646Y-134809147D01*
X148290216Y-134710544D01*
X148454188Y-134642624D01*
X148608204Y-134611989D01*
X148628258Y-134608000D01*
X148805742Y-134608000D01*
X148825796Y-134611989D01*
G37*
G36*
X151365796Y-134611989D02*
G01*
X151519812Y-134642624D01*
X151683784Y-134710544D01*
X151831354Y-134809147D01*
X151956853Y-134934646D01*
X152055456Y-135082216D01*
X152123376Y-135246188D01*
X152158000Y-135420259D01*
X152158000Y-135597741D01*
X152123376Y-135771812D01*
X152055456Y-135935784D01*
X151956853Y-136083354D01*
X151831354Y-136208853D01*
X151683784Y-136307456D01*
X151519812Y-136375376D01*
X151371341Y-136404908D01*
X151345742Y-136410000D01*
X151168258Y-136410000D01*
X151142659Y-136404908D01*
X150994188Y-136375376D01*
X150830216Y-136307456D01*
X150682646Y-136208853D01*
X150557147Y-136083354D01*
X150458544Y-135935784D01*
X150390624Y-135771812D01*
X150356000Y-135597741D01*
X150356000Y-135420259D01*
X150390624Y-135246188D01*
X150458544Y-135082216D01*
X150557147Y-134934646D01*
X150682646Y-134809147D01*
X150830216Y-134710544D01*
X150994188Y-134642624D01*
X151148204Y-134611989D01*
X151168258Y-134608000D01*
X151345742Y-134608000D01*
X151365796Y-134611989D01*
G37*
G36*
X153905796Y-134611989D02*
G01*
X154059812Y-134642624D01*
X154223784Y-134710544D01*
X154371354Y-134809147D01*
X154496853Y-134934646D01*
X154595456Y-135082216D01*
X154663376Y-135246188D01*
X154698000Y-135420259D01*
X154698000Y-135597741D01*
X154663376Y-135771812D01*
X154595456Y-135935784D01*
X154496853Y-136083354D01*
X154371354Y-136208853D01*
X154223784Y-136307456D01*
X154059812Y-136375376D01*
X153911341Y-136404908D01*
X153885742Y-136410000D01*
X153708258Y-136410000D01*
X153682659Y-136404908D01*
X153534188Y-136375376D01*
X153370216Y-136307456D01*
X153222646Y-136208853D01*
X153097147Y-136083354D01*
X152998544Y-135935784D01*
X152930624Y-135771812D01*
X152896000Y-135597741D01*
X152896000Y-135420259D01*
X152930624Y-135246188D01*
X152998544Y-135082216D01*
X153097147Y-134934646D01*
X153222646Y-134809147D01*
X153370216Y-134710544D01*
X153534188Y-134642624D01*
X153688204Y-134611989D01*
X153708258Y-134608000D01*
X153885742Y-134608000D01*
X153905796Y-134611989D01*
G37*
G36*
X158985796Y-134611989D02*
G01*
X159139812Y-134642624D01*
X159303784Y-134710544D01*
X159451354Y-134809147D01*
X159576853Y-134934646D01*
X159675456Y-135082216D01*
X159743376Y-135246188D01*
X159778000Y-135420259D01*
X159778000Y-135597741D01*
X159743376Y-135771812D01*
X159675456Y-135935784D01*
X159576853Y-136083354D01*
X159451354Y-136208853D01*
X159303784Y-136307456D01*
X159139812Y-136375376D01*
X158991341Y-136404908D01*
X158965742Y-136410000D01*
X158788258Y-136410000D01*
X158762659Y-136404908D01*
X158614188Y-136375376D01*
X158450216Y-136307456D01*
X158302646Y-136208853D01*
X158177147Y-136083354D01*
X158078544Y-135935784D01*
X158010624Y-135771812D01*
X157976000Y-135597741D01*
X157976000Y-135420259D01*
X158010624Y-135246188D01*
X158078544Y-135082216D01*
X158177147Y-134934646D01*
X158302646Y-134809147D01*
X158450216Y-134710544D01*
X158614188Y-134642624D01*
X158768204Y-134611989D01*
X158788258Y-134608000D01*
X158965742Y-134608000D01*
X158985796Y-134611989D01*
G37*
G36*
X161525796Y-134611989D02*
G01*
X161679812Y-134642624D01*
X161843784Y-134710544D01*
X161991354Y-134809147D01*
X162116853Y-134934646D01*
X162215456Y-135082216D01*
X162283376Y-135246188D01*
X162318000Y-135420259D01*
X162318000Y-135597741D01*
X162283376Y-135771812D01*
X162215456Y-135935784D01*
X162116853Y-136083354D01*
X161991354Y-136208853D01*
X161843784Y-136307456D01*
X161679812Y-136375376D01*
X161531341Y-136404908D01*
X161505742Y-136410000D01*
X161328258Y-136410000D01*
X161302659Y-136404908D01*
X161154188Y-136375376D01*
X160990216Y-136307456D01*
X160842646Y-136208853D01*
X160717147Y-136083354D01*
X160618544Y-135935784D01*
X160550624Y-135771812D01*
X160516000Y-135597741D01*
X160516000Y-135420259D01*
X160550624Y-135246188D01*
X160618544Y-135082216D01*
X160717147Y-134934646D01*
X160842646Y-134809147D01*
X160990216Y-134710544D01*
X161154188Y-134642624D01*
X161308204Y-134611989D01*
X161328258Y-134608000D01*
X161505742Y-134608000D01*
X161525796Y-134611989D01*
G37*
G36*
X164065796Y-134611989D02*
G01*
X164219812Y-134642624D01*
X164383784Y-134710544D01*
X164531354Y-134809147D01*
X164656853Y-134934646D01*
X164755456Y-135082216D01*
X164823376Y-135246188D01*
X164858000Y-135420259D01*
X164858000Y-135597741D01*
X164823376Y-135771812D01*
X164755456Y-135935784D01*
X164656853Y-136083354D01*
X164531354Y-136208853D01*
X164383784Y-136307456D01*
X164219812Y-136375376D01*
X164071341Y-136404908D01*
X164045742Y-136410000D01*
X163868258Y-136410000D01*
X163842659Y-136404908D01*
X163694188Y-136375376D01*
X163530216Y-136307456D01*
X163382646Y-136208853D01*
X163257147Y-136083354D01*
X163158544Y-135935784D01*
X163090624Y-135771812D01*
X163056000Y-135597741D01*
X163056000Y-135420259D01*
X163090624Y-135246188D01*
X163158544Y-135082216D01*
X163257147Y-134934646D01*
X163382646Y-134809147D01*
X163530216Y-134710544D01*
X163694188Y-134642624D01*
X163848204Y-134611989D01*
X163868258Y-134608000D01*
X164045742Y-134608000D01*
X164065796Y-134611989D01*
G37*
G36*
X166605796Y-134611989D02*
G01*
X166759812Y-134642624D01*
X166923784Y-134710544D01*
X167071354Y-134809147D01*
X167196853Y-134934646D01*
X167295456Y-135082216D01*
X167363376Y-135246188D01*
X167398000Y-135420259D01*
X167398000Y-135597741D01*
X167363376Y-135771812D01*
X167295456Y-135935784D01*
X167196853Y-136083354D01*
X167071354Y-136208853D01*
X166923784Y-136307456D01*
X166759812Y-136375376D01*
X166611341Y-136404908D01*
X166585742Y-136410000D01*
X166408258Y-136410000D01*
X166382659Y-136404908D01*
X166234188Y-136375376D01*
X166070216Y-136307456D01*
X165922646Y-136208853D01*
X165797147Y-136083354D01*
X165698544Y-135935784D01*
X165630624Y-135771812D01*
X165596000Y-135597741D01*
X165596000Y-135420259D01*
X165630624Y-135246188D01*
X165698544Y-135082216D01*
X165797147Y-134934646D01*
X165922646Y-134809147D01*
X166070216Y-134710544D01*
X166234188Y-134642624D01*
X166388204Y-134611989D01*
X166408258Y-134608000D01*
X166585742Y-134608000D01*
X166605796Y-134611989D01*
G37*
G36*
X169145796Y-134611989D02*
G01*
X169299812Y-134642624D01*
X169463784Y-134710544D01*
X169611354Y-134809147D01*
X169736853Y-134934646D01*
X169835456Y-135082216D01*
X169903376Y-135246188D01*
X169938000Y-135420259D01*
X169938000Y-135597741D01*
X169903376Y-135771812D01*
X169835456Y-135935784D01*
X169736853Y-136083354D01*
X169611354Y-136208853D01*
X169463784Y-136307456D01*
X169299812Y-136375376D01*
X169151341Y-136404908D01*
X169125742Y-136410000D01*
X168948258Y-136410000D01*
X168922659Y-136404908D01*
X168774188Y-136375376D01*
X168610216Y-136307456D01*
X168462646Y-136208853D01*
X168337147Y-136083354D01*
X168238544Y-135935784D01*
X168170624Y-135771812D01*
X168136000Y-135597741D01*
X168136000Y-135420259D01*
X168170624Y-135246188D01*
X168238544Y-135082216D01*
X168337147Y-134934646D01*
X168462646Y-134809147D01*
X168610216Y-134710544D01*
X168774188Y-134642624D01*
X168928204Y-134611989D01*
X168948258Y-134608000D01*
X169125742Y-134608000D01*
X169145796Y-134611989D01*
G37*
G36*
X171685796Y-134611989D02*
G01*
X171839812Y-134642624D01*
X172003784Y-134710544D01*
X172151354Y-134809147D01*
X172276853Y-134934646D01*
X172375456Y-135082216D01*
X172443376Y-135246188D01*
X172478000Y-135420259D01*
X172478000Y-135597741D01*
X172443376Y-135771812D01*
X172375456Y-135935784D01*
X172276853Y-136083354D01*
X172151354Y-136208853D01*
X172003784Y-136307456D01*
X171839812Y-136375376D01*
X171691341Y-136404908D01*
X171665742Y-136410000D01*
X171488258Y-136410000D01*
X171462659Y-136404908D01*
X171314188Y-136375376D01*
X171150216Y-136307456D01*
X171002646Y-136208853D01*
X170877147Y-136083354D01*
X170778544Y-135935784D01*
X170710624Y-135771812D01*
X170676000Y-135597741D01*
X170676000Y-135420259D01*
X170710624Y-135246188D01*
X170778544Y-135082216D01*
X170877147Y-134934646D01*
X171002646Y-134809147D01*
X171150216Y-134710544D01*
X171314188Y-134642624D01*
X171468204Y-134611989D01*
X171488258Y-134608000D01*
X171665742Y-134608000D01*
X171685796Y-134611989D01*
G37*
G36*
X174225796Y-134611989D02*
G01*
X174379812Y-134642624D01*
X174543784Y-134710544D01*
X174691354Y-134809147D01*
X174816853Y-134934646D01*
X174915456Y-135082216D01*
X174983376Y-135246188D01*
X175018000Y-135420259D01*
X175018000Y-135597741D01*
X174983376Y-135771812D01*
X174915456Y-135935784D01*
X174816853Y-136083354D01*
X174691354Y-136208853D01*
X174543784Y-136307456D01*
X174379812Y-136375376D01*
X174231341Y-136404908D01*
X174205742Y-136410000D01*
X174028258Y-136410000D01*
X174002659Y-136404908D01*
X173854188Y-136375376D01*
X173690216Y-136307456D01*
X173542646Y-136208853D01*
X173417147Y-136083354D01*
X173318544Y-135935784D01*
X173250624Y-135771812D01*
X173216000Y-135597741D01*
X173216000Y-135420259D01*
X173250624Y-135246188D01*
X173318544Y-135082216D01*
X173417147Y-134934646D01*
X173542646Y-134809147D01*
X173690216Y-134710544D01*
X173854188Y-134642624D01*
X174008204Y-134611989D01*
X174028258Y-134608000D01*
X174205742Y-134608000D01*
X174225796Y-134611989D01*
G37*
G36*
X151505228Y-130372703D02*
G01*
X151660100Y-130436853D01*
X151799481Y-130529985D01*
X151918015Y-130648519D01*
X152011147Y-130787900D01*
X152075297Y-130942772D01*
X152108000Y-131107184D01*
X152108000Y-131274816D01*
X152075297Y-131439228D01*
X152011147Y-131594100D01*
X151918015Y-131733481D01*
X151799481Y-131852015D01*
X151660100Y-131945147D01*
X151505228Y-132009297D01*
X151340816Y-132042000D01*
X151173184Y-132042000D01*
X151008772Y-132009297D01*
X150853900Y-131945147D01*
X150714519Y-131852015D01*
X150595985Y-131733481D01*
X150502853Y-131594100D01*
X150438703Y-131439228D01*
X150406000Y-131274816D01*
X150406000Y-131107184D01*
X150438703Y-130942772D01*
X150502853Y-130787900D01*
X150595985Y-130648519D01*
X150714519Y-130529985D01*
X150853900Y-130436853D01*
X151008772Y-130372703D01*
X151173184Y-130340000D01*
X151340816Y-130340000D01*
X151505228Y-130372703D01*
G37*
G36*
X143885228Y-130372703D02*
G01*
X144040100Y-130436853D01*
X144179481Y-130529985D01*
X144298015Y-130648519D01*
X144391147Y-130787900D01*
X144455297Y-130942772D01*
X144488000Y-131107184D01*
X144488000Y-131274816D01*
X144455297Y-131439228D01*
X144391147Y-131594100D01*
X144298015Y-131733481D01*
X144179481Y-131852015D01*
X144040100Y-131945147D01*
X143885228Y-132009297D01*
X143720816Y-132042000D01*
X143553184Y-132042000D01*
X143388772Y-132009297D01*
X143233900Y-131945147D01*
X143094519Y-131852015D01*
X142975985Y-131733481D01*
X142882853Y-131594100D01*
X142818703Y-131439228D01*
X142786000Y-131274816D01*
X142786000Y-131107184D01*
X142818703Y-130942772D01*
X142882853Y-130787900D01*
X142975985Y-130648519D01*
X143094519Y-130529985D01*
X143233900Y-130436853D01*
X143388772Y-130372703D01*
X143553184Y-130340000D01*
X143720816Y-130340000D01*
X143885228Y-130372703D01*
G37*
G36*
X151505228Y-127832703D02*
G01*
X151660100Y-127896853D01*
X151799481Y-127989985D01*
X151918015Y-128108519D01*
X152011147Y-128247900D01*
X152075297Y-128402772D01*
X152108000Y-128567184D01*
X152108000Y-128734816D01*
X152075297Y-128899228D01*
X152011147Y-129054100D01*
X151918015Y-129193481D01*
X151799481Y-129312015D01*
X151660100Y-129405147D01*
X151505228Y-129469297D01*
X151340816Y-129502000D01*
X151173184Y-129502000D01*
X151008772Y-129469297D01*
X150853900Y-129405147D01*
X150714519Y-129312015D01*
X150595985Y-129193481D01*
X150502853Y-129054100D01*
X150438703Y-128899228D01*
X150406000Y-128734816D01*
X150406000Y-128567184D01*
X150438703Y-128402772D01*
X150502853Y-128247900D01*
X150595985Y-128108519D01*
X150714519Y-127989985D01*
X150853900Y-127896853D01*
X151008772Y-127832703D01*
X151173184Y-127800000D01*
X151340816Y-127800000D01*
X151505228Y-127832703D01*
G37*
G36*
X143885228Y-127832703D02*
G01*
X144040100Y-127896853D01*
X144179481Y-127989985D01*
X144298015Y-128108519D01*
X144391147Y-128247900D01*
X144455297Y-128402772D01*
X144488000Y-128567184D01*
X144488000Y-128734816D01*
X144455297Y-128899228D01*
X144391147Y-129054100D01*
X144298015Y-129193481D01*
X144179481Y-129312015D01*
X144040100Y-129405147D01*
X143885228Y-129469297D01*
X143720816Y-129502000D01*
X143553184Y-129502000D01*
X143388772Y-129469297D01*
X143233900Y-129405147D01*
X143094519Y-129312015D01*
X142975985Y-129193481D01*
X142882853Y-129054100D01*
X142818703Y-128899228D01*
X142786000Y-128734816D01*
X142786000Y-128567184D01*
X142818703Y-128402772D01*
X142882853Y-128247900D01*
X142975985Y-128108519D01*
X143094519Y-127989985D01*
X143233900Y-127896853D01*
X143388772Y-127832703D01*
X143553184Y-127800000D01*
X143720816Y-127800000D01*
X143885228Y-127832703D01*
G37*
G36*
X169539228Y-127070703D02*
G01*
X169694100Y-127134853D01*
X169833481Y-127227985D01*
X169952015Y-127346519D01*
X170045147Y-127485900D01*
X170109297Y-127640772D01*
X170142000Y-127805184D01*
X170142000Y-127972816D01*
X170109297Y-128137228D01*
X170045147Y-128292100D01*
X169952015Y-128431481D01*
X169833481Y-128550015D01*
X169694100Y-128643147D01*
X169539228Y-128707297D01*
X169374816Y-128740000D01*
X169207184Y-128740000D01*
X169042772Y-128707297D01*
X168887900Y-128643147D01*
X168748519Y-128550015D01*
X168629985Y-128431481D01*
X168536853Y-128292100D01*
X168472703Y-128137228D01*
X168440000Y-127972816D01*
X168440000Y-127805184D01*
X168472703Y-127640772D01*
X168536853Y-127485900D01*
X168629985Y-127346519D01*
X168748519Y-127227985D01*
X168887900Y-127134853D01*
X169042772Y-127070703D01*
X169207184Y-127038000D01*
X169374816Y-127038000D01*
X169539228Y-127070703D01*
G37*
G36*
X179699228Y-127070703D02*
G01*
X179854100Y-127134853D01*
X179993481Y-127227985D01*
X180112015Y-127346519D01*
X180205147Y-127485900D01*
X180269297Y-127640772D01*
X180302000Y-127805184D01*
X180302000Y-127972816D01*
X180269297Y-128137228D01*
X180205147Y-128292100D01*
X180112015Y-128431481D01*
X179993481Y-128550015D01*
X179854100Y-128643147D01*
X179699228Y-128707297D01*
X179534816Y-128740000D01*
X179367184Y-128740000D01*
X179202772Y-128707297D01*
X179047900Y-128643147D01*
X178908519Y-128550015D01*
X178789985Y-128431481D01*
X178696853Y-128292100D01*
X178632703Y-128137228D01*
X178600000Y-127972816D01*
X178600000Y-127805184D01*
X178632703Y-127640772D01*
X178696853Y-127485900D01*
X178789985Y-127346519D01*
X178908519Y-127227985D01*
X179047900Y-127134853D01*
X179202772Y-127070703D01*
X179367184Y-127038000D01*
X179534816Y-127038000D01*
X179699228Y-127070703D01*
G37*
G36*
X177159228Y-127070703D02*
G01*
X177314100Y-127134853D01*
X177453481Y-127227985D01*
X177572015Y-127346519D01*
X177665147Y-127485900D01*
X177729297Y-127640772D01*
X177762000Y-127805184D01*
X177762000Y-127972816D01*
X177729297Y-128137228D01*
X177665147Y-128292100D01*
X177572015Y-128431481D01*
X177453481Y-128550015D01*
X177314100Y-128643147D01*
X177159228Y-128707297D01*
X176994816Y-128740000D01*
X176827184Y-128740000D01*
X176662772Y-128707297D01*
X176507900Y-128643147D01*
X176368519Y-128550015D01*
X176249985Y-128431481D01*
X176156853Y-128292100D01*
X176092703Y-128137228D01*
X176060000Y-127972816D01*
X176060000Y-127805184D01*
X176092703Y-127640772D01*
X176156853Y-127485900D01*
X176249985Y-127346519D01*
X176368519Y-127227985D01*
X176507900Y-127134853D01*
X176662772Y-127070703D01*
X176827184Y-127038000D01*
X176994816Y-127038000D01*
X177159228Y-127070703D01*
G37*
G36*
X174619228Y-127070703D02*
G01*
X174774100Y-127134853D01*
X174913481Y-127227985D01*
X175032015Y-127346519D01*
X175125147Y-127485900D01*
X175189297Y-127640772D01*
X175222000Y-127805184D01*
X175222000Y-127972816D01*
X175189297Y-128137228D01*
X175125147Y-128292100D01*
X175032015Y-128431481D01*
X174913481Y-128550015D01*
X174774100Y-128643147D01*
X174619228Y-128707297D01*
X174454816Y-128740000D01*
X174287184Y-128740000D01*
X174122772Y-128707297D01*
X173967900Y-128643147D01*
X173828519Y-128550015D01*
X173709985Y-128431481D01*
X173616853Y-128292100D01*
X173552703Y-128137228D01*
X173520000Y-127972816D01*
X173520000Y-127805184D01*
X173552703Y-127640772D01*
X173616853Y-127485900D01*
X173709985Y-127346519D01*
X173828519Y-127227985D01*
X173967900Y-127134853D01*
X174122772Y-127070703D01*
X174287184Y-127038000D01*
X174454816Y-127038000D01*
X174619228Y-127070703D01*
G37*
G36*
X172079228Y-127070703D02*
G01*
X172234100Y-127134853D01*
X172373481Y-127227985D01*
X172492015Y-127346519D01*
X172585147Y-127485900D01*
X172649297Y-127640772D01*
X172682000Y-127805184D01*
X172682000Y-127972816D01*
X172649297Y-128137228D01*
X172585147Y-128292100D01*
X172492015Y-128431481D01*
X172373481Y-128550015D01*
X172234100Y-128643147D01*
X172079228Y-128707297D01*
X171914816Y-128740000D01*
X171747184Y-128740000D01*
X171582772Y-128707297D01*
X171427900Y-128643147D01*
X171288519Y-128550015D01*
X171169985Y-128431481D01*
X171076853Y-128292100D01*
X171012703Y-128137228D01*
X170980000Y-127972816D01*
X170980000Y-127805184D01*
X171012703Y-127640772D01*
X171076853Y-127485900D01*
X171169985Y-127346519D01*
X171288519Y-127227985D01*
X171427900Y-127134853D01*
X171582772Y-127070703D01*
X171747184Y-127038000D01*
X171914816Y-127038000D01*
X172079228Y-127070703D01*
G37*
G36*
X166999228Y-127070703D02*
G01*
X167154100Y-127134853D01*
X167293481Y-127227985D01*
X167412015Y-127346519D01*
X167505147Y-127485900D01*
X167569297Y-127640772D01*
X167602000Y-127805184D01*
X167602000Y-127972816D01*
X167569297Y-128137228D01*
X167505147Y-128292100D01*
X167412015Y-128431481D01*
X167293481Y-128550015D01*
X167154100Y-128643147D01*
X166999228Y-128707297D01*
X166834816Y-128740000D01*
X166667184Y-128740000D01*
X166502772Y-128707297D01*
X166347900Y-128643147D01*
X166208519Y-128550015D01*
X166089985Y-128431481D01*
X165996853Y-128292100D01*
X165932703Y-128137228D01*
X165900000Y-127972816D01*
X165900000Y-127805184D01*
X165932703Y-127640772D01*
X165996853Y-127485900D01*
X166089985Y-127346519D01*
X166208519Y-127227985D01*
X166347900Y-127134853D01*
X166502772Y-127070703D01*
X166667184Y-127038000D01*
X166834816Y-127038000D01*
X166999228Y-127070703D01*
G37*
G36*
X165062000Y-128740000D02*
G01*
X163360000Y-128740000D01*
X163360000Y-127038000D01*
X165062000Y-127038000D01*
X165062000Y-128740000D01*
G37*
G36*
X160649228Y-125546703D02*
G01*
X160804100Y-125610853D01*
X160943481Y-125703985D01*
X161062015Y-125822519D01*
X161155147Y-125961900D01*
X161219297Y-126116772D01*
X161252000Y-126281184D01*
X161252000Y-126448816D01*
X161219297Y-126613228D01*
X161155147Y-126768100D01*
X161062015Y-126907481D01*
X160943481Y-127026015D01*
X160804100Y-127119147D01*
X160649228Y-127183297D01*
X160484816Y-127216000D01*
X160317184Y-127216000D01*
X160152772Y-127183297D01*
X159997900Y-127119147D01*
X159858519Y-127026015D01*
X159739985Y-126907481D01*
X159646853Y-126768100D01*
X159582703Y-126613228D01*
X159550000Y-126448816D01*
X159550000Y-126281184D01*
X159582703Y-126116772D01*
X159646853Y-125961900D01*
X159739985Y-125822519D01*
X159858519Y-125703985D01*
X159997900Y-125610853D01*
X160152772Y-125546703D01*
X160317184Y-125514000D01*
X160484816Y-125514000D01*
X160649228Y-125546703D01*
G37*
G36*
X143885228Y-125292703D02*
G01*
X144040100Y-125356853D01*
X144179481Y-125449985D01*
X144298015Y-125568519D01*
X144391147Y-125707900D01*
X144455297Y-125862772D01*
X144488000Y-126027184D01*
X144488000Y-126194816D01*
X144455297Y-126359228D01*
X144391147Y-126514100D01*
X144298015Y-126653481D01*
X144179481Y-126772015D01*
X144040100Y-126865147D01*
X143885228Y-126929297D01*
X143720816Y-126962000D01*
X143553184Y-126962000D01*
X143388772Y-126929297D01*
X143233900Y-126865147D01*
X143094519Y-126772015D01*
X142975985Y-126653481D01*
X142882853Y-126514100D01*
X142818703Y-126359228D01*
X142786000Y-126194816D01*
X142786000Y-126027184D01*
X142818703Y-125862772D01*
X142882853Y-125707900D01*
X142975985Y-125568519D01*
X143094519Y-125449985D01*
X143233900Y-125356853D01*
X143388772Y-125292703D01*
X143553184Y-125260000D01*
X143720816Y-125260000D01*
X143885228Y-125292703D01*
G37*
G36*
X151505228Y-125292703D02*
G01*
X151660100Y-125356853D01*
X151799481Y-125449985D01*
X151918015Y-125568519D01*
X152011147Y-125707900D01*
X152075297Y-125862772D01*
X152108000Y-126027184D01*
X152108000Y-126194816D01*
X152075297Y-126359228D01*
X152011147Y-126514100D01*
X151918015Y-126653481D01*
X151799481Y-126772015D01*
X151660100Y-126865147D01*
X151505228Y-126929297D01*
X151340816Y-126962000D01*
X151173184Y-126962000D01*
X151008772Y-126929297D01*
X150853900Y-126865147D01*
X150714519Y-126772015D01*
X150595985Y-126653481D01*
X150502853Y-126514100D01*
X150438703Y-126359228D01*
X150406000Y-126194816D01*
X150406000Y-126027184D01*
X150438703Y-125862772D01*
X150502853Y-125707900D01*
X150595985Y-125568519D01*
X150714519Y-125449985D01*
X150853900Y-125356853D01*
X151008772Y-125292703D01*
X151173184Y-125260000D01*
X151340816Y-125260000D01*
X151505228Y-125292703D01*
G37*
G36*
X151505228Y-122752703D02*
G01*
X151660100Y-122816853D01*
X151799481Y-122909985D01*
X151918015Y-123028519D01*
X152011147Y-123167900D01*
X152075297Y-123322772D01*
X152108000Y-123487184D01*
X152108000Y-123654816D01*
X152075297Y-123819228D01*
X152011147Y-123974100D01*
X151918015Y-124113481D01*
X151799481Y-124232015D01*
X151660100Y-124325147D01*
X151505228Y-124389297D01*
X151340816Y-124422000D01*
X151173184Y-124422000D01*
X151008772Y-124389297D01*
X150853900Y-124325147D01*
X150714519Y-124232015D01*
X150595985Y-124113481D01*
X150502853Y-123974100D01*
X150438703Y-123819228D01*
X150406000Y-123654816D01*
X150406000Y-123487184D01*
X150438703Y-123322772D01*
X150502853Y-123167900D01*
X150595985Y-123028519D01*
X150714519Y-122909985D01*
X150853900Y-122816853D01*
X151008772Y-122752703D01*
X151173184Y-122720000D01*
X151340816Y-122720000D01*
X151505228Y-122752703D01*
G37*
G36*
X143885228Y-122752703D02*
G01*
X144040100Y-122816853D01*
X144179481Y-122909985D01*
X144298015Y-123028519D01*
X144391147Y-123167900D01*
X144455297Y-123322772D01*
X144488000Y-123487184D01*
X144488000Y-123654816D01*
X144455297Y-123819228D01*
X144391147Y-123974100D01*
X144298015Y-124113481D01*
X144179481Y-124232015D01*
X144040100Y-124325147D01*
X143885228Y-124389297D01*
X143720816Y-124422000D01*
X143553184Y-124422000D01*
X143388772Y-124389297D01*
X143233900Y-124325147D01*
X143094519Y-124232015D01*
X142975985Y-124113481D01*
X142882853Y-123974100D01*
X142818703Y-123819228D01*
X142786000Y-123654816D01*
X142786000Y-123487184D01*
X142818703Y-123322772D01*
X142882853Y-123167900D01*
X142975985Y-123028519D01*
X143094519Y-122909985D01*
X143233900Y-122816853D01*
X143388772Y-122752703D01*
X143553184Y-122720000D01*
X143720816Y-122720000D01*
X143885228Y-122752703D01*
G37*
G36*
X160649228Y-120546703D02*
G01*
X160804100Y-120610853D01*
X160943481Y-120703985D01*
X161062015Y-120822519D01*
X161155147Y-120961900D01*
X161219297Y-121116772D01*
X161252000Y-121281184D01*
X161252000Y-121448816D01*
X161219297Y-121613228D01*
X161155147Y-121768100D01*
X161062015Y-121907481D01*
X160943481Y-122026015D01*
X160804100Y-122119147D01*
X160649228Y-122183297D01*
X160484816Y-122216000D01*
X160317184Y-122216000D01*
X160152772Y-122183297D01*
X159997900Y-122119147D01*
X159858519Y-122026015D01*
X159739985Y-121907481D01*
X159646853Y-121768100D01*
X159582703Y-121613228D01*
X159550000Y-121448816D01*
X159550000Y-121281184D01*
X159582703Y-121116772D01*
X159646853Y-120961900D01*
X159739985Y-120822519D01*
X159858519Y-120703985D01*
X159997900Y-120610853D01*
X160152772Y-120546703D01*
X160317184Y-120514000D01*
X160484816Y-120514000D01*
X160649228Y-120546703D01*
G37*
G36*
X151505228Y-120212703D02*
G01*
X151660100Y-120276853D01*
X151799481Y-120369985D01*
X151918015Y-120488519D01*
X152011147Y-120627900D01*
X152075297Y-120782772D01*
X152108000Y-120947184D01*
X152108000Y-121114816D01*
X152075297Y-121279228D01*
X152011147Y-121434100D01*
X151918015Y-121573481D01*
X151799481Y-121692015D01*
X151660100Y-121785147D01*
X151505228Y-121849297D01*
X151340816Y-121882000D01*
X151173184Y-121882000D01*
X151008772Y-121849297D01*
X150853900Y-121785147D01*
X150714519Y-121692015D01*
X150595985Y-121573481D01*
X150502853Y-121434100D01*
X150438703Y-121279228D01*
X150406000Y-121114816D01*
X150406000Y-120947184D01*
X150438703Y-120782772D01*
X150502853Y-120627900D01*
X150595985Y-120488519D01*
X150714519Y-120369985D01*
X150853900Y-120276853D01*
X151008772Y-120212703D01*
X151173184Y-120180000D01*
X151340816Y-120180000D01*
X151505228Y-120212703D01*
G37*
G36*
X143885228Y-120212703D02*
G01*
X144040100Y-120276853D01*
X144179481Y-120369985D01*
X144298015Y-120488519D01*
X144391147Y-120627900D01*
X144455297Y-120782772D01*
X144488000Y-120947184D01*
X144488000Y-121114816D01*
X144455297Y-121279228D01*
X144391147Y-121434100D01*
X144298015Y-121573481D01*
X144179481Y-121692015D01*
X144040100Y-121785147D01*
X143885228Y-121849297D01*
X143720816Y-121882000D01*
X143553184Y-121882000D01*
X143388772Y-121849297D01*
X143233900Y-121785147D01*
X143094519Y-121692015D01*
X142975985Y-121573481D01*
X142882853Y-121434100D01*
X142818703Y-121279228D01*
X142786000Y-121114816D01*
X142786000Y-120947184D01*
X142818703Y-120782772D01*
X142882853Y-120627900D01*
X142975985Y-120488519D01*
X143094519Y-120369985D01*
X143233900Y-120276853D01*
X143388772Y-120212703D01*
X143553184Y-120180000D01*
X143720816Y-120180000D01*
X143885228Y-120212703D01*
G37*
G36*
X164459228Y-119450703D02*
G01*
X164614100Y-119514853D01*
X164753481Y-119607985D01*
X164872015Y-119726519D01*
X164965147Y-119865900D01*
X165029297Y-120020772D01*
X165062000Y-120185184D01*
X165062000Y-120352816D01*
X165029297Y-120517228D01*
X164965147Y-120672100D01*
X164872015Y-120811481D01*
X164753481Y-120930015D01*
X164614100Y-121023147D01*
X164459228Y-121087297D01*
X164294816Y-121120000D01*
X164127184Y-121120000D01*
X163962772Y-121087297D01*
X163807900Y-121023147D01*
X163668519Y-120930015D01*
X163549985Y-120811481D01*
X163456853Y-120672100D01*
X163392703Y-120517228D01*
X163360000Y-120352816D01*
X163360000Y-120185184D01*
X163392703Y-120020772D01*
X163456853Y-119865900D01*
X163549985Y-119726519D01*
X163668519Y-119607985D01*
X163807900Y-119514853D01*
X163962772Y-119450703D01*
X164127184Y-119418000D01*
X164294816Y-119418000D01*
X164459228Y-119450703D01*
G37*
G36*
X169539228Y-119450703D02*
G01*
X169694100Y-119514853D01*
X169833481Y-119607985D01*
X169952015Y-119726519D01*
X170045147Y-119865900D01*
X170109297Y-120020772D01*
X170142000Y-120185184D01*
X170142000Y-120352816D01*
X170109297Y-120517228D01*
X170045147Y-120672100D01*
X169952015Y-120811481D01*
X169833481Y-120930015D01*
X169694100Y-121023147D01*
X169539228Y-121087297D01*
X169374816Y-121120000D01*
X169207184Y-121120000D01*
X169042772Y-121087297D01*
X168887900Y-121023147D01*
X168748519Y-120930015D01*
X168629985Y-120811481D01*
X168536853Y-120672100D01*
X168472703Y-120517228D01*
X168440000Y-120352816D01*
X168440000Y-120185184D01*
X168472703Y-120020772D01*
X168536853Y-119865900D01*
X168629985Y-119726519D01*
X168748519Y-119607985D01*
X168887900Y-119514853D01*
X169042772Y-119450703D01*
X169207184Y-119418000D01*
X169374816Y-119418000D01*
X169539228Y-119450703D01*
G37*
G36*
X172079228Y-119450703D02*
G01*
X172234100Y-119514853D01*
X172373481Y-119607985D01*
X172492015Y-119726519D01*
X172585147Y-119865900D01*
X172649297Y-120020772D01*
X172682000Y-120185184D01*
X172682000Y-120352816D01*
X172649297Y-120517228D01*
X172585147Y-120672100D01*
X172492015Y-120811481D01*
X172373481Y-120930015D01*
X172234100Y-121023147D01*
X172079228Y-121087297D01*
X171914816Y-121120000D01*
X171747184Y-121120000D01*
X171582772Y-121087297D01*
X171427900Y-121023147D01*
X171288519Y-120930015D01*
X171169985Y-120811481D01*
X171076853Y-120672100D01*
X171012703Y-120517228D01*
X170980000Y-120352816D01*
X170980000Y-120185184D01*
X171012703Y-120020772D01*
X171076853Y-119865900D01*
X171169985Y-119726519D01*
X171288519Y-119607985D01*
X171427900Y-119514853D01*
X171582772Y-119450703D01*
X171747184Y-119418000D01*
X171914816Y-119418000D01*
X172079228Y-119450703D01*
G37*
G36*
X174619228Y-119450703D02*
G01*
X174774100Y-119514853D01*
X174913481Y-119607985D01*
X175032015Y-119726519D01*
X175125147Y-119865900D01*
X175189297Y-120020772D01*
X175222000Y-120185184D01*
X175222000Y-120352816D01*
X175189297Y-120517228D01*
X175125147Y-120672100D01*
X175032015Y-120811481D01*
X174913481Y-120930015D01*
X174774100Y-121023147D01*
X174619228Y-121087297D01*
X174454816Y-121120000D01*
X174287184Y-121120000D01*
X174122772Y-121087297D01*
X173967900Y-121023147D01*
X173828519Y-120930015D01*
X173709985Y-120811481D01*
X173616853Y-120672100D01*
X173552703Y-120517228D01*
X173520000Y-120352816D01*
X173520000Y-120185184D01*
X173552703Y-120020772D01*
X173616853Y-119865900D01*
X173709985Y-119726519D01*
X173828519Y-119607985D01*
X173967900Y-119514853D01*
X174122772Y-119450703D01*
X174287184Y-119418000D01*
X174454816Y-119418000D01*
X174619228Y-119450703D01*
G37*
G36*
X177159228Y-119450703D02*
G01*
X177314100Y-119514853D01*
X177453481Y-119607985D01*
X177572015Y-119726519D01*
X177665147Y-119865900D01*
X177729297Y-120020772D01*
X177762000Y-120185184D01*
X177762000Y-120352816D01*
X177729297Y-120517228D01*
X177665147Y-120672100D01*
X177572015Y-120811481D01*
X177453481Y-120930015D01*
X177314100Y-121023147D01*
X177159228Y-121087297D01*
X176994816Y-121120000D01*
X176827184Y-121120000D01*
X176662772Y-121087297D01*
X176507900Y-121023147D01*
X176368519Y-120930015D01*
X176249985Y-120811481D01*
X176156853Y-120672100D01*
X176092703Y-120517228D01*
X176060000Y-120352816D01*
X176060000Y-120185184D01*
X176092703Y-120020772D01*
X176156853Y-119865900D01*
X176249985Y-119726519D01*
X176368519Y-119607985D01*
X176507900Y-119514853D01*
X176662772Y-119450703D01*
X176827184Y-119418000D01*
X176994816Y-119418000D01*
X177159228Y-119450703D01*
G37*
G36*
X179699228Y-119450703D02*
G01*
X179854100Y-119514853D01*
X179993481Y-119607985D01*
X180112015Y-119726519D01*
X180205147Y-119865900D01*
X180269297Y-120020772D01*
X180302000Y-120185184D01*
X180302000Y-120352816D01*
X180269297Y-120517228D01*
X180205147Y-120672100D01*
X180112015Y-120811481D01*
X179993481Y-120930015D01*
X179854100Y-121023147D01*
X179699228Y-121087297D01*
X179534816Y-121120000D01*
X179367184Y-121120000D01*
X179202772Y-121087297D01*
X179047900Y-121023147D01*
X178908519Y-120930015D01*
X178789985Y-120811481D01*
X178696853Y-120672100D01*
X178632703Y-120517228D01*
X178600000Y-120352816D01*
X178600000Y-120185184D01*
X178632703Y-120020772D01*
X178696853Y-119865900D01*
X178789985Y-119726519D01*
X178908519Y-119607985D01*
X179047900Y-119514853D01*
X179202772Y-119450703D01*
X179367184Y-119418000D01*
X179534816Y-119418000D01*
X179699228Y-119450703D01*
G37*
G36*
X166999228Y-119450703D02*
G01*
X167154100Y-119514853D01*
X167293481Y-119607985D01*
X167412015Y-119726519D01*
X167505147Y-119865900D01*
X167569297Y-120020772D01*
X167602000Y-120185184D01*
X167602000Y-120352816D01*
X167569297Y-120517228D01*
X167505147Y-120672100D01*
X167412015Y-120811481D01*
X167293481Y-120930015D01*
X167154100Y-121023147D01*
X166999228Y-121087297D01*
X166834816Y-121120000D01*
X166667184Y-121120000D01*
X166502772Y-121087297D01*
X166347900Y-121023147D01*
X166208519Y-120930015D01*
X166089985Y-120811481D01*
X165996853Y-120672100D01*
X165932703Y-120517228D01*
X165900000Y-120352816D01*
X165900000Y-120185184D01*
X165932703Y-120020772D01*
X165996853Y-119865900D01*
X166089985Y-119726519D01*
X166208519Y-119607985D01*
X166347900Y-119514853D01*
X166502772Y-119450703D01*
X166667184Y-119418000D01*
X166834816Y-119418000D01*
X166999228Y-119450703D01*
G37*
G36*
X151505228Y-117672703D02*
G01*
X151660100Y-117736853D01*
X151799481Y-117829985D01*
X151918015Y-117948519D01*
X152011147Y-118087900D01*
X152075297Y-118242772D01*
X152108000Y-118407184D01*
X152108000Y-118574816D01*
X152075297Y-118739228D01*
X152011147Y-118894100D01*
X151918015Y-119033481D01*
X151799481Y-119152015D01*
X151660100Y-119245147D01*
X151505228Y-119309297D01*
X151340816Y-119342000D01*
X151173184Y-119342000D01*
X151008772Y-119309297D01*
X150853900Y-119245147D01*
X150714519Y-119152015D01*
X150595985Y-119033481D01*
X150502853Y-118894100D01*
X150438703Y-118739228D01*
X150406000Y-118574816D01*
X150406000Y-118407184D01*
X150438703Y-118242772D01*
X150502853Y-118087900D01*
X150595985Y-117948519D01*
X150714519Y-117829985D01*
X150853900Y-117736853D01*
X151008772Y-117672703D01*
X151173184Y-117640000D01*
X151340816Y-117640000D01*
X151505228Y-117672703D01*
G37*
G36*
X143885228Y-117672703D02*
G01*
X144040100Y-117736853D01*
X144179481Y-117829985D01*
X144298015Y-117948519D01*
X144391147Y-118087900D01*
X144455297Y-118242772D01*
X144488000Y-118407184D01*
X144488000Y-118574816D01*
X144455297Y-118739228D01*
X144391147Y-118894100D01*
X144298015Y-119033481D01*
X144179481Y-119152015D01*
X144040100Y-119245147D01*
X143885228Y-119309297D01*
X143720816Y-119342000D01*
X143553184Y-119342000D01*
X143388772Y-119309297D01*
X143233900Y-119245147D01*
X143094519Y-119152015D01*
X142975985Y-119033481D01*
X142882853Y-118894100D01*
X142818703Y-118739228D01*
X142786000Y-118574816D01*
X142786000Y-118407184D01*
X142818703Y-118242772D01*
X142882853Y-118087900D01*
X142975985Y-117948519D01*
X143094519Y-117829985D01*
X143233900Y-117736853D01*
X143388772Y-117672703D01*
X143553184Y-117640000D01*
X143720816Y-117640000D01*
X143885228Y-117672703D01*
G37*
G36*
X144488000Y-116802000D02*
G01*
X142786000Y-116802000D01*
X142786000Y-115100000D01*
X144488000Y-115100000D01*
X144488000Y-116802000D01*
G37*
G36*
X151505228Y-115132703D02*
G01*
X151660100Y-115196853D01*
X151799481Y-115289985D01*
X151918015Y-115408519D01*
X152011147Y-115547900D01*
X152075297Y-115702772D01*
X152108000Y-115867184D01*
X152108000Y-116034816D01*
X152075297Y-116199228D01*
X152011147Y-116354100D01*
X151918015Y-116493481D01*
X151799481Y-116612015D01*
X151660100Y-116705147D01*
X151505228Y-116769297D01*
X151340816Y-116802000D01*
X151173184Y-116802000D01*
X151008772Y-116769297D01*
X150853900Y-116705147D01*
X150714519Y-116612015D01*
X150595985Y-116493481D01*
X150502853Y-116354100D01*
X150438703Y-116199228D01*
X150406000Y-116034816D01*
X150406000Y-115867184D01*
X150438703Y-115702772D01*
X150502853Y-115547900D01*
X150595985Y-115408519D01*
X150714519Y-115289985D01*
X150853900Y-115196853D01*
X151008772Y-115132703D01*
X151173184Y-115100000D01*
X151340816Y-115100000D01*
X151505228Y-115132703D01*
G37*
G36*
X145155228Y-111322703D02*
G01*
X145310100Y-111386853D01*
X145449481Y-111479985D01*
X145568015Y-111598519D01*
X145661147Y-111737900D01*
X145725297Y-111892772D01*
X145758000Y-112057184D01*
X145758000Y-112224816D01*
X145725297Y-112389228D01*
X145661147Y-112544100D01*
X145568015Y-112683481D01*
X145449481Y-112802015D01*
X145310100Y-112895147D01*
X145155228Y-112959297D01*
X144990816Y-112992000D01*
X144823184Y-112992000D01*
X144658772Y-112959297D01*
X144503900Y-112895147D01*
X144364519Y-112802015D01*
X144245985Y-112683481D01*
X144152853Y-112544100D01*
X144088703Y-112389228D01*
X144056000Y-112224816D01*
X144056000Y-112057184D01*
X144088703Y-111892772D01*
X144152853Y-111737900D01*
X144245985Y-111598519D01*
X144364519Y-111479985D01*
X144503900Y-111386853D01*
X144658772Y-111322703D01*
X144823184Y-111290000D01*
X144990816Y-111290000D01*
X145155228Y-111322703D01*
G37*
G36*
X150155228Y-111322703D02*
G01*
X150310100Y-111386853D01*
X150449481Y-111479985D01*
X150568015Y-111598519D01*
X150661147Y-111737900D01*
X150725297Y-111892772D01*
X150758000Y-112057184D01*
X150758000Y-112224816D01*
X150725297Y-112389228D01*
X150661147Y-112544100D01*
X150568015Y-112683481D01*
X150449481Y-112802015D01*
X150310100Y-112895147D01*
X150155228Y-112959297D01*
X149990816Y-112992000D01*
X149823184Y-112992000D01*
X149658772Y-112959297D01*
X149503900Y-112895147D01*
X149364519Y-112802015D01*
X149245985Y-112683481D01*
X149152853Y-112544100D01*
X149088703Y-112389228D01*
X149056000Y-112224816D01*
X149056000Y-112057184D01*
X149088703Y-111892772D01*
X149152853Y-111737900D01*
X149245985Y-111598519D01*
X149364519Y-111479985D01*
X149503900Y-111386853D01*
X149658772Y-111322703D01*
X149823184Y-111290000D01*
X149990816Y-111290000D01*
X150155228Y-111322703D01*
G37*
G36*
X128645228Y-101670703D02*
G01*
X128800100Y-101734853D01*
X128939481Y-101827985D01*
X129058015Y-101946519D01*
X129151147Y-102085900D01*
X129215297Y-102240772D01*
X129248000Y-102405184D01*
X129248000Y-102572816D01*
X129215297Y-102737228D01*
X129151147Y-102892100D01*
X129058015Y-103031481D01*
X128939481Y-103150015D01*
X128800100Y-103243147D01*
X128645228Y-103307297D01*
X128480816Y-103340000D01*
X128313184Y-103340000D01*
X128148772Y-103307297D01*
X127993900Y-103243147D01*
X127854519Y-103150015D01*
X127735985Y-103031481D01*
X127642853Y-102892100D01*
X127578703Y-102737228D01*
X127546000Y-102572816D01*
X127546000Y-102405184D01*
X127578703Y-102240772D01*
X127642853Y-102085900D01*
X127735985Y-101946519D01*
X127854519Y-101827985D01*
X127993900Y-101734853D01*
X128148772Y-101670703D01*
X128313184Y-101638000D01*
X128480816Y-101638000D01*
X128645228Y-101670703D01*
G37*
G36*
X121025228Y-101670703D02*
G01*
X121180100Y-101734853D01*
X121319481Y-101827985D01*
X121438015Y-101946519D01*
X121531147Y-102085900D01*
X121595297Y-102240772D01*
X121628000Y-102405184D01*
X121628000Y-102572816D01*
X121595297Y-102737228D01*
X121531147Y-102892100D01*
X121438015Y-103031481D01*
X121319481Y-103150015D01*
X121180100Y-103243147D01*
X121025228Y-103307297D01*
X120860816Y-103340000D01*
X120693184Y-103340000D01*
X120528772Y-103307297D01*
X120373900Y-103243147D01*
X120234519Y-103150015D01*
X120115985Y-103031481D01*
X120022853Y-102892100D01*
X119958703Y-102737228D01*
X119926000Y-102572816D01*
X119926000Y-102405184D01*
X119958703Y-102240772D01*
X120022853Y-102085900D01*
X120115985Y-101946519D01*
X120234519Y-101827985D01*
X120373900Y-101734853D01*
X120528772Y-101670703D01*
X120693184Y-101638000D01*
X120860816Y-101638000D01*
X121025228Y-101670703D01*
G37*
G36*
X128645228Y-99130703D02*
G01*
X128800100Y-99194853D01*
X128939481Y-99287985D01*
X129058015Y-99406519D01*
X129151147Y-99545900D01*
X129215297Y-99700772D01*
X129248000Y-99865184D01*
X129248000Y-100032816D01*
X129215297Y-100197228D01*
X129151147Y-100352100D01*
X129058015Y-100491481D01*
X128939481Y-100610015D01*
X128800100Y-100703147D01*
X128645228Y-100767297D01*
X128480816Y-100800000D01*
X128313184Y-100800000D01*
X128148772Y-100767297D01*
X127993900Y-100703147D01*
X127854519Y-100610015D01*
X127735985Y-100491481D01*
X127642853Y-100352100D01*
X127578703Y-100197228D01*
X127546000Y-100032816D01*
X127546000Y-99865184D01*
X127578703Y-99700772D01*
X127642853Y-99545900D01*
X127735985Y-99406519D01*
X127854519Y-99287985D01*
X127993900Y-99194853D01*
X128148772Y-99130703D01*
X128313184Y-99098000D01*
X128480816Y-99098000D01*
X128645228Y-99130703D01*
G37*
G36*
X121025228Y-99130703D02*
G01*
X121180100Y-99194853D01*
X121319481Y-99287985D01*
X121438015Y-99406519D01*
X121531147Y-99545900D01*
X121595297Y-99700772D01*
X121628000Y-99865184D01*
X121628000Y-100032816D01*
X121595297Y-100197228D01*
X121531147Y-100352100D01*
X121438015Y-100491481D01*
X121319481Y-100610015D01*
X121180100Y-100703147D01*
X121025228Y-100767297D01*
X120860816Y-100800000D01*
X120693184Y-100800000D01*
X120528772Y-100767297D01*
X120373900Y-100703147D01*
X120234519Y-100610015D01*
X120115985Y-100491481D01*
X120022853Y-100352100D01*
X119958703Y-100197228D01*
X119926000Y-100032816D01*
X119926000Y-99865184D01*
X119958703Y-99700772D01*
X120022853Y-99545900D01*
X120115985Y-99406519D01*
X120234519Y-99287985D01*
X120373900Y-99194853D01*
X120528772Y-99130703D01*
X120693184Y-99098000D01*
X120860816Y-99098000D01*
X121025228Y-99130703D01*
G37*
G36*
X128645228Y-96590703D02*
G01*
X128800100Y-96654853D01*
X128939481Y-96747985D01*
X129058015Y-96866519D01*
X129151147Y-97005900D01*
X129215297Y-97160772D01*
X129248000Y-97325184D01*
X129248000Y-97492816D01*
X129215297Y-97657228D01*
X129151147Y-97812100D01*
X129058015Y-97951481D01*
X128939481Y-98070015D01*
X128800100Y-98163147D01*
X128645228Y-98227297D01*
X128480816Y-98260000D01*
X128313184Y-98260000D01*
X128148772Y-98227297D01*
X127993900Y-98163147D01*
X127854519Y-98070015D01*
X127735985Y-97951481D01*
X127642853Y-97812100D01*
X127578703Y-97657228D01*
X127546000Y-97492816D01*
X127546000Y-97325184D01*
X127578703Y-97160772D01*
X127642853Y-97005900D01*
X127735985Y-96866519D01*
X127854519Y-96747985D01*
X127993900Y-96654853D01*
X128148772Y-96590703D01*
X128313184Y-96558000D01*
X128480816Y-96558000D01*
X128645228Y-96590703D01*
G37*
G36*
X121025228Y-96590703D02*
G01*
X121180100Y-96654853D01*
X121319481Y-96747985D01*
X121438015Y-96866519D01*
X121531147Y-97005900D01*
X121595297Y-97160772D01*
X121628000Y-97325184D01*
X121628000Y-97492816D01*
X121595297Y-97657228D01*
X121531147Y-97812100D01*
X121438015Y-97951481D01*
X121319481Y-98070015D01*
X121180100Y-98163147D01*
X121025228Y-98227297D01*
X120860816Y-98260000D01*
X120693184Y-98260000D01*
X120528772Y-98227297D01*
X120373900Y-98163147D01*
X120234519Y-98070015D01*
X120115985Y-97951481D01*
X120022853Y-97812100D01*
X119958703Y-97657228D01*
X119926000Y-97492816D01*
X119926000Y-97325184D01*
X119958703Y-97160772D01*
X120022853Y-97005900D01*
X120115985Y-96866519D01*
X120234519Y-96747985D01*
X120373900Y-96654853D01*
X120528772Y-96590703D01*
X120693184Y-96558000D01*
X120860816Y-96558000D01*
X121025228Y-96590703D01*
G37*
G36*
X121025228Y-94050703D02*
G01*
X121180100Y-94114853D01*
X121319481Y-94207985D01*
X121438015Y-94326519D01*
X121531147Y-94465900D01*
X121595297Y-94620772D01*
X121628000Y-94785184D01*
X121628000Y-94952816D01*
X121595297Y-95117228D01*
X121531147Y-95272100D01*
X121438015Y-95411481D01*
X121319481Y-95530015D01*
X121180100Y-95623147D01*
X121025228Y-95687297D01*
X120860816Y-95720000D01*
X120693184Y-95720000D01*
X120528772Y-95687297D01*
X120373900Y-95623147D01*
X120234519Y-95530015D01*
X120115985Y-95411481D01*
X120022853Y-95272100D01*
X119958703Y-95117228D01*
X119926000Y-94952816D01*
X119926000Y-94785184D01*
X119958703Y-94620772D01*
X120022853Y-94465900D01*
X120115985Y-94326519D01*
X120234519Y-94207985D01*
X120373900Y-94114853D01*
X120528772Y-94050703D01*
X120693184Y-94018000D01*
X120860816Y-94018000D01*
X121025228Y-94050703D01*
G37*
G36*
X128645228Y-94050703D02*
G01*
X128800100Y-94114853D01*
X128939481Y-94207985D01*
X129058015Y-94326519D01*
X129151147Y-94465900D01*
X129215297Y-94620772D01*
X129248000Y-94785184D01*
X129248000Y-94952816D01*
X129215297Y-95117228D01*
X129151147Y-95272100D01*
X129058015Y-95411481D01*
X128939481Y-95530015D01*
X128800100Y-95623147D01*
X128645228Y-95687297D01*
X128480816Y-95720000D01*
X128313184Y-95720000D01*
X128148772Y-95687297D01*
X127993900Y-95623147D01*
X127854519Y-95530015D01*
X127735985Y-95411481D01*
X127642853Y-95272100D01*
X127578703Y-95117228D01*
X127546000Y-94952816D01*
X127546000Y-94785184D01*
X127578703Y-94620772D01*
X127642853Y-94465900D01*
X127735985Y-94326519D01*
X127854519Y-94207985D01*
X127993900Y-94114853D01*
X128148772Y-94050703D01*
X128313184Y-94018000D01*
X128480816Y-94018000D01*
X128645228Y-94050703D01*
G37*
G36*
X128645228Y-91510703D02*
G01*
X128800100Y-91574853D01*
X128939481Y-91667985D01*
X129058015Y-91786519D01*
X129151147Y-91925900D01*
X129215297Y-92080772D01*
X129248000Y-92245184D01*
X129248000Y-92412816D01*
X129215297Y-92577228D01*
X129151147Y-92732100D01*
X129058015Y-92871481D01*
X128939481Y-92990015D01*
X128800100Y-93083147D01*
X128645228Y-93147297D01*
X128480816Y-93180000D01*
X128313184Y-93180000D01*
X128148772Y-93147297D01*
X127993900Y-93083147D01*
X127854519Y-92990015D01*
X127735985Y-92871481D01*
X127642853Y-92732100D01*
X127578703Y-92577228D01*
X127546000Y-92412816D01*
X127546000Y-92245184D01*
X127578703Y-92080772D01*
X127642853Y-91925900D01*
X127735985Y-91786519D01*
X127854519Y-91667985D01*
X127993900Y-91574853D01*
X128148772Y-91510703D01*
X128313184Y-91478000D01*
X128480816Y-91478000D01*
X128645228Y-91510703D01*
G37*
G36*
X121025228Y-91510703D02*
G01*
X121180100Y-91574853D01*
X121319481Y-91667985D01*
X121438015Y-91786519D01*
X121531147Y-91925900D01*
X121595297Y-92080772D01*
X121628000Y-92245184D01*
X121628000Y-92412816D01*
X121595297Y-92577228D01*
X121531147Y-92732100D01*
X121438015Y-92871481D01*
X121319481Y-92990015D01*
X121180100Y-93083147D01*
X121025228Y-93147297D01*
X120860816Y-93180000D01*
X120693184Y-93180000D01*
X120528772Y-93147297D01*
X120373900Y-93083147D01*
X120234519Y-92990015D01*
X120115985Y-92871481D01*
X120022853Y-92732100D01*
X119958703Y-92577228D01*
X119926000Y-92412816D01*
X119926000Y-92245184D01*
X119958703Y-92080772D01*
X120022853Y-91925900D01*
X120115985Y-91786519D01*
X120234519Y-91667985D01*
X120373900Y-91574853D01*
X120528772Y-91510703D01*
X120693184Y-91478000D01*
X120860816Y-91478000D01*
X121025228Y-91510703D01*
G37*
G36*
X121025228Y-88970703D02*
G01*
X121180100Y-89034853D01*
X121319481Y-89127985D01*
X121438015Y-89246519D01*
X121531147Y-89385900D01*
X121595297Y-89540772D01*
X121628000Y-89705184D01*
X121628000Y-89872816D01*
X121595297Y-90037228D01*
X121531147Y-90192100D01*
X121438015Y-90331481D01*
X121319481Y-90450015D01*
X121180100Y-90543147D01*
X121025228Y-90607297D01*
X120860816Y-90640000D01*
X120693184Y-90640000D01*
X120528772Y-90607297D01*
X120373900Y-90543147D01*
X120234519Y-90450015D01*
X120115985Y-90331481D01*
X120022853Y-90192100D01*
X119958703Y-90037228D01*
X119926000Y-89872816D01*
X119926000Y-89705184D01*
X119958703Y-89540772D01*
X120022853Y-89385900D01*
X120115985Y-89246519D01*
X120234519Y-89127985D01*
X120373900Y-89034853D01*
X120528772Y-88970703D01*
X120693184Y-88938000D01*
X120860816Y-88938000D01*
X121025228Y-88970703D01*
G37*
G36*
X128645228Y-88970703D02*
G01*
X128800100Y-89034853D01*
X128939481Y-89127985D01*
X129058015Y-89246519D01*
X129151147Y-89385900D01*
X129215297Y-89540772D01*
X129248000Y-89705184D01*
X129248000Y-89872816D01*
X129215297Y-90037228D01*
X129151147Y-90192100D01*
X129058015Y-90331481D01*
X128939481Y-90450015D01*
X128800100Y-90543147D01*
X128645228Y-90607297D01*
X128480816Y-90640000D01*
X128313184Y-90640000D01*
X128148772Y-90607297D01*
X127993900Y-90543147D01*
X127854519Y-90450015D01*
X127735985Y-90331481D01*
X127642853Y-90192100D01*
X127578703Y-90037228D01*
X127546000Y-89872816D01*
X127546000Y-89705184D01*
X127578703Y-89540772D01*
X127642853Y-89385900D01*
X127735985Y-89246519D01*
X127854519Y-89127985D01*
X127993900Y-89034853D01*
X128148772Y-88970703D01*
X128313184Y-88938000D01*
X128480816Y-88938000D01*
X128645228Y-88970703D01*
G37*
G36*
X128645228Y-86430703D02*
G01*
X128800100Y-86494853D01*
X128939481Y-86587985D01*
X129058015Y-86706519D01*
X129151147Y-86845900D01*
X129215297Y-87000772D01*
X129248000Y-87165184D01*
X129248000Y-87332816D01*
X129215297Y-87497228D01*
X129151147Y-87652100D01*
X129058015Y-87791481D01*
X128939481Y-87910015D01*
X128800100Y-88003147D01*
X128645228Y-88067297D01*
X128480816Y-88100000D01*
X128313184Y-88100000D01*
X128148772Y-88067297D01*
X127993900Y-88003147D01*
X127854519Y-87910015D01*
X127735985Y-87791481D01*
X127642853Y-87652100D01*
X127578703Y-87497228D01*
X127546000Y-87332816D01*
X127546000Y-87165184D01*
X127578703Y-87000772D01*
X127642853Y-86845900D01*
X127735985Y-86706519D01*
X127854519Y-86587985D01*
X127993900Y-86494853D01*
X128148772Y-86430703D01*
X128313184Y-86398000D01*
X128480816Y-86398000D01*
X128645228Y-86430703D01*
G37*
G36*
X121025228Y-86430703D02*
G01*
X121180100Y-86494853D01*
X121319481Y-86587985D01*
X121438015Y-86706519D01*
X121531147Y-86845900D01*
X121595297Y-87000772D01*
X121628000Y-87165184D01*
X121628000Y-87332816D01*
X121595297Y-87497228D01*
X121531147Y-87652100D01*
X121438015Y-87791481D01*
X121319481Y-87910015D01*
X121180100Y-88003147D01*
X121025228Y-88067297D01*
X120860816Y-88100000D01*
X120693184Y-88100000D01*
X120528772Y-88067297D01*
X120373900Y-88003147D01*
X120234519Y-87910015D01*
X120115985Y-87791481D01*
X120022853Y-87652100D01*
X119958703Y-87497228D01*
X119926000Y-87332816D01*
X119926000Y-87165184D01*
X119958703Y-87000772D01*
X120022853Y-86845900D01*
X120115985Y-86706519D01*
X120234519Y-86587985D01*
X120373900Y-86494853D01*
X120528772Y-86430703D01*
X120693184Y-86398000D01*
X120860816Y-86398000D01*
X121025228Y-86430703D01*
G37*
G36*
X128645228Y-83890703D02*
G01*
X128800100Y-83954853D01*
X128939481Y-84047985D01*
X129058015Y-84166519D01*
X129151147Y-84305900D01*
X129215297Y-84460772D01*
X129248000Y-84625184D01*
X129248000Y-84792816D01*
X129215297Y-84957228D01*
X129151147Y-85112100D01*
X129058015Y-85251481D01*
X128939481Y-85370015D01*
X128800100Y-85463147D01*
X128645228Y-85527297D01*
X128480816Y-85560000D01*
X128313184Y-85560000D01*
X128148772Y-85527297D01*
X127993900Y-85463147D01*
X127854519Y-85370015D01*
X127735985Y-85251481D01*
X127642853Y-85112100D01*
X127578703Y-84957228D01*
X127546000Y-84792816D01*
X127546000Y-84625184D01*
X127578703Y-84460772D01*
X127642853Y-84305900D01*
X127735985Y-84166519D01*
X127854519Y-84047985D01*
X127993900Y-83954853D01*
X128148772Y-83890703D01*
X128313184Y-83858000D01*
X128480816Y-83858000D01*
X128645228Y-83890703D01*
G37*
G36*
X121628000Y-85560000D02*
G01*
X119926000Y-85560000D01*
X119926000Y-83858000D01*
X121628000Y-83858000D01*
X121628000Y-85560000D01*
G37*
G36*
X127295228Y-80080703D02*
G01*
X127450100Y-80144853D01*
X127589481Y-80237985D01*
X127708015Y-80356519D01*
X127801147Y-80495900D01*
X127865297Y-80650772D01*
X127898000Y-80815184D01*
X127898000Y-80982816D01*
X127865297Y-81147228D01*
X127801147Y-81302100D01*
X127708015Y-81441481D01*
X127589481Y-81560015D01*
X127450100Y-81653147D01*
X127295228Y-81717297D01*
X127130816Y-81750000D01*
X126963184Y-81750000D01*
X126798772Y-81717297D01*
X126643900Y-81653147D01*
X126504519Y-81560015D01*
X126385985Y-81441481D01*
X126292853Y-81302100D01*
X126228703Y-81147228D01*
X126196000Y-80982816D01*
X126196000Y-80815184D01*
X126228703Y-80650772D01*
X126292853Y-80495900D01*
X126385985Y-80356519D01*
X126504519Y-80237985D01*
X126643900Y-80144853D01*
X126798772Y-80080703D01*
X126963184Y-80048000D01*
X127130816Y-80048000D01*
X127295228Y-80080703D01*
G37*
G36*
X122295228Y-80080703D02*
G01*
X122450100Y-80144853D01*
X122589481Y-80237985D01*
X122708015Y-80356519D01*
X122801147Y-80495900D01*
X122865297Y-80650772D01*
X122898000Y-80815184D01*
X122898000Y-80982816D01*
X122865297Y-81147228D01*
X122801147Y-81302100D01*
X122708015Y-81441481D01*
X122589481Y-81560015D01*
X122450100Y-81653147D01*
X122295228Y-81717297D01*
X122130816Y-81750000D01*
X121963184Y-81750000D01*
X121798772Y-81717297D01*
X121643900Y-81653147D01*
X121504519Y-81560015D01*
X121385985Y-81441481D01*
X121292853Y-81302100D01*
X121228703Y-81147228D01*
X121196000Y-80982816D01*
X121196000Y-80815184D01*
X121228703Y-80650772D01*
X121292853Y-80495900D01*
X121385985Y-80356519D01*
X121504519Y-80237985D01*
X121643900Y-80144853D01*
X121798772Y-80080703D01*
X121963184Y-80048000D01*
X122130816Y-80048000D01*
X122295228Y-80080703D01*
G37*
G36*
X144393228Y-69793703D02*
G01*
X144548100Y-69857853D01*
X144687481Y-69950985D01*
X144806015Y-70069519D01*
X144899147Y-70208900D01*
X144963297Y-70363772D01*
X144996000Y-70528184D01*
X144996000Y-70695816D01*
X144963297Y-70860228D01*
X144899147Y-71015100D01*
X144806015Y-71154481D01*
X144687481Y-71273015D01*
X144548100Y-71366147D01*
X144393228Y-71430297D01*
X144228816Y-71463000D01*
X144061184Y-71463000D01*
X143896772Y-71430297D01*
X143741900Y-71366147D01*
X143602519Y-71273015D01*
X143483985Y-71154481D01*
X143390853Y-71015100D01*
X143326703Y-70860228D01*
X143294000Y-70695816D01*
X143294000Y-70528184D01*
X143326703Y-70363772D01*
X143390853Y-70208900D01*
X143483985Y-70069519D01*
X143602519Y-69950985D01*
X143741900Y-69857853D01*
X143896772Y-69793703D01*
X144061184Y-69761000D01*
X144228816Y-69761000D01*
X144393228Y-69793703D01*
G37*
G36*
X142456000Y-71463000D02*
G01*
X140754000Y-71463000D01*
X140754000Y-69761000D01*
X142456000Y-69761000D01*
X142456000Y-71463000D01*
G37*
G36*
X164713228Y-69793703D02*
G01*
X164868100Y-69857853D01*
X165007481Y-69950985D01*
X165126015Y-70069519D01*
X165219147Y-70208900D01*
X165283297Y-70363772D01*
X165316000Y-70528184D01*
X165316000Y-70695816D01*
X165283297Y-70860228D01*
X165219147Y-71015100D01*
X165126015Y-71154481D01*
X165007481Y-71273015D01*
X164868100Y-71366147D01*
X164713228Y-71430297D01*
X164548816Y-71463000D01*
X164381184Y-71463000D01*
X164216772Y-71430297D01*
X164061900Y-71366147D01*
X163922519Y-71273015D01*
X163803985Y-71154481D01*
X163710853Y-71015100D01*
X163646703Y-70860228D01*
X163614000Y-70695816D01*
X163614000Y-70528184D01*
X163646703Y-70363772D01*
X163710853Y-70208900D01*
X163803985Y-70069519D01*
X163922519Y-69950985D01*
X164061900Y-69857853D01*
X164216772Y-69793703D01*
X164381184Y-69761000D01*
X164548816Y-69761000D01*
X164713228Y-69793703D01*
G37*
G36*
X149473228Y-69793703D02*
G01*
X149628100Y-69857853D01*
X149767481Y-69950985D01*
X149886015Y-70069519D01*
X149979147Y-70208900D01*
X150043297Y-70363772D01*
X150076000Y-70528184D01*
X150076000Y-70695816D01*
X150043297Y-70860228D01*
X149979147Y-71015100D01*
X149886015Y-71154481D01*
X149767481Y-71273015D01*
X149628100Y-71366147D01*
X149473228Y-71430297D01*
X149308816Y-71463000D01*
X149141184Y-71463000D01*
X148976772Y-71430297D01*
X148821900Y-71366147D01*
X148682519Y-71273015D01*
X148563985Y-71154481D01*
X148470853Y-71015100D01*
X148406703Y-70860228D01*
X148374000Y-70695816D01*
X148374000Y-70528184D01*
X148406703Y-70363772D01*
X148470853Y-70208900D01*
X148563985Y-70069519D01*
X148682519Y-69950985D01*
X148821900Y-69857853D01*
X148976772Y-69793703D01*
X149141184Y-69761000D01*
X149308816Y-69761000D01*
X149473228Y-69793703D01*
G37*
G36*
X152013228Y-69793703D02*
G01*
X152168100Y-69857853D01*
X152307481Y-69950985D01*
X152426015Y-70069519D01*
X152519147Y-70208900D01*
X152583297Y-70363772D01*
X152616000Y-70528184D01*
X152616000Y-70695816D01*
X152583297Y-70860228D01*
X152519147Y-71015100D01*
X152426015Y-71154481D01*
X152307481Y-71273015D01*
X152168100Y-71366147D01*
X152013228Y-71430297D01*
X151848816Y-71463000D01*
X151681184Y-71463000D01*
X151516772Y-71430297D01*
X151361900Y-71366147D01*
X151222519Y-71273015D01*
X151103985Y-71154481D01*
X151010853Y-71015100D01*
X150946703Y-70860228D01*
X150914000Y-70695816D01*
X150914000Y-70528184D01*
X150946703Y-70363772D01*
X151010853Y-70208900D01*
X151103985Y-70069519D01*
X151222519Y-69950985D01*
X151361900Y-69857853D01*
X151516772Y-69793703D01*
X151681184Y-69761000D01*
X151848816Y-69761000D01*
X152013228Y-69793703D01*
G37*
G36*
X157093228Y-69793703D02*
G01*
X157248100Y-69857853D01*
X157387481Y-69950985D01*
X157506015Y-70069519D01*
X157599147Y-70208900D01*
X157663297Y-70363772D01*
X157696000Y-70528184D01*
X157696000Y-70695816D01*
X157663297Y-70860228D01*
X157599147Y-71015100D01*
X157506015Y-71154481D01*
X157387481Y-71273015D01*
X157248100Y-71366147D01*
X157093228Y-71430297D01*
X156928816Y-71463000D01*
X156761184Y-71463000D01*
X156596772Y-71430297D01*
X156441900Y-71366147D01*
X156302519Y-71273015D01*
X156183985Y-71154481D01*
X156090853Y-71015100D01*
X156026703Y-70860228D01*
X155994000Y-70695816D01*
X155994000Y-70528184D01*
X156026703Y-70363772D01*
X156090853Y-70208900D01*
X156183985Y-70069519D01*
X156302519Y-69950985D01*
X156441900Y-69857853D01*
X156596772Y-69793703D01*
X156761184Y-69761000D01*
X156928816Y-69761000D01*
X157093228Y-69793703D01*
G37*
G36*
X154553228Y-69793703D02*
G01*
X154708100Y-69857853D01*
X154847481Y-69950985D01*
X154966015Y-70069519D01*
X155059147Y-70208900D01*
X155123297Y-70363772D01*
X155156000Y-70528184D01*
X155156000Y-70695816D01*
X155123297Y-70860228D01*
X155059147Y-71015100D01*
X154966015Y-71154481D01*
X154847481Y-71273015D01*
X154708100Y-71366147D01*
X154553228Y-71430297D01*
X154388816Y-71463000D01*
X154221184Y-71463000D01*
X154056772Y-71430297D01*
X153901900Y-71366147D01*
X153762519Y-71273015D01*
X153643985Y-71154481D01*
X153550853Y-71015100D01*
X153486703Y-70860228D01*
X153454000Y-70695816D01*
X153454000Y-70528184D01*
X153486703Y-70363772D01*
X153550853Y-70208900D01*
X153643985Y-70069519D01*
X153762519Y-69950985D01*
X153901900Y-69857853D01*
X154056772Y-69793703D01*
X154221184Y-69761000D01*
X154388816Y-69761000D01*
X154553228Y-69793703D01*
G37*
G36*
X162173228Y-69793703D02*
G01*
X162328100Y-69857853D01*
X162467481Y-69950985D01*
X162586015Y-70069519D01*
X162679147Y-70208900D01*
X162743297Y-70363772D01*
X162776000Y-70528184D01*
X162776000Y-70695816D01*
X162743297Y-70860228D01*
X162679147Y-71015100D01*
X162586015Y-71154481D01*
X162467481Y-71273015D01*
X162328100Y-71366147D01*
X162173228Y-71430297D01*
X162008816Y-71463000D01*
X161841184Y-71463000D01*
X161676772Y-71430297D01*
X161521900Y-71366147D01*
X161382519Y-71273015D01*
X161263985Y-71154481D01*
X161170853Y-71015100D01*
X161106703Y-70860228D01*
X161074000Y-70695816D01*
X161074000Y-70528184D01*
X161106703Y-70363772D01*
X161170853Y-70208900D01*
X161263985Y-70069519D01*
X161382519Y-69950985D01*
X161521900Y-69857853D01*
X161676772Y-69793703D01*
X161841184Y-69761000D01*
X162008816Y-69761000D01*
X162173228Y-69793703D01*
G37*
G36*
X159633228Y-69793703D02*
G01*
X159788100Y-69857853D01*
X159927481Y-69950985D01*
X160046015Y-70069519D01*
X160139147Y-70208900D01*
X160203297Y-70363772D01*
X160236000Y-70528184D01*
X160236000Y-70695816D01*
X160203297Y-70860228D01*
X160139147Y-71015100D01*
X160046015Y-71154481D01*
X159927481Y-71273015D01*
X159788100Y-71366147D01*
X159633228Y-71430297D01*
X159468816Y-71463000D01*
X159301184Y-71463000D01*
X159136772Y-71430297D01*
X158981900Y-71366147D01*
X158842519Y-71273015D01*
X158723985Y-71154481D01*
X158630853Y-71015100D01*
X158566703Y-70860228D01*
X158534000Y-70695816D01*
X158534000Y-70528184D01*
X158566703Y-70363772D01*
X158630853Y-70208900D01*
X158723985Y-70069519D01*
X158842519Y-69950985D01*
X158981900Y-69857853D01*
X159136772Y-69793703D01*
X159301184Y-69761000D01*
X159468816Y-69761000D01*
X159633228Y-69793703D01*
G37*
G36*
X146933228Y-69793703D02*
G01*
X147088100Y-69857853D01*
X147227481Y-69950985D01*
X147346015Y-70069519D01*
X147439147Y-70208900D01*
X147503297Y-70363772D01*
X147536000Y-70528184D01*
X147536000Y-70695816D01*
X147503297Y-70860228D01*
X147439147Y-71015100D01*
X147346015Y-71154481D01*
X147227481Y-71273015D01*
X147088100Y-71366147D01*
X146933228Y-71430297D01*
X146768816Y-71463000D01*
X146601184Y-71463000D01*
X146436772Y-71430297D01*
X146281900Y-71366147D01*
X146142519Y-71273015D01*
X146023985Y-71154481D01*
X145930853Y-71015100D01*
X145866703Y-70860228D01*
X145834000Y-70695816D01*
X145834000Y-70528184D01*
X145866703Y-70363772D01*
X145930853Y-70208900D01*
X146023985Y-70069519D01*
X146142519Y-69950985D01*
X146281900Y-69857853D01*
X146436772Y-69793703D01*
X146601184Y-69761000D01*
X146768816Y-69761000D01*
X146933228Y-69793703D01*
G37*
G36*
X125216228Y-69666703D02*
G01*
X125371100Y-69730853D01*
X125510481Y-69823985D01*
X125629015Y-69942519D01*
X125722147Y-70081900D01*
X125786297Y-70236772D01*
X125819000Y-70401184D01*
X125819000Y-70568816D01*
X125786297Y-70733228D01*
X125722147Y-70888100D01*
X125629015Y-71027481D01*
X125510481Y-71146015D01*
X125371100Y-71239147D01*
X125216228Y-71303297D01*
X125051816Y-71336000D01*
X124884184Y-71336000D01*
X124719772Y-71303297D01*
X124564900Y-71239147D01*
X124425519Y-71146015D01*
X124306985Y-71027481D01*
X124213853Y-70888100D01*
X124149703Y-70733228D01*
X124117000Y-70568816D01*
X124117000Y-70401184D01*
X124149703Y-70236772D01*
X124213853Y-70081900D01*
X124306985Y-69942519D01*
X124425519Y-69823985D01*
X124564900Y-69730853D01*
X124719772Y-69666703D01*
X124884184Y-69634000D01*
X125051816Y-69634000D01*
X125216228Y-69666703D01*
G37*
G36*
X138043228Y-68396703D02*
G01*
X138198100Y-68460853D01*
X138337481Y-68553985D01*
X138456015Y-68672519D01*
X138549147Y-68811900D01*
X138613297Y-68966772D01*
X138646000Y-69131184D01*
X138646000Y-69298816D01*
X138613297Y-69463228D01*
X138549147Y-69618100D01*
X138456015Y-69757481D01*
X138337481Y-69876015D01*
X138198100Y-69969147D01*
X138043228Y-70033297D01*
X137878816Y-70066000D01*
X137711184Y-70066000D01*
X137546772Y-70033297D01*
X137391900Y-69969147D01*
X137252519Y-69876015D01*
X137133985Y-69757481D01*
X137040853Y-69618100D01*
X136976703Y-69463228D01*
X136944000Y-69298816D01*
X136944000Y-69131184D01*
X136976703Y-68966772D01*
X137040853Y-68811900D01*
X137133985Y-68672519D01*
X137252519Y-68553985D01*
X137391900Y-68460853D01*
X137546772Y-68396703D01*
X137711184Y-68364000D01*
X137878816Y-68364000D01*
X138043228Y-68396703D01*
G37*
G36*
X125216228Y-67126703D02*
G01*
X125371100Y-67190853D01*
X125510481Y-67283985D01*
X125629015Y-67402519D01*
X125722147Y-67541900D01*
X125786297Y-67696772D01*
X125819000Y-67861184D01*
X125819000Y-68028816D01*
X125786297Y-68193228D01*
X125722147Y-68348100D01*
X125629015Y-68487481D01*
X125510481Y-68606015D01*
X125371100Y-68699147D01*
X125216228Y-68763297D01*
X125051816Y-68796000D01*
X124884184Y-68796000D01*
X124719772Y-68763297D01*
X124564900Y-68699147D01*
X124425519Y-68606015D01*
X124306985Y-68487481D01*
X124213853Y-68348100D01*
X124149703Y-68193228D01*
X124117000Y-68028816D01*
X124117000Y-67861184D01*
X124149703Y-67696772D01*
X124213853Y-67541900D01*
X124306985Y-67402519D01*
X124425519Y-67283985D01*
X124564900Y-67190853D01*
X124719772Y-67126703D01*
X124884184Y-67094000D01*
X125051816Y-67094000D01*
X125216228Y-67126703D01*
G37*
G36*
X125216228Y-64586703D02*
G01*
X125371100Y-64650853D01*
X125510481Y-64743985D01*
X125629015Y-64862519D01*
X125722147Y-65001900D01*
X125786297Y-65156772D01*
X125819000Y-65321184D01*
X125819000Y-65488816D01*
X125786297Y-65653228D01*
X125722147Y-65808100D01*
X125629015Y-65947481D01*
X125510481Y-66066015D01*
X125371100Y-66159147D01*
X125216228Y-66223297D01*
X125051816Y-66256000D01*
X124884184Y-66256000D01*
X124719772Y-66223297D01*
X124564900Y-66159147D01*
X124425519Y-66066015D01*
X124306985Y-65947481D01*
X124213853Y-65808100D01*
X124149703Y-65653228D01*
X124117000Y-65488816D01*
X124117000Y-65321184D01*
X124149703Y-65156772D01*
X124213853Y-65001900D01*
X124306985Y-64862519D01*
X124425519Y-64743985D01*
X124564900Y-64650853D01*
X124719772Y-64586703D01*
X124884184Y-64554000D01*
X125051816Y-64554000D01*
X125216228Y-64586703D01*
G37*
G36*
X138043228Y-63396703D02*
G01*
X138198100Y-63460853D01*
X138337481Y-63553985D01*
X138456015Y-63672519D01*
X138549147Y-63811900D01*
X138613297Y-63966772D01*
X138646000Y-64131184D01*
X138646000Y-64298816D01*
X138613297Y-64463228D01*
X138549147Y-64618100D01*
X138456015Y-64757481D01*
X138337481Y-64876015D01*
X138198100Y-64969147D01*
X138043228Y-65033297D01*
X137878816Y-65066000D01*
X137711184Y-65066000D01*
X137546772Y-65033297D01*
X137391900Y-64969147D01*
X137252519Y-64876015D01*
X137133985Y-64757481D01*
X137040853Y-64618100D01*
X136976703Y-64463228D01*
X136944000Y-64298816D01*
X136944000Y-64131184D01*
X136976703Y-63966772D01*
X137040853Y-63811900D01*
X137133985Y-63672519D01*
X137252519Y-63553985D01*
X137391900Y-63460853D01*
X137546772Y-63396703D01*
X137711184Y-63364000D01*
X137878816Y-63364000D01*
X138043228Y-63396703D01*
G37*
G36*
X141853228Y-62173703D02*
G01*
X142008100Y-62237853D01*
X142147481Y-62330985D01*
X142266015Y-62449519D01*
X142359147Y-62588900D01*
X142423297Y-62743772D01*
X142456000Y-62908184D01*
X142456000Y-63075816D01*
X142423297Y-63240228D01*
X142359147Y-63395100D01*
X142266015Y-63534481D01*
X142147481Y-63653015D01*
X142008100Y-63746147D01*
X141853228Y-63810297D01*
X141688816Y-63843000D01*
X141521184Y-63843000D01*
X141356772Y-63810297D01*
X141201900Y-63746147D01*
X141062519Y-63653015D01*
X140943985Y-63534481D01*
X140850853Y-63395100D01*
X140786703Y-63240228D01*
X140754000Y-63075816D01*
X140754000Y-62908184D01*
X140786703Y-62743772D01*
X140850853Y-62588900D01*
X140943985Y-62449519D01*
X141062519Y-62330985D01*
X141201900Y-62237853D01*
X141356772Y-62173703D01*
X141521184Y-62141000D01*
X141688816Y-62141000D01*
X141853228Y-62173703D01*
G37*
G36*
X157093228Y-62173703D02*
G01*
X157248100Y-62237853D01*
X157387481Y-62330985D01*
X157506015Y-62449519D01*
X157599147Y-62588900D01*
X157663297Y-62743772D01*
X157696000Y-62908184D01*
X157696000Y-63075816D01*
X157663297Y-63240228D01*
X157599147Y-63395100D01*
X157506015Y-63534481D01*
X157387481Y-63653015D01*
X157248100Y-63746147D01*
X157093228Y-63810297D01*
X156928816Y-63843000D01*
X156761184Y-63843000D01*
X156596772Y-63810297D01*
X156441900Y-63746147D01*
X156302519Y-63653015D01*
X156183985Y-63534481D01*
X156090853Y-63395100D01*
X156026703Y-63240228D01*
X155994000Y-63075816D01*
X155994000Y-62908184D01*
X156026703Y-62743772D01*
X156090853Y-62588900D01*
X156183985Y-62449519D01*
X156302519Y-62330985D01*
X156441900Y-62237853D01*
X156596772Y-62173703D01*
X156761184Y-62141000D01*
X156928816Y-62141000D01*
X157093228Y-62173703D01*
G37*
G36*
X162173228Y-62173703D02*
G01*
X162328100Y-62237853D01*
X162467481Y-62330985D01*
X162586015Y-62449519D01*
X162679147Y-62588900D01*
X162743297Y-62743772D01*
X162776000Y-62908184D01*
X162776000Y-63075816D01*
X162743297Y-63240228D01*
X162679147Y-63395100D01*
X162586015Y-63534481D01*
X162467481Y-63653015D01*
X162328100Y-63746147D01*
X162173228Y-63810297D01*
X162008816Y-63843000D01*
X161841184Y-63843000D01*
X161676772Y-63810297D01*
X161521900Y-63746147D01*
X161382519Y-63653015D01*
X161263985Y-63534481D01*
X161170853Y-63395100D01*
X161106703Y-63240228D01*
X161074000Y-63075816D01*
X161074000Y-62908184D01*
X161106703Y-62743772D01*
X161170853Y-62588900D01*
X161263985Y-62449519D01*
X161382519Y-62330985D01*
X161521900Y-62237853D01*
X161676772Y-62173703D01*
X161841184Y-62141000D01*
X162008816Y-62141000D01*
X162173228Y-62173703D01*
G37*
G36*
X164713228Y-62173703D02*
G01*
X164868100Y-62237853D01*
X165007481Y-62330985D01*
X165126015Y-62449519D01*
X165219147Y-62588900D01*
X165283297Y-62743772D01*
X165316000Y-62908184D01*
X165316000Y-63075816D01*
X165283297Y-63240228D01*
X165219147Y-63395100D01*
X165126015Y-63534481D01*
X165007481Y-63653015D01*
X164868100Y-63746147D01*
X164713228Y-63810297D01*
X164548816Y-63843000D01*
X164381184Y-63843000D01*
X164216772Y-63810297D01*
X164061900Y-63746147D01*
X163922519Y-63653015D01*
X163803985Y-63534481D01*
X163710853Y-63395100D01*
X163646703Y-63240228D01*
X163614000Y-63075816D01*
X163614000Y-62908184D01*
X163646703Y-62743772D01*
X163710853Y-62588900D01*
X163803985Y-62449519D01*
X163922519Y-62330985D01*
X164061900Y-62237853D01*
X164216772Y-62173703D01*
X164381184Y-62141000D01*
X164548816Y-62141000D01*
X164713228Y-62173703D01*
G37*
G36*
X154553228Y-62173703D02*
G01*
X154708100Y-62237853D01*
X154847481Y-62330985D01*
X154966015Y-62449519D01*
X155059147Y-62588900D01*
X155123297Y-62743772D01*
X155156000Y-62908184D01*
X155156000Y-63075816D01*
X155123297Y-63240228D01*
X155059147Y-63395100D01*
X154966015Y-63534481D01*
X154847481Y-63653015D01*
X154708100Y-63746147D01*
X154553228Y-63810297D01*
X154388816Y-63843000D01*
X154221184Y-63843000D01*
X154056772Y-63810297D01*
X153901900Y-63746147D01*
X153762519Y-63653015D01*
X153643985Y-63534481D01*
X153550853Y-63395100D01*
X153486703Y-63240228D01*
X153454000Y-63075816D01*
X153454000Y-62908184D01*
X153486703Y-62743772D01*
X153550853Y-62588900D01*
X153643985Y-62449519D01*
X153762519Y-62330985D01*
X153901900Y-62237853D01*
X154056772Y-62173703D01*
X154221184Y-62141000D01*
X154388816Y-62141000D01*
X154553228Y-62173703D01*
G37*
G36*
X149473228Y-62173703D02*
G01*
X149628100Y-62237853D01*
X149767481Y-62330985D01*
X149886015Y-62449519D01*
X149979147Y-62588900D01*
X150043297Y-62743772D01*
X150076000Y-62908184D01*
X150076000Y-63075816D01*
X150043297Y-63240228D01*
X149979147Y-63395100D01*
X149886015Y-63534481D01*
X149767481Y-63653015D01*
X149628100Y-63746147D01*
X149473228Y-63810297D01*
X149308816Y-63843000D01*
X149141184Y-63843000D01*
X148976772Y-63810297D01*
X148821900Y-63746147D01*
X148682519Y-63653015D01*
X148563985Y-63534481D01*
X148470853Y-63395100D01*
X148406703Y-63240228D01*
X148374000Y-63075816D01*
X148374000Y-62908184D01*
X148406703Y-62743772D01*
X148470853Y-62588900D01*
X148563985Y-62449519D01*
X148682519Y-62330985D01*
X148821900Y-62237853D01*
X148976772Y-62173703D01*
X149141184Y-62141000D01*
X149308816Y-62141000D01*
X149473228Y-62173703D01*
G37*
G36*
X146933228Y-62173703D02*
G01*
X147088100Y-62237853D01*
X147227481Y-62330985D01*
X147346015Y-62449519D01*
X147439147Y-62588900D01*
X147503297Y-62743772D01*
X147536000Y-62908184D01*
X147536000Y-63075816D01*
X147503297Y-63240228D01*
X147439147Y-63395100D01*
X147346015Y-63534481D01*
X147227481Y-63653015D01*
X147088100Y-63746147D01*
X146933228Y-63810297D01*
X146768816Y-63843000D01*
X146601184Y-63843000D01*
X146436772Y-63810297D01*
X146281900Y-63746147D01*
X146142519Y-63653015D01*
X146023985Y-63534481D01*
X145930853Y-63395100D01*
X145866703Y-63240228D01*
X145834000Y-63075816D01*
X145834000Y-62908184D01*
X145866703Y-62743772D01*
X145930853Y-62588900D01*
X146023985Y-62449519D01*
X146142519Y-62330985D01*
X146281900Y-62237853D01*
X146436772Y-62173703D01*
X146601184Y-62141000D01*
X146768816Y-62141000D01*
X146933228Y-62173703D01*
G37*
G36*
X144393228Y-62173703D02*
G01*
X144548100Y-62237853D01*
X144687481Y-62330985D01*
X144806015Y-62449519D01*
X144899147Y-62588900D01*
X144963297Y-62743772D01*
X144996000Y-62908184D01*
X144996000Y-63075816D01*
X144963297Y-63240228D01*
X144899147Y-63395100D01*
X144806015Y-63534481D01*
X144687481Y-63653015D01*
X144548100Y-63746147D01*
X144393228Y-63810297D01*
X144228816Y-63843000D01*
X144061184Y-63843000D01*
X143896772Y-63810297D01*
X143741900Y-63746147D01*
X143602519Y-63653015D01*
X143483985Y-63534481D01*
X143390853Y-63395100D01*
X143326703Y-63240228D01*
X143294000Y-63075816D01*
X143294000Y-62908184D01*
X143326703Y-62743772D01*
X143390853Y-62588900D01*
X143483985Y-62449519D01*
X143602519Y-62330985D01*
X143741900Y-62237853D01*
X143896772Y-62173703D01*
X144061184Y-62141000D01*
X144228816Y-62141000D01*
X144393228Y-62173703D01*
G37*
G36*
X152013228Y-62173703D02*
G01*
X152168100Y-62237853D01*
X152307481Y-62330985D01*
X152426015Y-62449519D01*
X152519147Y-62588900D01*
X152583297Y-62743772D01*
X152616000Y-62908184D01*
X152616000Y-63075816D01*
X152583297Y-63240228D01*
X152519147Y-63395100D01*
X152426015Y-63534481D01*
X152307481Y-63653015D01*
X152168100Y-63746147D01*
X152013228Y-63810297D01*
X151848816Y-63843000D01*
X151681184Y-63843000D01*
X151516772Y-63810297D01*
X151361900Y-63746147D01*
X151222519Y-63653015D01*
X151103985Y-63534481D01*
X151010853Y-63395100D01*
X150946703Y-63240228D01*
X150914000Y-63075816D01*
X150914000Y-62908184D01*
X150946703Y-62743772D01*
X151010853Y-62588900D01*
X151103985Y-62449519D01*
X151222519Y-62330985D01*
X151361900Y-62237853D01*
X151516772Y-62173703D01*
X151681184Y-62141000D01*
X151848816Y-62141000D01*
X152013228Y-62173703D01*
G37*
G36*
X159633228Y-62173703D02*
G01*
X159788100Y-62237853D01*
X159927481Y-62330985D01*
X160046015Y-62449519D01*
X160139147Y-62588900D01*
X160203297Y-62743772D01*
X160236000Y-62908184D01*
X160236000Y-63075816D01*
X160203297Y-63240228D01*
X160139147Y-63395100D01*
X160046015Y-63534481D01*
X159927481Y-63653015D01*
X159788100Y-63746147D01*
X159633228Y-63810297D01*
X159468816Y-63843000D01*
X159301184Y-63843000D01*
X159136772Y-63810297D01*
X158981900Y-63746147D01*
X158842519Y-63653015D01*
X158723985Y-63534481D01*
X158630853Y-63395100D01*
X158566703Y-63240228D01*
X158534000Y-63075816D01*
X158534000Y-62908184D01*
X158566703Y-62743772D01*
X158630853Y-62588900D01*
X158723985Y-62449519D01*
X158842519Y-62330985D01*
X158981900Y-62237853D01*
X159136772Y-62173703D01*
X159301184Y-62141000D01*
X159468816Y-62141000D01*
X159633228Y-62173703D01*
G37*
G36*
X125216228Y-62046703D02*
G01*
X125371100Y-62110853D01*
X125510481Y-62203985D01*
X125629015Y-62322519D01*
X125722147Y-62461900D01*
X125786297Y-62616772D01*
X125819000Y-62781184D01*
X125819000Y-62948816D01*
X125786297Y-63113228D01*
X125722147Y-63268100D01*
X125629015Y-63407481D01*
X125510481Y-63526015D01*
X125371100Y-63619147D01*
X125216228Y-63683297D01*
X125051816Y-63716000D01*
X124884184Y-63716000D01*
X124719772Y-63683297D01*
X124564900Y-63619147D01*
X124425519Y-63526015D01*
X124306985Y-63407481D01*
X124213853Y-63268100D01*
X124149703Y-63113228D01*
X124117000Y-62948816D01*
X124117000Y-62781184D01*
X124149703Y-62616772D01*
X124213853Y-62461900D01*
X124306985Y-62322519D01*
X124425519Y-62203985D01*
X124564900Y-62110853D01*
X124719772Y-62046703D01*
X124884184Y-62014000D01*
X125051816Y-62014000D01*
X125216228Y-62046703D01*
G37*
G36*
X125216228Y-59506703D02*
G01*
X125371100Y-59570853D01*
X125510481Y-59663985D01*
X125629015Y-59782519D01*
X125722147Y-59921900D01*
X125786297Y-60076772D01*
X125819000Y-60241184D01*
X125819000Y-60408816D01*
X125786297Y-60573228D01*
X125722147Y-60728100D01*
X125629015Y-60867481D01*
X125510481Y-60986015D01*
X125371100Y-61079147D01*
X125216228Y-61143297D01*
X125051816Y-61176000D01*
X124884184Y-61176000D01*
X124719772Y-61143297D01*
X124564900Y-61079147D01*
X124425519Y-60986015D01*
X124306985Y-60867481D01*
X124213853Y-60728100D01*
X124149703Y-60573228D01*
X124117000Y-60408816D01*
X124117000Y-60241184D01*
X124149703Y-60076772D01*
X124213853Y-59921900D01*
X124306985Y-59782519D01*
X124425519Y-59663985D01*
X124564900Y-59570853D01*
X124719772Y-59506703D01*
X124884184Y-59474000D01*
X125051816Y-59474000D01*
X125216228Y-59506703D01*
G37*
G36*
X125216228Y-56966703D02*
G01*
X125371100Y-57030853D01*
X125510481Y-57123985D01*
X125629015Y-57242519D01*
X125722147Y-57381900D01*
X125786297Y-57536772D01*
X125819000Y-57701184D01*
X125819000Y-57868816D01*
X125786297Y-58033228D01*
X125722147Y-58188100D01*
X125629015Y-58327481D01*
X125510481Y-58446015D01*
X125371100Y-58539147D01*
X125216228Y-58603297D01*
X125051816Y-58636000D01*
X124884184Y-58636000D01*
X124719772Y-58603297D01*
X124564900Y-58539147D01*
X124425519Y-58446015D01*
X124306985Y-58327481D01*
X124213853Y-58188100D01*
X124149703Y-58033228D01*
X124117000Y-57868816D01*
X124117000Y-57701184D01*
X124149703Y-57536772D01*
X124213853Y-57381900D01*
X124306985Y-57242519D01*
X124425519Y-57123985D01*
X124564900Y-57030853D01*
X124719772Y-56966703D01*
X124884184Y-56934000D01*
X125051816Y-56934000D01*
X125216228Y-56966703D01*
G37*
G36*
X125216228Y-54426703D02*
G01*
X125371100Y-54490853D01*
X125510481Y-54583985D01*
X125629015Y-54702519D01*
X125722147Y-54841900D01*
X125786297Y-54996772D01*
X125819000Y-55161184D01*
X125819000Y-55328816D01*
X125786297Y-55493228D01*
X125722147Y-55648100D01*
X125629015Y-55787481D01*
X125510481Y-55906015D01*
X125371100Y-55999147D01*
X125216228Y-56063297D01*
X125051816Y-56096000D01*
X124884184Y-56096000D01*
X124719772Y-56063297D01*
X124564900Y-55999147D01*
X124425519Y-55906015D01*
X124306985Y-55787481D01*
X124213853Y-55648100D01*
X124149703Y-55493228D01*
X124117000Y-55328816D01*
X124117000Y-55161184D01*
X124149703Y-54996772D01*
X124213853Y-54841900D01*
X124306985Y-54702519D01*
X124425519Y-54583985D01*
X124564900Y-54490853D01*
X124719772Y-54426703D01*
X124884184Y-54394000D01*
X125051816Y-54394000D01*
X125216228Y-54426703D01*
G37*
G36*
X125216228Y-51886703D02*
G01*
X125371100Y-51950853D01*
X125510481Y-52043985D01*
X125629015Y-52162519D01*
X125722147Y-52301900D01*
X125786297Y-52456772D01*
X125819000Y-52621184D01*
X125819000Y-52788816D01*
X125786297Y-52953228D01*
X125722147Y-53108100D01*
X125629015Y-53247481D01*
X125510481Y-53366015D01*
X125371100Y-53459147D01*
X125216228Y-53523297D01*
X125051816Y-53556000D01*
X124884184Y-53556000D01*
X124719772Y-53523297D01*
X124564900Y-53459147D01*
X124425519Y-53366015D01*
X124306985Y-53247481D01*
X124213853Y-53108100D01*
X124149703Y-52953228D01*
X124117000Y-52788816D01*
X124117000Y-52621184D01*
X124149703Y-52456772D01*
X124213853Y-52301900D01*
X124306985Y-52162519D01*
X124425519Y-52043985D01*
X124564900Y-51950853D01*
X124719772Y-51886703D01*
X124884184Y-51854000D01*
X125051816Y-51854000D01*
X125216228Y-51886703D01*
G37*
G36*
X147978395Y-50774546D02*
G01*
X148151466Y-50846234D01*
X148151467Y-50846235D01*
X148307227Y-50950310D01*
X148439690Y-51082773D01*
X148439691Y-51082775D01*
X148543766Y-51238534D01*
X148615454Y-51411605D01*
X148652000Y-51595333D01*
X148652000Y-51782667D01*
X148615454Y-51966395D01*
X148543766Y-52139466D01*
X148543765Y-52139467D01*
X148439690Y-52295227D01*
X148307227Y-52427690D01*
X148228818Y-52480081D01*
X148151466Y-52531766D01*
X147978395Y-52603454D01*
X147794667Y-52640000D01*
X147607333Y-52640000D01*
X147423605Y-52603454D01*
X147250534Y-52531766D01*
X147173182Y-52480081D01*
X147094773Y-52427690D01*
X146962310Y-52295227D01*
X146858235Y-52139467D01*
X146858234Y-52139466D01*
X146786546Y-51966395D01*
X146750000Y-51782667D01*
X146750000Y-51595333D01*
X146786546Y-51411605D01*
X146858234Y-51238534D01*
X146962309Y-51082775D01*
X146962310Y-51082773D01*
X147094773Y-50950310D01*
X147250533Y-50846235D01*
X147250534Y-50846234D01*
X147423605Y-50774546D01*
X147607333Y-50738000D01*
X147794667Y-50738000D01*
X147978395Y-50774546D01*
G37*
G36*
X174013395Y-50774546D02*
G01*
X174186466Y-50846234D01*
X174186467Y-50846235D01*
X174342227Y-50950310D01*
X174474690Y-51082773D01*
X174474691Y-51082775D01*
X174578766Y-51238534D01*
X174650454Y-51411605D01*
X174687000Y-51595333D01*
X174687000Y-51782667D01*
X174650454Y-51966395D01*
X174578766Y-52139466D01*
X174578765Y-52139467D01*
X174474690Y-52295227D01*
X174342227Y-52427690D01*
X174263818Y-52480081D01*
X174186466Y-52531766D01*
X174013395Y-52603454D01*
X173829667Y-52640000D01*
X173642333Y-52640000D01*
X173458605Y-52603454D01*
X173285534Y-52531766D01*
X173208182Y-52480081D01*
X173129773Y-52427690D01*
X172997310Y-52295227D01*
X172893235Y-52139467D01*
X172893234Y-52139466D01*
X172821546Y-51966395D01*
X172785000Y-51782667D01*
X172785000Y-51595333D01*
X172821546Y-51411605D01*
X172893234Y-51238534D01*
X172997309Y-51082775D01*
X172997310Y-51082773D01*
X173129773Y-50950310D01*
X173285533Y-50846235D01*
X173285534Y-50846234D01*
X173458605Y-50774546D01*
X173642333Y-50738000D01*
X173829667Y-50738000D01*
X174013395Y-50774546D01*
G37*
G36*
X170877000Y-52640000D02*
G01*
X168975000Y-52640000D01*
X168975000Y-50738000D01*
X170877000Y-50738000D01*
X170877000Y-52640000D01*
G37*
G36*
X128928395Y-50774546D02*
G01*
X129101466Y-50846234D01*
X129101467Y-50846235D01*
X129257227Y-50950310D01*
X129389690Y-51082773D01*
X129389691Y-51082775D01*
X129493766Y-51238534D01*
X129565454Y-51411605D01*
X129602000Y-51595333D01*
X129602000Y-51782667D01*
X129565454Y-51966395D01*
X129493766Y-52139466D01*
X129493765Y-52139467D01*
X129389690Y-52295227D01*
X129257227Y-52427690D01*
X129178818Y-52480081D01*
X129101466Y-52531766D01*
X128928395Y-52603454D01*
X128744667Y-52640000D01*
X128557333Y-52640000D01*
X128373605Y-52603454D01*
X128200534Y-52531766D01*
X128123182Y-52480081D01*
X128044773Y-52427690D01*
X127912310Y-52295227D01*
X127808235Y-52139467D01*
X127808234Y-52139466D01*
X127736546Y-51966395D01*
X127700000Y-51782667D01*
X127700000Y-51595333D01*
X127736546Y-51411605D01*
X127808234Y-51238534D01*
X127912309Y-51082775D01*
X127912310Y-51082773D01*
X128044773Y-50950310D01*
X128200533Y-50846235D01*
X128200534Y-50846234D01*
X128373605Y-50774546D01*
X128557333Y-50738000D01*
X128744667Y-50738000D01*
X128928395Y-50774546D01*
G37*
G36*
X132142000Y-52640000D02*
G01*
X130240000Y-52640000D01*
X130240000Y-50738000D01*
X132142000Y-50738000D01*
X132142000Y-52640000D01*
G37*
G36*
X135278395Y-50774546D02*
G01*
X135451466Y-50846234D01*
X135451467Y-50846235D01*
X135607227Y-50950310D01*
X135739690Y-51082773D01*
X135739691Y-51082775D01*
X135843766Y-51238534D01*
X135915454Y-51411605D01*
X135952000Y-51595333D01*
X135952000Y-51782667D01*
X135915454Y-51966395D01*
X135843766Y-52139466D01*
X135843765Y-52139467D01*
X135739690Y-52295227D01*
X135607227Y-52427690D01*
X135528818Y-52480081D01*
X135451466Y-52531766D01*
X135278395Y-52603454D01*
X135094667Y-52640000D01*
X134907333Y-52640000D01*
X134723605Y-52603454D01*
X134550534Y-52531766D01*
X134473182Y-52480081D01*
X134394773Y-52427690D01*
X134262310Y-52295227D01*
X134158235Y-52139467D01*
X134158234Y-52139466D01*
X134086546Y-51966395D01*
X134050000Y-51782667D01*
X134050000Y-51595333D01*
X134086546Y-51411605D01*
X134158234Y-51238534D01*
X134262309Y-51082775D01*
X134262310Y-51082773D01*
X134394773Y-50950310D01*
X134550533Y-50846235D01*
X134550534Y-50846234D01*
X134723605Y-50774546D01*
X134907333Y-50738000D01*
X135094667Y-50738000D01*
X135278395Y-50774546D01*
G37*
G36*
X138492000Y-52640000D02*
G01*
X136590000Y-52640000D01*
X136590000Y-50738000D01*
X138492000Y-50738000D01*
X138492000Y-52640000D01*
G37*
G36*
X141628395Y-50774546D02*
G01*
X141801466Y-50846234D01*
X141801467Y-50846235D01*
X141957227Y-50950310D01*
X142089690Y-51082773D01*
X142089691Y-51082775D01*
X142193766Y-51238534D01*
X142265454Y-51411605D01*
X142302000Y-51595333D01*
X142302000Y-51782667D01*
X142265454Y-51966395D01*
X142193766Y-52139466D01*
X142193765Y-52139467D01*
X142089690Y-52295227D01*
X141957227Y-52427690D01*
X141878818Y-52480081D01*
X141801466Y-52531766D01*
X141628395Y-52603454D01*
X141444667Y-52640000D01*
X141257333Y-52640000D01*
X141073605Y-52603454D01*
X140900534Y-52531766D01*
X140823182Y-52480081D01*
X140744773Y-52427690D01*
X140612310Y-52295227D01*
X140508235Y-52139467D01*
X140508234Y-52139466D01*
X140436546Y-51966395D01*
X140400000Y-51782667D01*
X140400000Y-51595333D01*
X140436546Y-51411605D01*
X140508234Y-51238534D01*
X140612309Y-51082775D01*
X140612310Y-51082773D01*
X140744773Y-50950310D01*
X140900533Y-50846235D01*
X140900534Y-50846234D01*
X141073605Y-50774546D01*
X141257333Y-50738000D01*
X141444667Y-50738000D01*
X141628395Y-50774546D01*
G37*
G36*
X144842000Y-52640000D02*
G01*
X142940000Y-52640000D01*
X142940000Y-50738000D01*
X144842000Y-50738000D01*
X144842000Y-52640000D01*
G37*
G36*
X151192000Y-52640000D02*
G01*
X149290000Y-52640000D01*
X149290000Y-50738000D01*
X151192000Y-50738000D01*
X151192000Y-52640000D01*
G37*
G36*
X154963395Y-50774546D02*
G01*
X155136466Y-50846234D01*
X155136467Y-50846235D01*
X155292227Y-50950310D01*
X155424690Y-51082773D01*
X155424691Y-51082775D01*
X155528766Y-51238534D01*
X155600454Y-51411605D01*
X155637000Y-51595333D01*
X155637000Y-51782667D01*
X155600454Y-51966395D01*
X155528766Y-52139466D01*
X155528765Y-52139467D01*
X155424690Y-52295227D01*
X155292227Y-52427690D01*
X155213818Y-52480081D01*
X155136466Y-52531766D01*
X154963395Y-52603454D01*
X154779667Y-52640000D01*
X154592333Y-52640000D01*
X154408605Y-52603454D01*
X154235534Y-52531766D01*
X154158182Y-52480081D01*
X154079773Y-52427690D01*
X153947310Y-52295227D01*
X153843235Y-52139467D01*
X153843234Y-52139466D01*
X153771546Y-51966395D01*
X153735000Y-51782667D01*
X153735000Y-51595333D01*
X153771546Y-51411605D01*
X153843234Y-51238534D01*
X153947309Y-51082775D01*
X153947310Y-51082773D01*
X154079773Y-50950310D01*
X154235533Y-50846235D01*
X154235534Y-50846234D01*
X154408605Y-50774546D01*
X154592333Y-50738000D01*
X154779667Y-50738000D01*
X154963395Y-50774546D01*
G37*
G36*
X177227000Y-52640000D02*
G01*
X175325000Y-52640000D01*
X175325000Y-50738000D01*
X177227000Y-50738000D01*
X177227000Y-52640000D01*
G37*
G36*
X167663395Y-50774546D02*
G01*
X167836466Y-50846234D01*
X167836467Y-50846235D01*
X167992227Y-50950310D01*
X168124690Y-51082773D01*
X168124691Y-51082775D01*
X168228766Y-51238534D01*
X168300454Y-51411605D01*
X168337000Y-51595333D01*
X168337000Y-51782667D01*
X168300454Y-51966395D01*
X168228766Y-52139466D01*
X168228765Y-52139467D01*
X168124690Y-52295227D01*
X167992227Y-52427690D01*
X167913818Y-52480081D01*
X167836466Y-52531766D01*
X167663395Y-52603454D01*
X167479667Y-52640000D01*
X167292333Y-52640000D01*
X167108605Y-52603454D01*
X166935534Y-52531766D01*
X166858182Y-52480081D01*
X166779773Y-52427690D01*
X166647310Y-52295227D01*
X166543235Y-52139467D01*
X166543234Y-52139466D01*
X166471546Y-51966395D01*
X166435000Y-51782667D01*
X166435000Y-51595333D01*
X166471546Y-51411605D01*
X166543234Y-51238534D01*
X166647309Y-51082775D01*
X166647310Y-51082773D01*
X166779773Y-50950310D01*
X166935533Y-50846235D01*
X166935534Y-50846234D01*
X167108605Y-50774546D01*
X167292333Y-50738000D01*
X167479667Y-50738000D01*
X167663395Y-50774546D01*
G37*
G36*
X158177000Y-52640000D02*
G01*
X156275000Y-52640000D01*
X156275000Y-50738000D01*
X158177000Y-50738000D01*
X158177000Y-52640000D01*
G37*
G36*
X164527000Y-52640000D02*
G01*
X162625000Y-52640000D01*
X162625000Y-50738000D01*
X164527000Y-50738000D01*
X164527000Y-52640000D01*
G37*
G36*
X161313395Y-50774546D02*
G01*
X161486466Y-50846234D01*
X161486467Y-50846235D01*
X161642227Y-50950310D01*
X161774690Y-51082773D01*
X161774691Y-51082775D01*
X161878766Y-51238534D01*
X161950454Y-51411605D01*
X161987000Y-51595333D01*
X161987000Y-51782667D01*
X161950454Y-51966395D01*
X161878766Y-52139466D01*
X161878765Y-52139467D01*
X161774690Y-52295227D01*
X161642227Y-52427690D01*
X161563818Y-52480081D01*
X161486466Y-52531766D01*
X161313395Y-52603454D01*
X161129667Y-52640000D01*
X160942333Y-52640000D01*
X160758605Y-52603454D01*
X160585534Y-52531766D01*
X160508182Y-52480081D01*
X160429773Y-52427690D01*
X160297310Y-52295227D01*
X160193235Y-52139467D01*
X160193234Y-52139466D01*
X160121546Y-51966395D01*
X160085000Y-51782667D01*
X160085000Y-51595333D01*
X160121546Y-51411605D01*
X160193234Y-51238534D01*
X160297309Y-51082775D01*
X160297310Y-51082773D01*
X160429773Y-50950310D01*
X160585533Y-50846235D01*
X160585534Y-50846234D01*
X160758605Y-50774546D01*
X160942333Y-50738000D01*
X161129667Y-50738000D01*
X161313395Y-50774546D01*
G37*
G36*
X125819000Y-51016000D02*
G01*
X124117000Y-51016000D01*
X124117000Y-49314000D01*
X125819000Y-49314000D01*
X125819000Y-51016000D01*
G37*
M02*
