G04 #@! TF.GenerationSoftware,KiCad,Pcbnew,5.1.6-c6e7f7d~86~ubuntu18.04.1*
G04 #@! TF.CreationDate,2020-06-20T00:16:09+12:00*
G04 #@! TF.ProjectId,M1 Address Decoding,4d312041-6464-4726-9573-73204465636f,rev?*
G04 #@! TF.SameCoordinates,Original*
G04 #@! TF.FileFunction,Copper,L4,Bot*
G04 #@! TF.FilePolarity,Positive*
%FSLAX46Y46*%
G04 Gerber Fmt 4.6, Leading zero omitted, Abs format (unit mm)*
G04 Created by KiCad (PCBNEW 5.1.6-c6e7f7d~86~ubuntu18.04.1) date 2020-06-20 00:16:09*
%MOMM*%
%LPD*%
G01*
G04 APERTURE LIST*
G04 #@! TA.AperFunction,ComponentPad*
%ADD10C,1.600000*%
G04 #@! TD*
G04 #@! TA.AperFunction,ComponentPad*
%ADD11C,1.700000*%
G04 #@! TD*
G04 #@! TA.AperFunction,ComponentPad*
%ADD12R,1.600000X1.600000*%
G04 #@! TD*
G04 #@! TA.AperFunction,ComponentPad*
%ADD13O,1.600000X1.600000*%
G04 #@! TD*
G04 #@! TA.AperFunction,ComponentPad*
%ADD14C,1.800000*%
G04 #@! TD*
G04 #@! TA.AperFunction,ComponentPad*
%ADD15R,1.800000X1.800000*%
G04 #@! TD*
G04 #@! TA.AperFunction,ViaPad*
%ADD16C,0.889000*%
G04 #@! TD*
G04 #@! TA.AperFunction,Conductor*
%ADD17C,0.330200*%
G04 #@! TD*
G04 APERTURE END LIST*
D10*
G04 #@! TO.P,C7,2*
G04 #@! TO.N,+5V*
X137795000Y-64215000D03*
G04 #@! TO.P,C7,1*
G04 #@! TO.N,GND*
X137795000Y-69215000D03*
G04 #@! TD*
G04 #@! TO.P,J1,1*
G04 #@! TO.N,GND*
G04 #@! TA.AperFunction,ComponentPad*
G36*
G01*
X191297000Y-134659000D02*
X192497000Y-134659000D01*
G75*
G02*
X192747000Y-134909000I0J-250000D01*
G01*
X192747000Y-136109000D01*
G75*
G02*
X192497000Y-136359000I-250000J0D01*
G01*
X191297000Y-136359000D01*
G75*
G02*
X191047000Y-136109000I0J250000D01*
G01*
X191047000Y-134909000D01*
G75*
G02*
X191297000Y-134659000I250000J0D01*
G01*
G37*
G04 #@! TD.AperFunction*
D11*
G04 #@! TO.P,J1,3*
G04 #@! TO.N,/A1*
X189357000Y-135509000D03*
G04 #@! TO.P,J1,5*
G04 #@! TO.N,/A3*
X186817000Y-135509000D03*
G04 #@! TO.P,J1,7*
G04 #@! TO.N,/A5*
X184277000Y-135509000D03*
G04 #@! TO.P,J1,9*
G04 #@! TO.N,/A7*
X181737000Y-135509000D03*
G04 #@! TO.P,J1,11*
G04 #@! TO.N,GND*
X179197000Y-135509000D03*
G04 #@! TO.P,J1,13*
X176657000Y-135509000D03*
G04 #@! TO.P,J1,15*
G04 #@! TO.N,/A9*
X174117000Y-135509000D03*
G04 #@! TO.P,J1,17*
G04 #@! TO.N,/A11*
X171577000Y-135509000D03*
G04 #@! TO.P,J1,19*
G04 #@! TO.N,/A13*
X169037000Y-135509000D03*
G04 #@! TO.P,J1,21*
G04 #@! TO.N,/A15*
X166497000Y-135509000D03*
G04 #@! TO.P,J1,23*
G04 #@! TO.N,GND*
X163957000Y-135509000D03*
G04 #@! TO.P,J1,25*
G04 #@! TO.N,+5V*
X161417000Y-135509000D03*
G04 #@! TO.P,J1,27*
G04 #@! TO.N,GND*
X158877000Y-135509000D03*
G04 #@! TO.P,J1,29*
G04 #@! TO.N,/nPCOE*
X156337000Y-135509000D03*
G04 #@! TO.P,J1,31*
G04 #@! TO.N,Net-(J1-Pad31)*
X153797000Y-135509000D03*
G04 #@! TO.P,J1,33*
G04 #@! TO.N,/nADROE*
X151257000Y-135509000D03*
G04 #@! TO.P,J1,35*
G04 #@! TO.N,Net-(J1-Pad35)*
X148717000Y-135509000D03*
G04 #@! TO.P,J1,37*
G04 #@! TO.N,/nMEN*
X146177000Y-135509000D03*
G04 #@! TO.P,J1,39*
G04 #@! TO.N,GND*
X143637000Y-135509000D03*
G04 #@! TO.P,J1,41*
X141097000Y-135509000D03*
G04 #@! TO.P,J1,43*
G04 #@! TO.N,/nIOSEL1*
X138557000Y-135509000D03*
G04 #@! TO.P,J1,45*
G04 #@! TO.N,/nIOSEL3*
X136017000Y-135509000D03*
G04 #@! TO.P,J1,47*
G04 #@! TO.N,/nIOSEL5*
X133477000Y-135509000D03*
G04 #@! TO.P,J1,49*
G04 #@! TO.N,/nIOSEL7*
X130937000Y-135509000D03*
G04 #@! TO.P,J1,51*
G04 #@! TO.N,GND*
X128397000Y-135509000D03*
G04 #@! TO.P,J1,53*
X125857000Y-135509000D03*
G04 #@! TO.P,J1,55*
G04 #@! TO.N,Net-(J1-Pad55)*
X123317000Y-135509000D03*
G04 #@! TO.P,J1,57*
G04 #@! TO.N,Net-(J1-Pad57)*
X120777000Y-135509000D03*
G04 #@! TO.P,J1,59*
G04 #@! TO.N,Net-(J1-Pad59)*
X118237000Y-135509000D03*
G04 #@! TO.P,J1,61*
G04 #@! TO.N,Net-(J1-Pad61)*
X115697000Y-135509000D03*
G04 #@! TO.P,J1,63*
G04 #@! TO.N,GND*
X113157000Y-135509000D03*
G04 #@! TO.P,J1,2*
X191897000Y-138049000D03*
G04 #@! TO.P,J1,4*
G04 #@! TO.N,/A0*
X189357000Y-138049000D03*
G04 #@! TO.P,J1,6*
G04 #@! TO.N,/A2*
X186817000Y-138049000D03*
G04 #@! TO.P,J1,8*
G04 #@! TO.N,/A4*
X184277000Y-138049000D03*
G04 #@! TO.P,J1,10*
G04 #@! TO.N,/A6*
X181737000Y-138049000D03*
G04 #@! TO.P,J1,12*
G04 #@! TO.N,GND*
X179197000Y-138049000D03*
G04 #@! TO.P,J1,14*
X176657000Y-138049000D03*
G04 #@! TO.P,J1,16*
G04 #@! TO.N,/A8*
X174117000Y-138049000D03*
G04 #@! TO.P,J1,18*
G04 #@! TO.N,/A10*
X171577000Y-138049000D03*
G04 #@! TO.P,J1,20*
G04 #@! TO.N,/A12*
X169037000Y-138049000D03*
G04 #@! TO.P,J1,22*
G04 #@! TO.N,/A14*
X166497000Y-138049000D03*
G04 #@! TO.P,J1,24*
G04 #@! TO.N,GND*
X163957000Y-138049000D03*
G04 #@! TO.P,J1,26*
G04 #@! TO.N,+5V*
X161417000Y-138049000D03*
G04 #@! TO.P,J1,28*
G04 #@! TO.N,GND*
X158877000Y-138049000D03*
G04 #@! TO.P,J1,30*
G04 #@! TO.N,Net-(J1-Pad30)*
X156337000Y-138049000D03*
G04 #@! TO.P,J1,32*
G04 #@! TO.N,Net-(J1-Pad32)*
X153797000Y-138049000D03*
G04 #@! TO.P,J1,34*
G04 #@! TO.N,Net-(J1-Pad34)*
X151257000Y-138049000D03*
G04 #@! TO.P,J1,36*
G04 #@! TO.N,Net-(J1-Pad36)*
X148717000Y-138049000D03*
G04 #@! TO.P,J1,38*
G04 #@! TO.N,Net-(J1-Pad38)*
X146177000Y-138049000D03*
G04 #@! TO.P,J1,40*
G04 #@! TO.N,Net-(J1-Pad40)*
X143637000Y-138049000D03*
G04 #@! TO.P,J1,42*
G04 #@! TO.N,GND*
X141097000Y-138049000D03*
G04 #@! TO.P,J1,44*
G04 #@! TO.N,/nIOSEL0*
X138557000Y-138049000D03*
G04 #@! TO.P,J1,46*
G04 #@! TO.N,/nIOSEL2*
X136017000Y-138049000D03*
G04 #@! TO.P,J1,48*
G04 #@! TO.N,/nIOSEL4*
X133477000Y-138049000D03*
G04 #@! TO.P,J1,50*
G04 #@! TO.N,/nIOSEL6*
X130937000Y-138049000D03*
G04 #@! TO.P,J1,52*
G04 #@! TO.N,GND*
X128397000Y-138049000D03*
G04 #@! TO.P,J1,54*
X125857000Y-138049000D03*
G04 #@! TO.P,J1,56*
G04 #@! TO.N,Net-(J1-Pad56)*
X123317000Y-138049000D03*
G04 #@! TO.P,J1,58*
G04 #@! TO.N,Net-(J1-Pad58)*
X120777000Y-138049000D03*
G04 #@! TO.P,J1,60*
G04 #@! TO.N,Net-(J1-Pad60)*
X118237000Y-138049000D03*
G04 #@! TO.P,J1,62*
G04 #@! TO.N,Net-(J1-Pad62)*
X115697000Y-138049000D03*
G04 #@! TO.P,J1,64*
G04 #@! TO.N,GND*
X113157000Y-138049000D03*
G04 #@! TD*
D12*
G04 #@! TO.P,RN1,1*
G04 #@! TO.N,GND*
X124968000Y-50165000D03*
D13*
G04 #@! TO.P,RN1,2*
G04 #@! TO.N,Net-(D1-Pad8)*
X124968000Y-52705000D03*
G04 #@! TO.P,RN1,3*
G04 #@! TO.N,Net-(D1-Pad6)*
X124968000Y-55245000D03*
G04 #@! TO.P,RN1,4*
G04 #@! TO.N,Net-(D1-Pad4)*
X124968000Y-57785000D03*
G04 #@! TO.P,RN1,5*
G04 #@! TO.N,Net-(D1-Pad2)*
X124968000Y-60325000D03*
G04 #@! TO.P,RN1,6*
G04 #@! TO.N,Net-(D2-Pad8)*
X124968000Y-62865000D03*
G04 #@! TO.P,RN1,7*
G04 #@! TO.N,Net-(D2-Pad6)*
X124968000Y-65405000D03*
G04 #@! TO.P,RN1,8*
G04 #@! TO.N,Net-(D2-Pad4)*
X124968000Y-67945000D03*
G04 #@! TO.P,RN1,9*
G04 #@! TO.N,Net-(D2-Pad2)*
X124968000Y-70485000D03*
G04 #@! TD*
D14*
G04 #@! TO.P,D1,4*
G04 #@! TO.N,Net-(D1-Pad4)*
X141351000Y-51689000D03*
D15*
G04 #@! TO.P,D1,3*
G04 #@! TO.N,Net-(D1-Pad3)*
X143891000Y-51689000D03*
G04 #@! TO.P,D1,5*
G04 #@! TO.N,Net-(D1-Pad5)*
X137541000Y-51689000D03*
D14*
G04 #@! TO.P,D1,6*
G04 #@! TO.N,Net-(D1-Pad6)*
X135001000Y-51689000D03*
D15*
G04 #@! TO.P,D1,1*
G04 #@! TO.N,Net-(D1-Pad1)*
X150241000Y-51689000D03*
D14*
G04 #@! TO.P,D1,2*
G04 #@! TO.N,Net-(D1-Pad2)*
X147701000Y-51689000D03*
D15*
G04 #@! TO.P,D1,7*
G04 #@! TO.N,Net-(D1-Pad7)*
X131191000Y-51689000D03*
D14*
G04 #@! TO.P,D1,8*
G04 #@! TO.N,Net-(D1-Pad8)*
X128651000Y-51689000D03*
G04 #@! TD*
G04 #@! TO.P,D2,8*
G04 #@! TO.N,Net-(D2-Pad8)*
X154686000Y-51689000D03*
D15*
G04 #@! TO.P,D2,7*
G04 #@! TO.N,Net-(D2-Pad7)*
X157226000Y-51689000D03*
D14*
G04 #@! TO.P,D2,2*
G04 #@! TO.N,Net-(D2-Pad2)*
X173736000Y-51689000D03*
D15*
G04 #@! TO.P,D2,1*
G04 #@! TO.N,Net-(D2-Pad1)*
X176276000Y-51689000D03*
D14*
G04 #@! TO.P,D2,6*
G04 #@! TO.N,Net-(D2-Pad6)*
X161036000Y-51689000D03*
D15*
G04 #@! TO.P,D2,5*
G04 #@! TO.N,Net-(D2-Pad5)*
X163576000Y-51689000D03*
G04 #@! TO.P,D2,3*
G04 #@! TO.N,Net-(D2-Pad3)*
X169926000Y-51689000D03*
D14*
G04 #@! TO.P,D2,4*
G04 #@! TO.N,Net-(D2-Pad4)*
X167386000Y-51689000D03*
G04 #@! TD*
D10*
G04 #@! TO.P,C1,1*
G04 #@! TO.N,GND*
X144907000Y-112141000D03*
G04 #@! TO.P,C1,2*
G04 #@! TO.N,+5V*
X149907000Y-112141000D03*
G04 #@! TD*
G04 #@! TO.P,C2,1*
G04 #@! TO.N,GND*
X160401000Y-126365000D03*
G04 #@! TO.P,C2,2*
G04 #@! TO.N,+5V*
X160401000Y-121365000D03*
G04 #@! TD*
G04 #@! TO.P,C3,2*
G04 #@! TO.N,+5V*
X127047000Y-80899000D03*
G04 #@! TO.P,C3,1*
G04 #@! TO.N,GND*
X122047000Y-80899000D03*
G04 #@! TD*
D12*
G04 #@! TO.P,U3,1*
G04 #@! TO.N,/A12*
X164211000Y-127889000D03*
D13*
G04 #@! TO.P,U3,8*
G04 #@! TO.N,/E2*
X179451000Y-120269000D03*
G04 #@! TO.P,U3,2*
G04 #@! TO.N,/A11*
X166751000Y-127889000D03*
G04 #@! TO.P,U3,9*
G04 #@! TO.N,N/C*
X176911000Y-120269000D03*
G04 #@! TO.P,U3,3*
G04 #@! TO.N,/A10*
X169291000Y-127889000D03*
G04 #@! TO.P,U3,10*
G04 #@! TO.N,N/C*
X174371000Y-120269000D03*
G04 #@! TO.P,U3,4*
G04 #@! TO.N,/A9*
X171831000Y-127889000D03*
G04 #@! TO.P,U3,11*
G04 #@! TO.N,/A14*
X171831000Y-120269000D03*
G04 #@! TO.P,U3,5*
G04 #@! TO.N,/A8*
X174371000Y-127889000D03*
G04 #@! TO.P,U3,12*
G04 #@! TO.N,/A15*
X169291000Y-120269000D03*
G04 #@! TO.P,U3,6*
G04 #@! TO.N,/A13*
X176911000Y-127889000D03*
G04 #@! TO.P,U3,13*
G04 #@! TO.N,N/C*
X166751000Y-120269000D03*
G04 #@! TO.P,U3,7*
G04 #@! TO.N,GND*
X179451000Y-127889000D03*
G04 #@! TO.P,U3,14*
G04 #@! TO.N,+5V*
X164211000Y-120269000D03*
G04 #@! TD*
D12*
G04 #@! TO.P,U4,1*
G04 #@! TO.N,/A5*
X120777000Y-84709000D03*
D13*
G04 #@! TO.P,U4,9*
G04 #@! TO.N,/nIOSEL6*
X128397000Y-102489000D03*
G04 #@! TO.P,U4,2*
G04 #@! TO.N,/A6*
X120777000Y-87249000D03*
G04 #@! TO.P,U4,10*
G04 #@! TO.N,/nIOSEL5*
X128397000Y-99949000D03*
G04 #@! TO.P,U4,3*
G04 #@! TO.N,/A7*
X120777000Y-89789000D03*
G04 #@! TO.P,U4,11*
G04 #@! TO.N,/nIOSEL4*
X128397000Y-97409000D03*
G04 #@! TO.P,U4,4*
G04 #@! TO.N,GND*
X120777000Y-92329000D03*
G04 #@! TO.P,U4,12*
G04 #@! TO.N,/nIOSEL3*
X128397000Y-94869000D03*
G04 #@! TO.P,U4,5*
G04 #@! TO.N,/E2*
X120777000Y-94869000D03*
G04 #@! TO.P,U4,13*
G04 #@! TO.N,/nIOSEL2*
X128397000Y-92329000D03*
G04 #@! TO.P,U4,6*
G04 #@! TO.N,/E1*
X120777000Y-97409000D03*
G04 #@! TO.P,U4,14*
G04 #@! TO.N,/nIOSEL1*
X128397000Y-89789000D03*
G04 #@! TO.P,U4,7*
G04 #@! TO.N,/nIOSEL7*
X120777000Y-99949000D03*
G04 #@! TO.P,U4,15*
G04 #@! TO.N,/nIOSEL0*
X128397000Y-87249000D03*
G04 #@! TO.P,U4,8*
G04 #@! TO.N,GND*
X120777000Y-102489000D03*
G04 #@! TO.P,U4,16*
G04 #@! TO.N,+5V*
X128397000Y-84709000D03*
G04 #@! TD*
D12*
G04 #@! TO.P,U5,1*
G04 #@! TO.N,GND*
X141605000Y-70612000D03*
D13*
G04 #@! TO.P,U5,11*
G04 #@! TO.N,Net-(D2-Pad1)*
X164465000Y-62992000D03*
G04 #@! TO.P,U5,2*
G04 #@! TO.N,/nIOSEL0*
X144145000Y-70612000D03*
G04 #@! TO.P,U5,12*
G04 #@! TO.N,Net-(D2-Pad3)*
X161925000Y-62992000D03*
G04 #@! TO.P,U5,3*
G04 #@! TO.N,/nIOSEL1*
X146685000Y-70612000D03*
G04 #@! TO.P,U5,13*
G04 #@! TO.N,Net-(D2-Pad5)*
X159385000Y-62992000D03*
G04 #@! TO.P,U5,4*
G04 #@! TO.N,/nIOSEL2*
X149225000Y-70612000D03*
G04 #@! TO.P,U5,14*
G04 #@! TO.N,Net-(D2-Pad7)*
X156845000Y-62992000D03*
G04 #@! TO.P,U5,5*
G04 #@! TO.N,/nIOSEL3*
X151765000Y-70612000D03*
G04 #@! TO.P,U5,15*
G04 #@! TO.N,Net-(D1-Pad1)*
X154305000Y-62992000D03*
G04 #@! TO.P,U5,6*
G04 #@! TO.N,/nIOSEL4*
X154305000Y-70612000D03*
G04 #@! TO.P,U5,16*
G04 #@! TO.N,Net-(D1-Pad3)*
X151765000Y-62992000D03*
G04 #@! TO.P,U5,7*
G04 #@! TO.N,/nIOSEL5*
X156845000Y-70612000D03*
G04 #@! TO.P,U5,17*
G04 #@! TO.N,Net-(D1-Pad5)*
X149225000Y-62992000D03*
G04 #@! TO.P,U5,8*
G04 #@! TO.N,/nIOSEL6*
X159385000Y-70612000D03*
G04 #@! TO.P,U5,18*
G04 #@! TO.N,Net-(D1-Pad7)*
X146685000Y-62992000D03*
G04 #@! TO.P,U5,9*
G04 #@! TO.N,/nIOSEL7*
X161925000Y-70612000D03*
G04 #@! TO.P,U5,19*
G04 #@! TO.N,GND*
X144145000Y-62992000D03*
G04 #@! TO.P,U5,10*
X164465000Y-70612000D03*
G04 #@! TO.P,U5,20*
G04 #@! TO.N,+5V*
X141605000Y-62992000D03*
G04 #@! TD*
D12*
G04 #@! TO.P,U1,1*
G04 #@! TO.N,/nPCOE*
X143637000Y-115951000D03*
D13*
G04 #@! TO.P,U1,8*
G04 #@! TO.N,Net-(U1-Pad8)*
X151257000Y-131191000D03*
G04 #@! TO.P,U1,2*
G04 #@! TO.N,/nMEN*
X143637000Y-118491000D03*
G04 #@! TO.P,U1,9*
G04 #@! TO.N,GND*
X151257000Y-128651000D03*
G04 #@! TO.P,U1,3*
X143637000Y-121031000D03*
G04 #@! TO.P,U1,10*
X151257000Y-126111000D03*
G04 #@! TO.P,U1,4*
X143637000Y-123571000D03*
G04 #@! TO.P,U1,11*
X151257000Y-123571000D03*
G04 #@! TO.P,U1,5*
X143637000Y-126111000D03*
G04 #@! TO.P,U1,12*
G04 #@! TO.N,/E1*
X151257000Y-121031000D03*
G04 #@! TO.P,U1,6*
G04 #@! TO.N,Net-(U1-Pad6)*
X143637000Y-128651000D03*
G04 #@! TO.P,U1,13*
G04 #@! TO.N,/nADROE*
X151257000Y-118491000D03*
G04 #@! TO.P,U1,7*
G04 #@! TO.N,GND*
X143637000Y-131191000D03*
G04 #@! TO.P,U1,14*
G04 #@! TO.N,+5V*
X151257000Y-115951000D03*
G04 #@! TD*
D16*
G04 #@! TO.N,/nIOSEL7*
X130937000Y-104775000D03*
G04 #@! TO.N,/nIOSEL1*
X138557000Y-89789000D03*
G04 #@! TO.N,/nIOSEL3*
X136017000Y-94869000D03*
G04 #@! TO.N,/nIOSEL5*
X133477000Y-99949000D03*
G04 #@! TO.N,/nIOSEL0*
X139827000Y-87249000D03*
G04 #@! TO.N,/nIOSEL2*
X137287000Y-92329000D03*
G04 #@! TO.N,/nIOSEL4*
X134746101Y-97409000D03*
G04 #@! TO.N,/nIOSEL6*
X132207000Y-102489000D03*
G04 #@! TD*
D17*
G04 #@! TO.N,Net-(D1-Pad2)*
X133223000Y-57023000D02*
X132461000Y-57785000D01*
X147701000Y-51689000D02*
X147701000Y-56134000D01*
X147701000Y-56134000D02*
X146812000Y-57023000D01*
X146812000Y-57023000D02*
X133223000Y-57023000D01*
X124968000Y-60325000D02*
X131699000Y-60325000D01*
X132461000Y-57785000D02*
X132461000Y-59563000D01*
X131699000Y-60325000D02*
X132461000Y-59563000D01*
G04 #@! TO.N,Net-(D2-Pad2)*
X136525000Y-60071000D02*
X135509000Y-61087000D01*
X173736000Y-59055000D02*
X172720000Y-60071000D01*
X173736000Y-51689000D02*
X173736000Y-59055000D01*
X172720000Y-60071000D02*
X136525000Y-60071000D01*
X124968000Y-70485000D02*
X134747000Y-70485000D01*
X134747000Y-70485000D02*
X135509000Y-69723000D01*
X135509000Y-61087000D02*
X135509000Y-69723000D01*
G04 #@! TO.N,/A5*
X120777000Y-84709000D02*
X126111000Y-84709000D01*
X126111000Y-84709000D02*
X126873000Y-85471000D01*
X126873000Y-85471000D02*
X126873000Y-105537000D01*
X126873000Y-105537000D02*
X127635000Y-106299000D01*
X184277000Y-135509000D02*
X184277000Y-107061000D01*
X184277000Y-107061000D02*
X183515000Y-106299000D01*
X127635000Y-106299000D02*
X183515000Y-106299000D01*
G04 #@! TO.N,/A7*
X125349000Y-107061000D02*
X126111000Y-107823000D01*
X125349000Y-90551000D02*
X125349000Y-107061000D01*
X120777000Y-89789000D02*
X124587000Y-89789000D01*
X124587000Y-89789000D02*
X125349000Y-90551000D01*
X181737000Y-108585000D02*
X180975000Y-107823000D01*
X126111000Y-107823000D02*
X180975000Y-107823000D01*
X181737000Y-135509000D02*
X181737000Y-108585000D01*
G04 #@! TO.N,/A9*
X174117000Y-131953000D02*
X174117000Y-135509000D01*
X171831000Y-127889000D02*
X171831000Y-129667000D01*
X171831000Y-129667000D02*
X174117000Y-131953000D01*
G04 #@! TO.N,/A11*
X170561000Y-132461000D02*
X171577000Y-133477000D01*
X171577000Y-133477000D02*
X171577000Y-135509000D01*
X166751000Y-127889000D02*
X166751000Y-131699000D01*
X167513000Y-132461000D02*
X170561000Y-132461000D01*
X166751000Y-131699000D02*
X167513000Y-132461000D01*
G04 #@! TO.N,/nPCOE*
X156337000Y-135509000D02*
X156337000Y-123063000D01*
X156337000Y-123063000D02*
X155575000Y-122301000D01*
X155575000Y-122301000D02*
X148209000Y-122301000D01*
X148209000Y-122301000D02*
X147447000Y-121539000D01*
X147447000Y-121539000D02*
X147447000Y-116713000D01*
X147447000Y-116713000D02*
X146685000Y-115951000D01*
X146685000Y-115951000D02*
X143637000Y-115951000D01*
G04 #@! TO.N,/A6*
X125349000Y-87249000D02*
X120777000Y-87249000D01*
X126111000Y-88011000D02*
X125349000Y-87249000D01*
X126111000Y-106299000D02*
X126111000Y-88011000D01*
X181737000Y-138049000D02*
X183007000Y-136779000D01*
X183007000Y-136779000D02*
X183007000Y-107823000D01*
X182245000Y-107061000D02*
X126873000Y-107061000D01*
X183007000Y-107823000D02*
X182245000Y-107061000D01*
X126873000Y-107061000D02*
X126111000Y-106299000D01*
G04 #@! TO.N,/A8*
X175387000Y-136779000D02*
X174117000Y-138049000D01*
X175387000Y-130175000D02*
X175387000Y-136779000D01*
X174371000Y-127889000D02*
X174371000Y-129159000D01*
X174371000Y-129159000D02*
X175387000Y-130175000D01*
G04 #@! TO.N,/A10*
X172847000Y-136779000D02*
X171577000Y-138049000D01*
X172847000Y-132715000D02*
X172847000Y-136779000D01*
X171831000Y-131699000D02*
X172847000Y-132715000D01*
X169291000Y-127889000D02*
X169291000Y-130937000D01*
X169291000Y-130937000D02*
X170053000Y-131699000D01*
X170053000Y-131699000D02*
X171831000Y-131699000D01*
G04 #@! TO.N,/A12*
X170307000Y-133985000D02*
X169545000Y-133223000D01*
X169037000Y-138049000D02*
X170307000Y-136779000D01*
X170307000Y-136779000D02*
X170307000Y-133985000D01*
X164211000Y-127889000D02*
X164211000Y-132461000D01*
X164211000Y-132461000D02*
X164973000Y-133223000D01*
X169545000Y-133223000D02*
X164973000Y-133223000D01*
G04 #@! TO.N,/nIOSEL7*
X130937000Y-104775000D02*
X161163000Y-104775000D01*
X161163000Y-104775000D02*
X161925000Y-104013000D01*
X161925000Y-104013000D02*
X161925000Y-70612000D01*
G04 #@! TO.N,Net-(D1-Pad4)*
X132461000Y-56261000D02*
X131699000Y-57023000D01*
X130937000Y-57785000D02*
X131699000Y-57023000D01*
X125603000Y-57785000D02*
X130937000Y-57785000D01*
X141351000Y-55372000D02*
X140462000Y-56261000D01*
X141351000Y-51689000D02*
X141351000Y-55372000D01*
X140462000Y-56261000D02*
X132461000Y-56261000D01*
G04 #@! TO.N,Net-(D1-Pad6)*
X135001000Y-54356000D02*
X134112000Y-55245000D01*
X135001000Y-51689000D02*
X135001000Y-54356000D01*
X134112000Y-55245000D02*
X125603000Y-55245000D01*
G04 #@! TO.N,Net-(D1-Pad8)*
X127635000Y-52705000D02*
X128651000Y-51689000D01*
X124968000Y-52705000D02*
X127635000Y-52705000D01*
G04 #@! TO.N,Net-(D2-Pad8)*
X134239000Y-57785000D02*
X133223000Y-58801000D01*
X154686000Y-56769000D02*
X153670000Y-57785000D01*
X154686000Y-51689000D02*
X154686000Y-56769000D01*
X153670000Y-57785000D02*
X134239000Y-57785000D01*
X132461000Y-62865000D02*
X133223000Y-62103000D01*
X124968000Y-62865000D02*
X132461000Y-62865000D01*
X133223000Y-58801000D02*
X133223000Y-62103000D01*
G04 #@! TO.N,Net-(D2-Pad6)*
X135001000Y-58547000D02*
X133985000Y-59563000D01*
X161036000Y-57531000D02*
X160020000Y-58547000D01*
X161036000Y-51689000D02*
X161036000Y-57531000D01*
X160020000Y-58547000D02*
X135001000Y-58547000D01*
X133223000Y-65405000D02*
X133985000Y-64643000D01*
X124968000Y-65405000D02*
X133223000Y-65405000D01*
X133985000Y-59563000D02*
X133985000Y-64643000D01*
G04 #@! TO.N,Net-(D2-Pad4)*
X135763000Y-59309000D02*
X134747000Y-60325000D01*
X167386000Y-58293000D02*
X166370000Y-59309000D01*
X167386000Y-51689000D02*
X167386000Y-58293000D01*
X166370000Y-59309000D02*
X135763000Y-59309000D01*
X124968000Y-67945000D02*
X133985000Y-67945000D01*
X134747000Y-60325000D02*
X134747000Y-67183000D01*
X133985000Y-67945000D02*
X134747000Y-67183000D01*
G04 #@! TO.N,/nIOSEL1*
X138557000Y-89789000D02*
X145923000Y-89789000D01*
X145923000Y-89789000D02*
X146685000Y-89027000D01*
X146685000Y-89027000D02*
X146685000Y-70612000D01*
G04 #@! TO.N,/nIOSEL3*
X136017000Y-94869000D02*
X151003000Y-94869000D01*
X151003000Y-94869000D02*
X151765000Y-94107000D01*
X151765000Y-94107000D02*
X151765000Y-70612000D01*
G04 #@! TO.N,/nIOSEL5*
X133477000Y-99949000D02*
X156083000Y-99949000D01*
X156083000Y-99949000D02*
X156845000Y-99187000D01*
X156845000Y-99187000D02*
X156845000Y-70612000D01*
G04 #@! TO.N,/nIOSEL0*
X143383000Y-87249000D02*
X144145000Y-86487000D01*
X139827000Y-87249000D02*
X143383000Y-87249000D01*
X144145000Y-86487000D02*
X144145000Y-70612000D01*
G04 #@! TO.N,/nIOSEL2*
X149225000Y-91567000D02*
X149225000Y-70612000D01*
X137287000Y-92329000D02*
X148463000Y-92329000D01*
X148463000Y-92329000D02*
X149225000Y-91567000D01*
G04 #@! TO.N,/nIOSEL4*
X134746101Y-97409000D02*
X153543000Y-97409000D01*
X153543000Y-97409000D02*
X154305000Y-96647000D01*
X154305000Y-96647000D02*
X154305000Y-70612000D01*
G04 #@! TO.N,/nIOSEL6*
X132207000Y-102489000D02*
X158623000Y-102489000D01*
X158623000Y-102489000D02*
X159385000Y-101727000D01*
X159385000Y-101727000D02*
X159385000Y-70612000D01*
G04 #@! TO.N,/E1*
X123825000Y-108585000D02*
X124587000Y-109347000D01*
X123825000Y-98171000D02*
X123825000Y-108585000D01*
X123063000Y-97409000D02*
X123825000Y-98171000D01*
X120777000Y-97409000D02*
X123063000Y-97409000D01*
X151257000Y-121031000D02*
X148971000Y-121031000D01*
X148971000Y-121031000D02*
X148209000Y-120269000D01*
X148209000Y-120269000D02*
X148209000Y-110109000D01*
X124587000Y-109347000D02*
X147447000Y-109347000D01*
X148209000Y-110109000D02*
X147447000Y-109347000D01*
G04 #@! TO.N,/E2*
X123825000Y-94869000D02*
X120777000Y-94869000D01*
X179451000Y-109347000D02*
X178689000Y-108585000D01*
X179451000Y-120269000D02*
X179451000Y-109347000D01*
X124587000Y-95631000D02*
X123825000Y-94869000D01*
X178689000Y-108585000D02*
X125349000Y-108585000D01*
X125349000Y-108585000D02*
X124587000Y-107823000D01*
X124587000Y-107823000D02*
X124587000Y-95631000D01*
G04 #@! TD*
M02*
