M48
; DRILL file {KiCad 5.1.6-c6e7f7d~86~ubuntu18.04.1} date Sat Jun 20 00:16:44 2020
; FORMAT={-:-/ absolute / inch / decimal}
; #@! TF.CreationDate,2020-06-20T00:16:44+12:00
; #@! TF.GenerationSoftware,Kicad,Pcbnew,5.1.6-c6e7f7d~86~ubuntu18.04.1
FMAT,2
INCH
T1C0.0150
T2C0.0315
T3C0.0354
T4C0.0394
%
G90
G05
T1
X5.155Y-4.125
X5.205Y-4.035
X5.255Y-3.935
X5.305Y-3.835
X5.355Y-3.735
X5.405Y-3.635
X5.455Y-3.535
X5.505Y-3.435
T2
X5.575Y-2.48
X5.575Y-2.78
X5.675Y-2.48
X5.675Y-2.78
X5.775Y-2.48
X5.775Y-2.78
X5.875Y-2.48
X5.875Y-2.78
X5.975Y-2.48
X5.975Y-2.78
X6.075Y-2.48
X6.075Y-2.78
X6.175Y-2.48
X6.175Y-2.78
X6.275Y-2.48
X6.275Y-2.78
X6.375Y-2.48
X6.375Y-2.78
X6.475Y-2.48
X6.475Y-2.78
X4.805Y-3.185
X5.0019Y-3.185
X4.755Y-3.335
X4.755Y-3.435
X4.755Y-3.535
X4.755Y-3.635
X4.755Y-3.735
X4.755Y-3.835
X4.755Y-3.935
X4.755Y-4.035
X5.055Y-3.335
X5.055Y-3.435
X5.055Y-3.535
X5.055Y-3.635
X5.055Y-3.735
X5.055Y-3.835
X5.055Y-3.935
X5.055Y-4.035
X4.92Y-1.975
X4.92Y-2.075
X4.92Y-2.175
X4.92Y-2.275
X4.92Y-2.375
X4.92Y-2.475
X4.92Y-2.575
X4.92Y-2.675
X4.92Y-2.775
X5.705Y-4.415
X5.9019Y-4.415
X5.655Y-4.565
X5.655Y-4.665
X5.655Y-4.765
X5.655Y-4.865
X5.655Y-4.965
X5.655Y-5.065
X5.655Y-5.165
X5.955Y-4.565
X5.955Y-4.665
X5.955Y-4.765
X5.955Y-4.865
X5.955Y-4.965
X5.955Y-5.065
X5.955Y-5.165
X6.465Y-4.735
X6.465Y-5.035
X6.565Y-4.735
X6.565Y-5.035
X6.665Y-4.735
X6.665Y-5.035
X6.765Y-4.735
X6.765Y-5.035
X6.865Y-4.735
X6.865Y-5.035
X6.965Y-4.735
X6.965Y-5.035
X7.065Y-4.735
X7.065Y-5.035
X5.425Y-2.5281
X5.425Y-2.725
X6.315Y-4.7781
X6.315Y-4.975
T3
X6.09Y-2.035
X6.19Y-2.035
X6.34Y-2.035
X6.44Y-2.035
X6.59Y-2.035
X6.69Y-2.035
X6.84Y-2.035
X6.94Y-2.035
X5.065Y-2.035
X5.165Y-2.035
X5.315Y-2.035
X5.415Y-2.035
X5.565Y-2.035
X5.665Y-2.035
X5.815Y-2.035
X5.915Y-2.035
T4
X4.455Y-5.335
X4.455Y-5.435
X4.555Y-5.335
X4.555Y-5.435
X4.655Y-5.335
X4.655Y-5.435
X4.755Y-5.335
X4.755Y-5.435
X4.855Y-5.335
X4.855Y-5.435
X4.955Y-5.335
X4.955Y-5.435
X5.055Y-5.335
X5.055Y-5.435
X5.155Y-5.335
X5.155Y-5.435
X5.255Y-5.335
X5.255Y-5.435
X5.355Y-5.335
X5.355Y-5.435
X5.455Y-5.335
X5.455Y-5.435
X5.555Y-5.335
X5.555Y-5.435
X5.655Y-5.335
X5.655Y-5.435
X5.755Y-5.335
X5.755Y-5.435
X5.855Y-5.335
X5.855Y-5.435
X5.955Y-5.335
X5.955Y-5.435
X6.055Y-5.335
X6.055Y-5.435
X6.155Y-5.335
X6.155Y-5.435
X6.255Y-5.335
X6.255Y-5.435
X6.355Y-5.335
X6.355Y-5.435
X6.455Y-5.335
X6.455Y-5.435
X6.555Y-5.335
X6.555Y-5.435
X6.655Y-5.335
X6.655Y-5.435
X6.755Y-5.335
X6.755Y-5.435
X6.855Y-5.335
X6.855Y-5.435
X6.955Y-5.335
X6.955Y-5.435
X7.055Y-5.335
X7.055Y-5.435
X7.155Y-5.335
X7.155Y-5.435
X7.255Y-5.335
X7.255Y-5.435
X7.355Y-5.335
X7.355Y-5.435
X7.455Y-5.335
X7.455Y-5.435
X7.555Y-5.335
X7.555Y-5.435
T0
M30
