G04 #@! TF.GenerationSoftware,KiCad,Pcbnew,5.1.6-c6e7f7d~86~ubuntu18.04.1*
G04 #@! TF.CreationDate,2020-06-20T00:16:09+12:00*
G04 #@! TF.ProjectId,M1 Address Decoding,4d312041-6464-4726-9573-73204465636f,rev?*
G04 #@! TF.SameCoordinates,Original*
G04 #@! TF.FileFunction,Legend,Top*
G04 #@! TF.FilePolarity,Positive*
%FSLAX46Y46*%
G04 Gerber Fmt 4.6, Leading zero omitted, Abs format (unit mm)*
G04 Created by KiCad (PCBNEW 5.1.6-c6e7f7d~86~ubuntu18.04.1) date 2020-06-20 00:16:09*
%MOMM*%
%LPD*%
G01*
G04 APERTURE LIST*
%ADD10C,0.300000*%
%ADD11C,0.500000*%
%ADD12C,0.120000*%
%ADD13C,0.150000*%
G04 APERTURE END LIST*
D10*
X218732571Y-147402857D02*
X217232571Y-147402857D01*
X218304000Y-146902857D01*
X217232571Y-146402857D01*
X218732571Y-146402857D01*
X218732571Y-144902857D02*
X218732571Y-145760000D01*
X218732571Y-145331428D02*
X217232571Y-145331428D01*
X217446857Y-145474285D01*
X217589714Y-145617142D01*
X217661142Y-145760000D01*
X218161142Y-143117142D02*
X218161142Y-141974285D01*
X218732571Y-140117142D02*
X217232571Y-140117142D01*
X217161142Y-138331428D02*
X219089714Y-139617142D01*
X217232571Y-137545714D02*
X217232571Y-137260000D01*
X217304000Y-137117142D01*
X217446857Y-136974285D01*
X217732571Y-136902857D01*
X218232571Y-136902857D01*
X218518285Y-136974285D01*
X218661142Y-137117142D01*
X218732571Y-137260000D01*
X218732571Y-137545714D01*
X218661142Y-137688571D01*
X218518285Y-137831428D01*
X218232571Y-137902857D01*
X217732571Y-137902857D01*
X217446857Y-137831428D01*
X217304000Y-137688571D01*
X217232571Y-137545714D01*
X218661142Y-135188571D02*
X218732571Y-134974285D01*
X218732571Y-134617142D01*
X218661142Y-134474285D01*
X218589714Y-134402857D01*
X218446857Y-134331428D01*
X218304000Y-134331428D01*
X218161142Y-134402857D01*
X218089714Y-134474285D01*
X218018285Y-134617142D01*
X217946857Y-134902857D01*
X217875428Y-135045714D01*
X217804000Y-135117142D01*
X217661142Y-135188571D01*
X217518285Y-135188571D01*
X217375428Y-135117142D01*
X217304000Y-135045714D01*
X217232571Y-134902857D01*
X217232571Y-134545714D01*
X217304000Y-134331428D01*
X217732571Y-133688571D02*
X219232571Y-133688571D01*
X217804000Y-133688571D02*
X217732571Y-133545714D01*
X217732571Y-133260000D01*
X217804000Y-133117142D01*
X217875428Y-133045714D01*
X218018285Y-132974285D01*
X218446857Y-132974285D01*
X218589714Y-133045714D01*
X218661142Y-133117142D01*
X218732571Y-133260000D01*
X218732571Y-133545714D01*
X218661142Y-133688571D01*
X218732571Y-131688571D02*
X217946857Y-131688571D01*
X217804000Y-131760000D01*
X217732571Y-131902857D01*
X217732571Y-132188571D01*
X217804000Y-132331428D01*
X218661142Y-131688571D02*
X218732571Y-131831428D01*
X218732571Y-132188571D01*
X218661142Y-132331428D01*
X218518285Y-132402857D01*
X218375428Y-132402857D01*
X218232571Y-132331428D01*
X218161142Y-132188571D01*
X218161142Y-131831428D01*
X218089714Y-131688571D01*
X218661142Y-130331428D02*
X218732571Y-130474285D01*
X218732571Y-130760000D01*
X218661142Y-130902857D01*
X218589714Y-130974285D01*
X218446857Y-131045714D01*
X218018285Y-131045714D01*
X217875428Y-130974285D01*
X217804000Y-130902857D01*
X217732571Y-130760000D01*
X217732571Y-130474285D01*
X217804000Y-130331428D01*
X218661142Y-129117142D02*
X218732571Y-129260000D01*
X218732571Y-129545714D01*
X218661142Y-129688571D01*
X218518285Y-129760000D01*
X217946857Y-129760000D01*
X217804000Y-129688571D01*
X217732571Y-129545714D01*
X217732571Y-129260000D01*
X217804000Y-129117142D01*
X217946857Y-129045714D01*
X218089714Y-129045714D01*
X218232571Y-129760000D01*
X218304000Y-127331428D02*
X218304000Y-126617142D01*
X218732571Y-127474285D02*
X217232571Y-126974285D01*
X218732571Y-126474285D01*
X218732571Y-125331428D02*
X217232571Y-125331428D01*
X218661142Y-125331428D02*
X218732571Y-125474285D01*
X218732571Y-125760000D01*
X218661142Y-125902857D01*
X218589714Y-125974285D01*
X218446857Y-126045714D01*
X218018285Y-126045714D01*
X217875428Y-125974285D01*
X217804000Y-125902857D01*
X217732571Y-125760000D01*
X217732571Y-125474285D01*
X217804000Y-125331428D01*
X218732571Y-123974285D02*
X217232571Y-123974285D01*
X218661142Y-123974285D02*
X218732571Y-124117142D01*
X218732571Y-124402857D01*
X218661142Y-124545714D01*
X218589714Y-124617142D01*
X218446857Y-124688571D01*
X218018285Y-124688571D01*
X217875428Y-124617142D01*
X217804000Y-124545714D01*
X217732571Y-124402857D01*
X217732571Y-124117142D01*
X217804000Y-123974285D01*
X218732571Y-123260000D02*
X217732571Y-123260000D01*
X218018285Y-123260000D02*
X217875428Y-123188571D01*
X217804000Y-123117142D01*
X217732571Y-122974285D01*
X217732571Y-122831428D01*
X218661142Y-121760000D02*
X218732571Y-121902857D01*
X218732571Y-122188571D01*
X218661142Y-122331428D01*
X218518285Y-122402857D01*
X217946857Y-122402857D01*
X217804000Y-122331428D01*
X217732571Y-122188571D01*
X217732571Y-121902857D01*
X217804000Y-121760000D01*
X217946857Y-121688571D01*
X218089714Y-121688571D01*
X218232571Y-122402857D01*
X218661142Y-121117142D02*
X218732571Y-120974285D01*
X218732571Y-120688571D01*
X218661142Y-120545714D01*
X218518285Y-120474285D01*
X218446857Y-120474285D01*
X218304000Y-120545714D01*
X218232571Y-120688571D01*
X218232571Y-120902857D01*
X218161142Y-121045714D01*
X218018285Y-121117142D01*
X217946857Y-121117142D01*
X217804000Y-121045714D01*
X217732571Y-120902857D01*
X217732571Y-120688571D01*
X217804000Y-120545714D01*
X218661142Y-119902857D02*
X218732571Y-119760000D01*
X218732571Y-119474285D01*
X218661142Y-119331428D01*
X218518285Y-119260000D01*
X218446857Y-119260000D01*
X218304000Y-119331428D01*
X218232571Y-119474285D01*
X218232571Y-119688571D01*
X218161142Y-119831428D01*
X218018285Y-119902857D01*
X217946857Y-119902857D01*
X217804000Y-119831428D01*
X217732571Y-119688571D01*
X217732571Y-119474285D01*
X217804000Y-119331428D01*
X218732571Y-117474285D02*
X217232571Y-117474285D01*
X217232571Y-117117142D01*
X217304000Y-116902857D01*
X217446857Y-116760000D01*
X217589714Y-116688571D01*
X217875428Y-116617142D01*
X218089714Y-116617142D01*
X218375428Y-116688571D01*
X218518285Y-116760000D01*
X218661142Y-116902857D01*
X218732571Y-117117142D01*
X218732571Y-117474285D01*
X218661142Y-115402857D02*
X218732571Y-115545714D01*
X218732571Y-115831428D01*
X218661142Y-115974285D01*
X218518285Y-116045714D01*
X217946857Y-116045714D01*
X217804000Y-115974285D01*
X217732571Y-115831428D01*
X217732571Y-115545714D01*
X217804000Y-115402857D01*
X217946857Y-115331428D01*
X218089714Y-115331428D01*
X218232571Y-116045714D01*
X218661142Y-114045714D02*
X218732571Y-114188571D01*
X218732571Y-114474285D01*
X218661142Y-114617142D01*
X218589714Y-114688571D01*
X218446857Y-114760000D01*
X218018285Y-114760000D01*
X217875428Y-114688571D01*
X217804000Y-114617142D01*
X217732571Y-114474285D01*
X217732571Y-114188571D01*
X217804000Y-114045714D01*
X218732571Y-113188571D02*
X218661142Y-113331428D01*
X218589714Y-113402857D01*
X218446857Y-113474285D01*
X218018285Y-113474285D01*
X217875428Y-113402857D01*
X217804000Y-113331428D01*
X217732571Y-113188571D01*
X217732571Y-112974285D01*
X217804000Y-112831428D01*
X217875428Y-112760000D01*
X218018285Y-112688571D01*
X218446857Y-112688571D01*
X218589714Y-112760000D01*
X218661142Y-112831428D01*
X218732571Y-112974285D01*
X218732571Y-113188571D01*
X218732571Y-111402857D02*
X217232571Y-111402857D01*
X218661142Y-111402857D02*
X218732571Y-111545714D01*
X218732571Y-111831428D01*
X218661142Y-111974285D01*
X218589714Y-112045714D01*
X218446857Y-112117142D01*
X218018285Y-112117142D01*
X217875428Y-112045714D01*
X217804000Y-111974285D01*
X217732571Y-111831428D01*
X217732571Y-111545714D01*
X217804000Y-111402857D01*
X218732571Y-110688571D02*
X217732571Y-110688571D01*
X217232571Y-110688571D02*
X217304000Y-110760000D01*
X217375428Y-110688571D01*
X217304000Y-110617142D01*
X217232571Y-110688571D01*
X217375428Y-110688571D01*
X217732571Y-109974285D02*
X218732571Y-109974285D01*
X217875428Y-109974285D02*
X217804000Y-109902857D01*
X217732571Y-109760000D01*
X217732571Y-109545714D01*
X217804000Y-109402857D01*
X217946857Y-109331428D01*
X218732571Y-109331428D01*
X217732571Y-107974285D02*
X218946857Y-107974285D01*
X219089714Y-108045714D01*
X219161142Y-108117142D01*
X219232571Y-108260000D01*
X219232571Y-108474285D01*
X219161142Y-108617142D01*
X218661142Y-107974285D02*
X218732571Y-108117142D01*
X218732571Y-108402857D01*
X218661142Y-108545714D01*
X218589714Y-108617142D01*
X218446857Y-108688571D01*
X218018285Y-108688571D01*
X217875428Y-108617142D01*
X217804000Y-108545714D01*
X217732571Y-108402857D01*
X217732571Y-108117142D01*
X217804000Y-107974285D01*
X221282571Y-146545714D02*
X220568285Y-147045714D01*
X221282571Y-147402857D02*
X219782571Y-147402857D01*
X219782571Y-146831428D01*
X219854000Y-146688571D01*
X219925428Y-146617142D01*
X220068285Y-146545714D01*
X220282571Y-146545714D01*
X220425428Y-146617142D01*
X220496857Y-146688571D01*
X220568285Y-146831428D01*
X220568285Y-147402857D01*
X221211142Y-145331428D02*
X221282571Y-145474285D01*
X221282571Y-145760000D01*
X221211142Y-145902857D01*
X221068285Y-145974285D01*
X220496857Y-145974285D01*
X220354000Y-145902857D01*
X220282571Y-145760000D01*
X220282571Y-145474285D01*
X220354000Y-145331428D01*
X220496857Y-145260000D01*
X220639714Y-145260000D01*
X220782571Y-145974285D01*
X220282571Y-144760000D02*
X221282571Y-144402857D01*
X220282571Y-144045714D01*
X220854000Y-142402857D02*
X220854000Y-141688571D01*
X221282571Y-142545714D02*
X219782571Y-142045714D01*
X221282571Y-141545714D01*
X220854000Y-139974285D02*
X220854000Y-139260000D01*
X221282571Y-140117142D02*
X219782571Y-139617142D01*
X221282571Y-139117142D01*
X219782571Y-138188571D02*
X220854000Y-138188571D01*
X221068285Y-138260000D01*
X221211142Y-138402857D01*
X221282571Y-138617142D01*
X221282571Y-138760000D01*
X221211142Y-137545714D02*
X221282571Y-137331428D01*
X221282571Y-136974285D01*
X221211142Y-136831428D01*
X221139714Y-136760000D01*
X220996857Y-136688571D01*
X220854000Y-136688571D01*
X220711142Y-136760000D01*
X220639714Y-136831428D01*
X220568285Y-136974285D01*
X220496857Y-137260000D01*
X220425428Y-137402857D01*
X220354000Y-137474285D01*
X220211142Y-137545714D01*
X220068285Y-137545714D01*
X219925428Y-137474285D01*
X219854000Y-137402857D01*
X219782571Y-137260000D01*
X219782571Y-136902857D01*
X219854000Y-136688571D01*
X219782571Y-134617142D02*
X219782571Y-134474285D01*
X219854000Y-134331428D01*
X219925428Y-134260000D01*
X220068285Y-134188571D01*
X220354000Y-134117142D01*
X220711142Y-134117142D01*
X220996857Y-134188571D01*
X221139714Y-134260000D01*
X221211142Y-134331428D01*
X221282571Y-134474285D01*
X221282571Y-134617142D01*
X221211142Y-134760000D01*
X221139714Y-134831428D01*
X220996857Y-134902857D01*
X220711142Y-134974285D01*
X220354000Y-134974285D01*
X220068285Y-134902857D01*
X219925428Y-134831428D01*
X219854000Y-134760000D01*
X219782571Y-134617142D01*
X219782571Y-132831428D02*
X219782571Y-133117142D01*
X219854000Y-133260000D01*
X219925428Y-133331428D01*
X220139714Y-133474285D01*
X220425428Y-133545714D01*
X220996857Y-133545714D01*
X221139714Y-133474285D01*
X221211142Y-133402857D01*
X221282571Y-133260000D01*
X221282571Y-132974285D01*
X221211142Y-132831428D01*
X221139714Y-132760000D01*
X220996857Y-132688571D01*
X220639714Y-132688571D01*
X220496857Y-132760000D01*
X220425428Y-132831428D01*
X220354000Y-132974285D01*
X220354000Y-133260000D01*
X220425428Y-133402857D01*
X220496857Y-133474285D01*
X220639714Y-133545714D01*
X219711142Y-130974285D02*
X221639714Y-132260000D01*
X219925428Y-130545714D02*
X219854000Y-130474285D01*
X219782571Y-130331428D01*
X219782571Y-129974285D01*
X219854000Y-129831428D01*
X219925428Y-129760000D01*
X220068285Y-129688571D01*
X220211142Y-129688571D01*
X220425428Y-129760000D01*
X221282571Y-130617142D01*
X221282571Y-129688571D01*
X219782571Y-128760000D02*
X219782571Y-128617142D01*
X219854000Y-128474285D01*
X219925428Y-128402857D01*
X220068285Y-128331428D01*
X220354000Y-128260000D01*
X220711142Y-128260000D01*
X220996857Y-128331428D01*
X221139714Y-128402857D01*
X221211142Y-128474285D01*
X221282571Y-128617142D01*
X221282571Y-128760000D01*
X221211142Y-128902857D01*
X221139714Y-128974285D01*
X220996857Y-129045714D01*
X220711142Y-129117142D01*
X220354000Y-129117142D01*
X220068285Y-129045714D01*
X219925428Y-128974285D01*
X219854000Y-128902857D01*
X219782571Y-128760000D01*
X219925428Y-127688571D02*
X219854000Y-127617142D01*
X219782571Y-127474285D01*
X219782571Y-127117142D01*
X219854000Y-126974285D01*
X219925428Y-126902857D01*
X220068285Y-126831428D01*
X220211142Y-126831428D01*
X220425428Y-126902857D01*
X221282571Y-127760000D01*
X221282571Y-126831428D01*
X219782571Y-125902857D02*
X219782571Y-125760000D01*
X219854000Y-125617142D01*
X219925428Y-125545714D01*
X220068285Y-125474285D01*
X220354000Y-125402857D01*
X220711142Y-125402857D01*
X220996857Y-125474285D01*
X221139714Y-125545714D01*
X221211142Y-125617142D01*
X221282571Y-125760000D01*
X221282571Y-125902857D01*
X221211142Y-126045714D01*
X221139714Y-126117142D01*
X220996857Y-126188571D01*
X220711142Y-126260000D01*
X220354000Y-126260000D01*
X220068285Y-126188571D01*
X219925428Y-126117142D01*
X219854000Y-126045714D01*
X219782571Y-125902857D01*
D11*
X121784333Y-50558047D02*
X121784333Y-53058047D01*
X120117666Y-53058047D02*
X119641476Y-53058047D01*
X119403380Y-52939000D01*
X119165285Y-52700904D01*
X119046238Y-52224714D01*
X119046238Y-51391380D01*
X119165285Y-50915190D01*
X119403380Y-50677095D01*
X119641476Y-50558047D01*
X120117666Y-50558047D01*
X120355761Y-50677095D01*
X120593857Y-50915190D01*
X120712904Y-51391380D01*
X120712904Y-52224714D01*
X120593857Y-52700904D01*
X120355761Y-52939000D01*
X120117666Y-53058047D01*
X118093857Y-50677095D02*
X117736714Y-50558047D01*
X117141476Y-50558047D01*
X116903380Y-50677095D01*
X116784333Y-50796142D01*
X116665285Y-51034238D01*
X116665285Y-51272333D01*
X116784333Y-51510428D01*
X116903380Y-51629476D01*
X117141476Y-51748523D01*
X117617666Y-51867571D01*
X117855761Y-51986619D01*
X117974809Y-52105666D01*
X118093857Y-52343761D01*
X118093857Y-52581857D01*
X117974809Y-52819952D01*
X117855761Y-52939000D01*
X117617666Y-53058047D01*
X117022428Y-53058047D01*
X116665285Y-52939000D01*
X115593857Y-51867571D02*
X114760523Y-51867571D01*
X114403380Y-50558047D02*
X115593857Y-50558047D01*
X115593857Y-53058047D01*
X114403380Y-53058047D01*
X112141476Y-50558047D02*
X113331952Y-50558047D01*
X113331952Y-53058047D01*
X110831952Y-53058047D02*
X110593857Y-53058047D01*
X110355761Y-52939000D01*
X110236714Y-52819952D01*
X110117666Y-52581857D01*
X109998619Y-52105666D01*
X109998619Y-51510428D01*
X110117666Y-51034238D01*
X110236714Y-50796142D01*
X110355761Y-50677095D01*
X110593857Y-50558047D01*
X110831952Y-50558047D01*
X111070047Y-50677095D01*
X111189095Y-50796142D01*
X111308142Y-51034238D01*
X111427190Y-51510428D01*
X111427190Y-52105666D01*
X111308142Y-52581857D01*
X111189095Y-52819952D01*
X111070047Y-52939000D01*
X110831952Y-53058047D01*
X191126333Y-50558047D02*
X191126333Y-53058047D01*
X189459666Y-53058047D02*
X188983476Y-53058047D01*
X188745380Y-52939000D01*
X188507285Y-52700904D01*
X188388238Y-52224714D01*
X188388238Y-51391380D01*
X188507285Y-50915190D01*
X188745380Y-50677095D01*
X188983476Y-50558047D01*
X189459666Y-50558047D01*
X189697761Y-50677095D01*
X189935857Y-50915190D01*
X190054904Y-51391380D01*
X190054904Y-52224714D01*
X189935857Y-52700904D01*
X189697761Y-52939000D01*
X189459666Y-53058047D01*
X187435857Y-50677095D02*
X187078714Y-50558047D01*
X186483476Y-50558047D01*
X186245380Y-50677095D01*
X186126333Y-50796142D01*
X186007285Y-51034238D01*
X186007285Y-51272333D01*
X186126333Y-51510428D01*
X186245380Y-51629476D01*
X186483476Y-51748523D01*
X186959666Y-51867571D01*
X187197761Y-51986619D01*
X187316809Y-52105666D01*
X187435857Y-52343761D01*
X187435857Y-52581857D01*
X187316809Y-52819952D01*
X187197761Y-52939000D01*
X186959666Y-53058047D01*
X186364428Y-53058047D01*
X186007285Y-52939000D01*
X184935857Y-51867571D02*
X184102523Y-51867571D01*
X183745380Y-50558047D02*
X184935857Y-50558047D01*
X184935857Y-53058047D01*
X183745380Y-53058047D01*
X181483476Y-50558047D02*
X182673952Y-50558047D01*
X182673952Y-53058047D01*
X180888238Y-53058047D02*
X179221571Y-53058047D01*
X180293000Y-50558047D01*
D12*
G04 #@! TO.C,C7*
X136074000Y-69385000D02*
X136074000Y-64045000D01*
X139516000Y-69385000D02*
X139516000Y-64045000D01*
X136074000Y-69385000D02*
X136740000Y-69385000D01*
X138850000Y-69385000D02*
X139516000Y-69385000D01*
X136074000Y-64045000D02*
X136740000Y-64045000D01*
X138850000Y-64045000D02*
X139516000Y-64045000D01*
G04 #@! TO.C,J1*
X191397000Y-133159000D02*
X191897000Y-134159000D01*
X192397000Y-133159000D02*
X191397000Y-133159000D01*
X191897000Y-134159000D02*
X192397000Y-133159000D01*
X107947000Y-139779000D02*
X197107000Y-139779000D01*
X107947000Y-148899000D02*
X107947000Y-139779000D01*
X197107000Y-148899000D02*
X107947000Y-148899000D01*
X197107000Y-139779000D02*
X197107000Y-148899000D01*
X150477000Y-139779000D02*
X150477000Y-148899000D01*
X154577000Y-139779000D02*
X154577000Y-148899000D01*
G04 #@! TO.C,RN1*
X126368000Y-51435000D02*
X123568000Y-51435000D01*
X126368000Y-71925000D02*
X126368000Y-48725000D01*
X123568000Y-71925000D02*
X126368000Y-71925000D01*
X123568000Y-48725000D02*
X123568000Y-71925000D01*
X126368000Y-48725000D02*
X123568000Y-48725000D01*
G04 #@! TO.C,D1*
X126946000Y-46489000D02*
X126946000Y-55689000D01*
X126946000Y-55689000D02*
X151946000Y-55689000D01*
X151946000Y-55689000D02*
X151946000Y-46489000D01*
X151946000Y-46489000D02*
X126946000Y-46489000D01*
G04 #@! TO.C,D2*
X177981000Y-46489000D02*
X152981000Y-46489000D01*
X177981000Y-55689000D02*
X177981000Y-46489000D01*
X152981000Y-55689000D02*
X177981000Y-55689000D01*
X152981000Y-46489000D02*
X152981000Y-55689000D01*
G04 #@! TO.C,C1*
X150077000Y-113196000D02*
X150077000Y-113862000D01*
X150077000Y-110420000D02*
X150077000Y-111086000D01*
X144737000Y-113196000D02*
X144737000Y-113862000D01*
X144737000Y-110420000D02*
X144737000Y-111086000D01*
X144737000Y-113862000D02*
X150077000Y-113862000D01*
X144737000Y-110420000D02*
X150077000Y-110420000D01*
G04 #@! TO.C,C2*
X161456000Y-121195000D02*
X162122000Y-121195000D01*
X158680000Y-121195000D02*
X159346000Y-121195000D01*
X161456000Y-126535000D02*
X162122000Y-126535000D01*
X158680000Y-126535000D02*
X159346000Y-126535000D01*
X162122000Y-126535000D02*
X162122000Y-121195000D01*
X158680000Y-126535000D02*
X158680000Y-121195000D01*
G04 #@! TO.C,C3*
X121877000Y-79178000D02*
X127217000Y-79178000D01*
X121877000Y-82620000D02*
X127217000Y-82620000D01*
X121877000Y-79178000D02*
X121877000Y-79844000D01*
X121877000Y-81954000D02*
X121877000Y-82620000D01*
X127217000Y-79178000D02*
X127217000Y-79844000D01*
X127217000Y-81954000D02*
X127217000Y-82620000D01*
G04 #@! TO.C,U3*
X162821000Y-118939000D02*
X162821000Y-129219000D01*
X180841000Y-118939000D02*
X162821000Y-118939000D01*
X180841000Y-129219000D02*
X180841000Y-118939000D01*
X162821000Y-129219000D02*
X180841000Y-129219000D01*
X162881000Y-121429000D02*
X162881000Y-123079000D01*
X180781000Y-121429000D02*
X162881000Y-121429000D01*
X180781000Y-126729000D02*
X180781000Y-121429000D01*
X162881000Y-126729000D02*
X180781000Y-126729000D01*
X162881000Y-125079000D02*
X162881000Y-126729000D01*
X162881000Y-123079000D02*
G75*
G02*
X162881000Y-125079000I0J-1000000D01*
G01*
G04 #@! TO.C,U4*
X129727000Y-83319000D02*
X119447000Y-83319000D01*
X129727000Y-103879000D02*
X129727000Y-83319000D01*
X119447000Y-103879000D02*
X129727000Y-103879000D01*
X119447000Y-83319000D02*
X119447000Y-103879000D01*
X127237000Y-83379000D02*
X125587000Y-83379000D01*
X127237000Y-103819000D02*
X127237000Y-83379000D01*
X121937000Y-103819000D02*
X127237000Y-103819000D01*
X121937000Y-83379000D02*
X121937000Y-103819000D01*
X123587000Y-83379000D02*
X121937000Y-83379000D01*
X125587000Y-83379000D02*
G75*
G02*
X123587000Y-83379000I-1000000J0D01*
G01*
G04 #@! TO.C,U5*
X140215000Y-61662000D02*
X140215000Y-71942000D01*
X165855000Y-61662000D02*
X140215000Y-61662000D01*
X165855000Y-71942000D02*
X165855000Y-61662000D01*
X140215000Y-71942000D02*
X165855000Y-71942000D01*
X140275000Y-64152000D02*
X140275000Y-65802000D01*
X165795000Y-64152000D02*
X140275000Y-64152000D01*
X165795000Y-69452000D02*
X165795000Y-64152000D01*
X140275000Y-69452000D02*
X165795000Y-69452000D01*
X140275000Y-67802000D02*
X140275000Y-69452000D01*
X140275000Y-65802000D02*
G75*
G02*
X140275000Y-67802000I0J-1000000D01*
G01*
G04 #@! TO.C,U1*
X146447000Y-114621000D02*
X144797000Y-114621000D01*
X144797000Y-114621000D02*
X144797000Y-132521000D01*
X144797000Y-132521000D02*
X150097000Y-132521000D01*
X150097000Y-132521000D02*
X150097000Y-114621000D01*
X150097000Y-114621000D02*
X148447000Y-114621000D01*
X142307000Y-114561000D02*
X142307000Y-132581000D01*
X142307000Y-132581000D02*
X152587000Y-132581000D01*
X152587000Y-132581000D02*
X152587000Y-114561000D01*
X152587000Y-114561000D02*
X142307000Y-114561000D01*
X148447000Y-114621000D02*
G75*
G02*
X146447000Y-114621000I-1000000J0D01*
G01*
G04 #@! TO.C,C7*
D13*
X137628333Y-62841142D02*
X137580714Y-62888761D01*
X137437857Y-62936380D01*
X137342619Y-62936380D01*
X137199761Y-62888761D01*
X137104523Y-62793523D01*
X137056904Y-62698285D01*
X137009285Y-62507809D01*
X137009285Y-62364952D01*
X137056904Y-62174476D01*
X137104523Y-62079238D01*
X137199761Y-61984000D01*
X137342619Y-61936380D01*
X137437857Y-61936380D01*
X137580714Y-61984000D01*
X137628333Y-62031619D01*
X137961666Y-61936380D02*
X138628333Y-61936380D01*
X138199761Y-62936380D01*
G04 #@! TO.C,J1*
X152193666Y-132929380D02*
X152193666Y-133643666D01*
X152146047Y-133786523D01*
X152050809Y-133881761D01*
X151907952Y-133929380D01*
X151812714Y-133929380D01*
X153193666Y-133929380D02*
X152622238Y-133929380D01*
X152907952Y-133929380D02*
X152907952Y-132929380D01*
X152812714Y-133072238D01*
X152717476Y-133167476D01*
X152622238Y-133215095D01*
G04 #@! TO.C,RN1*
X127820380Y-61015476D02*
X127344190Y-61348809D01*
X127820380Y-61586904D02*
X126820380Y-61586904D01*
X126820380Y-61205952D01*
X126868000Y-61110714D01*
X126915619Y-61063095D01*
X127010857Y-61015476D01*
X127153714Y-61015476D01*
X127248952Y-61063095D01*
X127296571Y-61110714D01*
X127344190Y-61205952D01*
X127344190Y-61586904D01*
X127820380Y-60586904D02*
X126820380Y-60586904D01*
X127820380Y-60015476D01*
X126820380Y-60015476D01*
X127820380Y-59015476D02*
X127820380Y-59586904D01*
X127820380Y-59301190D02*
X126820380Y-59301190D01*
X126963238Y-59396428D01*
X127058476Y-59491666D01*
X127106095Y-59586904D01*
G04 #@! TO.C,D1*
X138707904Y-57141380D02*
X138707904Y-56141380D01*
X138946000Y-56141380D01*
X139088857Y-56189000D01*
X139184095Y-56284238D01*
X139231714Y-56379476D01*
X139279333Y-56569952D01*
X139279333Y-56712809D01*
X139231714Y-56903285D01*
X139184095Y-56998523D01*
X139088857Y-57093761D01*
X138946000Y-57141380D01*
X138707904Y-57141380D01*
X140231714Y-57141380D02*
X139660285Y-57141380D01*
X139946000Y-57141380D02*
X139946000Y-56141380D01*
X139850761Y-56284238D01*
X139755523Y-56379476D01*
X139660285Y-56427095D01*
G04 #@! TO.C,D2*
X164742904Y-57141380D02*
X164742904Y-56141380D01*
X164981000Y-56141380D01*
X165123857Y-56189000D01*
X165219095Y-56284238D01*
X165266714Y-56379476D01*
X165314333Y-56569952D01*
X165314333Y-56712809D01*
X165266714Y-56903285D01*
X165219095Y-56998523D01*
X165123857Y-57093761D01*
X164981000Y-57141380D01*
X164742904Y-57141380D01*
X165695285Y-56236619D02*
X165742904Y-56189000D01*
X165838142Y-56141380D01*
X166076238Y-56141380D01*
X166171476Y-56189000D01*
X166219095Y-56236619D01*
X166266714Y-56331857D01*
X166266714Y-56427095D01*
X166219095Y-56569952D01*
X165647666Y-57141380D01*
X166266714Y-57141380D01*
G04 #@! TO.C,C1*
X147240333Y-109958142D02*
X147192714Y-110005761D01*
X147049857Y-110053380D01*
X146954619Y-110053380D01*
X146811761Y-110005761D01*
X146716523Y-109910523D01*
X146668904Y-109815285D01*
X146621285Y-109624809D01*
X146621285Y-109481952D01*
X146668904Y-109291476D01*
X146716523Y-109196238D01*
X146811761Y-109101000D01*
X146954619Y-109053380D01*
X147049857Y-109053380D01*
X147192714Y-109101000D01*
X147240333Y-109148619D01*
X148192714Y-110053380D02*
X147621285Y-110053380D01*
X147907000Y-110053380D02*
X147907000Y-109053380D01*
X147811761Y-109196238D01*
X147716523Y-109291476D01*
X147621285Y-109339095D01*
G04 #@! TO.C,C2*
X160234333Y-119864142D02*
X160186714Y-119911761D01*
X160043857Y-119959380D01*
X159948619Y-119959380D01*
X159805761Y-119911761D01*
X159710523Y-119816523D01*
X159662904Y-119721285D01*
X159615285Y-119530809D01*
X159615285Y-119387952D01*
X159662904Y-119197476D01*
X159710523Y-119102238D01*
X159805761Y-119007000D01*
X159948619Y-118959380D01*
X160043857Y-118959380D01*
X160186714Y-119007000D01*
X160234333Y-119054619D01*
X160615285Y-119054619D02*
X160662904Y-119007000D01*
X160758142Y-118959380D01*
X160996238Y-118959380D01*
X161091476Y-119007000D01*
X161139095Y-119054619D01*
X161186714Y-119149857D01*
X161186714Y-119245095D01*
X161139095Y-119387952D01*
X160567666Y-119959380D01*
X161186714Y-119959380D01*
G04 #@! TO.C,C3*
X124420333Y-78716142D02*
X124372714Y-78763761D01*
X124229857Y-78811380D01*
X124134619Y-78811380D01*
X123991761Y-78763761D01*
X123896523Y-78668523D01*
X123848904Y-78573285D01*
X123801285Y-78382809D01*
X123801285Y-78239952D01*
X123848904Y-78049476D01*
X123896523Y-77954238D01*
X123991761Y-77859000D01*
X124134619Y-77811380D01*
X124229857Y-77811380D01*
X124372714Y-77859000D01*
X124420333Y-77906619D01*
X124753666Y-77811380D02*
X125372714Y-77811380D01*
X125039380Y-78192333D01*
X125182238Y-78192333D01*
X125277476Y-78239952D01*
X125325095Y-78287571D01*
X125372714Y-78382809D01*
X125372714Y-78620904D01*
X125325095Y-78716142D01*
X125277476Y-78763761D01*
X125182238Y-78811380D01*
X124896523Y-78811380D01*
X124801285Y-78763761D01*
X124753666Y-78716142D01*
G04 #@! TO.C,U3*
X171069095Y-117435380D02*
X171069095Y-118244904D01*
X171116714Y-118340142D01*
X171164333Y-118387761D01*
X171259571Y-118435380D01*
X171450047Y-118435380D01*
X171545285Y-118387761D01*
X171592904Y-118340142D01*
X171640523Y-118244904D01*
X171640523Y-117435380D01*
X172021476Y-117435380D02*
X172640523Y-117435380D01*
X172307190Y-117816333D01*
X172450047Y-117816333D01*
X172545285Y-117863952D01*
X172592904Y-117911571D01*
X172640523Y-118006809D01*
X172640523Y-118244904D01*
X172592904Y-118340142D01*
X172545285Y-118387761D01*
X172450047Y-118435380D01*
X172164333Y-118435380D01*
X172069095Y-118387761D01*
X172021476Y-118340142D01*
G04 #@! TO.C,U4*
X130389380Y-94360904D02*
X131198904Y-94360904D01*
X131294142Y-94313285D01*
X131341761Y-94265666D01*
X131389380Y-94170428D01*
X131389380Y-93979952D01*
X131341761Y-93884714D01*
X131294142Y-93837095D01*
X131198904Y-93789476D01*
X130389380Y-93789476D01*
X130722714Y-92884714D02*
X131389380Y-92884714D01*
X130341761Y-93122809D02*
X131056047Y-93360904D01*
X131056047Y-92741857D01*
G04 #@! TO.C,U5*
X152273095Y-60158380D02*
X152273095Y-60967904D01*
X152320714Y-61063142D01*
X152368333Y-61110761D01*
X152463571Y-61158380D01*
X152654047Y-61158380D01*
X152749285Y-61110761D01*
X152796904Y-61063142D01*
X152844523Y-60967904D01*
X152844523Y-60158380D01*
X153796904Y-60158380D02*
X153320714Y-60158380D01*
X153273095Y-60634571D01*
X153320714Y-60586952D01*
X153415952Y-60539333D01*
X153654047Y-60539333D01*
X153749285Y-60586952D01*
X153796904Y-60634571D01*
X153844523Y-60729809D01*
X153844523Y-60967904D01*
X153796904Y-61063142D01*
X153749285Y-61110761D01*
X153654047Y-61158380D01*
X153415952Y-61158380D01*
X153320714Y-61110761D01*
X153273095Y-61063142D01*
G04 #@! TO.C,U1*
X140549380Y-124332904D02*
X141358904Y-124332904D01*
X141454142Y-124285285D01*
X141501761Y-124237666D01*
X141549380Y-124142428D01*
X141549380Y-123951952D01*
X141501761Y-123856714D01*
X141454142Y-123809095D01*
X141358904Y-123761476D01*
X140549380Y-123761476D01*
X141549380Y-122761476D02*
X141549380Y-123332904D01*
X141549380Y-123047190D02*
X140549380Y-123047190D01*
X140692238Y-123142428D01*
X140787476Y-123237666D01*
X140835095Y-123332904D01*
G04 #@! TD*
M02*
