M48
; DRILL file {KiCad 5.1.6-c6e7f7d~87~ubuntu18.04.1} date Wed Aug  5 19:48:41 2020
; FORMAT={-:-/ absolute / inch / decimal}
; #@! TF.CreationDate,2020-08-05T19:48:41+12:00
; #@! TF.GenerationSoftware,Kicad,Pcbnew,5.1.6-c6e7f7d~87~ubuntu18.04.1
FMAT,2
INCH
T1C0.0150
T2C0.0315
T3C0.0354
T4C0.0394
%
G90
G05
T1
X4.985Y-4.4011
X5.085Y-4.4411
X5.185Y-4.4811
X5.285Y-4.5211
X5.385Y-4.5611
X5.485Y-4.6011
X5.585Y-4.6411
X5.685Y-4.6811
X6.125Y-4.5211
X6.225Y-4.4811
X6.325Y-4.4411
X6.425Y-4.4011
X7.105Y-4.6811
X7.205Y-4.6411
X7.305Y-4.6011
X7.405Y-4.5611
T2
X7.745Y-4.0285
X7.745Y-4.2254
X5.925Y-3.975
X5.925Y-4.275
X6.025Y-3.975
X6.025Y-4.275
X6.125Y-3.975
X6.125Y-4.275
X6.225Y-3.975
X6.225Y-4.275
X6.325Y-3.975
X6.325Y-4.275
X6.425Y-3.975
X6.425Y-4.275
X6.525Y-3.975
X6.525Y-4.275
X6.625Y-3.975
X6.625Y-4.275
X6.765Y-4.025
X6.765Y-4.2219
X6.875Y-4.825
X6.875Y-5.0219
X4.885Y-3.975
X4.885Y-4.275
X4.985Y-3.975
X4.985Y-4.275
X5.085Y-3.975
X5.085Y-4.275
X5.185Y-3.975
X5.185Y-4.275
X5.285Y-3.975
X5.285Y-4.275
X5.385Y-3.975
X5.385Y-4.275
X5.485Y-3.975
X5.485Y-4.275
X5.585Y-3.975
X5.585Y-4.275
X5.685Y-3.975
X5.685Y-4.275
X5.785Y-3.975
X5.785Y-4.275
X4.885Y-4.775
X4.885Y-5.075
X4.985Y-4.775
X4.985Y-5.075
X5.085Y-4.775
X5.085Y-5.075
X5.185Y-4.775
X5.185Y-5.075
X5.285Y-4.775
X5.285Y-5.075
X5.385Y-4.775
X5.385Y-5.075
X5.485Y-4.775
X5.485Y-5.075
X5.835Y-4.775
X5.835Y-5.075
X5.935Y-4.775
X5.935Y-5.075
X6.035Y-4.775
X6.035Y-5.075
X6.135Y-4.775
X6.135Y-5.075
X6.235Y-4.775
X6.235Y-5.075
X6.335Y-4.775
X6.335Y-5.075
X6.435Y-4.775
X6.435Y-5.075
X6.535Y-4.775
X6.535Y-5.075
X6.635Y-4.775
X6.635Y-5.075
X6.735Y-4.775
X6.735Y-5.075
X5.6225Y-4.825
X5.6225Y-5.0219
X6.905Y-3.975
X6.905Y-4.275
X7.005Y-3.975
X7.005Y-4.275
X7.105Y-3.975
X7.105Y-4.275
X7.205Y-3.975
X7.205Y-4.275
X7.305Y-3.975
X7.305Y-4.275
X7.405Y-3.975
X7.405Y-4.275
X7.505Y-3.975
X7.505Y-4.275
X7.605Y-3.975
X7.605Y-4.275
X5.535Y-3.805
X5.635Y-3.805
X5.735Y-3.805
X5.835Y-3.805
X5.935Y-3.805
X6.035Y-3.805
X6.135Y-3.805
X6.235Y-3.805
X6.335Y-3.805
X4.745Y-4.0242
X4.745Y-4.2211
X7.165Y-4.775
X7.165Y-5.075
X7.265Y-4.775
X7.265Y-5.075
X7.365Y-4.775
X7.365Y-5.075
X7.465Y-4.775
X7.465Y-5.075
X7.565Y-4.775
X7.565Y-5.075
X7.665Y-4.775
X7.665Y-5.075
X7.765Y-4.775
X7.765Y-5.075
X7.865Y-4.775
X7.865Y-5.075
X7.965Y-4.775
X7.965Y-5.075
X8.065Y-4.775
X8.065Y-5.075
X8.21Y-4.825
X8.21Y-5.0219
T3
X6.09Y-3.51
X6.19Y-3.51
X6.34Y-3.51
X6.44Y-3.51
X6.59Y-3.51
X6.69Y-3.51
X6.84Y-3.51
X6.94Y-3.51
X5.065Y-3.51
X5.165Y-3.51
X5.315Y-3.51
X5.415Y-3.51
X5.565Y-3.51
X5.665Y-3.51
X5.815Y-3.51
X5.915Y-3.51
T4
X4.455Y-5.335
X4.455Y-5.435
X4.555Y-5.335
X4.555Y-5.435
X4.655Y-5.335
X4.655Y-5.435
X4.755Y-5.335
X4.755Y-5.435
X4.855Y-5.335
X4.855Y-5.435
X4.955Y-5.335
X4.955Y-5.435
X5.055Y-5.335
X5.055Y-5.435
X5.155Y-5.335
X5.155Y-5.435
X5.255Y-5.335
X5.255Y-5.435
X5.355Y-5.335
X5.355Y-5.435
X5.455Y-5.335
X5.455Y-5.435
X5.555Y-5.335
X5.555Y-5.435
X5.655Y-5.335
X5.655Y-5.435
X5.755Y-5.335
X5.755Y-5.435
X5.855Y-5.335
X5.855Y-5.435
X5.955Y-5.335
X5.955Y-5.435
X6.055Y-5.335
X6.055Y-5.435
X6.155Y-5.335
X6.155Y-5.435
X6.255Y-5.335
X6.255Y-5.435
X6.355Y-5.335
X6.355Y-5.435
X6.455Y-5.335
X6.455Y-5.435
X6.555Y-5.335
X6.555Y-5.435
X6.655Y-5.335
X6.655Y-5.435
X6.755Y-5.335
X6.755Y-5.435
X6.855Y-5.335
X6.855Y-5.435
X6.955Y-5.335
X6.955Y-5.435
X7.055Y-5.335
X7.055Y-5.435
X7.155Y-5.335
X7.155Y-5.435
X7.255Y-5.335
X7.255Y-5.435
X7.355Y-5.335
X7.355Y-5.435
X7.455Y-5.335
X7.455Y-5.435
X7.555Y-5.335
X7.555Y-5.435
T0
M30
