%TF.GenerationSoftware,KiCad,Pcbnew,5.1.6-c6e7f7d~87~ubuntu18.04.1*%
%TF.CreationDate,2020-08-05T19:50:32+12:00*%
%TF.ProjectId,M1 Program Counter,4d312050-726f-4677-9261-6d20436f756e,rev?*%
%TF.SameCoordinates,Original*%
%TF.FileFunction,Legend,Top*%
%TF.FilePolarity,Positive*%
%FSLAX46Y46*%
G04 Gerber Fmt 4.6, Leading zero omitted, Abs format (unit mm)*
G04 Created by KiCad (PCBNEW 5.1.6-c6e7f7d~87~ubuntu18.04.1) date 2020-08-05 19:50:32*
%MOMM*%
%LPD*%
G01*
G04 APERTURE LIST*
%ADD10C,0.300000*%
%ADD11C,0.500000*%
%ADD12C,0.120000*%
%ADD13C,0.150000*%
G04 APERTURE END LIST*
D10*
X210930571Y-147291857D02*
X209430571Y-147291857D01*
X210502000Y-146791857D01*
X209430571Y-146291857D01*
X210930571Y-146291857D01*
X210930571Y-144791857D02*
X210930571Y-145649000D01*
X210930571Y-145220428D02*
X209430571Y-145220428D01*
X209644857Y-145363285D01*
X209787714Y-145506142D01*
X209859142Y-145649000D01*
X210359142Y-143006142D02*
X210359142Y-141863285D01*
X210930571Y-140006142D02*
X209430571Y-140006142D01*
X209430571Y-139434714D01*
X209502000Y-139291857D01*
X209573428Y-139220428D01*
X209716285Y-139149000D01*
X209930571Y-139149000D01*
X210073428Y-139220428D01*
X210144857Y-139291857D01*
X210216285Y-139434714D01*
X210216285Y-140006142D01*
X209930571Y-137863285D02*
X211144857Y-137863285D01*
X211287714Y-137934714D01*
X211359142Y-138006142D01*
X211430571Y-138149000D01*
X211430571Y-138363285D01*
X211359142Y-138506142D01*
X210859142Y-137863285D02*
X210930571Y-138006142D01*
X210930571Y-138291857D01*
X210859142Y-138434714D01*
X210787714Y-138506142D01*
X210644857Y-138577571D01*
X210216285Y-138577571D01*
X210073428Y-138506142D01*
X210002000Y-138434714D01*
X209930571Y-138291857D01*
X209930571Y-138006142D01*
X210002000Y-137863285D01*
X210930571Y-137149000D02*
X209930571Y-137149000D01*
X210073428Y-137149000D02*
X210002000Y-137077571D01*
X209930571Y-136934714D01*
X209930571Y-136720428D01*
X210002000Y-136577571D01*
X210144857Y-136506142D01*
X210930571Y-136506142D01*
X210144857Y-136506142D02*
X210002000Y-136434714D01*
X209930571Y-136291857D01*
X209930571Y-136077571D01*
X210002000Y-135934714D01*
X210144857Y-135863285D01*
X210930571Y-135863285D01*
X210787714Y-133149000D02*
X210859142Y-133220428D01*
X210930571Y-133434714D01*
X210930571Y-133577571D01*
X210859142Y-133791857D01*
X210716285Y-133934714D01*
X210573428Y-134006142D01*
X210287714Y-134077571D01*
X210073428Y-134077571D01*
X209787714Y-134006142D01*
X209644857Y-133934714D01*
X209502000Y-133791857D01*
X209430571Y-133577571D01*
X209430571Y-133434714D01*
X209502000Y-133220428D01*
X209573428Y-133149000D01*
X209930571Y-132506142D02*
X210930571Y-132506142D01*
X210073428Y-132506142D02*
X210002000Y-132434714D01*
X209930571Y-132291857D01*
X209930571Y-132077571D01*
X210002000Y-131934714D01*
X210144857Y-131863285D01*
X210930571Y-131863285D01*
X209930571Y-131363285D02*
X209930571Y-130791857D01*
X209430571Y-131149000D02*
X210716285Y-131149000D01*
X210859142Y-131077571D01*
X210930571Y-130934714D01*
X210930571Y-130791857D01*
X210930571Y-130291857D02*
X209930571Y-130291857D01*
X210216285Y-130291857D02*
X210073428Y-130220428D01*
X210002000Y-130149000D01*
X209930571Y-130006142D01*
X209930571Y-129863285D01*
X213480571Y-146434714D02*
X212766285Y-146934714D01*
X213480571Y-147291857D02*
X211980571Y-147291857D01*
X211980571Y-146720428D01*
X212052000Y-146577571D01*
X212123428Y-146506142D01*
X212266285Y-146434714D01*
X212480571Y-146434714D01*
X212623428Y-146506142D01*
X212694857Y-146577571D01*
X212766285Y-146720428D01*
X212766285Y-147291857D01*
X213409142Y-145220428D02*
X213480571Y-145363285D01*
X213480571Y-145649000D01*
X213409142Y-145791857D01*
X213266285Y-145863285D01*
X212694857Y-145863285D01*
X212552000Y-145791857D01*
X212480571Y-145649000D01*
X212480571Y-145363285D01*
X212552000Y-145220428D01*
X212694857Y-145149000D01*
X212837714Y-145149000D01*
X212980571Y-145863285D01*
X212480571Y-144649000D02*
X213480571Y-144291857D01*
X212480571Y-143934714D01*
X213052000Y-142291857D02*
X213052000Y-141577571D01*
X213480571Y-142434714D02*
X211980571Y-141934714D01*
X213480571Y-141434714D01*
X213052000Y-139863285D02*
X213052000Y-139149000D01*
X213480571Y-140006142D02*
X211980571Y-139506142D01*
X213480571Y-139006142D01*
X211980571Y-138077571D02*
X213052000Y-138077571D01*
X213266285Y-138149000D01*
X213409142Y-138291857D01*
X213480571Y-138506142D01*
X213480571Y-138649000D01*
X213409142Y-137434714D02*
X213480571Y-137220428D01*
X213480571Y-136863285D01*
X213409142Y-136720428D01*
X213337714Y-136649000D01*
X213194857Y-136577571D01*
X213052000Y-136577571D01*
X212909142Y-136649000D01*
X212837714Y-136720428D01*
X212766285Y-136863285D01*
X212694857Y-137149000D01*
X212623428Y-137291857D01*
X212552000Y-137363285D01*
X212409142Y-137434714D01*
X212266285Y-137434714D01*
X212123428Y-137363285D01*
X212052000Y-137291857D01*
X211980571Y-137149000D01*
X211980571Y-136791857D01*
X212052000Y-136577571D01*
X211980571Y-134506142D02*
X211980571Y-134363285D01*
X212052000Y-134220428D01*
X212123428Y-134149000D01*
X212266285Y-134077571D01*
X212552000Y-134006142D01*
X212909142Y-134006142D01*
X213194857Y-134077571D01*
X213337714Y-134149000D01*
X213409142Y-134220428D01*
X213480571Y-134363285D01*
X213480571Y-134506142D01*
X213409142Y-134649000D01*
X213337714Y-134720428D01*
X213194857Y-134791857D01*
X212909142Y-134863285D01*
X212552000Y-134863285D01*
X212266285Y-134791857D01*
X212123428Y-134720428D01*
X212052000Y-134649000D01*
X211980571Y-134506142D01*
X211980571Y-132720428D02*
X211980571Y-133006142D01*
X212052000Y-133149000D01*
X212123428Y-133220428D01*
X212337714Y-133363285D01*
X212623428Y-133434714D01*
X213194857Y-133434714D01*
X213337714Y-133363285D01*
X213409142Y-133291857D01*
X213480571Y-133149000D01*
X213480571Y-132863285D01*
X213409142Y-132720428D01*
X213337714Y-132649000D01*
X213194857Y-132577571D01*
X212837714Y-132577571D01*
X212694857Y-132649000D01*
X212623428Y-132720428D01*
X212552000Y-132863285D01*
X212552000Y-133149000D01*
X212623428Y-133291857D01*
X212694857Y-133363285D01*
X212837714Y-133434714D01*
X211909142Y-130863285D02*
X213837714Y-132149000D01*
X212123428Y-130434714D02*
X212052000Y-130363285D01*
X211980571Y-130220428D01*
X211980571Y-129863285D01*
X212052000Y-129720428D01*
X212123428Y-129649000D01*
X212266285Y-129577571D01*
X212409142Y-129577571D01*
X212623428Y-129649000D01*
X213480571Y-130506142D01*
X213480571Y-129577571D01*
X211980571Y-128649000D02*
X211980571Y-128506142D01*
X212052000Y-128363285D01*
X212123428Y-128291857D01*
X212266285Y-128220428D01*
X212552000Y-128149000D01*
X212909142Y-128149000D01*
X213194857Y-128220428D01*
X213337714Y-128291857D01*
X213409142Y-128363285D01*
X213480571Y-128506142D01*
X213480571Y-128649000D01*
X213409142Y-128791857D01*
X213337714Y-128863285D01*
X213194857Y-128934714D01*
X212909142Y-129006142D01*
X212552000Y-129006142D01*
X212266285Y-128934714D01*
X212123428Y-128863285D01*
X212052000Y-128791857D01*
X211980571Y-128649000D01*
X212123428Y-127577571D02*
X212052000Y-127506142D01*
X211980571Y-127363285D01*
X211980571Y-127006142D01*
X212052000Y-126863285D01*
X212123428Y-126791857D01*
X212266285Y-126720428D01*
X212409142Y-126720428D01*
X212623428Y-126791857D01*
X213480571Y-127649000D01*
X213480571Y-126720428D01*
X211980571Y-125791857D02*
X211980571Y-125649000D01*
X212052000Y-125506142D01*
X212123428Y-125434714D01*
X212266285Y-125363285D01*
X212552000Y-125291857D01*
X212909142Y-125291857D01*
X213194857Y-125363285D01*
X213337714Y-125434714D01*
X213409142Y-125506142D01*
X213480571Y-125649000D01*
X213480571Y-125791857D01*
X213409142Y-125934714D01*
X213337714Y-126006142D01*
X213194857Y-126077571D01*
X212909142Y-126149000D01*
X212552000Y-126149000D01*
X212266285Y-126077571D01*
X212123428Y-126006142D01*
X212052000Y-125934714D01*
X211980571Y-125791857D01*
D11*
X125015238Y-85002047D02*
X125015238Y-87502047D01*
X124062857Y-87502047D01*
X123824761Y-87383000D01*
X123705714Y-87263952D01*
X123586666Y-87025857D01*
X123586666Y-86668714D01*
X123705714Y-86430619D01*
X123824761Y-86311571D01*
X124062857Y-86192523D01*
X125015238Y-86192523D01*
X121086666Y-85240142D02*
X121205714Y-85121095D01*
X121562857Y-85002047D01*
X121800952Y-85002047D01*
X122158095Y-85121095D01*
X122396190Y-85359190D01*
X122515238Y-85597285D01*
X122634285Y-86073476D01*
X122634285Y-86430619D01*
X122515238Y-86906809D01*
X122396190Y-87144904D01*
X122158095Y-87383000D01*
X121800952Y-87502047D01*
X121562857Y-87502047D01*
X121205714Y-87383000D01*
X121086666Y-87263952D01*
X119539047Y-87502047D02*
X119300952Y-87502047D01*
X119062857Y-87383000D01*
X118943809Y-87263952D01*
X118824761Y-87025857D01*
X118705714Y-86549666D01*
X118705714Y-85954428D01*
X118824761Y-85478238D01*
X118943809Y-85240142D01*
X119062857Y-85121095D01*
X119300952Y-85002047D01*
X119539047Y-85002047D01*
X119777142Y-85121095D01*
X119896190Y-85240142D01*
X120015238Y-85478238D01*
X120134285Y-85954428D01*
X120134285Y-86549666D01*
X120015238Y-87025857D01*
X119896190Y-87263952D01*
X119777142Y-87383000D01*
X119539047Y-87502047D01*
X186229238Y-85002047D02*
X186229238Y-87502047D01*
X185276857Y-87502047D01*
X185038761Y-87383000D01*
X184919714Y-87263952D01*
X184800666Y-87025857D01*
X184800666Y-86668714D01*
X184919714Y-86430619D01*
X185038761Y-86311571D01*
X185276857Y-86192523D01*
X186229238Y-86192523D01*
X182300666Y-85240142D02*
X182419714Y-85121095D01*
X182776857Y-85002047D01*
X183014952Y-85002047D01*
X183372095Y-85121095D01*
X183610190Y-85359190D01*
X183729238Y-85597285D01*
X183848285Y-86073476D01*
X183848285Y-86430619D01*
X183729238Y-86906809D01*
X183610190Y-87144904D01*
X183372095Y-87383000D01*
X183014952Y-87502047D01*
X182776857Y-87502047D01*
X182419714Y-87383000D01*
X182300666Y-87263952D01*
X181467333Y-87502047D02*
X179800666Y-87502047D01*
X180872095Y-85002047D01*
D12*
%TO.C,RN1*%
X141859000Y-95247000D02*
X141859000Y-98047000D01*
X162349000Y-95247000D02*
X139149000Y-95247000D01*
X162349000Y-98047000D02*
X162349000Y-95247000D01*
X139149000Y-98047000D02*
X162349000Y-98047000D01*
X139149000Y-95247000D02*
X139149000Y-98047000D01*
%TO.C,D2*%
X177981000Y-83954000D02*
X152981000Y-83954000D01*
X177981000Y-93154000D02*
X177981000Y-83954000D01*
X152981000Y-93154000D02*
X177981000Y-93154000D01*
X152981000Y-83954000D02*
X152981000Y-93154000D01*
%TO.C,D1*%
X126946000Y-83954000D02*
X126946000Y-93154000D01*
X126946000Y-93154000D02*
X151946000Y-93154000D01*
X151946000Y-93154000D02*
X151946000Y-83954000D01*
X151946000Y-83954000D02*
X126946000Y-83954000D01*
%TO.C,C1*%
X173552000Y-102065000D02*
X173552000Y-107405000D01*
X170110000Y-102065000D02*
X170110000Y-107405000D01*
X173552000Y-102065000D02*
X172886000Y-102065000D01*
X170776000Y-102065000D02*
X170110000Y-102065000D01*
X173552000Y-107405000D02*
X172886000Y-107405000D01*
X170776000Y-107405000D02*
X170110000Y-107405000D01*
%TO.C,C2*%
X195668000Y-107494000D02*
X195002000Y-107494000D01*
X198444000Y-107494000D02*
X197778000Y-107494000D01*
X195668000Y-102154000D02*
X195002000Y-102154000D01*
X198444000Y-102154000D02*
X197778000Y-102154000D01*
X195002000Y-102154000D02*
X195002000Y-107494000D01*
X198444000Y-102154000D02*
X198444000Y-107494000D01*
%TO.C,C5*%
X207479000Y-127725000D02*
X206813000Y-127725000D01*
X210255000Y-127725000D02*
X209589000Y-127725000D01*
X207479000Y-122385000D02*
X206813000Y-122385000D01*
X210255000Y-122385000D02*
X209589000Y-122385000D01*
X206813000Y-122385000D02*
X206813000Y-127725000D01*
X210255000Y-122385000D02*
X210255000Y-127725000D01*
%TO.C,C6*%
X176346000Y-122385000D02*
X176346000Y-127725000D01*
X172904000Y-122385000D02*
X172904000Y-127725000D01*
X176346000Y-122385000D02*
X175680000Y-122385000D01*
X173570000Y-122385000D02*
X172904000Y-122385000D01*
X176346000Y-127725000D02*
X175680000Y-127725000D01*
X173570000Y-127725000D02*
X172904000Y-127725000D01*
%TO.C,C7*%
X118802000Y-107385000D02*
X118802000Y-102045000D01*
X122244000Y-107385000D02*
X122244000Y-102045000D01*
X118802000Y-107385000D02*
X119468000Y-107385000D01*
X121578000Y-107385000D02*
X122244000Y-107385000D01*
X118802000Y-102045000D02*
X119468000Y-102045000D01*
X121578000Y-102045000D02*
X122244000Y-102045000D01*
%TO.C,J1*%
X191397000Y-133159000D02*
X191897000Y-134159000D01*
X192397000Y-133159000D02*
X191397000Y-133159000D01*
X191897000Y-134159000D02*
X192397000Y-133159000D01*
X107947000Y-139779000D02*
X197107000Y-139779000D01*
X107947000Y-148899000D02*
X107947000Y-139779000D01*
X197107000Y-148899000D02*
X107947000Y-148899000D01*
X197107000Y-139779000D02*
X197107000Y-148899000D01*
X150477000Y-139779000D02*
X150477000Y-148899000D01*
X154577000Y-139779000D02*
X154577000Y-148899000D01*
%TO.C,U1*%
X169665000Y-109915000D02*
X169665000Y-99635000D01*
X149105000Y-109915000D02*
X169665000Y-109915000D01*
X149105000Y-99635000D02*
X149105000Y-109915000D01*
X169665000Y-99635000D02*
X149105000Y-99635000D01*
X169605000Y-107425000D02*
X169605000Y-105775000D01*
X149165000Y-107425000D02*
X169605000Y-107425000D01*
X149165000Y-102125000D02*
X149165000Y-107425000D01*
X169605000Y-102125000D02*
X149165000Y-102125000D01*
X169605000Y-103775000D02*
X169605000Y-102125000D01*
X169605000Y-105775000D02*
G75*
G02*
X169605000Y-103775000I0J1000000D01*
G01*
%TO.C,U2*%
X194497000Y-103775000D02*
X194497000Y-102125000D01*
X194497000Y-102125000D02*
X174057000Y-102125000D01*
X174057000Y-102125000D02*
X174057000Y-107425000D01*
X174057000Y-107425000D02*
X194497000Y-107425000D01*
X194497000Y-107425000D02*
X194497000Y-105775000D01*
X194557000Y-99635000D02*
X173997000Y-99635000D01*
X173997000Y-99635000D02*
X173997000Y-109915000D01*
X173997000Y-109915000D02*
X194557000Y-109915000D01*
X194557000Y-109915000D02*
X194557000Y-99635000D01*
X194497000Y-105775000D02*
G75*
G02*
X194497000Y-103775000I0J1000000D01*
G01*
%TO.C,U5*%
X206181000Y-124095000D02*
X206181000Y-122445000D01*
X206181000Y-122445000D02*
X180661000Y-122445000D01*
X180661000Y-122445000D02*
X180661000Y-127745000D01*
X180661000Y-127745000D02*
X206181000Y-127745000D01*
X206181000Y-127745000D02*
X206181000Y-126095000D01*
X206241000Y-119955000D02*
X180601000Y-119955000D01*
X180601000Y-119955000D02*
X180601000Y-130235000D01*
X180601000Y-130235000D02*
X206241000Y-130235000D01*
X206241000Y-130235000D02*
X206241000Y-119955000D01*
X206181000Y-126095000D02*
G75*
G02*
X206181000Y-124095000I0J1000000D01*
G01*
%TO.C,U6*%
X172459000Y-130235000D02*
X172459000Y-119955000D01*
X146819000Y-130235000D02*
X172459000Y-130235000D01*
X146819000Y-119955000D02*
X146819000Y-130235000D01*
X172459000Y-119955000D02*
X146819000Y-119955000D01*
X172399000Y-127745000D02*
X172399000Y-126095000D01*
X146879000Y-127745000D02*
X172399000Y-127745000D01*
X146879000Y-122445000D02*
X146879000Y-127745000D01*
X172399000Y-122445000D02*
X146879000Y-122445000D01*
X172399000Y-124095000D02*
X172399000Y-122445000D01*
X172399000Y-126095000D02*
G75*
G02*
X172399000Y-124095000I0J1000000D01*
G01*
%TO.C,U7*%
X122689000Y-99635000D02*
X122689000Y-109915000D01*
X148329000Y-99635000D02*
X122689000Y-99635000D01*
X148329000Y-109915000D02*
X148329000Y-99635000D01*
X122689000Y-109915000D02*
X148329000Y-109915000D01*
X122749000Y-102125000D02*
X122749000Y-103775000D01*
X148269000Y-102125000D02*
X122749000Y-102125000D01*
X148269000Y-107425000D02*
X148269000Y-102125000D01*
X122749000Y-107425000D02*
X148269000Y-107425000D01*
X122749000Y-105775000D02*
X122749000Y-107425000D01*
X122749000Y-103775000D02*
G75*
G02*
X122749000Y-105775000I0J-1000000D01*
G01*
%TO.C,C3*%
X141757000Y-127725000D02*
X141091000Y-127725000D01*
X144533000Y-127725000D02*
X143867000Y-127725000D01*
X141757000Y-122385000D02*
X141091000Y-122385000D01*
X144533000Y-122385000D02*
X143867000Y-122385000D01*
X141091000Y-122385000D02*
X141091000Y-127725000D01*
X144533000Y-122385000D02*
X144533000Y-127725000D01*
%TO.C,U3*%
X140709000Y-130235000D02*
X140709000Y-119955000D01*
X122689000Y-130235000D02*
X140709000Y-130235000D01*
X122689000Y-119955000D02*
X122689000Y-130235000D01*
X140709000Y-119955000D02*
X122689000Y-119955000D01*
X140649000Y-127745000D02*
X140649000Y-126095000D01*
X122749000Y-127745000D02*
X140649000Y-127745000D01*
X122749000Y-122445000D02*
X122749000Y-127745000D01*
X140649000Y-122445000D02*
X122749000Y-122445000D01*
X140649000Y-124095000D02*
X140649000Y-122445000D01*
X140649000Y-126095000D02*
G75*
G02*
X140649000Y-124095000I0J1000000D01*
G01*
%TO.C,RN1*%
D13*
X163520523Y-97099380D02*
X163187190Y-96623190D01*
X162949095Y-97099380D02*
X162949095Y-96099380D01*
X163330047Y-96099380D01*
X163425285Y-96147000D01*
X163472904Y-96194619D01*
X163520523Y-96289857D01*
X163520523Y-96432714D01*
X163472904Y-96527952D01*
X163425285Y-96575571D01*
X163330047Y-96623190D01*
X162949095Y-96623190D01*
X163949095Y-97099380D02*
X163949095Y-96099380D01*
X164520523Y-97099380D01*
X164520523Y-96099380D01*
X165520523Y-97099380D02*
X164949095Y-97099380D01*
X165234809Y-97099380D02*
X165234809Y-96099380D01*
X165139571Y-96242238D01*
X165044333Y-96337476D01*
X164949095Y-96385095D01*
%TO.C,D2*%
X165250904Y-94606380D02*
X165250904Y-93606380D01*
X165489000Y-93606380D01*
X165631857Y-93654000D01*
X165727095Y-93749238D01*
X165774714Y-93844476D01*
X165822333Y-94034952D01*
X165822333Y-94177809D01*
X165774714Y-94368285D01*
X165727095Y-94463523D01*
X165631857Y-94558761D01*
X165489000Y-94606380D01*
X165250904Y-94606380D01*
X166203285Y-93701619D02*
X166250904Y-93654000D01*
X166346142Y-93606380D01*
X166584238Y-93606380D01*
X166679476Y-93654000D01*
X166727095Y-93701619D01*
X166774714Y-93796857D01*
X166774714Y-93892095D01*
X166727095Y-94034952D01*
X166155666Y-94606380D01*
X166774714Y-94606380D01*
%TO.C,D1*%
X138707904Y-94606380D02*
X138707904Y-93606380D01*
X138946000Y-93606380D01*
X139088857Y-93654000D01*
X139184095Y-93749238D01*
X139231714Y-93844476D01*
X139279333Y-94034952D01*
X139279333Y-94177809D01*
X139231714Y-94368285D01*
X139184095Y-94463523D01*
X139088857Y-94558761D01*
X138946000Y-94606380D01*
X138707904Y-94606380D01*
X140231714Y-94606380D02*
X139660285Y-94606380D01*
X139946000Y-94606380D02*
X139946000Y-93606380D01*
X139850761Y-93749238D01*
X139755523Y-93844476D01*
X139660285Y-93892095D01*
%TO.C,C1*%
X171664333Y-100560142D02*
X171616714Y-100607761D01*
X171473857Y-100655380D01*
X171378619Y-100655380D01*
X171235761Y-100607761D01*
X171140523Y-100512523D01*
X171092904Y-100417285D01*
X171045285Y-100226809D01*
X171045285Y-100083952D01*
X171092904Y-99893476D01*
X171140523Y-99798238D01*
X171235761Y-99703000D01*
X171378619Y-99655380D01*
X171473857Y-99655380D01*
X171616714Y-99703000D01*
X171664333Y-99750619D01*
X172616714Y-100655380D02*
X172045285Y-100655380D01*
X172331000Y-100655380D02*
X172331000Y-99655380D01*
X172235761Y-99798238D01*
X172140523Y-99893476D01*
X172045285Y-99941095D01*
%TO.C,C2*%
X196556333Y-100560142D02*
X196508714Y-100607761D01*
X196365857Y-100655380D01*
X196270619Y-100655380D01*
X196127761Y-100607761D01*
X196032523Y-100512523D01*
X195984904Y-100417285D01*
X195937285Y-100226809D01*
X195937285Y-100083952D01*
X195984904Y-99893476D01*
X196032523Y-99798238D01*
X196127761Y-99703000D01*
X196270619Y-99655380D01*
X196365857Y-99655380D01*
X196508714Y-99703000D01*
X196556333Y-99750619D01*
X196937285Y-99750619D02*
X196984904Y-99703000D01*
X197080142Y-99655380D01*
X197318238Y-99655380D01*
X197413476Y-99703000D01*
X197461095Y-99750619D01*
X197508714Y-99845857D01*
X197508714Y-99941095D01*
X197461095Y-100083952D01*
X196889666Y-100655380D01*
X197508714Y-100655380D01*
%TO.C,C5*%
X208240333Y-121134142D02*
X208192714Y-121181761D01*
X208049857Y-121229380D01*
X207954619Y-121229380D01*
X207811761Y-121181761D01*
X207716523Y-121086523D01*
X207668904Y-120991285D01*
X207621285Y-120800809D01*
X207621285Y-120657952D01*
X207668904Y-120467476D01*
X207716523Y-120372238D01*
X207811761Y-120277000D01*
X207954619Y-120229380D01*
X208049857Y-120229380D01*
X208192714Y-120277000D01*
X208240333Y-120324619D01*
X209145095Y-120229380D02*
X208668904Y-120229380D01*
X208621285Y-120705571D01*
X208668904Y-120657952D01*
X208764142Y-120610333D01*
X209002238Y-120610333D01*
X209097476Y-120657952D01*
X209145095Y-120705571D01*
X209192714Y-120800809D01*
X209192714Y-121038904D01*
X209145095Y-121134142D01*
X209097476Y-121181761D01*
X209002238Y-121229380D01*
X208764142Y-121229380D01*
X208668904Y-121181761D01*
X208621285Y-121134142D01*
%TO.C,C6*%
X174458333Y-121134142D02*
X174410714Y-121181761D01*
X174267857Y-121229380D01*
X174172619Y-121229380D01*
X174029761Y-121181761D01*
X173934523Y-121086523D01*
X173886904Y-120991285D01*
X173839285Y-120800809D01*
X173839285Y-120657952D01*
X173886904Y-120467476D01*
X173934523Y-120372238D01*
X174029761Y-120277000D01*
X174172619Y-120229380D01*
X174267857Y-120229380D01*
X174410714Y-120277000D01*
X174458333Y-120324619D01*
X175315476Y-120229380D02*
X175125000Y-120229380D01*
X175029761Y-120277000D01*
X174982142Y-120324619D01*
X174886904Y-120467476D01*
X174839285Y-120657952D01*
X174839285Y-121038904D01*
X174886904Y-121134142D01*
X174934523Y-121181761D01*
X175029761Y-121229380D01*
X175220238Y-121229380D01*
X175315476Y-121181761D01*
X175363095Y-121134142D01*
X175410714Y-121038904D01*
X175410714Y-120800809D01*
X175363095Y-120705571D01*
X175315476Y-120657952D01*
X175220238Y-120610333D01*
X175029761Y-120610333D01*
X174934523Y-120657952D01*
X174886904Y-120705571D01*
X174839285Y-120800809D01*
%TO.C,C7*%
X120356333Y-100560142D02*
X120308714Y-100607761D01*
X120165857Y-100655380D01*
X120070619Y-100655380D01*
X119927761Y-100607761D01*
X119832523Y-100512523D01*
X119784904Y-100417285D01*
X119737285Y-100226809D01*
X119737285Y-100083952D01*
X119784904Y-99893476D01*
X119832523Y-99798238D01*
X119927761Y-99703000D01*
X120070619Y-99655380D01*
X120165857Y-99655380D01*
X120308714Y-99703000D01*
X120356333Y-99750619D01*
X120689666Y-99655380D02*
X121356333Y-99655380D01*
X120927761Y-100655380D01*
%TO.C,J1*%
X152193666Y-132929380D02*
X152193666Y-133643666D01*
X152146047Y-133786523D01*
X152050809Y-133881761D01*
X151907952Y-133929380D01*
X151812714Y-133929380D01*
X153193666Y-133929380D02*
X152622238Y-133929380D01*
X152907952Y-133929380D02*
X152907952Y-132929380D01*
X152812714Y-133072238D01*
X152717476Y-133167476D01*
X152622238Y-133215095D01*
%TO.C,U1*%
X158568095Y-110204380D02*
X158568095Y-111013904D01*
X158615714Y-111109142D01*
X158663333Y-111156761D01*
X158758571Y-111204380D01*
X158949047Y-111204380D01*
X159044285Y-111156761D01*
X159091904Y-111109142D01*
X159139523Y-111013904D01*
X159139523Y-110204380D01*
X160139523Y-111204380D02*
X159568095Y-111204380D01*
X159853809Y-111204380D02*
X159853809Y-110204380D01*
X159758571Y-110347238D01*
X159663333Y-110442476D01*
X159568095Y-110490095D01*
%TO.C,U2*%
X183515095Y-110323380D02*
X183515095Y-111132904D01*
X183562714Y-111228142D01*
X183610333Y-111275761D01*
X183705571Y-111323380D01*
X183896047Y-111323380D01*
X183991285Y-111275761D01*
X184038904Y-111228142D01*
X184086523Y-111132904D01*
X184086523Y-110323380D01*
X184515095Y-110418619D02*
X184562714Y-110371000D01*
X184657952Y-110323380D01*
X184896047Y-110323380D01*
X184991285Y-110371000D01*
X185038904Y-110418619D01*
X185086523Y-110513857D01*
X185086523Y-110609095D01*
X185038904Y-110751952D01*
X184467476Y-111323380D01*
X185086523Y-111323380D01*
%TO.C,U5*%
X192659095Y-118451380D02*
X192659095Y-119260904D01*
X192706714Y-119356142D01*
X192754333Y-119403761D01*
X192849571Y-119451380D01*
X193040047Y-119451380D01*
X193135285Y-119403761D01*
X193182904Y-119356142D01*
X193230523Y-119260904D01*
X193230523Y-118451380D01*
X194182904Y-118451380D02*
X193706714Y-118451380D01*
X193659095Y-118927571D01*
X193706714Y-118879952D01*
X193801952Y-118832333D01*
X194040047Y-118832333D01*
X194135285Y-118879952D01*
X194182904Y-118927571D01*
X194230523Y-119022809D01*
X194230523Y-119260904D01*
X194182904Y-119356142D01*
X194135285Y-119403761D01*
X194040047Y-119451380D01*
X193801952Y-119451380D01*
X193706714Y-119403761D01*
X193659095Y-119356142D01*
%TO.C,U6*%
X158877095Y-118451380D02*
X158877095Y-119260904D01*
X158924714Y-119356142D01*
X158972333Y-119403761D01*
X159067571Y-119451380D01*
X159258047Y-119451380D01*
X159353285Y-119403761D01*
X159400904Y-119356142D01*
X159448523Y-119260904D01*
X159448523Y-118451380D01*
X160353285Y-118451380D02*
X160162809Y-118451380D01*
X160067571Y-118499000D01*
X160019952Y-118546619D01*
X159924714Y-118689476D01*
X159877095Y-118879952D01*
X159877095Y-119260904D01*
X159924714Y-119356142D01*
X159972333Y-119403761D01*
X160067571Y-119451380D01*
X160258047Y-119451380D01*
X160353285Y-119403761D01*
X160400904Y-119356142D01*
X160448523Y-119260904D01*
X160448523Y-119022809D01*
X160400904Y-118927571D01*
X160353285Y-118879952D01*
X160258047Y-118832333D01*
X160067571Y-118832333D01*
X159972333Y-118879952D01*
X159924714Y-118927571D01*
X159877095Y-119022809D01*
%TO.C,U7*%
X134747095Y-110423380D02*
X134747095Y-111232904D01*
X134794714Y-111328142D01*
X134842333Y-111375761D01*
X134937571Y-111423380D01*
X135128047Y-111423380D01*
X135223285Y-111375761D01*
X135270904Y-111328142D01*
X135318523Y-111232904D01*
X135318523Y-110423380D01*
X135699476Y-110423380D02*
X136366142Y-110423380D01*
X135937571Y-111423380D01*
%TO.C,C3*%
X142708333Y-121011142D02*
X142660714Y-121058761D01*
X142517857Y-121106380D01*
X142422619Y-121106380D01*
X142279761Y-121058761D01*
X142184523Y-120963523D01*
X142136904Y-120868285D01*
X142089285Y-120677809D01*
X142089285Y-120534952D01*
X142136904Y-120344476D01*
X142184523Y-120249238D01*
X142279761Y-120154000D01*
X142422619Y-120106380D01*
X142517857Y-120106380D01*
X142660714Y-120154000D01*
X142708333Y-120201619D01*
X143041666Y-120106380D02*
X143660714Y-120106380D01*
X143327380Y-120487333D01*
X143470238Y-120487333D01*
X143565476Y-120534952D01*
X143613095Y-120582571D01*
X143660714Y-120677809D01*
X143660714Y-120915904D01*
X143613095Y-121011142D01*
X143565476Y-121058761D01*
X143470238Y-121106380D01*
X143184523Y-121106380D01*
X143089285Y-121058761D01*
X143041666Y-121011142D01*
%TO.C,U3*%
X130937095Y-118408380D02*
X130937095Y-119217904D01*
X130984714Y-119313142D01*
X131032333Y-119360761D01*
X131127571Y-119408380D01*
X131318047Y-119408380D01*
X131413285Y-119360761D01*
X131460904Y-119313142D01*
X131508523Y-119217904D01*
X131508523Y-118408380D01*
X131889476Y-118408380D02*
X132508523Y-118408380D01*
X132175190Y-118789333D01*
X132318047Y-118789333D01*
X132413285Y-118836952D01*
X132460904Y-118884571D01*
X132508523Y-118979809D01*
X132508523Y-119217904D01*
X132460904Y-119313142D01*
X132413285Y-119360761D01*
X132318047Y-119408380D01*
X132032333Y-119408380D01*
X131937095Y-119360761D01*
X131889476Y-119313142D01*
%TD*%
M02*
