%TF.GenerationSoftware,KiCad,Pcbnew,5.1.6-c6e7f7d~87~ubuntu18.04.1*%
%TF.CreationDate,2020-08-05T19:50:32+12:00*%
%TF.ProjectId,M1 Program Counter,4d312050-726f-4677-9261-6d20436f756e,rev?*%
%TF.SameCoordinates,Original*%
%TF.FileFunction,Soldermask,Top*%
%TF.FilePolarity,Negative*%
%FSLAX46Y46*%
G04 Gerber Fmt 4.6, Leading zero omitted, Abs format (unit mm)*
G04 Created by KiCad (PCBNEW 5.1.6-c6e7f7d~87~ubuntu18.04.1) date 2020-08-05 19:50:32*
%MOMM*%
%LPD*%
G01*
G04 APERTURE LIST*
%ADD10C,0.100000*%
G04 APERTURE END LIST*
D10*
G36*
X136130512Y-137152927D02*
G01*
X136279812Y-137182624D01*
X136443784Y-137250544D01*
X136591354Y-137349147D01*
X136716853Y-137474646D01*
X136815456Y-137622216D01*
X136883376Y-137786188D01*
X136918000Y-137960259D01*
X136918000Y-138137741D01*
X136883376Y-138311812D01*
X136815456Y-138475784D01*
X136716853Y-138623354D01*
X136591354Y-138748853D01*
X136443784Y-138847456D01*
X136279812Y-138915376D01*
X136130512Y-138945073D01*
X136105742Y-138950000D01*
X135928258Y-138950000D01*
X135903488Y-138945073D01*
X135754188Y-138915376D01*
X135590216Y-138847456D01*
X135442646Y-138748853D01*
X135317147Y-138623354D01*
X135218544Y-138475784D01*
X135150624Y-138311812D01*
X135116000Y-138137741D01*
X135116000Y-137960259D01*
X135150624Y-137786188D01*
X135218544Y-137622216D01*
X135317147Y-137474646D01*
X135442646Y-137349147D01*
X135590216Y-137250544D01*
X135754188Y-137182624D01*
X135903488Y-137152927D01*
X135928258Y-137148000D01*
X136105742Y-137148000D01*
X136130512Y-137152927D01*
G37*
G36*
X123430512Y-137152927D02*
G01*
X123579812Y-137182624D01*
X123743784Y-137250544D01*
X123891354Y-137349147D01*
X124016853Y-137474646D01*
X124115456Y-137622216D01*
X124183376Y-137786188D01*
X124218000Y-137960259D01*
X124218000Y-138137741D01*
X124183376Y-138311812D01*
X124115456Y-138475784D01*
X124016853Y-138623354D01*
X123891354Y-138748853D01*
X123743784Y-138847456D01*
X123579812Y-138915376D01*
X123430512Y-138945073D01*
X123405742Y-138950000D01*
X123228258Y-138950000D01*
X123203488Y-138945073D01*
X123054188Y-138915376D01*
X122890216Y-138847456D01*
X122742646Y-138748853D01*
X122617147Y-138623354D01*
X122518544Y-138475784D01*
X122450624Y-138311812D01*
X122416000Y-138137741D01*
X122416000Y-137960259D01*
X122450624Y-137786188D01*
X122518544Y-137622216D01*
X122617147Y-137474646D01*
X122742646Y-137349147D01*
X122890216Y-137250544D01*
X123054188Y-137182624D01*
X123203488Y-137152927D01*
X123228258Y-137148000D01*
X123405742Y-137148000D01*
X123430512Y-137152927D01*
G37*
G36*
X120890512Y-137152927D02*
G01*
X121039812Y-137182624D01*
X121203784Y-137250544D01*
X121351354Y-137349147D01*
X121476853Y-137474646D01*
X121575456Y-137622216D01*
X121643376Y-137786188D01*
X121678000Y-137960259D01*
X121678000Y-138137741D01*
X121643376Y-138311812D01*
X121575456Y-138475784D01*
X121476853Y-138623354D01*
X121351354Y-138748853D01*
X121203784Y-138847456D01*
X121039812Y-138915376D01*
X120890512Y-138945073D01*
X120865742Y-138950000D01*
X120688258Y-138950000D01*
X120663488Y-138945073D01*
X120514188Y-138915376D01*
X120350216Y-138847456D01*
X120202646Y-138748853D01*
X120077147Y-138623354D01*
X119978544Y-138475784D01*
X119910624Y-138311812D01*
X119876000Y-138137741D01*
X119876000Y-137960259D01*
X119910624Y-137786188D01*
X119978544Y-137622216D01*
X120077147Y-137474646D01*
X120202646Y-137349147D01*
X120350216Y-137250544D01*
X120514188Y-137182624D01*
X120663488Y-137152927D01*
X120688258Y-137148000D01*
X120865742Y-137148000D01*
X120890512Y-137152927D01*
G37*
G36*
X118350512Y-137152927D02*
G01*
X118499812Y-137182624D01*
X118663784Y-137250544D01*
X118811354Y-137349147D01*
X118936853Y-137474646D01*
X119035456Y-137622216D01*
X119103376Y-137786188D01*
X119138000Y-137960259D01*
X119138000Y-138137741D01*
X119103376Y-138311812D01*
X119035456Y-138475784D01*
X118936853Y-138623354D01*
X118811354Y-138748853D01*
X118663784Y-138847456D01*
X118499812Y-138915376D01*
X118350512Y-138945073D01*
X118325742Y-138950000D01*
X118148258Y-138950000D01*
X118123488Y-138945073D01*
X117974188Y-138915376D01*
X117810216Y-138847456D01*
X117662646Y-138748853D01*
X117537147Y-138623354D01*
X117438544Y-138475784D01*
X117370624Y-138311812D01*
X117336000Y-138137741D01*
X117336000Y-137960259D01*
X117370624Y-137786188D01*
X117438544Y-137622216D01*
X117537147Y-137474646D01*
X117662646Y-137349147D01*
X117810216Y-137250544D01*
X117974188Y-137182624D01*
X118123488Y-137152927D01*
X118148258Y-137148000D01*
X118325742Y-137148000D01*
X118350512Y-137152927D01*
G37*
G36*
X115810512Y-137152927D02*
G01*
X115959812Y-137182624D01*
X116123784Y-137250544D01*
X116271354Y-137349147D01*
X116396853Y-137474646D01*
X116495456Y-137622216D01*
X116563376Y-137786188D01*
X116598000Y-137960259D01*
X116598000Y-138137741D01*
X116563376Y-138311812D01*
X116495456Y-138475784D01*
X116396853Y-138623354D01*
X116271354Y-138748853D01*
X116123784Y-138847456D01*
X115959812Y-138915376D01*
X115810512Y-138945073D01*
X115785742Y-138950000D01*
X115608258Y-138950000D01*
X115583488Y-138945073D01*
X115434188Y-138915376D01*
X115270216Y-138847456D01*
X115122646Y-138748853D01*
X114997147Y-138623354D01*
X114898544Y-138475784D01*
X114830624Y-138311812D01*
X114796000Y-138137741D01*
X114796000Y-137960259D01*
X114830624Y-137786188D01*
X114898544Y-137622216D01*
X114997147Y-137474646D01*
X115122646Y-137349147D01*
X115270216Y-137250544D01*
X115434188Y-137182624D01*
X115583488Y-137152927D01*
X115608258Y-137148000D01*
X115785742Y-137148000D01*
X115810512Y-137152927D01*
G37*
G36*
X113270512Y-137152927D02*
G01*
X113419812Y-137182624D01*
X113583784Y-137250544D01*
X113731354Y-137349147D01*
X113856853Y-137474646D01*
X113955456Y-137622216D01*
X114023376Y-137786188D01*
X114058000Y-137960259D01*
X114058000Y-138137741D01*
X114023376Y-138311812D01*
X113955456Y-138475784D01*
X113856853Y-138623354D01*
X113731354Y-138748853D01*
X113583784Y-138847456D01*
X113419812Y-138915376D01*
X113270512Y-138945073D01*
X113245742Y-138950000D01*
X113068258Y-138950000D01*
X113043488Y-138945073D01*
X112894188Y-138915376D01*
X112730216Y-138847456D01*
X112582646Y-138748853D01*
X112457147Y-138623354D01*
X112358544Y-138475784D01*
X112290624Y-138311812D01*
X112256000Y-138137741D01*
X112256000Y-137960259D01*
X112290624Y-137786188D01*
X112358544Y-137622216D01*
X112457147Y-137474646D01*
X112582646Y-137349147D01*
X112730216Y-137250544D01*
X112894188Y-137182624D01*
X113043488Y-137152927D01*
X113068258Y-137148000D01*
X113245742Y-137148000D01*
X113270512Y-137152927D01*
G37*
G36*
X125970512Y-137152927D02*
G01*
X126119812Y-137182624D01*
X126283784Y-137250544D01*
X126431354Y-137349147D01*
X126556853Y-137474646D01*
X126655456Y-137622216D01*
X126723376Y-137786188D01*
X126758000Y-137960259D01*
X126758000Y-138137741D01*
X126723376Y-138311812D01*
X126655456Y-138475784D01*
X126556853Y-138623354D01*
X126431354Y-138748853D01*
X126283784Y-138847456D01*
X126119812Y-138915376D01*
X125970512Y-138945073D01*
X125945742Y-138950000D01*
X125768258Y-138950000D01*
X125743488Y-138945073D01*
X125594188Y-138915376D01*
X125430216Y-138847456D01*
X125282646Y-138748853D01*
X125157147Y-138623354D01*
X125058544Y-138475784D01*
X124990624Y-138311812D01*
X124956000Y-138137741D01*
X124956000Y-137960259D01*
X124990624Y-137786188D01*
X125058544Y-137622216D01*
X125157147Y-137474646D01*
X125282646Y-137349147D01*
X125430216Y-137250544D01*
X125594188Y-137182624D01*
X125743488Y-137152927D01*
X125768258Y-137148000D01*
X125945742Y-137148000D01*
X125970512Y-137152927D01*
G37*
G36*
X128510512Y-137152927D02*
G01*
X128659812Y-137182624D01*
X128823784Y-137250544D01*
X128971354Y-137349147D01*
X129096853Y-137474646D01*
X129195456Y-137622216D01*
X129263376Y-137786188D01*
X129298000Y-137960259D01*
X129298000Y-138137741D01*
X129263376Y-138311812D01*
X129195456Y-138475784D01*
X129096853Y-138623354D01*
X128971354Y-138748853D01*
X128823784Y-138847456D01*
X128659812Y-138915376D01*
X128510512Y-138945073D01*
X128485742Y-138950000D01*
X128308258Y-138950000D01*
X128283488Y-138945073D01*
X128134188Y-138915376D01*
X127970216Y-138847456D01*
X127822646Y-138748853D01*
X127697147Y-138623354D01*
X127598544Y-138475784D01*
X127530624Y-138311812D01*
X127496000Y-138137741D01*
X127496000Y-137960259D01*
X127530624Y-137786188D01*
X127598544Y-137622216D01*
X127697147Y-137474646D01*
X127822646Y-137349147D01*
X127970216Y-137250544D01*
X128134188Y-137182624D01*
X128283488Y-137152927D01*
X128308258Y-137148000D01*
X128485742Y-137148000D01*
X128510512Y-137152927D01*
G37*
G36*
X131050512Y-137152927D02*
G01*
X131199812Y-137182624D01*
X131363784Y-137250544D01*
X131511354Y-137349147D01*
X131636853Y-137474646D01*
X131735456Y-137622216D01*
X131803376Y-137786188D01*
X131838000Y-137960259D01*
X131838000Y-138137741D01*
X131803376Y-138311812D01*
X131735456Y-138475784D01*
X131636853Y-138623354D01*
X131511354Y-138748853D01*
X131363784Y-138847456D01*
X131199812Y-138915376D01*
X131050512Y-138945073D01*
X131025742Y-138950000D01*
X130848258Y-138950000D01*
X130823488Y-138945073D01*
X130674188Y-138915376D01*
X130510216Y-138847456D01*
X130362646Y-138748853D01*
X130237147Y-138623354D01*
X130138544Y-138475784D01*
X130070624Y-138311812D01*
X130036000Y-138137741D01*
X130036000Y-137960259D01*
X130070624Y-137786188D01*
X130138544Y-137622216D01*
X130237147Y-137474646D01*
X130362646Y-137349147D01*
X130510216Y-137250544D01*
X130674188Y-137182624D01*
X130823488Y-137152927D01*
X130848258Y-137148000D01*
X131025742Y-137148000D01*
X131050512Y-137152927D01*
G37*
G36*
X156450512Y-137152927D02*
G01*
X156599812Y-137182624D01*
X156763784Y-137250544D01*
X156911354Y-137349147D01*
X157036853Y-137474646D01*
X157135456Y-137622216D01*
X157203376Y-137786188D01*
X157238000Y-137960259D01*
X157238000Y-138137741D01*
X157203376Y-138311812D01*
X157135456Y-138475784D01*
X157036853Y-138623354D01*
X156911354Y-138748853D01*
X156763784Y-138847456D01*
X156599812Y-138915376D01*
X156450512Y-138945073D01*
X156425742Y-138950000D01*
X156248258Y-138950000D01*
X156223488Y-138945073D01*
X156074188Y-138915376D01*
X155910216Y-138847456D01*
X155762646Y-138748853D01*
X155637147Y-138623354D01*
X155538544Y-138475784D01*
X155470624Y-138311812D01*
X155436000Y-138137741D01*
X155436000Y-137960259D01*
X155470624Y-137786188D01*
X155538544Y-137622216D01*
X155637147Y-137474646D01*
X155762646Y-137349147D01*
X155910216Y-137250544D01*
X156074188Y-137182624D01*
X156223488Y-137152927D01*
X156248258Y-137148000D01*
X156425742Y-137148000D01*
X156450512Y-137152927D01*
G37*
G36*
X138670512Y-137152927D02*
G01*
X138819812Y-137182624D01*
X138983784Y-137250544D01*
X139131354Y-137349147D01*
X139256853Y-137474646D01*
X139355456Y-137622216D01*
X139423376Y-137786188D01*
X139458000Y-137960259D01*
X139458000Y-138137741D01*
X139423376Y-138311812D01*
X139355456Y-138475784D01*
X139256853Y-138623354D01*
X139131354Y-138748853D01*
X138983784Y-138847456D01*
X138819812Y-138915376D01*
X138670512Y-138945073D01*
X138645742Y-138950000D01*
X138468258Y-138950000D01*
X138443488Y-138945073D01*
X138294188Y-138915376D01*
X138130216Y-138847456D01*
X137982646Y-138748853D01*
X137857147Y-138623354D01*
X137758544Y-138475784D01*
X137690624Y-138311812D01*
X137656000Y-138137741D01*
X137656000Y-137960259D01*
X137690624Y-137786188D01*
X137758544Y-137622216D01*
X137857147Y-137474646D01*
X137982646Y-137349147D01*
X138130216Y-137250544D01*
X138294188Y-137182624D01*
X138443488Y-137152927D01*
X138468258Y-137148000D01*
X138645742Y-137148000D01*
X138670512Y-137152927D01*
G37*
G36*
X141210512Y-137152927D02*
G01*
X141359812Y-137182624D01*
X141523784Y-137250544D01*
X141671354Y-137349147D01*
X141796853Y-137474646D01*
X141895456Y-137622216D01*
X141963376Y-137786188D01*
X141998000Y-137960259D01*
X141998000Y-138137741D01*
X141963376Y-138311812D01*
X141895456Y-138475784D01*
X141796853Y-138623354D01*
X141671354Y-138748853D01*
X141523784Y-138847456D01*
X141359812Y-138915376D01*
X141210512Y-138945073D01*
X141185742Y-138950000D01*
X141008258Y-138950000D01*
X140983488Y-138945073D01*
X140834188Y-138915376D01*
X140670216Y-138847456D01*
X140522646Y-138748853D01*
X140397147Y-138623354D01*
X140298544Y-138475784D01*
X140230624Y-138311812D01*
X140196000Y-138137741D01*
X140196000Y-137960259D01*
X140230624Y-137786188D01*
X140298544Y-137622216D01*
X140397147Y-137474646D01*
X140522646Y-137349147D01*
X140670216Y-137250544D01*
X140834188Y-137182624D01*
X140983488Y-137152927D01*
X141008258Y-137148000D01*
X141185742Y-137148000D01*
X141210512Y-137152927D01*
G37*
G36*
X143750512Y-137152927D02*
G01*
X143899812Y-137182624D01*
X144063784Y-137250544D01*
X144211354Y-137349147D01*
X144336853Y-137474646D01*
X144435456Y-137622216D01*
X144503376Y-137786188D01*
X144538000Y-137960259D01*
X144538000Y-138137741D01*
X144503376Y-138311812D01*
X144435456Y-138475784D01*
X144336853Y-138623354D01*
X144211354Y-138748853D01*
X144063784Y-138847456D01*
X143899812Y-138915376D01*
X143750512Y-138945073D01*
X143725742Y-138950000D01*
X143548258Y-138950000D01*
X143523488Y-138945073D01*
X143374188Y-138915376D01*
X143210216Y-138847456D01*
X143062646Y-138748853D01*
X142937147Y-138623354D01*
X142838544Y-138475784D01*
X142770624Y-138311812D01*
X142736000Y-138137741D01*
X142736000Y-137960259D01*
X142770624Y-137786188D01*
X142838544Y-137622216D01*
X142937147Y-137474646D01*
X143062646Y-137349147D01*
X143210216Y-137250544D01*
X143374188Y-137182624D01*
X143523488Y-137152927D01*
X143548258Y-137148000D01*
X143725742Y-137148000D01*
X143750512Y-137152927D01*
G37*
G36*
X146290512Y-137152927D02*
G01*
X146439812Y-137182624D01*
X146603784Y-137250544D01*
X146751354Y-137349147D01*
X146876853Y-137474646D01*
X146975456Y-137622216D01*
X147043376Y-137786188D01*
X147078000Y-137960259D01*
X147078000Y-138137741D01*
X147043376Y-138311812D01*
X146975456Y-138475784D01*
X146876853Y-138623354D01*
X146751354Y-138748853D01*
X146603784Y-138847456D01*
X146439812Y-138915376D01*
X146290512Y-138945073D01*
X146265742Y-138950000D01*
X146088258Y-138950000D01*
X146063488Y-138945073D01*
X145914188Y-138915376D01*
X145750216Y-138847456D01*
X145602646Y-138748853D01*
X145477147Y-138623354D01*
X145378544Y-138475784D01*
X145310624Y-138311812D01*
X145276000Y-138137741D01*
X145276000Y-137960259D01*
X145310624Y-137786188D01*
X145378544Y-137622216D01*
X145477147Y-137474646D01*
X145602646Y-137349147D01*
X145750216Y-137250544D01*
X145914188Y-137182624D01*
X146063488Y-137152927D01*
X146088258Y-137148000D01*
X146265742Y-137148000D01*
X146290512Y-137152927D01*
G37*
G36*
X148830512Y-137152927D02*
G01*
X148979812Y-137182624D01*
X149143784Y-137250544D01*
X149291354Y-137349147D01*
X149416853Y-137474646D01*
X149515456Y-137622216D01*
X149583376Y-137786188D01*
X149618000Y-137960259D01*
X149618000Y-138137741D01*
X149583376Y-138311812D01*
X149515456Y-138475784D01*
X149416853Y-138623354D01*
X149291354Y-138748853D01*
X149143784Y-138847456D01*
X148979812Y-138915376D01*
X148830512Y-138945073D01*
X148805742Y-138950000D01*
X148628258Y-138950000D01*
X148603488Y-138945073D01*
X148454188Y-138915376D01*
X148290216Y-138847456D01*
X148142646Y-138748853D01*
X148017147Y-138623354D01*
X147918544Y-138475784D01*
X147850624Y-138311812D01*
X147816000Y-138137741D01*
X147816000Y-137960259D01*
X147850624Y-137786188D01*
X147918544Y-137622216D01*
X148017147Y-137474646D01*
X148142646Y-137349147D01*
X148290216Y-137250544D01*
X148454188Y-137182624D01*
X148603488Y-137152927D01*
X148628258Y-137148000D01*
X148805742Y-137148000D01*
X148830512Y-137152927D01*
G37*
G36*
X151370512Y-137152927D02*
G01*
X151519812Y-137182624D01*
X151683784Y-137250544D01*
X151831354Y-137349147D01*
X151956853Y-137474646D01*
X152055456Y-137622216D01*
X152123376Y-137786188D01*
X152158000Y-137960259D01*
X152158000Y-138137741D01*
X152123376Y-138311812D01*
X152055456Y-138475784D01*
X151956853Y-138623354D01*
X151831354Y-138748853D01*
X151683784Y-138847456D01*
X151519812Y-138915376D01*
X151370512Y-138945073D01*
X151345742Y-138950000D01*
X151168258Y-138950000D01*
X151143488Y-138945073D01*
X150994188Y-138915376D01*
X150830216Y-138847456D01*
X150682646Y-138748853D01*
X150557147Y-138623354D01*
X150458544Y-138475784D01*
X150390624Y-138311812D01*
X150356000Y-138137741D01*
X150356000Y-137960259D01*
X150390624Y-137786188D01*
X150458544Y-137622216D01*
X150557147Y-137474646D01*
X150682646Y-137349147D01*
X150830216Y-137250544D01*
X150994188Y-137182624D01*
X151143488Y-137152927D01*
X151168258Y-137148000D01*
X151345742Y-137148000D01*
X151370512Y-137152927D01*
G37*
G36*
X176770512Y-137152927D02*
G01*
X176919812Y-137182624D01*
X177083784Y-137250544D01*
X177231354Y-137349147D01*
X177356853Y-137474646D01*
X177455456Y-137622216D01*
X177523376Y-137786188D01*
X177558000Y-137960259D01*
X177558000Y-138137741D01*
X177523376Y-138311812D01*
X177455456Y-138475784D01*
X177356853Y-138623354D01*
X177231354Y-138748853D01*
X177083784Y-138847456D01*
X176919812Y-138915376D01*
X176770512Y-138945073D01*
X176745742Y-138950000D01*
X176568258Y-138950000D01*
X176543488Y-138945073D01*
X176394188Y-138915376D01*
X176230216Y-138847456D01*
X176082646Y-138748853D01*
X175957147Y-138623354D01*
X175858544Y-138475784D01*
X175790624Y-138311812D01*
X175756000Y-138137741D01*
X175756000Y-137960259D01*
X175790624Y-137786188D01*
X175858544Y-137622216D01*
X175957147Y-137474646D01*
X176082646Y-137349147D01*
X176230216Y-137250544D01*
X176394188Y-137182624D01*
X176543488Y-137152927D01*
X176568258Y-137148000D01*
X176745742Y-137148000D01*
X176770512Y-137152927D01*
G37*
G36*
X192010512Y-137152927D02*
G01*
X192159812Y-137182624D01*
X192323784Y-137250544D01*
X192471354Y-137349147D01*
X192596853Y-137474646D01*
X192695456Y-137622216D01*
X192763376Y-137786188D01*
X192798000Y-137960259D01*
X192798000Y-138137741D01*
X192763376Y-138311812D01*
X192695456Y-138475784D01*
X192596853Y-138623354D01*
X192471354Y-138748853D01*
X192323784Y-138847456D01*
X192159812Y-138915376D01*
X192010512Y-138945073D01*
X191985742Y-138950000D01*
X191808258Y-138950000D01*
X191783488Y-138945073D01*
X191634188Y-138915376D01*
X191470216Y-138847456D01*
X191322646Y-138748853D01*
X191197147Y-138623354D01*
X191098544Y-138475784D01*
X191030624Y-138311812D01*
X190996000Y-138137741D01*
X190996000Y-137960259D01*
X191030624Y-137786188D01*
X191098544Y-137622216D01*
X191197147Y-137474646D01*
X191322646Y-137349147D01*
X191470216Y-137250544D01*
X191634188Y-137182624D01*
X191783488Y-137152927D01*
X191808258Y-137148000D01*
X191985742Y-137148000D01*
X192010512Y-137152927D01*
G37*
G36*
X133590512Y-137152927D02*
G01*
X133739812Y-137182624D01*
X133903784Y-137250544D01*
X134051354Y-137349147D01*
X134176853Y-137474646D01*
X134275456Y-137622216D01*
X134343376Y-137786188D01*
X134378000Y-137960259D01*
X134378000Y-138137741D01*
X134343376Y-138311812D01*
X134275456Y-138475784D01*
X134176853Y-138623354D01*
X134051354Y-138748853D01*
X133903784Y-138847456D01*
X133739812Y-138915376D01*
X133590512Y-138945073D01*
X133565742Y-138950000D01*
X133388258Y-138950000D01*
X133363488Y-138945073D01*
X133214188Y-138915376D01*
X133050216Y-138847456D01*
X132902646Y-138748853D01*
X132777147Y-138623354D01*
X132678544Y-138475784D01*
X132610624Y-138311812D01*
X132576000Y-138137741D01*
X132576000Y-137960259D01*
X132610624Y-137786188D01*
X132678544Y-137622216D01*
X132777147Y-137474646D01*
X132902646Y-137349147D01*
X133050216Y-137250544D01*
X133214188Y-137182624D01*
X133363488Y-137152927D01*
X133388258Y-137148000D01*
X133565742Y-137148000D01*
X133590512Y-137152927D01*
G37*
G36*
X158990512Y-137152927D02*
G01*
X159139812Y-137182624D01*
X159303784Y-137250544D01*
X159451354Y-137349147D01*
X159576853Y-137474646D01*
X159675456Y-137622216D01*
X159743376Y-137786188D01*
X159778000Y-137960259D01*
X159778000Y-138137741D01*
X159743376Y-138311812D01*
X159675456Y-138475784D01*
X159576853Y-138623354D01*
X159451354Y-138748853D01*
X159303784Y-138847456D01*
X159139812Y-138915376D01*
X158990512Y-138945073D01*
X158965742Y-138950000D01*
X158788258Y-138950000D01*
X158763488Y-138945073D01*
X158614188Y-138915376D01*
X158450216Y-138847456D01*
X158302646Y-138748853D01*
X158177147Y-138623354D01*
X158078544Y-138475784D01*
X158010624Y-138311812D01*
X157976000Y-138137741D01*
X157976000Y-137960259D01*
X158010624Y-137786188D01*
X158078544Y-137622216D01*
X158177147Y-137474646D01*
X158302646Y-137349147D01*
X158450216Y-137250544D01*
X158614188Y-137182624D01*
X158763488Y-137152927D01*
X158788258Y-137148000D01*
X158965742Y-137148000D01*
X158990512Y-137152927D01*
G37*
G36*
X161530512Y-137152927D02*
G01*
X161679812Y-137182624D01*
X161843784Y-137250544D01*
X161991354Y-137349147D01*
X162116853Y-137474646D01*
X162215456Y-137622216D01*
X162283376Y-137786188D01*
X162318000Y-137960259D01*
X162318000Y-138137741D01*
X162283376Y-138311812D01*
X162215456Y-138475784D01*
X162116853Y-138623354D01*
X161991354Y-138748853D01*
X161843784Y-138847456D01*
X161679812Y-138915376D01*
X161530512Y-138945073D01*
X161505742Y-138950000D01*
X161328258Y-138950000D01*
X161303488Y-138945073D01*
X161154188Y-138915376D01*
X160990216Y-138847456D01*
X160842646Y-138748853D01*
X160717147Y-138623354D01*
X160618544Y-138475784D01*
X160550624Y-138311812D01*
X160516000Y-138137741D01*
X160516000Y-137960259D01*
X160550624Y-137786188D01*
X160618544Y-137622216D01*
X160717147Y-137474646D01*
X160842646Y-137349147D01*
X160990216Y-137250544D01*
X161154188Y-137182624D01*
X161303488Y-137152927D01*
X161328258Y-137148000D01*
X161505742Y-137148000D01*
X161530512Y-137152927D01*
G37*
G36*
X164070512Y-137152927D02*
G01*
X164219812Y-137182624D01*
X164383784Y-137250544D01*
X164531354Y-137349147D01*
X164656853Y-137474646D01*
X164755456Y-137622216D01*
X164823376Y-137786188D01*
X164858000Y-137960259D01*
X164858000Y-138137741D01*
X164823376Y-138311812D01*
X164755456Y-138475784D01*
X164656853Y-138623354D01*
X164531354Y-138748853D01*
X164383784Y-138847456D01*
X164219812Y-138915376D01*
X164070512Y-138945073D01*
X164045742Y-138950000D01*
X163868258Y-138950000D01*
X163843488Y-138945073D01*
X163694188Y-138915376D01*
X163530216Y-138847456D01*
X163382646Y-138748853D01*
X163257147Y-138623354D01*
X163158544Y-138475784D01*
X163090624Y-138311812D01*
X163056000Y-138137741D01*
X163056000Y-137960259D01*
X163090624Y-137786188D01*
X163158544Y-137622216D01*
X163257147Y-137474646D01*
X163382646Y-137349147D01*
X163530216Y-137250544D01*
X163694188Y-137182624D01*
X163843488Y-137152927D01*
X163868258Y-137148000D01*
X164045742Y-137148000D01*
X164070512Y-137152927D01*
G37*
G36*
X166610512Y-137152927D02*
G01*
X166759812Y-137182624D01*
X166923784Y-137250544D01*
X167071354Y-137349147D01*
X167196853Y-137474646D01*
X167295456Y-137622216D01*
X167363376Y-137786188D01*
X167398000Y-137960259D01*
X167398000Y-138137741D01*
X167363376Y-138311812D01*
X167295456Y-138475784D01*
X167196853Y-138623354D01*
X167071354Y-138748853D01*
X166923784Y-138847456D01*
X166759812Y-138915376D01*
X166610512Y-138945073D01*
X166585742Y-138950000D01*
X166408258Y-138950000D01*
X166383488Y-138945073D01*
X166234188Y-138915376D01*
X166070216Y-138847456D01*
X165922646Y-138748853D01*
X165797147Y-138623354D01*
X165698544Y-138475784D01*
X165630624Y-138311812D01*
X165596000Y-138137741D01*
X165596000Y-137960259D01*
X165630624Y-137786188D01*
X165698544Y-137622216D01*
X165797147Y-137474646D01*
X165922646Y-137349147D01*
X166070216Y-137250544D01*
X166234188Y-137182624D01*
X166383488Y-137152927D01*
X166408258Y-137148000D01*
X166585742Y-137148000D01*
X166610512Y-137152927D01*
G37*
G36*
X169150512Y-137152927D02*
G01*
X169299812Y-137182624D01*
X169463784Y-137250544D01*
X169611354Y-137349147D01*
X169736853Y-137474646D01*
X169835456Y-137622216D01*
X169903376Y-137786188D01*
X169938000Y-137960259D01*
X169938000Y-138137741D01*
X169903376Y-138311812D01*
X169835456Y-138475784D01*
X169736853Y-138623354D01*
X169611354Y-138748853D01*
X169463784Y-138847456D01*
X169299812Y-138915376D01*
X169150512Y-138945073D01*
X169125742Y-138950000D01*
X168948258Y-138950000D01*
X168923488Y-138945073D01*
X168774188Y-138915376D01*
X168610216Y-138847456D01*
X168462646Y-138748853D01*
X168337147Y-138623354D01*
X168238544Y-138475784D01*
X168170624Y-138311812D01*
X168136000Y-138137741D01*
X168136000Y-137960259D01*
X168170624Y-137786188D01*
X168238544Y-137622216D01*
X168337147Y-137474646D01*
X168462646Y-137349147D01*
X168610216Y-137250544D01*
X168774188Y-137182624D01*
X168923488Y-137152927D01*
X168948258Y-137148000D01*
X169125742Y-137148000D01*
X169150512Y-137152927D01*
G37*
G36*
X171690512Y-137152927D02*
G01*
X171839812Y-137182624D01*
X172003784Y-137250544D01*
X172151354Y-137349147D01*
X172276853Y-137474646D01*
X172375456Y-137622216D01*
X172443376Y-137786188D01*
X172478000Y-137960259D01*
X172478000Y-138137741D01*
X172443376Y-138311812D01*
X172375456Y-138475784D01*
X172276853Y-138623354D01*
X172151354Y-138748853D01*
X172003784Y-138847456D01*
X171839812Y-138915376D01*
X171690512Y-138945073D01*
X171665742Y-138950000D01*
X171488258Y-138950000D01*
X171463488Y-138945073D01*
X171314188Y-138915376D01*
X171150216Y-138847456D01*
X171002646Y-138748853D01*
X170877147Y-138623354D01*
X170778544Y-138475784D01*
X170710624Y-138311812D01*
X170676000Y-138137741D01*
X170676000Y-137960259D01*
X170710624Y-137786188D01*
X170778544Y-137622216D01*
X170877147Y-137474646D01*
X171002646Y-137349147D01*
X171150216Y-137250544D01*
X171314188Y-137182624D01*
X171463488Y-137152927D01*
X171488258Y-137148000D01*
X171665742Y-137148000D01*
X171690512Y-137152927D01*
G37*
G36*
X174230512Y-137152927D02*
G01*
X174379812Y-137182624D01*
X174543784Y-137250544D01*
X174691354Y-137349147D01*
X174816853Y-137474646D01*
X174915456Y-137622216D01*
X174983376Y-137786188D01*
X175018000Y-137960259D01*
X175018000Y-138137741D01*
X174983376Y-138311812D01*
X174915456Y-138475784D01*
X174816853Y-138623354D01*
X174691354Y-138748853D01*
X174543784Y-138847456D01*
X174379812Y-138915376D01*
X174230512Y-138945073D01*
X174205742Y-138950000D01*
X174028258Y-138950000D01*
X174003488Y-138945073D01*
X173854188Y-138915376D01*
X173690216Y-138847456D01*
X173542646Y-138748853D01*
X173417147Y-138623354D01*
X173318544Y-138475784D01*
X173250624Y-138311812D01*
X173216000Y-138137741D01*
X173216000Y-137960259D01*
X173250624Y-137786188D01*
X173318544Y-137622216D01*
X173417147Y-137474646D01*
X173542646Y-137349147D01*
X173690216Y-137250544D01*
X173854188Y-137182624D01*
X174003488Y-137152927D01*
X174028258Y-137148000D01*
X174205742Y-137148000D01*
X174230512Y-137152927D01*
G37*
G36*
X153910512Y-137152927D02*
G01*
X154059812Y-137182624D01*
X154223784Y-137250544D01*
X154371354Y-137349147D01*
X154496853Y-137474646D01*
X154595456Y-137622216D01*
X154663376Y-137786188D01*
X154698000Y-137960259D01*
X154698000Y-138137741D01*
X154663376Y-138311812D01*
X154595456Y-138475784D01*
X154496853Y-138623354D01*
X154371354Y-138748853D01*
X154223784Y-138847456D01*
X154059812Y-138915376D01*
X153910512Y-138945073D01*
X153885742Y-138950000D01*
X153708258Y-138950000D01*
X153683488Y-138945073D01*
X153534188Y-138915376D01*
X153370216Y-138847456D01*
X153222646Y-138748853D01*
X153097147Y-138623354D01*
X152998544Y-138475784D01*
X152930624Y-138311812D01*
X152896000Y-138137741D01*
X152896000Y-137960259D01*
X152930624Y-137786188D01*
X152998544Y-137622216D01*
X153097147Y-137474646D01*
X153222646Y-137349147D01*
X153370216Y-137250544D01*
X153534188Y-137182624D01*
X153683488Y-137152927D01*
X153708258Y-137148000D01*
X153885742Y-137148000D01*
X153910512Y-137152927D01*
G37*
G36*
X179310512Y-137152927D02*
G01*
X179459812Y-137182624D01*
X179623784Y-137250544D01*
X179771354Y-137349147D01*
X179896853Y-137474646D01*
X179995456Y-137622216D01*
X180063376Y-137786188D01*
X180098000Y-137960259D01*
X180098000Y-138137741D01*
X180063376Y-138311812D01*
X179995456Y-138475784D01*
X179896853Y-138623354D01*
X179771354Y-138748853D01*
X179623784Y-138847456D01*
X179459812Y-138915376D01*
X179310512Y-138945073D01*
X179285742Y-138950000D01*
X179108258Y-138950000D01*
X179083488Y-138945073D01*
X178934188Y-138915376D01*
X178770216Y-138847456D01*
X178622646Y-138748853D01*
X178497147Y-138623354D01*
X178398544Y-138475784D01*
X178330624Y-138311812D01*
X178296000Y-138137741D01*
X178296000Y-137960259D01*
X178330624Y-137786188D01*
X178398544Y-137622216D01*
X178497147Y-137474646D01*
X178622646Y-137349147D01*
X178770216Y-137250544D01*
X178934188Y-137182624D01*
X179083488Y-137152927D01*
X179108258Y-137148000D01*
X179285742Y-137148000D01*
X179310512Y-137152927D01*
G37*
G36*
X181850512Y-137152927D02*
G01*
X181999812Y-137182624D01*
X182163784Y-137250544D01*
X182311354Y-137349147D01*
X182436853Y-137474646D01*
X182535456Y-137622216D01*
X182603376Y-137786188D01*
X182638000Y-137960259D01*
X182638000Y-138137741D01*
X182603376Y-138311812D01*
X182535456Y-138475784D01*
X182436853Y-138623354D01*
X182311354Y-138748853D01*
X182163784Y-138847456D01*
X181999812Y-138915376D01*
X181850512Y-138945073D01*
X181825742Y-138950000D01*
X181648258Y-138950000D01*
X181623488Y-138945073D01*
X181474188Y-138915376D01*
X181310216Y-138847456D01*
X181162646Y-138748853D01*
X181037147Y-138623354D01*
X180938544Y-138475784D01*
X180870624Y-138311812D01*
X180836000Y-138137741D01*
X180836000Y-137960259D01*
X180870624Y-137786188D01*
X180938544Y-137622216D01*
X181037147Y-137474646D01*
X181162646Y-137349147D01*
X181310216Y-137250544D01*
X181474188Y-137182624D01*
X181623488Y-137152927D01*
X181648258Y-137148000D01*
X181825742Y-137148000D01*
X181850512Y-137152927D01*
G37*
G36*
X184390512Y-137152927D02*
G01*
X184539812Y-137182624D01*
X184703784Y-137250544D01*
X184851354Y-137349147D01*
X184976853Y-137474646D01*
X185075456Y-137622216D01*
X185143376Y-137786188D01*
X185178000Y-137960259D01*
X185178000Y-138137741D01*
X185143376Y-138311812D01*
X185075456Y-138475784D01*
X184976853Y-138623354D01*
X184851354Y-138748853D01*
X184703784Y-138847456D01*
X184539812Y-138915376D01*
X184390512Y-138945073D01*
X184365742Y-138950000D01*
X184188258Y-138950000D01*
X184163488Y-138945073D01*
X184014188Y-138915376D01*
X183850216Y-138847456D01*
X183702646Y-138748853D01*
X183577147Y-138623354D01*
X183478544Y-138475784D01*
X183410624Y-138311812D01*
X183376000Y-138137741D01*
X183376000Y-137960259D01*
X183410624Y-137786188D01*
X183478544Y-137622216D01*
X183577147Y-137474646D01*
X183702646Y-137349147D01*
X183850216Y-137250544D01*
X184014188Y-137182624D01*
X184163488Y-137152927D01*
X184188258Y-137148000D01*
X184365742Y-137148000D01*
X184390512Y-137152927D01*
G37*
G36*
X186930512Y-137152927D02*
G01*
X187079812Y-137182624D01*
X187243784Y-137250544D01*
X187391354Y-137349147D01*
X187516853Y-137474646D01*
X187615456Y-137622216D01*
X187683376Y-137786188D01*
X187718000Y-137960259D01*
X187718000Y-138137741D01*
X187683376Y-138311812D01*
X187615456Y-138475784D01*
X187516853Y-138623354D01*
X187391354Y-138748853D01*
X187243784Y-138847456D01*
X187079812Y-138915376D01*
X186930512Y-138945073D01*
X186905742Y-138950000D01*
X186728258Y-138950000D01*
X186703488Y-138945073D01*
X186554188Y-138915376D01*
X186390216Y-138847456D01*
X186242646Y-138748853D01*
X186117147Y-138623354D01*
X186018544Y-138475784D01*
X185950624Y-138311812D01*
X185916000Y-138137741D01*
X185916000Y-137960259D01*
X185950624Y-137786188D01*
X186018544Y-137622216D01*
X186117147Y-137474646D01*
X186242646Y-137349147D01*
X186390216Y-137250544D01*
X186554188Y-137182624D01*
X186703488Y-137152927D01*
X186728258Y-137148000D01*
X186905742Y-137148000D01*
X186930512Y-137152927D01*
G37*
G36*
X189470512Y-137152927D02*
G01*
X189619812Y-137182624D01*
X189783784Y-137250544D01*
X189931354Y-137349147D01*
X190056853Y-137474646D01*
X190155456Y-137622216D01*
X190223376Y-137786188D01*
X190258000Y-137960259D01*
X190258000Y-138137741D01*
X190223376Y-138311812D01*
X190155456Y-138475784D01*
X190056853Y-138623354D01*
X189931354Y-138748853D01*
X189783784Y-138847456D01*
X189619812Y-138915376D01*
X189470512Y-138945073D01*
X189445742Y-138950000D01*
X189268258Y-138950000D01*
X189243488Y-138945073D01*
X189094188Y-138915376D01*
X188930216Y-138847456D01*
X188782646Y-138748853D01*
X188657147Y-138623354D01*
X188558544Y-138475784D01*
X188490624Y-138311812D01*
X188456000Y-138137741D01*
X188456000Y-137960259D01*
X188490624Y-137786188D01*
X188558544Y-137622216D01*
X188657147Y-137474646D01*
X188782646Y-137349147D01*
X188930216Y-137250544D01*
X189094188Y-137182624D01*
X189243488Y-137152927D01*
X189268258Y-137148000D01*
X189445742Y-137148000D01*
X189470512Y-137152927D01*
G37*
G36*
X148825796Y-134611989D02*
G01*
X148979812Y-134642624D01*
X149143784Y-134710544D01*
X149291354Y-134809147D01*
X149416853Y-134934646D01*
X149515456Y-135082216D01*
X149583376Y-135246188D01*
X149618000Y-135420259D01*
X149618000Y-135597741D01*
X149583376Y-135771812D01*
X149515456Y-135935784D01*
X149416853Y-136083354D01*
X149291354Y-136208853D01*
X149143784Y-136307456D01*
X148979812Y-136375376D01*
X148831341Y-136404908D01*
X148805742Y-136410000D01*
X148628258Y-136410000D01*
X148602659Y-136404908D01*
X148454188Y-136375376D01*
X148290216Y-136307456D01*
X148142646Y-136208853D01*
X148017147Y-136083354D01*
X147918544Y-135935784D01*
X147850624Y-135771812D01*
X147816000Y-135597741D01*
X147816000Y-135420259D01*
X147850624Y-135246188D01*
X147918544Y-135082216D01*
X148017147Y-134934646D01*
X148142646Y-134809147D01*
X148290216Y-134710544D01*
X148454188Y-134642624D01*
X148608204Y-134611989D01*
X148628258Y-134608000D01*
X148805742Y-134608000D01*
X148825796Y-134611989D01*
G37*
G36*
X189465796Y-134611989D02*
G01*
X189619812Y-134642624D01*
X189783784Y-134710544D01*
X189931354Y-134809147D01*
X190056853Y-134934646D01*
X190155456Y-135082216D01*
X190223376Y-135246188D01*
X190258000Y-135420259D01*
X190258000Y-135597741D01*
X190223376Y-135771812D01*
X190155456Y-135935784D01*
X190056853Y-136083354D01*
X189931354Y-136208853D01*
X189783784Y-136307456D01*
X189619812Y-136375376D01*
X189471341Y-136404908D01*
X189445742Y-136410000D01*
X189268258Y-136410000D01*
X189242659Y-136404908D01*
X189094188Y-136375376D01*
X188930216Y-136307456D01*
X188782646Y-136208853D01*
X188657147Y-136083354D01*
X188558544Y-135935784D01*
X188490624Y-135771812D01*
X188456000Y-135597741D01*
X188456000Y-135420259D01*
X188490624Y-135246188D01*
X188558544Y-135082216D01*
X188657147Y-134934646D01*
X188782646Y-134809147D01*
X188930216Y-134710544D01*
X189094188Y-134642624D01*
X189248204Y-134611989D01*
X189268258Y-134608000D01*
X189445742Y-134608000D01*
X189465796Y-134611989D01*
G37*
G36*
X143745796Y-134611989D02*
G01*
X143899812Y-134642624D01*
X144063784Y-134710544D01*
X144211354Y-134809147D01*
X144336853Y-134934646D01*
X144435456Y-135082216D01*
X144503376Y-135246188D01*
X144538000Y-135420259D01*
X144538000Y-135597741D01*
X144503376Y-135771812D01*
X144435456Y-135935784D01*
X144336853Y-136083354D01*
X144211354Y-136208853D01*
X144063784Y-136307456D01*
X143899812Y-136375376D01*
X143751341Y-136404908D01*
X143725742Y-136410000D01*
X143548258Y-136410000D01*
X143522659Y-136404908D01*
X143374188Y-136375376D01*
X143210216Y-136307456D01*
X143062646Y-136208853D01*
X142937147Y-136083354D01*
X142838544Y-135935784D01*
X142770624Y-135771812D01*
X142736000Y-135597741D01*
X142736000Y-135420259D01*
X142770624Y-135246188D01*
X142838544Y-135082216D01*
X142937147Y-134934646D01*
X143062646Y-134809147D01*
X143210216Y-134710544D01*
X143374188Y-134642624D01*
X143528204Y-134611989D01*
X143548258Y-134608000D01*
X143725742Y-134608000D01*
X143745796Y-134611989D01*
G37*
G36*
X141205796Y-134611989D02*
G01*
X141359812Y-134642624D01*
X141523784Y-134710544D01*
X141671354Y-134809147D01*
X141796853Y-134934646D01*
X141895456Y-135082216D01*
X141963376Y-135246188D01*
X141998000Y-135420259D01*
X141998000Y-135597741D01*
X141963376Y-135771812D01*
X141895456Y-135935784D01*
X141796853Y-136083354D01*
X141671354Y-136208853D01*
X141523784Y-136307456D01*
X141359812Y-136375376D01*
X141211341Y-136404908D01*
X141185742Y-136410000D01*
X141008258Y-136410000D01*
X140982659Y-136404908D01*
X140834188Y-136375376D01*
X140670216Y-136307456D01*
X140522646Y-136208853D01*
X140397147Y-136083354D01*
X140298544Y-135935784D01*
X140230624Y-135771812D01*
X140196000Y-135597741D01*
X140196000Y-135420259D01*
X140230624Y-135246188D01*
X140298544Y-135082216D01*
X140397147Y-134934646D01*
X140522646Y-134809147D01*
X140670216Y-134710544D01*
X140834188Y-134642624D01*
X140988204Y-134611989D01*
X141008258Y-134608000D01*
X141185742Y-134608000D01*
X141205796Y-134611989D01*
G37*
G36*
X138665796Y-134611989D02*
G01*
X138819812Y-134642624D01*
X138983784Y-134710544D01*
X139131354Y-134809147D01*
X139256853Y-134934646D01*
X139355456Y-135082216D01*
X139423376Y-135246188D01*
X139458000Y-135420259D01*
X139458000Y-135597741D01*
X139423376Y-135771812D01*
X139355456Y-135935784D01*
X139256853Y-136083354D01*
X139131354Y-136208853D01*
X138983784Y-136307456D01*
X138819812Y-136375376D01*
X138671341Y-136404908D01*
X138645742Y-136410000D01*
X138468258Y-136410000D01*
X138442659Y-136404908D01*
X138294188Y-136375376D01*
X138130216Y-136307456D01*
X137982646Y-136208853D01*
X137857147Y-136083354D01*
X137758544Y-135935784D01*
X137690624Y-135771812D01*
X137656000Y-135597741D01*
X137656000Y-135420259D01*
X137690624Y-135246188D01*
X137758544Y-135082216D01*
X137857147Y-134934646D01*
X137982646Y-134809147D01*
X138130216Y-134710544D01*
X138294188Y-134642624D01*
X138448204Y-134611989D01*
X138468258Y-134608000D01*
X138645742Y-134608000D01*
X138665796Y-134611989D01*
G37*
G36*
X136125796Y-134611989D02*
G01*
X136279812Y-134642624D01*
X136443784Y-134710544D01*
X136591354Y-134809147D01*
X136716853Y-134934646D01*
X136815456Y-135082216D01*
X136883376Y-135246188D01*
X136918000Y-135420259D01*
X136918000Y-135597741D01*
X136883376Y-135771812D01*
X136815456Y-135935784D01*
X136716853Y-136083354D01*
X136591354Y-136208853D01*
X136443784Y-136307456D01*
X136279812Y-136375376D01*
X136131341Y-136404908D01*
X136105742Y-136410000D01*
X135928258Y-136410000D01*
X135902659Y-136404908D01*
X135754188Y-136375376D01*
X135590216Y-136307456D01*
X135442646Y-136208853D01*
X135317147Y-136083354D01*
X135218544Y-135935784D01*
X135150624Y-135771812D01*
X135116000Y-135597741D01*
X135116000Y-135420259D01*
X135150624Y-135246188D01*
X135218544Y-135082216D01*
X135317147Y-134934646D01*
X135442646Y-134809147D01*
X135590216Y-134710544D01*
X135754188Y-134642624D01*
X135908204Y-134611989D01*
X135928258Y-134608000D01*
X136105742Y-134608000D01*
X136125796Y-134611989D01*
G37*
G36*
X133585796Y-134611989D02*
G01*
X133739812Y-134642624D01*
X133903784Y-134710544D01*
X134051354Y-134809147D01*
X134176853Y-134934646D01*
X134275456Y-135082216D01*
X134343376Y-135246188D01*
X134378000Y-135420259D01*
X134378000Y-135597741D01*
X134343376Y-135771812D01*
X134275456Y-135935784D01*
X134176853Y-136083354D01*
X134051354Y-136208853D01*
X133903784Y-136307456D01*
X133739812Y-136375376D01*
X133591341Y-136404908D01*
X133565742Y-136410000D01*
X133388258Y-136410000D01*
X133362659Y-136404908D01*
X133214188Y-136375376D01*
X133050216Y-136307456D01*
X132902646Y-136208853D01*
X132777147Y-136083354D01*
X132678544Y-135935784D01*
X132610624Y-135771812D01*
X132576000Y-135597741D01*
X132576000Y-135420259D01*
X132610624Y-135246188D01*
X132678544Y-135082216D01*
X132777147Y-134934646D01*
X132902646Y-134809147D01*
X133050216Y-134710544D01*
X133214188Y-134642624D01*
X133368204Y-134611989D01*
X133388258Y-134608000D01*
X133565742Y-134608000D01*
X133585796Y-134611989D01*
G37*
G36*
X128505796Y-134611989D02*
G01*
X128659812Y-134642624D01*
X128823784Y-134710544D01*
X128971354Y-134809147D01*
X129096853Y-134934646D01*
X129195456Y-135082216D01*
X129263376Y-135246188D01*
X129298000Y-135420259D01*
X129298000Y-135597741D01*
X129263376Y-135771812D01*
X129195456Y-135935784D01*
X129096853Y-136083354D01*
X128971354Y-136208853D01*
X128823784Y-136307456D01*
X128659812Y-136375376D01*
X128511341Y-136404908D01*
X128485742Y-136410000D01*
X128308258Y-136410000D01*
X128282659Y-136404908D01*
X128134188Y-136375376D01*
X127970216Y-136307456D01*
X127822646Y-136208853D01*
X127697147Y-136083354D01*
X127598544Y-135935784D01*
X127530624Y-135771812D01*
X127496000Y-135597741D01*
X127496000Y-135420259D01*
X127530624Y-135246188D01*
X127598544Y-135082216D01*
X127697147Y-134934646D01*
X127822646Y-134809147D01*
X127970216Y-134710544D01*
X128134188Y-134642624D01*
X128288204Y-134611989D01*
X128308258Y-134608000D01*
X128485742Y-134608000D01*
X128505796Y-134611989D01*
G37*
G36*
X125965796Y-134611989D02*
G01*
X126119812Y-134642624D01*
X126283784Y-134710544D01*
X126431354Y-134809147D01*
X126556853Y-134934646D01*
X126655456Y-135082216D01*
X126723376Y-135246188D01*
X126758000Y-135420259D01*
X126758000Y-135597741D01*
X126723376Y-135771812D01*
X126655456Y-135935784D01*
X126556853Y-136083354D01*
X126431354Y-136208853D01*
X126283784Y-136307456D01*
X126119812Y-136375376D01*
X125971341Y-136404908D01*
X125945742Y-136410000D01*
X125768258Y-136410000D01*
X125742659Y-136404908D01*
X125594188Y-136375376D01*
X125430216Y-136307456D01*
X125282646Y-136208853D01*
X125157147Y-136083354D01*
X125058544Y-135935784D01*
X124990624Y-135771812D01*
X124956000Y-135597741D01*
X124956000Y-135420259D01*
X124990624Y-135246188D01*
X125058544Y-135082216D01*
X125157147Y-134934646D01*
X125282646Y-134809147D01*
X125430216Y-134710544D01*
X125594188Y-134642624D01*
X125748204Y-134611989D01*
X125768258Y-134608000D01*
X125945742Y-134608000D01*
X125965796Y-134611989D01*
G37*
G36*
X123425796Y-134611989D02*
G01*
X123579812Y-134642624D01*
X123743784Y-134710544D01*
X123891354Y-134809147D01*
X124016853Y-134934646D01*
X124115456Y-135082216D01*
X124183376Y-135246188D01*
X124218000Y-135420259D01*
X124218000Y-135597741D01*
X124183376Y-135771812D01*
X124115456Y-135935784D01*
X124016853Y-136083354D01*
X123891354Y-136208853D01*
X123743784Y-136307456D01*
X123579812Y-136375376D01*
X123431341Y-136404908D01*
X123405742Y-136410000D01*
X123228258Y-136410000D01*
X123202659Y-136404908D01*
X123054188Y-136375376D01*
X122890216Y-136307456D01*
X122742646Y-136208853D01*
X122617147Y-136083354D01*
X122518544Y-135935784D01*
X122450624Y-135771812D01*
X122416000Y-135597741D01*
X122416000Y-135420259D01*
X122450624Y-135246188D01*
X122518544Y-135082216D01*
X122617147Y-134934646D01*
X122742646Y-134809147D01*
X122890216Y-134710544D01*
X123054188Y-134642624D01*
X123208204Y-134611989D01*
X123228258Y-134608000D01*
X123405742Y-134608000D01*
X123425796Y-134611989D01*
G37*
G36*
X120885796Y-134611989D02*
G01*
X121039812Y-134642624D01*
X121203784Y-134710544D01*
X121351354Y-134809147D01*
X121476853Y-134934646D01*
X121575456Y-135082216D01*
X121643376Y-135246188D01*
X121678000Y-135420259D01*
X121678000Y-135597741D01*
X121643376Y-135771812D01*
X121575456Y-135935784D01*
X121476853Y-136083354D01*
X121351354Y-136208853D01*
X121203784Y-136307456D01*
X121039812Y-136375376D01*
X120891341Y-136404908D01*
X120865742Y-136410000D01*
X120688258Y-136410000D01*
X120662659Y-136404908D01*
X120514188Y-136375376D01*
X120350216Y-136307456D01*
X120202646Y-136208853D01*
X120077147Y-136083354D01*
X119978544Y-135935784D01*
X119910624Y-135771812D01*
X119876000Y-135597741D01*
X119876000Y-135420259D01*
X119910624Y-135246188D01*
X119978544Y-135082216D01*
X120077147Y-134934646D01*
X120202646Y-134809147D01*
X120350216Y-134710544D01*
X120514188Y-134642624D01*
X120668204Y-134611989D01*
X120688258Y-134608000D01*
X120865742Y-134608000D01*
X120885796Y-134611989D01*
G37*
G36*
X118345796Y-134611989D02*
G01*
X118499812Y-134642624D01*
X118663784Y-134710544D01*
X118811354Y-134809147D01*
X118936853Y-134934646D01*
X119035456Y-135082216D01*
X119103376Y-135246188D01*
X119138000Y-135420259D01*
X119138000Y-135597741D01*
X119103376Y-135771812D01*
X119035456Y-135935784D01*
X118936853Y-136083354D01*
X118811354Y-136208853D01*
X118663784Y-136307456D01*
X118499812Y-136375376D01*
X118351341Y-136404908D01*
X118325742Y-136410000D01*
X118148258Y-136410000D01*
X118122659Y-136404908D01*
X117974188Y-136375376D01*
X117810216Y-136307456D01*
X117662646Y-136208853D01*
X117537147Y-136083354D01*
X117438544Y-135935784D01*
X117370624Y-135771812D01*
X117336000Y-135597741D01*
X117336000Y-135420259D01*
X117370624Y-135246188D01*
X117438544Y-135082216D01*
X117537147Y-134934646D01*
X117662646Y-134809147D01*
X117810216Y-134710544D01*
X117974188Y-134642624D01*
X118128204Y-134611989D01*
X118148258Y-134608000D01*
X118325742Y-134608000D01*
X118345796Y-134611989D01*
G37*
G36*
X115805796Y-134611989D02*
G01*
X115959812Y-134642624D01*
X116123784Y-134710544D01*
X116271354Y-134809147D01*
X116396853Y-134934646D01*
X116495456Y-135082216D01*
X116563376Y-135246188D01*
X116598000Y-135420259D01*
X116598000Y-135597741D01*
X116563376Y-135771812D01*
X116495456Y-135935784D01*
X116396853Y-136083354D01*
X116271354Y-136208853D01*
X116123784Y-136307456D01*
X115959812Y-136375376D01*
X115811341Y-136404908D01*
X115785742Y-136410000D01*
X115608258Y-136410000D01*
X115582659Y-136404908D01*
X115434188Y-136375376D01*
X115270216Y-136307456D01*
X115122646Y-136208853D01*
X114997147Y-136083354D01*
X114898544Y-135935784D01*
X114830624Y-135771812D01*
X114796000Y-135597741D01*
X114796000Y-135420259D01*
X114830624Y-135246188D01*
X114898544Y-135082216D01*
X114997147Y-134934646D01*
X115122646Y-134809147D01*
X115270216Y-134710544D01*
X115434188Y-134642624D01*
X115588204Y-134611989D01*
X115608258Y-134608000D01*
X115785742Y-134608000D01*
X115805796Y-134611989D01*
G37*
G36*
X113265796Y-134611989D02*
G01*
X113419812Y-134642624D01*
X113583784Y-134710544D01*
X113731354Y-134809147D01*
X113856853Y-134934646D01*
X113955456Y-135082216D01*
X114023376Y-135246188D01*
X114058000Y-135420259D01*
X114058000Y-135597741D01*
X114023376Y-135771812D01*
X113955456Y-135935784D01*
X113856853Y-136083354D01*
X113731354Y-136208853D01*
X113583784Y-136307456D01*
X113419812Y-136375376D01*
X113271341Y-136404908D01*
X113245742Y-136410000D01*
X113068258Y-136410000D01*
X113042659Y-136404908D01*
X112894188Y-136375376D01*
X112730216Y-136307456D01*
X112582646Y-136208853D01*
X112457147Y-136083354D01*
X112358544Y-135935784D01*
X112290624Y-135771812D01*
X112256000Y-135597741D01*
X112256000Y-135420259D01*
X112290624Y-135246188D01*
X112358544Y-135082216D01*
X112457147Y-134934646D01*
X112582646Y-134809147D01*
X112730216Y-134710544D01*
X112894188Y-134642624D01*
X113048204Y-134611989D01*
X113068258Y-134608000D01*
X113245742Y-134608000D01*
X113265796Y-134611989D01*
G37*
G36*
X186925796Y-134611989D02*
G01*
X187079812Y-134642624D01*
X187243784Y-134710544D01*
X187391354Y-134809147D01*
X187516853Y-134934646D01*
X187615456Y-135082216D01*
X187683376Y-135246188D01*
X187718000Y-135420259D01*
X187718000Y-135597741D01*
X187683376Y-135771812D01*
X187615456Y-135935784D01*
X187516853Y-136083354D01*
X187391354Y-136208853D01*
X187243784Y-136307456D01*
X187079812Y-136375376D01*
X186931341Y-136404908D01*
X186905742Y-136410000D01*
X186728258Y-136410000D01*
X186702659Y-136404908D01*
X186554188Y-136375376D01*
X186390216Y-136307456D01*
X186242646Y-136208853D01*
X186117147Y-136083354D01*
X186018544Y-135935784D01*
X185950624Y-135771812D01*
X185916000Y-135597741D01*
X185916000Y-135420259D01*
X185950624Y-135246188D01*
X186018544Y-135082216D01*
X186117147Y-134934646D01*
X186242646Y-134809147D01*
X186390216Y-134710544D01*
X186554188Y-134642624D01*
X186708204Y-134611989D01*
X186728258Y-134608000D01*
X186905742Y-134608000D01*
X186925796Y-134611989D01*
G37*
G36*
X131045796Y-134611989D02*
G01*
X131199812Y-134642624D01*
X131363784Y-134710544D01*
X131511354Y-134809147D01*
X131636853Y-134934646D01*
X131735456Y-135082216D01*
X131803376Y-135246188D01*
X131838000Y-135420259D01*
X131838000Y-135597741D01*
X131803376Y-135771812D01*
X131735456Y-135935784D01*
X131636853Y-136083354D01*
X131511354Y-136208853D01*
X131363784Y-136307456D01*
X131199812Y-136375376D01*
X131051341Y-136404908D01*
X131025742Y-136410000D01*
X130848258Y-136410000D01*
X130822659Y-136404908D01*
X130674188Y-136375376D01*
X130510216Y-136307456D01*
X130362646Y-136208853D01*
X130237147Y-136083354D01*
X130138544Y-135935784D01*
X130070624Y-135771812D01*
X130036000Y-135597741D01*
X130036000Y-135420259D01*
X130070624Y-135246188D01*
X130138544Y-135082216D01*
X130237147Y-134934646D01*
X130362646Y-134809147D01*
X130510216Y-134710544D01*
X130674188Y-134642624D01*
X130828204Y-134611989D01*
X130848258Y-134608000D01*
X131025742Y-134608000D01*
X131045796Y-134611989D01*
G37*
G36*
X153905796Y-134611989D02*
G01*
X154059812Y-134642624D01*
X154223784Y-134710544D01*
X154371354Y-134809147D01*
X154496853Y-134934646D01*
X154595456Y-135082216D01*
X154663376Y-135246188D01*
X154698000Y-135420259D01*
X154698000Y-135597741D01*
X154663376Y-135771812D01*
X154595456Y-135935784D01*
X154496853Y-136083354D01*
X154371354Y-136208853D01*
X154223784Y-136307456D01*
X154059812Y-136375376D01*
X153911341Y-136404908D01*
X153885742Y-136410000D01*
X153708258Y-136410000D01*
X153682659Y-136404908D01*
X153534188Y-136375376D01*
X153370216Y-136307456D01*
X153222646Y-136208853D01*
X153097147Y-136083354D01*
X152998544Y-135935784D01*
X152930624Y-135771812D01*
X152896000Y-135597741D01*
X152896000Y-135420259D01*
X152930624Y-135246188D01*
X152998544Y-135082216D01*
X153097147Y-134934646D01*
X153222646Y-134809147D01*
X153370216Y-134710544D01*
X153534188Y-134642624D01*
X153688204Y-134611989D01*
X153708258Y-134608000D01*
X153885742Y-134608000D01*
X153905796Y-134611989D01*
G37*
G36*
X151365796Y-134611989D02*
G01*
X151519812Y-134642624D01*
X151683784Y-134710544D01*
X151831354Y-134809147D01*
X151956853Y-134934646D01*
X152055456Y-135082216D01*
X152123376Y-135246188D01*
X152158000Y-135420259D01*
X152158000Y-135597741D01*
X152123376Y-135771812D01*
X152055456Y-135935784D01*
X151956853Y-136083354D01*
X151831354Y-136208853D01*
X151683784Y-136307456D01*
X151519812Y-136375376D01*
X151371341Y-136404908D01*
X151345742Y-136410000D01*
X151168258Y-136410000D01*
X151142659Y-136404908D01*
X150994188Y-136375376D01*
X150830216Y-136307456D01*
X150682646Y-136208853D01*
X150557147Y-136083354D01*
X150458544Y-135935784D01*
X150390624Y-135771812D01*
X150356000Y-135597741D01*
X150356000Y-135420259D01*
X150390624Y-135246188D01*
X150458544Y-135082216D01*
X150557147Y-134934646D01*
X150682646Y-134809147D01*
X150830216Y-134710544D01*
X150994188Y-134642624D01*
X151148204Y-134611989D01*
X151168258Y-134608000D01*
X151345742Y-134608000D01*
X151365796Y-134611989D01*
G37*
G36*
X184385796Y-134611989D02*
G01*
X184539812Y-134642624D01*
X184703784Y-134710544D01*
X184851354Y-134809147D01*
X184976853Y-134934646D01*
X185075456Y-135082216D01*
X185143376Y-135246188D01*
X185178000Y-135420259D01*
X185178000Y-135597741D01*
X185143376Y-135771812D01*
X185075456Y-135935784D01*
X184976853Y-136083354D01*
X184851354Y-136208853D01*
X184703784Y-136307456D01*
X184539812Y-136375376D01*
X184391341Y-136404908D01*
X184365742Y-136410000D01*
X184188258Y-136410000D01*
X184162659Y-136404908D01*
X184014188Y-136375376D01*
X183850216Y-136307456D01*
X183702646Y-136208853D01*
X183577147Y-136083354D01*
X183478544Y-135935784D01*
X183410624Y-135771812D01*
X183376000Y-135597741D01*
X183376000Y-135420259D01*
X183410624Y-135246188D01*
X183478544Y-135082216D01*
X183577147Y-134934646D01*
X183702646Y-134809147D01*
X183850216Y-134710544D01*
X184014188Y-134642624D01*
X184168204Y-134611989D01*
X184188258Y-134608000D01*
X184365742Y-134608000D01*
X184385796Y-134611989D01*
G37*
G36*
X146285796Y-134611989D02*
G01*
X146439812Y-134642624D01*
X146603784Y-134710544D01*
X146751354Y-134809147D01*
X146876853Y-134934646D01*
X146975456Y-135082216D01*
X147043376Y-135246188D01*
X147078000Y-135420259D01*
X147078000Y-135597741D01*
X147043376Y-135771812D01*
X146975456Y-135935784D01*
X146876853Y-136083354D01*
X146751354Y-136208853D01*
X146603784Y-136307456D01*
X146439812Y-136375376D01*
X146291341Y-136404908D01*
X146265742Y-136410000D01*
X146088258Y-136410000D01*
X146062659Y-136404908D01*
X145914188Y-136375376D01*
X145750216Y-136307456D01*
X145602646Y-136208853D01*
X145477147Y-136083354D01*
X145378544Y-135935784D01*
X145310624Y-135771812D01*
X145276000Y-135597741D01*
X145276000Y-135420259D01*
X145310624Y-135246188D01*
X145378544Y-135082216D01*
X145477147Y-134934646D01*
X145602646Y-134809147D01*
X145750216Y-134710544D01*
X145914188Y-134642624D01*
X146068204Y-134611989D01*
X146088258Y-134608000D01*
X146265742Y-134608000D01*
X146285796Y-134611989D01*
G37*
G36*
X181845796Y-134611989D02*
G01*
X181999812Y-134642624D01*
X182163784Y-134710544D01*
X182311354Y-134809147D01*
X182436853Y-134934646D01*
X182535456Y-135082216D01*
X182603376Y-135246188D01*
X182638000Y-135420259D01*
X182638000Y-135597741D01*
X182603376Y-135771812D01*
X182535456Y-135935784D01*
X182436853Y-136083354D01*
X182311354Y-136208853D01*
X182163784Y-136307456D01*
X181999812Y-136375376D01*
X181851341Y-136404908D01*
X181825742Y-136410000D01*
X181648258Y-136410000D01*
X181622659Y-136404908D01*
X181474188Y-136375376D01*
X181310216Y-136307456D01*
X181162646Y-136208853D01*
X181037147Y-136083354D01*
X180938544Y-135935784D01*
X180870624Y-135771812D01*
X180836000Y-135597741D01*
X180836000Y-135420259D01*
X180870624Y-135246188D01*
X180938544Y-135082216D01*
X181037147Y-134934646D01*
X181162646Y-134809147D01*
X181310216Y-134710544D01*
X181474188Y-134642624D01*
X181628204Y-134611989D01*
X181648258Y-134608000D01*
X181825742Y-134608000D01*
X181845796Y-134611989D01*
G37*
G36*
X179305796Y-134611989D02*
G01*
X179459812Y-134642624D01*
X179623784Y-134710544D01*
X179771354Y-134809147D01*
X179896853Y-134934646D01*
X179995456Y-135082216D01*
X180063376Y-135246188D01*
X180098000Y-135420259D01*
X180098000Y-135597741D01*
X180063376Y-135771812D01*
X179995456Y-135935784D01*
X179896853Y-136083354D01*
X179771354Y-136208853D01*
X179623784Y-136307456D01*
X179459812Y-136375376D01*
X179311341Y-136404908D01*
X179285742Y-136410000D01*
X179108258Y-136410000D01*
X179082659Y-136404908D01*
X178934188Y-136375376D01*
X178770216Y-136307456D01*
X178622646Y-136208853D01*
X178497147Y-136083354D01*
X178398544Y-135935784D01*
X178330624Y-135771812D01*
X178296000Y-135597741D01*
X178296000Y-135420259D01*
X178330624Y-135246188D01*
X178398544Y-135082216D01*
X178497147Y-134934646D01*
X178622646Y-134809147D01*
X178770216Y-134710544D01*
X178934188Y-134642624D01*
X179088204Y-134611989D01*
X179108258Y-134608000D01*
X179285742Y-134608000D01*
X179305796Y-134611989D01*
G37*
G36*
X176765796Y-134611989D02*
G01*
X176919812Y-134642624D01*
X177083784Y-134710544D01*
X177231354Y-134809147D01*
X177356853Y-134934646D01*
X177455456Y-135082216D01*
X177523376Y-135246188D01*
X177558000Y-135420259D01*
X177558000Y-135597741D01*
X177523376Y-135771812D01*
X177455456Y-135935784D01*
X177356853Y-136083354D01*
X177231354Y-136208853D01*
X177083784Y-136307456D01*
X176919812Y-136375376D01*
X176771341Y-136404908D01*
X176745742Y-136410000D01*
X176568258Y-136410000D01*
X176542659Y-136404908D01*
X176394188Y-136375376D01*
X176230216Y-136307456D01*
X176082646Y-136208853D01*
X175957147Y-136083354D01*
X175858544Y-135935784D01*
X175790624Y-135771812D01*
X175756000Y-135597741D01*
X175756000Y-135420259D01*
X175790624Y-135246188D01*
X175858544Y-135082216D01*
X175957147Y-134934646D01*
X176082646Y-134809147D01*
X176230216Y-134710544D01*
X176394188Y-134642624D01*
X176548204Y-134611989D01*
X176568258Y-134608000D01*
X176745742Y-134608000D01*
X176765796Y-134611989D01*
G37*
G36*
X174225796Y-134611989D02*
G01*
X174379812Y-134642624D01*
X174543784Y-134710544D01*
X174691354Y-134809147D01*
X174816853Y-134934646D01*
X174915456Y-135082216D01*
X174983376Y-135246188D01*
X175018000Y-135420259D01*
X175018000Y-135597741D01*
X174983376Y-135771812D01*
X174915456Y-135935784D01*
X174816853Y-136083354D01*
X174691354Y-136208853D01*
X174543784Y-136307456D01*
X174379812Y-136375376D01*
X174231341Y-136404908D01*
X174205742Y-136410000D01*
X174028258Y-136410000D01*
X174002659Y-136404908D01*
X173854188Y-136375376D01*
X173690216Y-136307456D01*
X173542646Y-136208853D01*
X173417147Y-136083354D01*
X173318544Y-135935784D01*
X173250624Y-135771812D01*
X173216000Y-135597741D01*
X173216000Y-135420259D01*
X173250624Y-135246188D01*
X173318544Y-135082216D01*
X173417147Y-134934646D01*
X173542646Y-134809147D01*
X173690216Y-134710544D01*
X173854188Y-134642624D01*
X174008204Y-134611989D01*
X174028258Y-134608000D01*
X174205742Y-134608000D01*
X174225796Y-134611989D01*
G37*
G36*
X171685796Y-134611989D02*
G01*
X171839812Y-134642624D01*
X172003784Y-134710544D01*
X172151354Y-134809147D01*
X172276853Y-134934646D01*
X172375456Y-135082216D01*
X172443376Y-135246188D01*
X172478000Y-135420259D01*
X172478000Y-135597741D01*
X172443376Y-135771812D01*
X172375456Y-135935784D01*
X172276853Y-136083354D01*
X172151354Y-136208853D01*
X172003784Y-136307456D01*
X171839812Y-136375376D01*
X171691341Y-136404908D01*
X171665742Y-136410000D01*
X171488258Y-136410000D01*
X171462659Y-136404908D01*
X171314188Y-136375376D01*
X171150216Y-136307456D01*
X171002646Y-136208853D01*
X170877147Y-136083354D01*
X170778544Y-135935784D01*
X170710624Y-135771812D01*
X170676000Y-135597741D01*
X170676000Y-135420259D01*
X170710624Y-135246188D01*
X170778544Y-135082216D01*
X170877147Y-134934646D01*
X171002646Y-134809147D01*
X171150216Y-134710544D01*
X171314188Y-134642624D01*
X171468204Y-134611989D01*
X171488258Y-134608000D01*
X171665742Y-134608000D01*
X171685796Y-134611989D01*
G37*
G36*
X192655600Y-134611989D02*
G01*
X192688652Y-134622015D01*
X192719103Y-134638292D01*
X192745799Y-134660201D01*
X192767708Y-134686897D01*
X192783985Y-134717348D01*
X192794011Y-134750400D01*
X192798000Y-134790903D01*
X192798000Y-136227097D01*
X192794011Y-136267600D01*
X192783985Y-136300652D01*
X192767708Y-136331103D01*
X192745799Y-136357799D01*
X192719103Y-136379708D01*
X192688652Y-136395985D01*
X192655600Y-136406011D01*
X192615097Y-136410000D01*
X191178903Y-136410000D01*
X191138400Y-136406011D01*
X191105348Y-136395985D01*
X191074897Y-136379708D01*
X191048201Y-136357799D01*
X191026292Y-136331103D01*
X191010015Y-136300652D01*
X190999989Y-136267600D01*
X190996000Y-136227097D01*
X190996000Y-134790903D01*
X190999989Y-134750400D01*
X191010015Y-134717348D01*
X191026292Y-134686897D01*
X191048201Y-134660201D01*
X191074897Y-134638292D01*
X191105348Y-134622015D01*
X191138400Y-134611989D01*
X191178903Y-134608000D01*
X192615097Y-134608000D01*
X192655600Y-134611989D01*
G37*
G36*
X166605796Y-134611989D02*
G01*
X166759812Y-134642624D01*
X166923784Y-134710544D01*
X167071354Y-134809147D01*
X167196853Y-134934646D01*
X167295456Y-135082216D01*
X167363376Y-135246188D01*
X167398000Y-135420259D01*
X167398000Y-135597741D01*
X167363376Y-135771812D01*
X167295456Y-135935784D01*
X167196853Y-136083354D01*
X167071354Y-136208853D01*
X166923784Y-136307456D01*
X166759812Y-136375376D01*
X166611341Y-136404908D01*
X166585742Y-136410000D01*
X166408258Y-136410000D01*
X166382659Y-136404908D01*
X166234188Y-136375376D01*
X166070216Y-136307456D01*
X165922646Y-136208853D01*
X165797147Y-136083354D01*
X165698544Y-135935784D01*
X165630624Y-135771812D01*
X165596000Y-135597741D01*
X165596000Y-135420259D01*
X165630624Y-135246188D01*
X165698544Y-135082216D01*
X165797147Y-134934646D01*
X165922646Y-134809147D01*
X166070216Y-134710544D01*
X166234188Y-134642624D01*
X166388204Y-134611989D01*
X166408258Y-134608000D01*
X166585742Y-134608000D01*
X166605796Y-134611989D01*
G37*
G36*
X164065796Y-134611989D02*
G01*
X164219812Y-134642624D01*
X164383784Y-134710544D01*
X164531354Y-134809147D01*
X164656853Y-134934646D01*
X164755456Y-135082216D01*
X164823376Y-135246188D01*
X164858000Y-135420259D01*
X164858000Y-135597741D01*
X164823376Y-135771812D01*
X164755456Y-135935784D01*
X164656853Y-136083354D01*
X164531354Y-136208853D01*
X164383784Y-136307456D01*
X164219812Y-136375376D01*
X164071341Y-136404908D01*
X164045742Y-136410000D01*
X163868258Y-136410000D01*
X163842659Y-136404908D01*
X163694188Y-136375376D01*
X163530216Y-136307456D01*
X163382646Y-136208853D01*
X163257147Y-136083354D01*
X163158544Y-135935784D01*
X163090624Y-135771812D01*
X163056000Y-135597741D01*
X163056000Y-135420259D01*
X163090624Y-135246188D01*
X163158544Y-135082216D01*
X163257147Y-134934646D01*
X163382646Y-134809147D01*
X163530216Y-134710544D01*
X163694188Y-134642624D01*
X163848204Y-134611989D01*
X163868258Y-134608000D01*
X164045742Y-134608000D01*
X164065796Y-134611989D01*
G37*
G36*
X161525796Y-134611989D02*
G01*
X161679812Y-134642624D01*
X161843784Y-134710544D01*
X161991354Y-134809147D01*
X162116853Y-134934646D01*
X162215456Y-135082216D01*
X162283376Y-135246188D01*
X162318000Y-135420259D01*
X162318000Y-135597741D01*
X162283376Y-135771812D01*
X162215456Y-135935784D01*
X162116853Y-136083354D01*
X161991354Y-136208853D01*
X161843784Y-136307456D01*
X161679812Y-136375376D01*
X161531341Y-136404908D01*
X161505742Y-136410000D01*
X161328258Y-136410000D01*
X161302659Y-136404908D01*
X161154188Y-136375376D01*
X160990216Y-136307456D01*
X160842646Y-136208853D01*
X160717147Y-136083354D01*
X160618544Y-135935784D01*
X160550624Y-135771812D01*
X160516000Y-135597741D01*
X160516000Y-135420259D01*
X160550624Y-135246188D01*
X160618544Y-135082216D01*
X160717147Y-134934646D01*
X160842646Y-134809147D01*
X160990216Y-134710544D01*
X161154188Y-134642624D01*
X161308204Y-134611989D01*
X161328258Y-134608000D01*
X161505742Y-134608000D01*
X161525796Y-134611989D01*
G37*
G36*
X158985796Y-134611989D02*
G01*
X159139812Y-134642624D01*
X159303784Y-134710544D01*
X159451354Y-134809147D01*
X159576853Y-134934646D01*
X159675456Y-135082216D01*
X159743376Y-135246188D01*
X159778000Y-135420259D01*
X159778000Y-135597741D01*
X159743376Y-135771812D01*
X159675456Y-135935784D01*
X159576853Y-136083354D01*
X159451354Y-136208853D01*
X159303784Y-136307456D01*
X159139812Y-136375376D01*
X158991341Y-136404908D01*
X158965742Y-136410000D01*
X158788258Y-136410000D01*
X158762659Y-136404908D01*
X158614188Y-136375376D01*
X158450216Y-136307456D01*
X158302646Y-136208853D01*
X158177147Y-136083354D01*
X158078544Y-135935784D01*
X158010624Y-135771812D01*
X157976000Y-135597741D01*
X157976000Y-135420259D01*
X158010624Y-135246188D01*
X158078544Y-135082216D01*
X158177147Y-134934646D01*
X158302646Y-134809147D01*
X158450216Y-134710544D01*
X158614188Y-134642624D01*
X158768204Y-134611989D01*
X158788258Y-134608000D01*
X158965742Y-134608000D01*
X158985796Y-134611989D01*
G37*
G36*
X156445796Y-134611989D02*
G01*
X156599812Y-134642624D01*
X156763784Y-134710544D01*
X156911354Y-134809147D01*
X157036853Y-134934646D01*
X157135456Y-135082216D01*
X157203376Y-135246188D01*
X157238000Y-135420259D01*
X157238000Y-135597741D01*
X157203376Y-135771812D01*
X157135456Y-135935784D01*
X157036853Y-136083354D01*
X156911354Y-136208853D01*
X156763784Y-136307456D01*
X156599812Y-136375376D01*
X156451341Y-136404908D01*
X156425742Y-136410000D01*
X156248258Y-136410000D01*
X156222659Y-136404908D01*
X156074188Y-136375376D01*
X155910216Y-136307456D01*
X155762646Y-136208853D01*
X155637147Y-136083354D01*
X155538544Y-135935784D01*
X155470624Y-135771812D01*
X155436000Y-135597741D01*
X155436000Y-135420259D01*
X155470624Y-135246188D01*
X155538544Y-135082216D01*
X155637147Y-134934646D01*
X155762646Y-134809147D01*
X155910216Y-134710544D01*
X156074188Y-134642624D01*
X156228204Y-134611989D01*
X156248258Y-134608000D01*
X156425742Y-134608000D01*
X156445796Y-134611989D01*
G37*
G36*
X169145796Y-134611989D02*
G01*
X169299812Y-134642624D01*
X169463784Y-134710544D01*
X169611354Y-134809147D01*
X169736853Y-134934646D01*
X169835456Y-135082216D01*
X169903376Y-135246188D01*
X169938000Y-135420259D01*
X169938000Y-135597741D01*
X169903376Y-135771812D01*
X169835456Y-135935784D01*
X169736853Y-136083354D01*
X169611354Y-136208853D01*
X169463784Y-136307456D01*
X169299812Y-136375376D01*
X169151341Y-136404908D01*
X169125742Y-136410000D01*
X168948258Y-136410000D01*
X168922659Y-136404908D01*
X168774188Y-136375376D01*
X168610216Y-136307456D01*
X168462646Y-136208853D01*
X168337147Y-136083354D01*
X168238544Y-135935784D01*
X168170624Y-135771812D01*
X168136000Y-135597741D01*
X168136000Y-135420259D01*
X168170624Y-135246188D01*
X168238544Y-135082216D01*
X168337147Y-134934646D01*
X168462646Y-134809147D01*
X168610216Y-134710544D01*
X168774188Y-134642624D01*
X168928204Y-134611989D01*
X168948258Y-134608000D01*
X169125742Y-134608000D01*
X169145796Y-134611989D01*
G37*
G36*
X153537228Y-128086703D02*
G01*
X153692100Y-128150853D01*
X153831481Y-128243985D01*
X153950015Y-128362519D01*
X154043147Y-128501900D01*
X154107297Y-128656772D01*
X154140000Y-128821184D01*
X154140000Y-128988816D01*
X154107297Y-129153228D01*
X154043147Y-129308100D01*
X153950015Y-129447481D01*
X153831481Y-129566015D01*
X153692100Y-129659147D01*
X153537228Y-129723297D01*
X153372816Y-129756000D01*
X153205184Y-129756000D01*
X153040772Y-129723297D01*
X152885900Y-129659147D01*
X152746519Y-129566015D01*
X152627985Y-129447481D01*
X152534853Y-129308100D01*
X152470703Y-129153228D01*
X152438000Y-128988816D01*
X152438000Y-128821184D01*
X152470703Y-128656772D01*
X152534853Y-128501900D01*
X152627985Y-128362519D01*
X152746519Y-128243985D01*
X152885900Y-128150853D01*
X153040772Y-128086703D01*
X153205184Y-128054000D01*
X153372816Y-128054000D01*
X153537228Y-128086703D01*
G37*
G36*
X137027228Y-128086703D02*
G01*
X137182100Y-128150853D01*
X137321481Y-128243985D01*
X137440015Y-128362519D01*
X137533147Y-128501900D01*
X137597297Y-128656772D01*
X137630000Y-128821184D01*
X137630000Y-128988816D01*
X137597297Y-129153228D01*
X137533147Y-129308100D01*
X137440015Y-129447481D01*
X137321481Y-129566015D01*
X137182100Y-129659147D01*
X137027228Y-129723297D01*
X136862816Y-129756000D01*
X136695184Y-129756000D01*
X136530772Y-129723297D01*
X136375900Y-129659147D01*
X136236519Y-129566015D01*
X136117985Y-129447481D01*
X136024853Y-129308100D01*
X135960703Y-129153228D01*
X135928000Y-128988816D01*
X135928000Y-128821184D01*
X135960703Y-128656772D01*
X136024853Y-128501900D01*
X136117985Y-128362519D01*
X136236519Y-128243985D01*
X136375900Y-128150853D01*
X136530772Y-128086703D01*
X136695184Y-128054000D01*
X136862816Y-128054000D01*
X137027228Y-128086703D01*
G37*
G36*
X158617228Y-128086703D02*
G01*
X158772100Y-128150853D01*
X158911481Y-128243985D01*
X159030015Y-128362519D01*
X159123147Y-128501900D01*
X159187297Y-128656772D01*
X159220000Y-128821184D01*
X159220000Y-128988816D01*
X159187297Y-129153228D01*
X159123147Y-129308100D01*
X159030015Y-129447481D01*
X158911481Y-129566015D01*
X158772100Y-129659147D01*
X158617228Y-129723297D01*
X158452816Y-129756000D01*
X158285184Y-129756000D01*
X158120772Y-129723297D01*
X157965900Y-129659147D01*
X157826519Y-129566015D01*
X157707985Y-129447481D01*
X157614853Y-129308100D01*
X157550703Y-129153228D01*
X157518000Y-128988816D01*
X157518000Y-128821184D01*
X157550703Y-128656772D01*
X157614853Y-128501900D01*
X157707985Y-128362519D01*
X157826519Y-128243985D01*
X157965900Y-128150853D01*
X158120772Y-128086703D01*
X158285184Y-128054000D01*
X158452816Y-128054000D01*
X158617228Y-128086703D01*
G37*
G36*
X161157228Y-128086703D02*
G01*
X161312100Y-128150853D01*
X161451481Y-128243985D01*
X161570015Y-128362519D01*
X161663147Y-128501900D01*
X161727297Y-128656772D01*
X161760000Y-128821184D01*
X161760000Y-128988816D01*
X161727297Y-129153228D01*
X161663147Y-129308100D01*
X161570015Y-129447481D01*
X161451481Y-129566015D01*
X161312100Y-129659147D01*
X161157228Y-129723297D01*
X160992816Y-129756000D01*
X160825184Y-129756000D01*
X160660772Y-129723297D01*
X160505900Y-129659147D01*
X160366519Y-129566015D01*
X160247985Y-129447481D01*
X160154853Y-129308100D01*
X160090703Y-129153228D01*
X160058000Y-128988816D01*
X160058000Y-128821184D01*
X160090703Y-128656772D01*
X160154853Y-128501900D01*
X160247985Y-128362519D01*
X160366519Y-128243985D01*
X160505900Y-128150853D01*
X160660772Y-128086703D01*
X160825184Y-128054000D01*
X160992816Y-128054000D01*
X161157228Y-128086703D01*
G37*
G36*
X163697228Y-128086703D02*
G01*
X163852100Y-128150853D01*
X163991481Y-128243985D01*
X164110015Y-128362519D01*
X164203147Y-128501900D01*
X164267297Y-128656772D01*
X164300000Y-128821184D01*
X164300000Y-128988816D01*
X164267297Y-129153228D01*
X164203147Y-129308100D01*
X164110015Y-129447481D01*
X163991481Y-129566015D01*
X163852100Y-129659147D01*
X163697228Y-129723297D01*
X163532816Y-129756000D01*
X163365184Y-129756000D01*
X163200772Y-129723297D01*
X163045900Y-129659147D01*
X162906519Y-129566015D01*
X162787985Y-129447481D01*
X162694853Y-129308100D01*
X162630703Y-129153228D01*
X162598000Y-128988816D01*
X162598000Y-128821184D01*
X162630703Y-128656772D01*
X162694853Y-128501900D01*
X162787985Y-128362519D01*
X162906519Y-128243985D01*
X163045900Y-128150853D01*
X163200772Y-128086703D01*
X163365184Y-128054000D01*
X163532816Y-128054000D01*
X163697228Y-128086703D01*
G37*
G36*
X166237228Y-128086703D02*
G01*
X166392100Y-128150853D01*
X166531481Y-128243985D01*
X166650015Y-128362519D01*
X166743147Y-128501900D01*
X166807297Y-128656772D01*
X166840000Y-128821184D01*
X166840000Y-128988816D01*
X166807297Y-129153228D01*
X166743147Y-129308100D01*
X166650015Y-129447481D01*
X166531481Y-129566015D01*
X166392100Y-129659147D01*
X166237228Y-129723297D01*
X166072816Y-129756000D01*
X165905184Y-129756000D01*
X165740772Y-129723297D01*
X165585900Y-129659147D01*
X165446519Y-129566015D01*
X165327985Y-129447481D01*
X165234853Y-129308100D01*
X165170703Y-129153228D01*
X165138000Y-128988816D01*
X165138000Y-128821184D01*
X165170703Y-128656772D01*
X165234853Y-128501900D01*
X165327985Y-128362519D01*
X165446519Y-128243985D01*
X165585900Y-128150853D01*
X165740772Y-128086703D01*
X165905184Y-128054000D01*
X166072816Y-128054000D01*
X166237228Y-128086703D01*
G37*
G36*
X168777228Y-128086703D02*
G01*
X168932100Y-128150853D01*
X169071481Y-128243985D01*
X169190015Y-128362519D01*
X169283147Y-128501900D01*
X169347297Y-128656772D01*
X169380000Y-128821184D01*
X169380000Y-128988816D01*
X169347297Y-129153228D01*
X169283147Y-129308100D01*
X169190015Y-129447481D01*
X169071481Y-129566015D01*
X168932100Y-129659147D01*
X168777228Y-129723297D01*
X168612816Y-129756000D01*
X168445184Y-129756000D01*
X168280772Y-129723297D01*
X168125900Y-129659147D01*
X167986519Y-129566015D01*
X167867985Y-129447481D01*
X167774853Y-129308100D01*
X167710703Y-129153228D01*
X167678000Y-128988816D01*
X167678000Y-128821184D01*
X167710703Y-128656772D01*
X167774853Y-128501900D01*
X167867985Y-128362519D01*
X167986519Y-128243985D01*
X168125900Y-128150853D01*
X168280772Y-128086703D01*
X168445184Y-128054000D01*
X168612816Y-128054000D01*
X168777228Y-128086703D01*
G37*
G36*
X171317228Y-128086703D02*
G01*
X171472100Y-128150853D01*
X171611481Y-128243985D01*
X171730015Y-128362519D01*
X171823147Y-128501900D01*
X171887297Y-128656772D01*
X171920000Y-128821184D01*
X171920000Y-128988816D01*
X171887297Y-129153228D01*
X171823147Y-129308100D01*
X171730015Y-129447481D01*
X171611481Y-129566015D01*
X171472100Y-129659147D01*
X171317228Y-129723297D01*
X171152816Y-129756000D01*
X170985184Y-129756000D01*
X170820772Y-129723297D01*
X170665900Y-129659147D01*
X170526519Y-129566015D01*
X170407985Y-129447481D01*
X170314853Y-129308100D01*
X170250703Y-129153228D01*
X170218000Y-128988816D01*
X170218000Y-128821184D01*
X170250703Y-128656772D01*
X170314853Y-128501900D01*
X170407985Y-128362519D01*
X170526519Y-128243985D01*
X170665900Y-128150853D01*
X170820772Y-128086703D01*
X170985184Y-128054000D01*
X171152816Y-128054000D01*
X171317228Y-128086703D01*
G37*
G36*
X124327228Y-128086703D02*
G01*
X124482100Y-128150853D01*
X124621481Y-128243985D01*
X124740015Y-128362519D01*
X124833147Y-128501900D01*
X124897297Y-128656772D01*
X124930000Y-128821184D01*
X124930000Y-128988816D01*
X124897297Y-129153228D01*
X124833147Y-129308100D01*
X124740015Y-129447481D01*
X124621481Y-129566015D01*
X124482100Y-129659147D01*
X124327228Y-129723297D01*
X124162816Y-129756000D01*
X123995184Y-129756000D01*
X123830772Y-129723297D01*
X123675900Y-129659147D01*
X123536519Y-129566015D01*
X123417985Y-129447481D01*
X123324853Y-129308100D01*
X123260703Y-129153228D01*
X123228000Y-128988816D01*
X123228000Y-128821184D01*
X123260703Y-128656772D01*
X123324853Y-128501900D01*
X123417985Y-128362519D01*
X123536519Y-128243985D01*
X123675900Y-128150853D01*
X123830772Y-128086703D01*
X123995184Y-128054000D01*
X124162816Y-128054000D01*
X124327228Y-128086703D01*
G37*
G36*
X126867228Y-128086703D02*
G01*
X127022100Y-128150853D01*
X127161481Y-128243985D01*
X127280015Y-128362519D01*
X127373147Y-128501900D01*
X127437297Y-128656772D01*
X127470000Y-128821184D01*
X127470000Y-128988816D01*
X127437297Y-129153228D01*
X127373147Y-129308100D01*
X127280015Y-129447481D01*
X127161481Y-129566015D01*
X127022100Y-129659147D01*
X126867228Y-129723297D01*
X126702816Y-129756000D01*
X126535184Y-129756000D01*
X126370772Y-129723297D01*
X126215900Y-129659147D01*
X126076519Y-129566015D01*
X125957985Y-129447481D01*
X125864853Y-129308100D01*
X125800703Y-129153228D01*
X125768000Y-128988816D01*
X125768000Y-128821184D01*
X125800703Y-128656772D01*
X125864853Y-128501900D01*
X125957985Y-128362519D01*
X126076519Y-128243985D01*
X126215900Y-128150853D01*
X126370772Y-128086703D01*
X126535184Y-128054000D01*
X126702816Y-128054000D01*
X126867228Y-128086703D01*
G37*
G36*
X129407228Y-128086703D02*
G01*
X129562100Y-128150853D01*
X129701481Y-128243985D01*
X129820015Y-128362519D01*
X129913147Y-128501900D01*
X129977297Y-128656772D01*
X130010000Y-128821184D01*
X130010000Y-128988816D01*
X129977297Y-129153228D01*
X129913147Y-129308100D01*
X129820015Y-129447481D01*
X129701481Y-129566015D01*
X129562100Y-129659147D01*
X129407228Y-129723297D01*
X129242816Y-129756000D01*
X129075184Y-129756000D01*
X128910772Y-129723297D01*
X128755900Y-129659147D01*
X128616519Y-129566015D01*
X128497985Y-129447481D01*
X128404853Y-129308100D01*
X128340703Y-129153228D01*
X128308000Y-128988816D01*
X128308000Y-128821184D01*
X128340703Y-128656772D01*
X128404853Y-128501900D01*
X128497985Y-128362519D01*
X128616519Y-128243985D01*
X128755900Y-128150853D01*
X128910772Y-128086703D01*
X129075184Y-128054000D01*
X129242816Y-128054000D01*
X129407228Y-128086703D01*
G37*
G36*
X131947228Y-128086703D02*
G01*
X132102100Y-128150853D01*
X132241481Y-128243985D01*
X132360015Y-128362519D01*
X132453147Y-128501900D01*
X132517297Y-128656772D01*
X132550000Y-128821184D01*
X132550000Y-128988816D01*
X132517297Y-129153228D01*
X132453147Y-129308100D01*
X132360015Y-129447481D01*
X132241481Y-129566015D01*
X132102100Y-129659147D01*
X131947228Y-129723297D01*
X131782816Y-129756000D01*
X131615184Y-129756000D01*
X131450772Y-129723297D01*
X131295900Y-129659147D01*
X131156519Y-129566015D01*
X131037985Y-129447481D01*
X130944853Y-129308100D01*
X130880703Y-129153228D01*
X130848000Y-128988816D01*
X130848000Y-128821184D01*
X130880703Y-128656772D01*
X130944853Y-128501900D01*
X131037985Y-128362519D01*
X131156519Y-128243985D01*
X131295900Y-128150853D01*
X131450772Y-128086703D01*
X131615184Y-128054000D01*
X131782816Y-128054000D01*
X131947228Y-128086703D01*
G37*
G36*
X134487228Y-128086703D02*
G01*
X134642100Y-128150853D01*
X134781481Y-128243985D01*
X134900015Y-128362519D01*
X134993147Y-128501900D01*
X135057297Y-128656772D01*
X135090000Y-128821184D01*
X135090000Y-128988816D01*
X135057297Y-129153228D01*
X134993147Y-129308100D01*
X134900015Y-129447481D01*
X134781481Y-129566015D01*
X134642100Y-129659147D01*
X134487228Y-129723297D01*
X134322816Y-129756000D01*
X134155184Y-129756000D01*
X133990772Y-129723297D01*
X133835900Y-129659147D01*
X133696519Y-129566015D01*
X133577985Y-129447481D01*
X133484853Y-129308100D01*
X133420703Y-129153228D01*
X133388000Y-128988816D01*
X133388000Y-128821184D01*
X133420703Y-128656772D01*
X133484853Y-128501900D01*
X133577985Y-128362519D01*
X133696519Y-128243985D01*
X133835900Y-128150853D01*
X133990772Y-128086703D01*
X134155184Y-128054000D01*
X134322816Y-128054000D01*
X134487228Y-128086703D01*
G37*
G36*
X148457228Y-128086703D02*
G01*
X148612100Y-128150853D01*
X148751481Y-128243985D01*
X148870015Y-128362519D01*
X148963147Y-128501900D01*
X149027297Y-128656772D01*
X149060000Y-128821184D01*
X149060000Y-128988816D01*
X149027297Y-129153228D01*
X148963147Y-129308100D01*
X148870015Y-129447481D01*
X148751481Y-129566015D01*
X148612100Y-129659147D01*
X148457228Y-129723297D01*
X148292816Y-129756000D01*
X148125184Y-129756000D01*
X147960772Y-129723297D01*
X147805900Y-129659147D01*
X147666519Y-129566015D01*
X147547985Y-129447481D01*
X147454853Y-129308100D01*
X147390703Y-129153228D01*
X147358000Y-128988816D01*
X147358000Y-128821184D01*
X147390703Y-128656772D01*
X147454853Y-128501900D01*
X147547985Y-128362519D01*
X147666519Y-128243985D01*
X147805900Y-128150853D01*
X147960772Y-128086703D01*
X148125184Y-128054000D01*
X148292816Y-128054000D01*
X148457228Y-128086703D01*
G37*
G36*
X150997228Y-128086703D02*
G01*
X151152100Y-128150853D01*
X151291481Y-128243985D01*
X151410015Y-128362519D01*
X151503147Y-128501900D01*
X151567297Y-128656772D01*
X151600000Y-128821184D01*
X151600000Y-128988816D01*
X151567297Y-129153228D01*
X151503147Y-129308100D01*
X151410015Y-129447481D01*
X151291481Y-129566015D01*
X151152100Y-129659147D01*
X150997228Y-129723297D01*
X150832816Y-129756000D01*
X150665184Y-129756000D01*
X150500772Y-129723297D01*
X150345900Y-129659147D01*
X150206519Y-129566015D01*
X150087985Y-129447481D01*
X149994853Y-129308100D01*
X149930703Y-129153228D01*
X149898000Y-128988816D01*
X149898000Y-128821184D01*
X149930703Y-128656772D01*
X149994853Y-128501900D01*
X150087985Y-128362519D01*
X150206519Y-128243985D01*
X150345900Y-128150853D01*
X150500772Y-128086703D01*
X150665184Y-128054000D01*
X150832816Y-128054000D01*
X150997228Y-128086703D01*
G37*
G36*
X139567228Y-128086703D02*
G01*
X139722100Y-128150853D01*
X139861481Y-128243985D01*
X139980015Y-128362519D01*
X140073147Y-128501900D01*
X140137297Y-128656772D01*
X140170000Y-128821184D01*
X140170000Y-128988816D01*
X140137297Y-129153228D01*
X140073147Y-129308100D01*
X139980015Y-129447481D01*
X139861481Y-129566015D01*
X139722100Y-129659147D01*
X139567228Y-129723297D01*
X139402816Y-129756000D01*
X139235184Y-129756000D01*
X139070772Y-129723297D01*
X138915900Y-129659147D01*
X138776519Y-129566015D01*
X138657985Y-129447481D01*
X138564853Y-129308100D01*
X138500703Y-129153228D01*
X138468000Y-128988816D01*
X138468000Y-128821184D01*
X138500703Y-128656772D01*
X138564853Y-128501900D01*
X138657985Y-128362519D01*
X138776519Y-128243985D01*
X138915900Y-128150853D01*
X139070772Y-128086703D01*
X139235184Y-128054000D01*
X139402816Y-128054000D01*
X139567228Y-128086703D01*
G37*
G36*
X205099228Y-128086703D02*
G01*
X205254100Y-128150853D01*
X205393481Y-128243985D01*
X205512015Y-128362519D01*
X205605147Y-128501900D01*
X205669297Y-128656772D01*
X205702000Y-128821184D01*
X205702000Y-128988816D01*
X205669297Y-129153228D01*
X205605147Y-129308100D01*
X205512015Y-129447481D01*
X205393481Y-129566015D01*
X205254100Y-129659147D01*
X205099228Y-129723297D01*
X204934816Y-129756000D01*
X204767184Y-129756000D01*
X204602772Y-129723297D01*
X204447900Y-129659147D01*
X204308519Y-129566015D01*
X204189985Y-129447481D01*
X204096853Y-129308100D01*
X204032703Y-129153228D01*
X204000000Y-128988816D01*
X204000000Y-128821184D01*
X204032703Y-128656772D01*
X204096853Y-128501900D01*
X204189985Y-128362519D01*
X204308519Y-128243985D01*
X204447900Y-128150853D01*
X204602772Y-128086703D01*
X204767184Y-128054000D01*
X204934816Y-128054000D01*
X205099228Y-128086703D01*
G37*
G36*
X156077228Y-128086703D02*
G01*
X156232100Y-128150853D01*
X156371481Y-128243985D01*
X156490015Y-128362519D01*
X156583147Y-128501900D01*
X156647297Y-128656772D01*
X156680000Y-128821184D01*
X156680000Y-128988816D01*
X156647297Y-129153228D01*
X156583147Y-129308100D01*
X156490015Y-129447481D01*
X156371481Y-129566015D01*
X156232100Y-129659147D01*
X156077228Y-129723297D01*
X155912816Y-129756000D01*
X155745184Y-129756000D01*
X155580772Y-129723297D01*
X155425900Y-129659147D01*
X155286519Y-129566015D01*
X155167985Y-129447481D01*
X155074853Y-129308100D01*
X155010703Y-129153228D01*
X154978000Y-128988816D01*
X154978000Y-128821184D01*
X155010703Y-128656772D01*
X155074853Y-128501900D01*
X155167985Y-128362519D01*
X155286519Y-128243985D01*
X155425900Y-128150853D01*
X155580772Y-128086703D01*
X155745184Y-128054000D01*
X155912816Y-128054000D01*
X156077228Y-128086703D01*
G37*
G36*
X202559228Y-128086703D02*
G01*
X202714100Y-128150853D01*
X202853481Y-128243985D01*
X202972015Y-128362519D01*
X203065147Y-128501900D01*
X203129297Y-128656772D01*
X203162000Y-128821184D01*
X203162000Y-128988816D01*
X203129297Y-129153228D01*
X203065147Y-129308100D01*
X202972015Y-129447481D01*
X202853481Y-129566015D01*
X202714100Y-129659147D01*
X202559228Y-129723297D01*
X202394816Y-129756000D01*
X202227184Y-129756000D01*
X202062772Y-129723297D01*
X201907900Y-129659147D01*
X201768519Y-129566015D01*
X201649985Y-129447481D01*
X201556853Y-129308100D01*
X201492703Y-129153228D01*
X201460000Y-128988816D01*
X201460000Y-128821184D01*
X201492703Y-128656772D01*
X201556853Y-128501900D01*
X201649985Y-128362519D01*
X201768519Y-128243985D01*
X201907900Y-128150853D01*
X202062772Y-128086703D01*
X202227184Y-128054000D01*
X202394816Y-128054000D01*
X202559228Y-128086703D01*
G37*
G36*
X200019228Y-128086703D02*
G01*
X200174100Y-128150853D01*
X200313481Y-128243985D01*
X200432015Y-128362519D01*
X200525147Y-128501900D01*
X200589297Y-128656772D01*
X200622000Y-128821184D01*
X200622000Y-128988816D01*
X200589297Y-129153228D01*
X200525147Y-129308100D01*
X200432015Y-129447481D01*
X200313481Y-129566015D01*
X200174100Y-129659147D01*
X200019228Y-129723297D01*
X199854816Y-129756000D01*
X199687184Y-129756000D01*
X199522772Y-129723297D01*
X199367900Y-129659147D01*
X199228519Y-129566015D01*
X199109985Y-129447481D01*
X199016853Y-129308100D01*
X198952703Y-129153228D01*
X198920000Y-128988816D01*
X198920000Y-128821184D01*
X198952703Y-128656772D01*
X199016853Y-128501900D01*
X199109985Y-128362519D01*
X199228519Y-128243985D01*
X199367900Y-128150853D01*
X199522772Y-128086703D01*
X199687184Y-128054000D01*
X199854816Y-128054000D01*
X200019228Y-128086703D01*
G37*
G36*
X197479228Y-128086703D02*
G01*
X197634100Y-128150853D01*
X197773481Y-128243985D01*
X197892015Y-128362519D01*
X197985147Y-128501900D01*
X198049297Y-128656772D01*
X198082000Y-128821184D01*
X198082000Y-128988816D01*
X198049297Y-129153228D01*
X197985147Y-129308100D01*
X197892015Y-129447481D01*
X197773481Y-129566015D01*
X197634100Y-129659147D01*
X197479228Y-129723297D01*
X197314816Y-129756000D01*
X197147184Y-129756000D01*
X196982772Y-129723297D01*
X196827900Y-129659147D01*
X196688519Y-129566015D01*
X196569985Y-129447481D01*
X196476853Y-129308100D01*
X196412703Y-129153228D01*
X196380000Y-128988816D01*
X196380000Y-128821184D01*
X196412703Y-128656772D01*
X196476853Y-128501900D01*
X196569985Y-128362519D01*
X196688519Y-128243985D01*
X196827900Y-128150853D01*
X196982772Y-128086703D01*
X197147184Y-128054000D01*
X197314816Y-128054000D01*
X197479228Y-128086703D01*
G37*
G36*
X194939228Y-128086703D02*
G01*
X195094100Y-128150853D01*
X195233481Y-128243985D01*
X195352015Y-128362519D01*
X195445147Y-128501900D01*
X195509297Y-128656772D01*
X195542000Y-128821184D01*
X195542000Y-128988816D01*
X195509297Y-129153228D01*
X195445147Y-129308100D01*
X195352015Y-129447481D01*
X195233481Y-129566015D01*
X195094100Y-129659147D01*
X194939228Y-129723297D01*
X194774816Y-129756000D01*
X194607184Y-129756000D01*
X194442772Y-129723297D01*
X194287900Y-129659147D01*
X194148519Y-129566015D01*
X194029985Y-129447481D01*
X193936853Y-129308100D01*
X193872703Y-129153228D01*
X193840000Y-128988816D01*
X193840000Y-128821184D01*
X193872703Y-128656772D01*
X193936853Y-128501900D01*
X194029985Y-128362519D01*
X194148519Y-128243985D01*
X194287900Y-128150853D01*
X194442772Y-128086703D01*
X194607184Y-128054000D01*
X194774816Y-128054000D01*
X194939228Y-128086703D01*
G37*
G36*
X192399228Y-128086703D02*
G01*
X192554100Y-128150853D01*
X192693481Y-128243985D01*
X192812015Y-128362519D01*
X192905147Y-128501900D01*
X192969297Y-128656772D01*
X193002000Y-128821184D01*
X193002000Y-128988816D01*
X192969297Y-129153228D01*
X192905147Y-129308100D01*
X192812015Y-129447481D01*
X192693481Y-129566015D01*
X192554100Y-129659147D01*
X192399228Y-129723297D01*
X192234816Y-129756000D01*
X192067184Y-129756000D01*
X191902772Y-129723297D01*
X191747900Y-129659147D01*
X191608519Y-129566015D01*
X191489985Y-129447481D01*
X191396853Y-129308100D01*
X191332703Y-129153228D01*
X191300000Y-128988816D01*
X191300000Y-128821184D01*
X191332703Y-128656772D01*
X191396853Y-128501900D01*
X191489985Y-128362519D01*
X191608519Y-128243985D01*
X191747900Y-128150853D01*
X191902772Y-128086703D01*
X192067184Y-128054000D01*
X192234816Y-128054000D01*
X192399228Y-128086703D01*
G37*
G36*
X189859228Y-128086703D02*
G01*
X190014100Y-128150853D01*
X190153481Y-128243985D01*
X190272015Y-128362519D01*
X190365147Y-128501900D01*
X190429297Y-128656772D01*
X190462000Y-128821184D01*
X190462000Y-128988816D01*
X190429297Y-129153228D01*
X190365147Y-129308100D01*
X190272015Y-129447481D01*
X190153481Y-129566015D01*
X190014100Y-129659147D01*
X189859228Y-129723297D01*
X189694816Y-129756000D01*
X189527184Y-129756000D01*
X189362772Y-129723297D01*
X189207900Y-129659147D01*
X189068519Y-129566015D01*
X188949985Y-129447481D01*
X188856853Y-129308100D01*
X188792703Y-129153228D01*
X188760000Y-128988816D01*
X188760000Y-128821184D01*
X188792703Y-128656772D01*
X188856853Y-128501900D01*
X188949985Y-128362519D01*
X189068519Y-128243985D01*
X189207900Y-128150853D01*
X189362772Y-128086703D01*
X189527184Y-128054000D01*
X189694816Y-128054000D01*
X189859228Y-128086703D01*
G37*
G36*
X187319228Y-128086703D02*
G01*
X187474100Y-128150853D01*
X187613481Y-128243985D01*
X187732015Y-128362519D01*
X187825147Y-128501900D01*
X187889297Y-128656772D01*
X187922000Y-128821184D01*
X187922000Y-128988816D01*
X187889297Y-129153228D01*
X187825147Y-129308100D01*
X187732015Y-129447481D01*
X187613481Y-129566015D01*
X187474100Y-129659147D01*
X187319228Y-129723297D01*
X187154816Y-129756000D01*
X186987184Y-129756000D01*
X186822772Y-129723297D01*
X186667900Y-129659147D01*
X186528519Y-129566015D01*
X186409985Y-129447481D01*
X186316853Y-129308100D01*
X186252703Y-129153228D01*
X186220000Y-128988816D01*
X186220000Y-128821184D01*
X186252703Y-128656772D01*
X186316853Y-128501900D01*
X186409985Y-128362519D01*
X186528519Y-128243985D01*
X186667900Y-128150853D01*
X186822772Y-128086703D01*
X186987184Y-128054000D01*
X187154816Y-128054000D01*
X187319228Y-128086703D01*
G37*
G36*
X184779228Y-128086703D02*
G01*
X184934100Y-128150853D01*
X185073481Y-128243985D01*
X185192015Y-128362519D01*
X185285147Y-128501900D01*
X185349297Y-128656772D01*
X185382000Y-128821184D01*
X185382000Y-128988816D01*
X185349297Y-129153228D01*
X185285147Y-129308100D01*
X185192015Y-129447481D01*
X185073481Y-129566015D01*
X184934100Y-129659147D01*
X184779228Y-129723297D01*
X184614816Y-129756000D01*
X184447184Y-129756000D01*
X184282772Y-129723297D01*
X184127900Y-129659147D01*
X183988519Y-129566015D01*
X183869985Y-129447481D01*
X183776853Y-129308100D01*
X183712703Y-129153228D01*
X183680000Y-128988816D01*
X183680000Y-128821184D01*
X183712703Y-128656772D01*
X183776853Y-128501900D01*
X183869985Y-128362519D01*
X183988519Y-128243985D01*
X184127900Y-128150853D01*
X184282772Y-128086703D01*
X184447184Y-128054000D01*
X184614816Y-128054000D01*
X184779228Y-128086703D01*
G37*
G36*
X182239228Y-128086703D02*
G01*
X182394100Y-128150853D01*
X182533481Y-128243985D01*
X182652015Y-128362519D01*
X182745147Y-128501900D01*
X182809297Y-128656772D01*
X182842000Y-128821184D01*
X182842000Y-128988816D01*
X182809297Y-129153228D01*
X182745147Y-129308100D01*
X182652015Y-129447481D01*
X182533481Y-129566015D01*
X182394100Y-129659147D01*
X182239228Y-129723297D01*
X182074816Y-129756000D01*
X181907184Y-129756000D01*
X181742772Y-129723297D01*
X181587900Y-129659147D01*
X181448519Y-129566015D01*
X181329985Y-129447481D01*
X181236853Y-129308100D01*
X181172703Y-129153228D01*
X181140000Y-128988816D01*
X181140000Y-128821184D01*
X181172703Y-128656772D01*
X181236853Y-128501900D01*
X181329985Y-128362519D01*
X181448519Y-128243985D01*
X181587900Y-128150853D01*
X181742772Y-128086703D01*
X181907184Y-128054000D01*
X182074816Y-128054000D01*
X182239228Y-128086703D01*
G37*
G36*
X174873228Y-126736703D02*
G01*
X175028100Y-126800853D01*
X175167481Y-126893985D01*
X175286015Y-127012519D01*
X175379147Y-127151900D01*
X175443297Y-127306772D01*
X175476000Y-127471184D01*
X175476000Y-127638816D01*
X175443297Y-127803228D01*
X175379147Y-127958100D01*
X175286015Y-128097481D01*
X175167481Y-128216015D01*
X175028100Y-128309147D01*
X174873228Y-128373297D01*
X174708816Y-128406000D01*
X174541184Y-128406000D01*
X174376772Y-128373297D01*
X174221900Y-128309147D01*
X174082519Y-128216015D01*
X173963985Y-128097481D01*
X173870853Y-127958100D01*
X173806703Y-127803228D01*
X173774000Y-127638816D01*
X173774000Y-127471184D01*
X173806703Y-127306772D01*
X173870853Y-127151900D01*
X173963985Y-127012519D01*
X174082519Y-126893985D01*
X174221900Y-126800853D01*
X174376772Y-126736703D01*
X174541184Y-126704000D01*
X174708816Y-126704000D01*
X174873228Y-126736703D01*
G37*
G36*
X208782228Y-126736703D02*
G01*
X208937100Y-126800853D01*
X209076481Y-126893985D01*
X209195015Y-127012519D01*
X209288147Y-127151900D01*
X209352297Y-127306772D01*
X209385000Y-127471184D01*
X209385000Y-127638816D01*
X209352297Y-127803228D01*
X209288147Y-127958100D01*
X209195015Y-128097481D01*
X209076481Y-128216015D01*
X208937100Y-128309147D01*
X208782228Y-128373297D01*
X208617816Y-128406000D01*
X208450184Y-128406000D01*
X208285772Y-128373297D01*
X208130900Y-128309147D01*
X207991519Y-128216015D01*
X207872985Y-128097481D01*
X207779853Y-127958100D01*
X207715703Y-127803228D01*
X207683000Y-127638816D01*
X207683000Y-127471184D01*
X207715703Y-127306772D01*
X207779853Y-127151900D01*
X207872985Y-127012519D01*
X207991519Y-126893985D01*
X208130900Y-126800853D01*
X208285772Y-126736703D01*
X208450184Y-126704000D01*
X208617816Y-126704000D01*
X208782228Y-126736703D01*
G37*
G36*
X143060228Y-126736703D02*
G01*
X143215100Y-126800853D01*
X143354481Y-126893985D01*
X143473015Y-127012519D01*
X143566147Y-127151900D01*
X143630297Y-127306772D01*
X143663000Y-127471184D01*
X143663000Y-127638816D01*
X143630297Y-127803228D01*
X143566147Y-127958100D01*
X143473015Y-128097481D01*
X143354481Y-128216015D01*
X143215100Y-128309147D01*
X143060228Y-128373297D01*
X142895816Y-128406000D01*
X142728184Y-128406000D01*
X142563772Y-128373297D01*
X142408900Y-128309147D01*
X142269519Y-128216015D01*
X142150985Y-128097481D01*
X142057853Y-127958100D01*
X141993703Y-127803228D01*
X141961000Y-127638816D01*
X141961000Y-127471184D01*
X141993703Y-127306772D01*
X142057853Y-127151900D01*
X142150985Y-127012519D01*
X142269519Y-126893985D01*
X142408900Y-126800853D01*
X142563772Y-126736703D01*
X142728184Y-126704000D01*
X142895816Y-126704000D01*
X143060228Y-126736703D01*
G37*
G36*
X174873228Y-121736703D02*
G01*
X175028100Y-121800853D01*
X175167481Y-121893985D01*
X175286015Y-122012519D01*
X175379147Y-122151900D01*
X175443297Y-122306772D01*
X175476000Y-122471184D01*
X175476000Y-122638816D01*
X175443297Y-122803228D01*
X175379147Y-122958100D01*
X175286015Y-123097481D01*
X175167481Y-123216015D01*
X175028100Y-123309147D01*
X174873228Y-123373297D01*
X174708816Y-123406000D01*
X174541184Y-123406000D01*
X174376772Y-123373297D01*
X174221900Y-123309147D01*
X174082519Y-123216015D01*
X173963985Y-123097481D01*
X173870853Y-122958100D01*
X173806703Y-122803228D01*
X173774000Y-122638816D01*
X173774000Y-122471184D01*
X173806703Y-122306772D01*
X173870853Y-122151900D01*
X173963985Y-122012519D01*
X174082519Y-121893985D01*
X174221900Y-121800853D01*
X174376772Y-121736703D01*
X174541184Y-121704000D01*
X174708816Y-121704000D01*
X174873228Y-121736703D01*
G37*
G36*
X208782228Y-121736703D02*
G01*
X208937100Y-121800853D01*
X209076481Y-121893985D01*
X209195015Y-122012519D01*
X209288147Y-122151900D01*
X209352297Y-122306772D01*
X209385000Y-122471184D01*
X209385000Y-122638816D01*
X209352297Y-122803228D01*
X209288147Y-122958100D01*
X209195015Y-123097481D01*
X209076481Y-123216015D01*
X208937100Y-123309147D01*
X208782228Y-123373297D01*
X208617816Y-123406000D01*
X208450184Y-123406000D01*
X208285772Y-123373297D01*
X208130900Y-123309147D01*
X207991519Y-123216015D01*
X207872985Y-123097481D01*
X207779853Y-122958100D01*
X207715703Y-122803228D01*
X207683000Y-122638816D01*
X207683000Y-122471184D01*
X207715703Y-122306772D01*
X207779853Y-122151900D01*
X207872985Y-122012519D01*
X207991519Y-121893985D01*
X208130900Y-121800853D01*
X208285772Y-121736703D01*
X208450184Y-121704000D01*
X208617816Y-121704000D01*
X208782228Y-121736703D01*
G37*
G36*
X143060228Y-121736703D02*
G01*
X143215100Y-121800853D01*
X143354481Y-121893985D01*
X143473015Y-122012519D01*
X143566147Y-122151900D01*
X143630297Y-122306772D01*
X143663000Y-122471184D01*
X143663000Y-122638816D01*
X143630297Y-122803228D01*
X143566147Y-122958100D01*
X143473015Y-123097481D01*
X143354481Y-123216015D01*
X143215100Y-123309147D01*
X143060228Y-123373297D01*
X142895816Y-123406000D01*
X142728184Y-123406000D01*
X142563772Y-123373297D01*
X142408900Y-123309147D01*
X142269519Y-123216015D01*
X142150985Y-123097481D01*
X142057853Y-122958100D01*
X141993703Y-122803228D01*
X141961000Y-122638816D01*
X141961000Y-122471184D01*
X141993703Y-122306772D01*
X142057853Y-122151900D01*
X142150985Y-122012519D01*
X142269519Y-121893985D01*
X142408900Y-121800853D01*
X142563772Y-121736703D01*
X142728184Y-121704000D01*
X142895816Y-121704000D01*
X143060228Y-121736703D01*
G37*
G36*
X205702000Y-122136000D02*
G01*
X204000000Y-122136000D01*
X204000000Y-120434000D01*
X205702000Y-120434000D01*
X205702000Y-122136000D01*
G37*
G36*
X202559228Y-120466703D02*
G01*
X202714100Y-120530853D01*
X202853481Y-120623985D01*
X202972015Y-120742519D01*
X203065147Y-120881900D01*
X203129297Y-121036772D01*
X203162000Y-121201184D01*
X203162000Y-121368816D01*
X203129297Y-121533228D01*
X203065147Y-121688100D01*
X202972015Y-121827481D01*
X202853481Y-121946015D01*
X202714100Y-122039147D01*
X202559228Y-122103297D01*
X202394816Y-122136000D01*
X202227184Y-122136000D01*
X202062772Y-122103297D01*
X201907900Y-122039147D01*
X201768519Y-121946015D01*
X201649985Y-121827481D01*
X201556853Y-121688100D01*
X201492703Y-121533228D01*
X201460000Y-121368816D01*
X201460000Y-121201184D01*
X201492703Y-121036772D01*
X201556853Y-120881900D01*
X201649985Y-120742519D01*
X201768519Y-120623985D01*
X201907900Y-120530853D01*
X202062772Y-120466703D01*
X202227184Y-120434000D01*
X202394816Y-120434000D01*
X202559228Y-120466703D01*
G37*
G36*
X171920000Y-122136000D02*
G01*
X170218000Y-122136000D01*
X170218000Y-120434000D01*
X171920000Y-120434000D01*
X171920000Y-122136000D01*
G37*
G36*
X168777228Y-120466703D02*
G01*
X168932100Y-120530853D01*
X169071481Y-120623985D01*
X169190015Y-120742519D01*
X169283147Y-120881900D01*
X169347297Y-121036772D01*
X169380000Y-121201184D01*
X169380000Y-121368816D01*
X169347297Y-121533228D01*
X169283147Y-121688100D01*
X169190015Y-121827481D01*
X169071481Y-121946015D01*
X168932100Y-122039147D01*
X168777228Y-122103297D01*
X168612816Y-122136000D01*
X168445184Y-122136000D01*
X168280772Y-122103297D01*
X168125900Y-122039147D01*
X167986519Y-121946015D01*
X167867985Y-121827481D01*
X167774853Y-121688100D01*
X167710703Y-121533228D01*
X167678000Y-121368816D01*
X167678000Y-121201184D01*
X167710703Y-121036772D01*
X167774853Y-120881900D01*
X167867985Y-120742519D01*
X167986519Y-120623985D01*
X168125900Y-120530853D01*
X168280772Y-120466703D01*
X168445184Y-120434000D01*
X168612816Y-120434000D01*
X168777228Y-120466703D01*
G37*
G36*
X166237228Y-120466703D02*
G01*
X166392100Y-120530853D01*
X166531481Y-120623985D01*
X166650015Y-120742519D01*
X166743147Y-120881900D01*
X166807297Y-121036772D01*
X166840000Y-121201184D01*
X166840000Y-121368816D01*
X166807297Y-121533228D01*
X166743147Y-121688100D01*
X166650015Y-121827481D01*
X166531481Y-121946015D01*
X166392100Y-122039147D01*
X166237228Y-122103297D01*
X166072816Y-122136000D01*
X165905184Y-122136000D01*
X165740772Y-122103297D01*
X165585900Y-122039147D01*
X165446519Y-121946015D01*
X165327985Y-121827481D01*
X165234853Y-121688100D01*
X165170703Y-121533228D01*
X165138000Y-121368816D01*
X165138000Y-121201184D01*
X165170703Y-121036772D01*
X165234853Y-120881900D01*
X165327985Y-120742519D01*
X165446519Y-120623985D01*
X165585900Y-120530853D01*
X165740772Y-120466703D01*
X165905184Y-120434000D01*
X166072816Y-120434000D01*
X166237228Y-120466703D01*
G37*
G36*
X163697228Y-120466703D02*
G01*
X163852100Y-120530853D01*
X163991481Y-120623985D01*
X164110015Y-120742519D01*
X164203147Y-120881900D01*
X164267297Y-121036772D01*
X164300000Y-121201184D01*
X164300000Y-121368816D01*
X164267297Y-121533228D01*
X164203147Y-121688100D01*
X164110015Y-121827481D01*
X163991481Y-121946015D01*
X163852100Y-122039147D01*
X163697228Y-122103297D01*
X163532816Y-122136000D01*
X163365184Y-122136000D01*
X163200772Y-122103297D01*
X163045900Y-122039147D01*
X162906519Y-121946015D01*
X162787985Y-121827481D01*
X162694853Y-121688100D01*
X162630703Y-121533228D01*
X162598000Y-121368816D01*
X162598000Y-121201184D01*
X162630703Y-121036772D01*
X162694853Y-120881900D01*
X162787985Y-120742519D01*
X162906519Y-120623985D01*
X163045900Y-120530853D01*
X163200772Y-120466703D01*
X163365184Y-120434000D01*
X163532816Y-120434000D01*
X163697228Y-120466703D01*
G37*
G36*
X197479228Y-120466703D02*
G01*
X197634100Y-120530853D01*
X197773481Y-120623985D01*
X197892015Y-120742519D01*
X197985147Y-120881900D01*
X198049297Y-121036772D01*
X198082000Y-121201184D01*
X198082000Y-121368816D01*
X198049297Y-121533228D01*
X197985147Y-121688100D01*
X197892015Y-121827481D01*
X197773481Y-121946015D01*
X197634100Y-122039147D01*
X197479228Y-122103297D01*
X197314816Y-122136000D01*
X197147184Y-122136000D01*
X196982772Y-122103297D01*
X196827900Y-122039147D01*
X196688519Y-121946015D01*
X196569985Y-121827481D01*
X196476853Y-121688100D01*
X196412703Y-121533228D01*
X196380000Y-121368816D01*
X196380000Y-121201184D01*
X196412703Y-121036772D01*
X196476853Y-120881900D01*
X196569985Y-120742519D01*
X196688519Y-120623985D01*
X196827900Y-120530853D01*
X196982772Y-120466703D01*
X197147184Y-120434000D01*
X197314816Y-120434000D01*
X197479228Y-120466703D01*
G37*
G36*
X158617228Y-120466703D02*
G01*
X158772100Y-120530853D01*
X158911481Y-120623985D01*
X159030015Y-120742519D01*
X159123147Y-120881900D01*
X159187297Y-121036772D01*
X159220000Y-121201184D01*
X159220000Y-121368816D01*
X159187297Y-121533228D01*
X159123147Y-121688100D01*
X159030015Y-121827481D01*
X158911481Y-121946015D01*
X158772100Y-122039147D01*
X158617228Y-122103297D01*
X158452816Y-122136000D01*
X158285184Y-122136000D01*
X158120772Y-122103297D01*
X157965900Y-122039147D01*
X157826519Y-121946015D01*
X157707985Y-121827481D01*
X157614853Y-121688100D01*
X157550703Y-121533228D01*
X157518000Y-121368816D01*
X157518000Y-121201184D01*
X157550703Y-121036772D01*
X157614853Y-120881900D01*
X157707985Y-120742519D01*
X157826519Y-120623985D01*
X157965900Y-120530853D01*
X158120772Y-120466703D01*
X158285184Y-120434000D01*
X158452816Y-120434000D01*
X158617228Y-120466703D01*
G37*
G36*
X156077228Y-120466703D02*
G01*
X156232100Y-120530853D01*
X156371481Y-120623985D01*
X156490015Y-120742519D01*
X156583147Y-120881900D01*
X156647297Y-121036772D01*
X156680000Y-121201184D01*
X156680000Y-121368816D01*
X156647297Y-121533228D01*
X156583147Y-121688100D01*
X156490015Y-121827481D01*
X156371481Y-121946015D01*
X156232100Y-122039147D01*
X156077228Y-122103297D01*
X155912816Y-122136000D01*
X155745184Y-122136000D01*
X155580772Y-122103297D01*
X155425900Y-122039147D01*
X155286519Y-121946015D01*
X155167985Y-121827481D01*
X155074853Y-121688100D01*
X155010703Y-121533228D01*
X154978000Y-121368816D01*
X154978000Y-121201184D01*
X155010703Y-121036772D01*
X155074853Y-120881900D01*
X155167985Y-120742519D01*
X155286519Y-120623985D01*
X155425900Y-120530853D01*
X155580772Y-120466703D01*
X155745184Y-120434000D01*
X155912816Y-120434000D01*
X156077228Y-120466703D01*
G37*
G36*
X153537228Y-120466703D02*
G01*
X153692100Y-120530853D01*
X153831481Y-120623985D01*
X153950015Y-120742519D01*
X154043147Y-120881900D01*
X154107297Y-121036772D01*
X154140000Y-121201184D01*
X154140000Y-121368816D01*
X154107297Y-121533228D01*
X154043147Y-121688100D01*
X153950015Y-121827481D01*
X153831481Y-121946015D01*
X153692100Y-122039147D01*
X153537228Y-122103297D01*
X153372816Y-122136000D01*
X153205184Y-122136000D01*
X153040772Y-122103297D01*
X152885900Y-122039147D01*
X152746519Y-121946015D01*
X152627985Y-121827481D01*
X152534853Y-121688100D01*
X152470703Y-121533228D01*
X152438000Y-121368816D01*
X152438000Y-121201184D01*
X152470703Y-121036772D01*
X152534853Y-120881900D01*
X152627985Y-120742519D01*
X152746519Y-120623985D01*
X152885900Y-120530853D01*
X153040772Y-120466703D01*
X153205184Y-120434000D01*
X153372816Y-120434000D01*
X153537228Y-120466703D01*
G37*
G36*
X182239228Y-120466703D02*
G01*
X182394100Y-120530853D01*
X182533481Y-120623985D01*
X182652015Y-120742519D01*
X182745147Y-120881900D01*
X182809297Y-121036772D01*
X182842000Y-121201184D01*
X182842000Y-121368816D01*
X182809297Y-121533228D01*
X182745147Y-121688100D01*
X182652015Y-121827481D01*
X182533481Y-121946015D01*
X182394100Y-122039147D01*
X182239228Y-122103297D01*
X182074816Y-122136000D01*
X181907184Y-122136000D01*
X181742772Y-122103297D01*
X181587900Y-122039147D01*
X181448519Y-121946015D01*
X181329985Y-121827481D01*
X181236853Y-121688100D01*
X181172703Y-121533228D01*
X181140000Y-121368816D01*
X181140000Y-121201184D01*
X181172703Y-121036772D01*
X181236853Y-120881900D01*
X181329985Y-120742519D01*
X181448519Y-120623985D01*
X181587900Y-120530853D01*
X181742772Y-120466703D01*
X181907184Y-120434000D01*
X182074816Y-120434000D01*
X182239228Y-120466703D01*
G37*
G36*
X148457228Y-120466703D02*
G01*
X148612100Y-120530853D01*
X148751481Y-120623985D01*
X148870015Y-120742519D01*
X148963147Y-120881900D01*
X149027297Y-121036772D01*
X149060000Y-121201184D01*
X149060000Y-121368816D01*
X149027297Y-121533228D01*
X148963147Y-121688100D01*
X148870015Y-121827481D01*
X148751481Y-121946015D01*
X148612100Y-122039147D01*
X148457228Y-122103297D01*
X148292816Y-122136000D01*
X148125184Y-122136000D01*
X147960772Y-122103297D01*
X147805900Y-122039147D01*
X147666519Y-121946015D01*
X147547985Y-121827481D01*
X147454853Y-121688100D01*
X147390703Y-121533228D01*
X147358000Y-121368816D01*
X147358000Y-121201184D01*
X147390703Y-121036772D01*
X147454853Y-120881900D01*
X147547985Y-120742519D01*
X147666519Y-120623985D01*
X147805900Y-120530853D01*
X147960772Y-120466703D01*
X148125184Y-120434000D01*
X148292816Y-120434000D01*
X148457228Y-120466703D01*
G37*
G36*
X140170000Y-122136000D02*
G01*
X138468000Y-122136000D01*
X138468000Y-120434000D01*
X140170000Y-120434000D01*
X140170000Y-122136000D01*
G37*
G36*
X137027228Y-120466703D02*
G01*
X137182100Y-120530853D01*
X137321481Y-120623985D01*
X137440015Y-120742519D01*
X137533147Y-120881900D01*
X137597297Y-121036772D01*
X137630000Y-121201184D01*
X137630000Y-121368816D01*
X137597297Y-121533228D01*
X137533147Y-121688100D01*
X137440015Y-121827481D01*
X137321481Y-121946015D01*
X137182100Y-122039147D01*
X137027228Y-122103297D01*
X136862816Y-122136000D01*
X136695184Y-122136000D01*
X136530772Y-122103297D01*
X136375900Y-122039147D01*
X136236519Y-121946015D01*
X136117985Y-121827481D01*
X136024853Y-121688100D01*
X135960703Y-121533228D01*
X135928000Y-121368816D01*
X135928000Y-121201184D01*
X135960703Y-121036772D01*
X136024853Y-120881900D01*
X136117985Y-120742519D01*
X136236519Y-120623985D01*
X136375900Y-120530853D01*
X136530772Y-120466703D01*
X136695184Y-120434000D01*
X136862816Y-120434000D01*
X137027228Y-120466703D01*
G37*
G36*
X131947228Y-120466703D02*
G01*
X132102100Y-120530853D01*
X132241481Y-120623985D01*
X132360015Y-120742519D01*
X132453147Y-120881900D01*
X132517297Y-121036772D01*
X132550000Y-121201184D01*
X132550000Y-121368816D01*
X132517297Y-121533228D01*
X132453147Y-121688100D01*
X132360015Y-121827481D01*
X132241481Y-121946015D01*
X132102100Y-122039147D01*
X131947228Y-122103297D01*
X131782816Y-122136000D01*
X131615184Y-122136000D01*
X131450772Y-122103297D01*
X131295900Y-122039147D01*
X131156519Y-121946015D01*
X131037985Y-121827481D01*
X130944853Y-121688100D01*
X130880703Y-121533228D01*
X130848000Y-121368816D01*
X130848000Y-121201184D01*
X130880703Y-121036772D01*
X130944853Y-120881900D01*
X131037985Y-120742519D01*
X131156519Y-120623985D01*
X131295900Y-120530853D01*
X131450772Y-120466703D01*
X131615184Y-120434000D01*
X131782816Y-120434000D01*
X131947228Y-120466703D01*
G37*
G36*
X134487228Y-120466703D02*
G01*
X134642100Y-120530853D01*
X134781481Y-120623985D01*
X134900015Y-120742519D01*
X134993147Y-120881900D01*
X135057297Y-121036772D01*
X135090000Y-121201184D01*
X135090000Y-121368816D01*
X135057297Y-121533228D01*
X134993147Y-121688100D01*
X134900015Y-121827481D01*
X134781481Y-121946015D01*
X134642100Y-122039147D01*
X134487228Y-122103297D01*
X134322816Y-122136000D01*
X134155184Y-122136000D01*
X133990772Y-122103297D01*
X133835900Y-122039147D01*
X133696519Y-121946015D01*
X133577985Y-121827481D01*
X133484853Y-121688100D01*
X133420703Y-121533228D01*
X133388000Y-121368816D01*
X133388000Y-121201184D01*
X133420703Y-121036772D01*
X133484853Y-120881900D01*
X133577985Y-120742519D01*
X133696519Y-120623985D01*
X133835900Y-120530853D01*
X133990772Y-120466703D01*
X134155184Y-120434000D01*
X134322816Y-120434000D01*
X134487228Y-120466703D01*
G37*
G36*
X200019228Y-120466703D02*
G01*
X200174100Y-120530853D01*
X200313481Y-120623985D01*
X200432015Y-120742519D01*
X200525147Y-120881900D01*
X200589297Y-121036772D01*
X200622000Y-121201184D01*
X200622000Y-121368816D01*
X200589297Y-121533228D01*
X200525147Y-121688100D01*
X200432015Y-121827481D01*
X200313481Y-121946015D01*
X200174100Y-122039147D01*
X200019228Y-122103297D01*
X199854816Y-122136000D01*
X199687184Y-122136000D01*
X199522772Y-122103297D01*
X199367900Y-122039147D01*
X199228519Y-121946015D01*
X199109985Y-121827481D01*
X199016853Y-121688100D01*
X198952703Y-121533228D01*
X198920000Y-121368816D01*
X198920000Y-121201184D01*
X198952703Y-121036772D01*
X199016853Y-120881900D01*
X199109985Y-120742519D01*
X199228519Y-120623985D01*
X199367900Y-120530853D01*
X199522772Y-120466703D01*
X199687184Y-120434000D01*
X199854816Y-120434000D01*
X200019228Y-120466703D01*
G37*
G36*
X184779228Y-120466703D02*
G01*
X184934100Y-120530853D01*
X185073481Y-120623985D01*
X185192015Y-120742519D01*
X185285147Y-120881900D01*
X185349297Y-121036772D01*
X185382000Y-121201184D01*
X185382000Y-121368816D01*
X185349297Y-121533228D01*
X185285147Y-121688100D01*
X185192015Y-121827481D01*
X185073481Y-121946015D01*
X184934100Y-122039147D01*
X184779228Y-122103297D01*
X184614816Y-122136000D01*
X184447184Y-122136000D01*
X184282772Y-122103297D01*
X184127900Y-122039147D01*
X183988519Y-121946015D01*
X183869985Y-121827481D01*
X183776853Y-121688100D01*
X183712703Y-121533228D01*
X183680000Y-121368816D01*
X183680000Y-121201184D01*
X183712703Y-121036772D01*
X183776853Y-120881900D01*
X183869985Y-120742519D01*
X183988519Y-120623985D01*
X184127900Y-120530853D01*
X184282772Y-120466703D01*
X184447184Y-120434000D01*
X184614816Y-120434000D01*
X184779228Y-120466703D01*
G37*
G36*
X187319228Y-120466703D02*
G01*
X187474100Y-120530853D01*
X187613481Y-120623985D01*
X187732015Y-120742519D01*
X187825147Y-120881900D01*
X187889297Y-121036772D01*
X187922000Y-121201184D01*
X187922000Y-121368816D01*
X187889297Y-121533228D01*
X187825147Y-121688100D01*
X187732015Y-121827481D01*
X187613481Y-121946015D01*
X187474100Y-122039147D01*
X187319228Y-122103297D01*
X187154816Y-122136000D01*
X186987184Y-122136000D01*
X186822772Y-122103297D01*
X186667900Y-122039147D01*
X186528519Y-121946015D01*
X186409985Y-121827481D01*
X186316853Y-121688100D01*
X186252703Y-121533228D01*
X186220000Y-121368816D01*
X186220000Y-121201184D01*
X186252703Y-121036772D01*
X186316853Y-120881900D01*
X186409985Y-120742519D01*
X186528519Y-120623985D01*
X186667900Y-120530853D01*
X186822772Y-120466703D01*
X186987184Y-120434000D01*
X187154816Y-120434000D01*
X187319228Y-120466703D01*
G37*
G36*
X189859228Y-120466703D02*
G01*
X190014100Y-120530853D01*
X190153481Y-120623985D01*
X190272015Y-120742519D01*
X190365147Y-120881900D01*
X190429297Y-121036772D01*
X190462000Y-121201184D01*
X190462000Y-121368816D01*
X190429297Y-121533228D01*
X190365147Y-121688100D01*
X190272015Y-121827481D01*
X190153481Y-121946015D01*
X190014100Y-122039147D01*
X189859228Y-122103297D01*
X189694816Y-122136000D01*
X189527184Y-122136000D01*
X189362772Y-122103297D01*
X189207900Y-122039147D01*
X189068519Y-121946015D01*
X188949985Y-121827481D01*
X188856853Y-121688100D01*
X188792703Y-121533228D01*
X188760000Y-121368816D01*
X188760000Y-121201184D01*
X188792703Y-121036772D01*
X188856853Y-120881900D01*
X188949985Y-120742519D01*
X189068519Y-120623985D01*
X189207900Y-120530853D01*
X189362772Y-120466703D01*
X189527184Y-120434000D01*
X189694816Y-120434000D01*
X189859228Y-120466703D01*
G37*
G36*
X192399228Y-120466703D02*
G01*
X192554100Y-120530853D01*
X192693481Y-120623985D01*
X192812015Y-120742519D01*
X192905147Y-120881900D01*
X192969297Y-121036772D01*
X193002000Y-121201184D01*
X193002000Y-121368816D01*
X192969297Y-121533228D01*
X192905147Y-121688100D01*
X192812015Y-121827481D01*
X192693481Y-121946015D01*
X192554100Y-122039147D01*
X192399228Y-122103297D01*
X192234816Y-122136000D01*
X192067184Y-122136000D01*
X191902772Y-122103297D01*
X191747900Y-122039147D01*
X191608519Y-121946015D01*
X191489985Y-121827481D01*
X191396853Y-121688100D01*
X191332703Y-121533228D01*
X191300000Y-121368816D01*
X191300000Y-121201184D01*
X191332703Y-121036772D01*
X191396853Y-120881900D01*
X191489985Y-120742519D01*
X191608519Y-120623985D01*
X191747900Y-120530853D01*
X191902772Y-120466703D01*
X192067184Y-120434000D01*
X192234816Y-120434000D01*
X192399228Y-120466703D01*
G37*
G36*
X161157228Y-120466703D02*
G01*
X161312100Y-120530853D01*
X161451481Y-120623985D01*
X161570015Y-120742519D01*
X161663147Y-120881900D01*
X161727297Y-121036772D01*
X161760000Y-121201184D01*
X161760000Y-121368816D01*
X161727297Y-121533228D01*
X161663147Y-121688100D01*
X161570015Y-121827481D01*
X161451481Y-121946015D01*
X161312100Y-122039147D01*
X161157228Y-122103297D01*
X160992816Y-122136000D01*
X160825184Y-122136000D01*
X160660772Y-122103297D01*
X160505900Y-122039147D01*
X160366519Y-121946015D01*
X160247985Y-121827481D01*
X160154853Y-121688100D01*
X160090703Y-121533228D01*
X160058000Y-121368816D01*
X160058000Y-121201184D01*
X160090703Y-121036772D01*
X160154853Y-120881900D01*
X160247985Y-120742519D01*
X160366519Y-120623985D01*
X160505900Y-120530853D01*
X160660772Y-120466703D01*
X160825184Y-120434000D01*
X160992816Y-120434000D01*
X161157228Y-120466703D01*
G37*
G36*
X150997228Y-120466703D02*
G01*
X151152100Y-120530853D01*
X151291481Y-120623985D01*
X151410015Y-120742519D01*
X151503147Y-120881900D01*
X151567297Y-121036772D01*
X151600000Y-121201184D01*
X151600000Y-121368816D01*
X151567297Y-121533228D01*
X151503147Y-121688100D01*
X151410015Y-121827481D01*
X151291481Y-121946015D01*
X151152100Y-122039147D01*
X150997228Y-122103297D01*
X150832816Y-122136000D01*
X150665184Y-122136000D01*
X150500772Y-122103297D01*
X150345900Y-122039147D01*
X150206519Y-121946015D01*
X150087985Y-121827481D01*
X149994853Y-121688100D01*
X149930703Y-121533228D01*
X149898000Y-121368816D01*
X149898000Y-121201184D01*
X149930703Y-121036772D01*
X149994853Y-120881900D01*
X150087985Y-120742519D01*
X150206519Y-120623985D01*
X150345900Y-120530853D01*
X150500772Y-120466703D01*
X150665184Y-120434000D01*
X150832816Y-120434000D01*
X150997228Y-120466703D01*
G37*
G36*
X124327228Y-120466703D02*
G01*
X124482100Y-120530853D01*
X124621481Y-120623985D01*
X124740015Y-120742519D01*
X124833147Y-120881900D01*
X124897297Y-121036772D01*
X124930000Y-121201184D01*
X124930000Y-121368816D01*
X124897297Y-121533228D01*
X124833147Y-121688100D01*
X124740015Y-121827481D01*
X124621481Y-121946015D01*
X124482100Y-122039147D01*
X124327228Y-122103297D01*
X124162816Y-122136000D01*
X123995184Y-122136000D01*
X123830772Y-122103297D01*
X123675900Y-122039147D01*
X123536519Y-121946015D01*
X123417985Y-121827481D01*
X123324853Y-121688100D01*
X123260703Y-121533228D01*
X123228000Y-121368816D01*
X123228000Y-121201184D01*
X123260703Y-121036772D01*
X123324853Y-120881900D01*
X123417985Y-120742519D01*
X123536519Y-120623985D01*
X123675900Y-120530853D01*
X123830772Y-120466703D01*
X123995184Y-120434000D01*
X124162816Y-120434000D01*
X124327228Y-120466703D01*
G37*
G36*
X126867228Y-120466703D02*
G01*
X127022100Y-120530853D01*
X127161481Y-120623985D01*
X127280015Y-120742519D01*
X127373147Y-120881900D01*
X127437297Y-121036772D01*
X127470000Y-121201184D01*
X127470000Y-121368816D01*
X127437297Y-121533228D01*
X127373147Y-121688100D01*
X127280015Y-121827481D01*
X127161481Y-121946015D01*
X127022100Y-122039147D01*
X126867228Y-122103297D01*
X126702816Y-122136000D01*
X126535184Y-122136000D01*
X126370772Y-122103297D01*
X126215900Y-122039147D01*
X126076519Y-121946015D01*
X125957985Y-121827481D01*
X125864853Y-121688100D01*
X125800703Y-121533228D01*
X125768000Y-121368816D01*
X125768000Y-121201184D01*
X125800703Y-121036772D01*
X125864853Y-120881900D01*
X125957985Y-120742519D01*
X126076519Y-120623985D01*
X126215900Y-120530853D01*
X126370772Y-120466703D01*
X126535184Y-120434000D01*
X126702816Y-120434000D01*
X126867228Y-120466703D01*
G37*
G36*
X129407228Y-120466703D02*
G01*
X129562100Y-120530853D01*
X129701481Y-120623985D01*
X129820015Y-120742519D01*
X129913147Y-120881900D01*
X129977297Y-121036772D01*
X130010000Y-121201184D01*
X130010000Y-121368816D01*
X129977297Y-121533228D01*
X129913147Y-121688100D01*
X129820015Y-121827481D01*
X129701481Y-121946015D01*
X129562100Y-122039147D01*
X129407228Y-122103297D01*
X129242816Y-122136000D01*
X129075184Y-122136000D01*
X128910772Y-122103297D01*
X128755900Y-122039147D01*
X128616519Y-121946015D01*
X128497985Y-121827481D01*
X128404853Y-121688100D01*
X128340703Y-121533228D01*
X128308000Y-121368816D01*
X128308000Y-121201184D01*
X128340703Y-121036772D01*
X128404853Y-120881900D01*
X128497985Y-120742519D01*
X128616519Y-120623985D01*
X128755900Y-120530853D01*
X128910772Y-120466703D01*
X129075184Y-120434000D01*
X129242816Y-120434000D01*
X129407228Y-120466703D01*
G37*
G36*
X194939228Y-120466703D02*
G01*
X195094100Y-120530853D01*
X195233481Y-120623985D01*
X195352015Y-120742519D01*
X195445147Y-120881900D01*
X195509297Y-121036772D01*
X195542000Y-121201184D01*
X195542000Y-121368816D01*
X195509297Y-121533228D01*
X195445147Y-121688100D01*
X195352015Y-121827481D01*
X195233481Y-121946015D01*
X195094100Y-122039147D01*
X194939228Y-122103297D01*
X194774816Y-122136000D01*
X194607184Y-122136000D01*
X194442772Y-122103297D01*
X194287900Y-122039147D01*
X194148519Y-121946015D01*
X194029985Y-121827481D01*
X193936853Y-121688100D01*
X193872703Y-121533228D01*
X193840000Y-121368816D01*
X193840000Y-121201184D01*
X193872703Y-121036772D01*
X193936853Y-120881900D01*
X194029985Y-120742519D01*
X194148519Y-120623985D01*
X194287900Y-120530853D01*
X194442772Y-120466703D01*
X194607184Y-120434000D01*
X194774816Y-120434000D01*
X194939228Y-120466703D01*
G37*
G36*
X139567228Y-107766703D02*
G01*
X139722100Y-107830853D01*
X139861481Y-107923985D01*
X139980015Y-108042519D01*
X140073147Y-108181900D01*
X140137297Y-108336772D01*
X140170000Y-108501184D01*
X140170000Y-108668816D01*
X140137297Y-108833228D01*
X140073147Y-108988100D01*
X139980015Y-109127481D01*
X139861481Y-109246015D01*
X139722100Y-109339147D01*
X139567228Y-109403297D01*
X139402816Y-109436000D01*
X139235184Y-109436000D01*
X139070772Y-109403297D01*
X138915900Y-109339147D01*
X138776519Y-109246015D01*
X138657985Y-109127481D01*
X138564853Y-108988100D01*
X138500703Y-108833228D01*
X138468000Y-108668816D01*
X138468000Y-108501184D01*
X138500703Y-108336772D01*
X138564853Y-108181900D01*
X138657985Y-108042519D01*
X138776519Y-107923985D01*
X138915900Y-107830853D01*
X139070772Y-107766703D01*
X139235184Y-107734000D01*
X139402816Y-107734000D01*
X139567228Y-107766703D01*
G37*
G36*
X158363228Y-107766703D02*
G01*
X158518100Y-107830853D01*
X158657481Y-107923985D01*
X158776015Y-108042519D01*
X158869147Y-108181900D01*
X158933297Y-108336772D01*
X158966000Y-108501184D01*
X158966000Y-108668816D01*
X158933297Y-108833228D01*
X158869147Y-108988100D01*
X158776015Y-109127481D01*
X158657481Y-109246015D01*
X158518100Y-109339147D01*
X158363228Y-109403297D01*
X158198816Y-109436000D01*
X158031184Y-109436000D01*
X157866772Y-109403297D01*
X157711900Y-109339147D01*
X157572519Y-109246015D01*
X157453985Y-109127481D01*
X157360853Y-108988100D01*
X157296703Y-108833228D01*
X157264000Y-108668816D01*
X157264000Y-108501184D01*
X157296703Y-108336772D01*
X157360853Y-108181900D01*
X157453985Y-108042519D01*
X157572519Y-107923985D01*
X157711900Y-107830853D01*
X157866772Y-107766703D01*
X158031184Y-107734000D01*
X158198816Y-107734000D01*
X158363228Y-107766703D01*
G37*
G36*
X185795228Y-107766703D02*
G01*
X185950100Y-107830853D01*
X186089481Y-107923985D01*
X186208015Y-108042519D01*
X186301147Y-108181900D01*
X186365297Y-108336772D01*
X186398000Y-108501184D01*
X186398000Y-108668816D01*
X186365297Y-108833228D01*
X186301147Y-108988100D01*
X186208015Y-109127481D01*
X186089481Y-109246015D01*
X185950100Y-109339147D01*
X185795228Y-109403297D01*
X185630816Y-109436000D01*
X185463184Y-109436000D01*
X185298772Y-109403297D01*
X185143900Y-109339147D01*
X185004519Y-109246015D01*
X184885985Y-109127481D01*
X184792853Y-108988100D01*
X184728703Y-108833228D01*
X184696000Y-108668816D01*
X184696000Y-108501184D01*
X184728703Y-108336772D01*
X184792853Y-108181900D01*
X184885985Y-108042519D01*
X185004519Y-107923985D01*
X185143900Y-107830853D01*
X185298772Y-107766703D01*
X185463184Y-107734000D01*
X185630816Y-107734000D01*
X185795228Y-107766703D01*
G37*
G36*
X137027228Y-107766703D02*
G01*
X137182100Y-107830853D01*
X137321481Y-107923985D01*
X137440015Y-108042519D01*
X137533147Y-108181900D01*
X137597297Y-108336772D01*
X137630000Y-108501184D01*
X137630000Y-108668816D01*
X137597297Y-108833228D01*
X137533147Y-108988100D01*
X137440015Y-109127481D01*
X137321481Y-109246015D01*
X137182100Y-109339147D01*
X137027228Y-109403297D01*
X136862816Y-109436000D01*
X136695184Y-109436000D01*
X136530772Y-109403297D01*
X136375900Y-109339147D01*
X136236519Y-109246015D01*
X136117985Y-109127481D01*
X136024853Y-108988100D01*
X135960703Y-108833228D01*
X135928000Y-108668816D01*
X135928000Y-108501184D01*
X135960703Y-108336772D01*
X136024853Y-108181900D01*
X136117985Y-108042519D01*
X136236519Y-107923985D01*
X136375900Y-107830853D01*
X136530772Y-107766703D01*
X136695184Y-107734000D01*
X136862816Y-107734000D01*
X137027228Y-107766703D01*
G37*
G36*
X163443228Y-107766703D02*
G01*
X163598100Y-107830853D01*
X163737481Y-107923985D01*
X163856015Y-108042519D01*
X163949147Y-108181900D01*
X164013297Y-108336772D01*
X164046000Y-108501184D01*
X164046000Y-108668816D01*
X164013297Y-108833228D01*
X163949147Y-108988100D01*
X163856015Y-109127481D01*
X163737481Y-109246015D01*
X163598100Y-109339147D01*
X163443228Y-109403297D01*
X163278816Y-109436000D01*
X163111184Y-109436000D01*
X162946772Y-109403297D01*
X162791900Y-109339147D01*
X162652519Y-109246015D01*
X162533985Y-109127481D01*
X162440853Y-108988100D01*
X162376703Y-108833228D01*
X162344000Y-108668816D01*
X162344000Y-108501184D01*
X162376703Y-108336772D01*
X162440853Y-108181900D01*
X162533985Y-108042519D01*
X162652519Y-107923985D01*
X162791900Y-107830853D01*
X162946772Y-107766703D01*
X163111184Y-107734000D01*
X163278816Y-107734000D01*
X163443228Y-107766703D01*
G37*
G36*
X165983228Y-107766703D02*
G01*
X166138100Y-107830853D01*
X166277481Y-107923985D01*
X166396015Y-108042519D01*
X166489147Y-108181900D01*
X166553297Y-108336772D01*
X166586000Y-108501184D01*
X166586000Y-108668816D01*
X166553297Y-108833228D01*
X166489147Y-108988100D01*
X166396015Y-109127481D01*
X166277481Y-109246015D01*
X166138100Y-109339147D01*
X165983228Y-109403297D01*
X165818816Y-109436000D01*
X165651184Y-109436000D01*
X165486772Y-109403297D01*
X165331900Y-109339147D01*
X165192519Y-109246015D01*
X165073985Y-109127481D01*
X164980853Y-108988100D01*
X164916703Y-108833228D01*
X164884000Y-108668816D01*
X164884000Y-108501184D01*
X164916703Y-108336772D01*
X164980853Y-108181900D01*
X165073985Y-108042519D01*
X165192519Y-107923985D01*
X165331900Y-107830853D01*
X165486772Y-107766703D01*
X165651184Y-107734000D01*
X165818816Y-107734000D01*
X165983228Y-107766703D01*
G37*
G36*
X134487228Y-107766703D02*
G01*
X134642100Y-107830853D01*
X134781481Y-107923985D01*
X134900015Y-108042519D01*
X134993147Y-108181900D01*
X135057297Y-108336772D01*
X135090000Y-108501184D01*
X135090000Y-108668816D01*
X135057297Y-108833228D01*
X134993147Y-108988100D01*
X134900015Y-109127481D01*
X134781481Y-109246015D01*
X134642100Y-109339147D01*
X134487228Y-109403297D01*
X134322816Y-109436000D01*
X134155184Y-109436000D01*
X133990772Y-109403297D01*
X133835900Y-109339147D01*
X133696519Y-109246015D01*
X133577985Y-109127481D01*
X133484853Y-108988100D01*
X133420703Y-108833228D01*
X133388000Y-108668816D01*
X133388000Y-108501184D01*
X133420703Y-108336772D01*
X133484853Y-108181900D01*
X133577985Y-108042519D01*
X133696519Y-107923985D01*
X133835900Y-107830853D01*
X133990772Y-107766703D01*
X134155184Y-107734000D01*
X134322816Y-107734000D01*
X134487228Y-107766703D01*
G37*
G36*
X168523228Y-107766703D02*
G01*
X168678100Y-107830853D01*
X168817481Y-107923985D01*
X168936015Y-108042519D01*
X169029147Y-108181900D01*
X169093297Y-108336772D01*
X169126000Y-108501184D01*
X169126000Y-108668816D01*
X169093297Y-108833228D01*
X169029147Y-108988100D01*
X168936015Y-109127481D01*
X168817481Y-109246015D01*
X168678100Y-109339147D01*
X168523228Y-109403297D01*
X168358816Y-109436000D01*
X168191184Y-109436000D01*
X168026772Y-109403297D01*
X167871900Y-109339147D01*
X167732519Y-109246015D01*
X167613985Y-109127481D01*
X167520853Y-108988100D01*
X167456703Y-108833228D01*
X167424000Y-108668816D01*
X167424000Y-108501184D01*
X167456703Y-108336772D01*
X167520853Y-108181900D01*
X167613985Y-108042519D01*
X167732519Y-107923985D01*
X167871900Y-107830853D01*
X168026772Y-107766703D01*
X168191184Y-107734000D01*
X168358816Y-107734000D01*
X168523228Y-107766703D01*
G37*
G36*
X193415228Y-107766703D02*
G01*
X193570100Y-107830853D01*
X193709481Y-107923985D01*
X193828015Y-108042519D01*
X193921147Y-108181900D01*
X193985297Y-108336772D01*
X194018000Y-108501184D01*
X194018000Y-108668816D01*
X193985297Y-108833228D01*
X193921147Y-108988100D01*
X193828015Y-109127481D01*
X193709481Y-109246015D01*
X193570100Y-109339147D01*
X193415228Y-109403297D01*
X193250816Y-109436000D01*
X193083184Y-109436000D01*
X192918772Y-109403297D01*
X192763900Y-109339147D01*
X192624519Y-109246015D01*
X192505985Y-109127481D01*
X192412853Y-108988100D01*
X192348703Y-108833228D01*
X192316000Y-108668816D01*
X192316000Y-108501184D01*
X192348703Y-108336772D01*
X192412853Y-108181900D01*
X192505985Y-108042519D01*
X192624519Y-107923985D01*
X192763900Y-107830853D01*
X192918772Y-107766703D01*
X193083184Y-107734000D01*
X193250816Y-107734000D01*
X193415228Y-107766703D01*
G37*
G36*
X188335228Y-107766703D02*
G01*
X188490100Y-107830853D01*
X188629481Y-107923985D01*
X188748015Y-108042519D01*
X188841147Y-108181900D01*
X188905297Y-108336772D01*
X188938000Y-108501184D01*
X188938000Y-108668816D01*
X188905297Y-108833228D01*
X188841147Y-108988100D01*
X188748015Y-109127481D01*
X188629481Y-109246015D01*
X188490100Y-109339147D01*
X188335228Y-109403297D01*
X188170816Y-109436000D01*
X188003184Y-109436000D01*
X187838772Y-109403297D01*
X187683900Y-109339147D01*
X187544519Y-109246015D01*
X187425985Y-109127481D01*
X187332853Y-108988100D01*
X187268703Y-108833228D01*
X187236000Y-108668816D01*
X187236000Y-108501184D01*
X187268703Y-108336772D01*
X187332853Y-108181900D01*
X187425985Y-108042519D01*
X187544519Y-107923985D01*
X187683900Y-107830853D01*
X187838772Y-107766703D01*
X188003184Y-107734000D01*
X188170816Y-107734000D01*
X188335228Y-107766703D01*
G37*
G36*
X190875228Y-107766703D02*
G01*
X191030100Y-107830853D01*
X191169481Y-107923985D01*
X191288015Y-108042519D01*
X191381147Y-108181900D01*
X191445297Y-108336772D01*
X191478000Y-108501184D01*
X191478000Y-108668816D01*
X191445297Y-108833228D01*
X191381147Y-108988100D01*
X191288015Y-109127481D01*
X191169481Y-109246015D01*
X191030100Y-109339147D01*
X190875228Y-109403297D01*
X190710816Y-109436000D01*
X190543184Y-109436000D01*
X190378772Y-109403297D01*
X190223900Y-109339147D01*
X190084519Y-109246015D01*
X189965985Y-109127481D01*
X189872853Y-108988100D01*
X189808703Y-108833228D01*
X189776000Y-108668816D01*
X189776000Y-108501184D01*
X189808703Y-108336772D01*
X189872853Y-108181900D01*
X189965985Y-108042519D01*
X190084519Y-107923985D01*
X190223900Y-107830853D01*
X190378772Y-107766703D01*
X190543184Y-107734000D01*
X190710816Y-107734000D01*
X190875228Y-107766703D01*
G37*
G36*
X131947228Y-107766703D02*
G01*
X132102100Y-107830853D01*
X132241481Y-107923985D01*
X132360015Y-108042519D01*
X132453147Y-108181900D01*
X132517297Y-108336772D01*
X132550000Y-108501184D01*
X132550000Y-108668816D01*
X132517297Y-108833228D01*
X132453147Y-108988100D01*
X132360015Y-109127481D01*
X132241481Y-109246015D01*
X132102100Y-109339147D01*
X131947228Y-109403297D01*
X131782816Y-109436000D01*
X131615184Y-109436000D01*
X131450772Y-109403297D01*
X131295900Y-109339147D01*
X131156519Y-109246015D01*
X131037985Y-109127481D01*
X130944853Y-108988100D01*
X130880703Y-108833228D01*
X130848000Y-108668816D01*
X130848000Y-108501184D01*
X130880703Y-108336772D01*
X130944853Y-108181900D01*
X131037985Y-108042519D01*
X131156519Y-107923985D01*
X131295900Y-107830853D01*
X131450772Y-107766703D01*
X131615184Y-107734000D01*
X131782816Y-107734000D01*
X131947228Y-107766703D01*
G37*
G36*
X160903228Y-107766703D02*
G01*
X161058100Y-107830853D01*
X161197481Y-107923985D01*
X161316015Y-108042519D01*
X161409147Y-108181900D01*
X161473297Y-108336772D01*
X161506000Y-108501184D01*
X161506000Y-108668816D01*
X161473297Y-108833228D01*
X161409147Y-108988100D01*
X161316015Y-109127481D01*
X161197481Y-109246015D01*
X161058100Y-109339147D01*
X160903228Y-109403297D01*
X160738816Y-109436000D01*
X160571184Y-109436000D01*
X160406772Y-109403297D01*
X160251900Y-109339147D01*
X160112519Y-109246015D01*
X159993985Y-109127481D01*
X159900853Y-108988100D01*
X159836703Y-108833228D01*
X159804000Y-108668816D01*
X159804000Y-108501184D01*
X159836703Y-108336772D01*
X159900853Y-108181900D01*
X159993985Y-108042519D01*
X160112519Y-107923985D01*
X160251900Y-107830853D01*
X160406772Y-107766703D01*
X160571184Y-107734000D01*
X160738816Y-107734000D01*
X160903228Y-107766703D01*
G37*
G36*
X180715228Y-107766703D02*
G01*
X180870100Y-107830853D01*
X181009481Y-107923985D01*
X181128015Y-108042519D01*
X181221147Y-108181900D01*
X181285297Y-108336772D01*
X181318000Y-108501184D01*
X181318000Y-108668816D01*
X181285297Y-108833228D01*
X181221147Y-108988100D01*
X181128015Y-109127481D01*
X181009481Y-109246015D01*
X180870100Y-109339147D01*
X180715228Y-109403297D01*
X180550816Y-109436000D01*
X180383184Y-109436000D01*
X180218772Y-109403297D01*
X180063900Y-109339147D01*
X179924519Y-109246015D01*
X179805985Y-109127481D01*
X179712853Y-108988100D01*
X179648703Y-108833228D01*
X179616000Y-108668816D01*
X179616000Y-108501184D01*
X179648703Y-108336772D01*
X179712853Y-108181900D01*
X179805985Y-108042519D01*
X179924519Y-107923985D01*
X180063900Y-107830853D01*
X180218772Y-107766703D01*
X180383184Y-107734000D01*
X180550816Y-107734000D01*
X180715228Y-107766703D01*
G37*
G36*
X129407228Y-107766703D02*
G01*
X129562100Y-107830853D01*
X129701481Y-107923985D01*
X129820015Y-108042519D01*
X129913147Y-108181900D01*
X129977297Y-108336772D01*
X130010000Y-108501184D01*
X130010000Y-108668816D01*
X129977297Y-108833228D01*
X129913147Y-108988100D01*
X129820015Y-109127481D01*
X129701481Y-109246015D01*
X129562100Y-109339147D01*
X129407228Y-109403297D01*
X129242816Y-109436000D01*
X129075184Y-109436000D01*
X128910772Y-109403297D01*
X128755900Y-109339147D01*
X128616519Y-109246015D01*
X128497985Y-109127481D01*
X128404853Y-108988100D01*
X128340703Y-108833228D01*
X128308000Y-108668816D01*
X128308000Y-108501184D01*
X128340703Y-108336772D01*
X128404853Y-108181900D01*
X128497985Y-108042519D01*
X128616519Y-107923985D01*
X128755900Y-107830853D01*
X128910772Y-107766703D01*
X129075184Y-107734000D01*
X129242816Y-107734000D01*
X129407228Y-107766703D01*
G37*
G36*
X126867228Y-107766703D02*
G01*
X127022100Y-107830853D01*
X127161481Y-107923985D01*
X127280015Y-108042519D01*
X127373147Y-108181900D01*
X127437297Y-108336772D01*
X127470000Y-108501184D01*
X127470000Y-108668816D01*
X127437297Y-108833228D01*
X127373147Y-108988100D01*
X127280015Y-109127481D01*
X127161481Y-109246015D01*
X127022100Y-109339147D01*
X126867228Y-109403297D01*
X126702816Y-109436000D01*
X126535184Y-109436000D01*
X126370772Y-109403297D01*
X126215900Y-109339147D01*
X126076519Y-109246015D01*
X125957985Y-109127481D01*
X125864853Y-108988100D01*
X125800703Y-108833228D01*
X125768000Y-108668816D01*
X125768000Y-108501184D01*
X125800703Y-108336772D01*
X125864853Y-108181900D01*
X125957985Y-108042519D01*
X126076519Y-107923985D01*
X126215900Y-107830853D01*
X126370772Y-107766703D01*
X126535184Y-107734000D01*
X126702816Y-107734000D01*
X126867228Y-107766703D01*
G37*
G36*
X124930000Y-109436000D02*
G01*
X123228000Y-109436000D01*
X123228000Y-107734000D01*
X124930000Y-107734000D01*
X124930000Y-109436000D01*
G37*
G36*
X175635228Y-107766703D02*
G01*
X175790100Y-107830853D01*
X175929481Y-107923985D01*
X176048015Y-108042519D01*
X176141147Y-108181900D01*
X176205297Y-108336772D01*
X176238000Y-108501184D01*
X176238000Y-108668816D01*
X176205297Y-108833228D01*
X176141147Y-108988100D01*
X176048015Y-109127481D01*
X175929481Y-109246015D01*
X175790100Y-109339147D01*
X175635228Y-109403297D01*
X175470816Y-109436000D01*
X175303184Y-109436000D01*
X175138772Y-109403297D01*
X174983900Y-109339147D01*
X174844519Y-109246015D01*
X174725985Y-109127481D01*
X174632853Y-108988100D01*
X174568703Y-108833228D01*
X174536000Y-108668816D01*
X174536000Y-108501184D01*
X174568703Y-108336772D01*
X174632853Y-108181900D01*
X174725985Y-108042519D01*
X174844519Y-107923985D01*
X174983900Y-107830853D01*
X175138772Y-107766703D01*
X175303184Y-107734000D01*
X175470816Y-107734000D01*
X175635228Y-107766703D01*
G37*
G36*
X178175228Y-107766703D02*
G01*
X178330100Y-107830853D01*
X178469481Y-107923985D01*
X178588015Y-108042519D01*
X178681147Y-108181900D01*
X178745297Y-108336772D01*
X178778000Y-108501184D01*
X178778000Y-108668816D01*
X178745297Y-108833228D01*
X178681147Y-108988100D01*
X178588015Y-109127481D01*
X178469481Y-109246015D01*
X178330100Y-109339147D01*
X178175228Y-109403297D01*
X178010816Y-109436000D01*
X177843184Y-109436000D01*
X177678772Y-109403297D01*
X177523900Y-109339147D01*
X177384519Y-109246015D01*
X177265985Y-109127481D01*
X177172853Y-108988100D01*
X177108703Y-108833228D01*
X177076000Y-108668816D01*
X177076000Y-108501184D01*
X177108703Y-108336772D01*
X177172853Y-108181900D01*
X177265985Y-108042519D01*
X177384519Y-107923985D01*
X177523900Y-107830853D01*
X177678772Y-107766703D01*
X177843184Y-107734000D01*
X178010816Y-107734000D01*
X178175228Y-107766703D01*
G37*
G36*
X147187228Y-107766703D02*
G01*
X147342100Y-107830853D01*
X147481481Y-107923985D01*
X147600015Y-108042519D01*
X147693147Y-108181900D01*
X147757297Y-108336772D01*
X147790000Y-108501184D01*
X147790000Y-108668816D01*
X147757297Y-108833228D01*
X147693147Y-108988100D01*
X147600015Y-109127481D01*
X147481481Y-109246015D01*
X147342100Y-109339147D01*
X147187228Y-109403297D01*
X147022816Y-109436000D01*
X146855184Y-109436000D01*
X146690772Y-109403297D01*
X146535900Y-109339147D01*
X146396519Y-109246015D01*
X146277985Y-109127481D01*
X146184853Y-108988100D01*
X146120703Y-108833228D01*
X146088000Y-108668816D01*
X146088000Y-108501184D01*
X146120703Y-108336772D01*
X146184853Y-108181900D01*
X146277985Y-108042519D01*
X146396519Y-107923985D01*
X146535900Y-107830853D01*
X146690772Y-107766703D01*
X146855184Y-107734000D01*
X147022816Y-107734000D01*
X147187228Y-107766703D01*
G37*
G36*
X144647228Y-107766703D02*
G01*
X144802100Y-107830853D01*
X144941481Y-107923985D01*
X145060015Y-108042519D01*
X145153147Y-108181900D01*
X145217297Y-108336772D01*
X145250000Y-108501184D01*
X145250000Y-108668816D01*
X145217297Y-108833228D01*
X145153147Y-108988100D01*
X145060015Y-109127481D01*
X144941481Y-109246015D01*
X144802100Y-109339147D01*
X144647228Y-109403297D01*
X144482816Y-109436000D01*
X144315184Y-109436000D01*
X144150772Y-109403297D01*
X143995900Y-109339147D01*
X143856519Y-109246015D01*
X143737985Y-109127481D01*
X143644853Y-108988100D01*
X143580703Y-108833228D01*
X143548000Y-108668816D01*
X143548000Y-108501184D01*
X143580703Y-108336772D01*
X143644853Y-108181900D01*
X143737985Y-108042519D01*
X143856519Y-107923985D01*
X143995900Y-107830853D01*
X144150772Y-107766703D01*
X144315184Y-107734000D01*
X144482816Y-107734000D01*
X144647228Y-107766703D01*
G37*
G36*
X183255228Y-107766703D02*
G01*
X183410100Y-107830853D01*
X183549481Y-107923985D01*
X183668015Y-108042519D01*
X183761147Y-108181900D01*
X183825297Y-108336772D01*
X183858000Y-108501184D01*
X183858000Y-108668816D01*
X183825297Y-108833228D01*
X183761147Y-108988100D01*
X183668015Y-109127481D01*
X183549481Y-109246015D01*
X183410100Y-109339147D01*
X183255228Y-109403297D01*
X183090816Y-109436000D01*
X182923184Y-109436000D01*
X182758772Y-109403297D01*
X182603900Y-109339147D01*
X182464519Y-109246015D01*
X182345985Y-109127481D01*
X182252853Y-108988100D01*
X182188703Y-108833228D01*
X182156000Y-108668816D01*
X182156000Y-108501184D01*
X182188703Y-108336772D01*
X182252853Y-108181900D01*
X182345985Y-108042519D01*
X182464519Y-107923985D01*
X182603900Y-107830853D01*
X182758772Y-107766703D01*
X182923184Y-107734000D01*
X183090816Y-107734000D01*
X183255228Y-107766703D01*
G37*
G36*
X150743228Y-107766703D02*
G01*
X150898100Y-107830853D01*
X151037481Y-107923985D01*
X151156015Y-108042519D01*
X151249147Y-108181900D01*
X151313297Y-108336772D01*
X151346000Y-108501184D01*
X151346000Y-108668816D01*
X151313297Y-108833228D01*
X151249147Y-108988100D01*
X151156015Y-109127481D01*
X151037481Y-109246015D01*
X150898100Y-109339147D01*
X150743228Y-109403297D01*
X150578816Y-109436000D01*
X150411184Y-109436000D01*
X150246772Y-109403297D01*
X150091900Y-109339147D01*
X149952519Y-109246015D01*
X149833985Y-109127481D01*
X149740853Y-108988100D01*
X149676703Y-108833228D01*
X149644000Y-108668816D01*
X149644000Y-108501184D01*
X149676703Y-108336772D01*
X149740853Y-108181900D01*
X149833985Y-108042519D01*
X149952519Y-107923985D01*
X150091900Y-107830853D01*
X150246772Y-107766703D01*
X150411184Y-107734000D01*
X150578816Y-107734000D01*
X150743228Y-107766703D01*
G37*
G36*
X155823228Y-107766703D02*
G01*
X155978100Y-107830853D01*
X156117481Y-107923985D01*
X156236015Y-108042519D01*
X156329147Y-108181900D01*
X156393297Y-108336772D01*
X156426000Y-108501184D01*
X156426000Y-108668816D01*
X156393297Y-108833228D01*
X156329147Y-108988100D01*
X156236015Y-109127481D01*
X156117481Y-109246015D01*
X155978100Y-109339147D01*
X155823228Y-109403297D01*
X155658816Y-109436000D01*
X155491184Y-109436000D01*
X155326772Y-109403297D01*
X155171900Y-109339147D01*
X155032519Y-109246015D01*
X154913985Y-109127481D01*
X154820853Y-108988100D01*
X154756703Y-108833228D01*
X154724000Y-108668816D01*
X154724000Y-108501184D01*
X154756703Y-108336772D01*
X154820853Y-108181900D01*
X154913985Y-108042519D01*
X155032519Y-107923985D01*
X155171900Y-107830853D01*
X155326772Y-107766703D01*
X155491184Y-107734000D01*
X155658816Y-107734000D01*
X155823228Y-107766703D01*
G37*
G36*
X142107228Y-107766703D02*
G01*
X142262100Y-107830853D01*
X142401481Y-107923985D01*
X142520015Y-108042519D01*
X142613147Y-108181900D01*
X142677297Y-108336772D01*
X142710000Y-108501184D01*
X142710000Y-108668816D01*
X142677297Y-108833228D01*
X142613147Y-108988100D01*
X142520015Y-109127481D01*
X142401481Y-109246015D01*
X142262100Y-109339147D01*
X142107228Y-109403297D01*
X141942816Y-109436000D01*
X141775184Y-109436000D01*
X141610772Y-109403297D01*
X141455900Y-109339147D01*
X141316519Y-109246015D01*
X141197985Y-109127481D01*
X141104853Y-108988100D01*
X141040703Y-108833228D01*
X141008000Y-108668816D01*
X141008000Y-108501184D01*
X141040703Y-108336772D01*
X141104853Y-108181900D01*
X141197985Y-108042519D01*
X141316519Y-107923985D01*
X141455900Y-107830853D01*
X141610772Y-107766703D01*
X141775184Y-107734000D01*
X141942816Y-107734000D01*
X142107228Y-107766703D01*
G37*
G36*
X153283228Y-107766703D02*
G01*
X153438100Y-107830853D01*
X153577481Y-107923985D01*
X153696015Y-108042519D01*
X153789147Y-108181900D01*
X153853297Y-108336772D01*
X153886000Y-108501184D01*
X153886000Y-108668816D01*
X153853297Y-108833228D01*
X153789147Y-108988100D01*
X153696015Y-109127481D01*
X153577481Y-109246015D01*
X153438100Y-109339147D01*
X153283228Y-109403297D01*
X153118816Y-109436000D01*
X152951184Y-109436000D01*
X152786772Y-109403297D01*
X152631900Y-109339147D01*
X152492519Y-109246015D01*
X152373985Y-109127481D01*
X152280853Y-108988100D01*
X152216703Y-108833228D01*
X152184000Y-108668816D01*
X152184000Y-108501184D01*
X152216703Y-108336772D01*
X152280853Y-108181900D01*
X152373985Y-108042519D01*
X152492519Y-107923985D01*
X152631900Y-107830853D01*
X152786772Y-107766703D01*
X152951184Y-107734000D01*
X153118816Y-107734000D01*
X153283228Y-107766703D01*
G37*
G36*
X196971228Y-106505703D02*
G01*
X197126100Y-106569853D01*
X197265481Y-106662985D01*
X197384015Y-106781519D01*
X197477147Y-106920900D01*
X197541297Y-107075772D01*
X197574000Y-107240184D01*
X197574000Y-107407816D01*
X197541297Y-107572228D01*
X197477147Y-107727100D01*
X197384015Y-107866481D01*
X197265481Y-107985015D01*
X197126100Y-108078147D01*
X196971228Y-108142297D01*
X196806816Y-108175000D01*
X196639184Y-108175000D01*
X196474772Y-108142297D01*
X196319900Y-108078147D01*
X196180519Y-107985015D01*
X196061985Y-107866481D01*
X195968853Y-107727100D01*
X195904703Y-107572228D01*
X195872000Y-107407816D01*
X195872000Y-107240184D01*
X195904703Y-107075772D01*
X195968853Y-106920900D01*
X196061985Y-106781519D01*
X196180519Y-106662985D01*
X196319900Y-106569853D01*
X196474772Y-106505703D01*
X196639184Y-106473000D01*
X196806816Y-106473000D01*
X196971228Y-106505703D01*
G37*
G36*
X172079228Y-106416703D02*
G01*
X172234100Y-106480853D01*
X172373481Y-106573985D01*
X172492015Y-106692519D01*
X172585147Y-106831900D01*
X172649297Y-106986772D01*
X172682000Y-107151184D01*
X172682000Y-107318816D01*
X172649297Y-107483228D01*
X172585147Y-107638100D01*
X172492015Y-107777481D01*
X172373481Y-107896015D01*
X172234100Y-107989147D01*
X172079228Y-108053297D01*
X171914816Y-108086000D01*
X171747184Y-108086000D01*
X171582772Y-108053297D01*
X171427900Y-107989147D01*
X171288519Y-107896015D01*
X171169985Y-107777481D01*
X171076853Y-107638100D01*
X171012703Y-107483228D01*
X170980000Y-107318816D01*
X170980000Y-107151184D01*
X171012703Y-106986772D01*
X171076853Y-106831900D01*
X171169985Y-106692519D01*
X171288519Y-106573985D01*
X171427900Y-106480853D01*
X171582772Y-106416703D01*
X171747184Y-106384000D01*
X171914816Y-106384000D01*
X172079228Y-106416703D01*
G37*
G36*
X120771228Y-106396703D02*
G01*
X120926100Y-106460853D01*
X121065481Y-106553985D01*
X121184015Y-106672519D01*
X121277147Y-106811900D01*
X121341297Y-106966772D01*
X121374000Y-107131184D01*
X121374000Y-107298816D01*
X121341297Y-107463228D01*
X121277147Y-107618100D01*
X121184015Y-107757481D01*
X121065481Y-107876015D01*
X120926100Y-107969147D01*
X120771228Y-108033297D01*
X120606816Y-108066000D01*
X120439184Y-108066000D01*
X120274772Y-108033297D01*
X120119900Y-107969147D01*
X119980519Y-107876015D01*
X119861985Y-107757481D01*
X119768853Y-107618100D01*
X119704703Y-107463228D01*
X119672000Y-107298816D01*
X119672000Y-107131184D01*
X119704703Y-106966772D01*
X119768853Y-106811900D01*
X119861985Y-106672519D01*
X119980519Y-106553985D01*
X120119900Y-106460853D01*
X120274772Y-106396703D01*
X120439184Y-106364000D01*
X120606816Y-106364000D01*
X120771228Y-106396703D01*
G37*
G36*
X196971228Y-101505703D02*
G01*
X197126100Y-101569853D01*
X197265481Y-101662985D01*
X197384015Y-101781519D01*
X197477147Y-101920900D01*
X197541297Y-102075772D01*
X197574000Y-102240184D01*
X197574000Y-102407816D01*
X197541297Y-102572228D01*
X197477147Y-102727100D01*
X197384015Y-102866481D01*
X197265481Y-102985015D01*
X197126100Y-103078147D01*
X196971228Y-103142297D01*
X196806816Y-103175000D01*
X196639184Y-103175000D01*
X196474772Y-103142297D01*
X196319900Y-103078147D01*
X196180519Y-102985015D01*
X196061985Y-102866481D01*
X195968853Y-102727100D01*
X195904703Y-102572228D01*
X195872000Y-102407816D01*
X195872000Y-102240184D01*
X195904703Y-102075772D01*
X195968853Y-101920900D01*
X196061985Y-101781519D01*
X196180519Y-101662985D01*
X196319900Y-101569853D01*
X196474772Y-101505703D01*
X196639184Y-101473000D01*
X196806816Y-101473000D01*
X196971228Y-101505703D01*
G37*
G36*
X172079228Y-101416703D02*
G01*
X172234100Y-101480853D01*
X172373481Y-101573985D01*
X172492015Y-101692519D01*
X172585147Y-101831900D01*
X172649297Y-101986772D01*
X172682000Y-102151184D01*
X172682000Y-102318816D01*
X172649297Y-102483228D01*
X172585147Y-102638100D01*
X172492015Y-102777481D01*
X172373481Y-102896015D01*
X172234100Y-102989147D01*
X172079228Y-103053297D01*
X171914816Y-103086000D01*
X171747184Y-103086000D01*
X171582772Y-103053297D01*
X171427900Y-102989147D01*
X171288519Y-102896015D01*
X171169985Y-102777481D01*
X171076853Y-102638100D01*
X171012703Y-102483228D01*
X170980000Y-102318816D01*
X170980000Y-102151184D01*
X171012703Y-101986772D01*
X171076853Y-101831900D01*
X171169985Y-101692519D01*
X171288519Y-101573985D01*
X171427900Y-101480853D01*
X171582772Y-101416703D01*
X171747184Y-101384000D01*
X171914816Y-101384000D01*
X172079228Y-101416703D01*
G37*
G36*
X120771228Y-101396703D02*
G01*
X120926100Y-101460853D01*
X121065481Y-101553985D01*
X121184015Y-101672519D01*
X121277147Y-101811900D01*
X121341297Y-101966772D01*
X121374000Y-102131184D01*
X121374000Y-102298816D01*
X121341297Y-102463228D01*
X121277147Y-102618100D01*
X121184015Y-102757481D01*
X121065481Y-102876015D01*
X120926100Y-102969147D01*
X120771228Y-103033297D01*
X120606816Y-103066000D01*
X120439184Y-103066000D01*
X120274772Y-103033297D01*
X120119900Y-102969147D01*
X119980519Y-102876015D01*
X119861985Y-102757481D01*
X119768853Y-102618100D01*
X119704703Y-102463228D01*
X119672000Y-102298816D01*
X119672000Y-102131184D01*
X119704703Y-101966772D01*
X119768853Y-101811900D01*
X119861985Y-101672519D01*
X119980519Y-101553985D01*
X120119900Y-101460853D01*
X120274772Y-101396703D01*
X120439184Y-101364000D01*
X120606816Y-101364000D01*
X120771228Y-101396703D01*
G37*
G36*
X150743228Y-100146703D02*
G01*
X150898100Y-100210853D01*
X151037481Y-100303985D01*
X151156015Y-100422519D01*
X151249147Y-100561900D01*
X151313297Y-100716772D01*
X151346000Y-100881184D01*
X151346000Y-101048816D01*
X151313297Y-101213228D01*
X151249147Y-101368100D01*
X151156015Y-101507481D01*
X151037481Y-101626015D01*
X150898100Y-101719147D01*
X150743228Y-101783297D01*
X150578816Y-101816000D01*
X150411184Y-101816000D01*
X150246772Y-101783297D01*
X150091900Y-101719147D01*
X149952519Y-101626015D01*
X149833985Y-101507481D01*
X149740853Y-101368100D01*
X149676703Y-101213228D01*
X149644000Y-101048816D01*
X149644000Y-100881184D01*
X149676703Y-100716772D01*
X149740853Y-100561900D01*
X149833985Y-100422519D01*
X149952519Y-100303985D01*
X150091900Y-100210853D01*
X150246772Y-100146703D01*
X150411184Y-100114000D01*
X150578816Y-100114000D01*
X150743228Y-100146703D01*
G37*
G36*
X153283228Y-100146703D02*
G01*
X153438100Y-100210853D01*
X153577481Y-100303985D01*
X153696015Y-100422519D01*
X153789147Y-100561900D01*
X153853297Y-100716772D01*
X153886000Y-100881184D01*
X153886000Y-101048816D01*
X153853297Y-101213228D01*
X153789147Y-101368100D01*
X153696015Y-101507481D01*
X153577481Y-101626015D01*
X153438100Y-101719147D01*
X153283228Y-101783297D01*
X153118816Y-101816000D01*
X152951184Y-101816000D01*
X152786772Y-101783297D01*
X152631900Y-101719147D01*
X152492519Y-101626015D01*
X152373985Y-101507481D01*
X152280853Y-101368100D01*
X152216703Y-101213228D01*
X152184000Y-101048816D01*
X152184000Y-100881184D01*
X152216703Y-100716772D01*
X152280853Y-100561900D01*
X152373985Y-100422519D01*
X152492519Y-100303985D01*
X152631900Y-100210853D01*
X152786772Y-100146703D01*
X152951184Y-100114000D01*
X153118816Y-100114000D01*
X153283228Y-100146703D01*
G37*
G36*
X155823228Y-100146703D02*
G01*
X155978100Y-100210853D01*
X156117481Y-100303985D01*
X156236015Y-100422519D01*
X156329147Y-100561900D01*
X156393297Y-100716772D01*
X156426000Y-100881184D01*
X156426000Y-101048816D01*
X156393297Y-101213228D01*
X156329147Y-101368100D01*
X156236015Y-101507481D01*
X156117481Y-101626015D01*
X155978100Y-101719147D01*
X155823228Y-101783297D01*
X155658816Y-101816000D01*
X155491184Y-101816000D01*
X155326772Y-101783297D01*
X155171900Y-101719147D01*
X155032519Y-101626015D01*
X154913985Y-101507481D01*
X154820853Y-101368100D01*
X154756703Y-101213228D01*
X154724000Y-101048816D01*
X154724000Y-100881184D01*
X154756703Y-100716772D01*
X154820853Y-100561900D01*
X154913985Y-100422519D01*
X155032519Y-100303985D01*
X155171900Y-100210853D01*
X155326772Y-100146703D01*
X155491184Y-100114000D01*
X155658816Y-100114000D01*
X155823228Y-100146703D01*
G37*
G36*
X142107228Y-100146703D02*
G01*
X142262100Y-100210853D01*
X142401481Y-100303985D01*
X142520015Y-100422519D01*
X142613147Y-100561900D01*
X142677297Y-100716772D01*
X142710000Y-100881184D01*
X142710000Y-101048816D01*
X142677297Y-101213228D01*
X142613147Y-101368100D01*
X142520015Y-101507481D01*
X142401481Y-101626015D01*
X142262100Y-101719147D01*
X142107228Y-101783297D01*
X141942816Y-101816000D01*
X141775184Y-101816000D01*
X141610772Y-101783297D01*
X141455900Y-101719147D01*
X141316519Y-101626015D01*
X141197985Y-101507481D01*
X141104853Y-101368100D01*
X141040703Y-101213228D01*
X141008000Y-101048816D01*
X141008000Y-100881184D01*
X141040703Y-100716772D01*
X141104853Y-100561900D01*
X141197985Y-100422519D01*
X141316519Y-100303985D01*
X141455900Y-100210853D01*
X141610772Y-100146703D01*
X141775184Y-100114000D01*
X141942816Y-100114000D01*
X142107228Y-100146703D01*
G37*
G36*
X158363228Y-100146703D02*
G01*
X158518100Y-100210853D01*
X158657481Y-100303985D01*
X158776015Y-100422519D01*
X158869147Y-100561900D01*
X158933297Y-100716772D01*
X158966000Y-100881184D01*
X158966000Y-101048816D01*
X158933297Y-101213228D01*
X158869147Y-101368100D01*
X158776015Y-101507481D01*
X158657481Y-101626015D01*
X158518100Y-101719147D01*
X158363228Y-101783297D01*
X158198816Y-101816000D01*
X158031184Y-101816000D01*
X157866772Y-101783297D01*
X157711900Y-101719147D01*
X157572519Y-101626015D01*
X157453985Y-101507481D01*
X157360853Y-101368100D01*
X157296703Y-101213228D01*
X157264000Y-101048816D01*
X157264000Y-100881184D01*
X157296703Y-100716772D01*
X157360853Y-100561900D01*
X157453985Y-100422519D01*
X157572519Y-100303985D01*
X157711900Y-100210853D01*
X157866772Y-100146703D01*
X158031184Y-100114000D01*
X158198816Y-100114000D01*
X158363228Y-100146703D01*
G37*
G36*
X163443228Y-100146703D02*
G01*
X163598100Y-100210853D01*
X163737481Y-100303985D01*
X163856015Y-100422519D01*
X163949147Y-100561900D01*
X164013297Y-100716772D01*
X164046000Y-100881184D01*
X164046000Y-101048816D01*
X164013297Y-101213228D01*
X163949147Y-101368100D01*
X163856015Y-101507481D01*
X163737481Y-101626015D01*
X163598100Y-101719147D01*
X163443228Y-101783297D01*
X163278816Y-101816000D01*
X163111184Y-101816000D01*
X162946772Y-101783297D01*
X162791900Y-101719147D01*
X162652519Y-101626015D01*
X162533985Y-101507481D01*
X162440853Y-101368100D01*
X162376703Y-101213228D01*
X162344000Y-101048816D01*
X162344000Y-100881184D01*
X162376703Y-100716772D01*
X162440853Y-100561900D01*
X162533985Y-100422519D01*
X162652519Y-100303985D01*
X162791900Y-100210853D01*
X162946772Y-100146703D01*
X163111184Y-100114000D01*
X163278816Y-100114000D01*
X163443228Y-100146703D01*
G37*
G36*
X165983228Y-100146703D02*
G01*
X166138100Y-100210853D01*
X166277481Y-100303985D01*
X166396015Y-100422519D01*
X166489147Y-100561900D01*
X166553297Y-100716772D01*
X166586000Y-100881184D01*
X166586000Y-101048816D01*
X166553297Y-101213228D01*
X166489147Y-101368100D01*
X166396015Y-101507481D01*
X166277481Y-101626015D01*
X166138100Y-101719147D01*
X165983228Y-101783297D01*
X165818816Y-101816000D01*
X165651184Y-101816000D01*
X165486772Y-101783297D01*
X165331900Y-101719147D01*
X165192519Y-101626015D01*
X165073985Y-101507481D01*
X164980853Y-101368100D01*
X164916703Y-101213228D01*
X164884000Y-101048816D01*
X164884000Y-100881184D01*
X164916703Y-100716772D01*
X164980853Y-100561900D01*
X165073985Y-100422519D01*
X165192519Y-100303985D01*
X165331900Y-100210853D01*
X165486772Y-100146703D01*
X165651184Y-100114000D01*
X165818816Y-100114000D01*
X165983228Y-100146703D01*
G37*
G36*
X169126000Y-101816000D02*
G01*
X167424000Y-101816000D01*
X167424000Y-100114000D01*
X169126000Y-100114000D01*
X169126000Y-101816000D01*
G37*
G36*
X175635228Y-100146703D02*
G01*
X175790100Y-100210853D01*
X175929481Y-100303985D01*
X176048015Y-100422519D01*
X176141147Y-100561900D01*
X176205297Y-100716772D01*
X176238000Y-100881184D01*
X176238000Y-101048816D01*
X176205297Y-101213228D01*
X176141147Y-101368100D01*
X176048015Y-101507481D01*
X175929481Y-101626015D01*
X175790100Y-101719147D01*
X175635228Y-101783297D01*
X175470816Y-101816000D01*
X175303184Y-101816000D01*
X175138772Y-101783297D01*
X174983900Y-101719147D01*
X174844519Y-101626015D01*
X174725985Y-101507481D01*
X174632853Y-101368100D01*
X174568703Y-101213228D01*
X174536000Y-101048816D01*
X174536000Y-100881184D01*
X174568703Y-100716772D01*
X174632853Y-100561900D01*
X174725985Y-100422519D01*
X174844519Y-100303985D01*
X174983900Y-100210853D01*
X175138772Y-100146703D01*
X175303184Y-100114000D01*
X175470816Y-100114000D01*
X175635228Y-100146703D01*
G37*
G36*
X178175228Y-100146703D02*
G01*
X178330100Y-100210853D01*
X178469481Y-100303985D01*
X178588015Y-100422519D01*
X178681147Y-100561900D01*
X178745297Y-100716772D01*
X178778000Y-100881184D01*
X178778000Y-101048816D01*
X178745297Y-101213228D01*
X178681147Y-101368100D01*
X178588015Y-101507481D01*
X178469481Y-101626015D01*
X178330100Y-101719147D01*
X178175228Y-101783297D01*
X178010816Y-101816000D01*
X177843184Y-101816000D01*
X177678772Y-101783297D01*
X177523900Y-101719147D01*
X177384519Y-101626015D01*
X177265985Y-101507481D01*
X177172853Y-101368100D01*
X177108703Y-101213228D01*
X177076000Y-101048816D01*
X177076000Y-100881184D01*
X177108703Y-100716772D01*
X177172853Y-100561900D01*
X177265985Y-100422519D01*
X177384519Y-100303985D01*
X177523900Y-100210853D01*
X177678772Y-100146703D01*
X177843184Y-100114000D01*
X178010816Y-100114000D01*
X178175228Y-100146703D01*
G37*
G36*
X180715228Y-100146703D02*
G01*
X180870100Y-100210853D01*
X181009481Y-100303985D01*
X181128015Y-100422519D01*
X181221147Y-100561900D01*
X181285297Y-100716772D01*
X181318000Y-100881184D01*
X181318000Y-101048816D01*
X181285297Y-101213228D01*
X181221147Y-101368100D01*
X181128015Y-101507481D01*
X181009481Y-101626015D01*
X180870100Y-101719147D01*
X180715228Y-101783297D01*
X180550816Y-101816000D01*
X180383184Y-101816000D01*
X180218772Y-101783297D01*
X180063900Y-101719147D01*
X179924519Y-101626015D01*
X179805985Y-101507481D01*
X179712853Y-101368100D01*
X179648703Y-101213228D01*
X179616000Y-101048816D01*
X179616000Y-100881184D01*
X179648703Y-100716772D01*
X179712853Y-100561900D01*
X179805985Y-100422519D01*
X179924519Y-100303985D01*
X180063900Y-100210853D01*
X180218772Y-100146703D01*
X180383184Y-100114000D01*
X180550816Y-100114000D01*
X180715228Y-100146703D01*
G37*
G36*
X183255228Y-100146703D02*
G01*
X183410100Y-100210853D01*
X183549481Y-100303985D01*
X183668015Y-100422519D01*
X183761147Y-100561900D01*
X183825297Y-100716772D01*
X183858000Y-100881184D01*
X183858000Y-101048816D01*
X183825297Y-101213228D01*
X183761147Y-101368100D01*
X183668015Y-101507481D01*
X183549481Y-101626015D01*
X183410100Y-101719147D01*
X183255228Y-101783297D01*
X183090816Y-101816000D01*
X182923184Y-101816000D01*
X182758772Y-101783297D01*
X182603900Y-101719147D01*
X182464519Y-101626015D01*
X182345985Y-101507481D01*
X182252853Y-101368100D01*
X182188703Y-101213228D01*
X182156000Y-101048816D01*
X182156000Y-100881184D01*
X182188703Y-100716772D01*
X182252853Y-100561900D01*
X182345985Y-100422519D01*
X182464519Y-100303985D01*
X182603900Y-100210853D01*
X182758772Y-100146703D01*
X182923184Y-100114000D01*
X183090816Y-100114000D01*
X183255228Y-100146703D01*
G37*
G36*
X185795228Y-100146703D02*
G01*
X185950100Y-100210853D01*
X186089481Y-100303985D01*
X186208015Y-100422519D01*
X186301147Y-100561900D01*
X186365297Y-100716772D01*
X186398000Y-100881184D01*
X186398000Y-101048816D01*
X186365297Y-101213228D01*
X186301147Y-101368100D01*
X186208015Y-101507481D01*
X186089481Y-101626015D01*
X185950100Y-101719147D01*
X185795228Y-101783297D01*
X185630816Y-101816000D01*
X185463184Y-101816000D01*
X185298772Y-101783297D01*
X185143900Y-101719147D01*
X185004519Y-101626015D01*
X184885985Y-101507481D01*
X184792853Y-101368100D01*
X184728703Y-101213228D01*
X184696000Y-101048816D01*
X184696000Y-100881184D01*
X184728703Y-100716772D01*
X184792853Y-100561900D01*
X184885985Y-100422519D01*
X185004519Y-100303985D01*
X185143900Y-100210853D01*
X185298772Y-100146703D01*
X185463184Y-100114000D01*
X185630816Y-100114000D01*
X185795228Y-100146703D01*
G37*
G36*
X190875228Y-100146703D02*
G01*
X191030100Y-100210853D01*
X191169481Y-100303985D01*
X191288015Y-100422519D01*
X191381147Y-100561900D01*
X191445297Y-100716772D01*
X191478000Y-100881184D01*
X191478000Y-101048816D01*
X191445297Y-101213228D01*
X191381147Y-101368100D01*
X191288015Y-101507481D01*
X191169481Y-101626015D01*
X191030100Y-101719147D01*
X190875228Y-101783297D01*
X190710816Y-101816000D01*
X190543184Y-101816000D01*
X190378772Y-101783297D01*
X190223900Y-101719147D01*
X190084519Y-101626015D01*
X189965985Y-101507481D01*
X189872853Y-101368100D01*
X189808703Y-101213228D01*
X189776000Y-101048816D01*
X189776000Y-100881184D01*
X189808703Y-100716772D01*
X189872853Y-100561900D01*
X189965985Y-100422519D01*
X190084519Y-100303985D01*
X190223900Y-100210853D01*
X190378772Y-100146703D01*
X190543184Y-100114000D01*
X190710816Y-100114000D01*
X190875228Y-100146703D01*
G37*
G36*
X188335228Y-100146703D02*
G01*
X188490100Y-100210853D01*
X188629481Y-100303985D01*
X188748015Y-100422519D01*
X188841147Y-100561900D01*
X188905297Y-100716772D01*
X188938000Y-100881184D01*
X188938000Y-101048816D01*
X188905297Y-101213228D01*
X188841147Y-101368100D01*
X188748015Y-101507481D01*
X188629481Y-101626015D01*
X188490100Y-101719147D01*
X188335228Y-101783297D01*
X188170816Y-101816000D01*
X188003184Y-101816000D01*
X187838772Y-101783297D01*
X187683900Y-101719147D01*
X187544519Y-101626015D01*
X187425985Y-101507481D01*
X187332853Y-101368100D01*
X187268703Y-101213228D01*
X187236000Y-101048816D01*
X187236000Y-100881184D01*
X187268703Y-100716772D01*
X187332853Y-100561900D01*
X187425985Y-100422519D01*
X187544519Y-100303985D01*
X187683900Y-100210853D01*
X187838772Y-100146703D01*
X188003184Y-100114000D01*
X188170816Y-100114000D01*
X188335228Y-100146703D01*
G37*
G36*
X129407228Y-100146703D02*
G01*
X129562100Y-100210853D01*
X129701481Y-100303985D01*
X129820015Y-100422519D01*
X129913147Y-100561900D01*
X129977297Y-100716772D01*
X130010000Y-100881184D01*
X130010000Y-101048816D01*
X129977297Y-101213228D01*
X129913147Y-101368100D01*
X129820015Y-101507481D01*
X129701481Y-101626015D01*
X129562100Y-101719147D01*
X129407228Y-101783297D01*
X129242816Y-101816000D01*
X129075184Y-101816000D01*
X128910772Y-101783297D01*
X128755900Y-101719147D01*
X128616519Y-101626015D01*
X128497985Y-101507481D01*
X128404853Y-101368100D01*
X128340703Y-101213228D01*
X128308000Y-101048816D01*
X128308000Y-100881184D01*
X128340703Y-100716772D01*
X128404853Y-100561900D01*
X128497985Y-100422519D01*
X128616519Y-100303985D01*
X128755900Y-100210853D01*
X128910772Y-100146703D01*
X129075184Y-100114000D01*
X129242816Y-100114000D01*
X129407228Y-100146703D01*
G37*
G36*
X124327228Y-100146703D02*
G01*
X124482100Y-100210853D01*
X124621481Y-100303985D01*
X124740015Y-100422519D01*
X124833147Y-100561900D01*
X124897297Y-100716772D01*
X124930000Y-100881184D01*
X124930000Y-101048816D01*
X124897297Y-101213228D01*
X124833147Y-101368100D01*
X124740015Y-101507481D01*
X124621481Y-101626015D01*
X124482100Y-101719147D01*
X124327228Y-101783297D01*
X124162816Y-101816000D01*
X123995184Y-101816000D01*
X123830772Y-101783297D01*
X123675900Y-101719147D01*
X123536519Y-101626015D01*
X123417985Y-101507481D01*
X123324853Y-101368100D01*
X123260703Y-101213228D01*
X123228000Y-101048816D01*
X123228000Y-100881184D01*
X123260703Y-100716772D01*
X123324853Y-100561900D01*
X123417985Y-100422519D01*
X123536519Y-100303985D01*
X123675900Y-100210853D01*
X123830772Y-100146703D01*
X123995184Y-100114000D01*
X124162816Y-100114000D01*
X124327228Y-100146703D01*
G37*
G36*
X194018000Y-101816000D02*
G01*
X192316000Y-101816000D01*
X192316000Y-100114000D01*
X194018000Y-100114000D01*
X194018000Y-101816000D01*
G37*
G36*
X126867228Y-100146703D02*
G01*
X127022100Y-100210853D01*
X127161481Y-100303985D01*
X127280015Y-100422519D01*
X127373147Y-100561900D01*
X127437297Y-100716772D01*
X127470000Y-100881184D01*
X127470000Y-101048816D01*
X127437297Y-101213228D01*
X127373147Y-101368100D01*
X127280015Y-101507481D01*
X127161481Y-101626015D01*
X127022100Y-101719147D01*
X126867228Y-101783297D01*
X126702816Y-101816000D01*
X126535184Y-101816000D01*
X126370772Y-101783297D01*
X126215900Y-101719147D01*
X126076519Y-101626015D01*
X125957985Y-101507481D01*
X125864853Y-101368100D01*
X125800703Y-101213228D01*
X125768000Y-101048816D01*
X125768000Y-100881184D01*
X125800703Y-100716772D01*
X125864853Y-100561900D01*
X125957985Y-100422519D01*
X126076519Y-100303985D01*
X126215900Y-100210853D01*
X126370772Y-100146703D01*
X126535184Y-100114000D01*
X126702816Y-100114000D01*
X126867228Y-100146703D01*
G37*
G36*
X144647228Y-100146703D02*
G01*
X144802100Y-100210853D01*
X144941481Y-100303985D01*
X145060015Y-100422519D01*
X145153147Y-100561900D01*
X145217297Y-100716772D01*
X145250000Y-100881184D01*
X145250000Y-101048816D01*
X145217297Y-101213228D01*
X145153147Y-101368100D01*
X145060015Y-101507481D01*
X144941481Y-101626015D01*
X144802100Y-101719147D01*
X144647228Y-101783297D01*
X144482816Y-101816000D01*
X144315184Y-101816000D01*
X144150772Y-101783297D01*
X143995900Y-101719147D01*
X143856519Y-101626015D01*
X143737985Y-101507481D01*
X143644853Y-101368100D01*
X143580703Y-101213228D01*
X143548000Y-101048816D01*
X143548000Y-100881184D01*
X143580703Y-100716772D01*
X143644853Y-100561900D01*
X143737985Y-100422519D01*
X143856519Y-100303985D01*
X143995900Y-100210853D01*
X144150772Y-100146703D01*
X144315184Y-100114000D01*
X144482816Y-100114000D01*
X144647228Y-100146703D01*
G37*
G36*
X131947228Y-100146703D02*
G01*
X132102100Y-100210853D01*
X132241481Y-100303985D01*
X132360015Y-100422519D01*
X132453147Y-100561900D01*
X132517297Y-100716772D01*
X132550000Y-100881184D01*
X132550000Y-101048816D01*
X132517297Y-101213228D01*
X132453147Y-101368100D01*
X132360015Y-101507481D01*
X132241481Y-101626015D01*
X132102100Y-101719147D01*
X131947228Y-101783297D01*
X131782816Y-101816000D01*
X131615184Y-101816000D01*
X131450772Y-101783297D01*
X131295900Y-101719147D01*
X131156519Y-101626015D01*
X131037985Y-101507481D01*
X130944853Y-101368100D01*
X130880703Y-101213228D01*
X130848000Y-101048816D01*
X130848000Y-100881184D01*
X130880703Y-100716772D01*
X130944853Y-100561900D01*
X131037985Y-100422519D01*
X131156519Y-100303985D01*
X131295900Y-100210853D01*
X131450772Y-100146703D01*
X131615184Y-100114000D01*
X131782816Y-100114000D01*
X131947228Y-100146703D01*
G37*
G36*
X134487228Y-100146703D02*
G01*
X134642100Y-100210853D01*
X134781481Y-100303985D01*
X134900015Y-100422519D01*
X134993147Y-100561900D01*
X135057297Y-100716772D01*
X135090000Y-100881184D01*
X135090000Y-101048816D01*
X135057297Y-101213228D01*
X134993147Y-101368100D01*
X134900015Y-101507481D01*
X134781481Y-101626015D01*
X134642100Y-101719147D01*
X134487228Y-101783297D01*
X134322816Y-101816000D01*
X134155184Y-101816000D01*
X133990772Y-101783297D01*
X133835900Y-101719147D01*
X133696519Y-101626015D01*
X133577985Y-101507481D01*
X133484853Y-101368100D01*
X133420703Y-101213228D01*
X133388000Y-101048816D01*
X133388000Y-100881184D01*
X133420703Y-100716772D01*
X133484853Y-100561900D01*
X133577985Y-100422519D01*
X133696519Y-100303985D01*
X133835900Y-100210853D01*
X133990772Y-100146703D01*
X134155184Y-100114000D01*
X134322816Y-100114000D01*
X134487228Y-100146703D01*
G37*
G36*
X137027228Y-100146703D02*
G01*
X137182100Y-100210853D01*
X137321481Y-100303985D01*
X137440015Y-100422519D01*
X137533147Y-100561900D01*
X137597297Y-100716772D01*
X137630000Y-100881184D01*
X137630000Y-101048816D01*
X137597297Y-101213228D01*
X137533147Y-101368100D01*
X137440015Y-101507481D01*
X137321481Y-101626015D01*
X137182100Y-101719147D01*
X137027228Y-101783297D01*
X136862816Y-101816000D01*
X136695184Y-101816000D01*
X136530772Y-101783297D01*
X136375900Y-101719147D01*
X136236519Y-101626015D01*
X136117985Y-101507481D01*
X136024853Y-101368100D01*
X135960703Y-101213228D01*
X135928000Y-101048816D01*
X135928000Y-100881184D01*
X135960703Y-100716772D01*
X136024853Y-100561900D01*
X136117985Y-100422519D01*
X136236519Y-100303985D01*
X136375900Y-100210853D01*
X136530772Y-100146703D01*
X136695184Y-100114000D01*
X136862816Y-100114000D01*
X137027228Y-100146703D01*
G37*
G36*
X139567228Y-100146703D02*
G01*
X139722100Y-100210853D01*
X139861481Y-100303985D01*
X139980015Y-100422519D01*
X140073147Y-100561900D01*
X140137297Y-100716772D01*
X140170000Y-100881184D01*
X140170000Y-101048816D01*
X140137297Y-101213228D01*
X140073147Y-101368100D01*
X139980015Y-101507481D01*
X139861481Y-101626015D01*
X139722100Y-101719147D01*
X139567228Y-101783297D01*
X139402816Y-101816000D01*
X139235184Y-101816000D01*
X139070772Y-101783297D01*
X138915900Y-101719147D01*
X138776519Y-101626015D01*
X138657985Y-101507481D01*
X138564853Y-101368100D01*
X138500703Y-101213228D01*
X138468000Y-101048816D01*
X138468000Y-100881184D01*
X138500703Y-100716772D01*
X138564853Y-100561900D01*
X138657985Y-100422519D01*
X138776519Y-100303985D01*
X138915900Y-100210853D01*
X139070772Y-100146703D01*
X139235184Y-100114000D01*
X139402816Y-100114000D01*
X139567228Y-100146703D01*
G37*
G36*
X147187228Y-100146703D02*
G01*
X147342100Y-100210853D01*
X147481481Y-100303985D01*
X147600015Y-100422519D01*
X147693147Y-100561900D01*
X147757297Y-100716772D01*
X147790000Y-100881184D01*
X147790000Y-101048816D01*
X147757297Y-101213228D01*
X147693147Y-101368100D01*
X147600015Y-101507481D01*
X147481481Y-101626015D01*
X147342100Y-101719147D01*
X147187228Y-101783297D01*
X147022816Y-101816000D01*
X146855184Y-101816000D01*
X146690772Y-101783297D01*
X146535900Y-101719147D01*
X146396519Y-101626015D01*
X146277985Y-101507481D01*
X146184853Y-101368100D01*
X146120703Y-101213228D01*
X146088000Y-101048816D01*
X146088000Y-100881184D01*
X146120703Y-100716772D01*
X146184853Y-100561900D01*
X146277985Y-100422519D01*
X146396519Y-100303985D01*
X146535900Y-100210853D01*
X146690772Y-100146703D01*
X146855184Y-100114000D01*
X147022816Y-100114000D01*
X147187228Y-100146703D01*
G37*
G36*
X160903228Y-100146703D02*
G01*
X161058100Y-100210853D01*
X161197481Y-100303985D01*
X161316015Y-100422519D01*
X161409147Y-100561900D01*
X161473297Y-100716772D01*
X161506000Y-100881184D01*
X161506000Y-101048816D01*
X161473297Y-101213228D01*
X161409147Y-101368100D01*
X161316015Y-101507481D01*
X161197481Y-101626015D01*
X161058100Y-101719147D01*
X160903228Y-101783297D01*
X160738816Y-101816000D01*
X160571184Y-101816000D01*
X160406772Y-101783297D01*
X160251900Y-101719147D01*
X160112519Y-101626015D01*
X159993985Y-101507481D01*
X159900853Y-101368100D01*
X159836703Y-101213228D01*
X159804000Y-101048816D01*
X159804000Y-100881184D01*
X159836703Y-100716772D01*
X159900853Y-100561900D01*
X159993985Y-100422519D01*
X160112519Y-100303985D01*
X160251900Y-100210853D01*
X160406772Y-100146703D01*
X160571184Y-100114000D01*
X160738816Y-100114000D01*
X160903228Y-100146703D01*
G37*
G36*
X161157228Y-95828703D02*
G01*
X161312100Y-95892853D01*
X161451481Y-95985985D01*
X161570015Y-96104519D01*
X161663147Y-96243900D01*
X161727297Y-96398772D01*
X161760000Y-96563184D01*
X161760000Y-96730816D01*
X161727297Y-96895228D01*
X161663147Y-97050100D01*
X161570015Y-97189481D01*
X161451481Y-97308015D01*
X161312100Y-97401147D01*
X161157228Y-97465297D01*
X160992816Y-97498000D01*
X160825184Y-97498000D01*
X160660772Y-97465297D01*
X160505900Y-97401147D01*
X160366519Y-97308015D01*
X160247985Y-97189481D01*
X160154853Y-97050100D01*
X160090703Y-96895228D01*
X160058000Y-96730816D01*
X160058000Y-96563184D01*
X160090703Y-96398772D01*
X160154853Y-96243900D01*
X160247985Y-96104519D01*
X160366519Y-95985985D01*
X160505900Y-95892853D01*
X160660772Y-95828703D01*
X160825184Y-95796000D01*
X160992816Y-95796000D01*
X161157228Y-95828703D01*
G37*
G36*
X158617228Y-95828703D02*
G01*
X158772100Y-95892853D01*
X158911481Y-95985985D01*
X159030015Y-96104519D01*
X159123147Y-96243900D01*
X159187297Y-96398772D01*
X159220000Y-96563184D01*
X159220000Y-96730816D01*
X159187297Y-96895228D01*
X159123147Y-97050100D01*
X159030015Y-97189481D01*
X158911481Y-97308015D01*
X158772100Y-97401147D01*
X158617228Y-97465297D01*
X158452816Y-97498000D01*
X158285184Y-97498000D01*
X158120772Y-97465297D01*
X157965900Y-97401147D01*
X157826519Y-97308015D01*
X157707985Y-97189481D01*
X157614853Y-97050100D01*
X157550703Y-96895228D01*
X157518000Y-96730816D01*
X157518000Y-96563184D01*
X157550703Y-96398772D01*
X157614853Y-96243900D01*
X157707985Y-96104519D01*
X157826519Y-95985985D01*
X157965900Y-95892853D01*
X158120772Y-95828703D01*
X158285184Y-95796000D01*
X158452816Y-95796000D01*
X158617228Y-95828703D01*
G37*
G36*
X156077228Y-95828703D02*
G01*
X156232100Y-95892853D01*
X156371481Y-95985985D01*
X156490015Y-96104519D01*
X156583147Y-96243900D01*
X156647297Y-96398772D01*
X156680000Y-96563184D01*
X156680000Y-96730816D01*
X156647297Y-96895228D01*
X156583147Y-97050100D01*
X156490015Y-97189481D01*
X156371481Y-97308015D01*
X156232100Y-97401147D01*
X156077228Y-97465297D01*
X155912816Y-97498000D01*
X155745184Y-97498000D01*
X155580772Y-97465297D01*
X155425900Y-97401147D01*
X155286519Y-97308015D01*
X155167985Y-97189481D01*
X155074853Y-97050100D01*
X155010703Y-96895228D01*
X154978000Y-96730816D01*
X154978000Y-96563184D01*
X155010703Y-96398772D01*
X155074853Y-96243900D01*
X155167985Y-96104519D01*
X155286519Y-95985985D01*
X155425900Y-95892853D01*
X155580772Y-95828703D01*
X155745184Y-95796000D01*
X155912816Y-95796000D01*
X156077228Y-95828703D01*
G37*
G36*
X153537228Y-95828703D02*
G01*
X153692100Y-95892853D01*
X153831481Y-95985985D01*
X153950015Y-96104519D01*
X154043147Y-96243900D01*
X154107297Y-96398772D01*
X154140000Y-96563184D01*
X154140000Y-96730816D01*
X154107297Y-96895228D01*
X154043147Y-97050100D01*
X153950015Y-97189481D01*
X153831481Y-97308015D01*
X153692100Y-97401147D01*
X153537228Y-97465297D01*
X153372816Y-97498000D01*
X153205184Y-97498000D01*
X153040772Y-97465297D01*
X152885900Y-97401147D01*
X152746519Y-97308015D01*
X152627985Y-97189481D01*
X152534853Y-97050100D01*
X152470703Y-96895228D01*
X152438000Y-96730816D01*
X152438000Y-96563184D01*
X152470703Y-96398772D01*
X152534853Y-96243900D01*
X152627985Y-96104519D01*
X152746519Y-95985985D01*
X152885900Y-95892853D01*
X153040772Y-95828703D01*
X153205184Y-95796000D01*
X153372816Y-95796000D01*
X153537228Y-95828703D01*
G37*
G36*
X145917228Y-95828703D02*
G01*
X146072100Y-95892853D01*
X146211481Y-95985985D01*
X146330015Y-96104519D01*
X146423147Y-96243900D01*
X146487297Y-96398772D01*
X146520000Y-96563184D01*
X146520000Y-96730816D01*
X146487297Y-96895228D01*
X146423147Y-97050100D01*
X146330015Y-97189481D01*
X146211481Y-97308015D01*
X146072100Y-97401147D01*
X145917228Y-97465297D01*
X145752816Y-97498000D01*
X145585184Y-97498000D01*
X145420772Y-97465297D01*
X145265900Y-97401147D01*
X145126519Y-97308015D01*
X145007985Y-97189481D01*
X144914853Y-97050100D01*
X144850703Y-96895228D01*
X144818000Y-96730816D01*
X144818000Y-96563184D01*
X144850703Y-96398772D01*
X144914853Y-96243900D01*
X145007985Y-96104519D01*
X145126519Y-95985985D01*
X145265900Y-95892853D01*
X145420772Y-95828703D01*
X145585184Y-95796000D01*
X145752816Y-95796000D01*
X145917228Y-95828703D01*
G37*
G36*
X148457228Y-95828703D02*
G01*
X148612100Y-95892853D01*
X148751481Y-95985985D01*
X148870015Y-96104519D01*
X148963147Y-96243900D01*
X149027297Y-96398772D01*
X149060000Y-96563184D01*
X149060000Y-96730816D01*
X149027297Y-96895228D01*
X148963147Y-97050100D01*
X148870015Y-97189481D01*
X148751481Y-97308015D01*
X148612100Y-97401147D01*
X148457228Y-97465297D01*
X148292816Y-97498000D01*
X148125184Y-97498000D01*
X147960772Y-97465297D01*
X147805900Y-97401147D01*
X147666519Y-97308015D01*
X147547985Y-97189481D01*
X147454853Y-97050100D01*
X147390703Y-96895228D01*
X147358000Y-96730816D01*
X147358000Y-96563184D01*
X147390703Y-96398772D01*
X147454853Y-96243900D01*
X147547985Y-96104519D01*
X147666519Y-95985985D01*
X147805900Y-95892853D01*
X147960772Y-95828703D01*
X148125184Y-95796000D01*
X148292816Y-95796000D01*
X148457228Y-95828703D01*
G37*
G36*
X150997228Y-95828703D02*
G01*
X151152100Y-95892853D01*
X151291481Y-95985985D01*
X151410015Y-96104519D01*
X151503147Y-96243900D01*
X151567297Y-96398772D01*
X151600000Y-96563184D01*
X151600000Y-96730816D01*
X151567297Y-96895228D01*
X151503147Y-97050100D01*
X151410015Y-97189481D01*
X151291481Y-97308015D01*
X151152100Y-97401147D01*
X150997228Y-97465297D01*
X150832816Y-97498000D01*
X150665184Y-97498000D01*
X150500772Y-97465297D01*
X150345900Y-97401147D01*
X150206519Y-97308015D01*
X150087985Y-97189481D01*
X149994853Y-97050100D01*
X149930703Y-96895228D01*
X149898000Y-96730816D01*
X149898000Y-96563184D01*
X149930703Y-96398772D01*
X149994853Y-96243900D01*
X150087985Y-96104519D01*
X150206519Y-95985985D01*
X150345900Y-95892853D01*
X150500772Y-95828703D01*
X150665184Y-95796000D01*
X150832816Y-95796000D01*
X150997228Y-95828703D01*
G37*
G36*
X143377228Y-95828703D02*
G01*
X143532100Y-95892853D01*
X143671481Y-95985985D01*
X143790015Y-96104519D01*
X143883147Y-96243900D01*
X143947297Y-96398772D01*
X143980000Y-96563184D01*
X143980000Y-96730816D01*
X143947297Y-96895228D01*
X143883147Y-97050100D01*
X143790015Y-97189481D01*
X143671481Y-97308015D01*
X143532100Y-97401147D01*
X143377228Y-97465297D01*
X143212816Y-97498000D01*
X143045184Y-97498000D01*
X142880772Y-97465297D01*
X142725900Y-97401147D01*
X142586519Y-97308015D01*
X142467985Y-97189481D01*
X142374853Y-97050100D01*
X142310703Y-96895228D01*
X142278000Y-96730816D01*
X142278000Y-96563184D01*
X142310703Y-96398772D01*
X142374853Y-96243900D01*
X142467985Y-96104519D01*
X142586519Y-95985985D01*
X142725900Y-95892853D01*
X142880772Y-95828703D01*
X143045184Y-95796000D01*
X143212816Y-95796000D01*
X143377228Y-95828703D01*
G37*
G36*
X141440000Y-97498000D02*
G01*
X139738000Y-97498000D01*
X139738000Y-95796000D01*
X141440000Y-95796000D01*
X141440000Y-97498000D01*
G37*
G36*
X154963395Y-88239546D02*
G01*
X155136466Y-88311234D01*
X155136467Y-88311235D01*
X155292227Y-88415310D01*
X155424690Y-88547773D01*
X155424691Y-88547775D01*
X155528766Y-88703534D01*
X155600454Y-88876605D01*
X155637000Y-89060333D01*
X155637000Y-89247667D01*
X155600454Y-89431395D01*
X155528766Y-89604466D01*
X155528765Y-89604467D01*
X155424690Y-89760227D01*
X155292227Y-89892690D01*
X155213818Y-89945081D01*
X155136466Y-89996766D01*
X154963395Y-90068454D01*
X154779667Y-90105000D01*
X154592333Y-90105000D01*
X154408605Y-90068454D01*
X154235534Y-89996766D01*
X154158182Y-89945081D01*
X154079773Y-89892690D01*
X153947310Y-89760227D01*
X153843235Y-89604467D01*
X153843234Y-89604466D01*
X153771546Y-89431395D01*
X153735000Y-89247667D01*
X153735000Y-89060333D01*
X153771546Y-88876605D01*
X153843234Y-88703534D01*
X153947309Y-88547775D01*
X153947310Y-88547773D01*
X154079773Y-88415310D01*
X154235533Y-88311235D01*
X154235534Y-88311234D01*
X154408605Y-88239546D01*
X154592333Y-88203000D01*
X154779667Y-88203000D01*
X154963395Y-88239546D01*
G37*
G36*
X158177000Y-90105000D02*
G01*
X156275000Y-90105000D01*
X156275000Y-88203000D01*
X158177000Y-88203000D01*
X158177000Y-90105000D01*
G37*
G36*
X174013395Y-88239546D02*
G01*
X174186466Y-88311234D01*
X174186467Y-88311235D01*
X174342227Y-88415310D01*
X174474690Y-88547773D01*
X174474691Y-88547775D01*
X174578766Y-88703534D01*
X174650454Y-88876605D01*
X174687000Y-89060333D01*
X174687000Y-89247667D01*
X174650454Y-89431395D01*
X174578766Y-89604466D01*
X174578765Y-89604467D01*
X174474690Y-89760227D01*
X174342227Y-89892690D01*
X174263818Y-89945081D01*
X174186466Y-89996766D01*
X174013395Y-90068454D01*
X173829667Y-90105000D01*
X173642333Y-90105000D01*
X173458605Y-90068454D01*
X173285534Y-89996766D01*
X173208182Y-89945081D01*
X173129773Y-89892690D01*
X172997310Y-89760227D01*
X172893235Y-89604467D01*
X172893234Y-89604466D01*
X172821546Y-89431395D01*
X172785000Y-89247667D01*
X172785000Y-89060333D01*
X172821546Y-88876605D01*
X172893234Y-88703534D01*
X172997309Y-88547775D01*
X172997310Y-88547773D01*
X173129773Y-88415310D01*
X173285533Y-88311235D01*
X173285534Y-88311234D01*
X173458605Y-88239546D01*
X173642333Y-88203000D01*
X173829667Y-88203000D01*
X174013395Y-88239546D01*
G37*
G36*
X177227000Y-90105000D02*
G01*
X175325000Y-90105000D01*
X175325000Y-88203000D01*
X177227000Y-88203000D01*
X177227000Y-90105000D01*
G37*
G36*
X161313395Y-88239546D02*
G01*
X161486466Y-88311234D01*
X161486467Y-88311235D01*
X161642227Y-88415310D01*
X161774690Y-88547773D01*
X161774691Y-88547775D01*
X161878766Y-88703534D01*
X161950454Y-88876605D01*
X161987000Y-89060333D01*
X161987000Y-89247667D01*
X161950454Y-89431395D01*
X161878766Y-89604466D01*
X161878765Y-89604467D01*
X161774690Y-89760227D01*
X161642227Y-89892690D01*
X161563818Y-89945081D01*
X161486466Y-89996766D01*
X161313395Y-90068454D01*
X161129667Y-90105000D01*
X160942333Y-90105000D01*
X160758605Y-90068454D01*
X160585534Y-89996766D01*
X160508182Y-89945081D01*
X160429773Y-89892690D01*
X160297310Y-89760227D01*
X160193235Y-89604467D01*
X160193234Y-89604466D01*
X160121546Y-89431395D01*
X160085000Y-89247667D01*
X160085000Y-89060333D01*
X160121546Y-88876605D01*
X160193234Y-88703534D01*
X160297309Y-88547775D01*
X160297310Y-88547773D01*
X160429773Y-88415310D01*
X160585533Y-88311235D01*
X160585534Y-88311234D01*
X160758605Y-88239546D01*
X160942333Y-88203000D01*
X161129667Y-88203000D01*
X161313395Y-88239546D01*
G37*
G36*
X164527000Y-90105000D02*
G01*
X162625000Y-90105000D01*
X162625000Y-88203000D01*
X164527000Y-88203000D01*
X164527000Y-90105000D01*
G37*
G36*
X170877000Y-90105000D02*
G01*
X168975000Y-90105000D01*
X168975000Y-88203000D01*
X170877000Y-88203000D01*
X170877000Y-90105000D01*
G37*
G36*
X167663395Y-88239546D02*
G01*
X167836466Y-88311234D01*
X167836467Y-88311235D01*
X167992227Y-88415310D01*
X168124690Y-88547773D01*
X168124691Y-88547775D01*
X168228766Y-88703534D01*
X168300454Y-88876605D01*
X168337000Y-89060333D01*
X168337000Y-89247667D01*
X168300454Y-89431395D01*
X168228766Y-89604466D01*
X168228765Y-89604467D01*
X168124690Y-89760227D01*
X167992227Y-89892690D01*
X167913818Y-89945081D01*
X167836466Y-89996766D01*
X167663395Y-90068454D01*
X167479667Y-90105000D01*
X167292333Y-90105000D01*
X167108605Y-90068454D01*
X166935534Y-89996766D01*
X166858182Y-89945081D01*
X166779773Y-89892690D01*
X166647310Y-89760227D01*
X166543235Y-89604467D01*
X166543234Y-89604466D01*
X166471546Y-89431395D01*
X166435000Y-89247667D01*
X166435000Y-89060333D01*
X166471546Y-88876605D01*
X166543234Y-88703534D01*
X166647309Y-88547775D01*
X166647310Y-88547773D01*
X166779773Y-88415310D01*
X166935533Y-88311235D01*
X166935534Y-88311234D01*
X167108605Y-88239546D01*
X167292333Y-88203000D01*
X167479667Y-88203000D01*
X167663395Y-88239546D01*
G37*
G36*
X141628395Y-88239546D02*
G01*
X141801466Y-88311234D01*
X141801467Y-88311235D01*
X141957227Y-88415310D01*
X142089690Y-88547773D01*
X142089691Y-88547775D01*
X142193766Y-88703534D01*
X142265454Y-88876605D01*
X142302000Y-89060333D01*
X142302000Y-89247667D01*
X142265454Y-89431395D01*
X142193766Y-89604466D01*
X142193765Y-89604467D01*
X142089690Y-89760227D01*
X141957227Y-89892690D01*
X141878818Y-89945081D01*
X141801466Y-89996766D01*
X141628395Y-90068454D01*
X141444667Y-90105000D01*
X141257333Y-90105000D01*
X141073605Y-90068454D01*
X140900534Y-89996766D01*
X140823182Y-89945081D01*
X140744773Y-89892690D01*
X140612310Y-89760227D01*
X140508235Y-89604467D01*
X140508234Y-89604466D01*
X140436546Y-89431395D01*
X140400000Y-89247667D01*
X140400000Y-89060333D01*
X140436546Y-88876605D01*
X140508234Y-88703534D01*
X140612309Y-88547775D01*
X140612310Y-88547773D01*
X140744773Y-88415310D01*
X140900533Y-88311235D01*
X140900534Y-88311234D01*
X141073605Y-88239546D01*
X141257333Y-88203000D01*
X141444667Y-88203000D01*
X141628395Y-88239546D01*
G37*
G36*
X128928395Y-88239546D02*
G01*
X129101466Y-88311234D01*
X129101467Y-88311235D01*
X129257227Y-88415310D01*
X129389690Y-88547773D01*
X129389691Y-88547775D01*
X129493766Y-88703534D01*
X129565454Y-88876605D01*
X129602000Y-89060333D01*
X129602000Y-89247667D01*
X129565454Y-89431395D01*
X129493766Y-89604466D01*
X129493765Y-89604467D01*
X129389690Y-89760227D01*
X129257227Y-89892690D01*
X129178818Y-89945081D01*
X129101466Y-89996766D01*
X128928395Y-90068454D01*
X128744667Y-90105000D01*
X128557333Y-90105000D01*
X128373605Y-90068454D01*
X128200534Y-89996766D01*
X128123182Y-89945081D01*
X128044773Y-89892690D01*
X127912310Y-89760227D01*
X127808235Y-89604467D01*
X127808234Y-89604466D01*
X127736546Y-89431395D01*
X127700000Y-89247667D01*
X127700000Y-89060333D01*
X127736546Y-88876605D01*
X127808234Y-88703534D01*
X127912309Y-88547775D01*
X127912310Y-88547773D01*
X128044773Y-88415310D01*
X128200533Y-88311235D01*
X128200534Y-88311234D01*
X128373605Y-88239546D01*
X128557333Y-88203000D01*
X128744667Y-88203000D01*
X128928395Y-88239546D01*
G37*
G36*
X132142000Y-90105000D02*
G01*
X130240000Y-90105000D01*
X130240000Y-88203000D01*
X132142000Y-88203000D01*
X132142000Y-90105000D01*
G37*
G36*
X147978395Y-88239546D02*
G01*
X148151466Y-88311234D01*
X148151467Y-88311235D01*
X148307227Y-88415310D01*
X148439690Y-88547773D01*
X148439691Y-88547775D01*
X148543766Y-88703534D01*
X148615454Y-88876605D01*
X148652000Y-89060333D01*
X148652000Y-89247667D01*
X148615454Y-89431395D01*
X148543766Y-89604466D01*
X148543765Y-89604467D01*
X148439690Y-89760227D01*
X148307227Y-89892690D01*
X148228818Y-89945081D01*
X148151466Y-89996766D01*
X147978395Y-90068454D01*
X147794667Y-90105000D01*
X147607333Y-90105000D01*
X147423605Y-90068454D01*
X147250534Y-89996766D01*
X147173182Y-89945081D01*
X147094773Y-89892690D01*
X146962310Y-89760227D01*
X146858235Y-89604467D01*
X146858234Y-89604466D01*
X146786546Y-89431395D01*
X146750000Y-89247667D01*
X146750000Y-89060333D01*
X146786546Y-88876605D01*
X146858234Y-88703534D01*
X146962309Y-88547775D01*
X146962310Y-88547773D01*
X147094773Y-88415310D01*
X147250533Y-88311235D01*
X147250534Y-88311234D01*
X147423605Y-88239546D01*
X147607333Y-88203000D01*
X147794667Y-88203000D01*
X147978395Y-88239546D01*
G37*
G36*
X151192000Y-90105000D02*
G01*
X149290000Y-90105000D01*
X149290000Y-88203000D01*
X151192000Y-88203000D01*
X151192000Y-90105000D01*
G37*
G36*
X135278395Y-88239546D02*
G01*
X135451466Y-88311234D01*
X135451467Y-88311235D01*
X135607227Y-88415310D01*
X135739690Y-88547773D01*
X135739691Y-88547775D01*
X135843766Y-88703534D01*
X135915454Y-88876605D01*
X135952000Y-89060333D01*
X135952000Y-89247667D01*
X135915454Y-89431395D01*
X135843766Y-89604466D01*
X135843765Y-89604467D01*
X135739690Y-89760227D01*
X135607227Y-89892690D01*
X135528818Y-89945081D01*
X135451466Y-89996766D01*
X135278395Y-90068454D01*
X135094667Y-90105000D01*
X134907333Y-90105000D01*
X134723605Y-90068454D01*
X134550534Y-89996766D01*
X134473182Y-89945081D01*
X134394773Y-89892690D01*
X134262310Y-89760227D01*
X134158235Y-89604467D01*
X134158234Y-89604466D01*
X134086546Y-89431395D01*
X134050000Y-89247667D01*
X134050000Y-89060333D01*
X134086546Y-88876605D01*
X134158234Y-88703534D01*
X134262309Y-88547775D01*
X134262310Y-88547773D01*
X134394773Y-88415310D01*
X134550533Y-88311235D01*
X134550534Y-88311234D01*
X134723605Y-88239546D01*
X134907333Y-88203000D01*
X135094667Y-88203000D01*
X135278395Y-88239546D01*
G37*
G36*
X138492000Y-90105000D02*
G01*
X136590000Y-90105000D01*
X136590000Y-88203000D01*
X138492000Y-88203000D01*
X138492000Y-90105000D01*
G37*
G36*
X144842000Y-90105000D02*
G01*
X142940000Y-90105000D01*
X142940000Y-88203000D01*
X144842000Y-88203000D01*
X144842000Y-90105000D01*
G37*
M02*
