%TF.GenerationSoftware,KiCad,Pcbnew,5.1.6-c6e7f7d~87~ubuntu18.04.1*%
%TF.CreationDate,2020-08-05T19:50:32+12:00*%
%TF.ProjectId,M1 Program Counter,4d312050-726f-4677-9261-6d20436f756e,rev?*%
%TF.SameCoordinates,Original*%
%TF.FileFunction,Copper,L1,Top*%
%TF.FilePolarity,Positive*%
%FSLAX46Y46*%
G04 Gerber Fmt 4.6, Leading zero omitted, Abs format (unit mm)*
G04 Created by KiCad (PCBNEW 5.1.6-c6e7f7d~87~ubuntu18.04.1) date 2020-08-05 19:50:32*
%MOMM*%
%LPD*%
G01*
G04 APERTURE LIST*
%TA.AperFunction,ComponentPad*%
%ADD10R,1.600000X1.600000*%
%TD*%
%TA.AperFunction,ComponentPad*%
%ADD11O,1.600000X1.600000*%
%TD*%
%TA.AperFunction,ComponentPad*%
%ADD12C,1.800000*%
%TD*%
%TA.AperFunction,ComponentPad*%
%ADD13R,1.800000X1.800000*%
%TD*%
%TA.AperFunction,ComponentPad*%
%ADD14C,1.600000*%
%TD*%
%TA.AperFunction,ComponentPad*%
%ADD15C,1.700000*%
%TD*%
%TA.AperFunction,ViaPad*%
%ADD16C,0.889000*%
%TD*%
%TA.AperFunction,Conductor*%
%ADD17C,0.330200*%
%TD*%
G04 APERTURE END LIST*
D10*
%TO.P,RN1,1*%
%TO.N,GND*%
X140589000Y-96647000D03*
D11*
%TO.P,RN1,2*%
%TO.N,Net-(D1-Pad8)*%
X143129000Y-96647000D03*
%TO.P,RN1,3*%
%TO.N,Net-(D1-Pad6)*%
X145669000Y-96647000D03*
%TO.P,RN1,4*%
%TO.N,Net-(D1-Pad4)*%
X148209000Y-96647000D03*
%TO.P,RN1,5*%
%TO.N,Net-(D1-Pad2)*%
X150749000Y-96647000D03*
%TO.P,RN1,6*%
%TO.N,Net-(D2-Pad8)*%
X153289000Y-96647000D03*
%TO.P,RN1,7*%
%TO.N,Net-(D2-Pad6)*%
X155829000Y-96647000D03*
%TO.P,RN1,8*%
%TO.N,Net-(D2-Pad4)*%
X158369000Y-96647000D03*
%TO.P,RN1,9*%
%TO.N,Net-(D2-Pad2)*%
X160909000Y-96647000D03*
%TD*%
D12*
%TO.P,D2,8*%
%TO.N,Net-(D2-Pad8)*%
X154686000Y-89154000D03*
D13*
%TO.P,D2,7*%
%TO.N,Net-(D2-Pad7)*%
X157226000Y-89154000D03*
D12*
%TO.P,D2,2*%
%TO.N,Net-(D2-Pad2)*%
X173736000Y-89154000D03*
D13*
%TO.P,D2,1*%
%TO.N,Net-(D2-Pad1)*%
X176276000Y-89154000D03*
D12*
%TO.P,D2,6*%
%TO.N,Net-(D2-Pad6)*%
X161036000Y-89154000D03*
D13*
%TO.P,D2,5*%
%TO.N,Net-(D2-Pad5)*%
X163576000Y-89154000D03*
%TO.P,D2,3*%
%TO.N,Net-(D2-Pad3)*%
X169926000Y-89154000D03*
D12*
%TO.P,D2,4*%
%TO.N,Net-(D2-Pad4)*%
X167386000Y-89154000D03*
%TD*%
%TO.P,D1,4*%
%TO.N,Net-(D1-Pad4)*%
X141351000Y-89154000D03*
D13*
%TO.P,D1,3*%
%TO.N,Net-(D1-Pad3)*%
X143891000Y-89154000D03*
%TO.P,D1,5*%
%TO.N,Net-(D1-Pad5)*%
X137541000Y-89154000D03*
D12*
%TO.P,D1,6*%
%TO.N,Net-(D1-Pad6)*%
X135001000Y-89154000D03*
D13*
%TO.P,D1,1*%
%TO.N,Net-(D1-Pad1)*%
X150241000Y-89154000D03*
D12*
%TO.P,D1,2*%
%TO.N,Net-(D1-Pad2)*%
X147701000Y-89154000D03*
D13*
%TO.P,D1,7*%
%TO.N,Net-(D1-Pad7)*%
X131191000Y-89154000D03*
D12*
%TO.P,D1,8*%
%TO.N,Net-(D1-Pad8)*%
X128651000Y-89154000D03*
%TD*%
D14*
%TO.P,C1,2*%
%TO.N,+5V*%
X171831000Y-107235000D03*
%TO.P,C1,1*%
%TO.N,GND*%
X171831000Y-102235000D03*
%TD*%
%TO.P,C2,1*%
%TO.N,GND*%
X196723000Y-102324000D03*
%TO.P,C2,2*%
%TO.N,+5V*%
X196723000Y-107324000D03*
%TD*%
%TO.P,C5,1*%
%TO.N,GND*%
X208534000Y-122555000D03*
%TO.P,C5,2*%
%TO.N,+5V*%
X208534000Y-127555000D03*
%TD*%
%TO.P,C6,2*%
%TO.N,+5V*%
X174625000Y-127555000D03*
%TO.P,C6,1*%
%TO.N,GND*%
X174625000Y-122555000D03*
%TD*%
%TO.P,C7,2*%
%TO.N,+5V*%
X120523000Y-102215000D03*
%TO.P,C7,1*%
%TO.N,GND*%
X120523000Y-107215000D03*
%TD*%
%TO.P,J1,1*%
%TO.N,GND*%
%TA.AperFunction,ComponentPad*%
G36*
G01*
X191297000Y-134659000D02*
X192497000Y-134659000D01*
G75*
G02*
X192747000Y-134909000I0J-250000D01*
G01*
X192747000Y-136109000D01*
G75*
G02*
X192497000Y-136359000I-250000J0D01*
G01*
X191297000Y-136359000D01*
G75*
G02*
X191047000Y-136109000I0J250000D01*
G01*
X191047000Y-134909000D01*
G75*
G02*
X191297000Y-134659000I250000J0D01*
G01*
G37*
%TD.AperFunction*%
D15*
%TO.P,J1,3*%
%TO.N,/A0*%
X189357000Y-135509000D03*
%TO.P,J1,5*%
%TO.N,/A2*%
X186817000Y-135509000D03*
%TO.P,J1,7*%
%TO.N,/A4*%
X184277000Y-135509000D03*
%TO.P,J1,9*%
%TO.N,/A6*%
X181737000Y-135509000D03*
%TO.P,J1,11*%
%TO.N,GND*%
X179197000Y-135509000D03*
%TO.P,J1,13*%
X176657000Y-135509000D03*
%TO.P,J1,15*%
%TO.N,/A8*%
X174117000Y-135509000D03*
%TO.P,J1,17*%
%TO.N,/A10*%
X171577000Y-135509000D03*
%TO.P,J1,19*%
%TO.N,/A12*%
X169037000Y-135509000D03*
%TO.P,J1,21*%
%TO.N,/A14*%
X166497000Y-135509000D03*
%TO.P,J1,23*%
%TO.N,GND*%
X163957000Y-135509000D03*
%TO.P,J1,25*%
%TO.N,+5V*%
X161417000Y-135509000D03*
%TO.P,J1,27*%
%TO.N,GND*%
X158877000Y-135509000D03*
%TO.P,J1,29*%
%TO.N,Net-(J1-Pad29)*%
X156337000Y-135509000D03*
%TO.P,J1,31*%
%TO.N,/PCINC*%
X153797000Y-135509000D03*
%TO.P,J1,33*%
%TO.N,Net-(J1-Pad33)*%
X151257000Y-135509000D03*
%TO.P,J1,35*%
%TO.N,Net-(J1-Pad35)*%
X148717000Y-135509000D03*
%TO.P,J1,37*%
%TO.N,/nSYSRST*%
X146177000Y-135509000D03*
%TO.P,J1,39*%
%TO.N,GND*%
X143637000Y-135509000D03*
%TO.P,J1,41*%
X141097000Y-135509000D03*
%TO.P,J1,43*%
%TO.N,Net-(J1-Pad43)*%
X138557000Y-135509000D03*
%TO.P,J1,45*%
%TO.N,Net-(J1-Pad45)*%
X136017000Y-135509000D03*
%TO.P,J1,47*%
%TO.N,Net-(J1-Pad47)*%
X133477000Y-135509000D03*
%TO.P,J1,49*%
%TO.N,Net-(J1-Pad49)*%
X130937000Y-135509000D03*
%TO.P,J1,51*%
%TO.N,GND*%
X128397000Y-135509000D03*
%TO.P,J1,53*%
X125857000Y-135509000D03*
%TO.P,J1,55*%
%TO.N,Net-(J1-Pad55)*%
X123317000Y-135509000D03*
%TO.P,J1,57*%
%TO.N,Net-(J1-Pad57)*%
X120777000Y-135509000D03*
%TO.P,J1,59*%
%TO.N,Net-(J1-Pad59)*%
X118237000Y-135509000D03*
%TO.P,J1,61*%
%TO.N,Net-(J1-Pad61)*%
X115697000Y-135509000D03*
%TO.P,J1,63*%
%TO.N,GND*%
X113157000Y-135509000D03*
%TO.P,J1,2*%
X191897000Y-138049000D03*
%TO.P,J1,4*%
%TO.N,/A1*%
X189357000Y-138049000D03*
%TO.P,J1,6*%
%TO.N,/A3*%
X186817000Y-138049000D03*
%TO.P,J1,8*%
%TO.N,/A5*%
X184277000Y-138049000D03*
%TO.P,J1,10*%
%TO.N,/A7*%
X181737000Y-138049000D03*
%TO.P,J1,12*%
%TO.N,GND*%
X179197000Y-138049000D03*
%TO.P,J1,14*%
X176657000Y-138049000D03*
%TO.P,J1,16*%
%TO.N,/A9*%
X174117000Y-138049000D03*
%TO.P,J1,18*%
%TO.N,/A11*%
X171577000Y-138049000D03*
%TO.P,J1,20*%
%TO.N,/A13*%
X169037000Y-138049000D03*
%TO.P,J1,22*%
%TO.N,/A15*%
X166497000Y-138049000D03*
%TO.P,J1,24*%
%TO.N,GND*%
X163957000Y-138049000D03*
%TO.P,J1,26*%
%TO.N,+5V*%
X161417000Y-138049000D03*
%TO.P,J1,28*%
%TO.N,GND*%
X158877000Y-138049000D03*
%TO.P,J1,30*%
%TO.N,/nPCOE*%
X156337000Y-138049000D03*
%TO.P,J1,32*%
%TO.N,Net-(J1-Pad32)*%
X153797000Y-138049000D03*
%TO.P,J1,34*%
%TO.N,Net-(J1-Pad34)*%
X151257000Y-138049000D03*
%TO.P,J1,36*%
%TO.N,Net-(J1-Pad36)*%
X148717000Y-138049000D03*
%TO.P,J1,38*%
%TO.N,Net-(J1-Pad38)*%
X146177000Y-138049000D03*
%TO.P,J1,40*%
%TO.N,Net-(J1-Pad40)*%
X143637000Y-138049000D03*
%TO.P,J1,42*%
%TO.N,GND*%
X141097000Y-138049000D03*
%TO.P,J1,44*%
%TO.N,Net-(J1-Pad44)*%
X138557000Y-138049000D03*
%TO.P,J1,46*%
%TO.N,Net-(J1-Pad46)*%
X136017000Y-138049000D03*
%TO.P,J1,48*%
%TO.N,Net-(J1-Pad48)*%
X133477000Y-138049000D03*
%TO.P,J1,50*%
%TO.N,Net-(J1-Pad50)*%
X130937000Y-138049000D03*
%TO.P,J1,52*%
%TO.N,GND*%
X128397000Y-138049000D03*
%TO.P,J1,54*%
X125857000Y-138049000D03*
%TO.P,J1,56*%
%TO.N,Net-(J1-Pad56)*%
X123317000Y-138049000D03*
%TO.P,J1,58*%
%TO.N,Net-(J1-Pad58)*%
X120777000Y-138049000D03*
%TO.P,J1,60*%
%TO.N,Net-(J1-Pad60)*%
X118237000Y-138049000D03*
%TO.P,J1,62*%
%TO.N,Net-(J1-Pad62)*%
X115697000Y-138049000D03*
%TO.P,J1,64*%
%TO.N,GND*%
X113157000Y-138049000D03*
%TD*%
D10*
%TO.P,U1,1*%
%TO.N,/nMR*%
X168275000Y-100965000D03*
D11*
%TO.P,U1,9*%
%TO.N,+5V*%
X150495000Y-108585000D03*
%TO.P,U1,2*%
%TO.N,/PCINC*%
X165735000Y-100965000D03*
%TO.P,U1,10*%
%TO.N,+5V*%
X153035000Y-108585000D03*
%TO.P,U1,3*%
X163195000Y-100965000D03*
%TO.P,U1,11*%
%TO.N,/PC3*%
X155575000Y-108585000D03*
%TO.P,U1,4*%
%TO.N,+5V*%
X160655000Y-100965000D03*
%TO.P,U1,12*%
%TO.N,/PC2*%
X158115000Y-108585000D03*
%TO.P,U1,5*%
%TO.N,+5V*%
X158115000Y-100965000D03*
%TO.P,U1,13*%
%TO.N,/PC1*%
X160655000Y-108585000D03*
%TO.P,U1,6*%
%TO.N,+5V*%
X155575000Y-100965000D03*
%TO.P,U1,14*%
%TO.N,/PC0*%
X163195000Y-108585000D03*
%TO.P,U1,7*%
%TO.N,+5V*%
X153035000Y-100965000D03*
%TO.P,U1,15*%
%TO.N,/TC0*%
X165735000Y-108585000D03*
%TO.P,U1,8*%
%TO.N,GND*%
X150495000Y-100965000D03*
%TO.P,U1,16*%
%TO.N,+5V*%
X168275000Y-108585000D03*
%TD*%
%TO.P,U2,16*%
%TO.N,+5V*%
X193167000Y-108585000D03*
%TO.P,U2,8*%
%TO.N,GND*%
X175387000Y-100965000D03*
%TO.P,U2,15*%
%TO.N,Net-(U2-Pad15)*%
X190627000Y-108585000D03*
%TO.P,U2,7*%
%TO.N,+5V*%
X177927000Y-100965000D03*
%TO.P,U2,14*%
%TO.N,/PC4*%
X188087000Y-108585000D03*
%TO.P,U2,6*%
%TO.N,+5V*%
X180467000Y-100965000D03*
%TO.P,U2,13*%
%TO.N,/PC5*%
X185547000Y-108585000D03*
%TO.P,U2,5*%
%TO.N,+5V*%
X183007000Y-100965000D03*
%TO.P,U2,12*%
%TO.N,/PC6*%
X183007000Y-108585000D03*
%TO.P,U2,4*%
%TO.N,+5V*%
X185547000Y-100965000D03*
%TO.P,U2,11*%
%TO.N,/PC7*%
X180467000Y-108585000D03*
%TO.P,U2,3*%
%TO.N,+5V*%
X188087000Y-100965000D03*
%TO.P,U2,10*%
%TO.N,/TC0*%
X177927000Y-108585000D03*
%TO.P,U2,2*%
%TO.N,/PCINC*%
X190627000Y-100965000D03*
%TO.P,U2,9*%
%TO.N,+5V*%
X175387000Y-108585000D03*
D10*
%TO.P,U2,1*%
%TO.N,/nMR*%
X193167000Y-100965000D03*
%TD*%
D11*
%TO.P,U5,20*%
%TO.N,+5V*%
X204851000Y-128905000D03*
%TO.P,U5,10*%
%TO.N,GND*%
X181991000Y-121285000D03*
%TO.P,U5,19*%
%TO.N,/nPCOE*%
X202311000Y-128905000D03*
%TO.P,U5,9*%
%TO.N,/PC7*%
X184531000Y-121285000D03*
%TO.P,U5,18*%
%TO.N,/A0*%
X199771000Y-128905000D03*
%TO.P,U5,8*%
%TO.N,/PC6*%
X187071000Y-121285000D03*
%TO.P,U5,17*%
%TO.N,/A1*%
X197231000Y-128905000D03*
%TO.P,U5,7*%
%TO.N,/PC5*%
X189611000Y-121285000D03*
%TO.P,U5,16*%
%TO.N,/A2*%
X194691000Y-128905000D03*
%TO.P,U5,6*%
%TO.N,/PC4*%
X192151000Y-121285000D03*
%TO.P,U5,15*%
%TO.N,/A3*%
X192151000Y-128905000D03*
%TO.P,U5,5*%
%TO.N,/PC3*%
X194691000Y-121285000D03*
%TO.P,U5,14*%
%TO.N,/A4*%
X189611000Y-128905000D03*
%TO.P,U5,4*%
%TO.N,/PC2*%
X197231000Y-121285000D03*
%TO.P,U5,13*%
%TO.N,/A5*%
X187071000Y-128905000D03*
%TO.P,U5,3*%
%TO.N,/PC1*%
X199771000Y-121285000D03*
%TO.P,U5,12*%
%TO.N,/A6*%
X184531000Y-128905000D03*
%TO.P,U5,2*%
%TO.N,/PC0*%
X202311000Y-121285000D03*
%TO.P,U5,11*%
%TO.N,/A7*%
X181991000Y-128905000D03*
D10*
%TO.P,U5,1*%
%TO.N,+5V*%
X204851000Y-121285000D03*
%TD*%
%TO.P,U6,1*%
%TO.N,+5V*%
X171069000Y-121285000D03*
D11*
%TO.P,U6,11*%
%TO.N,/A15*%
X148209000Y-128905000D03*
%TO.P,U6,2*%
%TO.N,GND*%
X168529000Y-121285000D03*
%TO.P,U6,12*%
%TO.N,/A14*%
X150749000Y-128905000D03*
%TO.P,U6,3*%
%TO.N,GND*%
X165989000Y-121285000D03*
%TO.P,U6,13*%
%TO.N,/A13*%
X153289000Y-128905000D03*
%TO.P,U6,4*%
%TO.N,GND*%
X163449000Y-121285000D03*
%TO.P,U6,14*%
%TO.N,/A12*%
X155829000Y-128905000D03*
%TO.P,U6,5*%
%TO.N,GND*%
X160909000Y-121285000D03*
%TO.P,U6,15*%
%TO.N,/A11*%
X158369000Y-128905000D03*
%TO.P,U6,6*%
%TO.N,GND*%
X158369000Y-121285000D03*
%TO.P,U6,16*%
%TO.N,/A10*%
X160909000Y-128905000D03*
%TO.P,U6,7*%
%TO.N,GND*%
X155829000Y-121285000D03*
%TO.P,U6,17*%
%TO.N,/A9*%
X163449000Y-128905000D03*
%TO.P,U6,8*%
%TO.N,GND*%
X153289000Y-121285000D03*
%TO.P,U6,18*%
%TO.N,/A8*%
X165989000Y-128905000D03*
%TO.P,U6,9*%
%TO.N,GND*%
X150749000Y-121285000D03*
%TO.P,U6,19*%
%TO.N,/nPCOE*%
X168529000Y-128905000D03*
%TO.P,U6,10*%
%TO.N,GND*%
X148209000Y-121285000D03*
%TO.P,U6,20*%
%TO.N,+5V*%
X171069000Y-128905000D03*
%TD*%
D10*
%TO.P,U7,1*%
%TO.N,+5V*%
X124079000Y-108585000D03*
D11*
%TO.P,U7,11*%
%TO.N,Net-(D2-Pad1)*%
X146939000Y-100965000D03*
%TO.P,U7,2*%
%TO.N,/PC0*%
X126619000Y-108585000D03*
%TO.P,U7,12*%
%TO.N,Net-(D2-Pad3)*%
X144399000Y-100965000D03*
%TO.P,U7,3*%
%TO.N,/PC1*%
X129159000Y-108585000D03*
%TO.P,U7,13*%
%TO.N,Net-(D2-Pad5)*%
X141859000Y-100965000D03*
%TO.P,U7,4*%
%TO.N,/PC2*%
X131699000Y-108585000D03*
%TO.P,U7,14*%
%TO.N,Net-(D2-Pad7)*%
X139319000Y-100965000D03*
%TO.P,U7,5*%
%TO.N,/PC3*%
X134239000Y-108585000D03*
%TO.P,U7,15*%
%TO.N,Net-(D1-Pad1)*%
X136779000Y-100965000D03*
%TO.P,U7,6*%
%TO.N,/PC4*%
X136779000Y-108585000D03*
%TO.P,U7,16*%
%TO.N,Net-(D1-Pad3)*%
X134239000Y-100965000D03*
%TO.P,U7,7*%
%TO.N,/PC5*%
X139319000Y-108585000D03*
%TO.P,U7,17*%
%TO.N,Net-(D1-Pad5)*%
X131699000Y-100965000D03*
%TO.P,U7,8*%
%TO.N,/PC6*%
X141859000Y-108585000D03*
%TO.P,U7,18*%
%TO.N,Net-(D1-Pad7)*%
X129159000Y-100965000D03*
%TO.P,U7,9*%
%TO.N,/PC7*%
X144399000Y-108585000D03*
%TO.P,U7,19*%
%TO.N,GND*%
X126619000Y-100965000D03*
%TO.P,U7,10*%
X146939000Y-108585000D03*
%TO.P,U7,20*%
%TO.N,+5V*%
X124079000Y-100965000D03*
%TD*%
D14*
%TO.P,C3,1*%
%TO.N,GND*%
X142812000Y-122555000D03*
%TO.P,C3,2*%
%TO.N,+5V*%
X142812000Y-127555000D03*
%TD*%
D10*
%TO.P,U3,1*%
%TO.N,/PC7*%
X139319000Y-121285000D03*
D11*
%TO.P,U3,8*%
%TO.N,/nMR*%
X124079000Y-128905000D03*
%TO.P,U3,2*%
%TO.N,/PC4*%
X136779000Y-121285000D03*
%TO.P,U3,9*%
%TO.N,Net-(U3-Pad10)*%
X126619000Y-128905000D03*
%TO.P,U3,3*%
%TO.N,+5V*%
X134239000Y-121285000D03*
%TO.P,U3,10*%
%TO.N,Net-(U3-Pad10)*%
X129159000Y-128905000D03*
%TO.P,U3,4*%
%TO.N,/nSYSRST*%
X131699000Y-121285000D03*
%TO.P,U3,11*%
%TO.N,Net-(U3-Pad10)*%
X131699000Y-128905000D03*
%TO.P,U3,5*%
%TO.N,Net-(U3-Pad12)*%
X129159000Y-121285000D03*
%TO.P,U3,12*%
X134239000Y-128905000D03*
%TO.P,U3,6*%
%TO.N,Net-(U3-Pad10)*%
X126619000Y-121285000D03*
%TO.P,U3,13*%
%TO.N,/PC2*%
X136779000Y-128905000D03*
%TO.P,U3,7*%
%TO.N,GND*%
X124079000Y-121285000D03*
%TO.P,U3,14*%
%TO.N,+5V*%
X139319000Y-128905000D03*
%TD*%
D16*
%TO.N,/PC3*%
X134239000Y-114835000D03*
X155575000Y-114835000D03*
%TO.N,/PC2*%
X131699000Y-113819000D03*
X158115000Y-113819000D03*
%TO.N,/PC1*%
X129159000Y-112803000D03*
X160655000Y-112803000D03*
%TO.N,/PC0*%
X126619000Y-111787000D03*
X163195000Y-111787000D03*
%TO.N,/PC4*%
X136779000Y-115851000D03*
X188087000Y-115851000D03*
%TO.N,/PC5*%
X139319000Y-116867000D03*
X185547000Y-116867000D03*
%TO.N,/PC6*%
X141859000Y-117883000D03*
X183007000Y-117883000D03*
%TO.N,/PC7*%
X144399000Y-118899000D03*
X180467000Y-118899000D03*
%TD*%
D17*
%TO.N,Net-(D1-Pad1)*%
X150241000Y-89689000D02*
X150241000Y-91059000D01*
X150241000Y-91059000D02*
X149479000Y-91821000D01*
X149479000Y-91821000D02*
X137541000Y-91821000D01*
X137541000Y-91821000D02*
X136779000Y-92583000D01*
X136779000Y-92583000D02*
X136779000Y-100965000D01*
%TO.N,Net-(D2-Pad1)*%
X146939000Y-95631000D02*
X146939000Y-100965000D01*
X147701000Y-94869000D02*
X146939000Y-95631000D01*
X175641000Y-94869000D02*
X147701000Y-94869000D01*
X176276000Y-94234000D02*
X175641000Y-94869000D01*
X176276000Y-89689000D02*
X176276000Y-94234000D01*
%TO.N,/A3*%
X185547000Y-136779000D02*
X186817000Y-138049000D01*
X186563000Y-132715000D02*
X185547000Y-133731000D01*
X191135000Y-132715000D02*
X186563000Y-132715000D01*
X185547000Y-133731000D02*
X185547000Y-136779000D01*
X192151000Y-131699000D02*
X191135000Y-132715000D01*
X192151000Y-128905000D02*
X192151000Y-131699000D01*
%TO.N,/A5*%
X183007000Y-136779000D02*
X184277000Y-138049000D01*
X183007000Y-132207000D02*
X183007000Y-136779000D01*
X186055000Y-131191000D02*
X184023000Y-131191000D01*
X184023000Y-131191000D02*
X183007000Y-132207000D01*
X187071000Y-130175000D02*
X186055000Y-131191000D01*
X187071000Y-128905000D02*
X187071000Y-130175000D01*
%TO.N,/A7*%
X181737000Y-129159000D02*
X181991000Y-128905000D01*
X181991000Y-128905000D02*
X180467000Y-130429000D01*
X180467000Y-130429000D02*
X180467000Y-136779000D01*
X180467000Y-136779000D02*
X181737000Y-138049000D01*
%TO.N,/A13*%
X153289000Y-128905000D02*
X153289000Y-130937000D01*
X153289000Y-130937000D02*
X154305000Y-131953000D01*
X166751000Y-131953000D02*
X167767000Y-132969000D01*
X154305000Y-131953000D02*
X166751000Y-131953000D01*
X167767000Y-132969000D02*
X167767000Y-136779000D01*
X167767000Y-136779000D02*
X169037000Y-138049000D01*
%TO.N,/A15*%
X148209000Y-132461000D02*
X148209000Y-128905000D01*
X149225000Y-133477000D02*
X148209000Y-132461000D01*
X164211000Y-133477000D02*
X165227000Y-134493000D01*
X164211000Y-133477000D02*
X149225000Y-133477000D01*
X165227000Y-134493000D02*
X165227000Y-136779000D01*
X165227000Y-136779000D02*
X166497000Y-138049000D01*
%TO.N,/A2*%
X186817000Y-134493000D02*
X186817000Y-135509000D01*
X187833000Y-133477000D02*
X186817000Y-134493000D01*
X193675000Y-133477000D02*
X187833000Y-133477000D01*
X194691000Y-132461000D02*
X193675000Y-133477000D01*
X194691000Y-128905000D02*
X194691000Y-132461000D01*
%TO.N,/A4*%
X184277000Y-132969000D02*
X184277000Y-135509000D01*
X185293000Y-131953000D02*
X184277000Y-132969000D01*
X188595000Y-131953000D02*
X185293000Y-131953000D01*
X189611000Y-130937000D02*
X188595000Y-131953000D01*
X189611000Y-128905000D02*
X189611000Y-130937000D01*
%TO.N,/A6*%
X181737000Y-131699000D02*
X181737000Y-135509000D01*
X184531000Y-128905000D02*
X181737000Y-131699000D01*
%TO.N,/A12*%
X155829000Y-128905000D02*
X155829000Y-130175000D01*
X155829000Y-130175000D02*
X156845000Y-131191000D01*
X168021000Y-131191000D02*
X169037000Y-132207000D01*
X156845000Y-131191000D02*
X168021000Y-131191000D01*
X169037000Y-132207000D02*
X169037000Y-135509000D01*
%TO.N,/A14*%
X150749000Y-128905000D02*
X150749000Y-131699000D01*
X150749000Y-131699000D02*
X151765000Y-132715000D01*
X165481000Y-132715000D02*
X166497000Y-133731000D01*
X151765000Y-132715000D02*
X165481000Y-132715000D01*
X166497000Y-133731000D02*
X166497000Y-135509000D01*
%TO.N,/PCINC*%
X165735000Y-100965000D02*
X165735000Y-99949000D01*
X165735000Y-99949000D02*
X166497000Y-99187000D01*
X166497000Y-99187000D02*
X189865000Y-99187000D01*
X190627000Y-99949000D02*
X190627000Y-100965000D01*
X189865000Y-99187000D02*
X190627000Y-99949000D01*
%TO.N,/PC3*%
X155675000Y-114835000D02*
X155675000Y-114835000D01*
X194691000Y-115443000D02*
X194691000Y-121285000D01*
X134239000Y-114835000D02*
X194083000Y-114835000D01*
X194083000Y-114835000D02*
X194691000Y-115443000D01*
%TO.N,/PC2*%
X131699000Y-113819000D02*
X196623000Y-113819000D01*
X197231000Y-114427000D02*
X197231000Y-121285000D01*
X196623000Y-113819000D02*
X197231000Y-114427000D01*
%TO.N,/PC1*%
X199771000Y-113411000D02*
X199771000Y-121285000D01*
X129159000Y-112803000D02*
X199163000Y-112803000D01*
X199163000Y-112803000D02*
X199771000Y-113411000D01*
%TO.N,/PC0*%
X202311000Y-112395000D02*
X202311000Y-121285000D01*
X126619000Y-111787000D02*
X201703000Y-111787000D01*
X201703000Y-111787000D02*
X202311000Y-112395000D01*
%TO.N,/TC0*%
X165735000Y-108585000D02*
X165735000Y-109855000D01*
X165735000Y-109855000D02*
X166497000Y-110617000D01*
X166497000Y-110617000D02*
X177165000Y-110617000D01*
X177165000Y-110617000D02*
X177927000Y-109855000D01*
X177927000Y-109855000D02*
X177927000Y-108585000D01*
%TO.N,/PC4*%
X136779000Y-115851000D02*
X136779000Y-115851000D01*
X136779000Y-115851000D02*
X188187000Y-115851000D01*
X192151000Y-116459000D02*
X192151000Y-121285000D01*
X191543000Y-115851000D02*
X192151000Y-116459000D01*
X188187000Y-115851000D02*
X191543000Y-115851000D01*
%TO.N,/PC5*%
X139319000Y-116867000D02*
X185647000Y-116867000D01*
X189611000Y-117475000D02*
X189611000Y-121285000D01*
X189003000Y-116867000D02*
X189611000Y-117475000D01*
X185647000Y-116867000D02*
X189003000Y-116867000D01*
%TO.N,/PC6*%
X187071000Y-118491000D02*
X187071000Y-121285000D01*
X141859000Y-117883000D02*
X183107000Y-117883000D01*
X186463000Y-117883000D02*
X187071000Y-118491000D01*
X183107000Y-117883000D02*
X186463000Y-117883000D01*
%TO.N,/PC7*%
X151511000Y-118899000D02*
X144399000Y-118899000D01*
X183923000Y-118899000D02*
X151511000Y-118899000D01*
X184531000Y-121285000D02*
X184531000Y-119507000D01*
X184531000Y-119507000D02*
X183923000Y-118899000D01*
X144399000Y-118899000D02*
X139927000Y-118899000D01*
X139256000Y-119570000D02*
X139256000Y-121328000D01*
X139927000Y-118899000D02*
X139256000Y-119570000D01*
%TO.N,Net-(D1-Pad3)*%
X143891000Y-89689000D02*
X143891000Y-90297000D01*
X143891000Y-90297000D02*
X143129000Y-91059000D01*
X143129000Y-91059000D02*
X135001000Y-91059000D01*
X135001000Y-91059000D02*
X134239000Y-91821000D01*
X134239000Y-91821000D02*
X134239000Y-100965000D01*
%TO.N,Net-(D1-Pad5)*%
X131699000Y-98425000D02*
X131699000Y-100965000D01*
X137541000Y-88011000D02*
X136779000Y-87249000D01*
X137541000Y-89154000D02*
X137541000Y-88011000D01*
X136779000Y-87249000D02*
X133985000Y-87249000D01*
X133223000Y-88011000D02*
X133223000Y-96901000D01*
X133985000Y-87249000D02*
X133223000Y-88011000D01*
X133223000Y-96901000D02*
X131699000Y-98425000D01*
%TO.N,Net-(D1-Pad7)*%
X131191000Y-89689000D02*
X131191000Y-96901000D01*
X129159000Y-98933000D02*
X129159000Y-100965000D01*
X131191000Y-96901000D02*
X129159000Y-98933000D01*
%TO.N,Net-(D2-Pad7)*%
X157226000Y-89689000D02*
X157226000Y-91948000D01*
X157226000Y-91948000D02*
X156591000Y-92583000D01*
X156591000Y-92583000D02*
X140081000Y-92583000D01*
X140081000Y-92583000D02*
X139319000Y-93345000D01*
X139319000Y-93345000D02*
X139319000Y-100965000D01*
%TO.N,Net-(D2-Pad5)*%
X163576000Y-89689000D02*
X163576000Y-91948000D01*
X163576000Y-91948000D02*
X163576000Y-92710000D01*
X163576000Y-92710000D02*
X162941000Y-93345000D01*
X162941000Y-93345000D02*
X142621000Y-93345000D01*
X142621000Y-93345000D02*
X141859000Y-94107000D01*
X141859000Y-94107000D02*
X141859000Y-100965000D01*
%TO.N,Net-(D2-Pad3)*%
X144399000Y-94869000D02*
X144399000Y-100965000D01*
X145161000Y-94107000D02*
X144399000Y-94869000D01*
X169926000Y-93472000D02*
X169291000Y-94107000D01*
X169291000Y-94107000D02*
X145161000Y-94107000D01*
X169926000Y-89689000D02*
X169926000Y-93472000D01*
%TO.N,/nMR*%
X168275000Y-100965000D02*
X168275000Y-102235000D01*
X168275000Y-102235000D02*
X167513000Y-102997000D01*
X167513000Y-102997000D02*
X126111000Y-102997000D01*
X126111000Y-102997000D02*
X125349000Y-103759000D01*
X125349000Y-103759000D02*
X125349000Y-127635000D01*
X125349000Y-127635000D02*
X124079000Y-128905000D01*
%TO.N,Net-(U3-Pad10)*%
X131636000Y-130218000D02*
X130874000Y-130980000D01*
X127318000Y-130980000D02*
X126556000Y-130218000D01*
X126556000Y-130218000D02*
X126556000Y-128948000D01*
X129096000Y-130980000D02*
X127318000Y-130980000D01*
X129096000Y-130980000D02*
X129096000Y-128948000D01*
X130874000Y-130980000D02*
X129096000Y-130980000D01*
X126556000Y-128948000D02*
X126556000Y-121328000D01*
X131636000Y-128948000D02*
X131636000Y-130112000D01*
%TO.N,Net-(U3-Pad12)*%
X129096000Y-122598000D02*
X129096000Y-121328000D01*
X134176000Y-127678000D02*
X129096000Y-122598000D01*
X134176000Y-127678000D02*
X134176000Y-128948000D01*
%TD*%
M02*
