G04 #@! TF.GenerationSoftware,KiCad,Pcbnew,5.1.6-c6e7f7d~87~ubuntu18.04.1*
G04 #@! TF.CreationDate,2020-09-06T16:42:54+12:00*
G04 #@! TF.ProjectId,M1 Temp Register,4d312054-656d-4702-9052-656769737465,rev?*
G04 #@! TF.SameCoordinates,Original*
G04 #@! TF.FileFunction,Copper,L3,Inr*
G04 #@! TF.FilePolarity,Positive*
%FSLAX46Y46*%
G04 Gerber Fmt 4.6, Leading zero omitted, Abs format (unit mm)*
G04 Created by KiCad (PCBNEW 5.1.6-c6e7f7d~87~ubuntu18.04.1) date 2020-09-06 16:42:54*
%MOMM*%
%LPD*%
G01*
G04 APERTURE LIST*
G04 #@! TA.AperFunction,ViaPad*
%ADD10C,1.600000*%
G04 #@! TD*
G04 #@! TA.AperFunction,ViaPad*
%ADD11C,1.700000*%
G04 #@! TD*
G04 #@! TA.AperFunction,ViaPad*
%ADD12R,1.600000X1.600000*%
G04 #@! TD*
G04 #@! TA.AperFunction,ViaPad*
%ADD13O,1.600000X1.600000*%
G04 #@! TD*
G04 #@! TA.AperFunction,ViaPad*
%ADD14C,1.800000*%
G04 #@! TD*
G04 #@! TA.AperFunction,ViaPad*
%ADD15R,1.800000X1.800000*%
G04 #@! TD*
G04 #@! TA.AperFunction,Conductor*
%ADD16C,0.254000*%
G04 #@! TD*
G04 APERTURE END LIST*
D10*
X140589000Y-102215000D03*
X140589000Y-107215000D03*
G04 #@! TA.AperFunction,ViaPad*
G36*
G01*
X191297000Y-134659000D02*
X192497000Y-134659000D01*
G75*
G02*
X192747000Y-134909000I0J-250000D01*
G01*
X192747000Y-136109000D01*
G75*
G02*
X192497000Y-136359000I-250000J0D01*
G01*
X191297000Y-136359000D01*
G75*
G02*
X191047000Y-136109000I0J250000D01*
G01*
X191047000Y-134909000D01*
G75*
G02*
X191297000Y-134659000I250000J0D01*
G01*
G37*
G04 #@! TD.AperFunction*
D11*
X189357000Y-135509000D03*
X186817000Y-135509000D03*
X184277000Y-135509000D03*
X181737000Y-135509000D03*
X179197000Y-135509000D03*
X176657000Y-135509000D03*
X174117000Y-135509000D03*
X171577000Y-135509000D03*
X169037000Y-135509000D03*
X166497000Y-135509000D03*
X163957000Y-135509000D03*
X161417000Y-135509000D03*
X158877000Y-135509000D03*
X156337000Y-135509000D03*
X153797000Y-135509000D03*
X151257000Y-135509000D03*
X148717000Y-135509000D03*
X146177000Y-135509000D03*
X143637000Y-135509000D03*
X141097000Y-135509000D03*
X138557000Y-135509000D03*
X136017000Y-135509000D03*
X133477000Y-135509000D03*
X130937000Y-135509000D03*
X128397000Y-135509000D03*
X125857000Y-135509000D03*
X123317000Y-135509000D03*
X120777000Y-135509000D03*
X118237000Y-135509000D03*
X115697000Y-135509000D03*
X113157000Y-135509000D03*
X191897000Y-138049000D03*
X189357000Y-138049000D03*
X186817000Y-138049000D03*
X184277000Y-138049000D03*
X181737000Y-138049000D03*
X179197000Y-138049000D03*
X176657000Y-138049000D03*
X174117000Y-138049000D03*
X171577000Y-138049000D03*
X169037000Y-138049000D03*
X166497000Y-138049000D03*
X163957000Y-138049000D03*
X161417000Y-138049000D03*
X158877000Y-138049000D03*
X156337000Y-138049000D03*
X153797000Y-138049000D03*
X151257000Y-138049000D03*
X148717000Y-138049000D03*
X146177000Y-138049000D03*
X143637000Y-138049000D03*
X141097000Y-138049000D03*
X138557000Y-138049000D03*
X136017000Y-138049000D03*
X133477000Y-138049000D03*
X130937000Y-138049000D03*
X128397000Y-138049000D03*
X125857000Y-138049000D03*
X123317000Y-138049000D03*
X120777000Y-138049000D03*
X118237000Y-138049000D03*
X115697000Y-138049000D03*
X113157000Y-138049000D03*
D12*
X124968000Y-88165000D03*
D13*
X124968000Y-90705000D03*
X124968000Y-93245000D03*
X124968000Y-95785000D03*
X124968000Y-98325000D03*
X124968000Y-100865000D03*
X124968000Y-103405000D03*
X124968000Y-105945000D03*
X124968000Y-108485000D03*
D14*
X141351000Y-89689000D03*
D15*
X143891000Y-89689000D03*
X137541000Y-89689000D03*
D14*
X135001000Y-89689000D03*
D15*
X150241000Y-89689000D03*
D14*
X147701000Y-89689000D03*
D15*
X131191000Y-89689000D03*
D14*
X128651000Y-89689000D03*
X154686000Y-89689000D03*
D15*
X157226000Y-89689000D03*
D14*
X173736000Y-89689000D03*
D15*
X176276000Y-89689000D03*
D14*
X161036000Y-89689000D03*
D15*
X163576000Y-89689000D03*
X169926000Y-89689000D03*
D14*
X167386000Y-89689000D03*
D10*
X104521000Y-126365000D03*
X104521000Y-121365000D03*
D12*
X108077000Y-127889000D03*
D13*
X130937000Y-120269000D03*
X110617000Y-127889000D03*
X128397000Y-120269000D03*
X113157000Y-127889000D03*
X125857000Y-120269000D03*
X115697000Y-127889000D03*
X123317000Y-120269000D03*
X118237000Y-127889000D03*
X120777000Y-120269000D03*
X120777000Y-127889000D03*
X118237000Y-120269000D03*
X123317000Y-127889000D03*
X115697000Y-120269000D03*
X125857000Y-127889000D03*
X113157000Y-120269000D03*
X128397000Y-127889000D03*
X110617000Y-120269000D03*
X130937000Y-127889000D03*
X108077000Y-120269000D03*
X144145000Y-100992000D03*
X167005000Y-108612000D03*
X146685000Y-100992000D03*
X164465000Y-108612000D03*
X149225000Y-100992000D03*
X161925000Y-108612000D03*
X151765000Y-100992000D03*
X159385000Y-108612000D03*
X154305000Y-100992000D03*
X156845000Y-108612000D03*
X156845000Y-100992000D03*
X154305000Y-108612000D03*
X159385000Y-100992000D03*
X151765000Y-108612000D03*
X161925000Y-100992000D03*
X149225000Y-108612000D03*
X164465000Y-100992000D03*
X146685000Y-108612000D03*
X167005000Y-100992000D03*
D12*
X144145000Y-108612000D03*
D16*
G36*
X210795083Y-84575173D02*
G01*
X211538891Y-84778656D01*
X212234905Y-85110638D01*
X212861130Y-85560626D01*
X213397777Y-86114403D01*
X213827871Y-86754451D01*
X214137829Y-87460553D01*
X214319065Y-88215457D01*
X214367000Y-88868207D01*
X214367001Y-147070618D01*
X213253620Y-148184000D01*
X91800381Y-148184000D01*
X90687000Y-147070620D01*
X90687000Y-135362740D01*
X111672000Y-135362740D01*
X111672000Y-135655260D01*
X111729068Y-135942158D01*
X111841010Y-136212411D01*
X112003525Y-136455632D01*
X112210368Y-136662475D01*
X112384760Y-136779000D01*
X112210368Y-136895525D01*
X112003525Y-137102368D01*
X111841010Y-137345589D01*
X111729068Y-137615842D01*
X111672000Y-137902740D01*
X111672000Y-138195260D01*
X111729068Y-138482158D01*
X111841010Y-138752411D01*
X112003525Y-138995632D01*
X112210368Y-139202475D01*
X112453589Y-139364990D01*
X112723842Y-139476932D01*
X113010740Y-139534000D01*
X113303260Y-139534000D01*
X113590158Y-139476932D01*
X113860411Y-139364990D01*
X114103632Y-139202475D01*
X114310475Y-138995632D01*
X114427000Y-138821240D01*
X114543525Y-138995632D01*
X114750368Y-139202475D01*
X114993589Y-139364990D01*
X115263842Y-139476932D01*
X115550740Y-139534000D01*
X115843260Y-139534000D01*
X116130158Y-139476932D01*
X116400411Y-139364990D01*
X116643632Y-139202475D01*
X116850475Y-138995632D01*
X116967000Y-138821240D01*
X117083525Y-138995632D01*
X117290368Y-139202475D01*
X117533589Y-139364990D01*
X117803842Y-139476932D01*
X118090740Y-139534000D01*
X118383260Y-139534000D01*
X118670158Y-139476932D01*
X118940411Y-139364990D01*
X119183632Y-139202475D01*
X119390475Y-138995632D01*
X119507000Y-138821240D01*
X119623525Y-138995632D01*
X119830368Y-139202475D01*
X120073589Y-139364990D01*
X120343842Y-139476932D01*
X120630740Y-139534000D01*
X120923260Y-139534000D01*
X121210158Y-139476932D01*
X121480411Y-139364990D01*
X121723632Y-139202475D01*
X121930475Y-138995632D01*
X122047000Y-138821240D01*
X122163525Y-138995632D01*
X122370368Y-139202475D01*
X122613589Y-139364990D01*
X122883842Y-139476932D01*
X123170740Y-139534000D01*
X123463260Y-139534000D01*
X123750158Y-139476932D01*
X124020411Y-139364990D01*
X124263632Y-139202475D01*
X124470475Y-138995632D01*
X124587000Y-138821240D01*
X124703525Y-138995632D01*
X124910368Y-139202475D01*
X125153589Y-139364990D01*
X125423842Y-139476932D01*
X125710740Y-139534000D01*
X126003260Y-139534000D01*
X126290158Y-139476932D01*
X126560411Y-139364990D01*
X126803632Y-139202475D01*
X127010475Y-138995632D01*
X127127000Y-138821240D01*
X127243525Y-138995632D01*
X127450368Y-139202475D01*
X127693589Y-139364990D01*
X127963842Y-139476932D01*
X128250740Y-139534000D01*
X128543260Y-139534000D01*
X128830158Y-139476932D01*
X129100411Y-139364990D01*
X129343632Y-139202475D01*
X129550475Y-138995632D01*
X129667000Y-138821240D01*
X129783525Y-138995632D01*
X129990368Y-139202475D01*
X130233589Y-139364990D01*
X130503842Y-139476932D01*
X130790740Y-139534000D01*
X131083260Y-139534000D01*
X131370158Y-139476932D01*
X131640411Y-139364990D01*
X131883632Y-139202475D01*
X132090475Y-138995632D01*
X132207000Y-138821240D01*
X132323525Y-138995632D01*
X132530368Y-139202475D01*
X132773589Y-139364990D01*
X133043842Y-139476932D01*
X133330740Y-139534000D01*
X133623260Y-139534000D01*
X133910158Y-139476932D01*
X134180411Y-139364990D01*
X134423632Y-139202475D01*
X134630475Y-138995632D01*
X134747000Y-138821240D01*
X134863525Y-138995632D01*
X135070368Y-139202475D01*
X135313589Y-139364990D01*
X135583842Y-139476932D01*
X135870740Y-139534000D01*
X136163260Y-139534000D01*
X136450158Y-139476932D01*
X136720411Y-139364990D01*
X136963632Y-139202475D01*
X137170475Y-138995632D01*
X137287000Y-138821240D01*
X137403525Y-138995632D01*
X137610368Y-139202475D01*
X137853589Y-139364990D01*
X138123842Y-139476932D01*
X138410740Y-139534000D01*
X138703260Y-139534000D01*
X138990158Y-139476932D01*
X139260411Y-139364990D01*
X139503632Y-139202475D01*
X139710475Y-138995632D01*
X139827000Y-138821240D01*
X139943525Y-138995632D01*
X140150368Y-139202475D01*
X140393589Y-139364990D01*
X140663842Y-139476932D01*
X140950740Y-139534000D01*
X141243260Y-139534000D01*
X141530158Y-139476932D01*
X141800411Y-139364990D01*
X142043632Y-139202475D01*
X142250475Y-138995632D01*
X142367000Y-138821240D01*
X142483525Y-138995632D01*
X142690368Y-139202475D01*
X142933589Y-139364990D01*
X143203842Y-139476932D01*
X143490740Y-139534000D01*
X143783260Y-139534000D01*
X144070158Y-139476932D01*
X144340411Y-139364990D01*
X144583632Y-139202475D01*
X144790475Y-138995632D01*
X144907000Y-138821240D01*
X145023525Y-138995632D01*
X145230368Y-139202475D01*
X145473589Y-139364990D01*
X145743842Y-139476932D01*
X146030740Y-139534000D01*
X146323260Y-139534000D01*
X146610158Y-139476932D01*
X146880411Y-139364990D01*
X147123632Y-139202475D01*
X147330475Y-138995632D01*
X147447000Y-138821240D01*
X147563525Y-138995632D01*
X147770368Y-139202475D01*
X148013589Y-139364990D01*
X148283842Y-139476932D01*
X148570740Y-139534000D01*
X148863260Y-139534000D01*
X149150158Y-139476932D01*
X149420411Y-139364990D01*
X149663632Y-139202475D01*
X149870475Y-138995632D01*
X149987000Y-138821240D01*
X150103525Y-138995632D01*
X150310368Y-139202475D01*
X150553589Y-139364990D01*
X150823842Y-139476932D01*
X151110740Y-139534000D01*
X151403260Y-139534000D01*
X151690158Y-139476932D01*
X151960411Y-139364990D01*
X152203632Y-139202475D01*
X152410475Y-138995632D01*
X152527000Y-138821240D01*
X152643525Y-138995632D01*
X152850368Y-139202475D01*
X153093589Y-139364990D01*
X153363842Y-139476932D01*
X153650740Y-139534000D01*
X153943260Y-139534000D01*
X154230158Y-139476932D01*
X154500411Y-139364990D01*
X154743632Y-139202475D01*
X154950475Y-138995632D01*
X155067000Y-138821240D01*
X155183525Y-138995632D01*
X155390368Y-139202475D01*
X155633589Y-139364990D01*
X155903842Y-139476932D01*
X156190740Y-139534000D01*
X156483260Y-139534000D01*
X156770158Y-139476932D01*
X157040411Y-139364990D01*
X157283632Y-139202475D01*
X157490475Y-138995632D01*
X157607000Y-138821240D01*
X157723525Y-138995632D01*
X157930368Y-139202475D01*
X158173589Y-139364990D01*
X158443842Y-139476932D01*
X158730740Y-139534000D01*
X159023260Y-139534000D01*
X159310158Y-139476932D01*
X159580411Y-139364990D01*
X159823632Y-139202475D01*
X159948710Y-139077397D01*
X160568208Y-139077397D01*
X160645843Y-139326472D01*
X160909883Y-139452371D01*
X161193411Y-139524339D01*
X161485531Y-139539611D01*
X161775019Y-139497599D01*
X162050747Y-139399919D01*
X162188157Y-139326472D01*
X162265792Y-139077397D01*
X161417000Y-138228605D01*
X160568208Y-139077397D01*
X159948710Y-139077397D01*
X160030475Y-138995632D01*
X160146311Y-138822271D01*
X160388603Y-138897792D01*
X161237395Y-138049000D01*
X160388603Y-137200208D01*
X160146311Y-137275729D01*
X160030475Y-137102368D01*
X159823632Y-136895525D01*
X159649240Y-136779000D01*
X159823632Y-136662475D01*
X159948710Y-136537397D01*
X160568208Y-136537397D01*
X160643514Y-136779000D01*
X160568208Y-137020603D01*
X161417000Y-137869395D01*
X162265792Y-137020603D01*
X162190486Y-136779000D01*
X162265792Y-136537397D01*
X161417000Y-135688605D01*
X160568208Y-136537397D01*
X159948710Y-136537397D01*
X160030475Y-136455632D01*
X160146311Y-136282271D01*
X160388603Y-136357792D01*
X161237395Y-135509000D01*
X161596605Y-135509000D01*
X162445397Y-136357792D01*
X162687689Y-136282271D01*
X162803525Y-136455632D01*
X163010368Y-136662475D01*
X163184760Y-136779000D01*
X163010368Y-136895525D01*
X162803525Y-137102368D01*
X162687689Y-137275729D01*
X162445397Y-137200208D01*
X161596605Y-138049000D01*
X162445397Y-138897792D01*
X162687689Y-138822271D01*
X162803525Y-138995632D01*
X163010368Y-139202475D01*
X163253589Y-139364990D01*
X163523842Y-139476932D01*
X163810740Y-139534000D01*
X164103260Y-139534000D01*
X164390158Y-139476932D01*
X164660411Y-139364990D01*
X164903632Y-139202475D01*
X165110475Y-138995632D01*
X165227000Y-138821240D01*
X165343525Y-138995632D01*
X165550368Y-139202475D01*
X165793589Y-139364990D01*
X166063842Y-139476932D01*
X166350740Y-139534000D01*
X166643260Y-139534000D01*
X166930158Y-139476932D01*
X167200411Y-139364990D01*
X167443632Y-139202475D01*
X167650475Y-138995632D01*
X167767000Y-138821240D01*
X167883525Y-138995632D01*
X168090368Y-139202475D01*
X168333589Y-139364990D01*
X168603842Y-139476932D01*
X168890740Y-139534000D01*
X169183260Y-139534000D01*
X169470158Y-139476932D01*
X169740411Y-139364990D01*
X169983632Y-139202475D01*
X170190475Y-138995632D01*
X170307000Y-138821240D01*
X170423525Y-138995632D01*
X170630368Y-139202475D01*
X170873589Y-139364990D01*
X171143842Y-139476932D01*
X171430740Y-139534000D01*
X171723260Y-139534000D01*
X172010158Y-139476932D01*
X172280411Y-139364990D01*
X172523632Y-139202475D01*
X172730475Y-138995632D01*
X172847000Y-138821240D01*
X172963525Y-138995632D01*
X173170368Y-139202475D01*
X173413589Y-139364990D01*
X173683842Y-139476932D01*
X173970740Y-139534000D01*
X174263260Y-139534000D01*
X174550158Y-139476932D01*
X174820411Y-139364990D01*
X175063632Y-139202475D01*
X175270475Y-138995632D01*
X175387000Y-138821240D01*
X175503525Y-138995632D01*
X175710368Y-139202475D01*
X175953589Y-139364990D01*
X176223842Y-139476932D01*
X176510740Y-139534000D01*
X176803260Y-139534000D01*
X177090158Y-139476932D01*
X177360411Y-139364990D01*
X177603632Y-139202475D01*
X177810475Y-138995632D01*
X177927000Y-138821240D01*
X178043525Y-138995632D01*
X178250368Y-139202475D01*
X178493589Y-139364990D01*
X178763842Y-139476932D01*
X179050740Y-139534000D01*
X179343260Y-139534000D01*
X179630158Y-139476932D01*
X179900411Y-139364990D01*
X180143632Y-139202475D01*
X180350475Y-138995632D01*
X180467000Y-138821240D01*
X180583525Y-138995632D01*
X180790368Y-139202475D01*
X181033589Y-139364990D01*
X181303842Y-139476932D01*
X181590740Y-139534000D01*
X181883260Y-139534000D01*
X182170158Y-139476932D01*
X182440411Y-139364990D01*
X182683632Y-139202475D01*
X182890475Y-138995632D01*
X183007000Y-138821240D01*
X183123525Y-138995632D01*
X183330368Y-139202475D01*
X183573589Y-139364990D01*
X183843842Y-139476932D01*
X184130740Y-139534000D01*
X184423260Y-139534000D01*
X184710158Y-139476932D01*
X184980411Y-139364990D01*
X185223632Y-139202475D01*
X185430475Y-138995632D01*
X185547000Y-138821240D01*
X185663525Y-138995632D01*
X185870368Y-139202475D01*
X186113589Y-139364990D01*
X186383842Y-139476932D01*
X186670740Y-139534000D01*
X186963260Y-139534000D01*
X187250158Y-139476932D01*
X187520411Y-139364990D01*
X187763632Y-139202475D01*
X187970475Y-138995632D01*
X188087000Y-138821240D01*
X188203525Y-138995632D01*
X188410368Y-139202475D01*
X188653589Y-139364990D01*
X188923842Y-139476932D01*
X189210740Y-139534000D01*
X189503260Y-139534000D01*
X189790158Y-139476932D01*
X190060411Y-139364990D01*
X190303632Y-139202475D01*
X190510475Y-138995632D01*
X190627000Y-138821240D01*
X190743525Y-138995632D01*
X190950368Y-139202475D01*
X191193589Y-139364990D01*
X191463842Y-139476932D01*
X191750740Y-139534000D01*
X192043260Y-139534000D01*
X192330158Y-139476932D01*
X192600411Y-139364990D01*
X192843632Y-139202475D01*
X193050475Y-138995632D01*
X193212990Y-138752411D01*
X193324932Y-138482158D01*
X193382000Y-138195260D01*
X193382000Y-137902740D01*
X193324932Y-137615842D01*
X193212990Y-137345589D01*
X193050475Y-137102368D01*
X192863392Y-136915285D01*
X192990386Y-136847405D01*
X193124962Y-136736962D01*
X193235405Y-136602386D01*
X193317472Y-136448850D01*
X193368008Y-136282254D01*
X193385072Y-136109000D01*
X193385072Y-134909000D01*
X193368008Y-134735746D01*
X193317472Y-134569150D01*
X193235405Y-134415614D01*
X193124962Y-134281038D01*
X192990386Y-134170595D01*
X192836850Y-134088528D01*
X192670254Y-134037992D01*
X192497000Y-134020928D01*
X191297000Y-134020928D01*
X191123746Y-134037992D01*
X190957150Y-134088528D01*
X190803614Y-134170595D01*
X190669038Y-134281038D01*
X190558595Y-134415614D01*
X190490715Y-134542608D01*
X190303632Y-134355525D01*
X190060411Y-134193010D01*
X189790158Y-134081068D01*
X189503260Y-134024000D01*
X189210740Y-134024000D01*
X188923842Y-134081068D01*
X188653589Y-134193010D01*
X188410368Y-134355525D01*
X188203525Y-134562368D01*
X188087000Y-134736760D01*
X187970475Y-134562368D01*
X187763632Y-134355525D01*
X187520411Y-134193010D01*
X187250158Y-134081068D01*
X186963260Y-134024000D01*
X186670740Y-134024000D01*
X186383842Y-134081068D01*
X186113589Y-134193010D01*
X185870368Y-134355525D01*
X185663525Y-134562368D01*
X185547000Y-134736760D01*
X185430475Y-134562368D01*
X185223632Y-134355525D01*
X184980411Y-134193010D01*
X184710158Y-134081068D01*
X184423260Y-134024000D01*
X184130740Y-134024000D01*
X183843842Y-134081068D01*
X183573589Y-134193010D01*
X183330368Y-134355525D01*
X183123525Y-134562368D01*
X183007000Y-134736760D01*
X182890475Y-134562368D01*
X182683632Y-134355525D01*
X182440411Y-134193010D01*
X182170158Y-134081068D01*
X181883260Y-134024000D01*
X181590740Y-134024000D01*
X181303842Y-134081068D01*
X181033589Y-134193010D01*
X180790368Y-134355525D01*
X180583525Y-134562368D01*
X180467000Y-134736760D01*
X180350475Y-134562368D01*
X180143632Y-134355525D01*
X179900411Y-134193010D01*
X179630158Y-134081068D01*
X179343260Y-134024000D01*
X179050740Y-134024000D01*
X178763842Y-134081068D01*
X178493589Y-134193010D01*
X178250368Y-134355525D01*
X178043525Y-134562368D01*
X177927000Y-134736760D01*
X177810475Y-134562368D01*
X177603632Y-134355525D01*
X177360411Y-134193010D01*
X177090158Y-134081068D01*
X176803260Y-134024000D01*
X176510740Y-134024000D01*
X176223842Y-134081068D01*
X175953589Y-134193010D01*
X175710368Y-134355525D01*
X175503525Y-134562368D01*
X175387000Y-134736760D01*
X175270475Y-134562368D01*
X175063632Y-134355525D01*
X174820411Y-134193010D01*
X174550158Y-134081068D01*
X174263260Y-134024000D01*
X173970740Y-134024000D01*
X173683842Y-134081068D01*
X173413589Y-134193010D01*
X173170368Y-134355525D01*
X172963525Y-134562368D01*
X172847000Y-134736760D01*
X172730475Y-134562368D01*
X172523632Y-134355525D01*
X172280411Y-134193010D01*
X172010158Y-134081068D01*
X171723260Y-134024000D01*
X171430740Y-134024000D01*
X171143842Y-134081068D01*
X170873589Y-134193010D01*
X170630368Y-134355525D01*
X170423525Y-134562368D01*
X170307000Y-134736760D01*
X170190475Y-134562368D01*
X169983632Y-134355525D01*
X169740411Y-134193010D01*
X169470158Y-134081068D01*
X169183260Y-134024000D01*
X168890740Y-134024000D01*
X168603842Y-134081068D01*
X168333589Y-134193010D01*
X168090368Y-134355525D01*
X167883525Y-134562368D01*
X167767000Y-134736760D01*
X167650475Y-134562368D01*
X167443632Y-134355525D01*
X167200411Y-134193010D01*
X166930158Y-134081068D01*
X166643260Y-134024000D01*
X166350740Y-134024000D01*
X166063842Y-134081068D01*
X165793589Y-134193010D01*
X165550368Y-134355525D01*
X165343525Y-134562368D01*
X165227000Y-134736760D01*
X165110475Y-134562368D01*
X164903632Y-134355525D01*
X164660411Y-134193010D01*
X164390158Y-134081068D01*
X164103260Y-134024000D01*
X163810740Y-134024000D01*
X163523842Y-134081068D01*
X163253589Y-134193010D01*
X163010368Y-134355525D01*
X162803525Y-134562368D01*
X162687689Y-134735729D01*
X162445397Y-134660208D01*
X161596605Y-135509000D01*
X161237395Y-135509000D01*
X160388603Y-134660208D01*
X160146311Y-134735729D01*
X160030475Y-134562368D01*
X159948710Y-134480603D01*
X160568208Y-134480603D01*
X161417000Y-135329395D01*
X162265792Y-134480603D01*
X162188157Y-134231528D01*
X161924117Y-134105629D01*
X161640589Y-134033661D01*
X161348469Y-134018389D01*
X161058981Y-134060401D01*
X160783253Y-134158081D01*
X160645843Y-134231528D01*
X160568208Y-134480603D01*
X159948710Y-134480603D01*
X159823632Y-134355525D01*
X159580411Y-134193010D01*
X159310158Y-134081068D01*
X159023260Y-134024000D01*
X158730740Y-134024000D01*
X158443842Y-134081068D01*
X158173589Y-134193010D01*
X157930368Y-134355525D01*
X157723525Y-134562368D01*
X157607000Y-134736760D01*
X157490475Y-134562368D01*
X157283632Y-134355525D01*
X157040411Y-134193010D01*
X156770158Y-134081068D01*
X156483260Y-134024000D01*
X156190740Y-134024000D01*
X155903842Y-134081068D01*
X155633589Y-134193010D01*
X155390368Y-134355525D01*
X155183525Y-134562368D01*
X155067000Y-134736760D01*
X154950475Y-134562368D01*
X154743632Y-134355525D01*
X154500411Y-134193010D01*
X154230158Y-134081068D01*
X153943260Y-134024000D01*
X153650740Y-134024000D01*
X153363842Y-134081068D01*
X153093589Y-134193010D01*
X152850368Y-134355525D01*
X152643525Y-134562368D01*
X152527000Y-134736760D01*
X152410475Y-134562368D01*
X152203632Y-134355525D01*
X151960411Y-134193010D01*
X151690158Y-134081068D01*
X151403260Y-134024000D01*
X151110740Y-134024000D01*
X150823842Y-134081068D01*
X150553589Y-134193010D01*
X150310368Y-134355525D01*
X150103525Y-134562368D01*
X149987000Y-134736760D01*
X149870475Y-134562368D01*
X149663632Y-134355525D01*
X149420411Y-134193010D01*
X149150158Y-134081068D01*
X148863260Y-134024000D01*
X148570740Y-134024000D01*
X148283842Y-134081068D01*
X148013589Y-134193010D01*
X147770368Y-134355525D01*
X147563525Y-134562368D01*
X147447000Y-134736760D01*
X147330475Y-134562368D01*
X147123632Y-134355525D01*
X146880411Y-134193010D01*
X146610158Y-134081068D01*
X146323260Y-134024000D01*
X146030740Y-134024000D01*
X145743842Y-134081068D01*
X145473589Y-134193010D01*
X145230368Y-134355525D01*
X145023525Y-134562368D01*
X144907000Y-134736760D01*
X144790475Y-134562368D01*
X144583632Y-134355525D01*
X144340411Y-134193010D01*
X144070158Y-134081068D01*
X143783260Y-134024000D01*
X143490740Y-134024000D01*
X143203842Y-134081068D01*
X142933589Y-134193010D01*
X142690368Y-134355525D01*
X142483525Y-134562368D01*
X142367000Y-134736760D01*
X142250475Y-134562368D01*
X142043632Y-134355525D01*
X141800411Y-134193010D01*
X141530158Y-134081068D01*
X141243260Y-134024000D01*
X140950740Y-134024000D01*
X140663842Y-134081068D01*
X140393589Y-134193010D01*
X140150368Y-134355525D01*
X139943525Y-134562368D01*
X139827000Y-134736760D01*
X139710475Y-134562368D01*
X139503632Y-134355525D01*
X139260411Y-134193010D01*
X138990158Y-134081068D01*
X138703260Y-134024000D01*
X138410740Y-134024000D01*
X138123842Y-134081068D01*
X137853589Y-134193010D01*
X137610368Y-134355525D01*
X137403525Y-134562368D01*
X137287000Y-134736760D01*
X137170475Y-134562368D01*
X136963632Y-134355525D01*
X136720411Y-134193010D01*
X136450158Y-134081068D01*
X136163260Y-134024000D01*
X135870740Y-134024000D01*
X135583842Y-134081068D01*
X135313589Y-134193010D01*
X135070368Y-134355525D01*
X134863525Y-134562368D01*
X134747000Y-134736760D01*
X134630475Y-134562368D01*
X134423632Y-134355525D01*
X134180411Y-134193010D01*
X133910158Y-134081068D01*
X133623260Y-134024000D01*
X133330740Y-134024000D01*
X133043842Y-134081068D01*
X132773589Y-134193010D01*
X132530368Y-134355525D01*
X132323525Y-134562368D01*
X132207000Y-134736760D01*
X132090475Y-134562368D01*
X131883632Y-134355525D01*
X131640411Y-134193010D01*
X131370158Y-134081068D01*
X131083260Y-134024000D01*
X130790740Y-134024000D01*
X130503842Y-134081068D01*
X130233589Y-134193010D01*
X129990368Y-134355525D01*
X129783525Y-134562368D01*
X129667000Y-134736760D01*
X129550475Y-134562368D01*
X129343632Y-134355525D01*
X129100411Y-134193010D01*
X128830158Y-134081068D01*
X128543260Y-134024000D01*
X128250740Y-134024000D01*
X127963842Y-134081068D01*
X127693589Y-134193010D01*
X127450368Y-134355525D01*
X127243525Y-134562368D01*
X127127000Y-134736760D01*
X127010475Y-134562368D01*
X126803632Y-134355525D01*
X126560411Y-134193010D01*
X126290158Y-134081068D01*
X126003260Y-134024000D01*
X125710740Y-134024000D01*
X125423842Y-134081068D01*
X125153589Y-134193010D01*
X124910368Y-134355525D01*
X124703525Y-134562368D01*
X124587000Y-134736760D01*
X124470475Y-134562368D01*
X124263632Y-134355525D01*
X124020411Y-134193010D01*
X123750158Y-134081068D01*
X123463260Y-134024000D01*
X123170740Y-134024000D01*
X122883842Y-134081068D01*
X122613589Y-134193010D01*
X122370368Y-134355525D01*
X122163525Y-134562368D01*
X122047000Y-134736760D01*
X121930475Y-134562368D01*
X121723632Y-134355525D01*
X121480411Y-134193010D01*
X121210158Y-134081068D01*
X120923260Y-134024000D01*
X120630740Y-134024000D01*
X120343842Y-134081068D01*
X120073589Y-134193010D01*
X119830368Y-134355525D01*
X119623525Y-134562368D01*
X119507000Y-134736760D01*
X119390475Y-134562368D01*
X119183632Y-134355525D01*
X118940411Y-134193010D01*
X118670158Y-134081068D01*
X118383260Y-134024000D01*
X118090740Y-134024000D01*
X117803842Y-134081068D01*
X117533589Y-134193010D01*
X117290368Y-134355525D01*
X117083525Y-134562368D01*
X116967000Y-134736760D01*
X116850475Y-134562368D01*
X116643632Y-134355525D01*
X116400411Y-134193010D01*
X116130158Y-134081068D01*
X115843260Y-134024000D01*
X115550740Y-134024000D01*
X115263842Y-134081068D01*
X114993589Y-134193010D01*
X114750368Y-134355525D01*
X114543525Y-134562368D01*
X114427000Y-134736760D01*
X114310475Y-134562368D01*
X114103632Y-134355525D01*
X113860411Y-134193010D01*
X113590158Y-134081068D01*
X113303260Y-134024000D01*
X113010740Y-134024000D01*
X112723842Y-134081068D01*
X112453589Y-134193010D01*
X112210368Y-134355525D01*
X112003525Y-134562368D01*
X111841010Y-134805589D01*
X111729068Y-135075842D01*
X111672000Y-135362740D01*
X90687000Y-135362740D01*
X90687000Y-126223665D01*
X103086000Y-126223665D01*
X103086000Y-126506335D01*
X103141147Y-126783574D01*
X103249320Y-127044727D01*
X103406363Y-127279759D01*
X103606241Y-127479637D01*
X103841273Y-127636680D01*
X104102426Y-127744853D01*
X104379665Y-127800000D01*
X104662335Y-127800000D01*
X104939574Y-127744853D01*
X105200727Y-127636680D01*
X105435759Y-127479637D01*
X105635637Y-127279759D01*
X105763097Y-127089000D01*
X106638928Y-127089000D01*
X106638928Y-128689000D01*
X106651188Y-128813482D01*
X106687498Y-128933180D01*
X106746463Y-129043494D01*
X106825815Y-129140185D01*
X106922506Y-129219537D01*
X107032820Y-129278502D01*
X107152518Y-129314812D01*
X107277000Y-129327072D01*
X108877000Y-129327072D01*
X109001482Y-129314812D01*
X109121180Y-129278502D01*
X109231494Y-129219537D01*
X109328185Y-129140185D01*
X109407537Y-129043494D01*
X109466502Y-128933180D01*
X109502812Y-128813482D01*
X109503643Y-128805039D01*
X109702241Y-129003637D01*
X109937273Y-129160680D01*
X110198426Y-129268853D01*
X110475665Y-129324000D01*
X110758335Y-129324000D01*
X111035574Y-129268853D01*
X111296727Y-129160680D01*
X111531759Y-129003637D01*
X111731637Y-128803759D01*
X111887000Y-128571241D01*
X112042363Y-128803759D01*
X112242241Y-129003637D01*
X112477273Y-129160680D01*
X112738426Y-129268853D01*
X113015665Y-129324000D01*
X113298335Y-129324000D01*
X113575574Y-129268853D01*
X113836727Y-129160680D01*
X114071759Y-129003637D01*
X114271637Y-128803759D01*
X114427000Y-128571241D01*
X114582363Y-128803759D01*
X114782241Y-129003637D01*
X115017273Y-129160680D01*
X115278426Y-129268853D01*
X115555665Y-129324000D01*
X115838335Y-129324000D01*
X116115574Y-129268853D01*
X116376727Y-129160680D01*
X116611759Y-129003637D01*
X116811637Y-128803759D01*
X116967000Y-128571241D01*
X117122363Y-128803759D01*
X117322241Y-129003637D01*
X117557273Y-129160680D01*
X117818426Y-129268853D01*
X118095665Y-129324000D01*
X118378335Y-129324000D01*
X118655574Y-129268853D01*
X118916727Y-129160680D01*
X119151759Y-129003637D01*
X119351637Y-128803759D01*
X119507000Y-128571241D01*
X119662363Y-128803759D01*
X119862241Y-129003637D01*
X120097273Y-129160680D01*
X120358426Y-129268853D01*
X120635665Y-129324000D01*
X120918335Y-129324000D01*
X121195574Y-129268853D01*
X121456727Y-129160680D01*
X121691759Y-129003637D01*
X121891637Y-128803759D01*
X122047000Y-128571241D01*
X122202363Y-128803759D01*
X122402241Y-129003637D01*
X122637273Y-129160680D01*
X122898426Y-129268853D01*
X123175665Y-129324000D01*
X123458335Y-129324000D01*
X123735574Y-129268853D01*
X123996727Y-129160680D01*
X124231759Y-129003637D01*
X124431637Y-128803759D01*
X124587000Y-128571241D01*
X124742363Y-128803759D01*
X124942241Y-129003637D01*
X125177273Y-129160680D01*
X125438426Y-129268853D01*
X125715665Y-129324000D01*
X125998335Y-129324000D01*
X126275574Y-129268853D01*
X126536727Y-129160680D01*
X126771759Y-129003637D01*
X126971637Y-128803759D01*
X127127000Y-128571241D01*
X127282363Y-128803759D01*
X127482241Y-129003637D01*
X127717273Y-129160680D01*
X127978426Y-129268853D01*
X128255665Y-129324000D01*
X128538335Y-129324000D01*
X128815574Y-129268853D01*
X129076727Y-129160680D01*
X129311759Y-129003637D01*
X129511637Y-128803759D01*
X129667000Y-128571241D01*
X129822363Y-128803759D01*
X130022241Y-129003637D01*
X130257273Y-129160680D01*
X130518426Y-129268853D01*
X130795665Y-129324000D01*
X131078335Y-129324000D01*
X131355574Y-129268853D01*
X131616727Y-129160680D01*
X131851759Y-129003637D01*
X132051637Y-128803759D01*
X132208680Y-128568727D01*
X132316853Y-128307574D01*
X132372000Y-128030335D01*
X132372000Y-127747665D01*
X132316853Y-127470426D01*
X132208680Y-127209273D01*
X132051637Y-126974241D01*
X131851759Y-126774363D01*
X131616727Y-126617320D01*
X131355574Y-126509147D01*
X131078335Y-126454000D01*
X130795665Y-126454000D01*
X130518426Y-126509147D01*
X130257273Y-126617320D01*
X130022241Y-126774363D01*
X129822363Y-126974241D01*
X129667000Y-127206759D01*
X129511637Y-126974241D01*
X129311759Y-126774363D01*
X129076727Y-126617320D01*
X128815574Y-126509147D01*
X128538335Y-126454000D01*
X128255665Y-126454000D01*
X127978426Y-126509147D01*
X127717273Y-126617320D01*
X127482241Y-126774363D01*
X127282363Y-126974241D01*
X127127000Y-127206759D01*
X126971637Y-126974241D01*
X126771759Y-126774363D01*
X126536727Y-126617320D01*
X126275574Y-126509147D01*
X125998335Y-126454000D01*
X125715665Y-126454000D01*
X125438426Y-126509147D01*
X125177273Y-126617320D01*
X124942241Y-126774363D01*
X124742363Y-126974241D01*
X124587000Y-127206759D01*
X124431637Y-126974241D01*
X124231759Y-126774363D01*
X123996727Y-126617320D01*
X123735574Y-126509147D01*
X123458335Y-126454000D01*
X123175665Y-126454000D01*
X122898426Y-126509147D01*
X122637273Y-126617320D01*
X122402241Y-126774363D01*
X122202363Y-126974241D01*
X122047000Y-127206759D01*
X121891637Y-126974241D01*
X121691759Y-126774363D01*
X121456727Y-126617320D01*
X121195574Y-126509147D01*
X120918335Y-126454000D01*
X120635665Y-126454000D01*
X120358426Y-126509147D01*
X120097273Y-126617320D01*
X119862241Y-126774363D01*
X119662363Y-126974241D01*
X119507000Y-127206759D01*
X119351637Y-126974241D01*
X119151759Y-126774363D01*
X118916727Y-126617320D01*
X118655574Y-126509147D01*
X118378335Y-126454000D01*
X118095665Y-126454000D01*
X117818426Y-126509147D01*
X117557273Y-126617320D01*
X117322241Y-126774363D01*
X117122363Y-126974241D01*
X116967000Y-127206759D01*
X116811637Y-126974241D01*
X116611759Y-126774363D01*
X116376727Y-126617320D01*
X116115574Y-126509147D01*
X115838335Y-126454000D01*
X115555665Y-126454000D01*
X115278426Y-126509147D01*
X115017273Y-126617320D01*
X114782241Y-126774363D01*
X114582363Y-126974241D01*
X114427000Y-127206759D01*
X114271637Y-126974241D01*
X114071759Y-126774363D01*
X113836727Y-126617320D01*
X113575574Y-126509147D01*
X113298335Y-126454000D01*
X113015665Y-126454000D01*
X112738426Y-126509147D01*
X112477273Y-126617320D01*
X112242241Y-126774363D01*
X112042363Y-126974241D01*
X111887000Y-127206759D01*
X111731637Y-126974241D01*
X111531759Y-126774363D01*
X111296727Y-126617320D01*
X111035574Y-126509147D01*
X110758335Y-126454000D01*
X110475665Y-126454000D01*
X110198426Y-126509147D01*
X109937273Y-126617320D01*
X109702241Y-126774363D01*
X109503643Y-126972961D01*
X109502812Y-126964518D01*
X109466502Y-126844820D01*
X109407537Y-126734506D01*
X109328185Y-126637815D01*
X109231494Y-126558463D01*
X109121180Y-126499498D01*
X109001482Y-126463188D01*
X108877000Y-126450928D01*
X107277000Y-126450928D01*
X107152518Y-126463188D01*
X107032820Y-126499498D01*
X106922506Y-126558463D01*
X106825815Y-126637815D01*
X106746463Y-126734506D01*
X106687498Y-126844820D01*
X106651188Y-126964518D01*
X106638928Y-127089000D01*
X105763097Y-127089000D01*
X105792680Y-127044727D01*
X105900853Y-126783574D01*
X105956000Y-126506335D01*
X105956000Y-126223665D01*
X105900853Y-125946426D01*
X105792680Y-125685273D01*
X105635637Y-125450241D01*
X105435759Y-125250363D01*
X105200727Y-125093320D01*
X104939574Y-124985147D01*
X104662335Y-124930000D01*
X104379665Y-124930000D01*
X104102426Y-124985147D01*
X103841273Y-125093320D01*
X103606241Y-125250363D01*
X103406363Y-125450241D01*
X103249320Y-125685273D01*
X103141147Y-125946426D01*
X103086000Y-126223665D01*
X90687000Y-126223665D01*
X90687000Y-122357702D01*
X103707903Y-122357702D01*
X103779486Y-122601671D01*
X104034996Y-122722571D01*
X104309184Y-122791300D01*
X104591512Y-122805217D01*
X104871130Y-122763787D01*
X105137292Y-122668603D01*
X105262514Y-122601671D01*
X105334097Y-122357702D01*
X104521000Y-121544605D01*
X103707903Y-122357702D01*
X90687000Y-122357702D01*
X90687000Y-121435512D01*
X103080783Y-121435512D01*
X103122213Y-121715130D01*
X103217397Y-121981292D01*
X103284329Y-122106514D01*
X103528298Y-122178097D01*
X104341395Y-121365000D01*
X104700605Y-121365000D01*
X105513702Y-122178097D01*
X105757671Y-122106514D01*
X105878571Y-121851004D01*
X105947300Y-121576816D01*
X105961217Y-121294488D01*
X105919787Y-121014870D01*
X105824603Y-120748708D01*
X105757671Y-120623486D01*
X105739110Y-120618040D01*
X106685091Y-120618040D01*
X106779930Y-120882881D01*
X106924615Y-121124131D01*
X107113586Y-121332519D01*
X107339580Y-121500037D01*
X107593913Y-121620246D01*
X107727961Y-121660904D01*
X107950000Y-121538915D01*
X107950000Y-120396000D01*
X106806376Y-120396000D01*
X106685091Y-120618040D01*
X105739110Y-120618040D01*
X105513702Y-120551903D01*
X104700605Y-121365000D01*
X104341395Y-121365000D01*
X103528298Y-120551903D01*
X103284329Y-120623486D01*
X103163429Y-120878996D01*
X103094700Y-121153184D01*
X103080783Y-121435512D01*
X90687000Y-121435512D01*
X90687000Y-120372298D01*
X103707903Y-120372298D01*
X104521000Y-121185395D01*
X105334097Y-120372298D01*
X105262514Y-120128329D01*
X105007004Y-120007429D01*
X104732816Y-119938700D01*
X104450488Y-119924783D01*
X104170870Y-119966213D01*
X103904708Y-120061397D01*
X103779486Y-120128329D01*
X103707903Y-120372298D01*
X90687000Y-120372298D01*
X90687000Y-119919960D01*
X106685091Y-119919960D01*
X106806376Y-120142000D01*
X107950000Y-120142000D01*
X107950000Y-118999085D01*
X108204000Y-118999085D01*
X108204000Y-120142000D01*
X108224000Y-120142000D01*
X108224000Y-120396000D01*
X108204000Y-120396000D01*
X108204000Y-121538915D01*
X108426039Y-121660904D01*
X108560087Y-121620246D01*
X108814420Y-121500037D01*
X109040414Y-121332519D01*
X109229385Y-121124131D01*
X109340933Y-120938135D01*
X109345320Y-120948727D01*
X109502363Y-121183759D01*
X109702241Y-121383637D01*
X109937273Y-121540680D01*
X110198426Y-121648853D01*
X110475665Y-121704000D01*
X110758335Y-121704000D01*
X111035574Y-121648853D01*
X111296727Y-121540680D01*
X111531759Y-121383637D01*
X111731637Y-121183759D01*
X111887000Y-120951241D01*
X112042363Y-121183759D01*
X112242241Y-121383637D01*
X112477273Y-121540680D01*
X112738426Y-121648853D01*
X113015665Y-121704000D01*
X113298335Y-121704000D01*
X113575574Y-121648853D01*
X113836727Y-121540680D01*
X114071759Y-121383637D01*
X114271637Y-121183759D01*
X114427000Y-120951241D01*
X114582363Y-121183759D01*
X114782241Y-121383637D01*
X115017273Y-121540680D01*
X115278426Y-121648853D01*
X115555665Y-121704000D01*
X115838335Y-121704000D01*
X116115574Y-121648853D01*
X116376727Y-121540680D01*
X116611759Y-121383637D01*
X116811637Y-121183759D01*
X116967000Y-120951241D01*
X117122363Y-121183759D01*
X117322241Y-121383637D01*
X117557273Y-121540680D01*
X117818426Y-121648853D01*
X118095665Y-121704000D01*
X118378335Y-121704000D01*
X118655574Y-121648853D01*
X118916727Y-121540680D01*
X119151759Y-121383637D01*
X119351637Y-121183759D01*
X119507000Y-120951241D01*
X119662363Y-121183759D01*
X119862241Y-121383637D01*
X120097273Y-121540680D01*
X120358426Y-121648853D01*
X120635665Y-121704000D01*
X120918335Y-121704000D01*
X121195574Y-121648853D01*
X121456727Y-121540680D01*
X121691759Y-121383637D01*
X121891637Y-121183759D01*
X122047000Y-120951241D01*
X122202363Y-121183759D01*
X122402241Y-121383637D01*
X122637273Y-121540680D01*
X122898426Y-121648853D01*
X123175665Y-121704000D01*
X123458335Y-121704000D01*
X123735574Y-121648853D01*
X123996727Y-121540680D01*
X124231759Y-121383637D01*
X124431637Y-121183759D01*
X124587000Y-120951241D01*
X124742363Y-121183759D01*
X124942241Y-121383637D01*
X125177273Y-121540680D01*
X125438426Y-121648853D01*
X125715665Y-121704000D01*
X125998335Y-121704000D01*
X126275574Y-121648853D01*
X126536727Y-121540680D01*
X126771759Y-121383637D01*
X126971637Y-121183759D01*
X127127000Y-120951241D01*
X127282363Y-121183759D01*
X127482241Y-121383637D01*
X127717273Y-121540680D01*
X127978426Y-121648853D01*
X128255665Y-121704000D01*
X128538335Y-121704000D01*
X128815574Y-121648853D01*
X129076727Y-121540680D01*
X129311759Y-121383637D01*
X129511637Y-121183759D01*
X129667000Y-120951241D01*
X129822363Y-121183759D01*
X130022241Y-121383637D01*
X130257273Y-121540680D01*
X130518426Y-121648853D01*
X130795665Y-121704000D01*
X131078335Y-121704000D01*
X131355574Y-121648853D01*
X131616727Y-121540680D01*
X131851759Y-121383637D01*
X132051637Y-121183759D01*
X132208680Y-120948727D01*
X132316853Y-120687574D01*
X132372000Y-120410335D01*
X132372000Y-120127665D01*
X132316853Y-119850426D01*
X132208680Y-119589273D01*
X132051637Y-119354241D01*
X131851759Y-119154363D01*
X131616727Y-118997320D01*
X131355574Y-118889147D01*
X131078335Y-118834000D01*
X130795665Y-118834000D01*
X130518426Y-118889147D01*
X130257273Y-118997320D01*
X130022241Y-119154363D01*
X129822363Y-119354241D01*
X129667000Y-119586759D01*
X129511637Y-119354241D01*
X129311759Y-119154363D01*
X129076727Y-118997320D01*
X128815574Y-118889147D01*
X128538335Y-118834000D01*
X128255665Y-118834000D01*
X127978426Y-118889147D01*
X127717273Y-118997320D01*
X127482241Y-119154363D01*
X127282363Y-119354241D01*
X127127000Y-119586759D01*
X126971637Y-119354241D01*
X126771759Y-119154363D01*
X126536727Y-118997320D01*
X126275574Y-118889147D01*
X125998335Y-118834000D01*
X125715665Y-118834000D01*
X125438426Y-118889147D01*
X125177273Y-118997320D01*
X124942241Y-119154363D01*
X124742363Y-119354241D01*
X124587000Y-119586759D01*
X124431637Y-119354241D01*
X124231759Y-119154363D01*
X123996727Y-118997320D01*
X123735574Y-118889147D01*
X123458335Y-118834000D01*
X123175665Y-118834000D01*
X122898426Y-118889147D01*
X122637273Y-118997320D01*
X122402241Y-119154363D01*
X122202363Y-119354241D01*
X122047000Y-119586759D01*
X121891637Y-119354241D01*
X121691759Y-119154363D01*
X121456727Y-118997320D01*
X121195574Y-118889147D01*
X120918335Y-118834000D01*
X120635665Y-118834000D01*
X120358426Y-118889147D01*
X120097273Y-118997320D01*
X119862241Y-119154363D01*
X119662363Y-119354241D01*
X119507000Y-119586759D01*
X119351637Y-119354241D01*
X119151759Y-119154363D01*
X118916727Y-118997320D01*
X118655574Y-118889147D01*
X118378335Y-118834000D01*
X118095665Y-118834000D01*
X117818426Y-118889147D01*
X117557273Y-118997320D01*
X117322241Y-119154363D01*
X117122363Y-119354241D01*
X116967000Y-119586759D01*
X116811637Y-119354241D01*
X116611759Y-119154363D01*
X116376727Y-118997320D01*
X116115574Y-118889147D01*
X115838335Y-118834000D01*
X115555665Y-118834000D01*
X115278426Y-118889147D01*
X115017273Y-118997320D01*
X114782241Y-119154363D01*
X114582363Y-119354241D01*
X114427000Y-119586759D01*
X114271637Y-119354241D01*
X114071759Y-119154363D01*
X113836727Y-118997320D01*
X113575574Y-118889147D01*
X113298335Y-118834000D01*
X113015665Y-118834000D01*
X112738426Y-118889147D01*
X112477273Y-118997320D01*
X112242241Y-119154363D01*
X112042363Y-119354241D01*
X111887000Y-119586759D01*
X111731637Y-119354241D01*
X111531759Y-119154363D01*
X111296727Y-118997320D01*
X111035574Y-118889147D01*
X110758335Y-118834000D01*
X110475665Y-118834000D01*
X110198426Y-118889147D01*
X109937273Y-118997320D01*
X109702241Y-119154363D01*
X109502363Y-119354241D01*
X109345320Y-119589273D01*
X109340933Y-119599865D01*
X109229385Y-119413869D01*
X109040414Y-119205481D01*
X108814420Y-119037963D01*
X108560087Y-118917754D01*
X108426039Y-118877096D01*
X108204000Y-118999085D01*
X107950000Y-118999085D01*
X107727961Y-118877096D01*
X107593913Y-118917754D01*
X107339580Y-119037963D01*
X107113586Y-119205481D01*
X106924615Y-119413869D01*
X106779930Y-119655119D01*
X106685091Y-119919960D01*
X90687000Y-119919960D01*
X90687000Y-88873392D01*
X90758173Y-88075917D01*
X90952658Y-87365000D01*
X123529928Y-87365000D01*
X123529928Y-88965000D01*
X123542188Y-89089482D01*
X123578498Y-89209180D01*
X123637463Y-89319494D01*
X123716815Y-89416185D01*
X123813506Y-89495537D01*
X123923820Y-89554502D01*
X124043518Y-89590812D01*
X124051961Y-89591643D01*
X123853363Y-89790241D01*
X123696320Y-90025273D01*
X123588147Y-90286426D01*
X123533000Y-90563665D01*
X123533000Y-90846335D01*
X123588147Y-91123574D01*
X123696320Y-91384727D01*
X123853363Y-91619759D01*
X124053241Y-91819637D01*
X124285759Y-91975000D01*
X124053241Y-92130363D01*
X123853363Y-92330241D01*
X123696320Y-92565273D01*
X123588147Y-92826426D01*
X123533000Y-93103665D01*
X123533000Y-93386335D01*
X123588147Y-93663574D01*
X123696320Y-93924727D01*
X123853363Y-94159759D01*
X124053241Y-94359637D01*
X124285759Y-94515000D01*
X124053241Y-94670363D01*
X123853363Y-94870241D01*
X123696320Y-95105273D01*
X123588147Y-95366426D01*
X123533000Y-95643665D01*
X123533000Y-95926335D01*
X123588147Y-96203574D01*
X123696320Y-96464727D01*
X123853363Y-96699759D01*
X124053241Y-96899637D01*
X124285759Y-97055000D01*
X124053241Y-97210363D01*
X123853363Y-97410241D01*
X123696320Y-97645273D01*
X123588147Y-97906426D01*
X123533000Y-98183665D01*
X123533000Y-98466335D01*
X123588147Y-98743574D01*
X123696320Y-99004727D01*
X123853363Y-99239759D01*
X124053241Y-99439637D01*
X124285759Y-99595000D01*
X124053241Y-99750363D01*
X123853363Y-99950241D01*
X123696320Y-100185273D01*
X123588147Y-100446426D01*
X123533000Y-100723665D01*
X123533000Y-101006335D01*
X123588147Y-101283574D01*
X123696320Y-101544727D01*
X123853363Y-101779759D01*
X124053241Y-101979637D01*
X124285759Y-102135000D01*
X124053241Y-102290363D01*
X123853363Y-102490241D01*
X123696320Y-102725273D01*
X123588147Y-102986426D01*
X123533000Y-103263665D01*
X123533000Y-103546335D01*
X123588147Y-103823574D01*
X123696320Y-104084727D01*
X123853363Y-104319759D01*
X124053241Y-104519637D01*
X124285759Y-104675000D01*
X124053241Y-104830363D01*
X123853363Y-105030241D01*
X123696320Y-105265273D01*
X123588147Y-105526426D01*
X123533000Y-105803665D01*
X123533000Y-106086335D01*
X123588147Y-106363574D01*
X123696320Y-106624727D01*
X123853363Y-106859759D01*
X124053241Y-107059637D01*
X124285759Y-107215000D01*
X124053241Y-107370363D01*
X123853363Y-107570241D01*
X123696320Y-107805273D01*
X123588147Y-108066426D01*
X123533000Y-108343665D01*
X123533000Y-108626335D01*
X123588147Y-108903574D01*
X123696320Y-109164727D01*
X123853363Y-109399759D01*
X124053241Y-109599637D01*
X124288273Y-109756680D01*
X124549426Y-109864853D01*
X124826665Y-109920000D01*
X125109335Y-109920000D01*
X125386574Y-109864853D01*
X125647727Y-109756680D01*
X125882759Y-109599637D01*
X126082637Y-109399759D01*
X126239680Y-109164727D01*
X126347853Y-108903574D01*
X126403000Y-108626335D01*
X126403000Y-108343665D01*
X126347853Y-108066426D01*
X126239680Y-107805273D01*
X126082637Y-107570241D01*
X125882759Y-107370363D01*
X125650241Y-107215000D01*
X125861764Y-107073665D01*
X139154000Y-107073665D01*
X139154000Y-107356335D01*
X139209147Y-107633574D01*
X139317320Y-107894727D01*
X139474363Y-108129759D01*
X139674241Y-108329637D01*
X139909273Y-108486680D01*
X140170426Y-108594853D01*
X140447665Y-108650000D01*
X140730335Y-108650000D01*
X141007574Y-108594853D01*
X141268727Y-108486680D01*
X141503759Y-108329637D01*
X141703637Y-108129759D01*
X141860680Y-107894727D01*
X141894946Y-107812000D01*
X142706928Y-107812000D01*
X142706928Y-109412000D01*
X142719188Y-109536482D01*
X142755498Y-109656180D01*
X142814463Y-109766494D01*
X142893815Y-109863185D01*
X142990506Y-109942537D01*
X143100820Y-110001502D01*
X143220518Y-110037812D01*
X143345000Y-110050072D01*
X144945000Y-110050072D01*
X145069482Y-110037812D01*
X145189180Y-110001502D01*
X145299494Y-109942537D01*
X145396185Y-109863185D01*
X145475537Y-109766494D01*
X145534502Y-109656180D01*
X145570812Y-109536482D01*
X145571643Y-109528039D01*
X145770241Y-109726637D01*
X146005273Y-109883680D01*
X146266426Y-109991853D01*
X146543665Y-110047000D01*
X146826335Y-110047000D01*
X147103574Y-109991853D01*
X147364727Y-109883680D01*
X147599759Y-109726637D01*
X147799637Y-109526759D01*
X147955000Y-109294241D01*
X148110363Y-109526759D01*
X148310241Y-109726637D01*
X148545273Y-109883680D01*
X148806426Y-109991853D01*
X149083665Y-110047000D01*
X149366335Y-110047000D01*
X149643574Y-109991853D01*
X149904727Y-109883680D01*
X150139759Y-109726637D01*
X150339637Y-109526759D01*
X150495000Y-109294241D01*
X150650363Y-109526759D01*
X150850241Y-109726637D01*
X151085273Y-109883680D01*
X151346426Y-109991853D01*
X151623665Y-110047000D01*
X151906335Y-110047000D01*
X152183574Y-109991853D01*
X152444727Y-109883680D01*
X152679759Y-109726637D01*
X152879637Y-109526759D01*
X153035000Y-109294241D01*
X153190363Y-109526759D01*
X153390241Y-109726637D01*
X153625273Y-109883680D01*
X153886426Y-109991853D01*
X154163665Y-110047000D01*
X154446335Y-110047000D01*
X154723574Y-109991853D01*
X154984727Y-109883680D01*
X155219759Y-109726637D01*
X155419637Y-109526759D01*
X155575000Y-109294241D01*
X155730363Y-109526759D01*
X155930241Y-109726637D01*
X156165273Y-109883680D01*
X156426426Y-109991853D01*
X156703665Y-110047000D01*
X156986335Y-110047000D01*
X157263574Y-109991853D01*
X157524727Y-109883680D01*
X157759759Y-109726637D01*
X157959637Y-109526759D01*
X158115000Y-109294241D01*
X158270363Y-109526759D01*
X158470241Y-109726637D01*
X158705273Y-109883680D01*
X158966426Y-109991853D01*
X159243665Y-110047000D01*
X159526335Y-110047000D01*
X159803574Y-109991853D01*
X160064727Y-109883680D01*
X160299759Y-109726637D01*
X160499637Y-109526759D01*
X160655000Y-109294241D01*
X160810363Y-109526759D01*
X161010241Y-109726637D01*
X161245273Y-109883680D01*
X161506426Y-109991853D01*
X161783665Y-110047000D01*
X162066335Y-110047000D01*
X162343574Y-109991853D01*
X162604727Y-109883680D01*
X162839759Y-109726637D01*
X163039637Y-109526759D01*
X163195000Y-109294241D01*
X163350363Y-109526759D01*
X163550241Y-109726637D01*
X163785273Y-109883680D01*
X164046426Y-109991853D01*
X164323665Y-110047000D01*
X164606335Y-110047000D01*
X164883574Y-109991853D01*
X165144727Y-109883680D01*
X165379759Y-109726637D01*
X165579637Y-109526759D01*
X165735000Y-109294241D01*
X165890363Y-109526759D01*
X166090241Y-109726637D01*
X166325273Y-109883680D01*
X166586426Y-109991853D01*
X166863665Y-110047000D01*
X167146335Y-110047000D01*
X167423574Y-109991853D01*
X167684727Y-109883680D01*
X167919759Y-109726637D01*
X168119637Y-109526759D01*
X168276680Y-109291727D01*
X168384853Y-109030574D01*
X168440000Y-108753335D01*
X168440000Y-108470665D01*
X168384853Y-108193426D01*
X168276680Y-107932273D01*
X168119637Y-107697241D01*
X167919759Y-107497363D01*
X167684727Y-107340320D01*
X167423574Y-107232147D01*
X167146335Y-107177000D01*
X166863665Y-107177000D01*
X166586426Y-107232147D01*
X166325273Y-107340320D01*
X166090241Y-107497363D01*
X165890363Y-107697241D01*
X165735000Y-107929759D01*
X165579637Y-107697241D01*
X165379759Y-107497363D01*
X165144727Y-107340320D01*
X164883574Y-107232147D01*
X164606335Y-107177000D01*
X164323665Y-107177000D01*
X164046426Y-107232147D01*
X163785273Y-107340320D01*
X163550241Y-107497363D01*
X163350363Y-107697241D01*
X163195000Y-107929759D01*
X163039637Y-107697241D01*
X162839759Y-107497363D01*
X162604727Y-107340320D01*
X162343574Y-107232147D01*
X162066335Y-107177000D01*
X161783665Y-107177000D01*
X161506426Y-107232147D01*
X161245273Y-107340320D01*
X161010241Y-107497363D01*
X160810363Y-107697241D01*
X160655000Y-107929759D01*
X160499637Y-107697241D01*
X160299759Y-107497363D01*
X160064727Y-107340320D01*
X159803574Y-107232147D01*
X159526335Y-107177000D01*
X159243665Y-107177000D01*
X158966426Y-107232147D01*
X158705273Y-107340320D01*
X158470241Y-107497363D01*
X158270363Y-107697241D01*
X158115000Y-107929759D01*
X157959637Y-107697241D01*
X157759759Y-107497363D01*
X157524727Y-107340320D01*
X157263574Y-107232147D01*
X156986335Y-107177000D01*
X156703665Y-107177000D01*
X156426426Y-107232147D01*
X156165273Y-107340320D01*
X155930241Y-107497363D01*
X155730363Y-107697241D01*
X155575000Y-107929759D01*
X155419637Y-107697241D01*
X155219759Y-107497363D01*
X154984727Y-107340320D01*
X154723574Y-107232147D01*
X154446335Y-107177000D01*
X154163665Y-107177000D01*
X153886426Y-107232147D01*
X153625273Y-107340320D01*
X153390241Y-107497363D01*
X153190363Y-107697241D01*
X153035000Y-107929759D01*
X152879637Y-107697241D01*
X152679759Y-107497363D01*
X152444727Y-107340320D01*
X152183574Y-107232147D01*
X151906335Y-107177000D01*
X151623665Y-107177000D01*
X151346426Y-107232147D01*
X151085273Y-107340320D01*
X150850241Y-107497363D01*
X150650363Y-107697241D01*
X150495000Y-107929759D01*
X150339637Y-107697241D01*
X150139759Y-107497363D01*
X149904727Y-107340320D01*
X149643574Y-107232147D01*
X149366335Y-107177000D01*
X149083665Y-107177000D01*
X148806426Y-107232147D01*
X148545273Y-107340320D01*
X148310241Y-107497363D01*
X148110363Y-107697241D01*
X147955000Y-107929759D01*
X147799637Y-107697241D01*
X147599759Y-107497363D01*
X147364727Y-107340320D01*
X147103574Y-107232147D01*
X146826335Y-107177000D01*
X146543665Y-107177000D01*
X146266426Y-107232147D01*
X146005273Y-107340320D01*
X145770241Y-107497363D01*
X145571643Y-107695961D01*
X145570812Y-107687518D01*
X145534502Y-107567820D01*
X145475537Y-107457506D01*
X145396185Y-107360815D01*
X145299494Y-107281463D01*
X145189180Y-107222498D01*
X145069482Y-107186188D01*
X144945000Y-107173928D01*
X143345000Y-107173928D01*
X143220518Y-107186188D01*
X143100820Y-107222498D01*
X142990506Y-107281463D01*
X142893815Y-107360815D01*
X142814463Y-107457506D01*
X142755498Y-107567820D01*
X142719188Y-107687518D01*
X142706928Y-107812000D01*
X141894946Y-107812000D01*
X141968853Y-107633574D01*
X142024000Y-107356335D01*
X142024000Y-107073665D01*
X141968853Y-106796426D01*
X141860680Y-106535273D01*
X141703637Y-106300241D01*
X141503759Y-106100363D01*
X141268727Y-105943320D01*
X141007574Y-105835147D01*
X140730335Y-105780000D01*
X140447665Y-105780000D01*
X140170426Y-105835147D01*
X139909273Y-105943320D01*
X139674241Y-106100363D01*
X139474363Y-106300241D01*
X139317320Y-106535273D01*
X139209147Y-106796426D01*
X139154000Y-107073665D01*
X125861764Y-107073665D01*
X125882759Y-107059637D01*
X126082637Y-106859759D01*
X126239680Y-106624727D01*
X126347853Y-106363574D01*
X126403000Y-106086335D01*
X126403000Y-105803665D01*
X126347853Y-105526426D01*
X126239680Y-105265273D01*
X126082637Y-105030241D01*
X125882759Y-104830363D01*
X125650241Y-104675000D01*
X125882759Y-104519637D01*
X126082637Y-104319759D01*
X126239680Y-104084727D01*
X126347853Y-103823574D01*
X126403000Y-103546335D01*
X126403000Y-103263665D01*
X126391869Y-103207702D01*
X139775903Y-103207702D01*
X139847486Y-103451671D01*
X140102996Y-103572571D01*
X140377184Y-103641300D01*
X140659512Y-103655217D01*
X140939130Y-103613787D01*
X141205292Y-103518603D01*
X141330514Y-103451671D01*
X141402097Y-103207702D01*
X140589000Y-102394605D01*
X139775903Y-103207702D01*
X126391869Y-103207702D01*
X126347853Y-102986426D01*
X126239680Y-102725273D01*
X126082637Y-102490241D01*
X125882759Y-102290363D01*
X125875499Y-102285512D01*
X139148783Y-102285512D01*
X139190213Y-102565130D01*
X139285397Y-102831292D01*
X139352329Y-102956514D01*
X139596298Y-103028097D01*
X140409395Y-102215000D01*
X140768605Y-102215000D01*
X141581702Y-103028097D01*
X141825671Y-102956514D01*
X141946571Y-102701004D01*
X142015300Y-102426816D01*
X142029217Y-102144488D01*
X141987787Y-101864870D01*
X141892603Y-101598708D01*
X141825671Y-101473486D01*
X141581702Y-101401903D01*
X140768605Y-102215000D01*
X140409395Y-102215000D01*
X139596298Y-101401903D01*
X139352329Y-101473486D01*
X139231429Y-101728996D01*
X139162700Y-102003184D01*
X139148783Y-102285512D01*
X125875499Y-102285512D01*
X125650241Y-102135000D01*
X125882759Y-101979637D01*
X126082637Y-101779759D01*
X126239680Y-101544727D01*
X126347853Y-101283574D01*
X126360041Y-101222298D01*
X139775903Y-101222298D01*
X140589000Y-102035395D01*
X141283355Y-101341040D01*
X142753091Y-101341040D01*
X142847930Y-101605881D01*
X142992615Y-101847131D01*
X143181586Y-102055519D01*
X143407580Y-102223037D01*
X143661913Y-102343246D01*
X143795961Y-102383904D01*
X144018000Y-102261915D01*
X144018000Y-101119000D01*
X142874376Y-101119000D01*
X142753091Y-101341040D01*
X141283355Y-101341040D01*
X141402097Y-101222298D01*
X141330514Y-100978329D01*
X141075004Y-100857429D01*
X140800816Y-100788700D01*
X140518488Y-100774783D01*
X140238870Y-100816213D01*
X139972708Y-100911397D01*
X139847486Y-100978329D01*
X139775903Y-101222298D01*
X126360041Y-101222298D01*
X126403000Y-101006335D01*
X126403000Y-100723665D01*
X126386947Y-100642960D01*
X142753091Y-100642960D01*
X142874376Y-100865000D01*
X144018000Y-100865000D01*
X144018000Y-99722085D01*
X144272000Y-99722085D01*
X144272000Y-100865000D01*
X144292000Y-100865000D01*
X144292000Y-101119000D01*
X144272000Y-101119000D01*
X144272000Y-102261915D01*
X144494039Y-102383904D01*
X144628087Y-102343246D01*
X144882420Y-102223037D01*
X145108414Y-102055519D01*
X145297385Y-101847131D01*
X145408933Y-101661135D01*
X145413320Y-101671727D01*
X145570363Y-101906759D01*
X145770241Y-102106637D01*
X146005273Y-102263680D01*
X146266426Y-102371853D01*
X146543665Y-102427000D01*
X146826335Y-102427000D01*
X147103574Y-102371853D01*
X147364727Y-102263680D01*
X147599759Y-102106637D01*
X147799637Y-101906759D01*
X147955000Y-101674241D01*
X148110363Y-101906759D01*
X148310241Y-102106637D01*
X148545273Y-102263680D01*
X148806426Y-102371853D01*
X149083665Y-102427000D01*
X149366335Y-102427000D01*
X149643574Y-102371853D01*
X149904727Y-102263680D01*
X150139759Y-102106637D01*
X150339637Y-101906759D01*
X150495000Y-101674241D01*
X150650363Y-101906759D01*
X150850241Y-102106637D01*
X151085273Y-102263680D01*
X151346426Y-102371853D01*
X151623665Y-102427000D01*
X151906335Y-102427000D01*
X152183574Y-102371853D01*
X152444727Y-102263680D01*
X152679759Y-102106637D01*
X152879637Y-101906759D01*
X153035000Y-101674241D01*
X153190363Y-101906759D01*
X153390241Y-102106637D01*
X153625273Y-102263680D01*
X153886426Y-102371853D01*
X154163665Y-102427000D01*
X154446335Y-102427000D01*
X154723574Y-102371853D01*
X154984727Y-102263680D01*
X155219759Y-102106637D01*
X155419637Y-101906759D01*
X155575000Y-101674241D01*
X155730363Y-101906759D01*
X155930241Y-102106637D01*
X156165273Y-102263680D01*
X156426426Y-102371853D01*
X156703665Y-102427000D01*
X156986335Y-102427000D01*
X157263574Y-102371853D01*
X157524727Y-102263680D01*
X157759759Y-102106637D01*
X157959637Y-101906759D01*
X158115000Y-101674241D01*
X158270363Y-101906759D01*
X158470241Y-102106637D01*
X158705273Y-102263680D01*
X158966426Y-102371853D01*
X159243665Y-102427000D01*
X159526335Y-102427000D01*
X159803574Y-102371853D01*
X160064727Y-102263680D01*
X160299759Y-102106637D01*
X160499637Y-101906759D01*
X160655000Y-101674241D01*
X160810363Y-101906759D01*
X161010241Y-102106637D01*
X161245273Y-102263680D01*
X161506426Y-102371853D01*
X161783665Y-102427000D01*
X162066335Y-102427000D01*
X162343574Y-102371853D01*
X162604727Y-102263680D01*
X162839759Y-102106637D01*
X163039637Y-101906759D01*
X163195000Y-101674241D01*
X163350363Y-101906759D01*
X163550241Y-102106637D01*
X163785273Y-102263680D01*
X164046426Y-102371853D01*
X164323665Y-102427000D01*
X164606335Y-102427000D01*
X164883574Y-102371853D01*
X165144727Y-102263680D01*
X165379759Y-102106637D01*
X165579637Y-101906759D01*
X165735000Y-101674241D01*
X165890363Y-101906759D01*
X166090241Y-102106637D01*
X166325273Y-102263680D01*
X166586426Y-102371853D01*
X166863665Y-102427000D01*
X167146335Y-102427000D01*
X167423574Y-102371853D01*
X167684727Y-102263680D01*
X167919759Y-102106637D01*
X168119637Y-101906759D01*
X168276680Y-101671727D01*
X168384853Y-101410574D01*
X168440000Y-101133335D01*
X168440000Y-100850665D01*
X168384853Y-100573426D01*
X168276680Y-100312273D01*
X168119637Y-100077241D01*
X167919759Y-99877363D01*
X167684727Y-99720320D01*
X167423574Y-99612147D01*
X167146335Y-99557000D01*
X166863665Y-99557000D01*
X166586426Y-99612147D01*
X166325273Y-99720320D01*
X166090241Y-99877363D01*
X165890363Y-100077241D01*
X165735000Y-100309759D01*
X165579637Y-100077241D01*
X165379759Y-99877363D01*
X165144727Y-99720320D01*
X164883574Y-99612147D01*
X164606335Y-99557000D01*
X164323665Y-99557000D01*
X164046426Y-99612147D01*
X163785273Y-99720320D01*
X163550241Y-99877363D01*
X163350363Y-100077241D01*
X163195000Y-100309759D01*
X163039637Y-100077241D01*
X162839759Y-99877363D01*
X162604727Y-99720320D01*
X162343574Y-99612147D01*
X162066335Y-99557000D01*
X161783665Y-99557000D01*
X161506426Y-99612147D01*
X161245273Y-99720320D01*
X161010241Y-99877363D01*
X160810363Y-100077241D01*
X160655000Y-100309759D01*
X160499637Y-100077241D01*
X160299759Y-99877363D01*
X160064727Y-99720320D01*
X159803574Y-99612147D01*
X159526335Y-99557000D01*
X159243665Y-99557000D01*
X158966426Y-99612147D01*
X158705273Y-99720320D01*
X158470241Y-99877363D01*
X158270363Y-100077241D01*
X158115000Y-100309759D01*
X157959637Y-100077241D01*
X157759759Y-99877363D01*
X157524727Y-99720320D01*
X157263574Y-99612147D01*
X156986335Y-99557000D01*
X156703665Y-99557000D01*
X156426426Y-99612147D01*
X156165273Y-99720320D01*
X155930241Y-99877363D01*
X155730363Y-100077241D01*
X155575000Y-100309759D01*
X155419637Y-100077241D01*
X155219759Y-99877363D01*
X154984727Y-99720320D01*
X154723574Y-99612147D01*
X154446335Y-99557000D01*
X154163665Y-99557000D01*
X153886426Y-99612147D01*
X153625273Y-99720320D01*
X153390241Y-99877363D01*
X153190363Y-100077241D01*
X153035000Y-100309759D01*
X152879637Y-100077241D01*
X152679759Y-99877363D01*
X152444727Y-99720320D01*
X152183574Y-99612147D01*
X151906335Y-99557000D01*
X151623665Y-99557000D01*
X151346426Y-99612147D01*
X151085273Y-99720320D01*
X150850241Y-99877363D01*
X150650363Y-100077241D01*
X150495000Y-100309759D01*
X150339637Y-100077241D01*
X150139759Y-99877363D01*
X149904727Y-99720320D01*
X149643574Y-99612147D01*
X149366335Y-99557000D01*
X149083665Y-99557000D01*
X148806426Y-99612147D01*
X148545273Y-99720320D01*
X148310241Y-99877363D01*
X148110363Y-100077241D01*
X147955000Y-100309759D01*
X147799637Y-100077241D01*
X147599759Y-99877363D01*
X147364727Y-99720320D01*
X147103574Y-99612147D01*
X146826335Y-99557000D01*
X146543665Y-99557000D01*
X146266426Y-99612147D01*
X146005273Y-99720320D01*
X145770241Y-99877363D01*
X145570363Y-100077241D01*
X145413320Y-100312273D01*
X145408933Y-100322865D01*
X145297385Y-100136869D01*
X145108414Y-99928481D01*
X144882420Y-99760963D01*
X144628087Y-99640754D01*
X144494039Y-99600096D01*
X144272000Y-99722085D01*
X144018000Y-99722085D01*
X143795961Y-99600096D01*
X143661913Y-99640754D01*
X143407580Y-99760963D01*
X143181586Y-99928481D01*
X142992615Y-100136869D01*
X142847930Y-100378119D01*
X142753091Y-100642960D01*
X126386947Y-100642960D01*
X126347853Y-100446426D01*
X126239680Y-100185273D01*
X126082637Y-99950241D01*
X125882759Y-99750363D01*
X125650241Y-99595000D01*
X125882759Y-99439637D01*
X126082637Y-99239759D01*
X126239680Y-99004727D01*
X126347853Y-98743574D01*
X126403000Y-98466335D01*
X126403000Y-98183665D01*
X126347853Y-97906426D01*
X126239680Y-97645273D01*
X126082637Y-97410241D01*
X125882759Y-97210363D01*
X125650241Y-97055000D01*
X125882759Y-96899637D01*
X126082637Y-96699759D01*
X126239680Y-96464727D01*
X126347853Y-96203574D01*
X126403000Y-95926335D01*
X126403000Y-95643665D01*
X126347853Y-95366426D01*
X126239680Y-95105273D01*
X126082637Y-94870241D01*
X125882759Y-94670363D01*
X125650241Y-94515000D01*
X125882759Y-94359637D01*
X126082637Y-94159759D01*
X126239680Y-93924727D01*
X126347853Y-93663574D01*
X126403000Y-93386335D01*
X126403000Y-93103665D01*
X126347853Y-92826426D01*
X126239680Y-92565273D01*
X126082637Y-92330241D01*
X125882759Y-92130363D01*
X125650241Y-91975000D01*
X125882759Y-91819637D01*
X126082637Y-91619759D01*
X126239680Y-91384727D01*
X126347853Y-91123574D01*
X126403000Y-90846335D01*
X126403000Y-90563665D01*
X126347853Y-90286426D01*
X126239680Y-90025273D01*
X126082637Y-89790241D01*
X125884039Y-89591643D01*
X125892482Y-89590812D01*
X126012180Y-89554502D01*
X126043396Y-89537816D01*
X127116000Y-89537816D01*
X127116000Y-89840184D01*
X127174989Y-90136743D01*
X127290701Y-90416095D01*
X127458688Y-90667505D01*
X127672495Y-90881312D01*
X127923905Y-91049299D01*
X128203257Y-91165011D01*
X128499816Y-91224000D01*
X128802184Y-91224000D01*
X129098743Y-91165011D01*
X129378095Y-91049299D01*
X129629505Y-90881312D01*
X129695944Y-90814873D01*
X129701498Y-90833180D01*
X129760463Y-90943494D01*
X129839815Y-91040185D01*
X129936506Y-91119537D01*
X130046820Y-91178502D01*
X130166518Y-91214812D01*
X130291000Y-91227072D01*
X132091000Y-91227072D01*
X132215482Y-91214812D01*
X132335180Y-91178502D01*
X132445494Y-91119537D01*
X132542185Y-91040185D01*
X132621537Y-90943494D01*
X132680502Y-90833180D01*
X132716812Y-90713482D01*
X132729072Y-90589000D01*
X132729072Y-89537816D01*
X133466000Y-89537816D01*
X133466000Y-89840184D01*
X133524989Y-90136743D01*
X133640701Y-90416095D01*
X133808688Y-90667505D01*
X134022495Y-90881312D01*
X134273905Y-91049299D01*
X134553257Y-91165011D01*
X134849816Y-91224000D01*
X135152184Y-91224000D01*
X135448743Y-91165011D01*
X135728095Y-91049299D01*
X135979505Y-90881312D01*
X136045944Y-90814873D01*
X136051498Y-90833180D01*
X136110463Y-90943494D01*
X136189815Y-91040185D01*
X136286506Y-91119537D01*
X136396820Y-91178502D01*
X136516518Y-91214812D01*
X136641000Y-91227072D01*
X138441000Y-91227072D01*
X138565482Y-91214812D01*
X138685180Y-91178502D01*
X138795494Y-91119537D01*
X138892185Y-91040185D01*
X138971537Y-90943494D01*
X139030502Y-90833180D01*
X139066812Y-90713482D01*
X139079072Y-90589000D01*
X139079072Y-89537816D01*
X139816000Y-89537816D01*
X139816000Y-89840184D01*
X139874989Y-90136743D01*
X139990701Y-90416095D01*
X140158688Y-90667505D01*
X140372495Y-90881312D01*
X140623905Y-91049299D01*
X140903257Y-91165011D01*
X141199816Y-91224000D01*
X141502184Y-91224000D01*
X141798743Y-91165011D01*
X142078095Y-91049299D01*
X142329505Y-90881312D01*
X142395944Y-90814873D01*
X142401498Y-90833180D01*
X142460463Y-90943494D01*
X142539815Y-91040185D01*
X142636506Y-91119537D01*
X142746820Y-91178502D01*
X142866518Y-91214812D01*
X142991000Y-91227072D01*
X144791000Y-91227072D01*
X144915482Y-91214812D01*
X145035180Y-91178502D01*
X145145494Y-91119537D01*
X145242185Y-91040185D01*
X145321537Y-90943494D01*
X145380502Y-90833180D01*
X145416812Y-90713482D01*
X145429072Y-90589000D01*
X145429072Y-89537816D01*
X146166000Y-89537816D01*
X146166000Y-89840184D01*
X146224989Y-90136743D01*
X146340701Y-90416095D01*
X146508688Y-90667505D01*
X146722495Y-90881312D01*
X146973905Y-91049299D01*
X147253257Y-91165011D01*
X147549816Y-91224000D01*
X147852184Y-91224000D01*
X148148743Y-91165011D01*
X148428095Y-91049299D01*
X148679505Y-90881312D01*
X148745944Y-90814873D01*
X148751498Y-90833180D01*
X148810463Y-90943494D01*
X148889815Y-91040185D01*
X148986506Y-91119537D01*
X149096820Y-91178502D01*
X149216518Y-91214812D01*
X149341000Y-91227072D01*
X151141000Y-91227072D01*
X151265482Y-91214812D01*
X151385180Y-91178502D01*
X151495494Y-91119537D01*
X151592185Y-91040185D01*
X151671537Y-90943494D01*
X151730502Y-90833180D01*
X151766812Y-90713482D01*
X151779072Y-90589000D01*
X151779072Y-89537816D01*
X153151000Y-89537816D01*
X153151000Y-89840184D01*
X153209989Y-90136743D01*
X153325701Y-90416095D01*
X153493688Y-90667505D01*
X153707495Y-90881312D01*
X153958905Y-91049299D01*
X154238257Y-91165011D01*
X154534816Y-91224000D01*
X154837184Y-91224000D01*
X155133743Y-91165011D01*
X155413095Y-91049299D01*
X155664505Y-90881312D01*
X155730944Y-90814873D01*
X155736498Y-90833180D01*
X155795463Y-90943494D01*
X155874815Y-91040185D01*
X155971506Y-91119537D01*
X156081820Y-91178502D01*
X156201518Y-91214812D01*
X156326000Y-91227072D01*
X158126000Y-91227072D01*
X158250482Y-91214812D01*
X158370180Y-91178502D01*
X158480494Y-91119537D01*
X158577185Y-91040185D01*
X158656537Y-90943494D01*
X158715502Y-90833180D01*
X158751812Y-90713482D01*
X158764072Y-90589000D01*
X158764072Y-89537816D01*
X159501000Y-89537816D01*
X159501000Y-89840184D01*
X159559989Y-90136743D01*
X159675701Y-90416095D01*
X159843688Y-90667505D01*
X160057495Y-90881312D01*
X160308905Y-91049299D01*
X160588257Y-91165011D01*
X160884816Y-91224000D01*
X161187184Y-91224000D01*
X161483743Y-91165011D01*
X161763095Y-91049299D01*
X162014505Y-90881312D01*
X162080944Y-90814873D01*
X162086498Y-90833180D01*
X162145463Y-90943494D01*
X162224815Y-91040185D01*
X162321506Y-91119537D01*
X162431820Y-91178502D01*
X162551518Y-91214812D01*
X162676000Y-91227072D01*
X164476000Y-91227072D01*
X164600482Y-91214812D01*
X164720180Y-91178502D01*
X164830494Y-91119537D01*
X164927185Y-91040185D01*
X165006537Y-90943494D01*
X165065502Y-90833180D01*
X165101812Y-90713482D01*
X165114072Y-90589000D01*
X165114072Y-89537816D01*
X165851000Y-89537816D01*
X165851000Y-89840184D01*
X165909989Y-90136743D01*
X166025701Y-90416095D01*
X166193688Y-90667505D01*
X166407495Y-90881312D01*
X166658905Y-91049299D01*
X166938257Y-91165011D01*
X167234816Y-91224000D01*
X167537184Y-91224000D01*
X167833743Y-91165011D01*
X168113095Y-91049299D01*
X168364505Y-90881312D01*
X168430944Y-90814873D01*
X168436498Y-90833180D01*
X168495463Y-90943494D01*
X168574815Y-91040185D01*
X168671506Y-91119537D01*
X168781820Y-91178502D01*
X168901518Y-91214812D01*
X169026000Y-91227072D01*
X170826000Y-91227072D01*
X170950482Y-91214812D01*
X171070180Y-91178502D01*
X171180494Y-91119537D01*
X171277185Y-91040185D01*
X171356537Y-90943494D01*
X171415502Y-90833180D01*
X171451812Y-90713482D01*
X171464072Y-90589000D01*
X171464072Y-89537816D01*
X172201000Y-89537816D01*
X172201000Y-89840184D01*
X172259989Y-90136743D01*
X172375701Y-90416095D01*
X172543688Y-90667505D01*
X172757495Y-90881312D01*
X173008905Y-91049299D01*
X173288257Y-91165011D01*
X173584816Y-91224000D01*
X173887184Y-91224000D01*
X174183743Y-91165011D01*
X174463095Y-91049299D01*
X174714505Y-90881312D01*
X174780944Y-90814873D01*
X174786498Y-90833180D01*
X174845463Y-90943494D01*
X174924815Y-91040185D01*
X175021506Y-91119537D01*
X175131820Y-91178502D01*
X175251518Y-91214812D01*
X175376000Y-91227072D01*
X177176000Y-91227072D01*
X177300482Y-91214812D01*
X177420180Y-91178502D01*
X177530494Y-91119537D01*
X177627185Y-91040185D01*
X177706537Y-90943494D01*
X177765502Y-90833180D01*
X177801812Y-90713482D01*
X177814072Y-90589000D01*
X177814072Y-88789000D01*
X177801812Y-88664518D01*
X177765502Y-88544820D01*
X177706537Y-88434506D01*
X177627185Y-88337815D01*
X177530494Y-88258463D01*
X177420180Y-88199498D01*
X177300482Y-88163188D01*
X177176000Y-88150928D01*
X175376000Y-88150928D01*
X175251518Y-88163188D01*
X175131820Y-88199498D01*
X175021506Y-88258463D01*
X174924815Y-88337815D01*
X174845463Y-88434506D01*
X174786498Y-88544820D01*
X174780944Y-88563127D01*
X174714505Y-88496688D01*
X174463095Y-88328701D01*
X174183743Y-88212989D01*
X173887184Y-88154000D01*
X173584816Y-88154000D01*
X173288257Y-88212989D01*
X173008905Y-88328701D01*
X172757495Y-88496688D01*
X172543688Y-88710495D01*
X172375701Y-88961905D01*
X172259989Y-89241257D01*
X172201000Y-89537816D01*
X171464072Y-89537816D01*
X171464072Y-88789000D01*
X171451812Y-88664518D01*
X171415502Y-88544820D01*
X171356537Y-88434506D01*
X171277185Y-88337815D01*
X171180494Y-88258463D01*
X171070180Y-88199498D01*
X170950482Y-88163188D01*
X170826000Y-88150928D01*
X169026000Y-88150928D01*
X168901518Y-88163188D01*
X168781820Y-88199498D01*
X168671506Y-88258463D01*
X168574815Y-88337815D01*
X168495463Y-88434506D01*
X168436498Y-88544820D01*
X168430944Y-88563127D01*
X168364505Y-88496688D01*
X168113095Y-88328701D01*
X167833743Y-88212989D01*
X167537184Y-88154000D01*
X167234816Y-88154000D01*
X166938257Y-88212989D01*
X166658905Y-88328701D01*
X166407495Y-88496688D01*
X166193688Y-88710495D01*
X166025701Y-88961905D01*
X165909989Y-89241257D01*
X165851000Y-89537816D01*
X165114072Y-89537816D01*
X165114072Y-88789000D01*
X165101812Y-88664518D01*
X165065502Y-88544820D01*
X165006537Y-88434506D01*
X164927185Y-88337815D01*
X164830494Y-88258463D01*
X164720180Y-88199498D01*
X164600482Y-88163188D01*
X164476000Y-88150928D01*
X162676000Y-88150928D01*
X162551518Y-88163188D01*
X162431820Y-88199498D01*
X162321506Y-88258463D01*
X162224815Y-88337815D01*
X162145463Y-88434506D01*
X162086498Y-88544820D01*
X162080944Y-88563127D01*
X162014505Y-88496688D01*
X161763095Y-88328701D01*
X161483743Y-88212989D01*
X161187184Y-88154000D01*
X160884816Y-88154000D01*
X160588257Y-88212989D01*
X160308905Y-88328701D01*
X160057495Y-88496688D01*
X159843688Y-88710495D01*
X159675701Y-88961905D01*
X159559989Y-89241257D01*
X159501000Y-89537816D01*
X158764072Y-89537816D01*
X158764072Y-88789000D01*
X158751812Y-88664518D01*
X158715502Y-88544820D01*
X158656537Y-88434506D01*
X158577185Y-88337815D01*
X158480494Y-88258463D01*
X158370180Y-88199498D01*
X158250482Y-88163188D01*
X158126000Y-88150928D01*
X156326000Y-88150928D01*
X156201518Y-88163188D01*
X156081820Y-88199498D01*
X155971506Y-88258463D01*
X155874815Y-88337815D01*
X155795463Y-88434506D01*
X155736498Y-88544820D01*
X155730944Y-88563127D01*
X155664505Y-88496688D01*
X155413095Y-88328701D01*
X155133743Y-88212989D01*
X154837184Y-88154000D01*
X154534816Y-88154000D01*
X154238257Y-88212989D01*
X153958905Y-88328701D01*
X153707495Y-88496688D01*
X153493688Y-88710495D01*
X153325701Y-88961905D01*
X153209989Y-89241257D01*
X153151000Y-89537816D01*
X151779072Y-89537816D01*
X151779072Y-88789000D01*
X151766812Y-88664518D01*
X151730502Y-88544820D01*
X151671537Y-88434506D01*
X151592185Y-88337815D01*
X151495494Y-88258463D01*
X151385180Y-88199498D01*
X151265482Y-88163188D01*
X151141000Y-88150928D01*
X149341000Y-88150928D01*
X149216518Y-88163188D01*
X149096820Y-88199498D01*
X148986506Y-88258463D01*
X148889815Y-88337815D01*
X148810463Y-88434506D01*
X148751498Y-88544820D01*
X148745944Y-88563127D01*
X148679505Y-88496688D01*
X148428095Y-88328701D01*
X148148743Y-88212989D01*
X147852184Y-88154000D01*
X147549816Y-88154000D01*
X147253257Y-88212989D01*
X146973905Y-88328701D01*
X146722495Y-88496688D01*
X146508688Y-88710495D01*
X146340701Y-88961905D01*
X146224989Y-89241257D01*
X146166000Y-89537816D01*
X145429072Y-89537816D01*
X145429072Y-88789000D01*
X145416812Y-88664518D01*
X145380502Y-88544820D01*
X145321537Y-88434506D01*
X145242185Y-88337815D01*
X145145494Y-88258463D01*
X145035180Y-88199498D01*
X144915482Y-88163188D01*
X144791000Y-88150928D01*
X142991000Y-88150928D01*
X142866518Y-88163188D01*
X142746820Y-88199498D01*
X142636506Y-88258463D01*
X142539815Y-88337815D01*
X142460463Y-88434506D01*
X142401498Y-88544820D01*
X142395944Y-88563127D01*
X142329505Y-88496688D01*
X142078095Y-88328701D01*
X141798743Y-88212989D01*
X141502184Y-88154000D01*
X141199816Y-88154000D01*
X140903257Y-88212989D01*
X140623905Y-88328701D01*
X140372495Y-88496688D01*
X140158688Y-88710495D01*
X139990701Y-88961905D01*
X139874989Y-89241257D01*
X139816000Y-89537816D01*
X139079072Y-89537816D01*
X139079072Y-88789000D01*
X139066812Y-88664518D01*
X139030502Y-88544820D01*
X138971537Y-88434506D01*
X138892185Y-88337815D01*
X138795494Y-88258463D01*
X138685180Y-88199498D01*
X138565482Y-88163188D01*
X138441000Y-88150928D01*
X136641000Y-88150928D01*
X136516518Y-88163188D01*
X136396820Y-88199498D01*
X136286506Y-88258463D01*
X136189815Y-88337815D01*
X136110463Y-88434506D01*
X136051498Y-88544820D01*
X136045944Y-88563127D01*
X135979505Y-88496688D01*
X135728095Y-88328701D01*
X135448743Y-88212989D01*
X135152184Y-88154000D01*
X134849816Y-88154000D01*
X134553257Y-88212989D01*
X134273905Y-88328701D01*
X134022495Y-88496688D01*
X133808688Y-88710495D01*
X133640701Y-88961905D01*
X133524989Y-89241257D01*
X133466000Y-89537816D01*
X132729072Y-89537816D01*
X132729072Y-88789000D01*
X132716812Y-88664518D01*
X132680502Y-88544820D01*
X132621537Y-88434506D01*
X132542185Y-88337815D01*
X132445494Y-88258463D01*
X132335180Y-88199498D01*
X132215482Y-88163188D01*
X132091000Y-88150928D01*
X130291000Y-88150928D01*
X130166518Y-88163188D01*
X130046820Y-88199498D01*
X129936506Y-88258463D01*
X129839815Y-88337815D01*
X129760463Y-88434506D01*
X129701498Y-88544820D01*
X129695944Y-88563127D01*
X129629505Y-88496688D01*
X129378095Y-88328701D01*
X129098743Y-88212989D01*
X128802184Y-88154000D01*
X128499816Y-88154000D01*
X128203257Y-88212989D01*
X127923905Y-88328701D01*
X127672495Y-88496688D01*
X127458688Y-88710495D01*
X127290701Y-88961905D01*
X127174989Y-89241257D01*
X127116000Y-89537816D01*
X126043396Y-89537816D01*
X126122494Y-89495537D01*
X126219185Y-89416185D01*
X126298537Y-89319494D01*
X126357502Y-89209180D01*
X126393812Y-89089482D01*
X126406072Y-88965000D01*
X126406072Y-87365000D01*
X126393812Y-87240518D01*
X126357502Y-87120820D01*
X126298537Y-87010506D01*
X126219185Y-86913815D01*
X126122494Y-86834463D01*
X126012180Y-86775498D01*
X125892482Y-86739188D01*
X125768000Y-86726928D01*
X124168000Y-86726928D01*
X124043518Y-86739188D01*
X123923820Y-86775498D01*
X123813506Y-86834463D01*
X123716815Y-86913815D01*
X123637463Y-87010506D01*
X123578498Y-87120820D01*
X123542188Y-87240518D01*
X123529928Y-87365000D01*
X90952658Y-87365000D01*
X90961656Y-87332109D01*
X91293638Y-86636095D01*
X91743626Y-86009870D01*
X92297403Y-85473223D01*
X92937451Y-85043129D01*
X93643553Y-84733171D01*
X94398457Y-84551935D01*
X95051207Y-84504000D01*
X209997608Y-84504000D01*
X210795083Y-84575173D01*
G37*
X210795083Y-84575173D02*
X211538891Y-84778656D01*
X212234905Y-85110638D01*
X212861130Y-85560626D01*
X213397777Y-86114403D01*
X213827871Y-86754451D01*
X214137829Y-87460553D01*
X214319065Y-88215457D01*
X214367000Y-88868207D01*
X214367001Y-147070618D01*
X213253620Y-148184000D01*
X91800381Y-148184000D01*
X90687000Y-147070620D01*
X90687000Y-135362740D01*
X111672000Y-135362740D01*
X111672000Y-135655260D01*
X111729068Y-135942158D01*
X111841010Y-136212411D01*
X112003525Y-136455632D01*
X112210368Y-136662475D01*
X112384760Y-136779000D01*
X112210368Y-136895525D01*
X112003525Y-137102368D01*
X111841010Y-137345589D01*
X111729068Y-137615842D01*
X111672000Y-137902740D01*
X111672000Y-138195260D01*
X111729068Y-138482158D01*
X111841010Y-138752411D01*
X112003525Y-138995632D01*
X112210368Y-139202475D01*
X112453589Y-139364990D01*
X112723842Y-139476932D01*
X113010740Y-139534000D01*
X113303260Y-139534000D01*
X113590158Y-139476932D01*
X113860411Y-139364990D01*
X114103632Y-139202475D01*
X114310475Y-138995632D01*
X114427000Y-138821240D01*
X114543525Y-138995632D01*
X114750368Y-139202475D01*
X114993589Y-139364990D01*
X115263842Y-139476932D01*
X115550740Y-139534000D01*
X115843260Y-139534000D01*
X116130158Y-139476932D01*
X116400411Y-139364990D01*
X116643632Y-139202475D01*
X116850475Y-138995632D01*
X116967000Y-138821240D01*
X117083525Y-138995632D01*
X117290368Y-139202475D01*
X117533589Y-139364990D01*
X117803842Y-139476932D01*
X118090740Y-139534000D01*
X118383260Y-139534000D01*
X118670158Y-139476932D01*
X118940411Y-139364990D01*
X119183632Y-139202475D01*
X119390475Y-138995632D01*
X119507000Y-138821240D01*
X119623525Y-138995632D01*
X119830368Y-139202475D01*
X120073589Y-139364990D01*
X120343842Y-139476932D01*
X120630740Y-139534000D01*
X120923260Y-139534000D01*
X121210158Y-139476932D01*
X121480411Y-139364990D01*
X121723632Y-139202475D01*
X121930475Y-138995632D01*
X122047000Y-138821240D01*
X122163525Y-138995632D01*
X122370368Y-139202475D01*
X122613589Y-139364990D01*
X122883842Y-139476932D01*
X123170740Y-139534000D01*
X123463260Y-139534000D01*
X123750158Y-139476932D01*
X124020411Y-139364990D01*
X124263632Y-139202475D01*
X124470475Y-138995632D01*
X124587000Y-138821240D01*
X124703525Y-138995632D01*
X124910368Y-139202475D01*
X125153589Y-139364990D01*
X125423842Y-139476932D01*
X125710740Y-139534000D01*
X126003260Y-139534000D01*
X126290158Y-139476932D01*
X126560411Y-139364990D01*
X126803632Y-139202475D01*
X127010475Y-138995632D01*
X127127000Y-138821240D01*
X127243525Y-138995632D01*
X127450368Y-139202475D01*
X127693589Y-139364990D01*
X127963842Y-139476932D01*
X128250740Y-139534000D01*
X128543260Y-139534000D01*
X128830158Y-139476932D01*
X129100411Y-139364990D01*
X129343632Y-139202475D01*
X129550475Y-138995632D01*
X129667000Y-138821240D01*
X129783525Y-138995632D01*
X129990368Y-139202475D01*
X130233589Y-139364990D01*
X130503842Y-139476932D01*
X130790740Y-139534000D01*
X131083260Y-139534000D01*
X131370158Y-139476932D01*
X131640411Y-139364990D01*
X131883632Y-139202475D01*
X132090475Y-138995632D01*
X132207000Y-138821240D01*
X132323525Y-138995632D01*
X132530368Y-139202475D01*
X132773589Y-139364990D01*
X133043842Y-139476932D01*
X133330740Y-139534000D01*
X133623260Y-139534000D01*
X133910158Y-139476932D01*
X134180411Y-139364990D01*
X134423632Y-139202475D01*
X134630475Y-138995632D01*
X134747000Y-138821240D01*
X134863525Y-138995632D01*
X135070368Y-139202475D01*
X135313589Y-139364990D01*
X135583842Y-139476932D01*
X135870740Y-139534000D01*
X136163260Y-139534000D01*
X136450158Y-139476932D01*
X136720411Y-139364990D01*
X136963632Y-139202475D01*
X137170475Y-138995632D01*
X137287000Y-138821240D01*
X137403525Y-138995632D01*
X137610368Y-139202475D01*
X137853589Y-139364990D01*
X138123842Y-139476932D01*
X138410740Y-139534000D01*
X138703260Y-139534000D01*
X138990158Y-139476932D01*
X139260411Y-139364990D01*
X139503632Y-139202475D01*
X139710475Y-138995632D01*
X139827000Y-138821240D01*
X139943525Y-138995632D01*
X140150368Y-139202475D01*
X140393589Y-139364990D01*
X140663842Y-139476932D01*
X140950740Y-139534000D01*
X141243260Y-139534000D01*
X141530158Y-139476932D01*
X141800411Y-139364990D01*
X142043632Y-139202475D01*
X142250475Y-138995632D01*
X142367000Y-138821240D01*
X142483525Y-138995632D01*
X142690368Y-139202475D01*
X142933589Y-139364990D01*
X143203842Y-139476932D01*
X143490740Y-139534000D01*
X143783260Y-139534000D01*
X144070158Y-139476932D01*
X144340411Y-139364990D01*
X144583632Y-139202475D01*
X144790475Y-138995632D01*
X144907000Y-138821240D01*
X145023525Y-138995632D01*
X145230368Y-139202475D01*
X145473589Y-139364990D01*
X145743842Y-139476932D01*
X146030740Y-139534000D01*
X146323260Y-139534000D01*
X146610158Y-139476932D01*
X146880411Y-139364990D01*
X147123632Y-139202475D01*
X147330475Y-138995632D01*
X147447000Y-138821240D01*
X147563525Y-138995632D01*
X147770368Y-139202475D01*
X148013589Y-139364990D01*
X148283842Y-139476932D01*
X148570740Y-139534000D01*
X148863260Y-139534000D01*
X149150158Y-139476932D01*
X149420411Y-139364990D01*
X149663632Y-139202475D01*
X149870475Y-138995632D01*
X149987000Y-138821240D01*
X150103525Y-138995632D01*
X150310368Y-139202475D01*
X150553589Y-139364990D01*
X150823842Y-139476932D01*
X151110740Y-139534000D01*
X151403260Y-139534000D01*
X151690158Y-139476932D01*
X151960411Y-139364990D01*
X152203632Y-139202475D01*
X152410475Y-138995632D01*
X152527000Y-138821240D01*
X152643525Y-138995632D01*
X152850368Y-139202475D01*
X153093589Y-139364990D01*
X153363842Y-139476932D01*
X153650740Y-139534000D01*
X153943260Y-139534000D01*
X154230158Y-139476932D01*
X154500411Y-139364990D01*
X154743632Y-139202475D01*
X154950475Y-138995632D01*
X155067000Y-138821240D01*
X155183525Y-138995632D01*
X155390368Y-139202475D01*
X155633589Y-139364990D01*
X155903842Y-139476932D01*
X156190740Y-139534000D01*
X156483260Y-139534000D01*
X156770158Y-139476932D01*
X157040411Y-139364990D01*
X157283632Y-139202475D01*
X157490475Y-138995632D01*
X157607000Y-138821240D01*
X157723525Y-138995632D01*
X157930368Y-139202475D01*
X158173589Y-139364990D01*
X158443842Y-139476932D01*
X158730740Y-139534000D01*
X159023260Y-139534000D01*
X159310158Y-139476932D01*
X159580411Y-139364990D01*
X159823632Y-139202475D01*
X159948710Y-139077397D01*
X160568208Y-139077397D01*
X160645843Y-139326472D01*
X160909883Y-139452371D01*
X161193411Y-139524339D01*
X161485531Y-139539611D01*
X161775019Y-139497599D01*
X162050747Y-139399919D01*
X162188157Y-139326472D01*
X162265792Y-139077397D01*
X161417000Y-138228605D01*
X160568208Y-139077397D01*
X159948710Y-139077397D01*
X160030475Y-138995632D01*
X160146311Y-138822271D01*
X160388603Y-138897792D01*
X161237395Y-138049000D01*
X160388603Y-137200208D01*
X160146311Y-137275729D01*
X160030475Y-137102368D01*
X159823632Y-136895525D01*
X159649240Y-136779000D01*
X159823632Y-136662475D01*
X159948710Y-136537397D01*
X160568208Y-136537397D01*
X160643514Y-136779000D01*
X160568208Y-137020603D01*
X161417000Y-137869395D01*
X162265792Y-137020603D01*
X162190486Y-136779000D01*
X162265792Y-136537397D01*
X161417000Y-135688605D01*
X160568208Y-136537397D01*
X159948710Y-136537397D01*
X160030475Y-136455632D01*
X160146311Y-136282271D01*
X160388603Y-136357792D01*
X161237395Y-135509000D01*
X161596605Y-135509000D01*
X162445397Y-136357792D01*
X162687689Y-136282271D01*
X162803525Y-136455632D01*
X163010368Y-136662475D01*
X163184760Y-136779000D01*
X163010368Y-136895525D01*
X162803525Y-137102368D01*
X162687689Y-137275729D01*
X162445397Y-137200208D01*
X161596605Y-138049000D01*
X162445397Y-138897792D01*
X162687689Y-138822271D01*
X162803525Y-138995632D01*
X163010368Y-139202475D01*
X163253589Y-139364990D01*
X163523842Y-139476932D01*
X163810740Y-139534000D01*
X164103260Y-139534000D01*
X164390158Y-139476932D01*
X164660411Y-139364990D01*
X164903632Y-139202475D01*
X165110475Y-138995632D01*
X165227000Y-138821240D01*
X165343525Y-138995632D01*
X165550368Y-139202475D01*
X165793589Y-139364990D01*
X166063842Y-139476932D01*
X166350740Y-139534000D01*
X166643260Y-139534000D01*
X166930158Y-139476932D01*
X167200411Y-139364990D01*
X167443632Y-139202475D01*
X167650475Y-138995632D01*
X167767000Y-138821240D01*
X167883525Y-138995632D01*
X168090368Y-139202475D01*
X168333589Y-139364990D01*
X168603842Y-139476932D01*
X168890740Y-139534000D01*
X169183260Y-139534000D01*
X169470158Y-139476932D01*
X169740411Y-139364990D01*
X169983632Y-139202475D01*
X170190475Y-138995632D01*
X170307000Y-138821240D01*
X170423525Y-138995632D01*
X170630368Y-139202475D01*
X170873589Y-139364990D01*
X171143842Y-139476932D01*
X171430740Y-139534000D01*
X171723260Y-139534000D01*
X172010158Y-139476932D01*
X172280411Y-139364990D01*
X172523632Y-139202475D01*
X172730475Y-138995632D01*
X172847000Y-138821240D01*
X172963525Y-138995632D01*
X173170368Y-139202475D01*
X173413589Y-139364990D01*
X173683842Y-139476932D01*
X173970740Y-139534000D01*
X174263260Y-139534000D01*
X174550158Y-139476932D01*
X174820411Y-139364990D01*
X175063632Y-139202475D01*
X175270475Y-138995632D01*
X175387000Y-138821240D01*
X175503525Y-138995632D01*
X175710368Y-139202475D01*
X175953589Y-139364990D01*
X176223842Y-139476932D01*
X176510740Y-139534000D01*
X176803260Y-139534000D01*
X177090158Y-139476932D01*
X177360411Y-139364990D01*
X177603632Y-139202475D01*
X177810475Y-138995632D01*
X177927000Y-138821240D01*
X178043525Y-138995632D01*
X178250368Y-139202475D01*
X178493589Y-139364990D01*
X178763842Y-139476932D01*
X179050740Y-139534000D01*
X179343260Y-139534000D01*
X179630158Y-139476932D01*
X179900411Y-139364990D01*
X180143632Y-139202475D01*
X180350475Y-138995632D01*
X180467000Y-138821240D01*
X180583525Y-138995632D01*
X180790368Y-139202475D01*
X181033589Y-139364990D01*
X181303842Y-139476932D01*
X181590740Y-139534000D01*
X181883260Y-139534000D01*
X182170158Y-139476932D01*
X182440411Y-139364990D01*
X182683632Y-139202475D01*
X182890475Y-138995632D01*
X183007000Y-138821240D01*
X183123525Y-138995632D01*
X183330368Y-139202475D01*
X183573589Y-139364990D01*
X183843842Y-139476932D01*
X184130740Y-139534000D01*
X184423260Y-139534000D01*
X184710158Y-139476932D01*
X184980411Y-139364990D01*
X185223632Y-139202475D01*
X185430475Y-138995632D01*
X185547000Y-138821240D01*
X185663525Y-138995632D01*
X185870368Y-139202475D01*
X186113589Y-139364990D01*
X186383842Y-139476932D01*
X186670740Y-139534000D01*
X186963260Y-139534000D01*
X187250158Y-139476932D01*
X187520411Y-139364990D01*
X187763632Y-139202475D01*
X187970475Y-138995632D01*
X188087000Y-138821240D01*
X188203525Y-138995632D01*
X188410368Y-139202475D01*
X188653589Y-139364990D01*
X188923842Y-139476932D01*
X189210740Y-139534000D01*
X189503260Y-139534000D01*
X189790158Y-139476932D01*
X190060411Y-139364990D01*
X190303632Y-139202475D01*
X190510475Y-138995632D01*
X190627000Y-138821240D01*
X190743525Y-138995632D01*
X190950368Y-139202475D01*
X191193589Y-139364990D01*
X191463842Y-139476932D01*
X191750740Y-139534000D01*
X192043260Y-139534000D01*
X192330158Y-139476932D01*
X192600411Y-139364990D01*
X192843632Y-139202475D01*
X193050475Y-138995632D01*
X193212990Y-138752411D01*
X193324932Y-138482158D01*
X193382000Y-138195260D01*
X193382000Y-137902740D01*
X193324932Y-137615842D01*
X193212990Y-137345589D01*
X193050475Y-137102368D01*
X192863392Y-136915285D01*
X192990386Y-136847405D01*
X193124962Y-136736962D01*
X193235405Y-136602386D01*
X193317472Y-136448850D01*
X193368008Y-136282254D01*
X193385072Y-136109000D01*
X193385072Y-134909000D01*
X193368008Y-134735746D01*
X193317472Y-134569150D01*
X193235405Y-134415614D01*
X193124962Y-134281038D01*
X192990386Y-134170595D01*
X192836850Y-134088528D01*
X192670254Y-134037992D01*
X192497000Y-134020928D01*
X191297000Y-134020928D01*
X191123746Y-134037992D01*
X190957150Y-134088528D01*
X190803614Y-134170595D01*
X190669038Y-134281038D01*
X190558595Y-134415614D01*
X190490715Y-134542608D01*
X190303632Y-134355525D01*
X190060411Y-134193010D01*
X189790158Y-134081068D01*
X189503260Y-134024000D01*
X189210740Y-134024000D01*
X188923842Y-134081068D01*
X188653589Y-134193010D01*
X188410368Y-134355525D01*
X188203525Y-134562368D01*
X188087000Y-134736760D01*
X187970475Y-134562368D01*
X187763632Y-134355525D01*
X187520411Y-134193010D01*
X187250158Y-134081068D01*
X186963260Y-134024000D01*
X186670740Y-134024000D01*
X186383842Y-134081068D01*
X186113589Y-134193010D01*
X185870368Y-134355525D01*
X185663525Y-134562368D01*
X185547000Y-134736760D01*
X185430475Y-134562368D01*
X185223632Y-134355525D01*
X184980411Y-134193010D01*
X184710158Y-134081068D01*
X184423260Y-134024000D01*
X184130740Y-134024000D01*
X183843842Y-134081068D01*
X183573589Y-134193010D01*
X183330368Y-134355525D01*
X183123525Y-134562368D01*
X183007000Y-134736760D01*
X182890475Y-134562368D01*
X182683632Y-134355525D01*
X182440411Y-134193010D01*
X182170158Y-134081068D01*
X181883260Y-134024000D01*
X181590740Y-134024000D01*
X181303842Y-134081068D01*
X181033589Y-134193010D01*
X180790368Y-134355525D01*
X180583525Y-134562368D01*
X180467000Y-134736760D01*
X180350475Y-134562368D01*
X180143632Y-134355525D01*
X179900411Y-134193010D01*
X179630158Y-134081068D01*
X179343260Y-134024000D01*
X179050740Y-134024000D01*
X178763842Y-134081068D01*
X178493589Y-134193010D01*
X178250368Y-134355525D01*
X178043525Y-134562368D01*
X177927000Y-134736760D01*
X177810475Y-134562368D01*
X177603632Y-134355525D01*
X177360411Y-134193010D01*
X177090158Y-134081068D01*
X176803260Y-134024000D01*
X176510740Y-134024000D01*
X176223842Y-134081068D01*
X175953589Y-134193010D01*
X175710368Y-134355525D01*
X175503525Y-134562368D01*
X175387000Y-134736760D01*
X175270475Y-134562368D01*
X175063632Y-134355525D01*
X174820411Y-134193010D01*
X174550158Y-134081068D01*
X174263260Y-134024000D01*
X173970740Y-134024000D01*
X173683842Y-134081068D01*
X173413589Y-134193010D01*
X173170368Y-134355525D01*
X172963525Y-134562368D01*
X172847000Y-134736760D01*
X172730475Y-134562368D01*
X172523632Y-134355525D01*
X172280411Y-134193010D01*
X172010158Y-134081068D01*
X171723260Y-134024000D01*
X171430740Y-134024000D01*
X171143842Y-134081068D01*
X170873589Y-134193010D01*
X170630368Y-134355525D01*
X170423525Y-134562368D01*
X170307000Y-134736760D01*
X170190475Y-134562368D01*
X169983632Y-134355525D01*
X169740411Y-134193010D01*
X169470158Y-134081068D01*
X169183260Y-134024000D01*
X168890740Y-134024000D01*
X168603842Y-134081068D01*
X168333589Y-134193010D01*
X168090368Y-134355525D01*
X167883525Y-134562368D01*
X167767000Y-134736760D01*
X167650475Y-134562368D01*
X167443632Y-134355525D01*
X167200411Y-134193010D01*
X166930158Y-134081068D01*
X166643260Y-134024000D01*
X166350740Y-134024000D01*
X166063842Y-134081068D01*
X165793589Y-134193010D01*
X165550368Y-134355525D01*
X165343525Y-134562368D01*
X165227000Y-134736760D01*
X165110475Y-134562368D01*
X164903632Y-134355525D01*
X164660411Y-134193010D01*
X164390158Y-134081068D01*
X164103260Y-134024000D01*
X163810740Y-134024000D01*
X163523842Y-134081068D01*
X163253589Y-134193010D01*
X163010368Y-134355525D01*
X162803525Y-134562368D01*
X162687689Y-134735729D01*
X162445397Y-134660208D01*
X161596605Y-135509000D01*
X161237395Y-135509000D01*
X160388603Y-134660208D01*
X160146311Y-134735729D01*
X160030475Y-134562368D01*
X159948710Y-134480603D01*
X160568208Y-134480603D01*
X161417000Y-135329395D01*
X162265792Y-134480603D01*
X162188157Y-134231528D01*
X161924117Y-134105629D01*
X161640589Y-134033661D01*
X161348469Y-134018389D01*
X161058981Y-134060401D01*
X160783253Y-134158081D01*
X160645843Y-134231528D01*
X160568208Y-134480603D01*
X159948710Y-134480603D01*
X159823632Y-134355525D01*
X159580411Y-134193010D01*
X159310158Y-134081068D01*
X159023260Y-134024000D01*
X158730740Y-134024000D01*
X158443842Y-134081068D01*
X158173589Y-134193010D01*
X157930368Y-134355525D01*
X157723525Y-134562368D01*
X157607000Y-134736760D01*
X157490475Y-134562368D01*
X157283632Y-134355525D01*
X157040411Y-134193010D01*
X156770158Y-134081068D01*
X156483260Y-134024000D01*
X156190740Y-134024000D01*
X155903842Y-134081068D01*
X155633589Y-134193010D01*
X155390368Y-134355525D01*
X155183525Y-134562368D01*
X155067000Y-134736760D01*
X154950475Y-134562368D01*
X154743632Y-134355525D01*
X154500411Y-134193010D01*
X154230158Y-134081068D01*
X153943260Y-134024000D01*
X153650740Y-134024000D01*
X153363842Y-134081068D01*
X153093589Y-134193010D01*
X152850368Y-134355525D01*
X152643525Y-134562368D01*
X152527000Y-134736760D01*
X152410475Y-134562368D01*
X152203632Y-134355525D01*
X151960411Y-134193010D01*
X151690158Y-134081068D01*
X151403260Y-134024000D01*
X151110740Y-134024000D01*
X150823842Y-134081068D01*
X150553589Y-134193010D01*
X150310368Y-134355525D01*
X150103525Y-134562368D01*
X149987000Y-134736760D01*
X149870475Y-134562368D01*
X149663632Y-134355525D01*
X149420411Y-134193010D01*
X149150158Y-134081068D01*
X148863260Y-134024000D01*
X148570740Y-134024000D01*
X148283842Y-134081068D01*
X148013589Y-134193010D01*
X147770368Y-134355525D01*
X147563525Y-134562368D01*
X147447000Y-134736760D01*
X147330475Y-134562368D01*
X147123632Y-134355525D01*
X146880411Y-134193010D01*
X146610158Y-134081068D01*
X146323260Y-134024000D01*
X146030740Y-134024000D01*
X145743842Y-134081068D01*
X145473589Y-134193010D01*
X145230368Y-134355525D01*
X145023525Y-134562368D01*
X144907000Y-134736760D01*
X144790475Y-134562368D01*
X144583632Y-134355525D01*
X144340411Y-134193010D01*
X144070158Y-134081068D01*
X143783260Y-134024000D01*
X143490740Y-134024000D01*
X143203842Y-134081068D01*
X142933589Y-134193010D01*
X142690368Y-134355525D01*
X142483525Y-134562368D01*
X142367000Y-134736760D01*
X142250475Y-134562368D01*
X142043632Y-134355525D01*
X141800411Y-134193010D01*
X141530158Y-134081068D01*
X141243260Y-134024000D01*
X140950740Y-134024000D01*
X140663842Y-134081068D01*
X140393589Y-134193010D01*
X140150368Y-134355525D01*
X139943525Y-134562368D01*
X139827000Y-134736760D01*
X139710475Y-134562368D01*
X139503632Y-134355525D01*
X139260411Y-134193010D01*
X138990158Y-134081068D01*
X138703260Y-134024000D01*
X138410740Y-134024000D01*
X138123842Y-134081068D01*
X137853589Y-134193010D01*
X137610368Y-134355525D01*
X137403525Y-134562368D01*
X137287000Y-134736760D01*
X137170475Y-134562368D01*
X136963632Y-134355525D01*
X136720411Y-134193010D01*
X136450158Y-134081068D01*
X136163260Y-134024000D01*
X135870740Y-134024000D01*
X135583842Y-134081068D01*
X135313589Y-134193010D01*
X135070368Y-134355525D01*
X134863525Y-134562368D01*
X134747000Y-134736760D01*
X134630475Y-134562368D01*
X134423632Y-134355525D01*
X134180411Y-134193010D01*
X133910158Y-134081068D01*
X133623260Y-134024000D01*
X133330740Y-134024000D01*
X133043842Y-134081068D01*
X132773589Y-134193010D01*
X132530368Y-134355525D01*
X132323525Y-134562368D01*
X132207000Y-134736760D01*
X132090475Y-134562368D01*
X131883632Y-134355525D01*
X131640411Y-134193010D01*
X131370158Y-134081068D01*
X131083260Y-134024000D01*
X130790740Y-134024000D01*
X130503842Y-134081068D01*
X130233589Y-134193010D01*
X129990368Y-134355525D01*
X129783525Y-134562368D01*
X129667000Y-134736760D01*
X129550475Y-134562368D01*
X129343632Y-134355525D01*
X129100411Y-134193010D01*
X128830158Y-134081068D01*
X128543260Y-134024000D01*
X128250740Y-134024000D01*
X127963842Y-134081068D01*
X127693589Y-134193010D01*
X127450368Y-134355525D01*
X127243525Y-134562368D01*
X127127000Y-134736760D01*
X127010475Y-134562368D01*
X126803632Y-134355525D01*
X126560411Y-134193010D01*
X126290158Y-134081068D01*
X126003260Y-134024000D01*
X125710740Y-134024000D01*
X125423842Y-134081068D01*
X125153589Y-134193010D01*
X124910368Y-134355525D01*
X124703525Y-134562368D01*
X124587000Y-134736760D01*
X124470475Y-134562368D01*
X124263632Y-134355525D01*
X124020411Y-134193010D01*
X123750158Y-134081068D01*
X123463260Y-134024000D01*
X123170740Y-134024000D01*
X122883842Y-134081068D01*
X122613589Y-134193010D01*
X122370368Y-134355525D01*
X122163525Y-134562368D01*
X122047000Y-134736760D01*
X121930475Y-134562368D01*
X121723632Y-134355525D01*
X121480411Y-134193010D01*
X121210158Y-134081068D01*
X120923260Y-134024000D01*
X120630740Y-134024000D01*
X120343842Y-134081068D01*
X120073589Y-134193010D01*
X119830368Y-134355525D01*
X119623525Y-134562368D01*
X119507000Y-134736760D01*
X119390475Y-134562368D01*
X119183632Y-134355525D01*
X118940411Y-134193010D01*
X118670158Y-134081068D01*
X118383260Y-134024000D01*
X118090740Y-134024000D01*
X117803842Y-134081068D01*
X117533589Y-134193010D01*
X117290368Y-134355525D01*
X117083525Y-134562368D01*
X116967000Y-134736760D01*
X116850475Y-134562368D01*
X116643632Y-134355525D01*
X116400411Y-134193010D01*
X116130158Y-134081068D01*
X115843260Y-134024000D01*
X115550740Y-134024000D01*
X115263842Y-134081068D01*
X114993589Y-134193010D01*
X114750368Y-134355525D01*
X114543525Y-134562368D01*
X114427000Y-134736760D01*
X114310475Y-134562368D01*
X114103632Y-134355525D01*
X113860411Y-134193010D01*
X113590158Y-134081068D01*
X113303260Y-134024000D01*
X113010740Y-134024000D01*
X112723842Y-134081068D01*
X112453589Y-134193010D01*
X112210368Y-134355525D01*
X112003525Y-134562368D01*
X111841010Y-134805589D01*
X111729068Y-135075842D01*
X111672000Y-135362740D01*
X90687000Y-135362740D01*
X90687000Y-126223665D01*
X103086000Y-126223665D01*
X103086000Y-126506335D01*
X103141147Y-126783574D01*
X103249320Y-127044727D01*
X103406363Y-127279759D01*
X103606241Y-127479637D01*
X103841273Y-127636680D01*
X104102426Y-127744853D01*
X104379665Y-127800000D01*
X104662335Y-127800000D01*
X104939574Y-127744853D01*
X105200727Y-127636680D01*
X105435759Y-127479637D01*
X105635637Y-127279759D01*
X105763097Y-127089000D01*
X106638928Y-127089000D01*
X106638928Y-128689000D01*
X106651188Y-128813482D01*
X106687498Y-128933180D01*
X106746463Y-129043494D01*
X106825815Y-129140185D01*
X106922506Y-129219537D01*
X107032820Y-129278502D01*
X107152518Y-129314812D01*
X107277000Y-129327072D01*
X108877000Y-129327072D01*
X109001482Y-129314812D01*
X109121180Y-129278502D01*
X109231494Y-129219537D01*
X109328185Y-129140185D01*
X109407537Y-129043494D01*
X109466502Y-128933180D01*
X109502812Y-128813482D01*
X109503643Y-128805039D01*
X109702241Y-129003637D01*
X109937273Y-129160680D01*
X110198426Y-129268853D01*
X110475665Y-129324000D01*
X110758335Y-129324000D01*
X111035574Y-129268853D01*
X111296727Y-129160680D01*
X111531759Y-129003637D01*
X111731637Y-128803759D01*
X111887000Y-128571241D01*
X112042363Y-128803759D01*
X112242241Y-129003637D01*
X112477273Y-129160680D01*
X112738426Y-129268853D01*
X113015665Y-129324000D01*
X113298335Y-129324000D01*
X113575574Y-129268853D01*
X113836727Y-129160680D01*
X114071759Y-129003637D01*
X114271637Y-128803759D01*
X114427000Y-128571241D01*
X114582363Y-128803759D01*
X114782241Y-129003637D01*
X115017273Y-129160680D01*
X115278426Y-129268853D01*
X115555665Y-129324000D01*
X115838335Y-129324000D01*
X116115574Y-129268853D01*
X116376727Y-129160680D01*
X116611759Y-129003637D01*
X116811637Y-128803759D01*
X116967000Y-128571241D01*
X117122363Y-128803759D01*
X117322241Y-129003637D01*
X117557273Y-129160680D01*
X117818426Y-129268853D01*
X118095665Y-129324000D01*
X118378335Y-129324000D01*
X118655574Y-129268853D01*
X118916727Y-129160680D01*
X119151759Y-129003637D01*
X119351637Y-128803759D01*
X119507000Y-128571241D01*
X119662363Y-128803759D01*
X119862241Y-129003637D01*
X120097273Y-129160680D01*
X120358426Y-129268853D01*
X120635665Y-129324000D01*
X120918335Y-129324000D01*
X121195574Y-129268853D01*
X121456727Y-129160680D01*
X121691759Y-129003637D01*
X121891637Y-128803759D01*
X122047000Y-128571241D01*
X122202363Y-128803759D01*
X122402241Y-129003637D01*
X122637273Y-129160680D01*
X122898426Y-129268853D01*
X123175665Y-129324000D01*
X123458335Y-129324000D01*
X123735574Y-129268853D01*
X123996727Y-129160680D01*
X124231759Y-129003637D01*
X124431637Y-128803759D01*
X124587000Y-128571241D01*
X124742363Y-128803759D01*
X124942241Y-129003637D01*
X125177273Y-129160680D01*
X125438426Y-129268853D01*
X125715665Y-129324000D01*
X125998335Y-129324000D01*
X126275574Y-129268853D01*
X126536727Y-129160680D01*
X126771759Y-129003637D01*
X126971637Y-128803759D01*
X127127000Y-128571241D01*
X127282363Y-128803759D01*
X127482241Y-129003637D01*
X127717273Y-129160680D01*
X127978426Y-129268853D01*
X128255665Y-129324000D01*
X128538335Y-129324000D01*
X128815574Y-129268853D01*
X129076727Y-129160680D01*
X129311759Y-129003637D01*
X129511637Y-128803759D01*
X129667000Y-128571241D01*
X129822363Y-128803759D01*
X130022241Y-129003637D01*
X130257273Y-129160680D01*
X130518426Y-129268853D01*
X130795665Y-129324000D01*
X131078335Y-129324000D01*
X131355574Y-129268853D01*
X131616727Y-129160680D01*
X131851759Y-129003637D01*
X132051637Y-128803759D01*
X132208680Y-128568727D01*
X132316853Y-128307574D01*
X132372000Y-128030335D01*
X132372000Y-127747665D01*
X132316853Y-127470426D01*
X132208680Y-127209273D01*
X132051637Y-126974241D01*
X131851759Y-126774363D01*
X131616727Y-126617320D01*
X131355574Y-126509147D01*
X131078335Y-126454000D01*
X130795665Y-126454000D01*
X130518426Y-126509147D01*
X130257273Y-126617320D01*
X130022241Y-126774363D01*
X129822363Y-126974241D01*
X129667000Y-127206759D01*
X129511637Y-126974241D01*
X129311759Y-126774363D01*
X129076727Y-126617320D01*
X128815574Y-126509147D01*
X128538335Y-126454000D01*
X128255665Y-126454000D01*
X127978426Y-126509147D01*
X127717273Y-126617320D01*
X127482241Y-126774363D01*
X127282363Y-126974241D01*
X127127000Y-127206759D01*
X126971637Y-126974241D01*
X126771759Y-126774363D01*
X126536727Y-126617320D01*
X126275574Y-126509147D01*
X125998335Y-126454000D01*
X125715665Y-126454000D01*
X125438426Y-126509147D01*
X125177273Y-126617320D01*
X124942241Y-126774363D01*
X124742363Y-126974241D01*
X124587000Y-127206759D01*
X124431637Y-126974241D01*
X124231759Y-126774363D01*
X123996727Y-126617320D01*
X123735574Y-126509147D01*
X123458335Y-126454000D01*
X123175665Y-126454000D01*
X122898426Y-126509147D01*
X122637273Y-126617320D01*
X122402241Y-126774363D01*
X122202363Y-126974241D01*
X122047000Y-127206759D01*
X121891637Y-126974241D01*
X121691759Y-126774363D01*
X121456727Y-126617320D01*
X121195574Y-126509147D01*
X120918335Y-126454000D01*
X120635665Y-126454000D01*
X120358426Y-126509147D01*
X120097273Y-126617320D01*
X119862241Y-126774363D01*
X119662363Y-126974241D01*
X119507000Y-127206759D01*
X119351637Y-126974241D01*
X119151759Y-126774363D01*
X118916727Y-126617320D01*
X118655574Y-126509147D01*
X118378335Y-126454000D01*
X118095665Y-126454000D01*
X117818426Y-126509147D01*
X117557273Y-126617320D01*
X117322241Y-126774363D01*
X117122363Y-126974241D01*
X116967000Y-127206759D01*
X116811637Y-126974241D01*
X116611759Y-126774363D01*
X116376727Y-126617320D01*
X116115574Y-126509147D01*
X115838335Y-126454000D01*
X115555665Y-126454000D01*
X115278426Y-126509147D01*
X115017273Y-126617320D01*
X114782241Y-126774363D01*
X114582363Y-126974241D01*
X114427000Y-127206759D01*
X114271637Y-126974241D01*
X114071759Y-126774363D01*
X113836727Y-126617320D01*
X113575574Y-126509147D01*
X113298335Y-126454000D01*
X113015665Y-126454000D01*
X112738426Y-126509147D01*
X112477273Y-126617320D01*
X112242241Y-126774363D01*
X112042363Y-126974241D01*
X111887000Y-127206759D01*
X111731637Y-126974241D01*
X111531759Y-126774363D01*
X111296727Y-126617320D01*
X111035574Y-126509147D01*
X110758335Y-126454000D01*
X110475665Y-126454000D01*
X110198426Y-126509147D01*
X109937273Y-126617320D01*
X109702241Y-126774363D01*
X109503643Y-126972961D01*
X109502812Y-126964518D01*
X109466502Y-126844820D01*
X109407537Y-126734506D01*
X109328185Y-126637815D01*
X109231494Y-126558463D01*
X109121180Y-126499498D01*
X109001482Y-126463188D01*
X108877000Y-126450928D01*
X107277000Y-126450928D01*
X107152518Y-126463188D01*
X107032820Y-126499498D01*
X106922506Y-126558463D01*
X106825815Y-126637815D01*
X106746463Y-126734506D01*
X106687498Y-126844820D01*
X106651188Y-126964518D01*
X106638928Y-127089000D01*
X105763097Y-127089000D01*
X105792680Y-127044727D01*
X105900853Y-126783574D01*
X105956000Y-126506335D01*
X105956000Y-126223665D01*
X105900853Y-125946426D01*
X105792680Y-125685273D01*
X105635637Y-125450241D01*
X105435759Y-125250363D01*
X105200727Y-125093320D01*
X104939574Y-124985147D01*
X104662335Y-124930000D01*
X104379665Y-124930000D01*
X104102426Y-124985147D01*
X103841273Y-125093320D01*
X103606241Y-125250363D01*
X103406363Y-125450241D01*
X103249320Y-125685273D01*
X103141147Y-125946426D01*
X103086000Y-126223665D01*
X90687000Y-126223665D01*
X90687000Y-122357702D01*
X103707903Y-122357702D01*
X103779486Y-122601671D01*
X104034996Y-122722571D01*
X104309184Y-122791300D01*
X104591512Y-122805217D01*
X104871130Y-122763787D01*
X105137292Y-122668603D01*
X105262514Y-122601671D01*
X105334097Y-122357702D01*
X104521000Y-121544605D01*
X103707903Y-122357702D01*
X90687000Y-122357702D01*
X90687000Y-121435512D01*
X103080783Y-121435512D01*
X103122213Y-121715130D01*
X103217397Y-121981292D01*
X103284329Y-122106514D01*
X103528298Y-122178097D01*
X104341395Y-121365000D01*
X104700605Y-121365000D01*
X105513702Y-122178097D01*
X105757671Y-122106514D01*
X105878571Y-121851004D01*
X105947300Y-121576816D01*
X105961217Y-121294488D01*
X105919787Y-121014870D01*
X105824603Y-120748708D01*
X105757671Y-120623486D01*
X105739110Y-120618040D01*
X106685091Y-120618040D01*
X106779930Y-120882881D01*
X106924615Y-121124131D01*
X107113586Y-121332519D01*
X107339580Y-121500037D01*
X107593913Y-121620246D01*
X107727961Y-121660904D01*
X107950000Y-121538915D01*
X107950000Y-120396000D01*
X106806376Y-120396000D01*
X106685091Y-120618040D01*
X105739110Y-120618040D01*
X105513702Y-120551903D01*
X104700605Y-121365000D01*
X104341395Y-121365000D01*
X103528298Y-120551903D01*
X103284329Y-120623486D01*
X103163429Y-120878996D01*
X103094700Y-121153184D01*
X103080783Y-121435512D01*
X90687000Y-121435512D01*
X90687000Y-120372298D01*
X103707903Y-120372298D01*
X104521000Y-121185395D01*
X105334097Y-120372298D01*
X105262514Y-120128329D01*
X105007004Y-120007429D01*
X104732816Y-119938700D01*
X104450488Y-119924783D01*
X104170870Y-119966213D01*
X103904708Y-120061397D01*
X103779486Y-120128329D01*
X103707903Y-120372298D01*
X90687000Y-120372298D01*
X90687000Y-119919960D01*
X106685091Y-119919960D01*
X106806376Y-120142000D01*
X107950000Y-120142000D01*
X107950000Y-118999085D01*
X108204000Y-118999085D01*
X108204000Y-120142000D01*
X108224000Y-120142000D01*
X108224000Y-120396000D01*
X108204000Y-120396000D01*
X108204000Y-121538915D01*
X108426039Y-121660904D01*
X108560087Y-121620246D01*
X108814420Y-121500037D01*
X109040414Y-121332519D01*
X109229385Y-121124131D01*
X109340933Y-120938135D01*
X109345320Y-120948727D01*
X109502363Y-121183759D01*
X109702241Y-121383637D01*
X109937273Y-121540680D01*
X110198426Y-121648853D01*
X110475665Y-121704000D01*
X110758335Y-121704000D01*
X111035574Y-121648853D01*
X111296727Y-121540680D01*
X111531759Y-121383637D01*
X111731637Y-121183759D01*
X111887000Y-120951241D01*
X112042363Y-121183759D01*
X112242241Y-121383637D01*
X112477273Y-121540680D01*
X112738426Y-121648853D01*
X113015665Y-121704000D01*
X113298335Y-121704000D01*
X113575574Y-121648853D01*
X113836727Y-121540680D01*
X114071759Y-121383637D01*
X114271637Y-121183759D01*
X114427000Y-120951241D01*
X114582363Y-121183759D01*
X114782241Y-121383637D01*
X115017273Y-121540680D01*
X115278426Y-121648853D01*
X115555665Y-121704000D01*
X115838335Y-121704000D01*
X116115574Y-121648853D01*
X116376727Y-121540680D01*
X116611759Y-121383637D01*
X116811637Y-121183759D01*
X116967000Y-120951241D01*
X117122363Y-121183759D01*
X117322241Y-121383637D01*
X117557273Y-121540680D01*
X117818426Y-121648853D01*
X118095665Y-121704000D01*
X118378335Y-121704000D01*
X118655574Y-121648853D01*
X118916727Y-121540680D01*
X119151759Y-121383637D01*
X119351637Y-121183759D01*
X119507000Y-120951241D01*
X119662363Y-121183759D01*
X119862241Y-121383637D01*
X120097273Y-121540680D01*
X120358426Y-121648853D01*
X120635665Y-121704000D01*
X120918335Y-121704000D01*
X121195574Y-121648853D01*
X121456727Y-121540680D01*
X121691759Y-121383637D01*
X121891637Y-121183759D01*
X122047000Y-120951241D01*
X122202363Y-121183759D01*
X122402241Y-121383637D01*
X122637273Y-121540680D01*
X122898426Y-121648853D01*
X123175665Y-121704000D01*
X123458335Y-121704000D01*
X123735574Y-121648853D01*
X123996727Y-121540680D01*
X124231759Y-121383637D01*
X124431637Y-121183759D01*
X124587000Y-120951241D01*
X124742363Y-121183759D01*
X124942241Y-121383637D01*
X125177273Y-121540680D01*
X125438426Y-121648853D01*
X125715665Y-121704000D01*
X125998335Y-121704000D01*
X126275574Y-121648853D01*
X126536727Y-121540680D01*
X126771759Y-121383637D01*
X126971637Y-121183759D01*
X127127000Y-120951241D01*
X127282363Y-121183759D01*
X127482241Y-121383637D01*
X127717273Y-121540680D01*
X127978426Y-121648853D01*
X128255665Y-121704000D01*
X128538335Y-121704000D01*
X128815574Y-121648853D01*
X129076727Y-121540680D01*
X129311759Y-121383637D01*
X129511637Y-121183759D01*
X129667000Y-120951241D01*
X129822363Y-121183759D01*
X130022241Y-121383637D01*
X130257273Y-121540680D01*
X130518426Y-121648853D01*
X130795665Y-121704000D01*
X131078335Y-121704000D01*
X131355574Y-121648853D01*
X131616727Y-121540680D01*
X131851759Y-121383637D01*
X132051637Y-121183759D01*
X132208680Y-120948727D01*
X132316853Y-120687574D01*
X132372000Y-120410335D01*
X132372000Y-120127665D01*
X132316853Y-119850426D01*
X132208680Y-119589273D01*
X132051637Y-119354241D01*
X131851759Y-119154363D01*
X131616727Y-118997320D01*
X131355574Y-118889147D01*
X131078335Y-118834000D01*
X130795665Y-118834000D01*
X130518426Y-118889147D01*
X130257273Y-118997320D01*
X130022241Y-119154363D01*
X129822363Y-119354241D01*
X129667000Y-119586759D01*
X129511637Y-119354241D01*
X129311759Y-119154363D01*
X129076727Y-118997320D01*
X128815574Y-118889147D01*
X128538335Y-118834000D01*
X128255665Y-118834000D01*
X127978426Y-118889147D01*
X127717273Y-118997320D01*
X127482241Y-119154363D01*
X127282363Y-119354241D01*
X127127000Y-119586759D01*
X126971637Y-119354241D01*
X126771759Y-119154363D01*
X126536727Y-118997320D01*
X126275574Y-118889147D01*
X125998335Y-118834000D01*
X125715665Y-118834000D01*
X125438426Y-118889147D01*
X125177273Y-118997320D01*
X124942241Y-119154363D01*
X124742363Y-119354241D01*
X124587000Y-119586759D01*
X124431637Y-119354241D01*
X124231759Y-119154363D01*
X123996727Y-118997320D01*
X123735574Y-118889147D01*
X123458335Y-118834000D01*
X123175665Y-118834000D01*
X122898426Y-118889147D01*
X122637273Y-118997320D01*
X122402241Y-119154363D01*
X122202363Y-119354241D01*
X122047000Y-119586759D01*
X121891637Y-119354241D01*
X121691759Y-119154363D01*
X121456727Y-118997320D01*
X121195574Y-118889147D01*
X120918335Y-118834000D01*
X120635665Y-118834000D01*
X120358426Y-118889147D01*
X120097273Y-118997320D01*
X119862241Y-119154363D01*
X119662363Y-119354241D01*
X119507000Y-119586759D01*
X119351637Y-119354241D01*
X119151759Y-119154363D01*
X118916727Y-118997320D01*
X118655574Y-118889147D01*
X118378335Y-118834000D01*
X118095665Y-118834000D01*
X117818426Y-118889147D01*
X117557273Y-118997320D01*
X117322241Y-119154363D01*
X117122363Y-119354241D01*
X116967000Y-119586759D01*
X116811637Y-119354241D01*
X116611759Y-119154363D01*
X116376727Y-118997320D01*
X116115574Y-118889147D01*
X115838335Y-118834000D01*
X115555665Y-118834000D01*
X115278426Y-118889147D01*
X115017273Y-118997320D01*
X114782241Y-119154363D01*
X114582363Y-119354241D01*
X114427000Y-119586759D01*
X114271637Y-119354241D01*
X114071759Y-119154363D01*
X113836727Y-118997320D01*
X113575574Y-118889147D01*
X113298335Y-118834000D01*
X113015665Y-118834000D01*
X112738426Y-118889147D01*
X112477273Y-118997320D01*
X112242241Y-119154363D01*
X112042363Y-119354241D01*
X111887000Y-119586759D01*
X111731637Y-119354241D01*
X111531759Y-119154363D01*
X111296727Y-118997320D01*
X111035574Y-118889147D01*
X110758335Y-118834000D01*
X110475665Y-118834000D01*
X110198426Y-118889147D01*
X109937273Y-118997320D01*
X109702241Y-119154363D01*
X109502363Y-119354241D01*
X109345320Y-119589273D01*
X109340933Y-119599865D01*
X109229385Y-119413869D01*
X109040414Y-119205481D01*
X108814420Y-119037963D01*
X108560087Y-118917754D01*
X108426039Y-118877096D01*
X108204000Y-118999085D01*
X107950000Y-118999085D01*
X107727961Y-118877096D01*
X107593913Y-118917754D01*
X107339580Y-119037963D01*
X107113586Y-119205481D01*
X106924615Y-119413869D01*
X106779930Y-119655119D01*
X106685091Y-119919960D01*
X90687000Y-119919960D01*
X90687000Y-88873392D01*
X90758173Y-88075917D01*
X90952658Y-87365000D01*
X123529928Y-87365000D01*
X123529928Y-88965000D01*
X123542188Y-89089482D01*
X123578498Y-89209180D01*
X123637463Y-89319494D01*
X123716815Y-89416185D01*
X123813506Y-89495537D01*
X123923820Y-89554502D01*
X124043518Y-89590812D01*
X124051961Y-89591643D01*
X123853363Y-89790241D01*
X123696320Y-90025273D01*
X123588147Y-90286426D01*
X123533000Y-90563665D01*
X123533000Y-90846335D01*
X123588147Y-91123574D01*
X123696320Y-91384727D01*
X123853363Y-91619759D01*
X124053241Y-91819637D01*
X124285759Y-91975000D01*
X124053241Y-92130363D01*
X123853363Y-92330241D01*
X123696320Y-92565273D01*
X123588147Y-92826426D01*
X123533000Y-93103665D01*
X123533000Y-93386335D01*
X123588147Y-93663574D01*
X123696320Y-93924727D01*
X123853363Y-94159759D01*
X124053241Y-94359637D01*
X124285759Y-94515000D01*
X124053241Y-94670363D01*
X123853363Y-94870241D01*
X123696320Y-95105273D01*
X123588147Y-95366426D01*
X123533000Y-95643665D01*
X123533000Y-95926335D01*
X123588147Y-96203574D01*
X123696320Y-96464727D01*
X123853363Y-96699759D01*
X124053241Y-96899637D01*
X124285759Y-97055000D01*
X124053241Y-97210363D01*
X123853363Y-97410241D01*
X123696320Y-97645273D01*
X123588147Y-97906426D01*
X123533000Y-98183665D01*
X123533000Y-98466335D01*
X123588147Y-98743574D01*
X123696320Y-99004727D01*
X123853363Y-99239759D01*
X124053241Y-99439637D01*
X124285759Y-99595000D01*
X124053241Y-99750363D01*
X123853363Y-99950241D01*
X123696320Y-100185273D01*
X123588147Y-100446426D01*
X123533000Y-100723665D01*
X123533000Y-101006335D01*
X123588147Y-101283574D01*
X123696320Y-101544727D01*
X123853363Y-101779759D01*
X124053241Y-101979637D01*
X124285759Y-102135000D01*
X124053241Y-102290363D01*
X123853363Y-102490241D01*
X123696320Y-102725273D01*
X123588147Y-102986426D01*
X123533000Y-103263665D01*
X123533000Y-103546335D01*
X123588147Y-103823574D01*
X123696320Y-104084727D01*
X123853363Y-104319759D01*
X124053241Y-104519637D01*
X124285759Y-104675000D01*
X124053241Y-104830363D01*
X123853363Y-105030241D01*
X123696320Y-105265273D01*
X123588147Y-105526426D01*
X123533000Y-105803665D01*
X123533000Y-106086335D01*
X123588147Y-106363574D01*
X123696320Y-106624727D01*
X123853363Y-106859759D01*
X124053241Y-107059637D01*
X124285759Y-107215000D01*
X124053241Y-107370363D01*
X123853363Y-107570241D01*
X123696320Y-107805273D01*
X123588147Y-108066426D01*
X123533000Y-108343665D01*
X123533000Y-108626335D01*
X123588147Y-108903574D01*
X123696320Y-109164727D01*
X123853363Y-109399759D01*
X124053241Y-109599637D01*
X124288273Y-109756680D01*
X124549426Y-109864853D01*
X124826665Y-109920000D01*
X125109335Y-109920000D01*
X125386574Y-109864853D01*
X125647727Y-109756680D01*
X125882759Y-109599637D01*
X126082637Y-109399759D01*
X126239680Y-109164727D01*
X126347853Y-108903574D01*
X126403000Y-108626335D01*
X126403000Y-108343665D01*
X126347853Y-108066426D01*
X126239680Y-107805273D01*
X126082637Y-107570241D01*
X125882759Y-107370363D01*
X125650241Y-107215000D01*
X125861764Y-107073665D01*
X139154000Y-107073665D01*
X139154000Y-107356335D01*
X139209147Y-107633574D01*
X139317320Y-107894727D01*
X139474363Y-108129759D01*
X139674241Y-108329637D01*
X139909273Y-108486680D01*
X140170426Y-108594853D01*
X140447665Y-108650000D01*
X140730335Y-108650000D01*
X141007574Y-108594853D01*
X141268727Y-108486680D01*
X141503759Y-108329637D01*
X141703637Y-108129759D01*
X141860680Y-107894727D01*
X141894946Y-107812000D01*
X142706928Y-107812000D01*
X142706928Y-109412000D01*
X142719188Y-109536482D01*
X142755498Y-109656180D01*
X142814463Y-109766494D01*
X142893815Y-109863185D01*
X142990506Y-109942537D01*
X143100820Y-110001502D01*
X143220518Y-110037812D01*
X143345000Y-110050072D01*
X144945000Y-110050072D01*
X145069482Y-110037812D01*
X145189180Y-110001502D01*
X145299494Y-109942537D01*
X145396185Y-109863185D01*
X145475537Y-109766494D01*
X145534502Y-109656180D01*
X145570812Y-109536482D01*
X145571643Y-109528039D01*
X145770241Y-109726637D01*
X146005273Y-109883680D01*
X146266426Y-109991853D01*
X146543665Y-110047000D01*
X146826335Y-110047000D01*
X147103574Y-109991853D01*
X147364727Y-109883680D01*
X147599759Y-109726637D01*
X147799637Y-109526759D01*
X147955000Y-109294241D01*
X148110363Y-109526759D01*
X148310241Y-109726637D01*
X148545273Y-109883680D01*
X148806426Y-109991853D01*
X149083665Y-110047000D01*
X149366335Y-110047000D01*
X149643574Y-109991853D01*
X149904727Y-109883680D01*
X150139759Y-109726637D01*
X150339637Y-109526759D01*
X150495000Y-109294241D01*
X150650363Y-109526759D01*
X150850241Y-109726637D01*
X151085273Y-109883680D01*
X151346426Y-109991853D01*
X151623665Y-110047000D01*
X151906335Y-110047000D01*
X152183574Y-109991853D01*
X152444727Y-109883680D01*
X152679759Y-109726637D01*
X152879637Y-109526759D01*
X153035000Y-109294241D01*
X153190363Y-109526759D01*
X153390241Y-109726637D01*
X153625273Y-109883680D01*
X153886426Y-109991853D01*
X154163665Y-110047000D01*
X154446335Y-110047000D01*
X154723574Y-109991853D01*
X154984727Y-109883680D01*
X155219759Y-109726637D01*
X155419637Y-109526759D01*
X155575000Y-109294241D01*
X155730363Y-109526759D01*
X155930241Y-109726637D01*
X156165273Y-109883680D01*
X156426426Y-109991853D01*
X156703665Y-110047000D01*
X156986335Y-110047000D01*
X157263574Y-109991853D01*
X157524727Y-109883680D01*
X157759759Y-109726637D01*
X157959637Y-109526759D01*
X158115000Y-109294241D01*
X158270363Y-109526759D01*
X158470241Y-109726637D01*
X158705273Y-109883680D01*
X158966426Y-109991853D01*
X159243665Y-110047000D01*
X159526335Y-110047000D01*
X159803574Y-109991853D01*
X160064727Y-109883680D01*
X160299759Y-109726637D01*
X160499637Y-109526759D01*
X160655000Y-109294241D01*
X160810363Y-109526759D01*
X161010241Y-109726637D01*
X161245273Y-109883680D01*
X161506426Y-109991853D01*
X161783665Y-110047000D01*
X162066335Y-110047000D01*
X162343574Y-109991853D01*
X162604727Y-109883680D01*
X162839759Y-109726637D01*
X163039637Y-109526759D01*
X163195000Y-109294241D01*
X163350363Y-109526759D01*
X163550241Y-109726637D01*
X163785273Y-109883680D01*
X164046426Y-109991853D01*
X164323665Y-110047000D01*
X164606335Y-110047000D01*
X164883574Y-109991853D01*
X165144727Y-109883680D01*
X165379759Y-109726637D01*
X165579637Y-109526759D01*
X165735000Y-109294241D01*
X165890363Y-109526759D01*
X166090241Y-109726637D01*
X166325273Y-109883680D01*
X166586426Y-109991853D01*
X166863665Y-110047000D01*
X167146335Y-110047000D01*
X167423574Y-109991853D01*
X167684727Y-109883680D01*
X167919759Y-109726637D01*
X168119637Y-109526759D01*
X168276680Y-109291727D01*
X168384853Y-109030574D01*
X168440000Y-108753335D01*
X168440000Y-108470665D01*
X168384853Y-108193426D01*
X168276680Y-107932273D01*
X168119637Y-107697241D01*
X167919759Y-107497363D01*
X167684727Y-107340320D01*
X167423574Y-107232147D01*
X167146335Y-107177000D01*
X166863665Y-107177000D01*
X166586426Y-107232147D01*
X166325273Y-107340320D01*
X166090241Y-107497363D01*
X165890363Y-107697241D01*
X165735000Y-107929759D01*
X165579637Y-107697241D01*
X165379759Y-107497363D01*
X165144727Y-107340320D01*
X164883574Y-107232147D01*
X164606335Y-107177000D01*
X164323665Y-107177000D01*
X164046426Y-107232147D01*
X163785273Y-107340320D01*
X163550241Y-107497363D01*
X163350363Y-107697241D01*
X163195000Y-107929759D01*
X163039637Y-107697241D01*
X162839759Y-107497363D01*
X162604727Y-107340320D01*
X162343574Y-107232147D01*
X162066335Y-107177000D01*
X161783665Y-107177000D01*
X161506426Y-107232147D01*
X161245273Y-107340320D01*
X161010241Y-107497363D01*
X160810363Y-107697241D01*
X160655000Y-107929759D01*
X160499637Y-107697241D01*
X160299759Y-107497363D01*
X160064727Y-107340320D01*
X159803574Y-107232147D01*
X159526335Y-107177000D01*
X159243665Y-107177000D01*
X158966426Y-107232147D01*
X158705273Y-107340320D01*
X158470241Y-107497363D01*
X158270363Y-107697241D01*
X158115000Y-107929759D01*
X157959637Y-107697241D01*
X157759759Y-107497363D01*
X157524727Y-107340320D01*
X157263574Y-107232147D01*
X156986335Y-107177000D01*
X156703665Y-107177000D01*
X156426426Y-107232147D01*
X156165273Y-107340320D01*
X155930241Y-107497363D01*
X155730363Y-107697241D01*
X155575000Y-107929759D01*
X155419637Y-107697241D01*
X155219759Y-107497363D01*
X154984727Y-107340320D01*
X154723574Y-107232147D01*
X154446335Y-107177000D01*
X154163665Y-107177000D01*
X153886426Y-107232147D01*
X153625273Y-107340320D01*
X153390241Y-107497363D01*
X153190363Y-107697241D01*
X153035000Y-107929759D01*
X152879637Y-107697241D01*
X152679759Y-107497363D01*
X152444727Y-107340320D01*
X152183574Y-107232147D01*
X151906335Y-107177000D01*
X151623665Y-107177000D01*
X151346426Y-107232147D01*
X151085273Y-107340320D01*
X150850241Y-107497363D01*
X150650363Y-107697241D01*
X150495000Y-107929759D01*
X150339637Y-107697241D01*
X150139759Y-107497363D01*
X149904727Y-107340320D01*
X149643574Y-107232147D01*
X149366335Y-107177000D01*
X149083665Y-107177000D01*
X148806426Y-107232147D01*
X148545273Y-107340320D01*
X148310241Y-107497363D01*
X148110363Y-107697241D01*
X147955000Y-107929759D01*
X147799637Y-107697241D01*
X147599759Y-107497363D01*
X147364727Y-107340320D01*
X147103574Y-107232147D01*
X146826335Y-107177000D01*
X146543665Y-107177000D01*
X146266426Y-107232147D01*
X146005273Y-107340320D01*
X145770241Y-107497363D01*
X145571643Y-107695961D01*
X145570812Y-107687518D01*
X145534502Y-107567820D01*
X145475537Y-107457506D01*
X145396185Y-107360815D01*
X145299494Y-107281463D01*
X145189180Y-107222498D01*
X145069482Y-107186188D01*
X144945000Y-107173928D01*
X143345000Y-107173928D01*
X143220518Y-107186188D01*
X143100820Y-107222498D01*
X142990506Y-107281463D01*
X142893815Y-107360815D01*
X142814463Y-107457506D01*
X142755498Y-107567820D01*
X142719188Y-107687518D01*
X142706928Y-107812000D01*
X141894946Y-107812000D01*
X141968853Y-107633574D01*
X142024000Y-107356335D01*
X142024000Y-107073665D01*
X141968853Y-106796426D01*
X141860680Y-106535273D01*
X141703637Y-106300241D01*
X141503759Y-106100363D01*
X141268727Y-105943320D01*
X141007574Y-105835147D01*
X140730335Y-105780000D01*
X140447665Y-105780000D01*
X140170426Y-105835147D01*
X139909273Y-105943320D01*
X139674241Y-106100363D01*
X139474363Y-106300241D01*
X139317320Y-106535273D01*
X139209147Y-106796426D01*
X139154000Y-107073665D01*
X125861764Y-107073665D01*
X125882759Y-107059637D01*
X126082637Y-106859759D01*
X126239680Y-106624727D01*
X126347853Y-106363574D01*
X126403000Y-106086335D01*
X126403000Y-105803665D01*
X126347853Y-105526426D01*
X126239680Y-105265273D01*
X126082637Y-105030241D01*
X125882759Y-104830363D01*
X125650241Y-104675000D01*
X125882759Y-104519637D01*
X126082637Y-104319759D01*
X126239680Y-104084727D01*
X126347853Y-103823574D01*
X126403000Y-103546335D01*
X126403000Y-103263665D01*
X126391869Y-103207702D01*
X139775903Y-103207702D01*
X139847486Y-103451671D01*
X140102996Y-103572571D01*
X140377184Y-103641300D01*
X140659512Y-103655217D01*
X140939130Y-103613787D01*
X141205292Y-103518603D01*
X141330514Y-103451671D01*
X141402097Y-103207702D01*
X140589000Y-102394605D01*
X139775903Y-103207702D01*
X126391869Y-103207702D01*
X126347853Y-102986426D01*
X126239680Y-102725273D01*
X126082637Y-102490241D01*
X125882759Y-102290363D01*
X125875499Y-102285512D01*
X139148783Y-102285512D01*
X139190213Y-102565130D01*
X139285397Y-102831292D01*
X139352329Y-102956514D01*
X139596298Y-103028097D01*
X140409395Y-102215000D01*
X140768605Y-102215000D01*
X141581702Y-103028097D01*
X141825671Y-102956514D01*
X141946571Y-102701004D01*
X142015300Y-102426816D01*
X142029217Y-102144488D01*
X141987787Y-101864870D01*
X141892603Y-101598708D01*
X141825671Y-101473486D01*
X141581702Y-101401903D01*
X140768605Y-102215000D01*
X140409395Y-102215000D01*
X139596298Y-101401903D01*
X139352329Y-101473486D01*
X139231429Y-101728996D01*
X139162700Y-102003184D01*
X139148783Y-102285512D01*
X125875499Y-102285512D01*
X125650241Y-102135000D01*
X125882759Y-101979637D01*
X126082637Y-101779759D01*
X126239680Y-101544727D01*
X126347853Y-101283574D01*
X126360041Y-101222298D01*
X139775903Y-101222298D01*
X140589000Y-102035395D01*
X141283355Y-101341040D01*
X142753091Y-101341040D01*
X142847930Y-101605881D01*
X142992615Y-101847131D01*
X143181586Y-102055519D01*
X143407580Y-102223037D01*
X143661913Y-102343246D01*
X143795961Y-102383904D01*
X144018000Y-102261915D01*
X144018000Y-101119000D01*
X142874376Y-101119000D01*
X142753091Y-101341040D01*
X141283355Y-101341040D01*
X141402097Y-101222298D01*
X141330514Y-100978329D01*
X141075004Y-100857429D01*
X140800816Y-100788700D01*
X140518488Y-100774783D01*
X140238870Y-100816213D01*
X139972708Y-100911397D01*
X139847486Y-100978329D01*
X139775903Y-101222298D01*
X126360041Y-101222298D01*
X126403000Y-101006335D01*
X126403000Y-100723665D01*
X126386947Y-100642960D01*
X142753091Y-100642960D01*
X142874376Y-100865000D01*
X144018000Y-100865000D01*
X144018000Y-99722085D01*
X144272000Y-99722085D01*
X144272000Y-100865000D01*
X144292000Y-100865000D01*
X144292000Y-101119000D01*
X144272000Y-101119000D01*
X144272000Y-102261915D01*
X144494039Y-102383904D01*
X144628087Y-102343246D01*
X144882420Y-102223037D01*
X145108414Y-102055519D01*
X145297385Y-101847131D01*
X145408933Y-101661135D01*
X145413320Y-101671727D01*
X145570363Y-101906759D01*
X145770241Y-102106637D01*
X146005273Y-102263680D01*
X146266426Y-102371853D01*
X146543665Y-102427000D01*
X146826335Y-102427000D01*
X147103574Y-102371853D01*
X147364727Y-102263680D01*
X147599759Y-102106637D01*
X147799637Y-101906759D01*
X147955000Y-101674241D01*
X148110363Y-101906759D01*
X148310241Y-102106637D01*
X148545273Y-102263680D01*
X148806426Y-102371853D01*
X149083665Y-102427000D01*
X149366335Y-102427000D01*
X149643574Y-102371853D01*
X149904727Y-102263680D01*
X150139759Y-102106637D01*
X150339637Y-101906759D01*
X150495000Y-101674241D01*
X150650363Y-101906759D01*
X150850241Y-102106637D01*
X151085273Y-102263680D01*
X151346426Y-102371853D01*
X151623665Y-102427000D01*
X151906335Y-102427000D01*
X152183574Y-102371853D01*
X152444727Y-102263680D01*
X152679759Y-102106637D01*
X152879637Y-101906759D01*
X153035000Y-101674241D01*
X153190363Y-101906759D01*
X153390241Y-102106637D01*
X153625273Y-102263680D01*
X153886426Y-102371853D01*
X154163665Y-102427000D01*
X154446335Y-102427000D01*
X154723574Y-102371853D01*
X154984727Y-102263680D01*
X155219759Y-102106637D01*
X155419637Y-101906759D01*
X155575000Y-101674241D01*
X155730363Y-101906759D01*
X155930241Y-102106637D01*
X156165273Y-102263680D01*
X156426426Y-102371853D01*
X156703665Y-102427000D01*
X156986335Y-102427000D01*
X157263574Y-102371853D01*
X157524727Y-102263680D01*
X157759759Y-102106637D01*
X157959637Y-101906759D01*
X158115000Y-101674241D01*
X158270363Y-101906759D01*
X158470241Y-102106637D01*
X158705273Y-102263680D01*
X158966426Y-102371853D01*
X159243665Y-102427000D01*
X159526335Y-102427000D01*
X159803574Y-102371853D01*
X160064727Y-102263680D01*
X160299759Y-102106637D01*
X160499637Y-101906759D01*
X160655000Y-101674241D01*
X160810363Y-101906759D01*
X161010241Y-102106637D01*
X161245273Y-102263680D01*
X161506426Y-102371853D01*
X161783665Y-102427000D01*
X162066335Y-102427000D01*
X162343574Y-102371853D01*
X162604727Y-102263680D01*
X162839759Y-102106637D01*
X163039637Y-101906759D01*
X163195000Y-101674241D01*
X163350363Y-101906759D01*
X163550241Y-102106637D01*
X163785273Y-102263680D01*
X164046426Y-102371853D01*
X164323665Y-102427000D01*
X164606335Y-102427000D01*
X164883574Y-102371853D01*
X165144727Y-102263680D01*
X165379759Y-102106637D01*
X165579637Y-101906759D01*
X165735000Y-101674241D01*
X165890363Y-101906759D01*
X166090241Y-102106637D01*
X166325273Y-102263680D01*
X166586426Y-102371853D01*
X166863665Y-102427000D01*
X167146335Y-102427000D01*
X167423574Y-102371853D01*
X167684727Y-102263680D01*
X167919759Y-102106637D01*
X168119637Y-101906759D01*
X168276680Y-101671727D01*
X168384853Y-101410574D01*
X168440000Y-101133335D01*
X168440000Y-100850665D01*
X168384853Y-100573426D01*
X168276680Y-100312273D01*
X168119637Y-100077241D01*
X167919759Y-99877363D01*
X167684727Y-99720320D01*
X167423574Y-99612147D01*
X167146335Y-99557000D01*
X166863665Y-99557000D01*
X166586426Y-99612147D01*
X166325273Y-99720320D01*
X166090241Y-99877363D01*
X165890363Y-100077241D01*
X165735000Y-100309759D01*
X165579637Y-100077241D01*
X165379759Y-99877363D01*
X165144727Y-99720320D01*
X164883574Y-99612147D01*
X164606335Y-99557000D01*
X164323665Y-99557000D01*
X164046426Y-99612147D01*
X163785273Y-99720320D01*
X163550241Y-99877363D01*
X163350363Y-100077241D01*
X163195000Y-100309759D01*
X163039637Y-100077241D01*
X162839759Y-99877363D01*
X162604727Y-99720320D01*
X162343574Y-99612147D01*
X162066335Y-99557000D01*
X161783665Y-99557000D01*
X161506426Y-99612147D01*
X161245273Y-99720320D01*
X161010241Y-99877363D01*
X160810363Y-100077241D01*
X160655000Y-100309759D01*
X160499637Y-100077241D01*
X160299759Y-99877363D01*
X160064727Y-99720320D01*
X159803574Y-99612147D01*
X159526335Y-99557000D01*
X159243665Y-99557000D01*
X158966426Y-99612147D01*
X158705273Y-99720320D01*
X158470241Y-99877363D01*
X158270363Y-100077241D01*
X158115000Y-100309759D01*
X157959637Y-100077241D01*
X157759759Y-99877363D01*
X157524727Y-99720320D01*
X157263574Y-99612147D01*
X156986335Y-99557000D01*
X156703665Y-99557000D01*
X156426426Y-99612147D01*
X156165273Y-99720320D01*
X155930241Y-99877363D01*
X155730363Y-100077241D01*
X155575000Y-100309759D01*
X155419637Y-100077241D01*
X155219759Y-99877363D01*
X154984727Y-99720320D01*
X154723574Y-99612147D01*
X154446335Y-99557000D01*
X154163665Y-99557000D01*
X153886426Y-99612147D01*
X153625273Y-99720320D01*
X153390241Y-99877363D01*
X153190363Y-100077241D01*
X153035000Y-100309759D01*
X152879637Y-100077241D01*
X152679759Y-99877363D01*
X152444727Y-99720320D01*
X152183574Y-99612147D01*
X151906335Y-99557000D01*
X151623665Y-99557000D01*
X151346426Y-99612147D01*
X151085273Y-99720320D01*
X150850241Y-99877363D01*
X150650363Y-100077241D01*
X150495000Y-100309759D01*
X150339637Y-100077241D01*
X150139759Y-99877363D01*
X149904727Y-99720320D01*
X149643574Y-99612147D01*
X149366335Y-99557000D01*
X149083665Y-99557000D01*
X148806426Y-99612147D01*
X148545273Y-99720320D01*
X148310241Y-99877363D01*
X148110363Y-100077241D01*
X147955000Y-100309759D01*
X147799637Y-100077241D01*
X147599759Y-99877363D01*
X147364727Y-99720320D01*
X147103574Y-99612147D01*
X146826335Y-99557000D01*
X146543665Y-99557000D01*
X146266426Y-99612147D01*
X146005273Y-99720320D01*
X145770241Y-99877363D01*
X145570363Y-100077241D01*
X145413320Y-100312273D01*
X145408933Y-100322865D01*
X145297385Y-100136869D01*
X145108414Y-99928481D01*
X144882420Y-99760963D01*
X144628087Y-99640754D01*
X144494039Y-99600096D01*
X144272000Y-99722085D01*
X144018000Y-99722085D01*
X143795961Y-99600096D01*
X143661913Y-99640754D01*
X143407580Y-99760963D01*
X143181586Y-99928481D01*
X142992615Y-100136869D01*
X142847930Y-100378119D01*
X142753091Y-100642960D01*
X126386947Y-100642960D01*
X126347853Y-100446426D01*
X126239680Y-100185273D01*
X126082637Y-99950241D01*
X125882759Y-99750363D01*
X125650241Y-99595000D01*
X125882759Y-99439637D01*
X126082637Y-99239759D01*
X126239680Y-99004727D01*
X126347853Y-98743574D01*
X126403000Y-98466335D01*
X126403000Y-98183665D01*
X126347853Y-97906426D01*
X126239680Y-97645273D01*
X126082637Y-97410241D01*
X125882759Y-97210363D01*
X125650241Y-97055000D01*
X125882759Y-96899637D01*
X126082637Y-96699759D01*
X126239680Y-96464727D01*
X126347853Y-96203574D01*
X126403000Y-95926335D01*
X126403000Y-95643665D01*
X126347853Y-95366426D01*
X126239680Y-95105273D01*
X126082637Y-94870241D01*
X125882759Y-94670363D01*
X125650241Y-94515000D01*
X125882759Y-94359637D01*
X126082637Y-94159759D01*
X126239680Y-93924727D01*
X126347853Y-93663574D01*
X126403000Y-93386335D01*
X126403000Y-93103665D01*
X126347853Y-92826426D01*
X126239680Y-92565273D01*
X126082637Y-92330241D01*
X125882759Y-92130363D01*
X125650241Y-91975000D01*
X125882759Y-91819637D01*
X126082637Y-91619759D01*
X126239680Y-91384727D01*
X126347853Y-91123574D01*
X126403000Y-90846335D01*
X126403000Y-90563665D01*
X126347853Y-90286426D01*
X126239680Y-90025273D01*
X126082637Y-89790241D01*
X125884039Y-89591643D01*
X125892482Y-89590812D01*
X126012180Y-89554502D01*
X126043396Y-89537816D01*
X127116000Y-89537816D01*
X127116000Y-89840184D01*
X127174989Y-90136743D01*
X127290701Y-90416095D01*
X127458688Y-90667505D01*
X127672495Y-90881312D01*
X127923905Y-91049299D01*
X128203257Y-91165011D01*
X128499816Y-91224000D01*
X128802184Y-91224000D01*
X129098743Y-91165011D01*
X129378095Y-91049299D01*
X129629505Y-90881312D01*
X129695944Y-90814873D01*
X129701498Y-90833180D01*
X129760463Y-90943494D01*
X129839815Y-91040185D01*
X129936506Y-91119537D01*
X130046820Y-91178502D01*
X130166518Y-91214812D01*
X130291000Y-91227072D01*
X132091000Y-91227072D01*
X132215482Y-91214812D01*
X132335180Y-91178502D01*
X132445494Y-91119537D01*
X132542185Y-91040185D01*
X132621537Y-90943494D01*
X132680502Y-90833180D01*
X132716812Y-90713482D01*
X132729072Y-90589000D01*
X132729072Y-89537816D01*
X133466000Y-89537816D01*
X133466000Y-89840184D01*
X133524989Y-90136743D01*
X133640701Y-90416095D01*
X133808688Y-90667505D01*
X134022495Y-90881312D01*
X134273905Y-91049299D01*
X134553257Y-91165011D01*
X134849816Y-91224000D01*
X135152184Y-91224000D01*
X135448743Y-91165011D01*
X135728095Y-91049299D01*
X135979505Y-90881312D01*
X136045944Y-90814873D01*
X136051498Y-90833180D01*
X136110463Y-90943494D01*
X136189815Y-91040185D01*
X136286506Y-91119537D01*
X136396820Y-91178502D01*
X136516518Y-91214812D01*
X136641000Y-91227072D01*
X138441000Y-91227072D01*
X138565482Y-91214812D01*
X138685180Y-91178502D01*
X138795494Y-91119537D01*
X138892185Y-91040185D01*
X138971537Y-90943494D01*
X139030502Y-90833180D01*
X139066812Y-90713482D01*
X139079072Y-90589000D01*
X139079072Y-89537816D01*
X139816000Y-89537816D01*
X139816000Y-89840184D01*
X139874989Y-90136743D01*
X139990701Y-90416095D01*
X140158688Y-90667505D01*
X140372495Y-90881312D01*
X140623905Y-91049299D01*
X140903257Y-91165011D01*
X141199816Y-91224000D01*
X141502184Y-91224000D01*
X141798743Y-91165011D01*
X142078095Y-91049299D01*
X142329505Y-90881312D01*
X142395944Y-90814873D01*
X142401498Y-90833180D01*
X142460463Y-90943494D01*
X142539815Y-91040185D01*
X142636506Y-91119537D01*
X142746820Y-91178502D01*
X142866518Y-91214812D01*
X142991000Y-91227072D01*
X144791000Y-91227072D01*
X144915482Y-91214812D01*
X145035180Y-91178502D01*
X145145494Y-91119537D01*
X145242185Y-91040185D01*
X145321537Y-90943494D01*
X145380502Y-90833180D01*
X145416812Y-90713482D01*
X145429072Y-90589000D01*
X145429072Y-89537816D01*
X146166000Y-89537816D01*
X146166000Y-89840184D01*
X146224989Y-90136743D01*
X146340701Y-90416095D01*
X146508688Y-90667505D01*
X146722495Y-90881312D01*
X146973905Y-91049299D01*
X147253257Y-91165011D01*
X147549816Y-91224000D01*
X147852184Y-91224000D01*
X148148743Y-91165011D01*
X148428095Y-91049299D01*
X148679505Y-90881312D01*
X148745944Y-90814873D01*
X148751498Y-90833180D01*
X148810463Y-90943494D01*
X148889815Y-91040185D01*
X148986506Y-91119537D01*
X149096820Y-91178502D01*
X149216518Y-91214812D01*
X149341000Y-91227072D01*
X151141000Y-91227072D01*
X151265482Y-91214812D01*
X151385180Y-91178502D01*
X151495494Y-91119537D01*
X151592185Y-91040185D01*
X151671537Y-90943494D01*
X151730502Y-90833180D01*
X151766812Y-90713482D01*
X151779072Y-90589000D01*
X151779072Y-89537816D01*
X153151000Y-89537816D01*
X153151000Y-89840184D01*
X153209989Y-90136743D01*
X153325701Y-90416095D01*
X153493688Y-90667505D01*
X153707495Y-90881312D01*
X153958905Y-91049299D01*
X154238257Y-91165011D01*
X154534816Y-91224000D01*
X154837184Y-91224000D01*
X155133743Y-91165011D01*
X155413095Y-91049299D01*
X155664505Y-90881312D01*
X155730944Y-90814873D01*
X155736498Y-90833180D01*
X155795463Y-90943494D01*
X155874815Y-91040185D01*
X155971506Y-91119537D01*
X156081820Y-91178502D01*
X156201518Y-91214812D01*
X156326000Y-91227072D01*
X158126000Y-91227072D01*
X158250482Y-91214812D01*
X158370180Y-91178502D01*
X158480494Y-91119537D01*
X158577185Y-91040185D01*
X158656537Y-90943494D01*
X158715502Y-90833180D01*
X158751812Y-90713482D01*
X158764072Y-90589000D01*
X158764072Y-89537816D01*
X159501000Y-89537816D01*
X159501000Y-89840184D01*
X159559989Y-90136743D01*
X159675701Y-90416095D01*
X159843688Y-90667505D01*
X160057495Y-90881312D01*
X160308905Y-91049299D01*
X160588257Y-91165011D01*
X160884816Y-91224000D01*
X161187184Y-91224000D01*
X161483743Y-91165011D01*
X161763095Y-91049299D01*
X162014505Y-90881312D01*
X162080944Y-90814873D01*
X162086498Y-90833180D01*
X162145463Y-90943494D01*
X162224815Y-91040185D01*
X162321506Y-91119537D01*
X162431820Y-91178502D01*
X162551518Y-91214812D01*
X162676000Y-91227072D01*
X164476000Y-91227072D01*
X164600482Y-91214812D01*
X164720180Y-91178502D01*
X164830494Y-91119537D01*
X164927185Y-91040185D01*
X165006537Y-90943494D01*
X165065502Y-90833180D01*
X165101812Y-90713482D01*
X165114072Y-90589000D01*
X165114072Y-89537816D01*
X165851000Y-89537816D01*
X165851000Y-89840184D01*
X165909989Y-90136743D01*
X166025701Y-90416095D01*
X166193688Y-90667505D01*
X166407495Y-90881312D01*
X166658905Y-91049299D01*
X166938257Y-91165011D01*
X167234816Y-91224000D01*
X167537184Y-91224000D01*
X167833743Y-91165011D01*
X168113095Y-91049299D01*
X168364505Y-90881312D01*
X168430944Y-90814873D01*
X168436498Y-90833180D01*
X168495463Y-90943494D01*
X168574815Y-91040185D01*
X168671506Y-91119537D01*
X168781820Y-91178502D01*
X168901518Y-91214812D01*
X169026000Y-91227072D01*
X170826000Y-91227072D01*
X170950482Y-91214812D01*
X171070180Y-91178502D01*
X171180494Y-91119537D01*
X171277185Y-91040185D01*
X171356537Y-90943494D01*
X171415502Y-90833180D01*
X171451812Y-90713482D01*
X171464072Y-90589000D01*
X171464072Y-89537816D01*
X172201000Y-89537816D01*
X172201000Y-89840184D01*
X172259989Y-90136743D01*
X172375701Y-90416095D01*
X172543688Y-90667505D01*
X172757495Y-90881312D01*
X173008905Y-91049299D01*
X173288257Y-91165011D01*
X173584816Y-91224000D01*
X173887184Y-91224000D01*
X174183743Y-91165011D01*
X174463095Y-91049299D01*
X174714505Y-90881312D01*
X174780944Y-90814873D01*
X174786498Y-90833180D01*
X174845463Y-90943494D01*
X174924815Y-91040185D01*
X175021506Y-91119537D01*
X175131820Y-91178502D01*
X175251518Y-91214812D01*
X175376000Y-91227072D01*
X177176000Y-91227072D01*
X177300482Y-91214812D01*
X177420180Y-91178502D01*
X177530494Y-91119537D01*
X177627185Y-91040185D01*
X177706537Y-90943494D01*
X177765502Y-90833180D01*
X177801812Y-90713482D01*
X177814072Y-90589000D01*
X177814072Y-88789000D01*
X177801812Y-88664518D01*
X177765502Y-88544820D01*
X177706537Y-88434506D01*
X177627185Y-88337815D01*
X177530494Y-88258463D01*
X177420180Y-88199498D01*
X177300482Y-88163188D01*
X177176000Y-88150928D01*
X175376000Y-88150928D01*
X175251518Y-88163188D01*
X175131820Y-88199498D01*
X175021506Y-88258463D01*
X174924815Y-88337815D01*
X174845463Y-88434506D01*
X174786498Y-88544820D01*
X174780944Y-88563127D01*
X174714505Y-88496688D01*
X174463095Y-88328701D01*
X174183743Y-88212989D01*
X173887184Y-88154000D01*
X173584816Y-88154000D01*
X173288257Y-88212989D01*
X173008905Y-88328701D01*
X172757495Y-88496688D01*
X172543688Y-88710495D01*
X172375701Y-88961905D01*
X172259989Y-89241257D01*
X172201000Y-89537816D01*
X171464072Y-89537816D01*
X171464072Y-88789000D01*
X171451812Y-88664518D01*
X171415502Y-88544820D01*
X171356537Y-88434506D01*
X171277185Y-88337815D01*
X171180494Y-88258463D01*
X171070180Y-88199498D01*
X170950482Y-88163188D01*
X170826000Y-88150928D01*
X169026000Y-88150928D01*
X168901518Y-88163188D01*
X168781820Y-88199498D01*
X168671506Y-88258463D01*
X168574815Y-88337815D01*
X168495463Y-88434506D01*
X168436498Y-88544820D01*
X168430944Y-88563127D01*
X168364505Y-88496688D01*
X168113095Y-88328701D01*
X167833743Y-88212989D01*
X167537184Y-88154000D01*
X167234816Y-88154000D01*
X166938257Y-88212989D01*
X166658905Y-88328701D01*
X166407495Y-88496688D01*
X166193688Y-88710495D01*
X166025701Y-88961905D01*
X165909989Y-89241257D01*
X165851000Y-89537816D01*
X165114072Y-89537816D01*
X165114072Y-88789000D01*
X165101812Y-88664518D01*
X165065502Y-88544820D01*
X165006537Y-88434506D01*
X164927185Y-88337815D01*
X164830494Y-88258463D01*
X164720180Y-88199498D01*
X164600482Y-88163188D01*
X164476000Y-88150928D01*
X162676000Y-88150928D01*
X162551518Y-88163188D01*
X162431820Y-88199498D01*
X162321506Y-88258463D01*
X162224815Y-88337815D01*
X162145463Y-88434506D01*
X162086498Y-88544820D01*
X162080944Y-88563127D01*
X162014505Y-88496688D01*
X161763095Y-88328701D01*
X161483743Y-88212989D01*
X161187184Y-88154000D01*
X160884816Y-88154000D01*
X160588257Y-88212989D01*
X160308905Y-88328701D01*
X160057495Y-88496688D01*
X159843688Y-88710495D01*
X159675701Y-88961905D01*
X159559989Y-89241257D01*
X159501000Y-89537816D01*
X158764072Y-89537816D01*
X158764072Y-88789000D01*
X158751812Y-88664518D01*
X158715502Y-88544820D01*
X158656537Y-88434506D01*
X158577185Y-88337815D01*
X158480494Y-88258463D01*
X158370180Y-88199498D01*
X158250482Y-88163188D01*
X158126000Y-88150928D01*
X156326000Y-88150928D01*
X156201518Y-88163188D01*
X156081820Y-88199498D01*
X155971506Y-88258463D01*
X155874815Y-88337815D01*
X155795463Y-88434506D01*
X155736498Y-88544820D01*
X155730944Y-88563127D01*
X155664505Y-88496688D01*
X155413095Y-88328701D01*
X155133743Y-88212989D01*
X154837184Y-88154000D01*
X154534816Y-88154000D01*
X154238257Y-88212989D01*
X153958905Y-88328701D01*
X153707495Y-88496688D01*
X153493688Y-88710495D01*
X153325701Y-88961905D01*
X153209989Y-89241257D01*
X153151000Y-89537816D01*
X151779072Y-89537816D01*
X151779072Y-88789000D01*
X151766812Y-88664518D01*
X151730502Y-88544820D01*
X151671537Y-88434506D01*
X151592185Y-88337815D01*
X151495494Y-88258463D01*
X151385180Y-88199498D01*
X151265482Y-88163188D01*
X151141000Y-88150928D01*
X149341000Y-88150928D01*
X149216518Y-88163188D01*
X149096820Y-88199498D01*
X148986506Y-88258463D01*
X148889815Y-88337815D01*
X148810463Y-88434506D01*
X148751498Y-88544820D01*
X148745944Y-88563127D01*
X148679505Y-88496688D01*
X148428095Y-88328701D01*
X148148743Y-88212989D01*
X147852184Y-88154000D01*
X147549816Y-88154000D01*
X147253257Y-88212989D01*
X146973905Y-88328701D01*
X146722495Y-88496688D01*
X146508688Y-88710495D01*
X146340701Y-88961905D01*
X146224989Y-89241257D01*
X146166000Y-89537816D01*
X145429072Y-89537816D01*
X145429072Y-88789000D01*
X145416812Y-88664518D01*
X145380502Y-88544820D01*
X145321537Y-88434506D01*
X145242185Y-88337815D01*
X145145494Y-88258463D01*
X145035180Y-88199498D01*
X144915482Y-88163188D01*
X144791000Y-88150928D01*
X142991000Y-88150928D01*
X142866518Y-88163188D01*
X142746820Y-88199498D01*
X142636506Y-88258463D01*
X142539815Y-88337815D01*
X142460463Y-88434506D01*
X142401498Y-88544820D01*
X142395944Y-88563127D01*
X142329505Y-88496688D01*
X142078095Y-88328701D01*
X141798743Y-88212989D01*
X141502184Y-88154000D01*
X141199816Y-88154000D01*
X140903257Y-88212989D01*
X140623905Y-88328701D01*
X140372495Y-88496688D01*
X140158688Y-88710495D01*
X139990701Y-88961905D01*
X139874989Y-89241257D01*
X139816000Y-89537816D01*
X139079072Y-89537816D01*
X139079072Y-88789000D01*
X139066812Y-88664518D01*
X139030502Y-88544820D01*
X138971537Y-88434506D01*
X138892185Y-88337815D01*
X138795494Y-88258463D01*
X138685180Y-88199498D01*
X138565482Y-88163188D01*
X138441000Y-88150928D01*
X136641000Y-88150928D01*
X136516518Y-88163188D01*
X136396820Y-88199498D01*
X136286506Y-88258463D01*
X136189815Y-88337815D01*
X136110463Y-88434506D01*
X136051498Y-88544820D01*
X136045944Y-88563127D01*
X135979505Y-88496688D01*
X135728095Y-88328701D01*
X135448743Y-88212989D01*
X135152184Y-88154000D01*
X134849816Y-88154000D01*
X134553257Y-88212989D01*
X134273905Y-88328701D01*
X134022495Y-88496688D01*
X133808688Y-88710495D01*
X133640701Y-88961905D01*
X133524989Y-89241257D01*
X133466000Y-89537816D01*
X132729072Y-89537816D01*
X132729072Y-88789000D01*
X132716812Y-88664518D01*
X132680502Y-88544820D01*
X132621537Y-88434506D01*
X132542185Y-88337815D01*
X132445494Y-88258463D01*
X132335180Y-88199498D01*
X132215482Y-88163188D01*
X132091000Y-88150928D01*
X130291000Y-88150928D01*
X130166518Y-88163188D01*
X130046820Y-88199498D01*
X129936506Y-88258463D01*
X129839815Y-88337815D01*
X129760463Y-88434506D01*
X129701498Y-88544820D01*
X129695944Y-88563127D01*
X129629505Y-88496688D01*
X129378095Y-88328701D01*
X129098743Y-88212989D01*
X128802184Y-88154000D01*
X128499816Y-88154000D01*
X128203257Y-88212989D01*
X127923905Y-88328701D01*
X127672495Y-88496688D01*
X127458688Y-88710495D01*
X127290701Y-88961905D01*
X127174989Y-89241257D01*
X127116000Y-89537816D01*
X126043396Y-89537816D01*
X126122494Y-89495537D01*
X126219185Y-89416185D01*
X126298537Y-89319494D01*
X126357502Y-89209180D01*
X126393812Y-89089482D01*
X126406072Y-88965000D01*
X126406072Y-87365000D01*
X126393812Y-87240518D01*
X126357502Y-87120820D01*
X126298537Y-87010506D01*
X126219185Y-86913815D01*
X126122494Y-86834463D01*
X126012180Y-86775498D01*
X125892482Y-86739188D01*
X125768000Y-86726928D01*
X124168000Y-86726928D01*
X124043518Y-86739188D01*
X123923820Y-86775498D01*
X123813506Y-86834463D01*
X123716815Y-86913815D01*
X123637463Y-87010506D01*
X123578498Y-87120820D01*
X123542188Y-87240518D01*
X123529928Y-87365000D01*
X90952658Y-87365000D01*
X90961656Y-87332109D01*
X91293638Y-86636095D01*
X91743626Y-86009870D01*
X92297403Y-85473223D01*
X92937451Y-85043129D01*
X93643553Y-84733171D01*
X94398457Y-84551935D01*
X95051207Y-84504000D01*
X209997608Y-84504000D01*
X210795083Y-84575173D01*
M02*
