G04 #@! TF.GenerationSoftware,KiCad,Pcbnew,5.1.6-c6e7f7d~87~ubuntu18.04.1*
G04 #@! TF.CreationDate,2020-09-06T16:42:54+12:00*
G04 #@! TF.ProjectId,M1 Temp Register,4d312054-656d-4702-9052-656769737465,rev?*
G04 #@! TF.SameCoordinates,Original*
G04 #@! TF.FileFunction,Legend,Top*
G04 #@! TF.FilePolarity,Positive*
%FSLAX46Y46*%
G04 Gerber Fmt 4.6, Leading zero omitted, Abs format (unit mm)*
G04 Created by KiCad (PCBNEW 5.1.6-c6e7f7d~87~ubuntu18.04.1) date 2020-09-06 16:42:54*
%MOMM*%
%LPD*%
G01*
G04 APERTURE LIST*
%ADD10C,0.300000*%
%ADD11C,0.500000*%
%ADD12C,0.120000*%
%ADD13C,0.150000*%
G04 APERTURE END LIST*
D10*
X211430571Y-147402857D02*
X209930571Y-147402857D01*
X211002000Y-146902857D01*
X209930571Y-146402857D01*
X211430571Y-146402857D01*
X211430571Y-144902857D02*
X211430571Y-145760000D01*
X211430571Y-145331428D02*
X209930571Y-145331428D01*
X210144857Y-145474285D01*
X210287714Y-145617142D01*
X210359142Y-145760000D01*
X210859142Y-143117142D02*
X210859142Y-141974285D01*
X209930571Y-140331428D02*
X209930571Y-139474285D01*
X211430571Y-139902857D02*
X209930571Y-139902857D01*
X211359142Y-138402857D02*
X211430571Y-138545714D01*
X211430571Y-138831428D01*
X211359142Y-138974285D01*
X211216285Y-139045714D01*
X210644857Y-139045714D01*
X210502000Y-138974285D01*
X210430571Y-138831428D01*
X210430571Y-138545714D01*
X210502000Y-138402857D01*
X210644857Y-138331428D01*
X210787714Y-138331428D01*
X210930571Y-139045714D01*
X211430571Y-137688571D02*
X210430571Y-137688571D01*
X210573428Y-137688571D02*
X210502000Y-137617142D01*
X210430571Y-137474285D01*
X210430571Y-137260000D01*
X210502000Y-137117142D01*
X210644857Y-137045714D01*
X211430571Y-137045714D01*
X210644857Y-137045714D02*
X210502000Y-136974285D01*
X210430571Y-136831428D01*
X210430571Y-136617142D01*
X210502000Y-136474285D01*
X210644857Y-136402857D01*
X211430571Y-136402857D01*
X210430571Y-135688571D02*
X211930571Y-135688571D01*
X210502000Y-135688571D02*
X210430571Y-135545714D01*
X210430571Y-135260000D01*
X210502000Y-135117142D01*
X210573428Y-135045714D01*
X210716285Y-134974285D01*
X211144857Y-134974285D01*
X211287714Y-135045714D01*
X211359142Y-135117142D01*
X211430571Y-135260000D01*
X211430571Y-135545714D01*
X211359142Y-135688571D01*
X211430571Y-132331428D02*
X210716285Y-132831428D01*
X211430571Y-133188571D02*
X209930571Y-133188571D01*
X209930571Y-132617142D01*
X210002000Y-132474285D01*
X210073428Y-132402857D01*
X210216285Y-132331428D01*
X210430571Y-132331428D01*
X210573428Y-132402857D01*
X210644857Y-132474285D01*
X210716285Y-132617142D01*
X210716285Y-133188571D01*
X211359142Y-131117142D02*
X211430571Y-131260000D01*
X211430571Y-131545714D01*
X211359142Y-131688571D01*
X211216285Y-131760000D01*
X210644857Y-131760000D01*
X210502000Y-131688571D01*
X210430571Y-131545714D01*
X210430571Y-131260000D01*
X210502000Y-131117142D01*
X210644857Y-131045714D01*
X210787714Y-131045714D01*
X210930571Y-131760000D01*
X210430571Y-129760000D02*
X211644857Y-129760000D01*
X211787714Y-129831428D01*
X211859142Y-129902857D01*
X211930571Y-130045714D01*
X211930571Y-130260000D01*
X211859142Y-130402857D01*
X211359142Y-129760000D02*
X211430571Y-129902857D01*
X211430571Y-130188571D01*
X211359142Y-130331428D01*
X211287714Y-130402857D01*
X211144857Y-130474285D01*
X210716285Y-130474285D01*
X210573428Y-130402857D01*
X210502000Y-130331428D01*
X210430571Y-130188571D01*
X210430571Y-129902857D01*
X210502000Y-129760000D01*
X211430571Y-129045714D02*
X210430571Y-129045714D01*
X209930571Y-129045714D02*
X210002000Y-129117142D01*
X210073428Y-129045714D01*
X210002000Y-128974285D01*
X209930571Y-129045714D01*
X210073428Y-129045714D01*
X211359142Y-128402857D02*
X211430571Y-128260000D01*
X211430571Y-127974285D01*
X211359142Y-127831428D01*
X211216285Y-127760000D01*
X211144857Y-127760000D01*
X211002000Y-127831428D01*
X210930571Y-127974285D01*
X210930571Y-128188571D01*
X210859142Y-128331428D01*
X210716285Y-128402857D01*
X210644857Y-128402857D01*
X210502000Y-128331428D01*
X210430571Y-128188571D01*
X210430571Y-127974285D01*
X210502000Y-127831428D01*
X210430571Y-127331428D02*
X210430571Y-126760000D01*
X209930571Y-127117142D02*
X211216285Y-127117142D01*
X211359142Y-127045714D01*
X211430571Y-126902857D01*
X211430571Y-126760000D01*
X211359142Y-125688571D02*
X211430571Y-125831428D01*
X211430571Y-126117142D01*
X211359142Y-126260000D01*
X211216285Y-126331428D01*
X210644857Y-126331428D01*
X210502000Y-126260000D01*
X210430571Y-126117142D01*
X210430571Y-125831428D01*
X210502000Y-125688571D01*
X210644857Y-125617142D01*
X210787714Y-125617142D01*
X210930571Y-126331428D01*
X211430571Y-124974285D02*
X210430571Y-124974285D01*
X210716285Y-124974285D02*
X210573428Y-124902857D01*
X210502000Y-124831428D01*
X210430571Y-124688571D01*
X210430571Y-124545714D01*
X213980571Y-146545714D02*
X213266285Y-147045714D01*
X213980571Y-147402857D02*
X212480571Y-147402857D01*
X212480571Y-146831428D01*
X212552000Y-146688571D01*
X212623428Y-146617142D01*
X212766285Y-146545714D01*
X212980571Y-146545714D01*
X213123428Y-146617142D01*
X213194857Y-146688571D01*
X213266285Y-146831428D01*
X213266285Y-147402857D01*
X213909142Y-145331428D02*
X213980571Y-145474285D01*
X213980571Y-145760000D01*
X213909142Y-145902857D01*
X213766285Y-145974285D01*
X213194857Y-145974285D01*
X213052000Y-145902857D01*
X212980571Y-145760000D01*
X212980571Y-145474285D01*
X213052000Y-145331428D01*
X213194857Y-145260000D01*
X213337714Y-145260000D01*
X213480571Y-145974285D01*
X212980571Y-144760000D02*
X213980571Y-144402857D01*
X212980571Y-144045714D01*
X213552000Y-142402857D02*
X213552000Y-141688571D01*
X213980571Y-142545714D02*
X212480571Y-142045714D01*
X213980571Y-141545714D01*
X213552000Y-139974285D02*
X213552000Y-139260000D01*
X213980571Y-140117142D02*
X212480571Y-139617142D01*
X213980571Y-139117142D01*
X212480571Y-138188571D02*
X213552000Y-138188571D01*
X213766285Y-138260000D01*
X213909142Y-138402857D01*
X213980571Y-138617142D01*
X213980571Y-138760000D01*
X213909142Y-137545714D02*
X213980571Y-137331428D01*
X213980571Y-136974285D01*
X213909142Y-136831428D01*
X213837714Y-136760000D01*
X213694857Y-136688571D01*
X213552000Y-136688571D01*
X213409142Y-136760000D01*
X213337714Y-136831428D01*
X213266285Y-136974285D01*
X213194857Y-137260000D01*
X213123428Y-137402857D01*
X213052000Y-137474285D01*
X212909142Y-137545714D01*
X212766285Y-137545714D01*
X212623428Y-137474285D01*
X212552000Y-137402857D01*
X212480571Y-137260000D01*
X212480571Y-136902857D01*
X212552000Y-136688571D01*
X212480571Y-134617142D02*
X212480571Y-134474285D01*
X212552000Y-134331428D01*
X212623428Y-134260000D01*
X212766285Y-134188571D01*
X213052000Y-134117142D01*
X213409142Y-134117142D01*
X213694857Y-134188571D01*
X213837714Y-134260000D01*
X213909142Y-134331428D01*
X213980571Y-134474285D01*
X213980571Y-134617142D01*
X213909142Y-134760000D01*
X213837714Y-134831428D01*
X213694857Y-134902857D01*
X213409142Y-134974285D01*
X213052000Y-134974285D01*
X212766285Y-134902857D01*
X212623428Y-134831428D01*
X212552000Y-134760000D01*
X212480571Y-134617142D01*
X213123428Y-133260000D02*
X213052000Y-133402857D01*
X212980571Y-133474285D01*
X212837714Y-133545714D01*
X212766285Y-133545714D01*
X212623428Y-133474285D01*
X212552000Y-133402857D01*
X212480571Y-133260000D01*
X212480571Y-132974285D01*
X212552000Y-132831428D01*
X212623428Y-132760000D01*
X212766285Y-132688571D01*
X212837714Y-132688571D01*
X212980571Y-132760000D01*
X213052000Y-132831428D01*
X213123428Y-132974285D01*
X213123428Y-133260000D01*
X213194857Y-133402857D01*
X213266285Y-133474285D01*
X213409142Y-133545714D01*
X213694857Y-133545714D01*
X213837714Y-133474285D01*
X213909142Y-133402857D01*
X213980571Y-133260000D01*
X213980571Y-132974285D01*
X213909142Y-132831428D01*
X213837714Y-132760000D01*
X213694857Y-132688571D01*
X213409142Y-132688571D01*
X213266285Y-132760000D01*
X213194857Y-132831428D01*
X213123428Y-132974285D01*
X212409142Y-130974285D02*
X214337714Y-132260000D01*
X212623428Y-130545714D02*
X212552000Y-130474285D01*
X212480571Y-130331428D01*
X212480571Y-129974285D01*
X212552000Y-129831428D01*
X212623428Y-129760000D01*
X212766285Y-129688571D01*
X212909142Y-129688571D01*
X213123428Y-129760000D01*
X213980571Y-130617142D01*
X213980571Y-129688571D01*
X212480571Y-128760000D02*
X212480571Y-128617142D01*
X212552000Y-128474285D01*
X212623428Y-128402857D01*
X212766285Y-128331428D01*
X213052000Y-128260000D01*
X213409142Y-128260000D01*
X213694857Y-128331428D01*
X213837714Y-128402857D01*
X213909142Y-128474285D01*
X213980571Y-128617142D01*
X213980571Y-128760000D01*
X213909142Y-128902857D01*
X213837714Y-128974285D01*
X213694857Y-129045714D01*
X213409142Y-129117142D01*
X213052000Y-129117142D01*
X212766285Y-129045714D01*
X212623428Y-128974285D01*
X212552000Y-128902857D01*
X212480571Y-128760000D01*
X212623428Y-127688571D02*
X212552000Y-127617142D01*
X212480571Y-127474285D01*
X212480571Y-127117142D01*
X212552000Y-126974285D01*
X212623428Y-126902857D01*
X212766285Y-126831428D01*
X212909142Y-126831428D01*
X213123428Y-126902857D01*
X213980571Y-127760000D01*
X213980571Y-126831428D01*
X212480571Y-125902857D02*
X212480571Y-125760000D01*
X212552000Y-125617142D01*
X212623428Y-125545714D01*
X212766285Y-125474285D01*
X213052000Y-125402857D01*
X213409142Y-125402857D01*
X213694857Y-125474285D01*
X213837714Y-125545714D01*
X213909142Y-125617142D01*
X213980571Y-125760000D01*
X213980571Y-125902857D01*
X213909142Y-126045714D01*
X213837714Y-126117142D01*
X213694857Y-126188571D01*
X213409142Y-126260000D01*
X213052000Y-126260000D01*
X212766285Y-126188571D01*
X212623428Y-126117142D01*
X212552000Y-126045714D01*
X212480571Y-125902857D01*
D11*
X122622238Y-88558047D02*
X122622238Y-91058047D01*
X122027000Y-91058047D01*
X121669857Y-90939000D01*
X121431761Y-90700904D01*
X121312714Y-90462809D01*
X121193666Y-89986619D01*
X121193666Y-89629476D01*
X121312714Y-89153285D01*
X121431761Y-88915190D01*
X121669857Y-88677095D01*
X122027000Y-88558047D01*
X122622238Y-88558047D01*
X119646047Y-91058047D02*
X119407952Y-91058047D01*
X119169857Y-90939000D01*
X119050809Y-90819952D01*
X118931761Y-90581857D01*
X118812714Y-90105666D01*
X118812714Y-89510428D01*
X118931761Y-89034238D01*
X119050809Y-88796142D01*
X119169857Y-88677095D01*
X119407952Y-88558047D01*
X119646047Y-88558047D01*
X119884142Y-88677095D01*
X120003190Y-88796142D01*
X120122238Y-89034238D01*
X120241285Y-89510428D01*
X120241285Y-90105666D01*
X120122238Y-90581857D01*
X120003190Y-90819952D01*
X119884142Y-90939000D01*
X119646047Y-91058047D01*
X182566238Y-88558047D02*
X182566238Y-91058047D01*
X181971000Y-91058047D01*
X181613857Y-90939000D01*
X181375761Y-90700904D01*
X181256714Y-90462809D01*
X181137666Y-89986619D01*
X181137666Y-89629476D01*
X181256714Y-89153285D01*
X181375761Y-88915190D01*
X181613857Y-88677095D01*
X181971000Y-88558047D01*
X182566238Y-88558047D01*
X180304333Y-91058047D02*
X178637666Y-91058047D01*
X179709095Y-88558047D01*
D12*
X138868000Y-107385000D02*
X138868000Y-102045000D01*
X142310000Y-107385000D02*
X142310000Y-102045000D01*
X138868000Y-107385000D02*
X139534000Y-107385000D01*
X141644000Y-107385000D02*
X142310000Y-107385000D01*
X138868000Y-102045000D02*
X139534000Y-102045000D01*
X141644000Y-102045000D02*
X142310000Y-102045000D01*
X191397000Y-133159000D02*
X191897000Y-134159000D01*
X192397000Y-133159000D02*
X191397000Y-133159000D01*
X191897000Y-134159000D02*
X192397000Y-133159000D01*
X107947000Y-139779000D02*
X197107000Y-139779000D01*
X107947000Y-148899000D02*
X107947000Y-139779000D01*
X197107000Y-148899000D02*
X107947000Y-148899000D01*
X197107000Y-139779000D02*
X197107000Y-148899000D01*
X150477000Y-139779000D02*
X150477000Y-148899000D01*
X154577000Y-139779000D02*
X154577000Y-148899000D01*
X126368000Y-89435000D02*
X123568000Y-89435000D01*
X126368000Y-109925000D02*
X126368000Y-86725000D01*
X123568000Y-109925000D02*
X126368000Y-109925000D01*
X123568000Y-86725000D02*
X123568000Y-109925000D01*
X126368000Y-86725000D02*
X123568000Y-86725000D01*
X126946000Y-84489000D02*
X126946000Y-93689000D01*
X126946000Y-93689000D02*
X151946000Y-93689000D01*
X151946000Y-93689000D02*
X151946000Y-84489000D01*
X151946000Y-84489000D02*
X126946000Y-84489000D01*
X177981000Y-84489000D02*
X152981000Y-84489000D01*
X177981000Y-93689000D02*
X177981000Y-84489000D01*
X152981000Y-93689000D02*
X177981000Y-93689000D01*
X152981000Y-84489000D02*
X152981000Y-93689000D01*
X102800000Y-126535000D02*
X102800000Y-121195000D01*
X106242000Y-126535000D02*
X106242000Y-121195000D01*
X102800000Y-126535000D02*
X103466000Y-126535000D01*
X105576000Y-126535000D02*
X106242000Y-126535000D01*
X102800000Y-121195000D02*
X103466000Y-121195000D01*
X105576000Y-121195000D02*
X106242000Y-121195000D01*
X106747000Y-125079000D02*
X106747000Y-126729000D01*
X106747000Y-126729000D02*
X132267000Y-126729000D01*
X132267000Y-126729000D02*
X132267000Y-121429000D01*
X132267000Y-121429000D02*
X106747000Y-121429000D01*
X106747000Y-121429000D02*
X106747000Y-123079000D01*
X106687000Y-129219000D02*
X132327000Y-129219000D01*
X132327000Y-129219000D02*
X132327000Y-118939000D01*
X132327000Y-118939000D02*
X106687000Y-118939000D01*
X106687000Y-118939000D02*
X106687000Y-129219000D01*
X106747000Y-123079000D02*
G75*
G02*
X106747000Y-125079000I0J-1000000D01*
G01*
X142755000Y-99662000D02*
X142755000Y-109942000D01*
X168395000Y-99662000D02*
X142755000Y-99662000D01*
X168395000Y-109942000D02*
X168395000Y-99662000D01*
X142755000Y-109942000D02*
X168395000Y-109942000D01*
X142815000Y-102152000D02*
X142815000Y-103802000D01*
X168335000Y-102152000D02*
X142815000Y-102152000D01*
X168335000Y-107452000D02*
X168335000Y-102152000D01*
X142815000Y-107452000D02*
X168335000Y-107452000D01*
X142815000Y-105802000D02*
X142815000Y-107452000D01*
X142815000Y-103802000D02*
G75*
G02*
X142815000Y-105802000I0J-1000000D01*
G01*
D13*
X140422333Y-100841142D02*
X140374714Y-100888761D01*
X140231857Y-100936380D01*
X140136619Y-100936380D01*
X139993761Y-100888761D01*
X139898523Y-100793523D01*
X139850904Y-100698285D01*
X139803285Y-100507809D01*
X139803285Y-100364952D01*
X139850904Y-100174476D01*
X139898523Y-100079238D01*
X139993761Y-99984000D01*
X140136619Y-99936380D01*
X140231857Y-99936380D01*
X140374714Y-99984000D01*
X140422333Y-100031619D01*
X140755666Y-99936380D02*
X141422333Y-99936380D01*
X140993761Y-100936380D01*
X152193666Y-132929380D02*
X152193666Y-133643666D01*
X152146047Y-133786523D01*
X152050809Y-133881761D01*
X151907952Y-133929380D01*
X151812714Y-133929380D01*
X153193666Y-133929380D02*
X152622238Y-133929380D01*
X152907952Y-133929380D02*
X152907952Y-132929380D01*
X152812714Y-133072238D01*
X152717476Y-133167476D01*
X152622238Y-133215095D01*
X127820380Y-99015476D02*
X127344190Y-99348809D01*
X127820380Y-99586904D02*
X126820380Y-99586904D01*
X126820380Y-99205952D01*
X126868000Y-99110714D01*
X126915619Y-99063095D01*
X127010857Y-99015476D01*
X127153714Y-99015476D01*
X127248952Y-99063095D01*
X127296571Y-99110714D01*
X127344190Y-99205952D01*
X127344190Y-99586904D01*
X127820380Y-98586904D02*
X126820380Y-98586904D01*
X127820380Y-98015476D01*
X126820380Y-98015476D01*
X127820380Y-97015476D02*
X127820380Y-97586904D01*
X127820380Y-97301190D02*
X126820380Y-97301190D01*
X126963238Y-97396428D01*
X127058476Y-97491666D01*
X127106095Y-97586904D01*
X138707904Y-95141380D02*
X138707904Y-94141380D01*
X138946000Y-94141380D01*
X139088857Y-94189000D01*
X139184095Y-94284238D01*
X139231714Y-94379476D01*
X139279333Y-94569952D01*
X139279333Y-94712809D01*
X139231714Y-94903285D01*
X139184095Y-94998523D01*
X139088857Y-95093761D01*
X138946000Y-95141380D01*
X138707904Y-95141380D01*
X140231714Y-95141380D02*
X139660285Y-95141380D01*
X139946000Y-95141380D02*
X139946000Y-94141380D01*
X139850761Y-94284238D01*
X139755523Y-94379476D01*
X139660285Y-94427095D01*
X164742904Y-95141380D02*
X164742904Y-94141380D01*
X164981000Y-94141380D01*
X165123857Y-94189000D01*
X165219095Y-94284238D01*
X165266714Y-94379476D01*
X165314333Y-94569952D01*
X165314333Y-94712809D01*
X165266714Y-94903285D01*
X165219095Y-94998523D01*
X165123857Y-95093761D01*
X164981000Y-95141380D01*
X164742904Y-95141380D01*
X165695285Y-94236619D02*
X165742904Y-94189000D01*
X165838142Y-94141380D01*
X166076238Y-94141380D01*
X166171476Y-94189000D01*
X166219095Y-94236619D01*
X166266714Y-94331857D01*
X166266714Y-94427095D01*
X166219095Y-94569952D01*
X165647666Y-95141380D01*
X166266714Y-95141380D01*
X104354333Y-120118142D02*
X104306714Y-120165761D01*
X104163857Y-120213380D01*
X104068619Y-120213380D01*
X103925761Y-120165761D01*
X103830523Y-120070523D01*
X103782904Y-119975285D01*
X103735285Y-119784809D01*
X103735285Y-119641952D01*
X103782904Y-119451476D01*
X103830523Y-119356238D01*
X103925761Y-119261000D01*
X104068619Y-119213380D01*
X104163857Y-119213380D01*
X104306714Y-119261000D01*
X104354333Y-119308619D01*
X105259095Y-119213380D02*
X104782904Y-119213380D01*
X104735285Y-119689571D01*
X104782904Y-119641952D01*
X104878142Y-119594333D01*
X105116238Y-119594333D01*
X105211476Y-119641952D01*
X105259095Y-119689571D01*
X105306714Y-119784809D01*
X105306714Y-120022904D01*
X105259095Y-120118142D01*
X105211476Y-120165761D01*
X105116238Y-120213380D01*
X104878142Y-120213380D01*
X104782904Y-120165761D01*
X104735285Y-120118142D01*
X118745095Y-117435380D02*
X118745095Y-118244904D01*
X118792714Y-118340142D01*
X118840333Y-118387761D01*
X118935571Y-118435380D01*
X119126047Y-118435380D01*
X119221285Y-118387761D01*
X119268904Y-118340142D01*
X119316523Y-118244904D01*
X119316523Y-117435380D01*
X120316523Y-118435380D02*
X119745095Y-118435380D01*
X120030809Y-118435380D02*
X120030809Y-117435380D01*
X119935571Y-117578238D01*
X119840333Y-117673476D01*
X119745095Y-117721095D01*
X152273095Y-98285380D02*
X152273095Y-99094904D01*
X152320714Y-99190142D01*
X152368333Y-99237761D01*
X152463571Y-99285380D01*
X152654047Y-99285380D01*
X152749285Y-99237761D01*
X152796904Y-99190142D01*
X152844523Y-99094904D01*
X152844523Y-98285380D01*
X153273095Y-98380619D02*
X153320714Y-98333000D01*
X153415952Y-98285380D01*
X153654047Y-98285380D01*
X153749285Y-98333000D01*
X153796904Y-98380619D01*
X153844523Y-98475857D01*
X153844523Y-98571095D01*
X153796904Y-98713952D01*
X153225476Y-99285380D01*
X153844523Y-99285380D01*
M02*
