M48
; DRILL file {KiCad 5.1.6-c6e7f7d~87~ubuntu18.04.1} date Sun Sep  6 16:43:16 2020
; FORMAT={-:-/ absolute / inch / decimal}
; #@! TF.CreationDate,2020-09-06T16:43:16+12:00
; #@! TF.GenerationSoftware,Kicad,Pcbnew,5.1.6-c6e7f7d~87~ubuntu18.04.1
FMAT,2
INCH
T1C0.0315
T2C0.0354
T3C0.0394
%
G90
G05
T1
X4.92Y-3.4711
X4.92Y-3.5711
X4.92Y-3.6711
X4.92Y-3.7711
X4.92Y-3.8711
X4.92Y-3.9711
X4.92Y-4.0711
X4.92Y-4.1711
X4.92Y-4.2711
X4.255Y-4.735
X4.255Y-5.035
X4.355Y-4.735
X4.355Y-5.035
X4.455Y-4.735
X4.455Y-5.035
X4.555Y-4.735
X4.555Y-5.035
X4.655Y-4.735
X4.655Y-5.035
X4.755Y-4.735
X4.755Y-5.035
X4.855Y-4.735
X4.855Y-5.035
X4.955Y-4.735
X4.955Y-5.035
X5.055Y-4.735
X5.055Y-5.035
X5.155Y-4.735
X5.155Y-5.035
X5.535Y-4.0242
X5.535Y-4.2211
X5.675Y-3.9761
X5.675Y-4.2761
X5.775Y-3.9761
X5.775Y-4.2761
X5.875Y-3.9761
X5.875Y-4.2761
X5.975Y-3.9761
X5.975Y-4.2761
X6.075Y-3.9761
X6.075Y-4.2761
X6.175Y-3.9761
X6.175Y-4.2761
X6.275Y-3.9761
X6.275Y-4.2761
X6.375Y-3.9761
X6.375Y-4.2761
X6.475Y-3.9761
X6.475Y-4.2761
X6.575Y-3.9761
X6.575Y-4.2761
X4.115Y-4.7781
X4.115Y-4.975
T2
X6.09Y-3.5311
X6.19Y-3.5311
X6.34Y-3.5311
X6.44Y-3.5311
X6.59Y-3.5311
X6.69Y-3.5311
X6.84Y-3.5311
X6.94Y-3.5311
X5.065Y-3.5311
X5.165Y-3.5311
X5.315Y-3.5311
X5.415Y-3.5311
X5.565Y-3.5311
X5.665Y-3.5311
X5.815Y-3.5311
X5.915Y-3.5311
T3
X4.455Y-5.335
X4.455Y-5.435
X4.555Y-5.335
X4.555Y-5.435
X4.655Y-5.335
X4.655Y-5.435
X4.755Y-5.335
X4.755Y-5.435
X4.855Y-5.335
X4.855Y-5.435
X4.955Y-5.335
X4.955Y-5.435
X5.055Y-5.335
X5.055Y-5.435
X5.155Y-5.335
X5.155Y-5.435
X5.255Y-5.335
X5.255Y-5.435
X5.355Y-5.335
X5.355Y-5.435
X5.455Y-5.335
X5.455Y-5.435
X5.555Y-5.335
X5.555Y-5.435
X5.655Y-5.335
X5.655Y-5.435
X5.755Y-5.335
X5.755Y-5.435
X5.855Y-5.335
X5.855Y-5.435
X5.955Y-5.335
X5.955Y-5.435
X6.055Y-5.335
X6.055Y-5.435
X6.155Y-5.335
X6.155Y-5.435
X6.255Y-5.335
X6.255Y-5.435
X6.355Y-5.335
X6.355Y-5.435
X6.455Y-5.335
X6.455Y-5.435
X6.555Y-5.335
X6.555Y-5.435
X6.655Y-5.335
X6.655Y-5.435
X6.755Y-5.335
X6.755Y-5.435
X6.855Y-5.335
X6.855Y-5.435
X6.955Y-5.335
X6.955Y-5.435
X7.055Y-5.335
X7.055Y-5.435
X7.155Y-5.335
X7.155Y-5.435
X7.255Y-5.335
X7.255Y-5.435
X7.355Y-5.335
X7.355Y-5.435
X7.455Y-5.335
X7.455Y-5.435
X7.555Y-5.335
X7.555Y-5.435
T0
M30
