G04 #@! TF.GenerationSoftware,KiCad,Pcbnew,5.1.6-c6e7f7d~87~ubuntu18.04.1*
G04 #@! TF.CreationDate,2020-09-06T16:42:54+12:00*
G04 #@! TF.ProjectId,M1 Temp Register,4d312054-656d-4702-9052-656769737465,rev?*
G04 #@! TF.SameCoordinates,Original*
G04 #@! TF.FileFunction,Copper,L1,Top*
G04 #@! TF.FilePolarity,Positive*
%FSLAX46Y46*%
G04 Gerber Fmt 4.6, Leading zero omitted, Abs format (unit mm)*
G04 Created by KiCad (PCBNEW 5.1.6-c6e7f7d~87~ubuntu18.04.1) date 2020-09-06 16:42:54*
%MOMM*%
%LPD*%
G01*
G04 APERTURE LIST*
G04 #@! TA.AperFunction,ComponentPad*
%ADD10C,1.600000*%
G04 #@! TD*
G04 #@! TA.AperFunction,ComponentPad*
%ADD11C,1.700000*%
G04 #@! TD*
G04 #@! TA.AperFunction,ComponentPad*
%ADD12R,1.600000X1.600000*%
G04 #@! TD*
G04 #@! TA.AperFunction,ComponentPad*
%ADD13O,1.600000X1.600000*%
G04 #@! TD*
G04 #@! TA.AperFunction,ComponentPad*
%ADD14C,1.800000*%
G04 #@! TD*
G04 #@! TA.AperFunction,ComponentPad*
%ADD15R,1.800000X1.800000*%
G04 #@! TD*
G04 #@! TA.AperFunction,Conductor*
%ADD16C,0.330200*%
G04 #@! TD*
G04 #@! TA.AperFunction,Conductor*
%ADD17C,0.406400*%
G04 #@! TD*
G04 APERTURE END LIST*
D10*
X140589000Y-102215000D03*
X140589000Y-107215000D03*
G04 #@! TA.AperFunction,ComponentPad*
G36*
G01*
X191297000Y-134659000D02*
X192497000Y-134659000D01*
G75*
G02*
X192747000Y-134909000I0J-250000D01*
G01*
X192747000Y-136109000D01*
G75*
G02*
X192497000Y-136359000I-250000J0D01*
G01*
X191297000Y-136359000D01*
G75*
G02*
X191047000Y-136109000I0J250000D01*
G01*
X191047000Y-134909000D01*
G75*
G02*
X191297000Y-134659000I250000J0D01*
G01*
G37*
G04 #@! TD.AperFunction*
D11*
X189357000Y-135509000D03*
X186817000Y-135509000D03*
X184277000Y-135509000D03*
X181737000Y-135509000D03*
X179197000Y-135509000D03*
X176657000Y-135509000D03*
X174117000Y-135509000D03*
X171577000Y-135509000D03*
X169037000Y-135509000D03*
X166497000Y-135509000D03*
X163957000Y-135509000D03*
X161417000Y-135509000D03*
X158877000Y-135509000D03*
X156337000Y-135509000D03*
X153797000Y-135509000D03*
X151257000Y-135509000D03*
X148717000Y-135509000D03*
X146177000Y-135509000D03*
X143637000Y-135509000D03*
X141097000Y-135509000D03*
X138557000Y-135509000D03*
X136017000Y-135509000D03*
X133477000Y-135509000D03*
X130937000Y-135509000D03*
X128397000Y-135509000D03*
X125857000Y-135509000D03*
X123317000Y-135509000D03*
X120777000Y-135509000D03*
X118237000Y-135509000D03*
X115697000Y-135509000D03*
X113157000Y-135509000D03*
X191897000Y-138049000D03*
X189357000Y-138049000D03*
X186817000Y-138049000D03*
X184277000Y-138049000D03*
X181737000Y-138049000D03*
X179197000Y-138049000D03*
X176657000Y-138049000D03*
X174117000Y-138049000D03*
X171577000Y-138049000D03*
X169037000Y-138049000D03*
X166497000Y-138049000D03*
X163957000Y-138049000D03*
X161417000Y-138049000D03*
X158877000Y-138049000D03*
X156337000Y-138049000D03*
X153797000Y-138049000D03*
X151257000Y-138049000D03*
X148717000Y-138049000D03*
X146177000Y-138049000D03*
X143637000Y-138049000D03*
X141097000Y-138049000D03*
X138557000Y-138049000D03*
X136017000Y-138049000D03*
X133477000Y-138049000D03*
X130937000Y-138049000D03*
X128397000Y-138049000D03*
X125857000Y-138049000D03*
X123317000Y-138049000D03*
X120777000Y-138049000D03*
X118237000Y-138049000D03*
X115697000Y-138049000D03*
X113157000Y-138049000D03*
D12*
X124968000Y-88165000D03*
D13*
X124968000Y-90705000D03*
X124968000Y-93245000D03*
X124968000Y-95785000D03*
X124968000Y-98325000D03*
X124968000Y-100865000D03*
X124968000Y-103405000D03*
X124968000Y-105945000D03*
X124968000Y-108485000D03*
D14*
X141351000Y-89689000D03*
D15*
X143891000Y-89689000D03*
X137541000Y-89689000D03*
D14*
X135001000Y-89689000D03*
D15*
X150241000Y-89689000D03*
D14*
X147701000Y-89689000D03*
D15*
X131191000Y-89689000D03*
D14*
X128651000Y-89689000D03*
X154686000Y-89689000D03*
D15*
X157226000Y-89689000D03*
D14*
X173736000Y-89689000D03*
D15*
X176276000Y-89689000D03*
D14*
X161036000Y-89689000D03*
D15*
X163576000Y-89689000D03*
X169926000Y-89689000D03*
D14*
X167386000Y-89689000D03*
D10*
X104521000Y-126365000D03*
X104521000Y-121365000D03*
D12*
X108077000Y-127889000D03*
D13*
X130937000Y-120269000D03*
X110617000Y-127889000D03*
X128397000Y-120269000D03*
X113157000Y-127889000D03*
X125857000Y-120269000D03*
X115697000Y-127889000D03*
X123317000Y-120269000D03*
X118237000Y-127889000D03*
X120777000Y-120269000D03*
X120777000Y-127889000D03*
X118237000Y-120269000D03*
X123317000Y-127889000D03*
X115697000Y-120269000D03*
X125857000Y-127889000D03*
X113157000Y-120269000D03*
X128397000Y-127889000D03*
X110617000Y-120269000D03*
X130937000Y-127889000D03*
X108077000Y-120269000D03*
X144145000Y-100992000D03*
X167005000Y-108612000D03*
X146685000Y-100992000D03*
X164465000Y-108612000D03*
X149225000Y-100992000D03*
X161925000Y-108612000D03*
X151765000Y-100992000D03*
X159385000Y-108612000D03*
X154305000Y-100992000D03*
X156845000Y-108612000D03*
X156845000Y-100992000D03*
X154305000Y-108612000D03*
X159385000Y-100992000D03*
X151765000Y-108612000D03*
X161925000Y-100992000D03*
X149225000Y-108612000D03*
X164465000Y-100992000D03*
X146685000Y-108612000D03*
X167005000Y-100992000D03*
D12*
X144145000Y-108612000D03*
D16*
X154305000Y-98325000D02*
X154305000Y-100865000D01*
X150876000Y-94896000D02*
X154305000Y-98325000D01*
X150241000Y-94261000D02*
X150876000Y-94896000D01*
X150241000Y-89689000D02*
X150241000Y-94261000D01*
X165227000Y-98071000D02*
X164465000Y-98833000D01*
X164465000Y-98833000D02*
X164465000Y-100865000D01*
X176276000Y-97309000D02*
X175514000Y-98071000D01*
X176276000Y-89689000D02*
X176276000Y-97309000D01*
X175514000Y-98071000D02*
X165227000Y-98071000D01*
X144526000Y-95658000D02*
X145415000Y-96547000D01*
X145415000Y-96547000D02*
X151003000Y-96547000D01*
X151003000Y-96547000D02*
X151765000Y-97309000D01*
X151765000Y-97309000D02*
X151765000Y-100865000D01*
X143891000Y-95023000D02*
X144526000Y-95658000D01*
X143891000Y-89689000D02*
X143891000Y-95023000D01*
X139065000Y-97309000D02*
X148463000Y-97309000D01*
X148463000Y-97309000D02*
X149225000Y-98071000D01*
X149225000Y-98071000D02*
X149225000Y-100865000D01*
X138176000Y-96420000D02*
X139065000Y-97309000D01*
X137541000Y-95785000D02*
X138176000Y-96420000D01*
X137541000Y-89689000D02*
X137541000Y-95785000D01*
X132715000Y-98071000D02*
X145923000Y-98071000D01*
X146685000Y-98833000D02*
X146685000Y-100865000D01*
X145923000Y-98071000D02*
X146685000Y-98833000D01*
X131191000Y-96547000D02*
X132715000Y-98071000D01*
X131191000Y-89689000D02*
X131191000Y-96547000D01*
X156845000Y-98071000D02*
X156845000Y-100865000D01*
X157226000Y-97690000D02*
X157162500Y-97753500D01*
X157226000Y-89689000D02*
X157226000Y-97690000D01*
X157162500Y-97753500D02*
X156845000Y-98071000D01*
X159385000Y-97309000D02*
X159385000Y-100865000D01*
X160147000Y-96547000D02*
X159385000Y-97309000D01*
X163576000Y-95785000D02*
X162814000Y-96547000D01*
X163576000Y-89689000D02*
X163576000Y-95785000D01*
X162814000Y-96547000D02*
X160147000Y-96547000D01*
X162687000Y-97309000D02*
X161925000Y-98071000D01*
X161925000Y-98071000D02*
X161925000Y-100865000D01*
X169926000Y-96547000D02*
X169164000Y-97309000D01*
X169926000Y-89689000D02*
X169926000Y-96547000D01*
X169164000Y-97309000D02*
X162687000Y-97309000D01*
X125857000Y-120269000D02*
X125857000Y-127889000D01*
X161925000Y-116459000D02*
X161925000Y-108612000D01*
X161163000Y-117221000D02*
X161925000Y-116459000D01*
X126619000Y-117221000D02*
X161163000Y-117221000D01*
X125857000Y-117983000D02*
X126619000Y-117221000D01*
X125857000Y-120269000D02*
X125857000Y-117983000D01*
X125857000Y-129667000D02*
X122047000Y-133477000D01*
X125857000Y-129667000D02*
X125857000Y-127889000D01*
X122047000Y-133477000D02*
X122047000Y-136779000D01*
X122047000Y-136779000D02*
X123317000Y-138049000D01*
X120777000Y-120269000D02*
X120777000Y-127889000D01*
X156845000Y-114935000D02*
X156845000Y-108612000D01*
X156083000Y-115697000D02*
X156845000Y-114935000D01*
X121539000Y-115697000D02*
X156083000Y-115697000D01*
X120777000Y-116459000D02*
X121539000Y-115697000D01*
X120777000Y-120269000D02*
X120777000Y-116459000D01*
X120777000Y-127889000D02*
X120777000Y-132207000D01*
X120777000Y-132207000D02*
X119507000Y-133477000D01*
X119507000Y-136779000D02*
X120777000Y-138049000D01*
X119507000Y-133477000D02*
X119507000Y-136779000D01*
X115697000Y-120269000D02*
X115697000Y-127889000D01*
X151765000Y-113411000D02*
X151765000Y-108612000D01*
X151003000Y-114173000D02*
X151765000Y-113411000D01*
X116459000Y-114173000D02*
X151003000Y-114173000D01*
X115697000Y-114935000D02*
X116459000Y-114173000D01*
X115697000Y-120269000D02*
X115697000Y-114935000D01*
X116967000Y-136779000D02*
X118237000Y-138049000D01*
X116967000Y-132461000D02*
X116967000Y-136779000D01*
X115697000Y-131191000D02*
X116967000Y-132461000D01*
X115697000Y-127889000D02*
X115697000Y-131191000D01*
X111379000Y-133477000D02*
X110617000Y-132715000D01*
X110617000Y-132715000D02*
X110617000Y-127889000D01*
X110617000Y-120269000D02*
X110617000Y-127889000D01*
X146685000Y-111887000D02*
X146685000Y-108612000D01*
X145923000Y-112649000D02*
X146685000Y-111887000D01*
X111379000Y-112649000D02*
X145923000Y-112649000D01*
X110617000Y-113411000D02*
X111379000Y-112649000D01*
X110617000Y-120269000D02*
X110617000Y-113411000D01*
X113665000Y-133477000D02*
X114427000Y-134239000D01*
X113665000Y-133477000D02*
X111379000Y-133477000D01*
X114427000Y-134239000D02*
X114427000Y-136779000D01*
X114427000Y-136779000D02*
X115697000Y-138049000D01*
X167005000Y-102643000D02*
X167005000Y-100992000D01*
X165735000Y-103913000D02*
X167005000Y-102643000D01*
X130937000Y-120269000D02*
X151765000Y-120269000D01*
X151765000Y-120269000D02*
X152527000Y-121031000D01*
X152527000Y-121031000D02*
X153289000Y-120269000D01*
X153289000Y-120269000D02*
X164973000Y-120269000D01*
X164973000Y-120269000D02*
X165735000Y-119507000D01*
X165735000Y-119507000D02*
X165735000Y-103913000D01*
X151257000Y-135509000D02*
X152527000Y-134239000D01*
X152527000Y-121031000D02*
X152527000Y-134239000D01*
X128397000Y-120269000D02*
X128397000Y-127889000D01*
X128397000Y-120269000D02*
X128397000Y-118872000D01*
D17*
X128397000Y-118872000D02*
X128397000Y-118745000D01*
D16*
X128397000Y-118745000D02*
X129159000Y-117983000D01*
X129159000Y-117983000D02*
X163703000Y-117983000D01*
X163703000Y-117983000D02*
X164465000Y-117221000D01*
X164465000Y-117221000D02*
X164465000Y-108612000D01*
X128397000Y-128397000D02*
X128397000Y-127889000D01*
X123317000Y-133477000D02*
X128397000Y-128397000D01*
X123317000Y-135509000D02*
X123317000Y-133477000D01*
X123317000Y-120269000D02*
X123317000Y-127889000D01*
X159385000Y-115697000D02*
X159385000Y-108612000D01*
X158623000Y-116459000D02*
X159385000Y-115697000D01*
X124079000Y-116459000D02*
X158623000Y-116459000D01*
X123317000Y-117221000D02*
X124079000Y-116459000D01*
X123317000Y-120269000D02*
X123317000Y-117221000D01*
X120777000Y-133477000D02*
X120777000Y-135509000D01*
X123317000Y-130937000D02*
X120777000Y-133477000D01*
X123317000Y-127889000D02*
X123317000Y-130937000D01*
X118237000Y-130683000D02*
X118237000Y-127889000D01*
X118237000Y-120269000D02*
X118237000Y-127889000D01*
X153543000Y-114935000D02*
X154305000Y-114173000D01*
X118999000Y-114935000D02*
X153543000Y-114935000D01*
X154305000Y-114173000D02*
X154305000Y-108612000D01*
X118237000Y-115697000D02*
X118999000Y-114935000D01*
X118237000Y-120269000D02*
X118237000Y-115697000D01*
X118237000Y-130683000D02*
X118237000Y-135509000D01*
X113919000Y-132715000D02*
X113157000Y-131953000D01*
X113157000Y-131953000D02*
X113157000Y-127889000D01*
X113157000Y-120269000D02*
X113157000Y-127889000D01*
X149225000Y-112649000D02*
X149225000Y-108612000D01*
X113919000Y-113411000D02*
X148463000Y-113411000D01*
X148463000Y-113411000D02*
X149225000Y-112649000D01*
X113157000Y-114173000D02*
X113919000Y-113411000D01*
X113157000Y-120269000D02*
X113157000Y-114173000D01*
X114935000Y-132715000D02*
X115697000Y-133477000D01*
X114935000Y-132715000D02*
X113919000Y-132715000D01*
X115697000Y-133477000D02*
X115697000Y-135509000D01*
M02*
