%TF.GenerationSoftware,KiCad,Pcbnew,5.1.6-c6e7f7d~87~ubuntu18.04.1*%
%TF.CreationDate,2020-08-18T19:41:25+12:00*%
%TF.ProjectId,M1 Address Register,4d312041-6464-4726-9573-732052656769,rev?*%
%TF.SameCoordinates,Original*%
%TF.FileFunction,Legend,Top*%
%TF.FilePolarity,Positive*%
%FSLAX46Y46*%
G04 Gerber Fmt 4.6, Leading zero omitted, Abs format (unit mm)*
G04 Created by KiCad (PCBNEW 5.1.6-c6e7f7d~87~ubuntu18.04.1) date 2020-08-18 19:41:25*
%MOMM*%
%LPD*%
G01*
G04 APERTURE LIST*
%ADD10C,0.300000*%
%ADD11C,0.500000*%
%ADD12C,0.120000*%
%ADD13C,0.150000*%
G04 APERTURE END LIST*
D10*
X210930571Y-147291857D02*
X209430571Y-147291857D01*
X210502000Y-146791857D01*
X209430571Y-146291857D01*
X210930571Y-146291857D01*
X210930571Y-144791857D02*
X210930571Y-145649000D01*
X210930571Y-145220428D02*
X209430571Y-145220428D01*
X209644857Y-145363285D01*
X209787714Y-145506142D01*
X209859142Y-145649000D01*
X210359142Y-143006142D02*
X210359142Y-141863285D01*
X210502000Y-140077571D02*
X210502000Y-139363285D01*
X210930571Y-140220428D02*
X209430571Y-139720428D01*
X210930571Y-139220428D01*
X210930571Y-138077571D02*
X209430571Y-138077571D01*
X210859142Y-138077571D02*
X210930571Y-138220428D01*
X210930571Y-138506142D01*
X210859142Y-138649000D01*
X210787714Y-138720428D01*
X210644857Y-138791857D01*
X210216285Y-138791857D01*
X210073428Y-138720428D01*
X210002000Y-138649000D01*
X209930571Y-138506142D01*
X209930571Y-138220428D01*
X210002000Y-138077571D01*
X210930571Y-136720428D02*
X209430571Y-136720428D01*
X210859142Y-136720428D02*
X210930571Y-136863285D01*
X210930571Y-137149000D01*
X210859142Y-137291857D01*
X210787714Y-137363285D01*
X210644857Y-137434714D01*
X210216285Y-137434714D01*
X210073428Y-137363285D01*
X210002000Y-137291857D01*
X209930571Y-137149000D01*
X209930571Y-136863285D01*
X210002000Y-136720428D01*
X210930571Y-136006142D02*
X209930571Y-136006142D01*
X210216285Y-136006142D02*
X210073428Y-135934714D01*
X210002000Y-135863285D01*
X209930571Y-135720428D01*
X209930571Y-135577571D01*
X210859142Y-134506142D02*
X210930571Y-134649000D01*
X210930571Y-134934714D01*
X210859142Y-135077571D01*
X210716285Y-135149000D01*
X210144857Y-135149000D01*
X210002000Y-135077571D01*
X209930571Y-134934714D01*
X209930571Y-134649000D01*
X210002000Y-134506142D01*
X210144857Y-134434714D01*
X210287714Y-134434714D01*
X210430571Y-135149000D01*
X210859142Y-133863285D02*
X210930571Y-133720428D01*
X210930571Y-133434714D01*
X210859142Y-133291857D01*
X210716285Y-133220428D01*
X210644857Y-133220428D01*
X210502000Y-133291857D01*
X210430571Y-133434714D01*
X210430571Y-133649000D01*
X210359142Y-133791857D01*
X210216285Y-133863285D01*
X210144857Y-133863285D01*
X210002000Y-133791857D01*
X209930571Y-133649000D01*
X209930571Y-133434714D01*
X210002000Y-133291857D01*
X210859142Y-132649000D02*
X210930571Y-132506142D01*
X210930571Y-132220428D01*
X210859142Y-132077571D01*
X210716285Y-132006142D01*
X210644857Y-132006142D01*
X210502000Y-132077571D01*
X210430571Y-132220428D01*
X210430571Y-132434714D01*
X210359142Y-132577571D01*
X210216285Y-132649000D01*
X210144857Y-132649000D01*
X210002000Y-132577571D01*
X209930571Y-132434714D01*
X209930571Y-132220428D01*
X210002000Y-132077571D01*
X210930571Y-129363285D02*
X210216285Y-129863285D01*
X210930571Y-130220428D02*
X209430571Y-130220428D01*
X209430571Y-129649000D01*
X209502000Y-129506142D01*
X209573428Y-129434714D01*
X209716285Y-129363285D01*
X209930571Y-129363285D01*
X210073428Y-129434714D01*
X210144857Y-129506142D01*
X210216285Y-129649000D01*
X210216285Y-130220428D01*
X210859142Y-128149000D02*
X210930571Y-128291857D01*
X210930571Y-128577571D01*
X210859142Y-128720428D01*
X210716285Y-128791857D01*
X210144857Y-128791857D01*
X210002000Y-128720428D01*
X209930571Y-128577571D01*
X209930571Y-128291857D01*
X210002000Y-128149000D01*
X210144857Y-128077571D01*
X210287714Y-128077571D01*
X210430571Y-128791857D01*
X209930571Y-126791857D02*
X211144857Y-126791857D01*
X211287714Y-126863285D01*
X211359142Y-126934714D01*
X211430571Y-127077571D01*
X211430571Y-127291857D01*
X211359142Y-127434714D01*
X210859142Y-126791857D02*
X210930571Y-126934714D01*
X210930571Y-127220428D01*
X210859142Y-127363285D01*
X210787714Y-127434714D01*
X210644857Y-127506142D01*
X210216285Y-127506142D01*
X210073428Y-127434714D01*
X210002000Y-127363285D01*
X209930571Y-127220428D01*
X209930571Y-126934714D01*
X210002000Y-126791857D01*
X210930571Y-126077571D02*
X209930571Y-126077571D01*
X209430571Y-126077571D02*
X209502000Y-126149000D01*
X209573428Y-126077571D01*
X209502000Y-126006142D01*
X209430571Y-126077571D01*
X209573428Y-126077571D01*
X210859142Y-125434714D02*
X210930571Y-125291857D01*
X210930571Y-125006142D01*
X210859142Y-124863285D01*
X210716285Y-124791857D01*
X210644857Y-124791857D01*
X210502000Y-124863285D01*
X210430571Y-125006142D01*
X210430571Y-125220428D01*
X210359142Y-125363285D01*
X210216285Y-125434714D01*
X210144857Y-125434714D01*
X210002000Y-125363285D01*
X209930571Y-125220428D01*
X209930571Y-125006142D01*
X210002000Y-124863285D01*
X209930571Y-124363285D02*
X209930571Y-123791857D01*
X209430571Y-124149000D02*
X210716285Y-124149000D01*
X210859142Y-124077571D01*
X210930571Y-123934714D01*
X210930571Y-123791857D01*
X210859142Y-122720428D02*
X210930571Y-122863285D01*
X210930571Y-123149000D01*
X210859142Y-123291857D01*
X210716285Y-123363285D01*
X210144857Y-123363285D01*
X210002000Y-123291857D01*
X209930571Y-123149000D01*
X209930571Y-122863285D01*
X210002000Y-122720428D01*
X210144857Y-122649000D01*
X210287714Y-122649000D01*
X210430571Y-123363285D01*
X210930571Y-122006142D02*
X209930571Y-122006142D01*
X210216285Y-122006142D02*
X210073428Y-121934714D01*
X210002000Y-121863285D01*
X209930571Y-121720428D01*
X209930571Y-121577571D01*
X213480571Y-146434714D02*
X212766285Y-146934714D01*
X213480571Y-147291857D02*
X211980571Y-147291857D01*
X211980571Y-146720428D01*
X212052000Y-146577571D01*
X212123428Y-146506142D01*
X212266285Y-146434714D01*
X212480571Y-146434714D01*
X212623428Y-146506142D01*
X212694857Y-146577571D01*
X212766285Y-146720428D01*
X212766285Y-147291857D01*
X213409142Y-145220428D02*
X213480571Y-145363285D01*
X213480571Y-145649000D01*
X213409142Y-145791857D01*
X213266285Y-145863285D01*
X212694857Y-145863285D01*
X212552000Y-145791857D01*
X212480571Y-145649000D01*
X212480571Y-145363285D01*
X212552000Y-145220428D01*
X212694857Y-145149000D01*
X212837714Y-145149000D01*
X212980571Y-145863285D01*
X212480571Y-144649000D02*
X213480571Y-144291857D01*
X212480571Y-143934714D01*
X213052000Y-142291857D02*
X213052000Y-141577571D01*
X213480571Y-142434714D02*
X211980571Y-141934714D01*
X213480571Y-141434714D01*
X213052000Y-139863285D02*
X213052000Y-139149000D01*
X213480571Y-140006142D02*
X211980571Y-139506142D01*
X213480571Y-139006142D01*
X211980571Y-138077571D02*
X213052000Y-138077571D01*
X213266285Y-138149000D01*
X213409142Y-138291857D01*
X213480571Y-138506142D01*
X213480571Y-138649000D01*
X213409142Y-137434714D02*
X213480571Y-137220428D01*
X213480571Y-136863285D01*
X213409142Y-136720428D01*
X213337714Y-136649000D01*
X213194857Y-136577571D01*
X213052000Y-136577571D01*
X212909142Y-136649000D01*
X212837714Y-136720428D01*
X212766285Y-136863285D01*
X212694857Y-137149000D01*
X212623428Y-137291857D01*
X212552000Y-137363285D01*
X212409142Y-137434714D01*
X212266285Y-137434714D01*
X212123428Y-137363285D01*
X212052000Y-137291857D01*
X211980571Y-137149000D01*
X211980571Y-136791857D01*
X212052000Y-136577571D01*
X211980571Y-134506142D02*
X211980571Y-134363285D01*
X212052000Y-134220428D01*
X212123428Y-134149000D01*
X212266285Y-134077571D01*
X212552000Y-134006142D01*
X212909142Y-134006142D01*
X213194857Y-134077571D01*
X213337714Y-134149000D01*
X213409142Y-134220428D01*
X213480571Y-134363285D01*
X213480571Y-134506142D01*
X213409142Y-134649000D01*
X213337714Y-134720428D01*
X213194857Y-134791857D01*
X212909142Y-134863285D01*
X212552000Y-134863285D01*
X212266285Y-134791857D01*
X212123428Y-134720428D01*
X212052000Y-134649000D01*
X211980571Y-134506142D01*
X212623428Y-133149000D02*
X212552000Y-133291857D01*
X212480571Y-133363285D01*
X212337714Y-133434714D01*
X212266285Y-133434714D01*
X212123428Y-133363285D01*
X212052000Y-133291857D01*
X211980571Y-133149000D01*
X211980571Y-132863285D01*
X212052000Y-132720428D01*
X212123428Y-132649000D01*
X212266285Y-132577571D01*
X212337714Y-132577571D01*
X212480571Y-132649000D01*
X212552000Y-132720428D01*
X212623428Y-132863285D01*
X212623428Y-133149000D01*
X212694857Y-133291857D01*
X212766285Y-133363285D01*
X212909142Y-133434714D01*
X213194857Y-133434714D01*
X213337714Y-133363285D01*
X213409142Y-133291857D01*
X213480571Y-133149000D01*
X213480571Y-132863285D01*
X213409142Y-132720428D01*
X213337714Y-132649000D01*
X213194857Y-132577571D01*
X212909142Y-132577571D01*
X212766285Y-132649000D01*
X212694857Y-132720428D01*
X212623428Y-132863285D01*
X211909142Y-130863285D02*
X213837714Y-132149000D01*
X212123428Y-130434714D02*
X212052000Y-130363285D01*
X211980571Y-130220428D01*
X211980571Y-129863285D01*
X212052000Y-129720428D01*
X212123428Y-129649000D01*
X212266285Y-129577571D01*
X212409142Y-129577571D01*
X212623428Y-129649000D01*
X213480571Y-130506142D01*
X213480571Y-129577571D01*
X211980571Y-128649000D02*
X211980571Y-128506142D01*
X212052000Y-128363285D01*
X212123428Y-128291857D01*
X212266285Y-128220428D01*
X212552000Y-128149000D01*
X212909142Y-128149000D01*
X213194857Y-128220428D01*
X213337714Y-128291857D01*
X213409142Y-128363285D01*
X213480571Y-128506142D01*
X213480571Y-128649000D01*
X213409142Y-128791857D01*
X213337714Y-128863285D01*
X213194857Y-128934714D01*
X212909142Y-129006142D01*
X212552000Y-129006142D01*
X212266285Y-128934714D01*
X212123428Y-128863285D01*
X212052000Y-128791857D01*
X211980571Y-128649000D01*
X212123428Y-127577571D02*
X212052000Y-127506142D01*
X211980571Y-127363285D01*
X211980571Y-127006142D01*
X212052000Y-126863285D01*
X212123428Y-126791857D01*
X212266285Y-126720428D01*
X212409142Y-126720428D01*
X212623428Y-126791857D01*
X213480571Y-127649000D01*
X213480571Y-126720428D01*
X211980571Y-125791857D02*
X211980571Y-125649000D01*
X212052000Y-125506142D01*
X212123428Y-125434714D01*
X212266285Y-125363285D01*
X212552000Y-125291857D01*
X212909142Y-125291857D01*
X213194857Y-125363285D01*
X213337714Y-125434714D01*
X213409142Y-125506142D01*
X213480571Y-125649000D01*
X213480571Y-125791857D01*
X213409142Y-125934714D01*
X213337714Y-126006142D01*
X213194857Y-126077571D01*
X212909142Y-126149000D01*
X212552000Y-126149000D01*
X212266285Y-126077571D01*
X212123428Y-126006142D01*
X212052000Y-125934714D01*
X211980571Y-125791857D01*
D11*
X94706333Y-85403285D02*
X94706333Y-86593761D01*
X93992047Y-85165190D02*
X96492047Y-85998523D01*
X93992047Y-86831857D01*
X93992047Y-87665190D02*
X96492047Y-87665190D01*
X96492047Y-88260428D01*
X96373000Y-88617571D01*
X96134904Y-88855666D01*
X95896809Y-88974714D01*
X95420619Y-89093761D01*
X95063476Y-89093761D01*
X94587285Y-88974714D01*
X94349190Y-88855666D01*
X94111095Y-88617571D01*
X93992047Y-88260428D01*
X93992047Y-87665190D01*
X93992047Y-91593761D02*
X95182523Y-90760428D01*
X93992047Y-90165190D02*
X96492047Y-90165190D01*
X96492047Y-91117571D01*
X96373000Y-91355666D01*
X96253952Y-91474714D01*
X96015857Y-91593761D01*
X95658714Y-91593761D01*
X95420619Y-91474714D01*
X95301571Y-91355666D01*
X95182523Y-91117571D01*
X95182523Y-90165190D01*
X96492047Y-93141380D02*
X96492047Y-93379476D01*
X96373000Y-93617571D01*
X96253952Y-93736619D01*
X96015857Y-93855666D01*
X95539666Y-93974714D01*
X94944428Y-93974714D01*
X94468238Y-93855666D01*
X94230142Y-93736619D01*
X94111095Y-93617571D01*
X93992047Y-93379476D01*
X93992047Y-93141380D01*
X94111095Y-92903285D01*
X94230142Y-92784238D01*
X94468238Y-92665190D01*
X94944428Y-92546142D01*
X95539666Y-92546142D01*
X96015857Y-92665190D01*
X96253952Y-92784238D01*
X96373000Y-92903285D01*
X96492047Y-93141380D01*
X208752333Y-84720809D02*
X208752333Y-85911285D01*
X208038047Y-84482714D02*
X210538047Y-85316047D01*
X208038047Y-86149380D01*
X208038047Y-86982714D02*
X210538047Y-86982714D01*
X210538047Y-87577952D01*
X210419000Y-87935095D01*
X210180904Y-88173190D01*
X209942809Y-88292238D01*
X209466619Y-88411285D01*
X209109476Y-88411285D01*
X208633285Y-88292238D01*
X208395190Y-88173190D01*
X208157095Y-87935095D01*
X208038047Y-87577952D01*
X208038047Y-86982714D01*
X208038047Y-90911285D02*
X209228523Y-90077952D01*
X208038047Y-89482714D02*
X210538047Y-89482714D01*
X210538047Y-90435095D01*
X210419000Y-90673190D01*
X210299952Y-90792238D01*
X210061857Y-90911285D01*
X209704714Y-90911285D01*
X209466619Y-90792238D01*
X209347571Y-90673190D01*
X209228523Y-90435095D01*
X209228523Y-89482714D01*
X208038047Y-93292238D02*
X208038047Y-91863666D01*
X208038047Y-92577952D02*
X210538047Y-92577952D01*
X210180904Y-92339857D01*
X209942809Y-92101761D01*
X209823761Y-91863666D01*
X210538047Y-95554142D02*
X210538047Y-94363666D01*
X209347571Y-94244619D01*
X209466619Y-94363666D01*
X209585666Y-94601761D01*
X209585666Y-95197000D01*
X209466619Y-95435095D01*
X209347571Y-95554142D01*
X209109476Y-95673190D01*
X208514238Y-95673190D01*
X208276142Y-95554142D01*
X208157095Y-95435095D01*
X208038047Y-95197000D01*
X208038047Y-94601761D01*
X208157095Y-94363666D01*
X208276142Y-94244619D01*
D12*
%TO.C,C5*%
X207080000Y-122385000D02*
X207080000Y-127725000D01*
X203638000Y-122385000D02*
X203638000Y-127725000D01*
X207080000Y-122385000D02*
X206414000Y-122385000D01*
X204304000Y-122385000D02*
X203638000Y-122385000D01*
X207080000Y-127725000D02*
X206414000Y-127725000D01*
X204304000Y-127725000D02*
X203638000Y-127725000D01*
%TO.C,C6*%
X173570000Y-127471000D02*
X172904000Y-127471000D01*
X176346000Y-127471000D02*
X175680000Y-127471000D01*
X173570000Y-122131000D02*
X172904000Y-122131000D01*
X176346000Y-122131000D02*
X175680000Y-122131000D01*
X172904000Y-122131000D02*
X172904000Y-127471000D01*
X176346000Y-122131000D02*
X176346000Y-127471000D01*
%TO.C,C7*%
X112942000Y-102045000D02*
X113608000Y-102045000D01*
X110166000Y-102045000D02*
X110832000Y-102045000D01*
X112942000Y-107385000D02*
X113608000Y-107385000D01*
X110166000Y-107385000D02*
X110832000Y-107385000D01*
X113608000Y-107385000D02*
X113608000Y-102045000D01*
X110166000Y-107385000D02*
X110166000Y-102045000D01*
%TO.C,C8*%
X156902000Y-107385000D02*
X156902000Y-102045000D01*
X160344000Y-107385000D02*
X160344000Y-102045000D01*
X156902000Y-107385000D02*
X157568000Y-107385000D01*
X159678000Y-107385000D02*
X160344000Y-107385000D01*
X156902000Y-102045000D02*
X157568000Y-102045000D01*
X159678000Y-102045000D02*
X160344000Y-102045000D01*
%TO.C,J1*%
X154577000Y-139779000D02*
X154577000Y-148899000D01*
X150477000Y-139779000D02*
X150477000Y-148899000D01*
X197107000Y-139779000D02*
X197107000Y-148899000D01*
X197107000Y-148899000D02*
X107947000Y-148899000D01*
X107947000Y-148899000D02*
X107947000Y-139779000D01*
X107947000Y-139779000D02*
X197107000Y-139779000D01*
X191897000Y-134159000D02*
X192397000Y-133159000D01*
X192397000Y-133159000D02*
X191397000Y-133159000D01*
X191397000Y-133159000D02*
X191897000Y-134159000D01*
%TO.C,RN1*%
X100206000Y-86725000D02*
X97406000Y-86725000D01*
X97406000Y-86725000D02*
X97406000Y-109925000D01*
X97406000Y-109925000D02*
X100206000Y-109925000D01*
X100206000Y-109925000D02*
X100206000Y-86725000D01*
X100206000Y-89435000D02*
X97406000Y-89435000D01*
%TO.C,D1*%
X125784000Y-84489000D02*
X100784000Y-84489000D01*
X125784000Y-93689000D02*
X125784000Y-84489000D01*
X100784000Y-93689000D02*
X125784000Y-93689000D01*
X100784000Y-84489000D02*
X100784000Y-93689000D01*
%TO.C,D2*%
X126819000Y-84489000D02*
X126819000Y-93689000D01*
X126819000Y-93689000D02*
X151819000Y-93689000D01*
X151819000Y-93689000D02*
X151819000Y-84489000D01*
X151819000Y-84489000D02*
X126819000Y-84489000D01*
%TO.C,D3*%
X177854000Y-84489000D02*
X152854000Y-84489000D01*
X177854000Y-93689000D02*
X177854000Y-84489000D01*
X152854000Y-93689000D02*
X177854000Y-93689000D01*
X152854000Y-84489000D02*
X152854000Y-93689000D01*
%TO.C,D4*%
X178889000Y-84489000D02*
X178889000Y-93689000D01*
X178889000Y-93689000D02*
X203889000Y-93689000D01*
X203889000Y-93689000D02*
X203889000Y-84489000D01*
X203889000Y-84489000D02*
X178889000Y-84489000D01*
%TO.C,RN2*%
X204340000Y-107215000D02*
X207140000Y-107215000D01*
X204340000Y-86725000D02*
X204340000Y-109925000D01*
X207140000Y-86725000D02*
X204340000Y-86725000D01*
X207140000Y-109925000D02*
X207140000Y-86725000D01*
X204340000Y-109925000D02*
X207140000Y-109925000D01*
%TO.C,U1*%
X203447000Y-130235000D02*
X203447000Y-119955000D01*
X177807000Y-130235000D02*
X203447000Y-130235000D01*
X177807000Y-119955000D02*
X177807000Y-130235000D01*
X203447000Y-119955000D02*
X177807000Y-119955000D01*
X203387000Y-127745000D02*
X203387000Y-126095000D01*
X177867000Y-127745000D02*
X203387000Y-127745000D01*
X177867000Y-122445000D02*
X177867000Y-127745000D01*
X203387000Y-122445000D02*
X177867000Y-122445000D01*
X203387000Y-124095000D02*
X203387000Y-122445000D01*
X203387000Y-126095000D02*
G75*
G02*
X203387000Y-124095000I0J1000000D01*
G01*
%TO.C,U2*%
X172399000Y-123841000D02*
X172399000Y-122191000D01*
X172399000Y-122191000D02*
X146879000Y-122191000D01*
X146879000Y-122191000D02*
X146879000Y-127491000D01*
X146879000Y-127491000D02*
X172399000Y-127491000D01*
X172399000Y-127491000D02*
X172399000Y-125841000D01*
X172459000Y-119701000D02*
X146819000Y-119701000D01*
X146819000Y-119701000D02*
X146819000Y-129981000D01*
X146819000Y-129981000D02*
X172459000Y-129981000D01*
X172459000Y-129981000D02*
X172459000Y-119701000D01*
X172399000Y-125841000D02*
G75*
G02*
X172399000Y-123841000I0J1000000D01*
G01*
%TO.C,U3*%
X114113000Y-105675000D02*
X114113000Y-107325000D01*
X114113000Y-107325000D02*
X139633000Y-107325000D01*
X139633000Y-107325000D02*
X139633000Y-102025000D01*
X139633000Y-102025000D02*
X114113000Y-102025000D01*
X114113000Y-102025000D02*
X114113000Y-103675000D01*
X114053000Y-109815000D02*
X139693000Y-109815000D01*
X139693000Y-109815000D02*
X139693000Y-99535000D01*
X139693000Y-99535000D02*
X114053000Y-99535000D01*
X114053000Y-99535000D02*
X114053000Y-109815000D01*
X114113000Y-103675000D02*
G75*
G02*
X114113000Y-105675000I0J-1000000D01*
G01*
%TO.C,U4*%
X160789000Y-99535000D02*
X160789000Y-109815000D01*
X186429000Y-99535000D02*
X160789000Y-99535000D01*
X186429000Y-109815000D02*
X186429000Y-99535000D01*
X160789000Y-109815000D02*
X186429000Y-109815000D01*
X160849000Y-102025000D02*
X160849000Y-103675000D01*
X186369000Y-102025000D02*
X160849000Y-102025000D01*
X186369000Y-107325000D02*
X186369000Y-102025000D01*
X160849000Y-107325000D02*
X186369000Y-107325000D01*
X160849000Y-105675000D02*
X160849000Y-107325000D01*
X160849000Y-103675000D02*
G75*
G02*
X160849000Y-105675000I0J-1000000D01*
G01*
%TO.C,C5*%
D13*
X205065333Y-121134142D02*
X205017714Y-121181761D01*
X204874857Y-121229380D01*
X204779619Y-121229380D01*
X204636761Y-121181761D01*
X204541523Y-121086523D01*
X204493904Y-120991285D01*
X204446285Y-120800809D01*
X204446285Y-120657952D01*
X204493904Y-120467476D01*
X204541523Y-120372238D01*
X204636761Y-120277000D01*
X204779619Y-120229380D01*
X204874857Y-120229380D01*
X205017714Y-120277000D01*
X205065333Y-120324619D01*
X205970095Y-120229380D02*
X205493904Y-120229380D01*
X205446285Y-120705571D01*
X205493904Y-120657952D01*
X205589142Y-120610333D01*
X205827238Y-120610333D01*
X205922476Y-120657952D01*
X205970095Y-120705571D01*
X206017714Y-120800809D01*
X206017714Y-121038904D01*
X205970095Y-121134142D01*
X205922476Y-121181761D01*
X205827238Y-121229380D01*
X205589142Y-121229380D01*
X205493904Y-121181761D01*
X205446285Y-121134142D01*
%TO.C,C6*%
X174458333Y-120880142D02*
X174410714Y-120927761D01*
X174267857Y-120975380D01*
X174172619Y-120975380D01*
X174029761Y-120927761D01*
X173934523Y-120832523D01*
X173886904Y-120737285D01*
X173839285Y-120546809D01*
X173839285Y-120403952D01*
X173886904Y-120213476D01*
X173934523Y-120118238D01*
X174029761Y-120023000D01*
X174172619Y-119975380D01*
X174267857Y-119975380D01*
X174410714Y-120023000D01*
X174458333Y-120070619D01*
X175315476Y-119975380D02*
X175125000Y-119975380D01*
X175029761Y-120023000D01*
X174982142Y-120070619D01*
X174886904Y-120213476D01*
X174839285Y-120403952D01*
X174839285Y-120784904D01*
X174886904Y-120880142D01*
X174934523Y-120927761D01*
X175029761Y-120975380D01*
X175220238Y-120975380D01*
X175315476Y-120927761D01*
X175363095Y-120880142D01*
X175410714Y-120784904D01*
X175410714Y-120546809D01*
X175363095Y-120451571D01*
X175315476Y-120403952D01*
X175220238Y-120356333D01*
X175029761Y-120356333D01*
X174934523Y-120403952D01*
X174886904Y-120451571D01*
X174839285Y-120546809D01*
%TO.C,C7*%
X111720333Y-100841142D02*
X111672714Y-100888761D01*
X111529857Y-100936380D01*
X111434619Y-100936380D01*
X111291761Y-100888761D01*
X111196523Y-100793523D01*
X111148904Y-100698285D01*
X111101285Y-100507809D01*
X111101285Y-100364952D01*
X111148904Y-100174476D01*
X111196523Y-100079238D01*
X111291761Y-99984000D01*
X111434619Y-99936380D01*
X111529857Y-99936380D01*
X111672714Y-99984000D01*
X111720333Y-100031619D01*
X112053666Y-99936380D02*
X112720333Y-99936380D01*
X112291761Y-100936380D01*
%TO.C,C8*%
X158456333Y-100841142D02*
X158408714Y-100888761D01*
X158265857Y-100936380D01*
X158170619Y-100936380D01*
X158027761Y-100888761D01*
X157932523Y-100793523D01*
X157884904Y-100698285D01*
X157837285Y-100507809D01*
X157837285Y-100364952D01*
X157884904Y-100174476D01*
X157932523Y-100079238D01*
X158027761Y-99984000D01*
X158170619Y-99936380D01*
X158265857Y-99936380D01*
X158408714Y-99984000D01*
X158456333Y-100031619D01*
X159027761Y-100364952D02*
X158932523Y-100317333D01*
X158884904Y-100269714D01*
X158837285Y-100174476D01*
X158837285Y-100126857D01*
X158884904Y-100031619D01*
X158932523Y-99984000D01*
X159027761Y-99936380D01*
X159218238Y-99936380D01*
X159313476Y-99984000D01*
X159361095Y-100031619D01*
X159408714Y-100126857D01*
X159408714Y-100174476D01*
X159361095Y-100269714D01*
X159313476Y-100317333D01*
X159218238Y-100364952D01*
X159027761Y-100364952D01*
X158932523Y-100412571D01*
X158884904Y-100460190D01*
X158837285Y-100555428D01*
X158837285Y-100745904D01*
X158884904Y-100841142D01*
X158932523Y-100888761D01*
X159027761Y-100936380D01*
X159218238Y-100936380D01*
X159313476Y-100888761D01*
X159361095Y-100841142D01*
X159408714Y-100745904D01*
X159408714Y-100555428D01*
X159361095Y-100460190D01*
X159313476Y-100412571D01*
X159218238Y-100364952D01*
%TO.C,J1*%
X152193666Y-132929380D02*
X152193666Y-133643666D01*
X152146047Y-133786523D01*
X152050809Y-133881761D01*
X151907952Y-133929380D01*
X151812714Y-133929380D01*
X153193666Y-133929380D02*
X152622238Y-133929380D01*
X152907952Y-133929380D02*
X152907952Y-132929380D01*
X152812714Y-133072238D01*
X152717476Y-133167476D01*
X152622238Y-133215095D01*
%TO.C,RN1*%
X101658380Y-99015476D02*
X101182190Y-99348809D01*
X101658380Y-99586904D02*
X100658380Y-99586904D01*
X100658380Y-99205952D01*
X100706000Y-99110714D01*
X100753619Y-99063095D01*
X100848857Y-99015476D01*
X100991714Y-99015476D01*
X101086952Y-99063095D01*
X101134571Y-99110714D01*
X101182190Y-99205952D01*
X101182190Y-99586904D01*
X101658380Y-98586904D02*
X100658380Y-98586904D01*
X101658380Y-98015476D01*
X100658380Y-98015476D01*
X101658380Y-97015476D02*
X101658380Y-97586904D01*
X101658380Y-97301190D02*
X100658380Y-97301190D01*
X100801238Y-97396428D01*
X100896476Y-97491666D01*
X100944095Y-97586904D01*
%TO.C,D1*%
X112545904Y-95141380D02*
X112545904Y-94141380D01*
X112784000Y-94141380D01*
X112926857Y-94189000D01*
X113022095Y-94284238D01*
X113069714Y-94379476D01*
X113117333Y-94569952D01*
X113117333Y-94712809D01*
X113069714Y-94903285D01*
X113022095Y-94998523D01*
X112926857Y-95093761D01*
X112784000Y-95141380D01*
X112545904Y-95141380D01*
X114069714Y-95141380D02*
X113498285Y-95141380D01*
X113784000Y-95141380D02*
X113784000Y-94141380D01*
X113688761Y-94284238D01*
X113593523Y-94379476D01*
X113498285Y-94427095D01*
%TO.C,D2*%
X138580904Y-95141380D02*
X138580904Y-94141380D01*
X138819000Y-94141380D01*
X138961857Y-94189000D01*
X139057095Y-94284238D01*
X139104714Y-94379476D01*
X139152333Y-94569952D01*
X139152333Y-94712809D01*
X139104714Y-94903285D01*
X139057095Y-94998523D01*
X138961857Y-95093761D01*
X138819000Y-95141380D01*
X138580904Y-95141380D01*
X139533285Y-94236619D02*
X139580904Y-94189000D01*
X139676142Y-94141380D01*
X139914238Y-94141380D01*
X140009476Y-94189000D01*
X140057095Y-94236619D01*
X140104714Y-94331857D01*
X140104714Y-94427095D01*
X140057095Y-94569952D01*
X139485666Y-95141380D01*
X140104714Y-95141380D01*
%TO.C,D3*%
X164615904Y-95141380D02*
X164615904Y-94141380D01*
X164854000Y-94141380D01*
X164996857Y-94189000D01*
X165092095Y-94284238D01*
X165139714Y-94379476D01*
X165187333Y-94569952D01*
X165187333Y-94712809D01*
X165139714Y-94903285D01*
X165092095Y-94998523D01*
X164996857Y-95093761D01*
X164854000Y-95141380D01*
X164615904Y-95141380D01*
X165520666Y-94141380D02*
X166139714Y-94141380D01*
X165806380Y-94522333D01*
X165949238Y-94522333D01*
X166044476Y-94569952D01*
X166092095Y-94617571D01*
X166139714Y-94712809D01*
X166139714Y-94950904D01*
X166092095Y-95046142D01*
X166044476Y-95093761D01*
X165949238Y-95141380D01*
X165663523Y-95141380D01*
X165568285Y-95093761D01*
X165520666Y-95046142D01*
%TO.C,D4*%
X190650904Y-95141380D02*
X190650904Y-94141380D01*
X190889000Y-94141380D01*
X191031857Y-94189000D01*
X191127095Y-94284238D01*
X191174714Y-94379476D01*
X191222333Y-94569952D01*
X191222333Y-94712809D01*
X191174714Y-94903285D01*
X191127095Y-94998523D01*
X191031857Y-95093761D01*
X190889000Y-95141380D01*
X190650904Y-95141380D01*
X192079476Y-94474714D02*
X192079476Y-95141380D01*
X191841380Y-94093761D02*
X191603285Y-94808047D01*
X192222333Y-94808047D01*
%TO.C,RN2*%
X203792380Y-99015476D02*
X203316190Y-99348809D01*
X203792380Y-99586904D02*
X202792380Y-99586904D01*
X202792380Y-99205952D01*
X202840000Y-99110714D01*
X202887619Y-99063095D01*
X202982857Y-99015476D01*
X203125714Y-99015476D01*
X203220952Y-99063095D01*
X203268571Y-99110714D01*
X203316190Y-99205952D01*
X203316190Y-99586904D01*
X203792380Y-98586904D02*
X202792380Y-98586904D01*
X203792380Y-98015476D01*
X202792380Y-98015476D01*
X202887619Y-97586904D02*
X202840000Y-97539285D01*
X202792380Y-97444047D01*
X202792380Y-97205952D01*
X202840000Y-97110714D01*
X202887619Y-97063095D01*
X202982857Y-97015476D01*
X203078095Y-97015476D01*
X203220952Y-97063095D01*
X203792380Y-97634523D01*
X203792380Y-97015476D01*
%TO.C,U1*%
X190101095Y-118461380D02*
X190101095Y-119270904D01*
X190148714Y-119366142D01*
X190196333Y-119413761D01*
X190291571Y-119461380D01*
X190482047Y-119461380D01*
X190577285Y-119413761D01*
X190624904Y-119366142D01*
X190672523Y-119270904D01*
X190672523Y-118461380D01*
X191672523Y-119461380D02*
X191101095Y-119461380D01*
X191386809Y-119461380D02*
X191386809Y-118461380D01*
X191291571Y-118604238D01*
X191196333Y-118699476D01*
X191101095Y-118747095D01*
%TO.C,U2*%
X158895095Y-117961380D02*
X158895095Y-118770904D01*
X158942714Y-118866142D01*
X158990333Y-118913761D01*
X159085571Y-118961380D01*
X159276047Y-118961380D01*
X159371285Y-118913761D01*
X159418904Y-118866142D01*
X159466523Y-118770904D01*
X159466523Y-117961380D01*
X159895095Y-118056619D02*
X159942714Y-118009000D01*
X160037952Y-117961380D01*
X160276047Y-117961380D01*
X160371285Y-118009000D01*
X160418904Y-118056619D01*
X160466523Y-118151857D01*
X160466523Y-118247095D01*
X160418904Y-118389952D01*
X159847476Y-118961380D01*
X160466523Y-118961380D01*
%TO.C,U3*%
X126111095Y-98031380D02*
X126111095Y-98840904D01*
X126158714Y-98936142D01*
X126206333Y-98983761D01*
X126301571Y-99031380D01*
X126492047Y-99031380D01*
X126587285Y-98983761D01*
X126634904Y-98936142D01*
X126682523Y-98840904D01*
X126682523Y-98031380D01*
X127063476Y-98031380D02*
X127682523Y-98031380D01*
X127349190Y-98412333D01*
X127492047Y-98412333D01*
X127587285Y-98459952D01*
X127634904Y-98507571D01*
X127682523Y-98602809D01*
X127682523Y-98840904D01*
X127634904Y-98936142D01*
X127587285Y-98983761D01*
X127492047Y-99031380D01*
X127206333Y-99031380D01*
X127111095Y-98983761D01*
X127063476Y-98936142D01*
%TO.C,U4*%
X172847095Y-98031380D02*
X172847095Y-98840904D01*
X172894714Y-98936142D01*
X172942333Y-98983761D01*
X173037571Y-99031380D01*
X173228047Y-99031380D01*
X173323285Y-98983761D01*
X173370904Y-98936142D01*
X173418523Y-98840904D01*
X173418523Y-98031380D01*
X174323285Y-98364714D02*
X174323285Y-99031380D01*
X174085190Y-97983761D02*
X173847095Y-98698047D01*
X174466142Y-98698047D01*
%TD*%
M02*
