M48
; DRILL file {KiCad 5.1.6-c6e7f7d~87~ubuntu18.04.1} date Tue Aug 18 19:42:04 2020
; FORMAT={-:-/ absolute / inch / decimal}
; #@! TF.CreationDate,2020-08-18T19:42:04+12:00
; #@! TF.GenerationSoftware,Kicad,Pcbnew,5.1.6-c6e7f7d~87~ubuntu18.04.1
FMAT,2
INCH
T1C0.0150
T2C0.0315
T3C0.0354
T4C0.0394
%
G90
G05
T1
X4.645Y-4.365
X4.745Y-4.405
X4.845Y-4.445
X4.945Y-4.485
X5.045Y-4.525
X5.145Y-4.565
X5.245Y-4.605
X5.345Y-4.645
X5.935Y-4.645
X6.035Y-4.605
X6.135Y-4.565
X6.235Y-4.525
X6.335Y-4.485
X6.435Y-4.445
X6.485Y-4.365
X6.535Y-4.405
X6.585Y-4.405
X6.635Y-4.365
X6.685Y-4.445
X6.785Y-4.485
X6.885Y-4.525
X6.985Y-4.565
X7.085Y-4.605
X7.155Y-4.675
T2
X5.835Y-4.765
X5.835Y-5.065
X5.935Y-4.765
X5.935Y-5.065
X6.035Y-4.765
X6.035Y-5.065
X6.135Y-4.765
X6.135Y-5.065
X6.235Y-4.765
X6.235Y-5.065
X6.335Y-4.765
X6.335Y-5.065
X6.435Y-4.765
X6.435Y-5.065
X6.535Y-4.765
X6.535Y-5.065
X6.635Y-4.765
X6.635Y-5.065
X6.735Y-4.765
X6.735Y-5.065
X6.385Y-3.9711
X6.385Y-4.2711
X6.485Y-3.9711
X6.485Y-4.2711
X6.585Y-3.9711
X6.585Y-4.2711
X6.685Y-3.9711
X6.685Y-4.2711
X6.785Y-3.9711
X6.785Y-4.2711
X6.885Y-3.9711
X6.885Y-4.2711
X6.985Y-3.9711
X6.985Y-4.2711
X7.085Y-3.9711
X7.085Y-4.2711
X7.185Y-3.9711
X7.185Y-4.2711
X7.285Y-3.9711
X7.285Y-4.2711
X4.405Y-4.0242
X4.405Y-4.2211
X7.055Y-4.775
X7.055Y-5.075
X7.155Y-4.775
X7.155Y-5.075
X7.255Y-4.775
X7.255Y-5.075
X7.355Y-4.775
X7.355Y-5.075
X7.455Y-4.775
X7.455Y-5.075
X7.555Y-4.775
X7.555Y-5.075
X7.655Y-4.775
X7.655Y-5.075
X7.755Y-4.775
X7.755Y-5.075
X7.855Y-4.775
X7.855Y-5.075
X7.955Y-4.775
X7.955Y-5.075
X3.89Y-3.4711
X3.89Y-3.5711
X3.89Y-3.6711
X3.89Y-3.7711
X3.89Y-3.8711
X3.89Y-3.9711
X3.89Y-4.0711
X3.89Y-4.1711
X3.89Y-4.2711
X8.1Y-3.4711
X8.1Y-3.5711
X8.1Y-3.6711
X8.1Y-3.7711
X8.1Y-3.8711
X8.1Y-3.9711
X8.1Y-4.0711
X8.1Y-4.1711
X8.1Y-4.2711
X6.875Y-4.815
X6.875Y-5.0119
X8.085Y-4.825
X8.085Y-5.0219
X6.245Y-4.0242
X6.245Y-4.2211
X4.545Y-3.9711
X4.545Y-4.2711
X4.645Y-3.9711
X4.645Y-4.2711
X4.745Y-3.9711
X4.745Y-4.2711
X4.845Y-3.9711
X4.845Y-4.2711
X4.945Y-3.9711
X4.945Y-4.2711
X5.045Y-3.9711
X5.045Y-4.2711
X5.145Y-3.9711
X5.145Y-4.2711
X5.245Y-3.9711
X5.245Y-4.2711
X5.345Y-3.9711
X5.345Y-4.2711
X5.445Y-3.9711
X5.445Y-4.2711
T3
X5.06Y-3.5311
X5.16Y-3.5311
X5.31Y-3.5311
X5.41Y-3.5311
X5.56Y-3.5311
X5.66Y-3.5311
X5.81Y-3.5311
X5.91Y-3.5311
X4.035Y-3.5311
X4.135Y-3.5311
X4.285Y-3.5311
X4.385Y-3.5311
X4.535Y-3.5311
X4.635Y-3.5311
X4.785Y-3.5311
X4.885Y-3.5311
X7.11Y-3.5311
X7.21Y-3.5311
X7.36Y-3.5311
X7.46Y-3.5311
X7.61Y-3.5311
X7.71Y-3.5311
X7.86Y-3.5311
X7.96Y-3.5311
X6.085Y-3.5311
X6.185Y-3.5311
X6.335Y-3.5311
X6.435Y-3.5311
X6.585Y-3.5311
X6.685Y-3.5311
X6.835Y-3.5311
X6.935Y-3.5311
T4
X4.455Y-5.335
X4.455Y-5.435
X4.555Y-5.335
X4.555Y-5.435
X4.655Y-5.335
X4.655Y-5.435
X4.755Y-5.335
X4.755Y-5.435
X4.855Y-5.335
X4.855Y-5.435
X4.955Y-5.335
X4.955Y-5.435
X5.055Y-5.335
X5.055Y-5.435
X5.155Y-5.335
X5.155Y-5.435
X5.255Y-5.335
X5.255Y-5.435
X5.355Y-5.335
X5.355Y-5.435
X5.455Y-5.335
X5.455Y-5.435
X5.555Y-5.335
X5.555Y-5.435
X5.655Y-5.335
X5.655Y-5.435
X5.755Y-5.335
X5.755Y-5.435
X5.855Y-5.335
X5.855Y-5.435
X5.955Y-5.335
X5.955Y-5.435
X6.055Y-5.335
X6.055Y-5.435
X6.155Y-5.335
X6.155Y-5.435
X6.255Y-5.335
X6.255Y-5.435
X6.355Y-5.335
X6.355Y-5.435
X6.455Y-5.335
X6.455Y-5.435
X6.555Y-5.335
X6.555Y-5.435
X6.655Y-5.335
X6.655Y-5.435
X6.755Y-5.335
X6.755Y-5.435
X6.855Y-5.335
X6.855Y-5.435
X6.955Y-5.335
X6.955Y-5.435
X7.055Y-5.335
X7.055Y-5.435
X7.155Y-5.335
X7.155Y-5.435
X7.255Y-5.335
X7.255Y-5.435
X7.355Y-5.335
X7.355Y-5.435
X7.455Y-5.335
X7.455Y-5.435
X7.555Y-5.335
X7.555Y-5.435
T0
M30
