%TF.GenerationSoftware,KiCad,Pcbnew,5.1.6-c6e7f7d~87~ubuntu18.04.1*%
%TF.CreationDate,2020-08-18T19:41:25+12:00*%
%TF.ProjectId,M1 Address Register,4d312041-6464-4726-9573-732052656769,rev?*%
%TF.SameCoordinates,Original*%
%TF.FileFunction,Soldermask,Bot*%
%TF.FilePolarity,Negative*%
%FSLAX46Y46*%
G04 Gerber Fmt 4.6, Leading zero omitted, Abs format (unit mm)*
G04 Created by KiCad (PCBNEW 5.1.6-c6e7f7d~87~ubuntu18.04.1) date 2020-08-18 19:41:25*
%MOMM*%
%LPD*%
G01*
G04 APERTURE LIST*
%ADD10C,0.100000*%
G04 APERTURE END LIST*
D10*
G36*
X171690512Y-137152927D02*
G01*
X171839812Y-137182624D01*
X172003784Y-137250544D01*
X172151354Y-137349147D01*
X172276853Y-137474646D01*
X172375456Y-137622216D01*
X172443376Y-137786188D01*
X172478000Y-137960259D01*
X172478000Y-138137741D01*
X172443376Y-138311812D01*
X172375456Y-138475784D01*
X172276853Y-138623354D01*
X172151354Y-138748853D01*
X172003784Y-138847456D01*
X171839812Y-138915376D01*
X171690512Y-138945073D01*
X171665742Y-138950000D01*
X171488258Y-138950000D01*
X171463488Y-138945073D01*
X171314188Y-138915376D01*
X171150216Y-138847456D01*
X171002646Y-138748853D01*
X170877147Y-138623354D01*
X170778544Y-138475784D01*
X170710624Y-138311812D01*
X170676000Y-138137741D01*
X170676000Y-137960259D01*
X170710624Y-137786188D01*
X170778544Y-137622216D01*
X170877147Y-137474646D01*
X171002646Y-137349147D01*
X171150216Y-137250544D01*
X171314188Y-137182624D01*
X171463488Y-137152927D01*
X171488258Y-137148000D01*
X171665742Y-137148000D01*
X171690512Y-137152927D01*
G37*
G36*
X174230512Y-137152927D02*
G01*
X174379812Y-137182624D01*
X174543784Y-137250544D01*
X174691354Y-137349147D01*
X174816853Y-137474646D01*
X174915456Y-137622216D01*
X174983376Y-137786188D01*
X175018000Y-137960259D01*
X175018000Y-138137741D01*
X174983376Y-138311812D01*
X174915456Y-138475784D01*
X174816853Y-138623354D01*
X174691354Y-138748853D01*
X174543784Y-138847456D01*
X174379812Y-138915376D01*
X174230512Y-138945073D01*
X174205742Y-138950000D01*
X174028258Y-138950000D01*
X174003488Y-138945073D01*
X173854188Y-138915376D01*
X173690216Y-138847456D01*
X173542646Y-138748853D01*
X173417147Y-138623354D01*
X173318544Y-138475784D01*
X173250624Y-138311812D01*
X173216000Y-138137741D01*
X173216000Y-137960259D01*
X173250624Y-137786188D01*
X173318544Y-137622216D01*
X173417147Y-137474646D01*
X173542646Y-137349147D01*
X173690216Y-137250544D01*
X173854188Y-137182624D01*
X174003488Y-137152927D01*
X174028258Y-137148000D01*
X174205742Y-137148000D01*
X174230512Y-137152927D01*
G37*
G36*
X192010512Y-137152927D02*
G01*
X192159812Y-137182624D01*
X192323784Y-137250544D01*
X192471354Y-137349147D01*
X192596853Y-137474646D01*
X192695456Y-137622216D01*
X192763376Y-137786188D01*
X192798000Y-137960259D01*
X192798000Y-138137741D01*
X192763376Y-138311812D01*
X192695456Y-138475784D01*
X192596853Y-138623354D01*
X192471354Y-138748853D01*
X192323784Y-138847456D01*
X192159812Y-138915376D01*
X192010512Y-138945073D01*
X191985742Y-138950000D01*
X191808258Y-138950000D01*
X191783488Y-138945073D01*
X191634188Y-138915376D01*
X191470216Y-138847456D01*
X191322646Y-138748853D01*
X191197147Y-138623354D01*
X191098544Y-138475784D01*
X191030624Y-138311812D01*
X190996000Y-138137741D01*
X190996000Y-137960259D01*
X191030624Y-137786188D01*
X191098544Y-137622216D01*
X191197147Y-137474646D01*
X191322646Y-137349147D01*
X191470216Y-137250544D01*
X191634188Y-137182624D01*
X191783488Y-137152927D01*
X191808258Y-137148000D01*
X191985742Y-137148000D01*
X192010512Y-137152927D01*
G37*
G36*
X189470512Y-137152927D02*
G01*
X189619812Y-137182624D01*
X189783784Y-137250544D01*
X189931354Y-137349147D01*
X190056853Y-137474646D01*
X190155456Y-137622216D01*
X190223376Y-137786188D01*
X190258000Y-137960259D01*
X190258000Y-138137741D01*
X190223376Y-138311812D01*
X190155456Y-138475784D01*
X190056853Y-138623354D01*
X189931354Y-138748853D01*
X189783784Y-138847456D01*
X189619812Y-138915376D01*
X189470512Y-138945073D01*
X189445742Y-138950000D01*
X189268258Y-138950000D01*
X189243488Y-138945073D01*
X189094188Y-138915376D01*
X188930216Y-138847456D01*
X188782646Y-138748853D01*
X188657147Y-138623354D01*
X188558544Y-138475784D01*
X188490624Y-138311812D01*
X188456000Y-138137741D01*
X188456000Y-137960259D01*
X188490624Y-137786188D01*
X188558544Y-137622216D01*
X188657147Y-137474646D01*
X188782646Y-137349147D01*
X188930216Y-137250544D01*
X189094188Y-137182624D01*
X189243488Y-137152927D01*
X189268258Y-137148000D01*
X189445742Y-137148000D01*
X189470512Y-137152927D01*
G37*
G36*
X186930512Y-137152927D02*
G01*
X187079812Y-137182624D01*
X187243784Y-137250544D01*
X187391354Y-137349147D01*
X187516853Y-137474646D01*
X187615456Y-137622216D01*
X187683376Y-137786188D01*
X187718000Y-137960259D01*
X187718000Y-138137741D01*
X187683376Y-138311812D01*
X187615456Y-138475784D01*
X187516853Y-138623354D01*
X187391354Y-138748853D01*
X187243784Y-138847456D01*
X187079812Y-138915376D01*
X186930512Y-138945073D01*
X186905742Y-138950000D01*
X186728258Y-138950000D01*
X186703488Y-138945073D01*
X186554188Y-138915376D01*
X186390216Y-138847456D01*
X186242646Y-138748853D01*
X186117147Y-138623354D01*
X186018544Y-138475784D01*
X185950624Y-138311812D01*
X185916000Y-138137741D01*
X185916000Y-137960259D01*
X185950624Y-137786188D01*
X186018544Y-137622216D01*
X186117147Y-137474646D01*
X186242646Y-137349147D01*
X186390216Y-137250544D01*
X186554188Y-137182624D01*
X186703488Y-137152927D01*
X186728258Y-137148000D01*
X186905742Y-137148000D01*
X186930512Y-137152927D01*
G37*
G36*
X184390512Y-137152927D02*
G01*
X184539812Y-137182624D01*
X184703784Y-137250544D01*
X184851354Y-137349147D01*
X184976853Y-137474646D01*
X185075456Y-137622216D01*
X185143376Y-137786188D01*
X185178000Y-137960259D01*
X185178000Y-138137741D01*
X185143376Y-138311812D01*
X185075456Y-138475784D01*
X184976853Y-138623354D01*
X184851354Y-138748853D01*
X184703784Y-138847456D01*
X184539812Y-138915376D01*
X184390512Y-138945073D01*
X184365742Y-138950000D01*
X184188258Y-138950000D01*
X184163488Y-138945073D01*
X184014188Y-138915376D01*
X183850216Y-138847456D01*
X183702646Y-138748853D01*
X183577147Y-138623354D01*
X183478544Y-138475784D01*
X183410624Y-138311812D01*
X183376000Y-138137741D01*
X183376000Y-137960259D01*
X183410624Y-137786188D01*
X183478544Y-137622216D01*
X183577147Y-137474646D01*
X183702646Y-137349147D01*
X183850216Y-137250544D01*
X184014188Y-137182624D01*
X184163488Y-137152927D01*
X184188258Y-137148000D01*
X184365742Y-137148000D01*
X184390512Y-137152927D01*
G37*
G36*
X181850512Y-137152927D02*
G01*
X181999812Y-137182624D01*
X182163784Y-137250544D01*
X182311354Y-137349147D01*
X182436853Y-137474646D01*
X182535456Y-137622216D01*
X182603376Y-137786188D01*
X182638000Y-137960259D01*
X182638000Y-138137741D01*
X182603376Y-138311812D01*
X182535456Y-138475784D01*
X182436853Y-138623354D01*
X182311354Y-138748853D01*
X182163784Y-138847456D01*
X181999812Y-138915376D01*
X181850512Y-138945073D01*
X181825742Y-138950000D01*
X181648258Y-138950000D01*
X181623488Y-138945073D01*
X181474188Y-138915376D01*
X181310216Y-138847456D01*
X181162646Y-138748853D01*
X181037147Y-138623354D01*
X180938544Y-138475784D01*
X180870624Y-138311812D01*
X180836000Y-138137741D01*
X180836000Y-137960259D01*
X180870624Y-137786188D01*
X180938544Y-137622216D01*
X181037147Y-137474646D01*
X181162646Y-137349147D01*
X181310216Y-137250544D01*
X181474188Y-137182624D01*
X181623488Y-137152927D01*
X181648258Y-137148000D01*
X181825742Y-137148000D01*
X181850512Y-137152927D01*
G37*
G36*
X179310512Y-137152927D02*
G01*
X179459812Y-137182624D01*
X179623784Y-137250544D01*
X179771354Y-137349147D01*
X179896853Y-137474646D01*
X179995456Y-137622216D01*
X180063376Y-137786188D01*
X180098000Y-137960259D01*
X180098000Y-138137741D01*
X180063376Y-138311812D01*
X179995456Y-138475784D01*
X179896853Y-138623354D01*
X179771354Y-138748853D01*
X179623784Y-138847456D01*
X179459812Y-138915376D01*
X179310512Y-138945073D01*
X179285742Y-138950000D01*
X179108258Y-138950000D01*
X179083488Y-138945073D01*
X178934188Y-138915376D01*
X178770216Y-138847456D01*
X178622646Y-138748853D01*
X178497147Y-138623354D01*
X178398544Y-138475784D01*
X178330624Y-138311812D01*
X178296000Y-138137741D01*
X178296000Y-137960259D01*
X178330624Y-137786188D01*
X178398544Y-137622216D01*
X178497147Y-137474646D01*
X178622646Y-137349147D01*
X178770216Y-137250544D01*
X178934188Y-137182624D01*
X179083488Y-137152927D01*
X179108258Y-137148000D01*
X179285742Y-137148000D01*
X179310512Y-137152927D01*
G37*
G36*
X176770512Y-137152927D02*
G01*
X176919812Y-137182624D01*
X177083784Y-137250544D01*
X177231354Y-137349147D01*
X177356853Y-137474646D01*
X177455456Y-137622216D01*
X177523376Y-137786188D01*
X177558000Y-137960259D01*
X177558000Y-138137741D01*
X177523376Y-138311812D01*
X177455456Y-138475784D01*
X177356853Y-138623354D01*
X177231354Y-138748853D01*
X177083784Y-138847456D01*
X176919812Y-138915376D01*
X176770512Y-138945073D01*
X176745742Y-138950000D01*
X176568258Y-138950000D01*
X176543488Y-138945073D01*
X176394188Y-138915376D01*
X176230216Y-138847456D01*
X176082646Y-138748853D01*
X175957147Y-138623354D01*
X175858544Y-138475784D01*
X175790624Y-138311812D01*
X175756000Y-138137741D01*
X175756000Y-137960259D01*
X175790624Y-137786188D01*
X175858544Y-137622216D01*
X175957147Y-137474646D01*
X176082646Y-137349147D01*
X176230216Y-137250544D01*
X176394188Y-137182624D01*
X176543488Y-137152927D01*
X176568258Y-137148000D01*
X176745742Y-137148000D01*
X176770512Y-137152927D01*
G37*
G36*
X151370512Y-137152927D02*
G01*
X151519812Y-137182624D01*
X151683784Y-137250544D01*
X151831354Y-137349147D01*
X151956853Y-137474646D01*
X152055456Y-137622216D01*
X152123376Y-137786188D01*
X152158000Y-137960259D01*
X152158000Y-138137741D01*
X152123376Y-138311812D01*
X152055456Y-138475784D01*
X151956853Y-138623354D01*
X151831354Y-138748853D01*
X151683784Y-138847456D01*
X151519812Y-138915376D01*
X151370512Y-138945073D01*
X151345742Y-138950000D01*
X151168258Y-138950000D01*
X151143488Y-138945073D01*
X150994188Y-138915376D01*
X150830216Y-138847456D01*
X150682646Y-138748853D01*
X150557147Y-138623354D01*
X150458544Y-138475784D01*
X150390624Y-138311812D01*
X150356000Y-138137741D01*
X150356000Y-137960259D01*
X150390624Y-137786188D01*
X150458544Y-137622216D01*
X150557147Y-137474646D01*
X150682646Y-137349147D01*
X150830216Y-137250544D01*
X150994188Y-137182624D01*
X151143488Y-137152927D01*
X151168258Y-137148000D01*
X151345742Y-137148000D01*
X151370512Y-137152927D01*
G37*
G36*
X169150512Y-137152927D02*
G01*
X169299812Y-137182624D01*
X169463784Y-137250544D01*
X169611354Y-137349147D01*
X169736853Y-137474646D01*
X169835456Y-137622216D01*
X169903376Y-137786188D01*
X169938000Y-137960259D01*
X169938000Y-138137741D01*
X169903376Y-138311812D01*
X169835456Y-138475784D01*
X169736853Y-138623354D01*
X169611354Y-138748853D01*
X169463784Y-138847456D01*
X169299812Y-138915376D01*
X169150512Y-138945073D01*
X169125742Y-138950000D01*
X168948258Y-138950000D01*
X168923488Y-138945073D01*
X168774188Y-138915376D01*
X168610216Y-138847456D01*
X168462646Y-138748853D01*
X168337147Y-138623354D01*
X168238544Y-138475784D01*
X168170624Y-138311812D01*
X168136000Y-138137741D01*
X168136000Y-137960259D01*
X168170624Y-137786188D01*
X168238544Y-137622216D01*
X168337147Y-137474646D01*
X168462646Y-137349147D01*
X168610216Y-137250544D01*
X168774188Y-137182624D01*
X168923488Y-137152927D01*
X168948258Y-137148000D01*
X169125742Y-137148000D01*
X169150512Y-137152927D01*
G37*
G36*
X166610512Y-137152927D02*
G01*
X166759812Y-137182624D01*
X166923784Y-137250544D01*
X167071354Y-137349147D01*
X167196853Y-137474646D01*
X167295456Y-137622216D01*
X167363376Y-137786188D01*
X167398000Y-137960259D01*
X167398000Y-138137741D01*
X167363376Y-138311812D01*
X167295456Y-138475784D01*
X167196853Y-138623354D01*
X167071354Y-138748853D01*
X166923784Y-138847456D01*
X166759812Y-138915376D01*
X166610512Y-138945073D01*
X166585742Y-138950000D01*
X166408258Y-138950000D01*
X166383488Y-138945073D01*
X166234188Y-138915376D01*
X166070216Y-138847456D01*
X165922646Y-138748853D01*
X165797147Y-138623354D01*
X165698544Y-138475784D01*
X165630624Y-138311812D01*
X165596000Y-138137741D01*
X165596000Y-137960259D01*
X165630624Y-137786188D01*
X165698544Y-137622216D01*
X165797147Y-137474646D01*
X165922646Y-137349147D01*
X166070216Y-137250544D01*
X166234188Y-137182624D01*
X166383488Y-137152927D01*
X166408258Y-137148000D01*
X166585742Y-137148000D01*
X166610512Y-137152927D01*
G37*
G36*
X164070512Y-137152927D02*
G01*
X164219812Y-137182624D01*
X164383784Y-137250544D01*
X164531354Y-137349147D01*
X164656853Y-137474646D01*
X164755456Y-137622216D01*
X164823376Y-137786188D01*
X164858000Y-137960259D01*
X164858000Y-138137741D01*
X164823376Y-138311812D01*
X164755456Y-138475784D01*
X164656853Y-138623354D01*
X164531354Y-138748853D01*
X164383784Y-138847456D01*
X164219812Y-138915376D01*
X164070512Y-138945073D01*
X164045742Y-138950000D01*
X163868258Y-138950000D01*
X163843488Y-138945073D01*
X163694188Y-138915376D01*
X163530216Y-138847456D01*
X163382646Y-138748853D01*
X163257147Y-138623354D01*
X163158544Y-138475784D01*
X163090624Y-138311812D01*
X163056000Y-138137741D01*
X163056000Y-137960259D01*
X163090624Y-137786188D01*
X163158544Y-137622216D01*
X163257147Y-137474646D01*
X163382646Y-137349147D01*
X163530216Y-137250544D01*
X163694188Y-137182624D01*
X163843488Y-137152927D01*
X163868258Y-137148000D01*
X164045742Y-137148000D01*
X164070512Y-137152927D01*
G37*
G36*
X161530512Y-137152927D02*
G01*
X161679812Y-137182624D01*
X161843784Y-137250544D01*
X161991354Y-137349147D01*
X162116853Y-137474646D01*
X162215456Y-137622216D01*
X162283376Y-137786188D01*
X162318000Y-137960259D01*
X162318000Y-138137741D01*
X162283376Y-138311812D01*
X162215456Y-138475784D01*
X162116853Y-138623354D01*
X161991354Y-138748853D01*
X161843784Y-138847456D01*
X161679812Y-138915376D01*
X161530512Y-138945073D01*
X161505742Y-138950000D01*
X161328258Y-138950000D01*
X161303488Y-138945073D01*
X161154188Y-138915376D01*
X160990216Y-138847456D01*
X160842646Y-138748853D01*
X160717147Y-138623354D01*
X160618544Y-138475784D01*
X160550624Y-138311812D01*
X160516000Y-138137741D01*
X160516000Y-137960259D01*
X160550624Y-137786188D01*
X160618544Y-137622216D01*
X160717147Y-137474646D01*
X160842646Y-137349147D01*
X160990216Y-137250544D01*
X161154188Y-137182624D01*
X161303488Y-137152927D01*
X161328258Y-137148000D01*
X161505742Y-137148000D01*
X161530512Y-137152927D01*
G37*
G36*
X158990512Y-137152927D02*
G01*
X159139812Y-137182624D01*
X159303784Y-137250544D01*
X159451354Y-137349147D01*
X159576853Y-137474646D01*
X159675456Y-137622216D01*
X159743376Y-137786188D01*
X159778000Y-137960259D01*
X159778000Y-138137741D01*
X159743376Y-138311812D01*
X159675456Y-138475784D01*
X159576853Y-138623354D01*
X159451354Y-138748853D01*
X159303784Y-138847456D01*
X159139812Y-138915376D01*
X158990512Y-138945073D01*
X158965742Y-138950000D01*
X158788258Y-138950000D01*
X158763488Y-138945073D01*
X158614188Y-138915376D01*
X158450216Y-138847456D01*
X158302646Y-138748853D01*
X158177147Y-138623354D01*
X158078544Y-138475784D01*
X158010624Y-138311812D01*
X157976000Y-138137741D01*
X157976000Y-137960259D01*
X158010624Y-137786188D01*
X158078544Y-137622216D01*
X158177147Y-137474646D01*
X158302646Y-137349147D01*
X158450216Y-137250544D01*
X158614188Y-137182624D01*
X158763488Y-137152927D01*
X158788258Y-137148000D01*
X158965742Y-137148000D01*
X158990512Y-137152927D01*
G37*
G36*
X156450512Y-137152927D02*
G01*
X156599812Y-137182624D01*
X156763784Y-137250544D01*
X156911354Y-137349147D01*
X157036853Y-137474646D01*
X157135456Y-137622216D01*
X157203376Y-137786188D01*
X157238000Y-137960259D01*
X157238000Y-138137741D01*
X157203376Y-138311812D01*
X157135456Y-138475784D01*
X157036853Y-138623354D01*
X156911354Y-138748853D01*
X156763784Y-138847456D01*
X156599812Y-138915376D01*
X156450512Y-138945073D01*
X156425742Y-138950000D01*
X156248258Y-138950000D01*
X156223488Y-138945073D01*
X156074188Y-138915376D01*
X155910216Y-138847456D01*
X155762646Y-138748853D01*
X155637147Y-138623354D01*
X155538544Y-138475784D01*
X155470624Y-138311812D01*
X155436000Y-138137741D01*
X155436000Y-137960259D01*
X155470624Y-137786188D01*
X155538544Y-137622216D01*
X155637147Y-137474646D01*
X155762646Y-137349147D01*
X155910216Y-137250544D01*
X156074188Y-137182624D01*
X156223488Y-137152927D01*
X156248258Y-137148000D01*
X156425742Y-137148000D01*
X156450512Y-137152927D01*
G37*
G36*
X131050512Y-137152927D02*
G01*
X131199812Y-137182624D01*
X131363784Y-137250544D01*
X131511354Y-137349147D01*
X131636853Y-137474646D01*
X131735456Y-137622216D01*
X131803376Y-137786188D01*
X131838000Y-137960259D01*
X131838000Y-138137741D01*
X131803376Y-138311812D01*
X131735456Y-138475784D01*
X131636853Y-138623354D01*
X131511354Y-138748853D01*
X131363784Y-138847456D01*
X131199812Y-138915376D01*
X131050512Y-138945073D01*
X131025742Y-138950000D01*
X130848258Y-138950000D01*
X130823488Y-138945073D01*
X130674188Y-138915376D01*
X130510216Y-138847456D01*
X130362646Y-138748853D01*
X130237147Y-138623354D01*
X130138544Y-138475784D01*
X130070624Y-138311812D01*
X130036000Y-138137741D01*
X130036000Y-137960259D01*
X130070624Y-137786188D01*
X130138544Y-137622216D01*
X130237147Y-137474646D01*
X130362646Y-137349147D01*
X130510216Y-137250544D01*
X130674188Y-137182624D01*
X130823488Y-137152927D01*
X130848258Y-137148000D01*
X131025742Y-137148000D01*
X131050512Y-137152927D01*
G37*
G36*
X115810512Y-137152927D02*
G01*
X115959812Y-137182624D01*
X116123784Y-137250544D01*
X116271354Y-137349147D01*
X116396853Y-137474646D01*
X116495456Y-137622216D01*
X116563376Y-137786188D01*
X116598000Y-137960259D01*
X116598000Y-138137741D01*
X116563376Y-138311812D01*
X116495456Y-138475784D01*
X116396853Y-138623354D01*
X116271354Y-138748853D01*
X116123784Y-138847456D01*
X115959812Y-138915376D01*
X115810512Y-138945073D01*
X115785742Y-138950000D01*
X115608258Y-138950000D01*
X115583488Y-138945073D01*
X115434188Y-138915376D01*
X115270216Y-138847456D01*
X115122646Y-138748853D01*
X114997147Y-138623354D01*
X114898544Y-138475784D01*
X114830624Y-138311812D01*
X114796000Y-138137741D01*
X114796000Y-137960259D01*
X114830624Y-137786188D01*
X114898544Y-137622216D01*
X114997147Y-137474646D01*
X115122646Y-137349147D01*
X115270216Y-137250544D01*
X115434188Y-137182624D01*
X115583488Y-137152927D01*
X115608258Y-137148000D01*
X115785742Y-137148000D01*
X115810512Y-137152927D01*
G37*
G36*
X113270512Y-137152927D02*
G01*
X113419812Y-137182624D01*
X113583784Y-137250544D01*
X113731354Y-137349147D01*
X113856853Y-137474646D01*
X113955456Y-137622216D01*
X114023376Y-137786188D01*
X114058000Y-137960259D01*
X114058000Y-138137741D01*
X114023376Y-138311812D01*
X113955456Y-138475784D01*
X113856853Y-138623354D01*
X113731354Y-138748853D01*
X113583784Y-138847456D01*
X113419812Y-138915376D01*
X113270512Y-138945073D01*
X113245742Y-138950000D01*
X113068258Y-138950000D01*
X113043488Y-138945073D01*
X112894188Y-138915376D01*
X112730216Y-138847456D01*
X112582646Y-138748853D01*
X112457147Y-138623354D01*
X112358544Y-138475784D01*
X112290624Y-138311812D01*
X112256000Y-138137741D01*
X112256000Y-137960259D01*
X112290624Y-137786188D01*
X112358544Y-137622216D01*
X112457147Y-137474646D01*
X112582646Y-137349147D01*
X112730216Y-137250544D01*
X112894188Y-137182624D01*
X113043488Y-137152927D01*
X113068258Y-137148000D01*
X113245742Y-137148000D01*
X113270512Y-137152927D01*
G37*
G36*
X148830512Y-137152927D02*
G01*
X148979812Y-137182624D01*
X149143784Y-137250544D01*
X149291354Y-137349147D01*
X149416853Y-137474646D01*
X149515456Y-137622216D01*
X149583376Y-137786188D01*
X149618000Y-137960259D01*
X149618000Y-138137741D01*
X149583376Y-138311812D01*
X149515456Y-138475784D01*
X149416853Y-138623354D01*
X149291354Y-138748853D01*
X149143784Y-138847456D01*
X148979812Y-138915376D01*
X148830512Y-138945073D01*
X148805742Y-138950000D01*
X148628258Y-138950000D01*
X148603488Y-138945073D01*
X148454188Y-138915376D01*
X148290216Y-138847456D01*
X148142646Y-138748853D01*
X148017147Y-138623354D01*
X147918544Y-138475784D01*
X147850624Y-138311812D01*
X147816000Y-138137741D01*
X147816000Y-137960259D01*
X147850624Y-137786188D01*
X147918544Y-137622216D01*
X148017147Y-137474646D01*
X148142646Y-137349147D01*
X148290216Y-137250544D01*
X148454188Y-137182624D01*
X148603488Y-137152927D01*
X148628258Y-137148000D01*
X148805742Y-137148000D01*
X148830512Y-137152927D01*
G37*
G36*
X146290512Y-137152927D02*
G01*
X146439812Y-137182624D01*
X146603784Y-137250544D01*
X146751354Y-137349147D01*
X146876853Y-137474646D01*
X146975456Y-137622216D01*
X147043376Y-137786188D01*
X147078000Y-137960259D01*
X147078000Y-138137741D01*
X147043376Y-138311812D01*
X146975456Y-138475784D01*
X146876853Y-138623354D01*
X146751354Y-138748853D01*
X146603784Y-138847456D01*
X146439812Y-138915376D01*
X146290512Y-138945073D01*
X146265742Y-138950000D01*
X146088258Y-138950000D01*
X146063488Y-138945073D01*
X145914188Y-138915376D01*
X145750216Y-138847456D01*
X145602646Y-138748853D01*
X145477147Y-138623354D01*
X145378544Y-138475784D01*
X145310624Y-138311812D01*
X145276000Y-138137741D01*
X145276000Y-137960259D01*
X145310624Y-137786188D01*
X145378544Y-137622216D01*
X145477147Y-137474646D01*
X145602646Y-137349147D01*
X145750216Y-137250544D01*
X145914188Y-137182624D01*
X146063488Y-137152927D01*
X146088258Y-137148000D01*
X146265742Y-137148000D01*
X146290512Y-137152927D01*
G37*
G36*
X143750512Y-137152927D02*
G01*
X143899812Y-137182624D01*
X144063784Y-137250544D01*
X144211354Y-137349147D01*
X144336853Y-137474646D01*
X144435456Y-137622216D01*
X144503376Y-137786188D01*
X144538000Y-137960259D01*
X144538000Y-138137741D01*
X144503376Y-138311812D01*
X144435456Y-138475784D01*
X144336853Y-138623354D01*
X144211354Y-138748853D01*
X144063784Y-138847456D01*
X143899812Y-138915376D01*
X143750512Y-138945073D01*
X143725742Y-138950000D01*
X143548258Y-138950000D01*
X143523488Y-138945073D01*
X143374188Y-138915376D01*
X143210216Y-138847456D01*
X143062646Y-138748853D01*
X142937147Y-138623354D01*
X142838544Y-138475784D01*
X142770624Y-138311812D01*
X142736000Y-138137741D01*
X142736000Y-137960259D01*
X142770624Y-137786188D01*
X142838544Y-137622216D01*
X142937147Y-137474646D01*
X143062646Y-137349147D01*
X143210216Y-137250544D01*
X143374188Y-137182624D01*
X143523488Y-137152927D01*
X143548258Y-137148000D01*
X143725742Y-137148000D01*
X143750512Y-137152927D01*
G37*
G36*
X141210512Y-137152927D02*
G01*
X141359812Y-137182624D01*
X141523784Y-137250544D01*
X141671354Y-137349147D01*
X141796853Y-137474646D01*
X141895456Y-137622216D01*
X141963376Y-137786188D01*
X141998000Y-137960259D01*
X141998000Y-138137741D01*
X141963376Y-138311812D01*
X141895456Y-138475784D01*
X141796853Y-138623354D01*
X141671354Y-138748853D01*
X141523784Y-138847456D01*
X141359812Y-138915376D01*
X141210512Y-138945073D01*
X141185742Y-138950000D01*
X141008258Y-138950000D01*
X140983488Y-138945073D01*
X140834188Y-138915376D01*
X140670216Y-138847456D01*
X140522646Y-138748853D01*
X140397147Y-138623354D01*
X140298544Y-138475784D01*
X140230624Y-138311812D01*
X140196000Y-138137741D01*
X140196000Y-137960259D01*
X140230624Y-137786188D01*
X140298544Y-137622216D01*
X140397147Y-137474646D01*
X140522646Y-137349147D01*
X140670216Y-137250544D01*
X140834188Y-137182624D01*
X140983488Y-137152927D01*
X141008258Y-137148000D01*
X141185742Y-137148000D01*
X141210512Y-137152927D01*
G37*
G36*
X138670512Y-137152927D02*
G01*
X138819812Y-137182624D01*
X138983784Y-137250544D01*
X139131354Y-137349147D01*
X139256853Y-137474646D01*
X139355456Y-137622216D01*
X139423376Y-137786188D01*
X139458000Y-137960259D01*
X139458000Y-138137741D01*
X139423376Y-138311812D01*
X139355456Y-138475784D01*
X139256853Y-138623354D01*
X139131354Y-138748853D01*
X138983784Y-138847456D01*
X138819812Y-138915376D01*
X138670512Y-138945073D01*
X138645742Y-138950000D01*
X138468258Y-138950000D01*
X138443488Y-138945073D01*
X138294188Y-138915376D01*
X138130216Y-138847456D01*
X137982646Y-138748853D01*
X137857147Y-138623354D01*
X137758544Y-138475784D01*
X137690624Y-138311812D01*
X137656000Y-138137741D01*
X137656000Y-137960259D01*
X137690624Y-137786188D01*
X137758544Y-137622216D01*
X137857147Y-137474646D01*
X137982646Y-137349147D01*
X138130216Y-137250544D01*
X138294188Y-137182624D01*
X138443488Y-137152927D01*
X138468258Y-137148000D01*
X138645742Y-137148000D01*
X138670512Y-137152927D01*
G37*
G36*
X136130512Y-137152927D02*
G01*
X136279812Y-137182624D01*
X136443784Y-137250544D01*
X136591354Y-137349147D01*
X136716853Y-137474646D01*
X136815456Y-137622216D01*
X136883376Y-137786188D01*
X136918000Y-137960259D01*
X136918000Y-138137741D01*
X136883376Y-138311812D01*
X136815456Y-138475784D01*
X136716853Y-138623354D01*
X136591354Y-138748853D01*
X136443784Y-138847456D01*
X136279812Y-138915376D01*
X136130512Y-138945073D01*
X136105742Y-138950000D01*
X135928258Y-138950000D01*
X135903488Y-138945073D01*
X135754188Y-138915376D01*
X135590216Y-138847456D01*
X135442646Y-138748853D01*
X135317147Y-138623354D01*
X135218544Y-138475784D01*
X135150624Y-138311812D01*
X135116000Y-138137741D01*
X135116000Y-137960259D01*
X135150624Y-137786188D01*
X135218544Y-137622216D01*
X135317147Y-137474646D01*
X135442646Y-137349147D01*
X135590216Y-137250544D01*
X135754188Y-137182624D01*
X135903488Y-137152927D01*
X135928258Y-137148000D01*
X136105742Y-137148000D01*
X136130512Y-137152927D01*
G37*
G36*
X133590512Y-137152927D02*
G01*
X133739812Y-137182624D01*
X133903784Y-137250544D01*
X134051354Y-137349147D01*
X134176853Y-137474646D01*
X134275456Y-137622216D01*
X134343376Y-137786188D01*
X134378000Y-137960259D01*
X134378000Y-138137741D01*
X134343376Y-138311812D01*
X134275456Y-138475784D01*
X134176853Y-138623354D01*
X134051354Y-138748853D01*
X133903784Y-138847456D01*
X133739812Y-138915376D01*
X133590512Y-138945073D01*
X133565742Y-138950000D01*
X133388258Y-138950000D01*
X133363488Y-138945073D01*
X133214188Y-138915376D01*
X133050216Y-138847456D01*
X132902646Y-138748853D01*
X132777147Y-138623354D01*
X132678544Y-138475784D01*
X132610624Y-138311812D01*
X132576000Y-138137741D01*
X132576000Y-137960259D01*
X132610624Y-137786188D01*
X132678544Y-137622216D01*
X132777147Y-137474646D01*
X132902646Y-137349147D01*
X133050216Y-137250544D01*
X133214188Y-137182624D01*
X133363488Y-137152927D01*
X133388258Y-137148000D01*
X133565742Y-137148000D01*
X133590512Y-137152927D01*
G37*
G36*
X153910512Y-137152927D02*
G01*
X154059812Y-137182624D01*
X154223784Y-137250544D01*
X154371354Y-137349147D01*
X154496853Y-137474646D01*
X154595456Y-137622216D01*
X154663376Y-137786188D01*
X154698000Y-137960259D01*
X154698000Y-138137741D01*
X154663376Y-138311812D01*
X154595456Y-138475784D01*
X154496853Y-138623354D01*
X154371354Y-138748853D01*
X154223784Y-138847456D01*
X154059812Y-138915376D01*
X153910512Y-138945073D01*
X153885742Y-138950000D01*
X153708258Y-138950000D01*
X153683488Y-138945073D01*
X153534188Y-138915376D01*
X153370216Y-138847456D01*
X153222646Y-138748853D01*
X153097147Y-138623354D01*
X152998544Y-138475784D01*
X152930624Y-138311812D01*
X152896000Y-138137741D01*
X152896000Y-137960259D01*
X152930624Y-137786188D01*
X152998544Y-137622216D01*
X153097147Y-137474646D01*
X153222646Y-137349147D01*
X153370216Y-137250544D01*
X153534188Y-137182624D01*
X153683488Y-137152927D01*
X153708258Y-137148000D01*
X153885742Y-137148000D01*
X153910512Y-137152927D01*
G37*
G36*
X128510512Y-137152927D02*
G01*
X128659812Y-137182624D01*
X128823784Y-137250544D01*
X128971354Y-137349147D01*
X129096853Y-137474646D01*
X129195456Y-137622216D01*
X129263376Y-137786188D01*
X129298000Y-137960259D01*
X129298000Y-138137741D01*
X129263376Y-138311812D01*
X129195456Y-138475784D01*
X129096853Y-138623354D01*
X128971354Y-138748853D01*
X128823784Y-138847456D01*
X128659812Y-138915376D01*
X128510512Y-138945073D01*
X128485742Y-138950000D01*
X128308258Y-138950000D01*
X128283488Y-138945073D01*
X128134188Y-138915376D01*
X127970216Y-138847456D01*
X127822646Y-138748853D01*
X127697147Y-138623354D01*
X127598544Y-138475784D01*
X127530624Y-138311812D01*
X127496000Y-138137741D01*
X127496000Y-137960259D01*
X127530624Y-137786188D01*
X127598544Y-137622216D01*
X127697147Y-137474646D01*
X127822646Y-137349147D01*
X127970216Y-137250544D01*
X128134188Y-137182624D01*
X128283488Y-137152927D01*
X128308258Y-137148000D01*
X128485742Y-137148000D01*
X128510512Y-137152927D01*
G37*
G36*
X125970512Y-137152927D02*
G01*
X126119812Y-137182624D01*
X126283784Y-137250544D01*
X126431354Y-137349147D01*
X126556853Y-137474646D01*
X126655456Y-137622216D01*
X126723376Y-137786188D01*
X126758000Y-137960259D01*
X126758000Y-138137741D01*
X126723376Y-138311812D01*
X126655456Y-138475784D01*
X126556853Y-138623354D01*
X126431354Y-138748853D01*
X126283784Y-138847456D01*
X126119812Y-138915376D01*
X125970512Y-138945073D01*
X125945742Y-138950000D01*
X125768258Y-138950000D01*
X125743488Y-138945073D01*
X125594188Y-138915376D01*
X125430216Y-138847456D01*
X125282646Y-138748853D01*
X125157147Y-138623354D01*
X125058544Y-138475784D01*
X124990624Y-138311812D01*
X124956000Y-138137741D01*
X124956000Y-137960259D01*
X124990624Y-137786188D01*
X125058544Y-137622216D01*
X125157147Y-137474646D01*
X125282646Y-137349147D01*
X125430216Y-137250544D01*
X125594188Y-137182624D01*
X125743488Y-137152927D01*
X125768258Y-137148000D01*
X125945742Y-137148000D01*
X125970512Y-137152927D01*
G37*
G36*
X123430512Y-137152927D02*
G01*
X123579812Y-137182624D01*
X123743784Y-137250544D01*
X123891354Y-137349147D01*
X124016853Y-137474646D01*
X124115456Y-137622216D01*
X124183376Y-137786188D01*
X124218000Y-137960259D01*
X124218000Y-138137741D01*
X124183376Y-138311812D01*
X124115456Y-138475784D01*
X124016853Y-138623354D01*
X123891354Y-138748853D01*
X123743784Y-138847456D01*
X123579812Y-138915376D01*
X123430512Y-138945073D01*
X123405742Y-138950000D01*
X123228258Y-138950000D01*
X123203488Y-138945073D01*
X123054188Y-138915376D01*
X122890216Y-138847456D01*
X122742646Y-138748853D01*
X122617147Y-138623354D01*
X122518544Y-138475784D01*
X122450624Y-138311812D01*
X122416000Y-138137741D01*
X122416000Y-137960259D01*
X122450624Y-137786188D01*
X122518544Y-137622216D01*
X122617147Y-137474646D01*
X122742646Y-137349147D01*
X122890216Y-137250544D01*
X123054188Y-137182624D01*
X123203488Y-137152927D01*
X123228258Y-137148000D01*
X123405742Y-137148000D01*
X123430512Y-137152927D01*
G37*
G36*
X120890512Y-137152927D02*
G01*
X121039812Y-137182624D01*
X121203784Y-137250544D01*
X121351354Y-137349147D01*
X121476853Y-137474646D01*
X121575456Y-137622216D01*
X121643376Y-137786188D01*
X121678000Y-137960259D01*
X121678000Y-138137741D01*
X121643376Y-138311812D01*
X121575456Y-138475784D01*
X121476853Y-138623354D01*
X121351354Y-138748853D01*
X121203784Y-138847456D01*
X121039812Y-138915376D01*
X120890512Y-138945073D01*
X120865742Y-138950000D01*
X120688258Y-138950000D01*
X120663488Y-138945073D01*
X120514188Y-138915376D01*
X120350216Y-138847456D01*
X120202646Y-138748853D01*
X120077147Y-138623354D01*
X119978544Y-138475784D01*
X119910624Y-138311812D01*
X119876000Y-138137741D01*
X119876000Y-137960259D01*
X119910624Y-137786188D01*
X119978544Y-137622216D01*
X120077147Y-137474646D01*
X120202646Y-137349147D01*
X120350216Y-137250544D01*
X120514188Y-137182624D01*
X120663488Y-137152927D01*
X120688258Y-137148000D01*
X120865742Y-137148000D01*
X120890512Y-137152927D01*
G37*
G36*
X118350512Y-137152927D02*
G01*
X118499812Y-137182624D01*
X118663784Y-137250544D01*
X118811354Y-137349147D01*
X118936853Y-137474646D01*
X119035456Y-137622216D01*
X119103376Y-137786188D01*
X119138000Y-137960259D01*
X119138000Y-138137741D01*
X119103376Y-138311812D01*
X119035456Y-138475784D01*
X118936853Y-138623354D01*
X118811354Y-138748853D01*
X118663784Y-138847456D01*
X118499812Y-138915376D01*
X118350512Y-138945073D01*
X118325742Y-138950000D01*
X118148258Y-138950000D01*
X118123488Y-138945073D01*
X117974188Y-138915376D01*
X117810216Y-138847456D01*
X117662646Y-138748853D01*
X117537147Y-138623354D01*
X117438544Y-138475784D01*
X117370624Y-138311812D01*
X117336000Y-138137741D01*
X117336000Y-137960259D01*
X117370624Y-137786188D01*
X117438544Y-137622216D01*
X117537147Y-137474646D01*
X117662646Y-137349147D01*
X117810216Y-137250544D01*
X117974188Y-137182624D01*
X118123488Y-137152927D01*
X118148258Y-137148000D01*
X118325742Y-137148000D01*
X118350512Y-137152927D01*
G37*
G36*
X186925796Y-134611989D02*
G01*
X187079812Y-134642624D01*
X187243784Y-134710544D01*
X187391354Y-134809147D01*
X187516853Y-134934646D01*
X187615456Y-135082216D01*
X187683376Y-135246188D01*
X187718000Y-135420259D01*
X187718000Y-135597741D01*
X187683376Y-135771812D01*
X187615456Y-135935784D01*
X187516853Y-136083354D01*
X187391354Y-136208853D01*
X187243784Y-136307456D01*
X187079812Y-136375376D01*
X186931341Y-136404908D01*
X186905742Y-136410000D01*
X186728258Y-136410000D01*
X186702659Y-136404908D01*
X186554188Y-136375376D01*
X186390216Y-136307456D01*
X186242646Y-136208853D01*
X186117147Y-136083354D01*
X186018544Y-135935784D01*
X185950624Y-135771812D01*
X185916000Y-135597741D01*
X185916000Y-135420259D01*
X185950624Y-135246188D01*
X186018544Y-135082216D01*
X186117147Y-134934646D01*
X186242646Y-134809147D01*
X186390216Y-134710544D01*
X186554188Y-134642624D01*
X186708204Y-134611989D01*
X186728258Y-134608000D01*
X186905742Y-134608000D01*
X186925796Y-134611989D01*
G37*
G36*
X189465796Y-134611989D02*
G01*
X189619812Y-134642624D01*
X189783784Y-134710544D01*
X189931354Y-134809147D01*
X190056853Y-134934646D01*
X190155456Y-135082216D01*
X190223376Y-135246188D01*
X190258000Y-135420259D01*
X190258000Y-135597741D01*
X190223376Y-135771812D01*
X190155456Y-135935784D01*
X190056853Y-136083354D01*
X189931354Y-136208853D01*
X189783784Y-136307456D01*
X189619812Y-136375376D01*
X189471341Y-136404908D01*
X189445742Y-136410000D01*
X189268258Y-136410000D01*
X189242659Y-136404908D01*
X189094188Y-136375376D01*
X188930216Y-136307456D01*
X188782646Y-136208853D01*
X188657147Y-136083354D01*
X188558544Y-135935784D01*
X188490624Y-135771812D01*
X188456000Y-135597741D01*
X188456000Y-135420259D01*
X188490624Y-135246188D01*
X188558544Y-135082216D01*
X188657147Y-134934646D01*
X188782646Y-134809147D01*
X188930216Y-134710544D01*
X189094188Y-134642624D01*
X189248204Y-134611989D01*
X189268258Y-134608000D01*
X189445742Y-134608000D01*
X189465796Y-134611989D01*
G37*
G36*
X156445796Y-134611989D02*
G01*
X156599812Y-134642624D01*
X156763784Y-134710544D01*
X156911354Y-134809147D01*
X157036853Y-134934646D01*
X157135456Y-135082216D01*
X157203376Y-135246188D01*
X157238000Y-135420259D01*
X157238000Y-135597741D01*
X157203376Y-135771812D01*
X157135456Y-135935784D01*
X157036853Y-136083354D01*
X156911354Y-136208853D01*
X156763784Y-136307456D01*
X156599812Y-136375376D01*
X156451341Y-136404908D01*
X156425742Y-136410000D01*
X156248258Y-136410000D01*
X156222659Y-136404908D01*
X156074188Y-136375376D01*
X155910216Y-136307456D01*
X155762646Y-136208853D01*
X155637147Y-136083354D01*
X155538544Y-135935784D01*
X155470624Y-135771812D01*
X155436000Y-135597741D01*
X155436000Y-135420259D01*
X155470624Y-135246188D01*
X155538544Y-135082216D01*
X155637147Y-134934646D01*
X155762646Y-134809147D01*
X155910216Y-134710544D01*
X156074188Y-134642624D01*
X156228204Y-134611989D01*
X156248258Y-134608000D01*
X156425742Y-134608000D01*
X156445796Y-134611989D01*
G37*
G36*
X153905796Y-134611989D02*
G01*
X154059812Y-134642624D01*
X154223784Y-134710544D01*
X154371354Y-134809147D01*
X154496853Y-134934646D01*
X154595456Y-135082216D01*
X154663376Y-135246188D01*
X154698000Y-135420259D01*
X154698000Y-135597741D01*
X154663376Y-135771812D01*
X154595456Y-135935784D01*
X154496853Y-136083354D01*
X154371354Y-136208853D01*
X154223784Y-136307456D01*
X154059812Y-136375376D01*
X153911341Y-136404908D01*
X153885742Y-136410000D01*
X153708258Y-136410000D01*
X153682659Y-136404908D01*
X153534188Y-136375376D01*
X153370216Y-136307456D01*
X153222646Y-136208853D01*
X153097147Y-136083354D01*
X152998544Y-135935784D01*
X152930624Y-135771812D01*
X152896000Y-135597741D01*
X152896000Y-135420259D01*
X152930624Y-135246188D01*
X152998544Y-135082216D01*
X153097147Y-134934646D01*
X153222646Y-134809147D01*
X153370216Y-134710544D01*
X153534188Y-134642624D01*
X153688204Y-134611989D01*
X153708258Y-134608000D01*
X153885742Y-134608000D01*
X153905796Y-134611989D01*
G37*
G36*
X158985796Y-134611989D02*
G01*
X159139812Y-134642624D01*
X159303784Y-134710544D01*
X159451354Y-134809147D01*
X159576853Y-134934646D01*
X159675456Y-135082216D01*
X159743376Y-135246188D01*
X159778000Y-135420259D01*
X159778000Y-135597741D01*
X159743376Y-135771812D01*
X159675456Y-135935784D01*
X159576853Y-136083354D01*
X159451354Y-136208853D01*
X159303784Y-136307456D01*
X159139812Y-136375376D01*
X158991341Y-136404908D01*
X158965742Y-136410000D01*
X158788258Y-136410000D01*
X158762659Y-136404908D01*
X158614188Y-136375376D01*
X158450216Y-136307456D01*
X158302646Y-136208853D01*
X158177147Y-136083354D01*
X158078544Y-135935784D01*
X158010624Y-135771812D01*
X157976000Y-135597741D01*
X157976000Y-135420259D01*
X158010624Y-135246188D01*
X158078544Y-135082216D01*
X158177147Y-134934646D01*
X158302646Y-134809147D01*
X158450216Y-134710544D01*
X158614188Y-134642624D01*
X158768204Y-134611989D01*
X158788258Y-134608000D01*
X158965742Y-134608000D01*
X158985796Y-134611989D01*
G37*
G36*
X161525796Y-134611989D02*
G01*
X161679812Y-134642624D01*
X161843784Y-134710544D01*
X161991354Y-134809147D01*
X162116853Y-134934646D01*
X162215456Y-135082216D01*
X162283376Y-135246188D01*
X162318000Y-135420259D01*
X162318000Y-135597741D01*
X162283376Y-135771812D01*
X162215456Y-135935784D01*
X162116853Y-136083354D01*
X161991354Y-136208853D01*
X161843784Y-136307456D01*
X161679812Y-136375376D01*
X161531341Y-136404908D01*
X161505742Y-136410000D01*
X161328258Y-136410000D01*
X161302659Y-136404908D01*
X161154188Y-136375376D01*
X160990216Y-136307456D01*
X160842646Y-136208853D01*
X160717147Y-136083354D01*
X160618544Y-135935784D01*
X160550624Y-135771812D01*
X160516000Y-135597741D01*
X160516000Y-135420259D01*
X160550624Y-135246188D01*
X160618544Y-135082216D01*
X160717147Y-134934646D01*
X160842646Y-134809147D01*
X160990216Y-134710544D01*
X161154188Y-134642624D01*
X161308204Y-134611989D01*
X161328258Y-134608000D01*
X161505742Y-134608000D01*
X161525796Y-134611989D01*
G37*
G36*
X164065796Y-134611989D02*
G01*
X164219812Y-134642624D01*
X164383784Y-134710544D01*
X164531354Y-134809147D01*
X164656853Y-134934646D01*
X164755456Y-135082216D01*
X164823376Y-135246188D01*
X164858000Y-135420259D01*
X164858000Y-135597741D01*
X164823376Y-135771812D01*
X164755456Y-135935784D01*
X164656853Y-136083354D01*
X164531354Y-136208853D01*
X164383784Y-136307456D01*
X164219812Y-136375376D01*
X164071341Y-136404908D01*
X164045742Y-136410000D01*
X163868258Y-136410000D01*
X163842659Y-136404908D01*
X163694188Y-136375376D01*
X163530216Y-136307456D01*
X163382646Y-136208853D01*
X163257147Y-136083354D01*
X163158544Y-135935784D01*
X163090624Y-135771812D01*
X163056000Y-135597741D01*
X163056000Y-135420259D01*
X163090624Y-135246188D01*
X163158544Y-135082216D01*
X163257147Y-134934646D01*
X163382646Y-134809147D01*
X163530216Y-134710544D01*
X163694188Y-134642624D01*
X163848204Y-134611989D01*
X163868258Y-134608000D01*
X164045742Y-134608000D01*
X164065796Y-134611989D01*
G37*
G36*
X166605796Y-134611989D02*
G01*
X166759812Y-134642624D01*
X166923784Y-134710544D01*
X167071354Y-134809147D01*
X167196853Y-134934646D01*
X167295456Y-135082216D01*
X167363376Y-135246188D01*
X167398000Y-135420259D01*
X167398000Y-135597741D01*
X167363376Y-135771812D01*
X167295456Y-135935784D01*
X167196853Y-136083354D01*
X167071354Y-136208853D01*
X166923784Y-136307456D01*
X166759812Y-136375376D01*
X166611341Y-136404908D01*
X166585742Y-136410000D01*
X166408258Y-136410000D01*
X166382659Y-136404908D01*
X166234188Y-136375376D01*
X166070216Y-136307456D01*
X165922646Y-136208853D01*
X165797147Y-136083354D01*
X165698544Y-135935784D01*
X165630624Y-135771812D01*
X165596000Y-135597741D01*
X165596000Y-135420259D01*
X165630624Y-135246188D01*
X165698544Y-135082216D01*
X165797147Y-134934646D01*
X165922646Y-134809147D01*
X166070216Y-134710544D01*
X166234188Y-134642624D01*
X166388204Y-134611989D01*
X166408258Y-134608000D01*
X166585742Y-134608000D01*
X166605796Y-134611989D01*
G37*
G36*
X169145796Y-134611989D02*
G01*
X169299812Y-134642624D01*
X169463784Y-134710544D01*
X169611354Y-134809147D01*
X169736853Y-134934646D01*
X169835456Y-135082216D01*
X169903376Y-135246188D01*
X169938000Y-135420259D01*
X169938000Y-135597741D01*
X169903376Y-135771812D01*
X169835456Y-135935784D01*
X169736853Y-136083354D01*
X169611354Y-136208853D01*
X169463784Y-136307456D01*
X169299812Y-136375376D01*
X169151341Y-136404908D01*
X169125742Y-136410000D01*
X168948258Y-136410000D01*
X168922659Y-136404908D01*
X168774188Y-136375376D01*
X168610216Y-136307456D01*
X168462646Y-136208853D01*
X168337147Y-136083354D01*
X168238544Y-135935784D01*
X168170624Y-135771812D01*
X168136000Y-135597741D01*
X168136000Y-135420259D01*
X168170624Y-135246188D01*
X168238544Y-135082216D01*
X168337147Y-134934646D01*
X168462646Y-134809147D01*
X168610216Y-134710544D01*
X168774188Y-134642624D01*
X168928204Y-134611989D01*
X168948258Y-134608000D01*
X169125742Y-134608000D01*
X169145796Y-134611989D01*
G37*
G36*
X171685796Y-134611989D02*
G01*
X171839812Y-134642624D01*
X172003784Y-134710544D01*
X172151354Y-134809147D01*
X172276853Y-134934646D01*
X172375456Y-135082216D01*
X172443376Y-135246188D01*
X172478000Y-135420259D01*
X172478000Y-135597741D01*
X172443376Y-135771812D01*
X172375456Y-135935784D01*
X172276853Y-136083354D01*
X172151354Y-136208853D01*
X172003784Y-136307456D01*
X171839812Y-136375376D01*
X171691341Y-136404908D01*
X171665742Y-136410000D01*
X171488258Y-136410000D01*
X171462659Y-136404908D01*
X171314188Y-136375376D01*
X171150216Y-136307456D01*
X171002646Y-136208853D01*
X170877147Y-136083354D01*
X170778544Y-135935784D01*
X170710624Y-135771812D01*
X170676000Y-135597741D01*
X170676000Y-135420259D01*
X170710624Y-135246188D01*
X170778544Y-135082216D01*
X170877147Y-134934646D01*
X171002646Y-134809147D01*
X171150216Y-134710544D01*
X171314188Y-134642624D01*
X171468204Y-134611989D01*
X171488258Y-134608000D01*
X171665742Y-134608000D01*
X171685796Y-134611989D01*
G37*
G36*
X174225796Y-134611989D02*
G01*
X174379812Y-134642624D01*
X174543784Y-134710544D01*
X174691354Y-134809147D01*
X174816853Y-134934646D01*
X174915456Y-135082216D01*
X174983376Y-135246188D01*
X175018000Y-135420259D01*
X175018000Y-135597741D01*
X174983376Y-135771812D01*
X174915456Y-135935784D01*
X174816853Y-136083354D01*
X174691354Y-136208853D01*
X174543784Y-136307456D01*
X174379812Y-136375376D01*
X174231341Y-136404908D01*
X174205742Y-136410000D01*
X174028258Y-136410000D01*
X174002659Y-136404908D01*
X173854188Y-136375376D01*
X173690216Y-136307456D01*
X173542646Y-136208853D01*
X173417147Y-136083354D01*
X173318544Y-135935784D01*
X173250624Y-135771812D01*
X173216000Y-135597741D01*
X173216000Y-135420259D01*
X173250624Y-135246188D01*
X173318544Y-135082216D01*
X173417147Y-134934646D01*
X173542646Y-134809147D01*
X173690216Y-134710544D01*
X173854188Y-134642624D01*
X174008204Y-134611989D01*
X174028258Y-134608000D01*
X174205742Y-134608000D01*
X174225796Y-134611989D01*
G37*
G36*
X176765796Y-134611989D02*
G01*
X176919812Y-134642624D01*
X177083784Y-134710544D01*
X177231354Y-134809147D01*
X177356853Y-134934646D01*
X177455456Y-135082216D01*
X177523376Y-135246188D01*
X177558000Y-135420259D01*
X177558000Y-135597741D01*
X177523376Y-135771812D01*
X177455456Y-135935784D01*
X177356853Y-136083354D01*
X177231354Y-136208853D01*
X177083784Y-136307456D01*
X176919812Y-136375376D01*
X176771341Y-136404908D01*
X176745742Y-136410000D01*
X176568258Y-136410000D01*
X176542659Y-136404908D01*
X176394188Y-136375376D01*
X176230216Y-136307456D01*
X176082646Y-136208853D01*
X175957147Y-136083354D01*
X175858544Y-135935784D01*
X175790624Y-135771812D01*
X175756000Y-135597741D01*
X175756000Y-135420259D01*
X175790624Y-135246188D01*
X175858544Y-135082216D01*
X175957147Y-134934646D01*
X176082646Y-134809147D01*
X176230216Y-134710544D01*
X176394188Y-134642624D01*
X176548204Y-134611989D01*
X176568258Y-134608000D01*
X176745742Y-134608000D01*
X176765796Y-134611989D01*
G37*
G36*
X179305796Y-134611989D02*
G01*
X179459812Y-134642624D01*
X179623784Y-134710544D01*
X179771354Y-134809147D01*
X179896853Y-134934646D01*
X179995456Y-135082216D01*
X180063376Y-135246188D01*
X180098000Y-135420259D01*
X180098000Y-135597741D01*
X180063376Y-135771812D01*
X179995456Y-135935784D01*
X179896853Y-136083354D01*
X179771354Y-136208853D01*
X179623784Y-136307456D01*
X179459812Y-136375376D01*
X179311341Y-136404908D01*
X179285742Y-136410000D01*
X179108258Y-136410000D01*
X179082659Y-136404908D01*
X178934188Y-136375376D01*
X178770216Y-136307456D01*
X178622646Y-136208853D01*
X178497147Y-136083354D01*
X178398544Y-135935784D01*
X178330624Y-135771812D01*
X178296000Y-135597741D01*
X178296000Y-135420259D01*
X178330624Y-135246188D01*
X178398544Y-135082216D01*
X178497147Y-134934646D01*
X178622646Y-134809147D01*
X178770216Y-134710544D01*
X178934188Y-134642624D01*
X179088204Y-134611989D01*
X179108258Y-134608000D01*
X179285742Y-134608000D01*
X179305796Y-134611989D01*
G37*
G36*
X181845796Y-134611989D02*
G01*
X181999812Y-134642624D01*
X182163784Y-134710544D01*
X182311354Y-134809147D01*
X182436853Y-134934646D01*
X182535456Y-135082216D01*
X182603376Y-135246188D01*
X182638000Y-135420259D01*
X182638000Y-135597741D01*
X182603376Y-135771812D01*
X182535456Y-135935784D01*
X182436853Y-136083354D01*
X182311354Y-136208853D01*
X182163784Y-136307456D01*
X181999812Y-136375376D01*
X181851341Y-136404908D01*
X181825742Y-136410000D01*
X181648258Y-136410000D01*
X181622659Y-136404908D01*
X181474188Y-136375376D01*
X181310216Y-136307456D01*
X181162646Y-136208853D01*
X181037147Y-136083354D01*
X180938544Y-135935784D01*
X180870624Y-135771812D01*
X180836000Y-135597741D01*
X180836000Y-135420259D01*
X180870624Y-135246188D01*
X180938544Y-135082216D01*
X181037147Y-134934646D01*
X181162646Y-134809147D01*
X181310216Y-134710544D01*
X181474188Y-134642624D01*
X181628204Y-134611989D01*
X181648258Y-134608000D01*
X181825742Y-134608000D01*
X181845796Y-134611989D01*
G37*
G36*
X184385796Y-134611989D02*
G01*
X184539812Y-134642624D01*
X184703784Y-134710544D01*
X184851354Y-134809147D01*
X184976853Y-134934646D01*
X185075456Y-135082216D01*
X185143376Y-135246188D01*
X185178000Y-135420259D01*
X185178000Y-135597741D01*
X185143376Y-135771812D01*
X185075456Y-135935784D01*
X184976853Y-136083354D01*
X184851354Y-136208853D01*
X184703784Y-136307456D01*
X184539812Y-136375376D01*
X184391341Y-136404908D01*
X184365742Y-136410000D01*
X184188258Y-136410000D01*
X184162659Y-136404908D01*
X184014188Y-136375376D01*
X183850216Y-136307456D01*
X183702646Y-136208853D01*
X183577147Y-136083354D01*
X183478544Y-135935784D01*
X183410624Y-135771812D01*
X183376000Y-135597741D01*
X183376000Y-135420259D01*
X183410624Y-135246188D01*
X183478544Y-135082216D01*
X183577147Y-134934646D01*
X183702646Y-134809147D01*
X183850216Y-134710544D01*
X184014188Y-134642624D01*
X184168204Y-134611989D01*
X184188258Y-134608000D01*
X184365742Y-134608000D01*
X184385796Y-134611989D01*
G37*
G36*
X151365796Y-134611989D02*
G01*
X151519812Y-134642624D01*
X151683784Y-134710544D01*
X151831354Y-134809147D01*
X151956853Y-134934646D01*
X152055456Y-135082216D01*
X152123376Y-135246188D01*
X152158000Y-135420259D01*
X152158000Y-135597741D01*
X152123376Y-135771812D01*
X152055456Y-135935784D01*
X151956853Y-136083354D01*
X151831354Y-136208853D01*
X151683784Y-136307456D01*
X151519812Y-136375376D01*
X151371341Y-136404908D01*
X151345742Y-136410000D01*
X151168258Y-136410000D01*
X151142659Y-136404908D01*
X150994188Y-136375376D01*
X150830216Y-136307456D01*
X150682646Y-136208853D01*
X150557147Y-136083354D01*
X150458544Y-135935784D01*
X150390624Y-135771812D01*
X150356000Y-135597741D01*
X150356000Y-135420259D01*
X150390624Y-135246188D01*
X150458544Y-135082216D01*
X150557147Y-134934646D01*
X150682646Y-134809147D01*
X150830216Y-134710544D01*
X150994188Y-134642624D01*
X151148204Y-134611989D01*
X151168258Y-134608000D01*
X151345742Y-134608000D01*
X151365796Y-134611989D01*
G37*
G36*
X148825796Y-134611989D02*
G01*
X148979812Y-134642624D01*
X149143784Y-134710544D01*
X149291354Y-134809147D01*
X149416853Y-134934646D01*
X149515456Y-135082216D01*
X149583376Y-135246188D01*
X149618000Y-135420259D01*
X149618000Y-135597741D01*
X149583376Y-135771812D01*
X149515456Y-135935784D01*
X149416853Y-136083354D01*
X149291354Y-136208853D01*
X149143784Y-136307456D01*
X148979812Y-136375376D01*
X148831341Y-136404908D01*
X148805742Y-136410000D01*
X148628258Y-136410000D01*
X148602659Y-136404908D01*
X148454188Y-136375376D01*
X148290216Y-136307456D01*
X148142646Y-136208853D01*
X148017147Y-136083354D01*
X147918544Y-135935784D01*
X147850624Y-135771812D01*
X147816000Y-135597741D01*
X147816000Y-135420259D01*
X147850624Y-135246188D01*
X147918544Y-135082216D01*
X148017147Y-134934646D01*
X148142646Y-134809147D01*
X148290216Y-134710544D01*
X148454188Y-134642624D01*
X148608204Y-134611989D01*
X148628258Y-134608000D01*
X148805742Y-134608000D01*
X148825796Y-134611989D01*
G37*
G36*
X192655600Y-134611989D02*
G01*
X192688652Y-134622015D01*
X192719103Y-134638292D01*
X192745799Y-134660201D01*
X192767708Y-134686897D01*
X192783985Y-134717348D01*
X192794011Y-134750400D01*
X192798000Y-134790903D01*
X192798000Y-136227097D01*
X192794011Y-136267600D01*
X192783985Y-136300652D01*
X192767708Y-136331103D01*
X192745799Y-136357799D01*
X192719103Y-136379708D01*
X192688652Y-136395985D01*
X192655600Y-136406011D01*
X192615097Y-136410000D01*
X191178903Y-136410000D01*
X191138400Y-136406011D01*
X191105348Y-136395985D01*
X191074897Y-136379708D01*
X191048201Y-136357799D01*
X191026292Y-136331103D01*
X191010015Y-136300652D01*
X190999989Y-136267600D01*
X190996000Y-136227097D01*
X190996000Y-134790903D01*
X190999989Y-134750400D01*
X191010015Y-134717348D01*
X191026292Y-134686897D01*
X191048201Y-134660201D01*
X191074897Y-134638292D01*
X191105348Y-134622015D01*
X191138400Y-134611989D01*
X191178903Y-134608000D01*
X192615097Y-134608000D01*
X192655600Y-134611989D01*
G37*
G36*
X146285796Y-134611989D02*
G01*
X146439812Y-134642624D01*
X146603784Y-134710544D01*
X146751354Y-134809147D01*
X146876853Y-134934646D01*
X146975456Y-135082216D01*
X147043376Y-135246188D01*
X147078000Y-135420259D01*
X147078000Y-135597741D01*
X147043376Y-135771812D01*
X146975456Y-135935784D01*
X146876853Y-136083354D01*
X146751354Y-136208853D01*
X146603784Y-136307456D01*
X146439812Y-136375376D01*
X146291341Y-136404908D01*
X146265742Y-136410000D01*
X146088258Y-136410000D01*
X146062659Y-136404908D01*
X145914188Y-136375376D01*
X145750216Y-136307456D01*
X145602646Y-136208853D01*
X145477147Y-136083354D01*
X145378544Y-135935784D01*
X145310624Y-135771812D01*
X145276000Y-135597741D01*
X145276000Y-135420259D01*
X145310624Y-135246188D01*
X145378544Y-135082216D01*
X145477147Y-134934646D01*
X145602646Y-134809147D01*
X145750216Y-134710544D01*
X145914188Y-134642624D01*
X146068204Y-134611989D01*
X146088258Y-134608000D01*
X146265742Y-134608000D01*
X146285796Y-134611989D01*
G37*
G36*
X143745796Y-134611989D02*
G01*
X143899812Y-134642624D01*
X144063784Y-134710544D01*
X144211354Y-134809147D01*
X144336853Y-134934646D01*
X144435456Y-135082216D01*
X144503376Y-135246188D01*
X144538000Y-135420259D01*
X144538000Y-135597741D01*
X144503376Y-135771812D01*
X144435456Y-135935784D01*
X144336853Y-136083354D01*
X144211354Y-136208853D01*
X144063784Y-136307456D01*
X143899812Y-136375376D01*
X143751341Y-136404908D01*
X143725742Y-136410000D01*
X143548258Y-136410000D01*
X143522659Y-136404908D01*
X143374188Y-136375376D01*
X143210216Y-136307456D01*
X143062646Y-136208853D01*
X142937147Y-136083354D01*
X142838544Y-135935784D01*
X142770624Y-135771812D01*
X142736000Y-135597741D01*
X142736000Y-135420259D01*
X142770624Y-135246188D01*
X142838544Y-135082216D01*
X142937147Y-134934646D01*
X143062646Y-134809147D01*
X143210216Y-134710544D01*
X143374188Y-134642624D01*
X143528204Y-134611989D01*
X143548258Y-134608000D01*
X143725742Y-134608000D01*
X143745796Y-134611989D01*
G37*
G36*
X141205796Y-134611989D02*
G01*
X141359812Y-134642624D01*
X141523784Y-134710544D01*
X141671354Y-134809147D01*
X141796853Y-134934646D01*
X141895456Y-135082216D01*
X141963376Y-135246188D01*
X141998000Y-135420259D01*
X141998000Y-135597741D01*
X141963376Y-135771812D01*
X141895456Y-135935784D01*
X141796853Y-136083354D01*
X141671354Y-136208853D01*
X141523784Y-136307456D01*
X141359812Y-136375376D01*
X141211341Y-136404908D01*
X141185742Y-136410000D01*
X141008258Y-136410000D01*
X140982659Y-136404908D01*
X140834188Y-136375376D01*
X140670216Y-136307456D01*
X140522646Y-136208853D01*
X140397147Y-136083354D01*
X140298544Y-135935784D01*
X140230624Y-135771812D01*
X140196000Y-135597741D01*
X140196000Y-135420259D01*
X140230624Y-135246188D01*
X140298544Y-135082216D01*
X140397147Y-134934646D01*
X140522646Y-134809147D01*
X140670216Y-134710544D01*
X140834188Y-134642624D01*
X140988204Y-134611989D01*
X141008258Y-134608000D01*
X141185742Y-134608000D01*
X141205796Y-134611989D01*
G37*
G36*
X138665796Y-134611989D02*
G01*
X138819812Y-134642624D01*
X138983784Y-134710544D01*
X139131354Y-134809147D01*
X139256853Y-134934646D01*
X139355456Y-135082216D01*
X139423376Y-135246188D01*
X139458000Y-135420259D01*
X139458000Y-135597741D01*
X139423376Y-135771812D01*
X139355456Y-135935784D01*
X139256853Y-136083354D01*
X139131354Y-136208853D01*
X138983784Y-136307456D01*
X138819812Y-136375376D01*
X138671341Y-136404908D01*
X138645742Y-136410000D01*
X138468258Y-136410000D01*
X138442659Y-136404908D01*
X138294188Y-136375376D01*
X138130216Y-136307456D01*
X137982646Y-136208853D01*
X137857147Y-136083354D01*
X137758544Y-135935784D01*
X137690624Y-135771812D01*
X137656000Y-135597741D01*
X137656000Y-135420259D01*
X137690624Y-135246188D01*
X137758544Y-135082216D01*
X137857147Y-134934646D01*
X137982646Y-134809147D01*
X138130216Y-134710544D01*
X138294188Y-134642624D01*
X138448204Y-134611989D01*
X138468258Y-134608000D01*
X138645742Y-134608000D01*
X138665796Y-134611989D01*
G37*
G36*
X136125796Y-134611989D02*
G01*
X136279812Y-134642624D01*
X136443784Y-134710544D01*
X136591354Y-134809147D01*
X136716853Y-134934646D01*
X136815456Y-135082216D01*
X136883376Y-135246188D01*
X136918000Y-135420259D01*
X136918000Y-135597741D01*
X136883376Y-135771812D01*
X136815456Y-135935784D01*
X136716853Y-136083354D01*
X136591354Y-136208853D01*
X136443784Y-136307456D01*
X136279812Y-136375376D01*
X136131341Y-136404908D01*
X136105742Y-136410000D01*
X135928258Y-136410000D01*
X135902659Y-136404908D01*
X135754188Y-136375376D01*
X135590216Y-136307456D01*
X135442646Y-136208853D01*
X135317147Y-136083354D01*
X135218544Y-135935784D01*
X135150624Y-135771812D01*
X135116000Y-135597741D01*
X135116000Y-135420259D01*
X135150624Y-135246188D01*
X135218544Y-135082216D01*
X135317147Y-134934646D01*
X135442646Y-134809147D01*
X135590216Y-134710544D01*
X135754188Y-134642624D01*
X135908204Y-134611989D01*
X135928258Y-134608000D01*
X136105742Y-134608000D01*
X136125796Y-134611989D01*
G37*
G36*
X133585796Y-134611989D02*
G01*
X133739812Y-134642624D01*
X133903784Y-134710544D01*
X134051354Y-134809147D01*
X134176853Y-134934646D01*
X134275456Y-135082216D01*
X134343376Y-135246188D01*
X134378000Y-135420259D01*
X134378000Y-135597741D01*
X134343376Y-135771812D01*
X134275456Y-135935784D01*
X134176853Y-136083354D01*
X134051354Y-136208853D01*
X133903784Y-136307456D01*
X133739812Y-136375376D01*
X133591341Y-136404908D01*
X133565742Y-136410000D01*
X133388258Y-136410000D01*
X133362659Y-136404908D01*
X133214188Y-136375376D01*
X133050216Y-136307456D01*
X132902646Y-136208853D01*
X132777147Y-136083354D01*
X132678544Y-135935784D01*
X132610624Y-135771812D01*
X132576000Y-135597741D01*
X132576000Y-135420259D01*
X132610624Y-135246188D01*
X132678544Y-135082216D01*
X132777147Y-134934646D01*
X132902646Y-134809147D01*
X133050216Y-134710544D01*
X133214188Y-134642624D01*
X133368204Y-134611989D01*
X133388258Y-134608000D01*
X133565742Y-134608000D01*
X133585796Y-134611989D01*
G37*
G36*
X131045796Y-134611989D02*
G01*
X131199812Y-134642624D01*
X131363784Y-134710544D01*
X131511354Y-134809147D01*
X131636853Y-134934646D01*
X131735456Y-135082216D01*
X131803376Y-135246188D01*
X131838000Y-135420259D01*
X131838000Y-135597741D01*
X131803376Y-135771812D01*
X131735456Y-135935784D01*
X131636853Y-136083354D01*
X131511354Y-136208853D01*
X131363784Y-136307456D01*
X131199812Y-136375376D01*
X131051341Y-136404908D01*
X131025742Y-136410000D01*
X130848258Y-136410000D01*
X130822659Y-136404908D01*
X130674188Y-136375376D01*
X130510216Y-136307456D01*
X130362646Y-136208853D01*
X130237147Y-136083354D01*
X130138544Y-135935784D01*
X130070624Y-135771812D01*
X130036000Y-135597741D01*
X130036000Y-135420259D01*
X130070624Y-135246188D01*
X130138544Y-135082216D01*
X130237147Y-134934646D01*
X130362646Y-134809147D01*
X130510216Y-134710544D01*
X130674188Y-134642624D01*
X130828204Y-134611989D01*
X130848258Y-134608000D01*
X131025742Y-134608000D01*
X131045796Y-134611989D01*
G37*
G36*
X125965796Y-134611989D02*
G01*
X126119812Y-134642624D01*
X126283784Y-134710544D01*
X126431354Y-134809147D01*
X126556853Y-134934646D01*
X126655456Y-135082216D01*
X126723376Y-135246188D01*
X126758000Y-135420259D01*
X126758000Y-135597741D01*
X126723376Y-135771812D01*
X126655456Y-135935784D01*
X126556853Y-136083354D01*
X126431354Y-136208853D01*
X126283784Y-136307456D01*
X126119812Y-136375376D01*
X125971341Y-136404908D01*
X125945742Y-136410000D01*
X125768258Y-136410000D01*
X125742659Y-136404908D01*
X125594188Y-136375376D01*
X125430216Y-136307456D01*
X125282646Y-136208853D01*
X125157147Y-136083354D01*
X125058544Y-135935784D01*
X124990624Y-135771812D01*
X124956000Y-135597741D01*
X124956000Y-135420259D01*
X124990624Y-135246188D01*
X125058544Y-135082216D01*
X125157147Y-134934646D01*
X125282646Y-134809147D01*
X125430216Y-134710544D01*
X125594188Y-134642624D01*
X125748204Y-134611989D01*
X125768258Y-134608000D01*
X125945742Y-134608000D01*
X125965796Y-134611989D01*
G37*
G36*
X123425796Y-134611989D02*
G01*
X123579812Y-134642624D01*
X123743784Y-134710544D01*
X123891354Y-134809147D01*
X124016853Y-134934646D01*
X124115456Y-135082216D01*
X124183376Y-135246188D01*
X124218000Y-135420259D01*
X124218000Y-135597741D01*
X124183376Y-135771812D01*
X124115456Y-135935784D01*
X124016853Y-136083354D01*
X123891354Y-136208853D01*
X123743784Y-136307456D01*
X123579812Y-136375376D01*
X123431341Y-136404908D01*
X123405742Y-136410000D01*
X123228258Y-136410000D01*
X123202659Y-136404908D01*
X123054188Y-136375376D01*
X122890216Y-136307456D01*
X122742646Y-136208853D01*
X122617147Y-136083354D01*
X122518544Y-135935784D01*
X122450624Y-135771812D01*
X122416000Y-135597741D01*
X122416000Y-135420259D01*
X122450624Y-135246188D01*
X122518544Y-135082216D01*
X122617147Y-134934646D01*
X122742646Y-134809147D01*
X122890216Y-134710544D01*
X123054188Y-134642624D01*
X123208204Y-134611989D01*
X123228258Y-134608000D01*
X123405742Y-134608000D01*
X123425796Y-134611989D01*
G37*
G36*
X120885796Y-134611989D02*
G01*
X121039812Y-134642624D01*
X121203784Y-134710544D01*
X121351354Y-134809147D01*
X121476853Y-134934646D01*
X121575456Y-135082216D01*
X121643376Y-135246188D01*
X121678000Y-135420259D01*
X121678000Y-135597741D01*
X121643376Y-135771812D01*
X121575456Y-135935784D01*
X121476853Y-136083354D01*
X121351354Y-136208853D01*
X121203784Y-136307456D01*
X121039812Y-136375376D01*
X120891341Y-136404908D01*
X120865742Y-136410000D01*
X120688258Y-136410000D01*
X120662659Y-136404908D01*
X120514188Y-136375376D01*
X120350216Y-136307456D01*
X120202646Y-136208853D01*
X120077147Y-136083354D01*
X119978544Y-135935784D01*
X119910624Y-135771812D01*
X119876000Y-135597741D01*
X119876000Y-135420259D01*
X119910624Y-135246188D01*
X119978544Y-135082216D01*
X120077147Y-134934646D01*
X120202646Y-134809147D01*
X120350216Y-134710544D01*
X120514188Y-134642624D01*
X120668204Y-134611989D01*
X120688258Y-134608000D01*
X120865742Y-134608000D01*
X120885796Y-134611989D01*
G37*
G36*
X115805796Y-134611989D02*
G01*
X115959812Y-134642624D01*
X116123784Y-134710544D01*
X116271354Y-134809147D01*
X116396853Y-134934646D01*
X116495456Y-135082216D01*
X116563376Y-135246188D01*
X116598000Y-135420259D01*
X116598000Y-135597741D01*
X116563376Y-135771812D01*
X116495456Y-135935784D01*
X116396853Y-136083354D01*
X116271354Y-136208853D01*
X116123784Y-136307456D01*
X115959812Y-136375376D01*
X115811341Y-136404908D01*
X115785742Y-136410000D01*
X115608258Y-136410000D01*
X115582659Y-136404908D01*
X115434188Y-136375376D01*
X115270216Y-136307456D01*
X115122646Y-136208853D01*
X114997147Y-136083354D01*
X114898544Y-135935784D01*
X114830624Y-135771812D01*
X114796000Y-135597741D01*
X114796000Y-135420259D01*
X114830624Y-135246188D01*
X114898544Y-135082216D01*
X114997147Y-134934646D01*
X115122646Y-134809147D01*
X115270216Y-134710544D01*
X115434188Y-134642624D01*
X115588204Y-134611989D01*
X115608258Y-134608000D01*
X115785742Y-134608000D01*
X115805796Y-134611989D01*
G37*
G36*
X118345796Y-134611989D02*
G01*
X118499812Y-134642624D01*
X118663784Y-134710544D01*
X118811354Y-134809147D01*
X118936853Y-134934646D01*
X119035456Y-135082216D01*
X119103376Y-135246188D01*
X119138000Y-135420259D01*
X119138000Y-135597741D01*
X119103376Y-135771812D01*
X119035456Y-135935784D01*
X118936853Y-136083354D01*
X118811354Y-136208853D01*
X118663784Y-136307456D01*
X118499812Y-136375376D01*
X118351341Y-136404908D01*
X118325742Y-136410000D01*
X118148258Y-136410000D01*
X118122659Y-136404908D01*
X117974188Y-136375376D01*
X117810216Y-136307456D01*
X117662646Y-136208853D01*
X117537147Y-136083354D01*
X117438544Y-135935784D01*
X117370624Y-135771812D01*
X117336000Y-135597741D01*
X117336000Y-135420259D01*
X117370624Y-135246188D01*
X117438544Y-135082216D01*
X117537147Y-134934646D01*
X117662646Y-134809147D01*
X117810216Y-134710544D01*
X117974188Y-134642624D01*
X118128204Y-134611989D01*
X118148258Y-134608000D01*
X118325742Y-134608000D01*
X118345796Y-134611989D01*
G37*
G36*
X113265796Y-134611989D02*
G01*
X113419812Y-134642624D01*
X113583784Y-134710544D01*
X113731354Y-134809147D01*
X113856853Y-134934646D01*
X113955456Y-135082216D01*
X114023376Y-135246188D01*
X114058000Y-135420259D01*
X114058000Y-135597741D01*
X114023376Y-135771812D01*
X113955456Y-135935784D01*
X113856853Y-136083354D01*
X113731354Y-136208853D01*
X113583784Y-136307456D01*
X113419812Y-136375376D01*
X113271341Y-136404908D01*
X113245742Y-136410000D01*
X113068258Y-136410000D01*
X113042659Y-136404908D01*
X112894188Y-136375376D01*
X112730216Y-136307456D01*
X112582646Y-136208853D01*
X112457147Y-136083354D01*
X112358544Y-135935784D01*
X112290624Y-135771812D01*
X112256000Y-135597741D01*
X112256000Y-135420259D01*
X112290624Y-135246188D01*
X112358544Y-135082216D01*
X112457147Y-134934646D01*
X112582646Y-134809147D01*
X112730216Y-134710544D01*
X112894188Y-134642624D01*
X113048204Y-134611989D01*
X113068258Y-134608000D01*
X113245742Y-134608000D01*
X113265796Y-134611989D01*
G37*
G36*
X128505796Y-134611989D02*
G01*
X128659812Y-134642624D01*
X128823784Y-134710544D01*
X128971354Y-134809147D01*
X129096853Y-134934646D01*
X129195456Y-135082216D01*
X129263376Y-135246188D01*
X129298000Y-135420259D01*
X129298000Y-135597741D01*
X129263376Y-135771812D01*
X129195456Y-135935784D01*
X129096853Y-136083354D01*
X128971354Y-136208853D01*
X128823784Y-136307456D01*
X128659812Y-136375376D01*
X128511341Y-136404908D01*
X128485742Y-136410000D01*
X128308258Y-136410000D01*
X128282659Y-136404908D01*
X128134188Y-136375376D01*
X127970216Y-136307456D01*
X127822646Y-136208853D01*
X127697147Y-136083354D01*
X127598544Y-135935784D01*
X127530624Y-135771812D01*
X127496000Y-135597741D01*
X127496000Y-135420259D01*
X127530624Y-135246188D01*
X127598544Y-135082216D01*
X127697147Y-134934646D01*
X127822646Y-134809147D01*
X127970216Y-134710544D01*
X128134188Y-134642624D01*
X128288204Y-134611989D01*
X128308258Y-134608000D01*
X128485742Y-134608000D01*
X128505796Y-134611989D01*
G37*
G36*
X189605228Y-128086703D02*
G01*
X189760100Y-128150853D01*
X189899481Y-128243985D01*
X190018015Y-128362519D01*
X190111147Y-128501900D01*
X190175297Y-128656772D01*
X190208000Y-128821184D01*
X190208000Y-128988816D01*
X190175297Y-129153228D01*
X190111147Y-129308100D01*
X190018015Y-129447481D01*
X189899481Y-129566015D01*
X189760100Y-129659147D01*
X189605228Y-129723297D01*
X189440816Y-129756000D01*
X189273184Y-129756000D01*
X189108772Y-129723297D01*
X188953900Y-129659147D01*
X188814519Y-129566015D01*
X188695985Y-129447481D01*
X188602853Y-129308100D01*
X188538703Y-129153228D01*
X188506000Y-128988816D01*
X188506000Y-128821184D01*
X188538703Y-128656772D01*
X188602853Y-128501900D01*
X188695985Y-128362519D01*
X188814519Y-128243985D01*
X188953900Y-128150853D01*
X189108772Y-128086703D01*
X189273184Y-128054000D01*
X189440816Y-128054000D01*
X189605228Y-128086703D01*
G37*
G36*
X202305228Y-128086703D02*
G01*
X202460100Y-128150853D01*
X202599481Y-128243985D01*
X202718015Y-128362519D01*
X202811147Y-128501900D01*
X202875297Y-128656772D01*
X202908000Y-128821184D01*
X202908000Y-128988816D01*
X202875297Y-129153228D01*
X202811147Y-129308100D01*
X202718015Y-129447481D01*
X202599481Y-129566015D01*
X202460100Y-129659147D01*
X202305228Y-129723297D01*
X202140816Y-129756000D01*
X201973184Y-129756000D01*
X201808772Y-129723297D01*
X201653900Y-129659147D01*
X201514519Y-129566015D01*
X201395985Y-129447481D01*
X201302853Y-129308100D01*
X201238703Y-129153228D01*
X201206000Y-128988816D01*
X201206000Y-128821184D01*
X201238703Y-128656772D01*
X201302853Y-128501900D01*
X201395985Y-128362519D01*
X201514519Y-128243985D01*
X201653900Y-128150853D01*
X201808772Y-128086703D01*
X201973184Y-128054000D01*
X202140816Y-128054000D01*
X202305228Y-128086703D01*
G37*
G36*
X199765228Y-128086703D02*
G01*
X199920100Y-128150853D01*
X200059481Y-128243985D01*
X200178015Y-128362519D01*
X200271147Y-128501900D01*
X200335297Y-128656772D01*
X200368000Y-128821184D01*
X200368000Y-128988816D01*
X200335297Y-129153228D01*
X200271147Y-129308100D01*
X200178015Y-129447481D01*
X200059481Y-129566015D01*
X199920100Y-129659147D01*
X199765228Y-129723297D01*
X199600816Y-129756000D01*
X199433184Y-129756000D01*
X199268772Y-129723297D01*
X199113900Y-129659147D01*
X198974519Y-129566015D01*
X198855985Y-129447481D01*
X198762853Y-129308100D01*
X198698703Y-129153228D01*
X198666000Y-128988816D01*
X198666000Y-128821184D01*
X198698703Y-128656772D01*
X198762853Y-128501900D01*
X198855985Y-128362519D01*
X198974519Y-128243985D01*
X199113900Y-128150853D01*
X199268772Y-128086703D01*
X199433184Y-128054000D01*
X199600816Y-128054000D01*
X199765228Y-128086703D01*
G37*
G36*
X197225228Y-128086703D02*
G01*
X197380100Y-128150853D01*
X197519481Y-128243985D01*
X197638015Y-128362519D01*
X197731147Y-128501900D01*
X197795297Y-128656772D01*
X197828000Y-128821184D01*
X197828000Y-128988816D01*
X197795297Y-129153228D01*
X197731147Y-129308100D01*
X197638015Y-129447481D01*
X197519481Y-129566015D01*
X197380100Y-129659147D01*
X197225228Y-129723297D01*
X197060816Y-129756000D01*
X196893184Y-129756000D01*
X196728772Y-129723297D01*
X196573900Y-129659147D01*
X196434519Y-129566015D01*
X196315985Y-129447481D01*
X196222853Y-129308100D01*
X196158703Y-129153228D01*
X196126000Y-128988816D01*
X196126000Y-128821184D01*
X196158703Y-128656772D01*
X196222853Y-128501900D01*
X196315985Y-128362519D01*
X196434519Y-128243985D01*
X196573900Y-128150853D01*
X196728772Y-128086703D01*
X196893184Y-128054000D01*
X197060816Y-128054000D01*
X197225228Y-128086703D01*
G37*
G36*
X194685228Y-128086703D02*
G01*
X194840100Y-128150853D01*
X194979481Y-128243985D01*
X195098015Y-128362519D01*
X195191147Y-128501900D01*
X195255297Y-128656772D01*
X195288000Y-128821184D01*
X195288000Y-128988816D01*
X195255297Y-129153228D01*
X195191147Y-129308100D01*
X195098015Y-129447481D01*
X194979481Y-129566015D01*
X194840100Y-129659147D01*
X194685228Y-129723297D01*
X194520816Y-129756000D01*
X194353184Y-129756000D01*
X194188772Y-129723297D01*
X194033900Y-129659147D01*
X193894519Y-129566015D01*
X193775985Y-129447481D01*
X193682853Y-129308100D01*
X193618703Y-129153228D01*
X193586000Y-128988816D01*
X193586000Y-128821184D01*
X193618703Y-128656772D01*
X193682853Y-128501900D01*
X193775985Y-128362519D01*
X193894519Y-128243985D01*
X194033900Y-128150853D01*
X194188772Y-128086703D01*
X194353184Y-128054000D01*
X194520816Y-128054000D01*
X194685228Y-128086703D01*
G37*
G36*
X192145228Y-128086703D02*
G01*
X192300100Y-128150853D01*
X192439481Y-128243985D01*
X192558015Y-128362519D01*
X192651147Y-128501900D01*
X192715297Y-128656772D01*
X192748000Y-128821184D01*
X192748000Y-128988816D01*
X192715297Y-129153228D01*
X192651147Y-129308100D01*
X192558015Y-129447481D01*
X192439481Y-129566015D01*
X192300100Y-129659147D01*
X192145228Y-129723297D01*
X191980816Y-129756000D01*
X191813184Y-129756000D01*
X191648772Y-129723297D01*
X191493900Y-129659147D01*
X191354519Y-129566015D01*
X191235985Y-129447481D01*
X191142853Y-129308100D01*
X191078703Y-129153228D01*
X191046000Y-128988816D01*
X191046000Y-128821184D01*
X191078703Y-128656772D01*
X191142853Y-128501900D01*
X191235985Y-128362519D01*
X191354519Y-128243985D01*
X191493900Y-128150853D01*
X191648772Y-128086703D01*
X191813184Y-128054000D01*
X191980816Y-128054000D01*
X192145228Y-128086703D01*
G37*
G36*
X187065228Y-128086703D02*
G01*
X187220100Y-128150853D01*
X187359481Y-128243985D01*
X187478015Y-128362519D01*
X187571147Y-128501900D01*
X187635297Y-128656772D01*
X187668000Y-128821184D01*
X187668000Y-128988816D01*
X187635297Y-129153228D01*
X187571147Y-129308100D01*
X187478015Y-129447481D01*
X187359481Y-129566015D01*
X187220100Y-129659147D01*
X187065228Y-129723297D01*
X186900816Y-129756000D01*
X186733184Y-129756000D01*
X186568772Y-129723297D01*
X186413900Y-129659147D01*
X186274519Y-129566015D01*
X186155985Y-129447481D01*
X186062853Y-129308100D01*
X185998703Y-129153228D01*
X185966000Y-128988816D01*
X185966000Y-128821184D01*
X185998703Y-128656772D01*
X186062853Y-128501900D01*
X186155985Y-128362519D01*
X186274519Y-128243985D01*
X186413900Y-128150853D01*
X186568772Y-128086703D01*
X186733184Y-128054000D01*
X186900816Y-128054000D01*
X187065228Y-128086703D01*
G37*
G36*
X179445228Y-128086703D02*
G01*
X179600100Y-128150853D01*
X179739481Y-128243985D01*
X179858015Y-128362519D01*
X179951147Y-128501900D01*
X180015297Y-128656772D01*
X180048000Y-128821184D01*
X180048000Y-128988816D01*
X180015297Y-129153228D01*
X179951147Y-129308100D01*
X179858015Y-129447481D01*
X179739481Y-129566015D01*
X179600100Y-129659147D01*
X179445228Y-129723297D01*
X179280816Y-129756000D01*
X179113184Y-129756000D01*
X178948772Y-129723297D01*
X178793900Y-129659147D01*
X178654519Y-129566015D01*
X178535985Y-129447481D01*
X178442853Y-129308100D01*
X178378703Y-129153228D01*
X178346000Y-128988816D01*
X178346000Y-128821184D01*
X178378703Y-128656772D01*
X178442853Y-128501900D01*
X178535985Y-128362519D01*
X178654519Y-128243985D01*
X178793900Y-128150853D01*
X178948772Y-128086703D01*
X179113184Y-128054000D01*
X179280816Y-128054000D01*
X179445228Y-128086703D01*
G37*
G36*
X181985228Y-128086703D02*
G01*
X182140100Y-128150853D01*
X182279481Y-128243985D01*
X182398015Y-128362519D01*
X182491147Y-128501900D01*
X182555297Y-128656772D01*
X182588000Y-128821184D01*
X182588000Y-128988816D01*
X182555297Y-129153228D01*
X182491147Y-129308100D01*
X182398015Y-129447481D01*
X182279481Y-129566015D01*
X182140100Y-129659147D01*
X181985228Y-129723297D01*
X181820816Y-129756000D01*
X181653184Y-129756000D01*
X181488772Y-129723297D01*
X181333900Y-129659147D01*
X181194519Y-129566015D01*
X181075985Y-129447481D01*
X180982853Y-129308100D01*
X180918703Y-129153228D01*
X180886000Y-128988816D01*
X180886000Y-128821184D01*
X180918703Y-128656772D01*
X180982853Y-128501900D01*
X181075985Y-128362519D01*
X181194519Y-128243985D01*
X181333900Y-128150853D01*
X181488772Y-128086703D01*
X181653184Y-128054000D01*
X181820816Y-128054000D01*
X181985228Y-128086703D01*
G37*
G36*
X184525228Y-128086703D02*
G01*
X184680100Y-128150853D01*
X184819481Y-128243985D01*
X184938015Y-128362519D01*
X185031147Y-128501900D01*
X185095297Y-128656772D01*
X185128000Y-128821184D01*
X185128000Y-128988816D01*
X185095297Y-129153228D01*
X185031147Y-129308100D01*
X184938015Y-129447481D01*
X184819481Y-129566015D01*
X184680100Y-129659147D01*
X184525228Y-129723297D01*
X184360816Y-129756000D01*
X184193184Y-129756000D01*
X184028772Y-129723297D01*
X183873900Y-129659147D01*
X183734519Y-129566015D01*
X183615985Y-129447481D01*
X183522853Y-129308100D01*
X183458703Y-129153228D01*
X183426000Y-128988816D01*
X183426000Y-128821184D01*
X183458703Y-128656772D01*
X183522853Y-128501900D01*
X183615985Y-128362519D01*
X183734519Y-128243985D01*
X183873900Y-128150853D01*
X184028772Y-128086703D01*
X184193184Y-128054000D01*
X184360816Y-128054000D01*
X184525228Y-128086703D01*
G37*
G36*
X148457228Y-127832703D02*
G01*
X148612100Y-127896853D01*
X148751481Y-127989985D01*
X148870015Y-128108519D01*
X148963147Y-128247900D01*
X149027297Y-128402772D01*
X149060000Y-128567184D01*
X149060000Y-128734816D01*
X149027297Y-128899228D01*
X148963147Y-129054100D01*
X148870015Y-129193481D01*
X148751481Y-129312015D01*
X148612100Y-129405147D01*
X148457228Y-129469297D01*
X148292816Y-129502000D01*
X148125184Y-129502000D01*
X147960772Y-129469297D01*
X147805900Y-129405147D01*
X147666519Y-129312015D01*
X147547985Y-129193481D01*
X147454853Y-129054100D01*
X147390703Y-128899228D01*
X147358000Y-128734816D01*
X147358000Y-128567184D01*
X147390703Y-128402772D01*
X147454853Y-128247900D01*
X147547985Y-128108519D01*
X147666519Y-127989985D01*
X147805900Y-127896853D01*
X147960772Y-127832703D01*
X148125184Y-127800000D01*
X148292816Y-127800000D01*
X148457228Y-127832703D01*
G37*
G36*
X168777228Y-127832703D02*
G01*
X168932100Y-127896853D01*
X169071481Y-127989985D01*
X169190015Y-128108519D01*
X169283147Y-128247900D01*
X169347297Y-128402772D01*
X169380000Y-128567184D01*
X169380000Y-128734816D01*
X169347297Y-128899228D01*
X169283147Y-129054100D01*
X169190015Y-129193481D01*
X169071481Y-129312015D01*
X168932100Y-129405147D01*
X168777228Y-129469297D01*
X168612816Y-129502000D01*
X168445184Y-129502000D01*
X168280772Y-129469297D01*
X168125900Y-129405147D01*
X167986519Y-129312015D01*
X167867985Y-129193481D01*
X167774853Y-129054100D01*
X167710703Y-128899228D01*
X167678000Y-128734816D01*
X167678000Y-128567184D01*
X167710703Y-128402772D01*
X167774853Y-128247900D01*
X167867985Y-128108519D01*
X167986519Y-127989985D01*
X168125900Y-127896853D01*
X168280772Y-127832703D01*
X168445184Y-127800000D01*
X168612816Y-127800000D01*
X168777228Y-127832703D01*
G37*
G36*
X153537228Y-127832703D02*
G01*
X153692100Y-127896853D01*
X153831481Y-127989985D01*
X153950015Y-128108519D01*
X154043147Y-128247900D01*
X154107297Y-128402772D01*
X154140000Y-128567184D01*
X154140000Y-128734816D01*
X154107297Y-128899228D01*
X154043147Y-129054100D01*
X153950015Y-129193481D01*
X153831481Y-129312015D01*
X153692100Y-129405147D01*
X153537228Y-129469297D01*
X153372816Y-129502000D01*
X153205184Y-129502000D01*
X153040772Y-129469297D01*
X152885900Y-129405147D01*
X152746519Y-129312015D01*
X152627985Y-129193481D01*
X152534853Y-129054100D01*
X152470703Y-128899228D01*
X152438000Y-128734816D01*
X152438000Y-128567184D01*
X152470703Y-128402772D01*
X152534853Y-128247900D01*
X152627985Y-128108519D01*
X152746519Y-127989985D01*
X152885900Y-127896853D01*
X153040772Y-127832703D01*
X153205184Y-127800000D01*
X153372816Y-127800000D01*
X153537228Y-127832703D01*
G37*
G36*
X158617228Y-127832703D02*
G01*
X158772100Y-127896853D01*
X158911481Y-127989985D01*
X159030015Y-128108519D01*
X159123147Y-128247900D01*
X159187297Y-128402772D01*
X159220000Y-128567184D01*
X159220000Y-128734816D01*
X159187297Y-128899228D01*
X159123147Y-129054100D01*
X159030015Y-129193481D01*
X158911481Y-129312015D01*
X158772100Y-129405147D01*
X158617228Y-129469297D01*
X158452816Y-129502000D01*
X158285184Y-129502000D01*
X158120772Y-129469297D01*
X157965900Y-129405147D01*
X157826519Y-129312015D01*
X157707985Y-129193481D01*
X157614853Y-129054100D01*
X157550703Y-128899228D01*
X157518000Y-128734816D01*
X157518000Y-128567184D01*
X157550703Y-128402772D01*
X157614853Y-128247900D01*
X157707985Y-128108519D01*
X157826519Y-127989985D01*
X157965900Y-127896853D01*
X158120772Y-127832703D01*
X158285184Y-127800000D01*
X158452816Y-127800000D01*
X158617228Y-127832703D01*
G37*
G36*
X156077228Y-127832703D02*
G01*
X156232100Y-127896853D01*
X156371481Y-127989985D01*
X156490015Y-128108519D01*
X156583147Y-128247900D01*
X156647297Y-128402772D01*
X156680000Y-128567184D01*
X156680000Y-128734816D01*
X156647297Y-128899228D01*
X156583147Y-129054100D01*
X156490015Y-129193481D01*
X156371481Y-129312015D01*
X156232100Y-129405147D01*
X156077228Y-129469297D01*
X155912816Y-129502000D01*
X155745184Y-129502000D01*
X155580772Y-129469297D01*
X155425900Y-129405147D01*
X155286519Y-129312015D01*
X155167985Y-129193481D01*
X155074853Y-129054100D01*
X155010703Y-128899228D01*
X154978000Y-128734816D01*
X154978000Y-128567184D01*
X155010703Y-128402772D01*
X155074853Y-128247900D01*
X155167985Y-128108519D01*
X155286519Y-127989985D01*
X155425900Y-127896853D01*
X155580772Y-127832703D01*
X155745184Y-127800000D01*
X155912816Y-127800000D01*
X156077228Y-127832703D01*
G37*
G36*
X163697228Y-127832703D02*
G01*
X163852100Y-127896853D01*
X163991481Y-127989985D01*
X164110015Y-128108519D01*
X164203147Y-128247900D01*
X164267297Y-128402772D01*
X164300000Y-128567184D01*
X164300000Y-128734816D01*
X164267297Y-128899228D01*
X164203147Y-129054100D01*
X164110015Y-129193481D01*
X163991481Y-129312015D01*
X163852100Y-129405147D01*
X163697228Y-129469297D01*
X163532816Y-129502000D01*
X163365184Y-129502000D01*
X163200772Y-129469297D01*
X163045900Y-129405147D01*
X162906519Y-129312015D01*
X162787985Y-129193481D01*
X162694853Y-129054100D01*
X162630703Y-128899228D01*
X162598000Y-128734816D01*
X162598000Y-128567184D01*
X162630703Y-128402772D01*
X162694853Y-128247900D01*
X162787985Y-128108519D01*
X162906519Y-127989985D01*
X163045900Y-127896853D01*
X163200772Y-127832703D01*
X163365184Y-127800000D01*
X163532816Y-127800000D01*
X163697228Y-127832703D01*
G37*
G36*
X150997228Y-127832703D02*
G01*
X151152100Y-127896853D01*
X151291481Y-127989985D01*
X151410015Y-128108519D01*
X151503147Y-128247900D01*
X151567297Y-128402772D01*
X151600000Y-128567184D01*
X151600000Y-128734816D01*
X151567297Y-128899228D01*
X151503147Y-129054100D01*
X151410015Y-129193481D01*
X151291481Y-129312015D01*
X151152100Y-129405147D01*
X150997228Y-129469297D01*
X150832816Y-129502000D01*
X150665184Y-129502000D01*
X150500772Y-129469297D01*
X150345900Y-129405147D01*
X150206519Y-129312015D01*
X150087985Y-129193481D01*
X149994853Y-129054100D01*
X149930703Y-128899228D01*
X149898000Y-128734816D01*
X149898000Y-128567184D01*
X149930703Y-128402772D01*
X149994853Y-128247900D01*
X150087985Y-128108519D01*
X150206519Y-127989985D01*
X150345900Y-127896853D01*
X150500772Y-127832703D01*
X150665184Y-127800000D01*
X150832816Y-127800000D01*
X150997228Y-127832703D01*
G37*
G36*
X166237228Y-127832703D02*
G01*
X166392100Y-127896853D01*
X166531481Y-127989985D01*
X166650015Y-128108519D01*
X166743147Y-128247900D01*
X166807297Y-128402772D01*
X166840000Y-128567184D01*
X166840000Y-128734816D01*
X166807297Y-128899228D01*
X166743147Y-129054100D01*
X166650015Y-129193481D01*
X166531481Y-129312015D01*
X166392100Y-129405147D01*
X166237228Y-129469297D01*
X166072816Y-129502000D01*
X165905184Y-129502000D01*
X165740772Y-129469297D01*
X165585900Y-129405147D01*
X165446519Y-129312015D01*
X165327985Y-129193481D01*
X165234853Y-129054100D01*
X165170703Y-128899228D01*
X165138000Y-128734816D01*
X165138000Y-128567184D01*
X165170703Y-128402772D01*
X165234853Y-128247900D01*
X165327985Y-128108519D01*
X165446519Y-127989985D01*
X165585900Y-127896853D01*
X165740772Y-127832703D01*
X165905184Y-127800000D01*
X166072816Y-127800000D01*
X166237228Y-127832703D01*
G37*
G36*
X171317228Y-127832703D02*
G01*
X171472100Y-127896853D01*
X171611481Y-127989985D01*
X171730015Y-128108519D01*
X171823147Y-128247900D01*
X171887297Y-128402772D01*
X171920000Y-128567184D01*
X171920000Y-128734816D01*
X171887297Y-128899228D01*
X171823147Y-129054100D01*
X171730015Y-129193481D01*
X171611481Y-129312015D01*
X171472100Y-129405147D01*
X171317228Y-129469297D01*
X171152816Y-129502000D01*
X170985184Y-129502000D01*
X170820772Y-129469297D01*
X170665900Y-129405147D01*
X170526519Y-129312015D01*
X170407985Y-129193481D01*
X170314853Y-129054100D01*
X170250703Y-128899228D01*
X170218000Y-128734816D01*
X170218000Y-128567184D01*
X170250703Y-128402772D01*
X170314853Y-128247900D01*
X170407985Y-128108519D01*
X170526519Y-127989985D01*
X170665900Y-127896853D01*
X170820772Y-127832703D01*
X170985184Y-127800000D01*
X171152816Y-127800000D01*
X171317228Y-127832703D01*
G37*
G36*
X161157228Y-127832703D02*
G01*
X161312100Y-127896853D01*
X161451481Y-127989985D01*
X161570015Y-128108519D01*
X161663147Y-128247900D01*
X161727297Y-128402772D01*
X161760000Y-128567184D01*
X161760000Y-128734816D01*
X161727297Y-128899228D01*
X161663147Y-129054100D01*
X161570015Y-129193481D01*
X161451481Y-129312015D01*
X161312100Y-129405147D01*
X161157228Y-129469297D01*
X160992816Y-129502000D01*
X160825184Y-129502000D01*
X160660772Y-129469297D01*
X160505900Y-129405147D01*
X160366519Y-129312015D01*
X160247985Y-129193481D01*
X160154853Y-129054100D01*
X160090703Y-128899228D01*
X160058000Y-128734816D01*
X160058000Y-128567184D01*
X160090703Y-128402772D01*
X160154853Y-128247900D01*
X160247985Y-128108519D01*
X160366519Y-127989985D01*
X160505900Y-127896853D01*
X160660772Y-127832703D01*
X160825184Y-127800000D01*
X160992816Y-127800000D01*
X161157228Y-127832703D01*
G37*
G36*
X205607228Y-126736703D02*
G01*
X205762100Y-126800853D01*
X205901481Y-126893985D01*
X206020015Y-127012519D01*
X206113147Y-127151900D01*
X206177297Y-127306772D01*
X206210000Y-127471184D01*
X206210000Y-127638816D01*
X206177297Y-127803228D01*
X206113147Y-127958100D01*
X206020015Y-128097481D01*
X205901481Y-128216015D01*
X205762100Y-128309147D01*
X205607228Y-128373297D01*
X205442816Y-128406000D01*
X205275184Y-128406000D01*
X205110772Y-128373297D01*
X204955900Y-128309147D01*
X204816519Y-128216015D01*
X204697985Y-128097481D01*
X204604853Y-127958100D01*
X204540703Y-127803228D01*
X204508000Y-127638816D01*
X204508000Y-127471184D01*
X204540703Y-127306772D01*
X204604853Y-127151900D01*
X204697985Y-127012519D01*
X204816519Y-126893985D01*
X204955900Y-126800853D01*
X205110772Y-126736703D01*
X205275184Y-126704000D01*
X205442816Y-126704000D01*
X205607228Y-126736703D01*
G37*
G36*
X174873228Y-126482703D02*
G01*
X175028100Y-126546853D01*
X175167481Y-126639985D01*
X175286015Y-126758519D01*
X175379147Y-126897900D01*
X175443297Y-127052772D01*
X175476000Y-127217184D01*
X175476000Y-127384816D01*
X175443297Y-127549228D01*
X175379147Y-127704100D01*
X175286015Y-127843481D01*
X175167481Y-127962015D01*
X175028100Y-128055147D01*
X174873228Y-128119297D01*
X174708816Y-128152000D01*
X174541184Y-128152000D01*
X174376772Y-128119297D01*
X174221900Y-128055147D01*
X174082519Y-127962015D01*
X173963985Y-127843481D01*
X173870853Y-127704100D01*
X173806703Y-127549228D01*
X173774000Y-127384816D01*
X173774000Y-127217184D01*
X173806703Y-127052772D01*
X173870853Y-126897900D01*
X173963985Y-126758519D01*
X174082519Y-126639985D01*
X174221900Y-126546853D01*
X174376772Y-126482703D01*
X174541184Y-126450000D01*
X174708816Y-126450000D01*
X174873228Y-126482703D01*
G37*
G36*
X205607228Y-121736703D02*
G01*
X205762100Y-121800853D01*
X205901481Y-121893985D01*
X206020015Y-122012519D01*
X206113147Y-122151900D01*
X206177297Y-122306772D01*
X206210000Y-122471184D01*
X206210000Y-122638816D01*
X206177297Y-122803228D01*
X206113147Y-122958100D01*
X206020015Y-123097481D01*
X205901481Y-123216015D01*
X205762100Y-123309147D01*
X205607228Y-123373297D01*
X205442816Y-123406000D01*
X205275184Y-123406000D01*
X205110772Y-123373297D01*
X204955900Y-123309147D01*
X204816519Y-123216015D01*
X204697985Y-123097481D01*
X204604853Y-122958100D01*
X204540703Y-122803228D01*
X204508000Y-122638816D01*
X204508000Y-122471184D01*
X204540703Y-122306772D01*
X204604853Y-122151900D01*
X204697985Y-122012519D01*
X204816519Y-121893985D01*
X204955900Y-121800853D01*
X205110772Y-121736703D01*
X205275184Y-121704000D01*
X205442816Y-121704000D01*
X205607228Y-121736703D01*
G37*
G36*
X174873228Y-121482703D02*
G01*
X175028100Y-121546853D01*
X175167481Y-121639985D01*
X175286015Y-121758519D01*
X175379147Y-121897900D01*
X175443297Y-122052772D01*
X175476000Y-122217184D01*
X175476000Y-122384816D01*
X175443297Y-122549228D01*
X175379147Y-122704100D01*
X175286015Y-122843481D01*
X175167481Y-122962015D01*
X175028100Y-123055147D01*
X174873228Y-123119297D01*
X174708816Y-123152000D01*
X174541184Y-123152000D01*
X174376772Y-123119297D01*
X174221900Y-123055147D01*
X174082519Y-122962015D01*
X173963985Y-122843481D01*
X173870853Y-122704100D01*
X173806703Y-122549228D01*
X173774000Y-122384816D01*
X173774000Y-122217184D01*
X173806703Y-122052772D01*
X173870853Y-121897900D01*
X173963985Y-121758519D01*
X174082519Y-121639985D01*
X174221900Y-121546853D01*
X174376772Y-121482703D01*
X174541184Y-121450000D01*
X174708816Y-121450000D01*
X174873228Y-121482703D01*
G37*
G36*
X197225228Y-120466703D02*
G01*
X197380100Y-120530853D01*
X197519481Y-120623985D01*
X197638015Y-120742519D01*
X197731147Y-120881900D01*
X197795297Y-121036772D01*
X197828000Y-121201184D01*
X197828000Y-121368816D01*
X197795297Y-121533228D01*
X197731147Y-121688100D01*
X197638015Y-121827481D01*
X197519481Y-121946015D01*
X197380100Y-122039147D01*
X197225228Y-122103297D01*
X197060816Y-122136000D01*
X196893184Y-122136000D01*
X196728772Y-122103297D01*
X196573900Y-122039147D01*
X196434519Y-121946015D01*
X196315985Y-121827481D01*
X196222853Y-121688100D01*
X196158703Y-121533228D01*
X196126000Y-121368816D01*
X196126000Y-121201184D01*
X196158703Y-121036772D01*
X196222853Y-120881900D01*
X196315985Y-120742519D01*
X196434519Y-120623985D01*
X196573900Y-120530853D01*
X196728772Y-120466703D01*
X196893184Y-120434000D01*
X197060816Y-120434000D01*
X197225228Y-120466703D01*
G37*
G36*
X179445228Y-120466703D02*
G01*
X179600100Y-120530853D01*
X179739481Y-120623985D01*
X179858015Y-120742519D01*
X179951147Y-120881900D01*
X180015297Y-121036772D01*
X180048000Y-121201184D01*
X180048000Y-121368816D01*
X180015297Y-121533228D01*
X179951147Y-121688100D01*
X179858015Y-121827481D01*
X179739481Y-121946015D01*
X179600100Y-122039147D01*
X179445228Y-122103297D01*
X179280816Y-122136000D01*
X179113184Y-122136000D01*
X178948772Y-122103297D01*
X178793900Y-122039147D01*
X178654519Y-121946015D01*
X178535985Y-121827481D01*
X178442853Y-121688100D01*
X178378703Y-121533228D01*
X178346000Y-121368816D01*
X178346000Y-121201184D01*
X178378703Y-121036772D01*
X178442853Y-120881900D01*
X178535985Y-120742519D01*
X178654519Y-120623985D01*
X178793900Y-120530853D01*
X178948772Y-120466703D01*
X179113184Y-120434000D01*
X179280816Y-120434000D01*
X179445228Y-120466703D01*
G37*
G36*
X181985228Y-120466703D02*
G01*
X182140100Y-120530853D01*
X182279481Y-120623985D01*
X182398015Y-120742519D01*
X182491147Y-120881900D01*
X182555297Y-121036772D01*
X182588000Y-121201184D01*
X182588000Y-121368816D01*
X182555297Y-121533228D01*
X182491147Y-121688100D01*
X182398015Y-121827481D01*
X182279481Y-121946015D01*
X182140100Y-122039147D01*
X181985228Y-122103297D01*
X181820816Y-122136000D01*
X181653184Y-122136000D01*
X181488772Y-122103297D01*
X181333900Y-122039147D01*
X181194519Y-121946015D01*
X181075985Y-121827481D01*
X180982853Y-121688100D01*
X180918703Y-121533228D01*
X180886000Y-121368816D01*
X180886000Y-121201184D01*
X180918703Y-121036772D01*
X180982853Y-120881900D01*
X181075985Y-120742519D01*
X181194519Y-120623985D01*
X181333900Y-120530853D01*
X181488772Y-120466703D01*
X181653184Y-120434000D01*
X181820816Y-120434000D01*
X181985228Y-120466703D01*
G37*
G36*
X184525228Y-120466703D02*
G01*
X184680100Y-120530853D01*
X184819481Y-120623985D01*
X184938015Y-120742519D01*
X185031147Y-120881900D01*
X185095297Y-121036772D01*
X185128000Y-121201184D01*
X185128000Y-121368816D01*
X185095297Y-121533228D01*
X185031147Y-121688100D01*
X184938015Y-121827481D01*
X184819481Y-121946015D01*
X184680100Y-122039147D01*
X184525228Y-122103297D01*
X184360816Y-122136000D01*
X184193184Y-122136000D01*
X184028772Y-122103297D01*
X183873900Y-122039147D01*
X183734519Y-121946015D01*
X183615985Y-121827481D01*
X183522853Y-121688100D01*
X183458703Y-121533228D01*
X183426000Y-121368816D01*
X183426000Y-121201184D01*
X183458703Y-121036772D01*
X183522853Y-120881900D01*
X183615985Y-120742519D01*
X183734519Y-120623985D01*
X183873900Y-120530853D01*
X184028772Y-120466703D01*
X184193184Y-120434000D01*
X184360816Y-120434000D01*
X184525228Y-120466703D01*
G37*
G36*
X189605228Y-120466703D02*
G01*
X189760100Y-120530853D01*
X189899481Y-120623985D01*
X190018015Y-120742519D01*
X190111147Y-120881900D01*
X190175297Y-121036772D01*
X190208000Y-121201184D01*
X190208000Y-121368816D01*
X190175297Y-121533228D01*
X190111147Y-121688100D01*
X190018015Y-121827481D01*
X189899481Y-121946015D01*
X189760100Y-122039147D01*
X189605228Y-122103297D01*
X189440816Y-122136000D01*
X189273184Y-122136000D01*
X189108772Y-122103297D01*
X188953900Y-122039147D01*
X188814519Y-121946015D01*
X188695985Y-121827481D01*
X188602853Y-121688100D01*
X188538703Y-121533228D01*
X188506000Y-121368816D01*
X188506000Y-121201184D01*
X188538703Y-121036772D01*
X188602853Y-120881900D01*
X188695985Y-120742519D01*
X188814519Y-120623985D01*
X188953900Y-120530853D01*
X189108772Y-120466703D01*
X189273184Y-120434000D01*
X189440816Y-120434000D01*
X189605228Y-120466703D01*
G37*
G36*
X192145228Y-120466703D02*
G01*
X192300100Y-120530853D01*
X192439481Y-120623985D01*
X192558015Y-120742519D01*
X192651147Y-120881900D01*
X192715297Y-121036772D01*
X192748000Y-121201184D01*
X192748000Y-121368816D01*
X192715297Y-121533228D01*
X192651147Y-121688100D01*
X192558015Y-121827481D01*
X192439481Y-121946015D01*
X192300100Y-122039147D01*
X192145228Y-122103297D01*
X191980816Y-122136000D01*
X191813184Y-122136000D01*
X191648772Y-122103297D01*
X191493900Y-122039147D01*
X191354519Y-121946015D01*
X191235985Y-121827481D01*
X191142853Y-121688100D01*
X191078703Y-121533228D01*
X191046000Y-121368816D01*
X191046000Y-121201184D01*
X191078703Y-121036772D01*
X191142853Y-120881900D01*
X191235985Y-120742519D01*
X191354519Y-120623985D01*
X191493900Y-120530853D01*
X191648772Y-120466703D01*
X191813184Y-120434000D01*
X191980816Y-120434000D01*
X192145228Y-120466703D01*
G37*
G36*
X194685228Y-120466703D02*
G01*
X194840100Y-120530853D01*
X194979481Y-120623985D01*
X195098015Y-120742519D01*
X195191147Y-120881900D01*
X195255297Y-121036772D01*
X195288000Y-121201184D01*
X195288000Y-121368816D01*
X195255297Y-121533228D01*
X195191147Y-121688100D01*
X195098015Y-121827481D01*
X194979481Y-121946015D01*
X194840100Y-122039147D01*
X194685228Y-122103297D01*
X194520816Y-122136000D01*
X194353184Y-122136000D01*
X194188772Y-122103297D01*
X194033900Y-122039147D01*
X193894519Y-121946015D01*
X193775985Y-121827481D01*
X193682853Y-121688100D01*
X193618703Y-121533228D01*
X193586000Y-121368816D01*
X193586000Y-121201184D01*
X193618703Y-121036772D01*
X193682853Y-120881900D01*
X193775985Y-120742519D01*
X193894519Y-120623985D01*
X194033900Y-120530853D01*
X194188772Y-120466703D01*
X194353184Y-120434000D01*
X194520816Y-120434000D01*
X194685228Y-120466703D01*
G37*
G36*
X199765228Y-120466703D02*
G01*
X199920100Y-120530853D01*
X200059481Y-120623985D01*
X200178015Y-120742519D01*
X200271147Y-120881900D01*
X200335297Y-121036772D01*
X200368000Y-121201184D01*
X200368000Y-121368816D01*
X200335297Y-121533228D01*
X200271147Y-121688100D01*
X200178015Y-121827481D01*
X200059481Y-121946015D01*
X199920100Y-122039147D01*
X199765228Y-122103297D01*
X199600816Y-122136000D01*
X199433184Y-122136000D01*
X199268772Y-122103297D01*
X199113900Y-122039147D01*
X198974519Y-121946015D01*
X198855985Y-121827481D01*
X198762853Y-121688100D01*
X198698703Y-121533228D01*
X198666000Y-121368816D01*
X198666000Y-121201184D01*
X198698703Y-121036772D01*
X198762853Y-120881900D01*
X198855985Y-120742519D01*
X198974519Y-120623985D01*
X199113900Y-120530853D01*
X199268772Y-120466703D01*
X199433184Y-120434000D01*
X199600816Y-120434000D01*
X199765228Y-120466703D01*
G37*
G36*
X202908000Y-122136000D02*
G01*
X201206000Y-122136000D01*
X201206000Y-120434000D01*
X202908000Y-120434000D01*
X202908000Y-122136000D01*
G37*
G36*
X187065228Y-120466703D02*
G01*
X187220100Y-120530853D01*
X187359481Y-120623985D01*
X187478015Y-120742519D01*
X187571147Y-120881900D01*
X187635297Y-121036772D01*
X187668000Y-121201184D01*
X187668000Y-121368816D01*
X187635297Y-121533228D01*
X187571147Y-121688100D01*
X187478015Y-121827481D01*
X187359481Y-121946015D01*
X187220100Y-122039147D01*
X187065228Y-122103297D01*
X186900816Y-122136000D01*
X186733184Y-122136000D01*
X186568772Y-122103297D01*
X186413900Y-122039147D01*
X186274519Y-121946015D01*
X186155985Y-121827481D01*
X186062853Y-121688100D01*
X185998703Y-121533228D01*
X185966000Y-121368816D01*
X185966000Y-121201184D01*
X185998703Y-121036772D01*
X186062853Y-120881900D01*
X186155985Y-120742519D01*
X186274519Y-120623985D01*
X186413900Y-120530853D01*
X186568772Y-120466703D01*
X186733184Y-120434000D01*
X186900816Y-120434000D01*
X187065228Y-120466703D01*
G37*
G36*
X153537228Y-120212703D02*
G01*
X153692100Y-120276853D01*
X153831481Y-120369985D01*
X153950015Y-120488519D01*
X154043147Y-120627900D01*
X154107297Y-120782772D01*
X154140000Y-120947184D01*
X154140000Y-121114816D01*
X154107297Y-121279228D01*
X154043147Y-121434100D01*
X153950015Y-121573481D01*
X153831481Y-121692015D01*
X153692100Y-121785147D01*
X153537228Y-121849297D01*
X153372816Y-121882000D01*
X153205184Y-121882000D01*
X153040772Y-121849297D01*
X152885900Y-121785147D01*
X152746519Y-121692015D01*
X152627985Y-121573481D01*
X152534853Y-121434100D01*
X152470703Y-121279228D01*
X152438000Y-121114816D01*
X152438000Y-120947184D01*
X152470703Y-120782772D01*
X152534853Y-120627900D01*
X152627985Y-120488519D01*
X152746519Y-120369985D01*
X152885900Y-120276853D01*
X153040772Y-120212703D01*
X153205184Y-120180000D01*
X153372816Y-120180000D01*
X153537228Y-120212703D01*
G37*
G36*
X156077228Y-120212703D02*
G01*
X156232100Y-120276853D01*
X156371481Y-120369985D01*
X156490015Y-120488519D01*
X156583147Y-120627900D01*
X156647297Y-120782772D01*
X156680000Y-120947184D01*
X156680000Y-121114816D01*
X156647297Y-121279228D01*
X156583147Y-121434100D01*
X156490015Y-121573481D01*
X156371481Y-121692015D01*
X156232100Y-121785147D01*
X156077228Y-121849297D01*
X155912816Y-121882000D01*
X155745184Y-121882000D01*
X155580772Y-121849297D01*
X155425900Y-121785147D01*
X155286519Y-121692015D01*
X155167985Y-121573481D01*
X155074853Y-121434100D01*
X155010703Y-121279228D01*
X154978000Y-121114816D01*
X154978000Y-120947184D01*
X155010703Y-120782772D01*
X155074853Y-120627900D01*
X155167985Y-120488519D01*
X155286519Y-120369985D01*
X155425900Y-120276853D01*
X155580772Y-120212703D01*
X155745184Y-120180000D01*
X155912816Y-120180000D01*
X156077228Y-120212703D01*
G37*
G36*
X158617228Y-120212703D02*
G01*
X158772100Y-120276853D01*
X158911481Y-120369985D01*
X159030015Y-120488519D01*
X159123147Y-120627900D01*
X159187297Y-120782772D01*
X159220000Y-120947184D01*
X159220000Y-121114816D01*
X159187297Y-121279228D01*
X159123147Y-121434100D01*
X159030015Y-121573481D01*
X158911481Y-121692015D01*
X158772100Y-121785147D01*
X158617228Y-121849297D01*
X158452816Y-121882000D01*
X158285184Y-121882000D01*
X158120772Y-121849297D01*
X157965900Y-121785147D01*
X157826519Y-121692015D01*
X157707985Y-121573481D01*
X157614853Y-121434100D01*
X157550703Y-121279228D01*
X157518000Y-121114816D01*
X157518000Y-120947184D01*
X157550703Y-120782772D01*
X157614853Y-120627900D01*
X157707985Y-120488519D01*
X157826519Y-120369985D01*
X157965900Y-120276853D01*
X158120772Y-120212703D01*
X158285184Y-120180000D01*
X158452816Y-120180000D01*
X158617228Y-120212703D01*
G37*
G36*
X171920000Y-121882000D02*
G01*
X170218000Y-121882000D01*
X170218000Y-120180000D01*
X171920000Y-120180000D01*
X171920000Y-121882000D01*
G37*
G36*
X148457228Y-120212703D02*
G01*
X148612100Y-120276853D01*
X148751481Y-120369985D01*
X148870015Y-120488519D01*
X148963147Y-120627900D01*
X149027297Y-120782772D01*
X149060000Y-120947184D01*
X149060000Y-121114816D01*
X149027297Y-121279228D01*
X148963147Y-121434100D01*
X148870015Y-121573481D01*
X148751481Y-121692015D01*
X148612100Y-121785147D01*
X148457228Y-121849297D01*
X148292816Y-121882000D01*
X148125184Y-121882000D01*
X147960772Y-121849297D01*
X147805900Y-121785147D01*
X147666519Y-121692015D01*
X147547985Y-121573481D01*
X147454853Y-121434100D01*
X147390703Y-121279228D01*
X147358000Y-121114816D01*
X147358000Y-120947184D01*
X147390703Y-120782772D01*
X147454853Y-120627900D01*
X147547985Y-120488519D01*
X147666519Y-120369985D01*
X147805900Y-120276853D01*
X147960772Y-120212703D01*
X148125184Y-120180000D01*
X148292816Y-120180000D01*
X148457228Y-120212703D01*
G37*
G36*
X168777228Y-120212703D02*
G01*
X168932100Y-120276853D01*
X169071481Y-120369985D01*
X169190015Y-120488519D01*
X169283147Y-120627900D01*
X169347297Y-120782772D01*
X169380000Y-120947184D01*
X169380000Y-121114816D01*
X169347297Y-121279228D01*
X169283147Y-121434100D01*
X169190015Y-121573481D01*
X169071481Y-121692015D01*
X168932100Y-121785147D01*
X168777228Y-121849297D01*
X168612816Y-121882000D01*
X168445184Y-121882000D01*
X168280772Y-121849297D01*
X168125900Y-121785147D01*
X167986519Y-121692015D01*
X167867985Y-121573481D01*
X167774853Y-121434100D01*
X167710703Y-121279228D01*
X167678000Y-121114816D01*
X167678000Y-120947184D01*
X167710703Y-120782772D01*
X167774853Y-120627900D01*
X167867985Y-120488519D01*
X167986519Y-120369985D01*
X168125900Y-120276853D01*
X168280772Y-120212703D01*
X168445184Y-120180000D01*
X168612816Y-120180000D01*
X168777228Y-120212703D01*
G37*
G36*
X163697228Y-120212703D02*
G01*
X163852100Y-120276853D01*
X163991481Y-120369985D01*
X164110015Y-120488519D01*
X164203147Y-120627900D01*
X164267297Y-120782772D01*
X164300000Y-120947184D01*
X164300000Y-121114816D01*
X164267297Y-121279228D01*
X164203147Y-121434100D01*
X164110015Y-121573481D01*
X163991481Y-121692015D01*
X163852100Y-121785147D01*
X163697228Y-121849297D01*
X163532816Y-121882000D01*
X163365184Y-121882000D01*
X163200772Y-121849297D01*
X163045900Y-121785147D01*
X162906519Y-121692015D01*
X162787985Y-121573481D01*
X162694853Y-121434100D01*
X162630703Y-121279228D01*
X162598000Y-121114816D01*
X162598000Y-120947184D01*
X162630703Y-120782772D01*
X162694853Y-120627900D01*
X162787985Y-120488519D01*
X162906519Y-120369985D01*
X163045900Y-120276853D01*
X163200772Y-120212703D01*
X163365184Y-120180000D01*
X163532816Y-120180000D01*
X163697228Y-120212703D01*
G37*
G36*
X161157228Y-120212703D02*
G01*
X161312100Y-120276853D01*
X161451481Y-120369985D01*
X161570015Y-120488519D01*
X161663147Y-120627900D01*
X161727297Y-120782772D01*
X161760000Y-120947184D01*
X161760000Y-121114816D01*
X161727297Y-121279228D01*
X161663147Y-121434100D01*
X161570015Y-121573481D01*
X161451481Y-121692015D01*
X161312100Y-121785147D01*
X161157228Y-121849297D01*
X160992816Y-121882000D01*
X160825184Y-121882000D01*
X160660772Y-121849297D01*
X160505900Y-121785147D01*
X160366519Y-121692015D01*
X160247985Y-121573481D01*
X160154853Y-121434100D01*
X160090703Y-121279228D01*
X160058000Y-121114816D01*
X160058000Y-120947184D01*
X160090703Y-120782772D01*
X160154853Y-120627900D01*
X160247985Y-120488519D01*
X160366519Y-120369985D01*
X160505900Y-120276853D01*
X160660772Y-120212703D01*
X160825184Y-120180000D01*
X160992816Y-120180000D01*
X161157228Y-120212703D01*
G37*
G36*
X166237228Y-120212703D02*
G01*
X166392100Y-120276853D01*
X166531481Y-120369985D01*
X166650015Y-120488519D01*
X166743147Y-120627900D01*
X166807297Y-120782772D01*
X166840000Y-120947184D01*
X166840000Y-121114816D01*
X166807297Y-121279228D01*
X166743147Y-121434100D01*
X166650015Y-121573481D01*
X166531481Y-121692015D01*
X166392100Y-121785147D01*
X166237228Y-121849297D01*
X166072816Y-121882000D01*
X165905184Y-121882000D01*
X165740772Y-121849297D01*
X165585900Y-121785147D01*
X165446519Y-121692015D01*
X165327985Y-121573481D01*
X165234853Y-121434100D01*
X165170703Y-121279228D01*
X165138000Y-121114816D01*
X165138000Y-120947184D01*
X165170703Y-120782772D01*
X165234853Y-120627900D01*
X165327985Y-120488519D01*
X165446519Y-120369985D01*
X165585900Y-120276853D01*
X165740772Y-120212703D01*
X165905184Y-120180000D01*
X166072816Y-120180000D01*
X166237228Y-120212703D01*
G37*
G36*
X150997228Y-120212703D02*
G01*
X151152100Y-120276853D01*
X151291481Y-120369985D01*
X151410015Y-120488519D01*
X151503147Y-120627900D01*
X151567297Y-120782772D01*
X151600000Y-120947184D01*
X151600000Y-121114816D01*
X151567297Y-121279228D01*
X151503147Y-121434100D01*
X151410015Y-121573481D01*
X151291481Y-121692015D01*
X151152100Y-121785147D01*
X150997228Y-121849297D01*
X150832816Y-121882000D01*
X150665184Y-121882000D01*
X150500772Y-121849297D01*
X150345900Y-121785147D01*
X150206519Y-121692015D01*
X150087985Y-121573481D01*
X149994853Y-121434100D01*
X149930703Y-121279228D01*
X149898000Y-121114816D01*
X149898000Y-120947184D01*
X149930703Y-120782772D01*
X149994853Y-120627900D01*
X150087985Y-120488519D01*
X150206519Y-120369985D01*
X150345900Y-120276853D01*
X150500772Y-120212703D01*
X150665184Y-120180000D01*
X150832816Y-120180000D01*
X150997228Y-120212703D01*
G37*
G36*
X182747228Y-107666703D02*
G01*
X182902100Y-107730853D01*
X183041481Y-107823985D01*
X183160015Y-107942519D01*
X183253147Y-108081900D01*
X183317297Y-108236772D01*
X183350000Y-108401184D01*
X183350000Y-108568816D01*
X183317297Y-108733228D01*
X183253147Y-108888100D01*
X183160015Y-109027481D01*
X183041481Y-109146015D01*
X182902100Y-109239147D01*
X182747228Y-109303297D01*
X182582816Y-109336000D01*
X182415184Y-109336000D01*
X182250772Y-109303297D01*
X182095900Y-109239147D01*
X181956519Y-109146015D01*
X181837985Y-109027481D01*
X181744853Y-108888100D01*
X181680703Y-108733228D01*
X181648000Y-108568816D01*
X181648000Y-108401184D01*
X181680703Y-108236772D01*
X181744853Y-108081900D01*
X181837985Y-107942519D01*
X181956519Y-107823985D01*
X182095900Y-107730853D01*
X182250772Y-107666703D01*
X182415184Y-107634000D01*
X182582816Y-107634000D01*
X182747228Y-107666703D01*
G37*
G36*
X125851228Y-107666703D02*
G01*
X126006100Y-107730853D01*
X126145481Y-107823985D01*
X126264015Y-107942519D01*
X126357147Y-108081900D01*
X126421297Y-108236772D01*
X126454000Y-108401184D01*
X126454000Y-108568816D01*
X126421297Y-108733228D01*
X126357147Y-108888100D01*
X126264015Y-109027481D01*
X126145481Y-109146015D01*
X126006100Y-109239147D01*
X125851228Y-109303297D01*
X125686816Y-109336000D01*
X125519184Y-109336000D01*
X125354772Y-109303297D01*
X125199900Y-109239147D01*
X125060519Y-109146015D01*
X124941985Y-109027481D01*
X124848853Y-108888100D01*
X124784703Y-108733228D01*
X124752000Y-108568816D01*
X124752000Y-108401184D01*
X124784703Y-108236772D01*
X124848853Y-108081900D01*
X124941985Y-107942519D01*
X125060519Y-107823985D01*
X125199900Y-107730853D01*
X125354772Y-107666703D01*
X125519184Y-107634000D01*
X125686816Y-107634000D01*
X125851228Y-107666703D01*
G37*
G36*
X206591000Y-109336000D02*
G01*
X204889000Y-109336000D01*
X204889000Y-107634000D01*
X206591000Y-107634000D01*
X206591000Y-109336000D01*
G37*
G36*
X185287228Y-107666703D02*
G01*
X185442100Y-107730853D01*
X185581481Y-107823985D01*
X185700015Y-107942519D01*
X185793147Y-108081900D01*
X185857297Y-108236772D01*
X185890000Y-108401184D01*
X185890000Y-108568816D01*
X185857297Y-108733228D01*
X185793147Y-108888100D01*
X185700015Y-109027481D01*
X185581481Y-109146015D01*
X185442100Y-109239147D01*
X185287228Y-109303297D01*
X185122816Y-109336000D01*
X184955184Y-109336000D01*
X184790772Y-109303297D01*
X184635900Y-109239147D01*
X184496519Y-109146015D01*
X184377985Y-109027481D01*
X184284853Y-108888100D01*
X184220703Y-108733228D01*
X184188000Y-108568816D01*
X184188000Y-108401184D01*
X184220703Y-108236772D01*
X184284853Y-108081900D01*
X184377985Y-107942519D01*
X184496519Y-107823985D01*
X184635900Y-107730853D01*
X184790772Y-107666703D01*
X184955184Y-107634000D01*
X185122816Y-107634000D01*
X185287228Y-107666703D01*
G37*
G36*
X180207228Y-107666703D02*
G01*
X180362100Y-107730853D01*
X180501481Y-107823985D01*
X180620015Y-107942519D01*
X180713147Y-108081900D01*
X180777297Y-108236772D01*
X180810000Y-108401184D01*
X180810000Y-108568816D01*
X180777297Y-108733228D01*
X180713147Y-108888100D01*
X180620015Y-109027481D01*
X180501481Y-109146015D01*
X180362100Y-109239147D01*
X180207228Y-109303297D01*
X180042816Y-109336000D01*
X179875184Y-109336000D01*
X179710772Y-109303297D01*
X179555900Y-109239147D01*
X179416519Y-109146015D01*
X179297985Y-109027481D01*
X179204853Y-108888100D01*
X179140703Y-108733228D01*
X179108000Y-108568816D01*
X179108000Y-108401184D01*
X179140703Y-108236772D01*
X179204853Y-108081900D01*
X179297985Y-107942519D01*
X179416519Y-107823985D01*
X179555900Y-107730853D01*
X179710772Y-107666703D01*
X179875184Y-107634000D01*
X180042816Y-107634000D01*
X180207228Y-107666703D01*
G37*
G36*
X177667228Y-107666703D02*
G01*
X177822100Y-107730853D01*
X177961481Y-107823985D01*
X178080015Y-107942519D01*
X178173147Y-108081900D01*
X178237297Y-108236772D01*
X178270000Y-108401184D01*
X178270000Y-108568816D01*
X178237297Y-108733228D01*
X178173147Y-108888100D01*
X178080015Y-109027481D01*
X177961481Y-109146015D01*
X177822100Y-109239147D01*
X177667228Y-109303297D01*
X177502816Y-109336000D01*
X177335184Y-109336000D01*
X177170772Y-109303297D01*
X177015900Y-109239147D01*
X176876519Y-109146015D01*
X176757985Y-109027481D01*
X176664853Y-108888100D01*
X176600703Y-108733228D01*
X176568000Y-108568816D01*
X176568000Y-108401184D01*
X176600703Y-108236772D01*
X176664853Y-108081900D01*
X176757985Y-107942519D01*
X176876519Y-107823985D01*
X177015900Y-107730853D01*
X177170772Y-107666703D01*
X177335184Y-107634000D01*
X177502816Y-107634000D01*
X177667228Y-107666703D01*
G37*
G36*
X175127228Y-107666703D02*
G01*
X175282100Y-107730853D01*
X175421481Y-107823985D01*
X175540015Y-107942519D01*
X175633147Y-108081900D01*
X175697297Y-108236772D01*
X175730000Y-108401184D01*
X175730000Y-108568816D01*
X175697297Y-108733228D01*
X175633147Y-108888100D01*
X175540015Y-109027481D01*
X175421481Y-109146015D01*
X175282100Y-109239147D01*
X175127228Y-109303297D01*
X174962816Y-109336000D01*
X174795184Y-109336000D01*
X174630772Y-109303297D01*
X174475900Y-109239147D01*
X174336519Y-109146015D01*
X174217985Y-109027481D01*
X174124853Y-108888100D01*
X174060703Y-108733228D01*
X174028000Y-108568816D01*
X174028000Y-108401184D01*
X174060703Y-108236772D01*
X174124853Y-108081900D01*
X174217985Y-107942519D01*
X174336519Y-107823985D01*
X174475900Y-107730853D01*
X174630772Y-107666703D01*
X174795184Y-107634000D01*
X174962816Y-107634000D01*
X175127228Y-107666703D01*
G37*
G36*
X172587228Y-107666703D02*
G01*
X172742100Y-107730853D01*
X172881481Y-107823985D01*
X173000015Y-107942519D01*
X173093147Y-108081900D01*
X173157297Y-108236772D01*
X173190000Y-108401184D01*
X173190000Y-108568816D01*
X173157297Y-108733228D01*
X173093147Y-108888100D01*
X173000015Y-109027481D01*
X172881481Y-109146015D01*
X172742100Y-109239147D01*
X172587228Y-109303297D01*
X172422816Y-109336000D01*
X172255184Y-109336000D01*
X172090772Y-109303297D01*
X171935900Y-109239147D01*
X171796519Y-109146015D01*
X171677985Y-109027481D01*
X171584853Y-108888100D01*
X171520703Y-108733228D01*
X171488000Y-108568816D01*
X171488000Y-108401184D01*
X171520703Y-108236772D01*
X171584853Y-108081900D01*
X171677985Y-107942519D01*
X171796519Y-107823985D01*
X171935900Y-107730853D01*
X172090772Y-107666703D01*
X172255184Y-107634000D01*
X172422816Y-107634000D01*
X172587228Y-107666703D01*
G37*
G36*
X170047228Y-107666703D02*
G01*
X170202100Y-107730853D01*
X170341481Y-107823985D01*
X170460015Y-107942519D01*
X170553147Y-108081900D01*
X170617297Y-108236772D01*
X170650000Y-108401184D01*
X170650000Y-108568816D01*
X170617297Y-108733228D01*
X170553147Y-108888100D01*
X170460015Y-109027481D01*
X170341481Y-109146015D01*
X170202100Y-109239147D01*
X170047228Y-109303297D01*
X169882816Y-109336000D01*
X169715184Y-109336000D01*
X169550772Y-109303297D01*
X169395900Y-109239147D01*
X169256519Y-109146015D01*
X169137985Y-109027481D01*
X169044853Y-108888100D01*
X168980703Y-108733228D01*
X168948000Y-108568816D01*
X168948000Y-108401184D01*
X168980703Y-108236772D01*
X169044853Y-108081900D01*
X169137985Y-107942519D01*
X169256519Y-107823985D01*
X169395900Y-107730853D01*
X169550772Y-107666703D01*
X169715184Y-107634000D01*
X169882816Y-107634000D01*
X170047228Y-107666703D01*
G37*
G36*
X116294000Y-109336000D02*
G01*
X114592000Y-109336000D01*
X114592000Y-107634000D01*
X116294000Y-107634000D01*
X116294000Y-109336000D01*
G37*
G36*
X118231228Y-107666703D02*
G01*
X118386100Y-107730853D01*
X118525481Y-107823985D01*
X118644015Y-107942519D01*
X118737147Y-108081900D01*
X118801297Y-108236772D01*
X118834000Y-108401184D01*
X118834000Y-108568816D01*
X118801297Y-108733228D01*
X118737147Y-108888100D01*
X118644015Y-109027481D01*
X118525481Y-109146015D01*
X118386100Y-109239147D01*
X118231228Y-109303297D01*
X118066816Y-109336000D01*
X117899184Y-109336000D01*
X117734772Y-109303297D01*
X117579900Y-109239147D01*
X117440519Y-109146015D01*
X117321985Y-109027481D01*
X117228853Y-108888100D01*
X117164703Y-108733228D01*
X117132000Y-108568816D01*
X117132000Y-108401184D01*
X117164703Y-108236772D01*
X117228853Y-108081900D01*
X117321985Y-107942519D01*
X117440519Y-107823985D01*
X117579900Y-107730853D01*
X117734772Y-107666703D01*
X117899184Y-107634000D01*
X118066816Y-107634000D01*
X118231228Y-107666703D01*
G37*
G36*
X123311228Y-107666703D02*
G01*
X123466100Y-107730853D01*
X123605481Y-107823985D01*
X123724015Y-107942519D01*
X123817147Y-108081900D01*
X123881297Y-108236772D01*
X123914000Y-108401184D01*
X123914000Y-108568816D01*
X123881297Y-108733228D01*
X123817147Y-108888100D01*
X123724015Y-109027481D01*
X123605481Y-109146015D01*
X123466100Y-109239147D01*
X123311228Y-109303297D01*
X123146816Y-109336000D01*
X122979184Y-109336000D01*
X122814772Y-109303297D01*
X122659900Y-109239147D01*
X122520519Y-109146015D01*
X122401985Y-109027481D01*
X122308853Y-108888100D01*
X122244703Y-108733228D01*
X122212000Y-108568816D01*
X122212000Y-108401184D01*
X122244703Y-108236772D01*
X122308853Y-108081900D01*
X122401985Y-107942519D01*
X122520519Y-107823985D01*
X122659900Y-107730853D01*
X122814772Y-107666703D01*
X122979184Y-107634000D01*
X123146816Y-107634000D01*
X123311228Y-107666703D01*
G37*
G36*
X128391228Y-107666703D02*
G01*
X128546100Y-107730853D01*
X128685481Y-107823985D01*
X128804015Y-107942519D01*
X128897147Y-108081900D01*
X128961297Y-108236772D01*
X128994000Y-108401184D01*
X128994000Y-108568816D01*
X128961297Y-108733228D01*
X128897147Y-108888100D01*
X128804015Y-109027481D01*
X128685481Y-109146015D01*
X128546100Y-109239147D01*
X128391228Y-109303297D01*
X128226816Y-109336000D01*
X128059184Y-109336000D01*
X127894772Y-109303297D01*
X127739900Y-109239147D01*
X127600519Y-109146015D01*
X127481985Y-109027481D01*
X127388853Y-108888100D01*
X127324703Y-108733228D01*
X127292000Y-108568816D01*
X127292000Y-108401184D01*
X127324703Y-108236772D01*
X127388853Y-108081900D01*
X127481985Y-107942519D01*
X127600519Y-107823985D01*
X127739900Y-107730853D01*
X127894772Y-107666703D01*
X128059184Y-107634000D01*
X128226816Y-107634000D01*
X128391228Y-107666703D01*
G37*
G36*
X99054228Y-107666703D02*
G01*
X99209100Y-107730853D01*
X99348481Y-107823985D01*
X99467015Y-107942519D01*
X99560147Y-108081900D01*
X99624297Y-108236772D01*
X99657000Y-108401184D01*
X99657000Y-108568816D01*
X99624297Y-108733228D01*
X99560147Y-108888100D01*
X99467015Y-109027481D01*
X99348481Y-109146015D01*
X99209100Y-109239147D01*
X99054228Y-109303297D01*
X98889816Y-109336000D01*
X98722184Y-109336000D01*
X98557772Y-109303297D01*
X98402900Y-109239147D01*
X98263519Y-109146015D01*
X98144985Y-109027481D01*
X98051853Y-108888100D01*
X97987703Y-108733228D01*
X97955000Y-108568816D01*
X97955000Y-108401184D01*
X97987703Y-108236772D01*
X98051853Y-108081900D01*
X98144985Y-107942519D01*
X98263519Y-107823985D01*
X98402900Y-107730853D01*
X98557772Y-107666703D01*
X98722184Y-107634000D01*
X98889816Y-107634000D01*
X99054228Y-107666703D01*
G37*
G36*
X130931228Y-107666703D02*
G01*
X131086100Y-107730853D01*
X131225481Y-107823985D01*
X131344015Y-107942519D01*
X131437147Y-108081900D01*
X131501297Y-108236772D01*
X131534000Y-108401184D01*
X131534000Y-108568816D01*
X131501297Y-108733228D01*
X131437147Y-108888100D01*
X131344015Y-109027481D01*
X131225481Y-109146015D01*
X131086100Y-109239147D01*
X130931228Y-109303297D01*
X130766816Y-109336000D01*
X130599184Y-109336000D01*
X130434772Y-109303297D01*
X130279900Y-109239147D01*
X130140519Y-109146015D01*
X130021985Y-109027481D01*
X129928853Y-108888100D01*
X129864703Y-108733228D01*
X129832000Y-108568816D01*
X129832000Y-108401184D01*
X129864703Y-108236772D01*
X129928853Y-108081900D01*
X130021985Y-107942519D01*
X130140519Y-107823985D01*
X130279900Y-107730853D01*
X130434772Y-107666703D01*
X130599184Y-107634000D01*
X130766816Y-107634000D01*
X130931228Y-107666703D01*
G37*
G36*
X133471228Y-107666703D02*
G01*
X133626100Y-107730853D01*
X133765481Y-107823985D01*
X133884015Y-107942519D01*
X133977147Y-108081900D01*
X134041297Y-108236772D01*
X134074000Y-108401184D01*
X134074000Y-108568816D01*
X134041297Y-108733228D01*
X133977147Y-108888100D01*
X133884015Y-109027481D01*
X133765481Y-109146015D01*
X133626100Y-109239147D01*
X133471228Y-109303297D01*
X133306816Y-109336000D01*
X133139184Y-109336000D01*
X132974772Y-109303297D01*
X132819900Y-109239147D01*
X132680519Y-109146015D01*
X132561985Y-109027481D01*
X132468853Y-108888100D01*
X132404703Y-108733228D01*
X132372000Y-108568816D01*
X132372000Y-108401184D01*
X132404703Y-108236772D01*
X132468853Y-108081900D01*
X132561985Y-107942519D01*
X132680519Y-107823985D01*
X132819900Y-107730853D01*
X132974772Y-107666703D01*
X133139184Y-107634000D01*
X133306816Y-107634000D01*
X133471228Y-107666703D01*
G37*
G36*
X136011228Y-107666703D02*
G01*
X136166100Y-107730853D01*
X136305481Y-107823985D01*
X136424015Y-107942519D01*
X136517147Y-108081900D01*
X136581297Y-108236772D01*
X136614000Y-108401184D01*
X136614000Y-108568816D01*
X136581297Y-108733228D01*
X136517147Y-108888100D01*
X136424015Y-109027481D01*
X136305481Y-109146015D01*
X136166100Y-109239147D01*
X136011228Y-109303297D01*
X135846816Y-109336000D01*
X135679184Y-109336000D01*
X135514772Y-109303297D01*
X135359900Y-109239147D01*
X135220519Y-109146015D01*
X135101985Y-109027481D01*
X135008853Y-108888100D01*
X134944703Y-108733228D01*
X134912000Y-108568816D01*
X134912000Y-108401184D01*
X134944703Y-108236772D01*
X135008853Y-108081900D01*
X135101985Y-107942519D01*
X135220519Y-107823985D01*
X135359900Y-107730853D01*
X135514772Y-107666703D01*
X135679184Y-107634000D01*
X135846816Y-107634000D01*
X136011228Y-107666703D01*
G37*
G36*
X167507228Y-107666703D02*
G01*
X167662100Y-107730853D01*
X167801481Y-107823985D01*
X167920015Y-107942519D01*
X168013147Y-108081900D01*
X168077297Y-108236772D01*
X168110000Y-108401184D01*
X168110000Y-108568816D01*
X168077297Y-108733228D01*
X168013147Y-108888100D01*
X167920015Y-109027481D01*
X167801481Y-109146015D01*
X167662100Y-109239147D01*
X167507228Y-109303297D01*
X167342816Y-109336000D01*
X167175184Y-109336000D01*
X167010772Y-109303297D01*
X166855900Y-109239147D01*
X166716519Y-109146015D01*
X166597985Y-109027481D01*
X166504853Y-108888100D01*
X166440703Y-108733228D01*
X166408000Y-108568816D01*
X166408000Y-108401184D01*
X166440703Y-108236772D01*
X166504853Y-108081900D01*
X166597985Y-107942519D01*
X166716519Y-107823985D01*
X166855900Y-107730853D01*
X167010772Y-107666703D01*
X167175184Y-107634000D01*
X167342816Y-107634000D01*
X167507228Y-107666703D01*
G37*
G36*
X138551228Y-107666703D02*
G01*
X138706100Y-107730853D01*
X138845481Y-107823985D01*
X138964015Y-107942519D01*
X139057147Y-108081900D01*
X139121297Y-108236772D01*
X139154000Y-108401184D01*
X139154000Y-108568816D01*
X139121297Y-108733228D01*
X139057147Y-108888100D01*
X138964015Y-109027481D01*
X138845481Y-109146015D01*
X138706100Y-109239147D01*
X138551228Y-109303297D01*
X138386816Y-109336000D01*
X138219184Y-109336000D01*
X138054772Y-109303297D01*
X137899900Y-109239147D01*
X137760519Y-109146015D01*
X137641985Y-109027481D01*
X137548853Y-108888100D01*
X137484703Y-108733228D01*
X137452000Y-108568816D01*
X137452000Y-108401184D01*
X137484703Y-108236772D01*
X137548853Y-108081900D01*
X137641985Y-107942519D01*
X137760519Y-107823985D01*
X137899900Y-107730853D01*
X138054772Y-107666703D01*
X138219184Y-107634000D01*
X138386816Y-107634000D01*
X138551228Y-107666703D01*
G37*
G36*
X163030000Y-109336000D02*
G01*
X161328000Y-109336000D01*
X161328000Y-107634000D01*
X163030000Y-107634000D01*
X163030000Y-109336000D01*
G37*
G36*
X164967228Y-107666703D02*
G01*
X165122100Y-107730853D01*
X165261481Y-107823985D01*
X165380015Y-107942519D01*
X165473147Y-108081900D01*
X165537297Y-108236772D01*
X165570000Y-108401184D01*
X165570000Y-108568816D01*
X165537297Y-108733228D01*
X165473147Y-108888100D01*
X165380015Y-109027481D01*
X165261481Y-109146015D01*
X165122100Y-109239147D01*
X164967228Y-109303297D01*
X164802816Y-109336000D01*
X164635184Y-109336000D01*
X164470772Y-109303297D01*
X164315900Y-109239147D01*
X164176519Y-109146015D01*
X164057985Y-109027481D01*
X163964853Y-108888100D01*
X163900703Y-108733228D01*
X163868000Y-108568816D01*
X163868000Y-108401184D01*
X163900703Y-108236772D01*
X163964853Y-108081900D01*
X164057985Y-107942519D01*
X164176519Y-107823985D01*
X164315900Y-107730853D01*
X164470772Y-107666703D01*
X164635184Y-107634000D01*
X164802816Y-107634000D01*
X164967228Y-107666703D01*
G37*
G36*
X120771228Y-107666703D02*
G01*
X120926100Y-107730853D01*
X121065481Y-107823985D01*
X121184015Y-107942519D01*
X121277147Y-108081900D01*
X121341297Y-108236772D01*
X121374000Y-108401184D01*
X121374000Y-108568816D01*
X121341297Y-108733228D01*
X121277147Y-108888100D01*
X121184015Y-109027481D01*
X121065481Y-109146015D01*
X120926100Y-109239147D01*
X120771228Y-109303297D01*
X120606816Y-109336000D01*
X120439184Y-109336000D01*
X120274772Y-109303297D01*
X120119900Y-109239147D01*
X119980519Y-109146015D01*
X119861985Y-109027481D01*
X119768853Y-108888100D01*
X119704703Y-108733228D01*
X119672000Y-108568816D01*
X119672000Y-108401184D01*
X119704703Y-108236772D01*
X119768853Y-108081900D01*
X119861985Y-107942519D01*
X119980519Y-107823985D01*
X120119900Y-107730853D01*
X120274772Y-107666703D01*
X120439184Y-107634000D01*
X120606816Y-107634000D01*
X120771228Y-107666703D01*
G37*
G36*
X112135228Y-106396703D02*
G01*
X112290100Y-106460853D01*
X112429481Y-106553985D01*
X112548015Y-106672519D01*
X112641147Y-106811900D01*
X112705297Y-106966772D01*
X112738000Y-107131184D01*
X112738000Y-107298816D01*
X112705297Y-107463228D01*
X112641147Y-107618100D01*
X112548015Y-107757481D01*
X112429481Y-107876015D01*
X112290100Y-107969147D01*
X112135228Y-108033297D01*
X111970816Y-108066000D01*
X111803184Y-108066000D01*
X111638772Y-108033297D01*
X111483900Y-107969147D01*
X111344519Y-107876015D01*
X111225985Y-107757481D01*
X111132853Y-107618100D01*
X111068703Y-107463228D01*
X111036000Y-107298816D01*
X111036000Y-107131184D01*
X111068703Y-106966772D01*
X111132853Y-106811900D01*
X111225985Y-106672519D01*
X111344519Y-106553985D01*
X111483900Y-106460853D01*
X111638772Y-106396703D01*
X111803184Y-106364000D01*
X111970816Y-106364000D01*
X112135228Y-106396703D01*
G37*
G36*
X158871228Y-106396703D02*
G01*
X159026100Y-106460853D01*
X159165481Y-106553985D01*
X159284015Y-106672519D01*
X159377147Y-106811900D01*
X159441297Y-106966772D01*
X159474000Y-107131184D01*
X159474000Y-107298816D01*
X159441297Y-107463228D01*
X159377147Y-107618100D01*
X159284015Y-107757481D01*
X159165481Y-107876015D01*
X159026100Y-107969147D01*
X158871228Y-108033297D01*
X158706816Y-108066000D01*
X158539184Y-108066000D01*
X158374772Y-108033297D01*
X158219900Y-107969147D01*
X158080519Y-107876015D01*
X157961985Y-107757481D01*
X157868853Y-107618100D01*
X157804703Y-107463228D01*
X157772000Y-107298816D01*
X157772000Y-107131184D01*
X157804703Y-106966772D01*
X157868853Y-106811900D01*
X157961985Y-106672519D01*
X158080519Y-106553985D01*
X158219900Y-106460853D01*
X158374772Y-106396703D01*
X158539184Y-106364000D01*
X158706816Y-106364000D01*
X158871228Y-106396703D01*
G37*
G36*
X99054228Y-105126703D02*
G01*
X99209100Y-105190853D01*
X99348481Y-105283985D01*
X99467015Y-105402519D01*
X99560147Y-105541900D01*
X99624297Y-105696772D01*
X99657000Y-105861184D01*
X99657000Y-106028816D01*
X99624297Y-106193228D01*
X99560147Y-106348100D01*
X99467015Y-106487481D01*
X99348481Y-106606015D01*
X99209100Y-106699147D01*
X99054228Y-106763297D01*
X98889816Y-106796000D01*
X98722184Y-106796000D01*
X98557772Y-106763297D01*
X98402900Y-106699147D01*
X98263519Y-106606015D01*
X98144985Y-106487481D01*
X98051853Y-106348100D01*
X97987703Y-106193228D01*
X97955000Y-106028816D01*
X97955000Y-105861184D01*
X97987703Y-105696772D01*
X98051853Y-105541900D01*
X98144985Y-105402519D01*
X98263519Y-105283985D01*
X98402900Y-105190853D01*
X98557772Y-105126703D01*
X98722184Y-105094000D01*
X98889816Y-105094000D01*
X99054228Y-105126703D01*
G37*
G36*
X205988228Y-105126703D02*
G01*
X206143100Y-105190853D01*
X206282481Y-105283985D01*
X206401015Y-105402519D01*
X206494147Y-105541900D01*
X206558297Y-105696772D01*
X206591000Y-105861184D01*
X206591000Y-106028816D01*
X206558297Y-106193228D01*
X206494147Y-106348100D01*
X206401015Y-106487481D01*
X206282481Y-106606015D01*
X206143100Y-106699147D01*
X205988228Y-106763297D01*
X205823816Y-106796000D01*
X205656184Y-106796000D01*
X205491772Y-106763297D01*
X205336900Y-106699147D01*
X205197519Y-106606015D01*
X205078985Y-106487481D01*
X204985853Y-106348100D01*
X204921703Y-106193228D01*
X204889000Y-106028816D01*
X204889000Y-105861184D01*
X204921703Y-105696772D01*
X204985853Y-105541900D01*
X205078985Y-105402519D01*
X205197519Y-105283985D01*
X205336900Y-105190853D01*
X205491772Y-105126703D01*
X205656184Y-105094000D01*
X205823816Y-105094000D01*
X205988228Y-105126703D01*
G37*
G36*
X99054228Y-102586703D02*
G01*
X99209100Y-102650853D01*
X99348481Y-102743985D01*
X99467015Y-102862519D01*
X99560147Y-103001900D01*
X99624297Y-103156772D01*
X99657000Y-103321184D01*
X99657000Y-103488816D01*
X99624297Y-103653228D01*
X99560147Y-103808100D01*
X99467015Y-103947481D01*
X99348481Y-104066015D01*
X99209100Y-104159147D01*
X99054228Y-104223297D01*
X98889816Y-104256000D01*
X98722184Y-104256000D01*
X98557772Y-104223297D01*
X98402900Y-104159147D01*
X98263519Y-104066015D01*
X98144985Y-103947481D01*
X98051853Y-103808100D01*
X97987703Y-103653228D01*
X97955000Y-103488816D01*
X97955000Y-103321184D01*
X97987703Y-103156772D01*
X98051853Y-103001900D01*
X98144985Y-102862519D01*
X98263519Y-102743985D01*
X98402900Y-102650853D01*
X98557772Y-102586703D01*
X98722184Y-102554000D01*
X98889816Y-102554000D01*
X99054228Y-102586703D01*
G37*
G36*
X205988228Y-102586703D02*
G01*
X206143100Y-102650853D01*
X206282481Y-102743985D01*
X206401015Y-102862519D01*
X206494147Y-103001900D01*
X206558297Y-103156772D01*
X206591000Y-103321184D01*
X206591000Y-103488816D01*
X206558297Y-103653228D01*
X206494147Y-103808100D01*
X206401015Y-103947481D01*
X206282481Y-104066015D01*
X206143100Y-104159147D01*
X205988228Y-104223297D01*
X205823816Y-104256000D01*
X205656184Y-104256000D01*
X205491772Y-104223297D01*
X205336900Y-104159147D01*
X205197519Y-104066015D01*
X205078985Y-103947481D01*
X204985853Y-103808100D01*
X204921703Y-103653228D01*
X204889000Y-103488816D01*
X204889000Y-103321184D01*
X204921703Y-103156772D01*
X204985853Y-103001900D01*
X205078985Y-102862519D01*
X205197519Y-102743985D01*
X205336900Y-102650853D01*
X205491772Y-102586703D01*
X205656184Y-102554000D01*
X205823816Y-102554000D01*
X205988228Y-102586703D01*
G37*
G36*
X158871228Y-101396703D02*
G01*
X159026100Y-101460853D01*
X159165481Y-101553985D01*
X159284015Y-101672519D01*
X159377147Y-101811900D01*
X159441297Y-101966772D01*
X159474000Y-102131184D01*
X159474000Y-102298816D01*
X159441297Y-102463228D01*
X159377147Y-102618100D01*
X159284015Y-102757481D01*
X159165481Y-102876015D01*
X159026100Y-102969147D01*
X158871228Y-103033297D01*
X158706816Y-103066000D01*
X158539184Y-103066000D01*
X158374772Y-103033297D01*
X158219900Y-102969147D01*
X158080519Y-102876015D01*
X157961985Y-102757481D01*
X157868853Y-102618100D01*
X157804703Y-102463228D01*
X157772000Y-102298816D01*
X157772000Y-102131184D01*
X157804703Y-101966772D01*
X157868853Y-101811900D01*
X157961985Y-101672519D01*
X158080519Y-101553985D01*
X158219900Y-101460853D01*
X158374772Y-101396703D01*
X158539184Y-101364000D01*
X158706816Y-101364000D01*
X158871228Y-101396703D01*
G37*
G36*
X112135228Y-101396703D02*
G01*
X112290100Y-101460853D01*
X112429481Y-101553985D01*
X112548015Y-101672519D01*
X112641147Y-101811900D01*
X112705297Y-101966772D01*
X112738000Y-102131184D01*
X112738000Y-102298816D01*
X112705297Y-102463228D01*
X112641147Y-102618100D01*
X112548015Y-102757481D01*
X112429481Y-102876015D01*
X112290100Y-102969147D01*
X112135228Y-103033297D01*
X111970816Y-103066000D01*
X111803184Y-103066000D01*
X111638772Y-103033297D01*
X111483900Y-102969147D01*
X111344519Y-102876015D01*
X111225985Y-102757481D01*
X111132853Y-102618100D01*
X111068703Y-102463228D01*
X111036000Y-102298816D01*
X111036000Y-102131184D01*
X111068703Y-101966772D01*
X111132853Y-101811900D01*
X111225985Y-101672519D01*
X111344519Y-101553985D01*
X111483900Y-101460853D01*
X111638772Y-101396703D01*
X111803184Y-101364000D01*
X111970816Y-101364000D01*
X112135228Y-101396703D01*
G37*
G36*
X118231228Y-100046703D02*
G01*
X118386100Y-100110853D01*
X118525481Y-100203985D01*
X118644015Y-100322519D01*
X118737147Y-100461900D01*
X118801297Y-100616772D01*
X118834000Y-100781184D01*
X118834000Y-100948816D01*
X118801297Y-101113228D01*
X118737147Y-101268100D01*
X118644015Y-101407481D01*
X118525481Y-101526015D01*
X118386100Y-101619147D01*
X118231228Y-101683297D01*
X118066816Y-101716000D01*
X117899184Y-101716000D01*
X117734772Y-101683297D01*
X117579900Y-101619147D01*
X117440519Y-101526015D01*
X117321985Y-101407481D01*
X117228853Y-101268100D01*
X117164703Y-101113228D01*
X117132000Y-100948816D01*
X117132000Y-100781184D01*
X117164703Y-100616772D01*
X117228853Y-100461900D01*
X117321985Y-100322519D01*
X117440519Y-100203985D01*
X117579900Y-100110853D01*
X117734772Y-100046703D01*
X117899184Y-100014000D01*
X118066816Y-100014000D01*
X118231228Y-100046703D01*
G37*
G36*
X99054228Y-100046703D02*
G01*
X99209100Y-100110853D01*
X99348481Y-100203985D01*
X99467015Y-100322519D01*
X99560147Y-100461900D01*
X99624297Y-100616772D01*
X99657000Y-100781184D01*
X99657000Y-100948816D01*
X99624297Y-101113228D01*
X99560147Y-101268100D01*
X99467015Y-101407481D01*
X99348481Y-101526015D01*
X99209100Y-101619147D01*
X99054228Y-101683297D01*
X98889816Y-101716000D01*
X98722184Y-101716000D01*
X98557772Y-101683297D01*
X98402900Y-101619147D01*
X98263519Y-101526015D01*
X98144985Y-101407481D01*
X98051853Y-101268100D01*
X97987703Y-101113228D01*
X97955000Y-100948816D01*
X97955000Y-100781184D01*
X97987703Y-100616772D01*
X98051853Y-100461900D01*
X98144985Y-100322519D01*
X98263519Y-100203985D01*
X98402900Y-100110853D01*
X98557772Y-100046703D01*
X98722184Y-100014000D01*
X98889816Y-100014000D01*
X99054228Y-100046703D01*
G37*
G36*
X115691228Y-100046703D02*
G01*
X115846100Y-100110853D01*
X115985481Y-100203985D01*
X116104015Y-100322519D01*
X116197147Y-100461900D01*
X116261297Y-100616772D01*
X116294000Y-100781184D01*
X116294000Y-100948816D01*
X116261297Y-101113228D01*
X116197147Y-101268100D01*
X116104015Y-101407481D01*
X115985481Y-101526015D01*
X115846100Y-101619147D01*
X115691228Y-101683297D01*
X115526816Y-101716000D01*
X115359184Y-101716000D01*
X115194772Y-101683297D01*
X115039900Y-101619147D01*
X114900519Y-101526015D01*
X114781985Y-101407481D01*
X114688853Y-101268100D01*
X114624703Y-101113228D01*
X114592000Y-100948816D01*
X114592000Y-100781184D01*
X114624703Y-100616772D01*
X114688853Y-100461900D01*
X114781985Y-100322519D01*
X114900519Y-100203985D01*
X115039900Y-100110853D01*
X115194772Y-100046703D01*
X115359184Y-100014000D01*
X115526816Y-100014000D01*
X115691228Y-100046703D01*
G37*
G36*
X123311228Y-100046703D02*
G01*
X123466100Y-100110853D01*
X123605481Y-100203985D01*
X123724015Y-100322519D01*
X123817147Y-100461900D01*
X123881297Y-100616772D01*
X123914000Y-100781184D01*
X123914000Y-100948816D01*
X123881297Y-101113228D01*
X123817147Y-101268100D01*
X123724015Y-101407481D01*
X123605481Y-101526015D01*
X123466100Y-101619147D01*
X123311228Y-101683297D01*
X123146816Y-101716000D01*
X122979184Y-101716000D01*
X122814772Y-101683297D01*
X122659900Y-101619147D01*
X122520519Y-101526015D01*
X122401985Y-101407481D01*
X122308853Y-101268100D01*
X122244703Y-101113228D01*
X122212000Y-100948816D01*
X122212000Y-100781184D01*
X122244703Y-100616772D01*
X122308853Y-100461900D01*
X122401985Y-100322519D01*
X122520519Y-100203985D01*
X122659900Y-100110853D01*
X122814772Y-100046703D01*
X122979184Y-100014000D01*
X123146816Y-100014000D01*
X123311228Y-100046703D01*
G37*
G36*
X120771228Y-100046703D02*
G01*
X120926100Y-100110853D01*
X121065481Y-100203985D01*
X121184015Y-100322519D01*
X121277147Y-100461900D01*
X121341297Y-100616772D01*
X121374000Y-100781184D01*
X121374000Y-100948816D01*
X121341297Y-101113228D01*
X121277147Y-101268100D01*
X121184015Y-101407481D01*
X121065481Y-101526015D01*
X120926100Y-101619147D01*
X120771228Y-101683297D01*
X120606816Y-101716000D01*
X120439184Y-101716000D01*
X120274772Y-101683297D01*
X120119900Y-101619147D01*
X119980519Y-101526015D01*
X119861985Y-101407481D01*
X119768853Y-101268100D01*
X119704703Y-101113228D01*
X119672000Y-100948816D01*
X119672000Y-100781184D01*
X119704703Y-100616772D01*
X119768853Y-100461900D01*
X119861985Y-100322519D01*
X119980519Y-100203985D01*
X120119900Y-100110853D01*
X120274772Y-100046703D01*
X120439184Y-100014000D01*
X120606816Y-100014000D01*
X120771228Y-100046703D01*
G37*
G36*
X180207228Y-100046703D02*
G01*
X180362100Y-100110853D01*
X180501481Y-100203985D01*
X180620015Y-100322519D01*
X180713147Y-100461900D01*
X180777297Y-100616772D01*
X180810000Y-100781184D01*
X180810000Y-100948816D01*
X180777297Y-101113228D01*
X180713147Y-101268100D01*
X180620015Y-101407481D01*
X180501481Y-101526015D01*
X180362100Y-101619147D01*
X180207228Y-101683297D01*
X180042816Y-101716000D01*
X179875184Y-101716000D01*
X179710772Y-101683297D01*
X179555900Y-101619147D01*
X179416519Y-101526015D01*
X179297985Y-101407481D01*
X179204853Y-101268100D01*
X179140703Y-101113228D01*
X179108000Y-100948816D01*
X179108000Y-100781184D01*
X179140703Y-100616772D01*
X179204853Y-100461900D01*
X179297985Y-100322519D01*
X179416519Y-100203985D01*
X179555900Y-100110853D01*
X179710772Y-100046703D01*
X179875184Y-100014000D01*
X180042816Y-100014000D01*
X180207228Y-100046703D01*
G37*
G36*
X185287228Y-100046703D02*
G01*
X185442100Y-100110853D01*
X185581481Y-100203985D01*
X185700015Y-100322519D01*
X185793147Y-100461900D01*
X185857297Y-100616772D01*
X185890000Y-100781184D01*
X185890000Y-100948816D01*
X185857297Y-101113228D01*
X185793147Y-101268100D01*
X185700015Y-101407481D01*
X185581481Y-101526015D01*
X185442100Y-101619147D01*
X185287228Y-101683297D01*
X185122816Y-101716000D01*
X184955184Y-101716000D01*
X184790772Y-101683297D01*
X184635900Y-101619147D01*
X184496519Y-101526015D01*
X184377985Y-101407481D01*
X184284853Y-101268100D01*
X184220703Y-101113228D01*
X184188000Y-100948816D01*
X184188000Y-100781184D01*
X184220703Y-100616772D01*
X184284853Y-100461900D01*
X184377985Y-100322519D01*
X184496519Y-100203985D01*
X184635900Y-100110853D01*
X184790772Y-100046703D01*
X184955184Y-100014000D01*
X185122816Y-100014000D01*
X185287228Y-100046703D01*
G37*
G36*
X205988228Y-100046703D02*
G01*
X206143100Y-100110853D01*
X206282481Y-100203985D01*
X206401015Y-100322519D01*
X206494147Y-100461900D01*
X206558297Y-100616772D01*
X206591000Y-100781184D01*
X206591000Y-100948816D01*
X206558297Y-101113228D01*
X206494147Y-101268100D01*
X206401015Y-101407481D01*
X206282481Y-101526015D01*
X206143100Y-101619147D01*
X205988228Y-101683297D01*
X205823816Y-101716000D01*
X205656184Y-101716000D01*
X205491772Y-101683297D01*
X205336900Y-101619147D01*
X205197519Y-101526015D01*
X205078985Y-101407481D01*
X204985853Y-101268100D01*
X204921703Y-101113228D01*
X204889000Y-100948816D01*
X204889000Y-100781184D01*
X204921703Y-100616772D01*
X204985853Y-100461900D01*
X205078985Y-100322519D01*
X205197519Y-100203985D01*
X205336900Y-100110853D01*
X205491772Y-100046703D01*
X205656184Y-100014000D01*
X205823816Y-100014000D01*
X205988228Y-100046703D01*
G37*
G36*
X138551228Y-100046703D02*
G01*
X138706100Y-100110853D01*
X138845481Y-100203985D01*
X138964015Y-100322519D01*
X139057147Y-100461900D01*
X139121297Y-100616772D01*
X139154000Y-100781184D01*
X139154000Y-100948816D01*
X139121297Y-101113228D01*
X139057147Y-101268100D01*
X138964015Y-101407481D01*
X138845481Y-101526015D01*
X138706100Y-101619147D01*
X138551228Y-101683297D01*
X138386816Y-101716000D01*
X138219184Y-101716000D01*
X138054772Y-101683297D01*
X137899900Y-101619147D01*
X137760519Y-101526015D01*
X137641985Y-101407481D01*
X137548853Y-101268100D01*
X137484703Y-101113228D01*
X137452000Y-100948816D01*
X137452000Y-100781184D01*
X137484703Y-100616772D01*
X137548853Y-100461900D01*
X137641985Y-100322519D01*
X137760519Y-100203985D01*
X137899900Y-100110853D01*
X138054772Y-100046703D01*
X138219184Y-100014000D01*
X138386816Y-100014000D01*
X138551228Y-100046703D01*
G37*
G36*
X177667228Y-100046703D02*
G01*
X177822100Y-100110853D01*
X177961481Y-100203985D01*
X178080015Y-100322519D01*
X178173147Y-100461900D01*
X178237297Y-100616772D01*
X178270000Y-100781184D01*
X178270000Y-100948816D01*
X178237297Y-101113228D01*
X178173147Y-101268100D01*
X178080015Y-101407481D01*
X177961481Y-101526015D01*
X177822100Y-101619147D01*
X177667228Y-101683297D01*
X177502816Y-101716000D01*
X177335184Y-101716000D01*
X177170772Y-101683297D01*
X177015900Y-101619147D01*
X176876519Y-101526015D01*
X176757985Y-101407481D01*
X176664853Y-101268100D01*
X176600703Y-101113228D01*
X176568000Y-100948816D01*
X176568000Y-100781184D01*
X176600703Y-100616772D01*
X176664853Y-100461900D01*
X176757985Y-100322519D01*
X176876519Y-100203985D01*
X177015900Y-100110853D01*
X177170772Y-100046703D01*
X177335184Y-100014000D01*
X177502816Y-100014000D01*
X177667228Y-100046703D01*
G37*
G36*
X136011228Y-100046703D02*
G01*
X136166100Y-100110853D01*
X136305481Y-100203985D01*
X136424015Y-100322519D01*
X136517147Y-100461900D01*
X136581297Y-100616772D01*
X136614000Y-100781184D01*
X136614000Y-100948816D01*
X136581297Y-101113228D01*
X136517147Y-101268100D01*
X136424015Y-101407481D01*
X136305481Y-101526015D01*
X136166100Y-101619147D01*
X136011228Y-101683297D01*
X135846816Y-101716000D01*
X135679184Y-101716000D01*
X135514772Y-101683297D01*
X135359900Y-101619147D01*
X135220519Y-101526015D01*
X135101985Y-101407481D01*
X135008853Y-101268100D01*
X134944703Y-101113228D01*
X134912000Y-100948816D01*
X134912000Y-100781184D01*
X134944703Y-100616772D01*
X135008853Y-100461900D01*
X135101985Y-100322519D01*
X135220519Y-100203985D01*
X135359900Y-100110853D01*
X135514772Y-100046703D01*
X135679184Y-100014000D01*
X135846816Y-100014000D01*
X136011228Y-100046703D01*
G37*
G36*
X162427228Y-100046703D02*
G01*
X162582100Y-100110853D01*
X162721481Y-100203985D01*
X162840015Y-100322519D01*
X162933147Y-100461900D01*
X162997297Y-100616772D01*
X163030000Y-100781184D01*
X163030000Y-100948816D01*
X162997297Y-101113228D01*
X162933147Y-101268100D01*
X162840015Y-101407481D01*
X162721481Y-101526015D01*
X162582100Y-101619147D01*
X162427228Y-101683297D01*
X162262816Y-101716000D01*
X162095184Y-101716000D01*
X161930772Y-101683297D01*
X161775900Y-101619147D01*
X161636519Y-101526015D01*
X161517985Y-101407481D01*
X161424853Y-101268100D01*
X161360703Y-101113228D01*
X161328000Y-100948816D01*
X161328000Y-100781184D01*
X161360703Y-100616772D01*
X161424853Y-100461900D01*
X161517985Y-100322519D01*
X161636519Y-100203985D01*
X161775900Y-100110853D01*
X161930772Y-100046703D01*
X162095184Y-100014000D01*
X162262816Y-100014000D01*
X162427228Y-100046703D01*
G37*
G36*
X175127228Y-100046703D02*
G01*
X175282100Y-100110853D01*
X175421481Y-100203985D01*
X175540015Y-100322519D01*
X175633147Y-100461900D01*
X175697297Y-100616772D01*
X175730000Y-100781184D01*
X175730000Y-100948816D01*
X175697297Y-101113228D01*
X175633147Y-101268100D01*
X175540015Y-101407481D01*
X175421481Y-101526015D01*
X175282100Y-101619147D01*
X175127228Y-101683297D01*
X174962816Y-101716000D01*
X174795184Y-101716000D01*
X174630772Y-101683297D01*
X174475900Y-101619147D01*
X174336519Y-101526015D01*
X174217985Y-101407481D01*
X174124853Y-101268100D01*
X174060703Y-101113228D01*
X174028000Y-100948816D01*
X174028000Y-100781184D01*
X174060703Y-100616772D01*
X174124853Y-100461900D01*
X174217985Y-100322519D01*
X174336519Y-100203985D01*
X174475900Y-100110853D01*
X174630772Y-100046703D01*
X174795184Y-100014000D01*
X174962816Y-100014000D01*
X175127228Y-100046703D01*
G37*
G36*
X170047228Y-100046703D02*
G01*
X170202100Y-100110853D01*
X170341481Y-100203985D01*
X170460015Y-100322519D01*
X170553147Y-100461900D01*
X170617297Y-100616772D01*
X170650000Y-100781184D01*
X170650000Y-100948816D01*
X170617297Y-101113228D01*
X170553147Y-101268100D01*
X170460015Y-101407481D01*
X170341481Y-101526015D01*
X170202100Y-101619147D01*
X170047228Y-101683297D01*
X169882816Y-101716000D01*
X169715184Y-101716000D01*
X169550772Y-101683297D01*
X169395900Y-101619147D01*
X169256519Y-101526015D01*
X169137985Y-101407481D01*
X169044853Y-101268100D01*
X168980703Y-101113228D01*
X168948000Y-100948816D01*
X168948000Y-100781184D01*
X168980703Y-100616772D01*
X169044853Y-100461900D01*
X169137985Y-100322519D01*
X169256519Y-100203985D01*
X169395900Y-100110853D01*
X169550772Y-100046703D01*
X169715184Y-100014000D01*
X169882816Y-100014000D01*
X170047228Y-100046703D01*
G37*
G36*
X125851228Y-100046703D02*
G01*
X126006100Y-100110853D01*
X126145481Y-100203985D01*
X126264015Y-100322519D01*
X126357147Y-100461900D01*
X126421297Y-100616772D01*
X126454000Y-100781184D01*
X126454000Y-100948816D01*
X126421297Y-101113228D01*
X126357147Y-101268100D01*
X126264015Y-101407481D01*
X126145481Y-101526015D01*
X126006100Y-101619147D01*
X125851228Y-101683297D01*
X125686816Y-101716000D01*
X125519184Y-101716000D01*
X125354772Y-101683297D01*
X125199900Y-101619147D01*
X125060519Y-101526015D01*
X124941985Y-101407481D01*
X124848853Y-101268100D01*
X124784703Y-101113228D01*
X124752000Y-100948816D01*
X124752000Y-100781184D01*
X124784703Y-100616772D01*
X124848853Y-100461900D01*
X124941985Y-100322519D01*
X125060519Y-100203985D01*
X125199900Y-100110853D01*
X125354772Y-100046703D01*
X125519184Y-100014000D01*
X125686816Y-100014000D01*
X125851228Y-100046703D01*
G37*
G36*
X128391228Y-100046703D02*
G01*
X128546100Y-100110853D01*
X128685481Y-100203985D01*
X128804015Y-100322519D01*
X128897147Y-100461900D01*
X128961297Y-100616772D01*
X128994000Y-100781184D01*
X128994000Y-100948816D01*
X128961297Y-101113228D01*
X128897147Y-101268100D01*
X128804015Y-101407481D01*
X128685481Y-101526015D01*
X128546100Y-101619147D01*
X128391228Y-101683297D01*
X128226816Y-101716000D01*
X128059184Y-101716000D01*
X127894772Y-101683297D01*
X127739900Y-101619147D01*
X127600519Y-101526015D01*
X127481985Y-101407481D01*
X127388853Y-101268100D01*
X127324703Y-101113228D01*
X127292000Y-100948816D01*
X127292000Y-100781184D01*
X127324703Y-100616772D01*
X127388853Y-100461900D01*
X127481985Y-100322519D01*
X127600519Y-100203985D01*
X127739900Y-100110853D01*
X127894772Y-100046703D01*
X128059184Y-100014000D01*
X128226816Y-100014000D01*
X128391228Y-100046703D01*
G37*
G36*
X164967228Y-100046703D02*
G01*
X165122100Y-100110853D01*
X165261481Y-100203985D01*
X165380015Y-100322519D01*
X165473147Y-100461900D01*
X165537297Y-100616772D01*
X165570000Y-100781184D01*
X165570000Y-100948816D01*
X165537297Y-101113228D01*
X165473147Y-101268100D01*
X165380015Y-101407481D01*
X165261481Y-101526015D01*
X165122100Y-101619147D01*
X164967228Y-101683297D01*
X164802816Y-101716000D01*
X164635184Y-101716000D01*
X164470772Y-101683297D01*
X164315900Y-101619147D01*
X164176519Y-101526015D01*
X164057985Y-101407481D01*
X163964853Y-101268100D01*
X163900703Y-101113228D01*
X163868000Y-100948816D01*
X163868000Y-100781184D01*
X163900703Y-100616772D01*
X163964853Y-100461900D01*
X164057985Y-100322519D01*
X164176519Y-100203985D01*
X164315900Y-100110853D01*
X164470772Y-100046703D01*
X164635184Y-100014000D01*
X164802816Y-100014000D01*
X164967228Y-100046703D01*
G37*
G36*
X130931228Y-100046703D02*
G01*
X131086100Y-100110853D01*
X131225481Y-100203985D01*
X131344015Y-100322519D01*
X131437147Y-100461900D01*
X131501297Y-100616772D01*
X131534000Y-100781184D01*
X131534000Y-100948816D01*
X131501297Y-101113228D01*
X131437147Y-101268100D01*
X131344015Y-101407481D01*
X131225481Y-101526015D01*
X131086100Y-101619147D01*
X130931228Y-101683297D01*
X130766816Y-101716000D01*
X130599184Y-101716000D01*
X130434772Y-101683297D01*
X130279900Y-101619147D01*
X130140519Y-101526015D01*
X130021985Y-101407481D01*
X129928853Y-101268100D01*
X129864703Y-101113228D01*
X129832000Y-100948816D01*
X129832000Y-100781184D01*
X129864703Y-100616772D01*
X129928853Y-100461900D01*
X130021985Y-100322519D01*
X130140519Y-100203985D01*
X130279900Y-100110853D01*
X130434772Y-100046703D01*
X130599184Y-100014000D01*
X130766816Y-100014000D01*
X130931228Y-100046703D01*
G37*
G36*
X167507228Y-100046703D02*
G01*
X167662100Y-100110853D01*
X167801481Y-100203985D01*
X167920015Y-100322519D01*
X168013147Y-100461900D01*
X168077297Y-100616772D01*
X168110000Y-100781184D01*
X168110000Y-100948816D01*
X168077297Y-101113228D01*
X168013147Y-101268100D01*
X167920015Y-101407481D01*
X167801481Y-101526015D01*
X167662100Y-101619147D01*
X167507228Y-101683297D01*
X167342816Y-101716000D01*
X167175184Y-101716000D01*
X167010772Y-101683297D01*
X166855900Y-101619147D01*
X166716519Y-101526015D01*
X166597985Y-101407481D01*
X166504853Y-101268100D01*
X166440703Y-101113228D01*
X166408000Y-100948816D01*
X166408000Y-100781184D01*
X166440703Y-100616772D01*
X166504853Y-100461900D01*
X166597985Y-100322519D01*
X166716519Y-100203985D01*
X166855900Y-100110853D01*
X167010772Y-100046703D01*
X167175184Y-100014000D01*
X167342816Y-100014000D01*
X167507228Y-100046703D01*
G37*
G36*
X182747228Y-100046703D02*
G01*
X182902100Y-100110853D01*
X183041481Y-100203985D01*
X183160015Y-100322519D01*
X183253147Y-100461900D01*
X183317297Y-100616772D01*
X183350000Y-100781184D01*
X183350000Y-100948816D01*
X183317297Y-101113228D01*
X183253147Y-101268100D01*
X183160015Y-101407481D01*
X183041481Y-101526015D01*
X182902100Y-101619147D01*
X182747228Y-101683297D01*
X182582816Y-101716000D01*
X182415184Y-101716000D01*
X182250772Y-101683297D01*
X182095900Y-101619147D01*
X181956519Y-101526015D01*
X181837985Y-101407481D01*
X181744853Y-101268100D01*
X181680703Y-101113228D01*
X181648000Y-100948816D01*
X181648000Y-100781184D01*
X181680703Y-100616772D01*
X181744853Y-100461900D01*
X181837985Y-100322519D01*
X181956519Y-100203985D01*
X182095900Y-100110853D01*
X182250772Y-100046703D01*
X182415184Y-100014000D01*
X182582816Y-100014000D01*
X182747228Y-100046703D01*
G37*
G36*
X172587228Y-100046703D02*
G01*
X172742100Y-100110853D01*
X172881481Y-100203985D01*
X173000015Y-100322519D01*
X173093147Y-100461900D01*
X173157297Y-100616772D01*
X173190000Y-100781184D01*
X173190000Y-100948816D01*
X173157297Y-101113228D01*
X173093147Y-101268100D01*
X173000015Y-101407481D01*
X172881481Y-101526015D01*
X172742100Y-101619147D01*
X172587228Y-101683297D01*
X172422816Y-101716000D01*
X172255184Y-101716000D01*
X172090772Y-101683297D01*
X171935900Y-101619147D01*
X171796519Y-101526015D01*
X171677985Y-101407481D01*
X171584853Y-101268100D01*
X171520703Y-101113228D01*
X171488000Y-100948816D01*
X171488000Y-100781184D01*
X171520703Y-100616772D01*
X171584853Y-100461900D01*
X171677985Y-100322519D01*
X171796519Y-100203985D01*
X171935900Y-100110853D01*
X172090772Y-100046703D01*
X172255184Y-100014000D01*
X172422816Y-100014000D01*
X172587228Y-100046703D01*
G37*
G36*
X133471228Y-100046703D02*
G01*
X133626100Y-100110853D01*
X133765481Y-100203985D01*
X133884015Y-100322519D01*
X133977147Y-100461900D01*
X134041297Y-100616772D01*
X134074000Y-100781184D01*
X134074000Y-100948816D01*
X134041297Y-101113228D01*
X133977147Y-101268100D01*
X133884015Y-101407481D01*
X133765481Y-101526015D01*
X133626100Y-101619147D01*
X133471228Y-101683297D01*
X133306816Y-101716000D01*
X133139184Y-101716000D01*
X132974772Y-101683297D01*
X132819900Y-101619147D01*
X132680519Y-101526015D01*
X132561985Y-101407481D01*
X132468853Y-101268100D01*
X132404703Y-101113228D01*
X132372000Y-100948816D01*
X132372000Y-100781184D01*
X132404703Y-100616772D01*
X132468853Y-100461900D01*
X132561985Y-100322519D01*
X132680519Y-100203985D01*
X132819900Y-100110853D01*
X132974772Y-100046703D01*
X133139184Y-100014000D01*
X133306816Y-100014000D01*
X133471228Y-100046703D01*
G37*
G36*
X99054228Y-97506703D02*
G01*
X99209100Y-97570853D01*
X99348481Y-97663985D01*
X99467015Y-97782519D01*
X99560147Y-97921900D01*
X99624297Y-98076772D01*
X99657000Y-98241184D01*
X99657000Y-98408816D01*
X99624297Y-98573228D01*
X99560147Y-98728100D01*
X99467015Y-98867481D01*
X99348481Y-98986015D01*
X99209100Y-99079147D01*
X99054228Y-99143297D01*
X98889816Y-99176000D01*
X98722184Y-99176000D01*
X98557772Y-99143297D01*
X98402900Y-99079147D01*
X98263519Y-98986015D01*
X98144985Y-98867481D01*
X98051853Y-98728100D01*
X97987703Y-98573228D01*
X97955000Y-98408816D01*
X97955000Y-98241184D01*
X97987703Y-98076772D01*
X98051853Y-97921900D01*
X98144985Y-97782519D01*
X98263519Y-97663985D01*
X98402900Y-97570853D01*
X98557772Y-97506703D01*
X98722184Y-97474000D01*
X98889816Y-97474000D01*
X99054228Y-97506703D01*
G37*
G36*
X205988228Y-97506703D02*
G01*
X206143100Y-97570853D01*
X206282481Y-97663985D01*
X206401015Y-97782519D01*
X206494147Y-97921900D01*
X206558297Y-98076772D01*
X206591000Y-98241184D01*
X206591000Y-98408816D01*
X206558297Y-98573228D01*
X206494147Y-98728100D01*
X206401015Y-98867481D01*
X206282481Y-98986015D01*
X206143100Y-99079147D01*
X205988228Y-99143297D01*
X205823816Y-99176000D01*
X205656184Y-99176000D01*
X205491772Y-99143297D01*
X205336900Y-99079147D01*
X205197519Y-98986015D01*
X205078985Y-98867481D01*
X204985853Y-98728100D01*
X204921703Y-98573228D01*
X204889000Y-98408816D01*
X204889000Y-98241184D01*
X204921703Y-98076772D01*
X204985853Y-97921900D01*
X205078985Y-97782519D01*
X205197519Y-97663985D01*
X205336900Y-97570853D01*
X205491772Y-97506703D01*
X205656184Y-97474000D01*
X205823816Y-97474000D01*
X205988228Y-97506703D01*
G37*
G36*
X99054228Y-94966703D02*
G01*
X99209100Y-95030853D01*
X99348481Y-95123985D01*
X99467015Y-95242519D01*
X99560147Y-95381900D01*
X99624297Y-95536772D01*
X99657000Y-95701184D01*
X99657000Y-95868816D01*
X99624297Y-96033228D01*
X99560147Y-96188100D01*
X99467015Y-96327481D01*
X99348481Y-96446015D01*
X99209100Y-96539147D01*
X99054228Y-96603297D01*
X98889816Y-96636000D01*
X98722184Y-96636000D01*
X98557772Y-96603297D01*
X98402900Y-96539147D01*
X98263519Y-96446015D01*
X98144985Y-96327481D01*
X98051853Y-96188100D01*
X97987703Y-96033228D01*
X97955000Y-95868816D01*
X97955000Y-95701184D01*
X97987703Y-95536772D01*
X98051853Y-95381900D01*
X98144985Y-95242519D01*
X98263519Y-95123985D01*
X98402900Y-95030853D01*
X98557772Y-94966703D01*
X98722184Y-94934000D01*
X98889816Y-94934000D01*
X99054228Y-94966703D01*
G37*
G36*
X205988228Y-94966703D02*
G01*
X206143100Y-95030853D01*
X206282481Y-95123985D01*
X206401015Y-95242519D01*
X206494147Y-95381900D01*
X206558297Y-95536772D01*
X206591000Y-95701184D01*
X206591000Y-95868816D01*
X206558297Y-96033228D01*
X206494147Y-96188100D01*
X206401015Y-96327481D01*
X206282481Y-96446015D01*
X206143100Y-96539147D01*
X205988228Y-96603297D01*
X205823816Y-96636000D01*
X205656184Y-96636000D01*
X205491772Y-96603297D01*
X205336900Y-96539147D01*
X205197519Y-96446015D01*
X205078985Y-96327481D01*
X204985853Y-96188100D01*
X204921703Y-96033228D01*
X204889000Y-95868816D01*
X204889000Y-95701184D01*
X204921703Y-95536772D01*
X204985853Y-95381900D01*
X205078985Y-95242519D01*
X205197519Y-95123985D01*
X205336900Y-95030853D01*
X205491772Y-94966703D01*
X205656184Y-94934000D01*
X205823816Y-94934000D01*
X205988228Y-94966703D01*
G37*
G36*
X205988228Y-92426703D02*
G01*
X206143100Y-92490853D01*
X206282481Y-92583985D01*
X206401015Y-92702519D01*
X206494147Y-92841900D01*
X206558297Y-92996772D01*
X206591000Y-93161184D01*
X206591000Y-93328816D01*
X206558297Y-93493228D01*
X206494147Y-93648100D01*
X206401015Y-93787481D01*
X206282481Y-93906015D01*
X206143100Y-93999147D01*
X205988228Y-94063297D01*
X205823816Y-94096000D01*
X205656184Y-94096000D01*
X205491772Y-94063297D01*
X205336900Y-93999147D01*
X205197519Y-93906015D01*
X205078985Y-93787481D01*
X204985853Y-93648100D01*
X204921703Y-93493228D01*
X204889000Y-93328816D01*
X204889000Y-93161184D01*
X204921703Y-92996772D01*
X204985853Y-92841900D01*
X205078985Y-92702519D01*
X205197519Y-92583985D01*
X205336900Y-92490853D01*
X205491772Y-92426703D01*
X205656184Y-92394000D01*
X205823816Y-92394000D01*
X205988228Y-92426703D01*
G37*
G36*
X99054228Y-92426703D02*
G01*
X99209100Y-92490853D01*
X99348481Y-92583985D01*
X99467015Y-92702519D01*
X99560147Y-92841900D01*
X99624297Y-92996772D01*
X99657000Y-93161184D01*
X99657000Y-93328816D01*
X99624297Y-93493228D01*
X99560147Y-93648100D01*
X99467015Y-93787481D01*
X99348481Y-93906015D01*
X99209100Y-93999147D01*
X99054228Y-94063297D01*
X98889816Y-94096000D01*
X98722184Y-94096000D01*
X98557772Y-94063297D01*
X98402900Y-93999147D01*
X98263519Y-93906015D01*
X98144985Y-93787481D01*
X98051853Y-93648100D01*
X97987703Y-93493228D01*
X97955000Y-93328816D01*
X97955000Y-93161184D01*
X97987703Y-92996772D01*
X98051853Y-92841900D01*
X98144985Y-92702519D01*
X98263519Y-92583985D01*
X98402900Y-92490853D01*
X98557772Y-92426703D01*
X98722184Y-92394000D01*
X98889816Y-92394000D01*
X99054228Y-92426703D01*
G37*
G36*
X205988228Y-89886703D02*
G01*
X206143100Y-89950853D01*
X206282481Y-90043985D01*
X206401015Y-90162519D01*
X206494147Y-90301900D01*
X206558297Y-90456772D01*
X206591000Y-90621184D01*
X206591000Y-90788816D01*
X206558297Y-90953228D01*
X206494147Y-91108100D01*
X206401015Y-91247481D01*
X206282481Y-91366015D01*
X206143100Y-91459147D01*
X205988228Y-91523297D01*
X205823816Y-91556000D01*
X205656184Y-91556000D01*
X205491772Y-91523297D01*
X205336900Y-91459147D01*
X205197519Y-91366015D01*
X205078985Y-91247481D01*
X204985853Y-91108100D01*
X204921703Y-90953228D01*
X204889000Y-90788816D01*
X204889000Y-90621184D01*
X204921703Y-90456772D01*
X204985853Y-90301900D01*
X205078985Y-90162519D01*
X205197519Y-90043985D01*
X205336900Y-89950853D01*
X205491772Y-89886703D01*
X205656184Y-89854000D01*
X205823816Y-89854000D01*
X205988228Y-89886703D01*
G37*
G36*
X99054228Y-89886703D02*
G01*
X99209100Y-89950853D01*
X99348481Y-90043985D01*
X99467015Y-90162519D01*
X99560147Y-90301900D01*
X99624297Y-90456772D01*
X99657000Y-90621184D01*
X99657000Y-90788816D01*
X99624297Y-90953228D01*
X99560147Y-91108100D01*
X99467015Y-91247481D01*
X99348481Y-91366015D01*
X99209100Y-91459147D01*
X99054228Y-91523297D01*
X98889816Y-91556000D01*
X98722184Y-91556000D01*
X98557772Y-91523297D01*
X98402900Y-91459147D01*
X98263519Y-91366015D01*
X98144985Y-91247481D01*
X98051853Y-91108100D01*
X97987703Y-90953228D01*
X97955000Y-90788816D01*
X97955000Y-90621184D01*
X97987703Y-90456772D01*
X98051853Y-90301900D01*
X98144985Y-90162519D01*
X98263519Y-90043985D01*
X98402900Y-89950853D01*
X98557772Y-89886703D01*
X98722184Y-89854000D01*
X98889816Y-89854000D01*
X99054228Y-89886703D01*
G37*
G36*
X102766395Y-88774546D02*
G01*
X102939466Y-88846234D01*
X102939467Y-88846235D01*
X103095227Y-88950310D01*
X103227690Y-89082773D01*
X103227691Y-89082775D01*
X103331766Y-89238534D01*
X103403454Y-89411605D01*
X103440000Y-89595333D01*
X103440000Y-89782667D01*
X103403454Y-89966395D01*
X103331766Y-90139466D01*
X103331765Y-90139467D01*
X103227690Y-90295227D01*
X103095227Y-90427690D01*
X103016818Y-90480081D01*
X102939466Y-90531766D01*
X102766395Y-90603454D01*
X102582667Y-90640000D01*
X102395333Y-90640000D01*
X102211605Y-90603454D01*
X102038534Y-90531766D01*
X101961182Y-90480081D01*
X101882773Y-90427690D01*
X101750310Y-90295227D01*
X101646235Y-90139467D01*
X101646234Y-90139466D01*
X101574546Y-89966395D01*
X101538000Y-89782667D01*
X101538000Y-89595333D01*
X101574546Y-89411605D01*
X101646234Y-89238534D01*
X101750309Y-89082775D01*
X101750310Y-89082773D01*
X101882773Y-88950310D01*
X102038533Y-88846235D01*
X102038534Y-88846234D01*
X102211605Y-88774546D01*
X102395333Y-88738000D01*
X102582667Y-88738000D01*
X102766395Y-88774546D01*
G37*
G36*
X141501395Y-88774546D02*
G01*
X141674466Y-88846234D01*
X141674467Y-88846235D01*
X141830227Y-88950310D01*
X141962690Y-89082773D01*
X141962691Y-89082775D01*
X142066766Y-89238534D01*
X142138454Y-89411605D01*
X142175000Y-89595333D01*
X142175000Y-89782667D01*
X142138454Y-89966395D01*
X142066766Y-90139466D01*
X142066765Y-90139467D01*
X141962690Y-90295227D01*
X141830227Y-90427690D01*
X141751818Y-90480081D01*
X141674466Y-90531766D01*
X141501395Y-90603454D01*
X141317667Y-90640000D01*
X141130333Y-90640000D01*
X140946605Y-90603454D01*
X140773534Y-90531766D01*
X140696182Y-90480081D01*
X140617773Y-90427690D01*
X140485310Y-90295227D01*
X140381235Y-90139467D01*
X140381234Y-90139466D01*
X140309546Y-89966395D01*
X140273000Y-89782667D01*
X140273000Y-89595333D01*
X140309546Y-89411605D01*
X140381234Y-89238534D01*
X140485309Y-89082775D01*
X140485310Y-89082773D01*
X140617773Y-88950310D01*
X140773533Y-88846235D01*
X140773534Y-88846234D01*
X140946605Y-88774546D01*
X141130333Y-88738000D01*
X141317667Y-88738000D01*
X141501395Y-88774546D01*
G37*
G36*
X144715000Y-90640000D02*
G01*
X142813000Y-90640000D01*
X142813000Y-88738000D01*
X144715000Y-88738000D01*
X144715000Y-90640000D01*
G37*
G36*
X147851395Y-88774546D02*
G01*
X148024466Y-88846234D01*
X148024467Y-88846235D01*
X148180227Y-88950310D01*
X148312690Y-89082773D01*
X148312691Y-89082775D01*
X148416766Y-89238534D01*
X148488454Y-89411605D01*
X148525000Y-89595333D01*
X148525000Y-89782667D01*
X148488454Y-89966395D01*
X148416766Y-90139466D01*
X148416765Y-90139467D01*
X148312690Y-90295227D01*
X148180227Y-90427690D01*
X148101818Y-90480081D01*
X148024466Y-90531766D01*
X147851395Y-90603454D01*
X147667667Y-90640000D01*
X147480333Y-90640000D01*
X147296605Y-90603454D01*
X147123534Y-90531766D01*
X147046182Y-90480081D01*
X146967773Y-90427690D01*
X146835310Y-90295227D01*
X146731235Y-90139467D01*
X146731234Y-90139466D01*
X146659546Y-89966395D01*
X146623000Y-89782667D01*
X146623000Y-89595333D01*
X146659546Y-89411605D01*
X146731234Y-89238534D01*
X146835309Y-89082775D01*
X146835310Y-89082773D01*
X146967773Y-88950310D01*
X147123533Y-88846235D01*
X147123534Y-88846234D01*
X147296605Y-88774546D01*
X147480333Y-88738000D01*
X147667667Y-88738000D01*
X147851395Y-88774546D01*
G37*
G36*
X151065000Y-90640000D02*
G01*
X149163000Y-90640000D01*
X149163000Y-88738000D01*
X151065000Y-88738000D01*
X151065000Y-90640000D01*
G37*
G36*
X154836395Y-88774546D02*
G01*
X155009466Y-88846234D01*
X155009467Y-88846235D01*
X155165227Y-88950310D01*
X155297690Y-89082773D01*
X155297691Y-89082775D01*
X155401766Y-89238534D01*
X155473454Y-89411605D01*
X155510000Y-89595333D01*
X155510000Y-89782667D01*
X155473454Y-89966395D01*
X155401766Y-90139466D01*
X155401765Y-90139467D01*
X155297690Y-90295227D01*
X155165227Y-90427690D01*
X155086818Y-90480081D01*
X155009466Y-90531766D01*
X154836395Y-90603454D01*
X154652667Y-90640000D01*
X154465333Y-90640000D01*
X154281605Y-90603454D01*
X154108534Y-90531766D01*
X154031182Y-90480081D01*
X153952773Y-90427690D01*
X153820310Y-90295227D01*
X153716235Y-90139467D01*
X153716234Y-90139466D01*
X153644546Y-89966395D01*
X153608000Y-89782667D01*
X153608000Y-89595333D01*
X153644546Y-89411605D01*
X153716234Y-89238534D01*
X153820309Y-89082775D01*
X153820310Y-89082773D01*
X153952773Y-88950310D01*
X154108533Y-88846235D01*
X154108534Y-88846234D01*
X154281605Y-88774546D01*
X154465333Y-88738000D01*
X154652667Y-88738000D01*
X154836395Y-88774546D01*
G37*
G36*
X158050000Y-90640000D02*
G01*
X156148000Y-90640000D01*
X156148000Y-88738000D01*
X158050000Y-88738000D01*
X158050000Y-90640000D01*
G37*
G36*
X161186395Y-88774546D02*
G01*
X161359466Y-88846234D01*
X161359467Y-88846235D01*
X161515227Y-88950310D01*
X161647690Y-89082773D01*
X161647691Y-89082775D01*
X161751766Y-89238534D01*
X161823454Y-89411605D01*
X161860000Y-89595333D01*
X161860000Y-89782667D01*
X161823454Y-89966395D01*
X161751766Y-90139466D01*
X161751765Y-90139467D01*
X161647690Y-90295227D01*
X161515227Y-90427690D01*
X161436818Y-90480081D01*
X161359466Y-90531766D01*
X161186395Y-90603454D01*
X161002667Y-90640000D01*
X160815333Y-90640000D01*
X160631605Y-90603454D01*
X160458534Y-90531766D01*
X160381182Y-90480081D01*
X160302773Y-90427690D01*
X160170310Y-90295227D01*
X160066235Y-90139467D01*
X160066234Y-90139466D01*
X159994546Y-89966395D01*
X159958000Y-89782667D01*
X159958000Y-89595333D01*
X159994546Y-89411605D01*
X160066234Y-89238534D01*
X160170309Y-89082775D01*
X160170310Y-89082773D01*
X160302773Y-88950310D01*
X160458533Y-88846235D01*
X160458534Y-88846234D01*
X160631605Y-88774546D01*
X160815333Y-88738000D01*
X161002667Y-88738000D01*
X161186395Y-88774546D01*
G37*
G36*
X164400000Y-90640000D02*
G01*
X162498000Y-90640000D01*
X162498000Y-88738000D01*
X164400000Y-88738000D01*
X164400000Y-90640000D01*
G37*
G36*
X167536395Y-88774546D02*
G01*
X167709466Y-88846234D01*
X167709467Y-88846235D01*
X167865227Y-88950310D01*
X167997690Y-89082773D01*
X167997691Y-89082775D01*
X168101766Y-89238534D01*
X168173454Y-89411605D01*
X168210000Y-89595333D01*
X168210000Y-89782667D01*
X168173454Y-89966395D01*
X168101766Y-90139466D01*
X168101765Y-90139467D01*
X167997690Y-90295227D01*
X167865227Y-90427690D01*
X167786818Y-90480081D01*
X167709466Y-90531766D01*
X167536395Y-90603454D01*
X167352667Y-90640000D01*
X167165333Y-90640000D01*
X166981605Y-90603454D01*
X166808534Y-90531766D01*
X166731182Y-90480081D01*
X166652773Y-90427690D01*
X166520310Y-90295227D01*
X166416235Y-90139467D01*
X166416234Y-90139466D01*
X166344546Y-89966395D01*
X166308000Y-89782667D01*
X166308000Y-89595333D01*
X166344546Y-89411605D01*
X166416234Y-89238534D01*
X166520309Y-89082775D01*
X166520310Y-89082773D01*
X166652773Y-88950310D01*
X166808533Y-88846235D01*
X166808534Y-88846234D01*
X166981605Y-88774546D01*
X167165333Y-88738000D01*
X167352667Y-88738000D01*
X167536395Y-88774546D01*
G37*
G36*
X170750000Y-90640000D02*
G01*
X168848000Y-90640000D01*
X168848000Y-88738000D01*
X170750000Y-88738000D01*
X170750000Y-90640000D01*
G37*
G36*
X173886395Y-88774546D02*
G01*
X174059466Y-88846234D01*
X174059467Y-88846235D01*
X174215227Y-88950310D01*
X174347690Y-89082773D01*
X174347691Y-89082775D01*
X174451766Y-89238534D01*
X174523454Y-89411605D01*
X174560000Y-89595333D01*
X174560000Y-89782667D01*
X174523454Y-89966395D01*
X174451766Y-90139466D01*
X174451765Y-90139467D01*
X174347690Y-90295227D01*
X174215227Y-90427690D01*
X174136818Y-90480081D01*
X174059466Y-90531766D01*
X173886395Y-90603454D01*
X173702667Y-90640000D01*
X173515333Y-90640000D01*
X173331605Y-90603454D01*
X173158534Y-90531766D01*
X173081182Y-90480081D01*
X173002773Y-90427690D01*
X172870310Y-90295227D01*
X172766235Y-90139467D01*
X172766234Y-90139466D01*
X172694546Y-89966395D01*
X172658000Y-89782667D01*
X172658000Y-89595333D01*
X172694546Y-89411605D01*
X172766234Y-89238534D01*
X172870309Y-89082775D01*
X172870310Y-89082773D01*
X173002773Y-88950310D01*
X173158533Y-88846235D01*
X173158534Y-88846234D01*
X173331605Y-88774546D01*
X173515333Y-88738000D01*
X173702667Y-88738000D01*
X173886395Y-88774546D01*
G37*
G36*
X177100000Y-90640000D02*
G01*
X175198000Y-90640000D01*
X175198000Y-88738000D01*
X177100000Y-88738000D01*
X177100000Y-90640000D01*
G37*
G36*
X180871395Y-88774546D02*
G01*
X181044466Y-88846234D01*
X181044467Y-88846235D01*
X181200227Y-88950310D01*
X181332690Y-89082773D01*
X181332691Y-89082775D01*
X181436766Y-89238534D01*
X181508454Y-89411605D01*
X181545000Y-89595333D01*
X181545000Y-89782667D01*
X181508454Y-89966395D01*
X181436766Y-90139466D01*
X181436765Y-90139467D01*
X181332690Y-90295227D01*
X181200227Y-90427690D01*
X181121818Y-90480081D01*
X181044466Y-90531766D01*
X180871395Y-90603454D01*
X180687667Y-90640000D01*
X180500333Y-90640000D01*
X180316605Y-90603454D01*
X180143534Y-90531766D01*
X180066182Y-90480081D01*
X179987773Y-90427690D01*
X179855310Y-90295227D01*
X179751235Y-90139467D01*
X179751234Y-90139466D01*
X179679546Y-89966395D01*
X179643000Y-89782667D01*
X179643000Y-89595333D01*
X179679546Y-89411605D01*
X179751234Y-89238534D01*
X179855309Y-89082775D01*
X179855310Y-89082773D01*
X179987773Y-88950310D01*
X180143533Y-88846235D01*
X180143534Y-88846234D01*
X180316605Y-88774546D01*
X180500333Y-88738000D01*
X180687667Y-88738000D01*
X180871395Y-88774546D01*
G37*
G36*
X184085000Y-90640000D02*
G01*
X182183000Y-90640000D01*
X182183000Y-88738000D01*
X184085000Y-88738000D01*
X184085000Y-90640000D01*
G37*
G36*
X187221395Y-88774546D02*
G01*
X187394466Y-88846234D01*
X187394467Y-88846235D01*
X187550227Y-88950310D01*
X187682690Y-89082773D01*
X187682691Y-89082775D01*
X187786766Y-89238534D01*
X187858454Y-89411605D01*
X187895000Y-89595333D01*
X187895000Y-89782667D01*
X187858454Y-89966395D01*
X187786766Y-90139466D01*
X187786765Y-90139467D01*
X187682690Y-90295227D01*
X187550227Y-90427690D01*
X187471818Y-90480081D01*
X187394466Y-90531766D01*
X187221395Y-90603454D01*
X187037667Y-90640000D01*
X186850333Y-90640000D01*
X186666605Y-90603454D01*
X186493534Y-90531766D01*
X186416182Y-90480081D01*
X186337773Y-90427690D01*
X186205310Y-90295227D01*
X186101235Y-90139467D01*
X186101234Y-90139466D01*
X186029546Y-89966395D01*
X185993000Y-89782667D01*
X185993000Y-89595333D01*
X186029546Y-89411605D01*
X186101234Y-89238534D01*
X186205309Y-89082775D01*
X186205310Y-89082773D01*
X186337773Y-88950310D01*
X186493533Y-88846235D01*
X186493534Y-88846234D01*
X186666605Y-88774546D01*
X186850333Y-88738000D01*
X187037667Y-88738000D01*
X187221395Y-88774546D01*
G37*
G36*
X132015000Y-90640000D02*
G01*
X130113000Y-90640000D01*
X130113000Y-88738000D01*
X132015000Y-88738000D01*
X132015000Y-90640000D01*
G37*
G36*
X121816395Y-88774546D02*
G01*
X121989466Y-88846234D01*
X121989467Y-88846235D01*
X122145227Y-88950310D01*
X122277690Y-89082773D01*
X122277691Y-89082775D01*
X122381766Y-89238534D01*
X122453454Y-89411605D01*
X122490000Y-89595333D01*
X122490000Y-89782667D01*
X122453454Y-89966395D01*
X122381766Y-90139466D01*
X122381765Y-90139467D01*
X122277690Y-90295227D01*
X122145227Y-90427690D01*
X122066818Y-90480081D01*
X121989466Y-90531766D01*
X121816395Y-90603454D01*
X121632667Y-90640000D01*
X121445333Y-90640000D01*
X121261605Y-90603454D01*
X121088534Y-90531766D01*
X121011182Y-90480081D01*
X120932773Y-90427690D01*
X120800310Y-90295227D01*
X120696235Y-90139467D01*
X120696234Y-90139466D01*
X120624546Y-89966395D01*
X120588000Y-89782667D01*
X120588000Y-89595333D01*
X120624546Y-89411605D01*
X120696234Y-89238534D01*
X120800309Y-89082775D01*
X120800310Y-89082773D01*
X120932773Y-88950310D01*
X121088533Y-88846235D01*
X121088534Y-88846234D01*
X121261605Y-88774546D01*
X121445333Y-88738000D01*
X121632667Y-88738000D01*
X121816395Y-88774546D01*
G37*
G36*
X135151395Y-88774546D02*
G01*
X135324466Y-88846234D01*
X135324467Y-88846235D01*
X135480227Y-88950310D01*
X135612690Y-89082773D01*
X135612691Y-89082775D01*
X135716766Y-89238534D01*
X135788454Y-89411605D01*
X135825000Y-89595333D01*
X135825000Y-89782667D01*
X135788454Y-89966395D01*
X135716766Y-90139466D01*
X135716765Y-90139467D01*
X135612690Y-90295227D01*
X135480227Y-90427690D01*
X135401818Y-90480081D01*
X135324466Y-90531766D01*
X135151395Y-90603454D01*
X134967667Y-90640000D01*
X134780333Y-90640000D01*
X134596605Y-90603454D01*
X134423534Y-90531766D01*
X134346182Y-90480081D01*
X134267773Y-90427690D01*
X134135310Y-90295227D01*
X134031235Y-90139467D01*
X134031234Y-90139466D01*
X133959546Y-89966395D01*
X133923000Y-89782667D01*
X133923000Y-89595333D01*
X133959546Y-89411605D01*
X134031234Y-89238534D01*
X134135309Y-89082775D01*
X134135310Y-89082773D01*
X134267773Y-88950310D01*
X134423533Y-88846235D01*
X134423534Y-88846234D01*
X134596605Y-88774546D01*
X134780333Y-88738000D01*
X134967667Y-88738000D01*
X135151395Y-88774546D01*
G37*
G36*
X203135000Y-90640000D02*
G01*
X201233000Y-90640000D01*
X201233000Y-88738000D01*
X203135000Y-88738000D01*
X203135000Y-90640000D01*
G37*
G36*
X199921395Y-88774546D02*
G01*
X200094466Y-88846234D01*
X200094467Y-88846235D01*
X200250227Y-88950310D01*
X200382690Y-89082773D01*
X200382691Y-89082775D01*
X200486766Y-89238534D01*
X200558454Y-89411605D01*
X200595000Y-89595333D01*
X200595000Y-89782667D01*
X200558454Y-89966395D01*
X200486766Y-90139466D01*
X200486765Y-90139467D01*
X200382690Y-90295227D01*
X200250227Y-90427690D01*
X200171818Y-90480081D01*
X200094466Y-90531766D01*
X199921395Y-90603454D01*
X199737667Y-90640000D01*
X199550333Y-90640000D01*
X199366605Y-90603454D01*
X199193534Y-90531766D01*
X199116182Y-90480081D01*
X199037773Y-90427690D01*
X198905310Y-90295227D01*
X198801235Y-90139467D01*
X198801234Y-90139466D01*
X198729546Y-89966395D01*
X198693000Y-89782667D01*
X198693000Y-89595333D01*
X198729546Y-89411605D01*
X198801234Y-89238534D01*
X198905309Y-89082775D01*
X198905310Y-89082773D01*
X199037773Y-88950310D01*
X199193533Y-88846235D01*
X199193534Y-88846234D01*
X199366605Y-88774546D01*
X199550333Y-88738000D01*
X199737667Y-88738000D01*
X199921395Y-88774546D01*
G37*
G36*
X196785000Y-90640000D02*
G01*
X194883000Y-90640000D01*
X194883000Y-88738000D01*
X196785000Y-88738000D01*
X196785000Y-90640000D01*
G37*
G36*
X193571395Y-88774546D02*
G01*
X193744466Y-88846234D01*
X193744467Y-88846235D01*
X193900227Y-88950310D01*
X194032690Y-89082773D01*
X194032691Y-89082775D01*
X194136766Y-89238534D01*
X194208454Y-89411605D01*
X194245000Y-89595333D01*
X194245000Y-89782667D01*
X194208454Y-89966395D01*
X194136766Y-90139466D01*
X194136765Y-90139467D01*
X194032690Y-90295227D01*
X193900227Y-90427690D01*
X193821818Y-90480081D01*
X193744466Y-90531766D01*
X193571395Y-90603454D01*
X193387667Y-90640000D01*
X193200333Y-90640000D01*
X193016605Y-90603454D01*
X192843534Y-90531766D01*
X192766182Y-90480081D01*
X192687773Y-90427690D01*
X192555310Y-90295227D01*
X192451235Y-90139467D01*
X192451234Y-90139466D01*
X192379546Y-89966395D01*
X192343000Y-89782667D01*
X192343000Y-89595333D01*
X192379546Y-89411605D01*
X192451234Y-89238534D01*
X192555309Y-89082775D01*
X192555310Y-89082773D01*
X192687773Y-88950310D01*
X192843533Y-88846235D01*
X192843534Y-88846234D01*
X193016605Y-88774546D01*
X193200333Y-88738000D01*
X193387667Y-88738000D01*
X193571395Y-88774546D01*
G37*
G36*
X190435000Y-90640000D02*
G01*
X188533000Y-90640000D01*
X188533000Y-88738000D01*
X190435000Y-88738000D01*
X190435000Y-90640000D01*
G37*
G36*
X105980000Y-90640000D02*
G01*
X104078000Y-90640000D01*
X104078000Y-88738000D01*
X105980000Y-88738000D01*
X105980000Y-90640000D01*
G37*
G36*
X109116395Y-88774546D02*
G01*
X109289466Y-88846234D01*
X109289467Y-88846235D01*
X109445227Y-88950310D01*
X109577690Y-89082773D01*
X109577691Y-89082775D01*
X109681766Y-89238534D01*
X109753454Y-89411605D01*
X109790000Y-89595333D01*
X109790000Y-89782667D01*
X109753454Y-89966395D01*
X109681766Y-90139466D01*
X109681765Y-90139467D01*
X109577690Y-90295227D01*
X109445227Y-90427690D01*
X109366818Y-90480081D01*
X109289466Y-90531766D01*
X109116395Y-90603454D01*
X108932667Y-90640000D01*
X108745333Y-90640000D01*
X108561605Y-90603454D01*
X108388534Y-90531766D01*
X108311182Y-90480081D01*
X108232773Y-90427690D01*
X108100310Y-90295227D01*
X107996235Y-90139467D01*
X107996234Y-90139466D01*
X107924546Y-89966395D01*
X107888000Y-89782667D01*
X107888000Y-89595333D01*
X107924546Y-89411605D01*
X107996234Y-89238534D01*
X108100309Y-89082775D01*
X108100310Y-89082773D01*
X108232773Y-88950310D01*
X108388533Y-88846235D01*
X108388534Y-88846234D01*
X108561605Y-88774546D01*
X108745333Y-88738000D01*
X108932667Y-88738000D01*
X109116395Y-88774546D01*
G37*
G36*
X112330000Y-90640000D02*
G01*
X110428000Y-90640000D01*
X110428000Y-88738000D01*
X112330000Y-88738000D01*
X112330000Y-90640000D01*
G37*
G36*
X115466395Y-88774546D02*
G01*
X115639466Y-88846234D01*
X115639467Y-88846235D01*
X115795227Y-88950310D01*
X115927690Y-89082773D01*
X115927691Y-89082775D01*
X116031766Y-89238534D01*
X116103454Y-89411605D01*
X116140000Y-89595333D01*
X116140000Y-89782667D01*
X116103454Y-89966395D01*
X116031766Y-90139466D01*
X116031765Y-90139467D01*
X115927690Y-90295227D01*
X115795227Y-90427690D01*
X115716818Y-90480081D01*
X115639466Y-90531766D01*
X115466395Y-90603454D01*
X115282667Y-90640000D01*
X115095333Y-90640000D01*
X114911605Y-90603454D01*
X114738534Y-90531766D01*
X114661182Y-90480081D01*
X114582773Y-90427690D01*
X114450310Y-90295227D01*
X114346235Y-90139467D01*
X114346234Y-90139466D01*
X114274546Y-89966395D01*
X114238000Y-89782667D01*
X114238000Y-89595333D01*
X114274546Y-89411605D01*
X114346234Y-89238534D01*
X114450309Y-89082775D01*
X114450310Y-89082773D01*
X114582773Y-88950310D01*
X114738533Y-88846235D01*
X114738534Y-88846234D01*
X114911605Y-88774546D01*
X115095333Y-88738000D01*
X115282667Y-88738000D01*
X115466395Y-88774546D01*
G37*
G36*
X118680000Y-90640000D02*
G01*
X116778000Y-90640000D01*
X116778000Y-88738000D01*
X118680000Y-88738000D01*
X118680000Y-90640000D01*
G37*
G36*
X125030000Y-90640000D02*
G01*
X123128000Y-90640000D01*
X123128000Y-88738000D01*
X125030000Y-88738000D01*
X125030000Y-90640000D01*
G37*
G36*
X128801395Y-88774546D02*
G01*
X128974466Y-88846234D01*
X128974467Y-88846235D01*
X129130227Y-88950310D01*
X129262690Y-89082773D01*
X129262691Y-89082775D01*
X129366766Y-89238534D01*
X129438454Y-89411605D01*
X129475000Y-89595333D01*
X129475000Y-89782667D01*
X129438454Y-89966395D01*
X129366766Y-90139466D01*
X129366765Y-90139467D01*
X129262690Y-90295227D01*
X129130227Y-90427690D01*
X129051818Y-90480081D01*
X128974466Y-90531766D01*
X128801395Y-90603454D01*
X128617667Y-90640000D01*
X128430333Y-90640000D01*
X128246605Y-90603454D01*
X128073534Y-90531766D01*
X127996182Y-90480081D01*
X127917773Y-90427690D01*
X127785310Y-90295227D01*
X127681235Y-90139467D01*
X127681234Y-90139466D01*
X127609546Y-89966395D01*
X127573000Y-89782667D01*
X127573000Y-89595333D01*
X127609546Y-89411605D01*
X127681234Y-89238534D01*
X127785309Y-89082775D01*
X127785310Y-89082773D01*
X127917773Y-88950310D01*
X128073533Y-88846235D01*
X128073534Y-88846234D01*
X128246605Y-88774546D01*
X128430333Y-88738000D01*
X128617667Y-88738000D01*
X128801395Y-88774546D01*
G37*
G36*
X138365000Y-90640000D02*
G01*
X136463000Y-90640000D01*
X136463000Y-88738000D01*
X138365000Y-88738000D01*
X138365000Y-90640000D01*
G37*
G36*
X205988228Y-87346703D02*
G01*
X206143100Y-87410853D01*
X206282481Y-87503985D01*
X206401015Y-87622519D01*
X206494147Y-87761900D01*
X206558297Y-87916772D01*
X206591000Y-88081184D01*
X206591000Y-88248816D01*
X206558297Y-88413228D01*
X206494147Y-88568100D01*
X206401015Y-88707481D01*
X206282481Y-88826015D01*
X206143100Y-88919147D01*
X205988228Y-88983297D01*
X205823816Y-89016000D01*
X205656184Y-89016000D01*
X205491772Y-88983297D01*
X205336900Y-88919147D01*
X205197519Y-88826015D01*
X205078985Y-88707481D01*
X204985853Y-88568100D01*
X204921703Y-88413228D01*
X204889000Y-88248816D01*
X204889000Y-88081184D01*
X204921703Y-87916772D01*
X204985853Y-87761900D01*
X205078985Y-87622519D01*
X205197519Y-87503985D01*
X205336900Y-87410853D01*
X205491772Y-87346703D01*
X205656184Y-87314000D01*
X205823816Y-87314000D01*
X205988228Y-87346703D01*
G37*
G36*
X99657000Y-89016000D02*
G01*
X97955000Y-89016000D01*
X97955000Y-87314000D01*
X99657000Y-87314000D01*
X99657000Y-89016000D01*
G37*
M02*
