M48
; DRILL file {KiCad 5.1.6-c6e7f7d~86~ubuntu18.04.1} date Tue Jul  7 21:12:02 2020
; FORMAT={-:-/ absolute / inch / decimal}
; #@! TF.CreationDate,2020-07-07T21:12:02+12:00
; #@! TF.GenerationSoftware,Kicad,Pcbnew,5.1.6-c6e7f7d~86~ubuntu18.04.1
FMAT,2
INCH
T1C0.0140
T2C0.0394
%
G90
G05
T1
X4.8939Y-4.5863
X5.0239Y-2.9757
X5.0642Y-2.1439
X5.0642Y-2.2739
X5.1639Y-3.5838
X5.1828Y-3.0938
X5.1828Y-3.1438
X5.1828Y-3.1938
X5.1828Y-3.2438
X5.1991Y-2.4889
X5.2246Y-2.2939
X5.2413Y-4.8024
X5.2413Y-5.0376
X5.2413Y-5.2751
X5.2758Y-2.4089
X5.2758Y-2.5089
X5.2883Y-2.6839
X5.2883Y-2.7941
X5.3014Y-2.2939
X5.303Y-4.5863
X5.3178Y-3.0338
X5.327Y-2.0164
X5.4013Y-4.8224
X5.4013Y-5.0576
X5.4013Y-5.2951
X5.4038Y-2.0164
X5.4038Y-2.2939
X5.4178Y-3.0338
X5.4292Y-2.4089
X5.5328Y-3.1238
X5.5328Y-3.3138
X5.6399Y-2.3296
X5.686Y-3.6538
X5.7802Y-2.8913
X5.7952Y-3.9863
X5.8202Y-2.8913
X5.901Y-3.6938
X5.941Y-3.6938
X5.9602Y-3.9863
X6.131Y-3.0288
X6.156Y-2.8288
X6.156Y-2.9288
T2
X5.2139Y-3.6788
X5.2139Y-3.7788
X5.2139Y-3.8788
X5.3139Y-3.6788
X5.3139Y-3.7788
X5.3139Y-3.8788
X6.8439Y-2.0138
X6.8439Y-2.1138
X6.8439Y-2.2138
X6.8439Y-2.3138
X6.8439Y-2.4138
X6.8439Y-2.5138
X6.8439Y-2.6138
X6.8439Y-2.7138
X6.8439Y-2.8138
X6.8439Y-2.9138
X6.8439Y-3.0138
X6.8439Y-3.1138
X6.8439Y-3.2138
X6.8439Y-3.3138
X6.8439Y-3.4138
X6.8439Y-3.5138
X6.8439Y-3.6138
X6.8439Y-3.7138
X6.8439Y-3.8138
X6.8439Y-3.9138
X6.8439Y-4.0138
X6.8439Y-4.1138
X6.8439Y-4.2138
X6.8439Y-4.3138
X6.8439Y-4.4138
X6.8439Y-4.5138
X6.8439Y-4.6138
X6.8439Y-4.7138
X6.8439Y-4.8138
X6.8439Y-4.9138
X6.8439Y-5.0138
X6.8439Y-5.1138
X6.9439Y-2.0138
X6.9439Y-2.1138
X6.9439Y-2.2138
X6.9439Y-2.3138
X6.9439Y-2.4138
X6.9439Y-2.5138
X6.9439Y-2.6138
X6.9439Y-2.7138
X6.9439Y-2.8138
X6.9439Y-2.9138
X6.9439Y-3.0138
X6.9439Y-3.1138
X6.9439Y-3.2138
X6.9439Y-3.3138
X6.9439Y-3.4138
X6.9439Y-3.5138
X6.9439Y-3.6138
X6.9439Y-3.7138
X6.9439Y-3.8138
X6.9439Y-3.9138
X6.9439Y-4.0138
X6.9439Y-4.1138
X6.9439Y-4.2138
X6.9439Y-4.3138
X6.9439Y-4.4138
X6.9439Y-4.5138
X6.9439Y-4.6138
X6.9439Y-4.7138
X6.9439Y-4.8138
X6.9439Y-4.9138
X6.9439Y-5.0138
X6.9439Y-5.1138
T0
M30
