G04 #@! TF.GenerationSoftware,KiCad,Pcbnew,5.1.6-c6e7f7d~86~ubuntu18.04.1*
G04 #@! TF.CreationDate,2020-07-07T21:11:44+12:00*
G04 #@! TF.ProjectId,M1 Control Card,4d312043-6f6e-4747-926f-6c2043617264,rev?*
G04 #@! TF.SameCoordinates,Original*
G04 #@! TF.FileFunction,Soldermask,Bot*
G04 #@! TF.FilePolarity,Negative*
%FSLAX46Y46*%
G04 Gerber Fmt 4.6, Leading zero omitted, Abs format (unit mm)*
G04 Created by KiCad (PCBNEW 5.1.6-c6e7f7d~86~ubuntu18.04.1) date 2020-07-07 21:11:44*
%MOMM*%
%LPD*%
G01*
G04 APERTURE LIST*
%ADD10C,0.100000*%
G04 APERTURE END LIST*
D10*
G36*
X176488512Y-128993927D02*
G01*
X176637812Y-129023624D01*
X176801784Y-129091544D01*
X176949354Y-129190147D01*
X177074853Y-129315646D01*
X177173456Y-129463216D01*
X177241376Y-129627188D01*
X177276000Y-129801259D01*
X177276000Y-129978741D01*
X177241376Y-130152812D01*
X177173456Y-130316784D01*
X177074853Y-130464354D01*
X176949354Y-130589853D01*
X176801784Y-130688456D01*
X176637812Y-130756376D01*
X176488512Y-130786073D01*
X176463742Y-130791000D01*
X176286258Y-130791000D01*
X176261488Y-130786073D01*
X176112188Y-130756376D01*
X175948216Y-130688456D01*
X175800646Y-130589853D01*
X175675147Y-130464354D01*
X175576544Y-130316784D01*
X175508624Y-130152812D01*
X175474000Y-129978741D01*
X175474000Y-129801259D01*
X175508624Y-129627188D01*
X175576544Y-129463216D01*
X175675147Y-129315646D01*
X175800646Y-129190147D01*
X175948216Y-129091544D01*
X176112188Y-129023624D01*
X176261488Y-128993927D01*
X176286258Y-128989000D01*
X176463742Y-128989000D01*
X176488512Y-128993927D01*
G37*
G36*
X173948512Y-128993927D02*
G01*
X174097812Y-129023624D01*
X174261784Y-129091544D01*
X174409354Y-129190147D01*
X174534853Y-129315646D01*
X174633456Y-129463216D01*
X174701376Y-129627188D01*
X174736000Y-129801259D01*
X174736000Y-129978741D01*
X174701376Y-130152812D01*
X174633456Y-130316784D01*
X174534853Y-130464354D01*
X174409354Y-130589853D01*
X174261784Y-130688456D01*
X174097812Y-130756376D01*
X173948512Y-130786073D01*
X173923742Y-130791000D01*
X173746258Y-130791000D01*
X173721488Y-130786073D01*
X173572188Y-130756376D01*
X173408216Y-130688456D01*
X173260646Y-130589853D01*
X173135147Y-130464354D01*
X173036544Y-130316784D01*
X172968624Y-130152812D01*
X172934000Y-129978741D01*
X172934000Y-129801259D01*
X172968624Y-129627188D01*
X173036544Y-129463216D01*
X173135147Y-129315646D01*
X173260646Y-129190147D01*
X173408216Y-129091544D01*
X173572188Y-129023624D01*
X173721488Y-128993927D01*
X173746258Y-128989000D01*
X173923742Y-128989000D01*
X173948512Y-128993927D01*
G37*
G36*
X176488512Y-126453927D02*
G01*
X176637812Y-126483624D01*
X176801784Y-126551544D01*
X176949354Y-126650147D01*
X177074853Y-126775646D01*
X177173456Y-126923216D01*
X177241376Y-127087188D01*
X177276000Y-127261259D01*
X177276000Y-127438741D01*
X177241376Y-127612812D01*
X177173456Y-127776784D01*
X177074853Y-127924354D01*
X176949354Y-128049853D01*
X176801784Y-128148456D01*
X176637812Y-128216376D01*
X176488512Y-128246073D01*
X176463742Y-128251000D01*
X176286258Y-128251000D01*
X176261488Y-128246073D01*
X176112188Y-128216376D01*
X175948216Y-128148456D01*
X175800646Y-128049853D01*
X175675147Y-127924354D01*
X175576544Y-127776784D01*
X175508624Y-127612812D01*
X175474000Y-127438741D01*
X175474000Y-127261259D01*
X175508624Y-127087188D01*
X175576544Y-126923216D01*
X175675147Y-126775646D01*
X175800646Y-126650147D01*
X175948216Y-126551544D01*
X176112188Y-126483624D01*
X176261488Y-126453927D01*
X176286258Y-126449000D01*
X176463742Y-126449000D01*
X176488512Y-126453927D01*
G37*
G36*
X173948512Y-126453927D02*
G01*
X174097812Y-126483624D01*
X174261784Y-126551544D01*
X174409354Y-126650147D01*
X174534853Y-126775646D01*
X174633456Y-126923216D01*
X174701376Y-127087188D01*
X174736000Y-127261259D01*
X174736000Y-127438741D01*
X174701376Y-127612812D01*
X174633456Y-127776784D01*
X174534853Y-127924354D01*
X174409354Y-128049853D01*
X174261784Y-128148456D01*
X174097812Y-128216376D01*
X173948512Y-128246073D01*
X173923742Y-128251000D01*
X173746258Y-128251000D01*
X173721488Y-128246073D01*
X173572188Y-128216376D01*
X173408216Y-128148456D01*
X173260646Y-128049853D01*
X173135147Y-127924354D01*
X173036544Y-127776784D01*
X172968624Y-127612812D01*
X172934000Y-127438741D01*
X172934000Y-127261259D01*
X172968624Y-127087188D01*
X173036544Y-126923216D01*
X173135147Y-126775646D01*
X173260646Y-126650147D01*
X173408216Y-126551544D01*
X173572188Y-126483624D01*
X173721488Y-126453927D01*
X173746258Y-126449000D01*
X173923742Y-126449000D01*
X173948512Y-126453927D01*
G37*
G36*
X173948512Y-123913927D02*
G01*
X174097812Y-123943624D01*
X174261784Y-124011544D01*
X174409354Y-124110147D01*
X174534853Y-124235646D01*
X174633456Y-124383216D01*
X174701376Y-124547188D01*
X174736000Y-124721259D01*
X174736000Y-124898741D01*
X174701376Y-125072812D01*
X174633456Y-125236784D01*
X174534853Y-125384354D01*
X174409354Y-125509853D01*
X174261784Y-125608456D01*
X174097812Y-125676376D01*
X173948512Y-125706073D01*
X173923742Y-125711000D01*
X173746258Y-125711000D01*
X173721488Y-125706073D01*
X173572188Y-125676376D01*
X173408216Y-125608456D01*
X173260646Y-125509853D01*
X173135147Y-125384354D01*
X173036544Y-125236784D01*
X172968624Y-125072812D01*
X172934000Y-124898741D01*
X172934000Y-124721259D01*
X172968624Y-124547188D01*
X173036544Y-124383216D01*
X173135147Y-124235646D01*
X173260646Y-124110147D01*
X173408216Y-124011544D01*
X173572188Y-123943624D01*
X173721488Y-123913927D01*
X173746258Y-123909000D01*
X173923742Y-123909000D01*
X173948512Y-123913927D01*
G37*
G36*
X176488512Y-123913927D02*
G01*
X176637812Y-123943624D01*
X176801784Y-124011544D01*
X176949354Y-124110147D01*
X177074853Y-124235646D01*
X177173456Y-124383216D01*
X177241376Y-124547188D01*
X177276000Y-124721259D01*
X177276000Y-124898741D01*
X177241376Y-125072812D01*
X177173456Y-125236784D01*
X177074853Y-125384354D01*
X176949354Y-125509853D01*
X176801784Y-125608456D01*
X176637812Y-125676376D01*
X176488512Y-125706073D01*
X176463742Y-125711000D01*
X176286258Y-125711000D01*
X176261488Y-125706073D01*
X176112188Y-125676376D01*
X175948216Y-125608456D01*
X175800646Y-125509853D01*
X175675147Y-125384354D01*
X175576544Y-125236784D01*
X175508624Y-125072812D01*
X175474000Y-124898741D01*
X175474000Y-124721259D01*
X175508624Y-124547188D01*
X175576544Y-124383216D01*
X175675147Y-124235646D01*
X175800646Y-124110147D01*
X175948216Y-124011544D01*
X176112188Y-123943624D01*
X176261488Y-123913927D01*
X176286258Y-123909000D01*
X176463742Y-123909000D01*
X176488512Y-123913927D01*
G37*
G36*
X176488512Y-121373927D02*
G01*
X176637812Y-121403624D01*
X176801784Y-121471544D01*
X176949354Y-121570147D01*
X177074853Y-121695646D01*
X177173456Y-121843216D01*
X177241376Y-122007188D01*
X177276000Y-122181259D01*
X177276000Y-122358741D01*
X177241376Y-122532812D01*
X177173456Y-122696784D01*
X177074853Y-122844354D01*
X176949354Y-122969853D01*
X176801784Y-123068456D01*
X176637812Y-123136376D01*
X176488512Y-123166073D01*
X176463742Y-123171000D01*
X176286258Y-123171000D01*
X176261488Y-123166073D01*
X176112188Y-123136376D01*
X175948216Y-123068456D01*
X175800646Y-122969853D01*
X175675147Y-122844354D01*
X175576544Y-122696784D01*
X175508624Y-122532812D01*
X175474000Y-122358741D01*
X175474000Y-122181259D01*
X175508624Y-122007188D01*
X175576544Y-121843216D01*
X175675147Y-121695646D01*
X175800646Y-121570147D01*
X175948216Y-121471544D01*
X176112188Y-121403624D01*
X176261488Y-121373927D01*
X176286258Y-121369000D01*
X176463742Y-121369000D01*
X176488512Y-121373927D01*
G37*
G36*
X173948512Y-121373927D02*
G01*
X174097812Y-121403624D01*
X174261784Y-121471544D01*
X174409354Y-121570147D01*
X174534853Y-121695646D01*
X174633456Y-121843216D01*
X174701376Y-122007188D01*
X174736000Y-122181259D01*
X174736000Y-122358741D01*
X174701376Y-122532812D01*
X174633456Y-122696784D01*
X174534853Y-122844354D01*
X174409354Y-122969853D01*
X174261784Y-123068456D01*
X174097812Y-123136376D01*
X173948512Y-123166073D01*
X173923742Y-123171000D01*
X173746258Y-123171000D01*
X173721488Y-123166073D01*
X173572188Y-123136376D01*
X173408216Y-123068456D01*
X173260646Y-122969853D01*
X173135147Y-122844354D01*
X173036544Y-122696784D01*
X172968624Y-122532812D01*
X172934000Y-122358741D01*
X172934000Y-122181259D01*
X172968624Y-122007188D01*
X173036544Y-121843216D01*
X173135147Y-121695646D01*
X173260646Y-121570147D01*
X173408216Y-121471544D01*
X173572188Y-121403624D01*
X173721488Y-121373927D01*
X173746258Y-121369000D01*
X173923742Y-121369000D01*
X173948512Y-121373927D01*
G37*
G36*
X173948512Y-118833927D02*
G01*
X174097812Y-118863624D01*
X174261784Y-118931544D01*
X174409354Y-119030147D01*
X174534853Y-119155646D01*
X174633456Y-119303216D01*
X174701376Y-119467188D01*
X174736000Y-119641259D01*
X174736000Y-119818741D01*
X174701376Y-119992812D01*
X174633456Y-120156784D01*
X174534853Y-120304354D01*
X174409354Y-120429853D01*
X174261784Y-120528456D01*
X174097812Y-120596376D01*
X173948512Y-120626073D01*
X173923742Y-120631000D01*
X173746258Y-120631000D01*
X173721488Y-120626073D01*
X173572188Y-120596376D01*
X173408216Y-120528456D01*
X173260646Y-120429853D01*
X173135147Y-120304354D01*
X173036544Y-120156784D01*
X172968624Y-119992812D01*
X172934000Y-119818741D01*
X172934000Y-119641259D01*
X172968624Y-119467188D01*
X173036544Y-119303216D01*
X173135147Y-119155646D01*
X173260646Y-119030147D01*
X173408216Y-118931544D01*
X173572188Y-118863624D01*
X173721488Y-118833927D01*
X173746258Y-118829000D01*
X173923742Y-118829000D01*
X173948512Y-118833927D01*
G37*
G36*
X176488512Y-118833927D02*
G01*
X176637812Y-118863624D01*
X176801784Y-118931544D01*
X176949354Y-119030147D01*
X177074853Y-119155646D01*
X177173456Y-119303216D01*
X177241376Y-119467188D01*
X177276000Y-119641259D01*
X177276000Y-119818741D01*
X177241376Y-119992812D01*
X177173456Y-120156784D01*
X177074853Y-120304354D01*
X176949354Y-120429853D01*
X176801784Y-120528456D01*
X176637812Y-120596376D01*
X176488512Y-120626073D01*
X176463742Y-120631000D01*
X176286258Y-120631000D01*
X176261488Y-120626073D01*
X176112188Y-120596376D01*
X175948216Y-120528456D01*
X175800646Y-120429853D01*
X175675147Y-120304354D01*
X175576544Y-120156784D01*
X175508624Y-119992812D01*
X175474000Y-119818741D01*
X175474000Y-119641259D01*
X175508624Y-119467188D01*
X175576544Y-119303216D01*
X175675147Y-119155646D01*
X175800646Y-119030147D01*
X175948216Y-118931544D01*
X176112188Y-118863624D01*
X176261488Y-118833927D01*
X176286258Y-118829000D01*
X176463742Y-118829000D01*
X176488512Y-118833927D01*
G37*
G36*
X176488512Y-116293927D02*
G01*
X176637812Y-116323624D01*
X176801784Y-116391544D01*
X176949354Y-116490147D01*
X177074853Y-116615646D01*
X177173456Y-116763216D01*
X177241376Y-116927188D01*
X177276000Y-117101259D01*
X177276000Y-117278741D01*
X177241376Y-117452812D01*
X177173456Y-117616784D01*
X177074853Y-117764354D01*
X176949354Y-117889853D01*
X176801784Y-117988456D01*
X176637812Y-118056376D01*
X176488512Y-118086073D01*
X176463742Y-118091000D01*
X176286258Y-118091000D01*
X176261488Y-118086073D01*
X176112188Y-118056376D01*
X175948216Y-117988456D01*
X175800646Y-117889853D01*
X175675147Y-117764354D01*
X175576544Y-117616784D01*
X175508624Y-117452812D01*
X175474000Y-117278741D01*
X175474000Y-117101259D01*
X175508624Y-116927188D01*
X175576544Y-116763216D01*
X175675147Y-116615646D01*
X175800646Y-116490147D01*
X175948216Y-116391544D01*
X176112188Y-116323624D01*
X176261488Y-116293927D01*
X176286258Y-116289000D01*
X176463742Y-116289000D01*
X176488512Y-116293927D01*
G37*
G36*
X173948512Y-116293927D02*
G01*
X174097812Y-116323624D01*
X174261784Y-116391544D01*
X174409354Y-116490147D01*
X174534853Y-116615646D01*
X174633456Y-116763216D01*
X174701376Y-116927188D01*
X174736000Y-117101259D01*
X174736000Y-117278741D01*
X174701376Y-117452812D01*
X174633456Y-117616784D01*
X174534853Y-117764354D01*
X174409354Y-117889853D01*
X174261784Y-117988456D01*
X174097812Y-118056376D01*
X173948512Y-118086073D01*
X173923742Y-118091000D01*
X173746258Y-118091000D01*
X173721488Y-118086073D01*
X173572188Y-118056376D01*
X173408216Y-117988456D01*
X173260646Y-117889853D01*
X173135147Y-117764354D01*
X173036544Y-117616784D01*
X172968624Y-117452812D01*
X172934000Y-117278741D01*
X172934000Y-117101259D01*
X172968624Y-116927188D01*
X173036544Y-116763216D01*
X173135147Y-116615646D01*
X173260646Y-116490147D01*
X173408216Y-116391544D01*
X173572188Y-116323624D01*
X173721488Y-116293927D01*
X173746258Y-116289000D01*
X173923742Y-116289000D01*
X173948512Y-116293927D01*
G37*
G36*
X173948512Y-113753927D02*
G01*
X174097812Y-113783624D01*
X174261784Y-113851544D01*
X174409354Y-113950147D01*
X174534853Y-114075646D01*
X174633456Y-114223216D01*
X174701376Y-114387188D01*
X174736000Y-114561259D01*
X174736000Y-114738741D01*
X174701376Y-114912812D01*
X174633456Y-115076784D01*
X174534853Y-115224354D01*
X174409354Y-115349853D01*
X174261784Y-115448456D01*
X174097812Y-115516376D01*
X173948512Y-115546073D01*
X173923742Y-115551000D01*
X173746258Y-115551000D01*
X173721488Y-115546073D01*
X173572188Y-115516376D01*
X173408216Y-115448456D01*
X173260646Y-115349853D01*
X173135147Y-115224354D01*
X173036544Y-115076784D01*
X172968624Y-114912812D01*
X172934000Y-114738741D01*
X172934000Y-114561259D01*
X172968624Y-114387188D01*
X173036544Y-114223216D01*
X173135147Y-114075646D01*
X173260646Y-113950147D01*
X173408216Y-113851544D01*
X173572188Y-113783624D01*
X173721488Y-113753927D01*
X173746258Y-113749000D01*
X173923742Y-113749000D01*
X173948512Y-113753927D01*
G37*
G36*
X176488512Y-113753927D02*
G01*
X176637812Y-113783624D01*
X176801784Y-113851544D01*
X176949354Y-113950147D01*
X177074853Y-114075646D01*
X177173456Y-114223216D01*
X177241376Y-114387188D01*
X177276000Y-114561259D01*
X177276000Y-114738741D01*
X177241376Y-114912812D01*
X177173456Y-115076784D01*
X177074853Y-115224354D01*
X176949354Y-115349853D01*
X176801784Y-115448456D01*
X176637812Y-115516376D01*
X176488512Y-115546073D01*
X176463742Y-115551000D01*
X176286258Y-115551000D01*
X176261488Y-115546073D01*
X176112188Y-115516376D01*
X175948216Y-115448456D01*
X175800646Y-115349853D01*
X175675147Y-115224354D01*
X175576544Y-115076784D01*
X175508624Y-114912812D01*
X175474000Y-114738741D01*
X175474000Y-114561259D01*
X175508624Y-114387188D01*
X175576544Y-114223216D01*
X175675147Y-114075646D01*
X175800646Y-113950147D01*
X175948216Y-113851544D01*
X176112188Y-113783624D01*
X176261488Y-113753927D01*
X176286258Y-113749000D01*
X176463742Y-113749000D01*
X176488512Y-113753927D01*
G37*
G36*
X173948512Y-111213927D02*
G01*
X174097812Y-111243624D01*
X174261784Y-111311544D01*
X174409354Y-111410147D01*
X174534853Y-111535646D01*
X174633456Y-111683216D01*
X174701376Y-111847188D01*
X174736000Y-112021259D01*
X174736000Y-112198741D01*
X174701376Y-112372812D01*
X174633456Y-112536784D01*
X174534853Y-112684354D01*
X174409354Y-112809853D01*
X174261784Y-112908456D01*
X174097812Y-112976376D01*
X173948512Y-113006073D01*
X173923742Y-113011000D01*
X173746258Y-113011000D01*
X173721488Y-113006073D01*
X173572188Y-112976376D01*
X173408216Y-112908456D01*
X173260646Y-112809853D01*
X173135147Y-112684354D01*
X173036544Y-112536784D01*
X172968624Y-112372812D01*
X172934000Y-112198741D01*
X172934000Y-112021259D01*
X172968624Y-111847188D01*
X173036544Y-111683216D01*
X173135147Y-111535646D01*
X173260646Y-111410147D01*
X173408216Y-111311544D01*
X173572188Y-111243624D01*
X173721488Y-111213927D01*
X173746258Y-111209000D01*
X173923742Y-111209000D01*
X173948512Y-111213927D01*
G37*
G36*
X176488512Y-111213927D02*
G01*
X176637812Y-111243624D01*
X176801784Y-111311544D01*
X176949354Y-111410147D01*
X177074853Y-111535646D01*
X177173456Y-111683216D01*
X177241376Y-111847188D01*
X177276000Y-112021259D01*
X177276000Y-112198741D01*
X177241376Y-112372812D01*
X177173456Y-112536784D01*
X177074853Y-112684354D01*
X176949354Y-112809853D01*
X176801784Y-112908456D01*
X176637812Y-112976376D01*
X176488512Y-113006073D01*
X176463742Y-113011000D01*
X176286258Y-113011000D01*
X176261488Y-113006073D01*
X176112188Y-112976376D01*
X175948216Y-112908456D01*
X175800646Y-112809853D01*
X175675147Y-112684354D01*
X175576544Y-112536784D01*
X175508624Y-112372812D01*
X175474000Y-112198741D01*
X175474000Y-112021259D01*
X175508624Y-111847188D01*
X175576544Y-111683216D01*
X175675147Y-111535646D01*
X175800646Y-111410147D01*
X175948216Y-111311544D01*
X176112188Y-111243624D01*
X176261488Y-111213927D01*
X176286258Y-111209000D01*
X176463742Y-111209000D01*
X176488512Y-111213927D01*
G37*
G36*
X173948512Y-108673927D02*
G01*
X174097812Y-108703624D01*
X174261784Y-108771544D01*
X174409354Y-108870147D01*
X174534853Y-108995646D01*
X174633456Y-109143216D01*
X174701376Y-109307188D01*
X174736000Y-109481259D01*
X174736000Y-109658741D01*
X174701376Y-109832812D01*
X174633456Y-109996784D01*
X174534853Y-110144354D01*
X174409354Y-110269853D01*
X174261784Y-110368456D01*
X174097812Y-110436376D01*
X173948512Y-110466073D01*
X173923742Y-110471000D01*
X173746258Y-110471000D01*
X173721488Y-110466073D01*
X173572188Y-110436376D01*
X173408216Y-110368456D01*
X173260646Y-110269853D01*
X173135147Y-110144354D01*
X173036544Y-109996784D01*
X172968624Y-109832812D01*
X172934000Y-109658741D01*
X172934000Y-109481259D01*
X172968624Y-109307188D01*
X173036544Y-109143216D01*
X173135147Y-108995646D01*
X173260646Y-108870147D01*
X173408216Y-108771544D01*
X173572188Y-108703624D01*
X173721488Y-108673927D01*
X173746258Y-108669000D01*
X173923742Y-108669000D01*
X173948512Y-108673927D01*
G37*
G36*
X176488512Y-108673927D02*
G01*
X176637812Y-108703624D01*
X176801784Y-108771544D01*
X176949354Y-108870147D01*
X177074853Y-108995646D01*
X177173456Y-109143216D01*
X177241376Y-109307188D01*
X177276000Y-109481259D01*
X177276000Y-109658741D01*
X177241376Y-109832812D01*
X177173456Y-109996784D01*
X177074853Y-110144354D01*
X176949354Y-110269853D01*
X176801784Y-110368456D01*
X176637812Y-110436376D01*
X176488512Y-110466073D01*
X176463742Y-110471000D01*
X176286258Y-110471000D01*
X176261488Y-110466073D01*
X176112188Y-110436376D01*
X175948216Y-110368456D01*
X175800646Y-110269853D01*
X175675147Y-110144354D01*
X175576544Y-109996784D01*
X175508624Y-109832812D01*
X175474000Y-109658741D01*
X175474000Y-109481259D01*
X175508624Y-109307188D01*
X175576544Y-109143216D01*
X175675147Y-108995646D01*
X175800646Y-108870147D01*
X175948216Y-108771544D01*
X176112188Y-108703624D01*
X176261488Y-108673927D01*
X176286258Y-108669000D01*
X176463742Y-108669000D01*
X176488512Y-108673927D01*
G37*
G36*
X176488512Y-106133927D02*
G01*
X176637812Y-106163624D01*
X176801784Y-106231544D01*
X176949354Y-106330147D01*
X177074853Y-106455646D01*
X177173456Y-106603216D01*
X177241376Y-106767188D01*
X177276000Y-106941259D01*
X177276000Y-107118741D01*
X177241376Y-107292812D01*
X177173456Y-107456784D01*
X177074853Y-107604354D01*
X176949354Y-107729853D01*
X176801784Y-107828456D01*
X176637812Y-107896376D01*
X176488512Y-107926073D01*
X176463742Y-107931000D01*
X176286258Y-107931000D01*
X176261488Y-107926073D01*
X176112188Y-107896376D01*
X175948216Y-107828456D01*
X175800646Y-107729853D01*
X175675147Y-107604354D01*
X175576544Y-107456784D01*
X175508624Y-107292812D01*
X175474000Y-107118741D01*
X175474000Y-106941259D01*
X175508624Y-106767188D01*
X175576544Y-106603216D01*
X175675147Y-106455646D01*
X175800646Y-106330147D01*
X175948216Y-106231544D01*
X176112188Y-106163624D01*
X176261488Y-106133927D01*
X176286258Y-106129000D01*
X176463742Y-106129000D01*
X176488512Y-106133927D01*
G37*
G36*
X173948512Y-106133927D02*
G01*
X174097812Y-106163624D01*
X174261784Y-106231544D01*
X174409354Y-106330147D01*
X174534853Y-106455646D01*
X174633456Y-106603216D01*
X174701376Y-106767188D01*
X174736000Y-106941259D01*
X174736000Y-107118741D01*
X174701376Y-107292812D01*
X174633456Y-107456784D01*
X174534853Y-107604354D01*
X174409354Y-107729853D01*
X174261784Y-107828456D01*
X174097812Y-107896376D01*
X173948512Y-107926073D01*
X173923742Y-107931000D01*
X173746258Y-107931000D01*
X173721488Y-107926073D01*
X173572188Y-107896376D01*
X173408216Y-107828456D01*
X173260646Y-107729853D01*
X173135147Y-107604354D01*
X173036544Y-107456784D01*
X172968624Y-107292812D01*
X172934000Y-107118741D01*
X172934000Y-106941259D01*
X172968624Y-106767188D01*
X173036544Y-106603216D01*
X173135147Y-106455646D01*
X173260646Y-106330147D01*
X173408216Y-106231544D01*
X173572188Y-106163624D01*
X173721488Y-106133927D01*
X173746258Y-106129000D01*
X173923742Y-106129000D01*
X173948512Y-106133927D01*
G37*
G36*
X176488512Y-103593927D02*
G01*
X176637812Y-103623624D01*
X176801784Y-103691544D01*
X176949354Y-103790147D01*
X177074853Y-103915646D01*
X177173456Y-104063216D01*
X177241376Y-104227188D01*
X177276000Y-104401259D01*
X177276000Y-104578741D01*
X177241376Y-104752812D01*
X177173456Y-104916784D01*
X177074853Y-105064354D01*
X176949354Y-105189853D01*
X176801784Y-105288456D01*
X176637812Y-105356376D01*
X176488512Y-105386073D01*
X176463742Y-105391000D01*
X176286258Y-105391000D01*
X176261488Y-105386073D01*
X176112188Y-105356376D01*
X175948216Y-105288456D01*
X175800646Y-105189853D01*
X175675147Y-105064354D01*
X175576544Y-104916784D01*
X175508624Y-104752812D01*
X175474000Y-104578741D01*
X175474000Y-104401259D01*
X175508624Y-104227188D01*
X175576544Y-104063216D01*
X175675147Y-103915646D01*
X175800646Y-103790147D01*
X175948216Y-103691544D01*
X176112188Y-103623624D01*
X176261488Y-103593927D01*
X176286258Y-103589000D01*
X176463742Y-103589000D01*
X176488512Y-103593927D01*
G37*
G36*
X173948512Y-103593927D02*
G01*
X174097812Y-103623624D01*
X174261784Y-103691544D01*
X174409354Y-103790147D01*
X174534853Y-103915646D01*
X174633456Y-104063216D01*
X174701376Y-104227188D01*
X174736000Y-104401259D01*
X174736000Y-104578741D01*
X174701376Y-104752812D01*
X174633456Y-104916784D01*
X174534853Y-105064354D01*
X174409354Y-105189853D01*
X174261784Y-105288456D01*
X174097812Y-105356376D01*
X173948512Y-105386073D01*
X173923742Y-105391000D01*
X173746258Y-105391000D01*
X173721488Y-105386073D01*
X173572188Y-105356376D01*
X173408216Y-105288456D01*
X173260646Y-105189853D01*
X173135147Y-105064354D01*
X173036544Y-104916784D01*
X172968624Y-104752812D01*
X172934000Y-104578741D01*
X172934000Y-104401259D01*
X172968624Y-104227188D01*
X173036544Y-104063216D01*
X173135147Y-103915646D01*
X173260646Y-103790147D01*
X173408216Y-103691544D01*
X173572188Y-103623624D01*
X173721488Y-103593927D01*
X173746258Y-103589000D01*
X173923742Y-103589000D01*
X173948512Y-103593927D01*
G37*
G36*
X173948512Y-101053927D02*
G01*
X174097812Y-101083624D01*
X174261784Y-101151544D01*
X174409354Y-101250147D01*
X174534853Y-101375646D01*
X174633456Y-101523216D01*
X174701376Y-101687188D01*
X174736000Y-101861259D01*
X174736000Y-102038741D01*
X174701376Y-102212812D01*
X174633456Y-102376784D01*
X174534853Y-102524354D01*
X174409354Y-102649853D01*
X174261784Y-102748456D01*
X174097812Y-102816376D01*
X173948512Y-102846073D01*
X173923742Y-102851000D01*
X173746258Y-102851000D01*
X173721488Y-102846073D01*
X173572188Y-102816376D01*
X173408216Y-102748456D01*
X173260646Y-102649853D01*
X173135147Y-102524354D01*
X173036544Y-102376784D01*
X172968624Y-102212812D01*
X172934000Y-102038741D01*
X172934000Y-101861259D01*
X172968624Y-101687188D01*
X173036544Y-101523216D01*
X173135147Y-101375646D01*
X173260646Y-101250147D01*
X173408216Y-101151544D01*
X173572188Y-101083624D01*
X173721488Y-101053927D01*
X173746258Y-101049000D01*
X173923742Y-101049000D01*
X173948512Y-101053927D01*
G37*
G36*
X176488512Y-101053927D02*
G01*
X176637812Y-101083624D01*
X176801784Y-101151544D01*
X176949354Y-101250147D01*
X177074853Y-101375646D01*
X177173456Y-101523216D01*
X177241376Y-101687188D01*
X177276000Y-101861259D01*
X177276000Y-102038741D01*
X177241376Y-102212812D01*
X177173456Y-102376784D01*
X177074853Y-102524354D01*
X176949354Y-102649853D01*
X176801784Y-102748456D01*
X176637812Y-102816376D01*
X176488512Y-102846073D01*
X176463742Y-102851000D01*
X176286258Y-102851000D01*
X176261488Y-102846073D01*
X176112188Y-102816376D01*
X175948216Y-102748456D01*
X175800646Y-102649853D01*
X175675147Y-102524354D01*
X175576544Y-102376784D01*
X175508624Y-102212812D01*
X175474000Y-102038741D01*
X175474000Y-101861259D01*
X175508624Y-101687188D01*
X175576544Y-101523216D01*
X175675147Y-101375646D01*
X175800646Y-101250147D01*
X175948216Y-101151544D01*
X176112188Y-101083624D01*
X176261488Y-101053927D01*
X176286258Y-101049000D01*
X176463742Y-101049000D01*
X176488512Y-101053927D01*
G37*
G36*
X173948512Y-98513927D02*
G01*
X174097812Y-98543624D01*
X174261784Y-98611544D01*
X174409354Y-98710147D01*
X174534853Y-98835646D01*
X174633456Y-98983216D01*
X174701376Y-99147188D01*
X174731073Y-99296488D01*
X174735642Y-99319456D01*
X174736000Y-99321259D01*
X174736000Y-99498741D01*
X174701376Y-99672812D01*
X174633456Y-99836784D01*
X174534853Y-99984354D01*
X174409354Y-100109853D01*
X174261784Y-100208456D01*
X174097812Y-100276376D01*
X173948512Y-100306073D01*
X173923742Y-100311000D01*
X173746258Y-100311000D01*
X173721488Y-100306073D01*
X173572188Y-100276376D01*
X173408216Y-100208456D01*
X173260646Y-100109853D01*
X173135147Y-99984354D01*
X173036544Y-99836784D01*
X172968624Y-99672812D01*
X172934000Y-99498741D01*
X172934000Y-99321259D01*
X172934359Y-99319456D01*
X172938927Y-99296488D01*
X172968624Y-99147188D01*
X173036544Y-98983216D01*
X173135147Y-98835646D01*
X173260646Y-98710147D01*
X173408216Y-98611544D01*
X173572188Y-98543624D01*
X173721488Y-98513927D01*
X173746258Y-98509000D01*
X173923742Y-98509000D01*
X173948512Y-98513927D01*
G37*
G36*
X176488512Y-98513927D02*
G01*
X176637812Y-98543624D01*
X176801784Y-98611544D01*
X176949354Y-98710147D01*
X177074853Y-98835646D01*
X177173456Y-98983216D01*
X177241376Y-99147188D01*
X177271073Y-99296488D01*
X177275642Y-99319456D01*
X177276000Y-99321259D01*
X177276000Y-99498741D01*
X177241376Y-99672812D01*
X177173456Y-99836784D01*
X177074853Y-99984354D01*
X176949354Y-100109853D01*
X176801784Y-100208456D01*
X176637812Y-100276376D01*
X176488512Y-100306073D01*
X176463742Y-100311000D01*
X176286258Y-100311000D01*
X176261488Y-100306073D01*
X176112188Y-100276376D01*
X175948216Y-100208456D01*
X175800646Y-100109853D01*
X175675147Y-99984354D01*
X175576544Y-99836784D01*
X175508624Y-99672812D01*
X175474000Y-99498741D01*
X175474000Y-99321259D01*
X175474359Y-99319456D01*
X175478927Y-99296488D01*
X175508624Y-99147188D01*
X175576544Y-98983216D01*
X175675147Y-98835646D01*
X175800646Y-98710147D01*
X175948216Y-98611544D01*
X176112188Y-98543624D01*
X176261488Y-98513927D01*
X176286258Y-98509000D01*
X176463742Y-98509000D01*
X176488512Y-98513927D01*
G37*
G36*
X135873000Y-99422000D02*
G01*
X134071000Y-99422000D01*
X134071000Y-97620000D01*
X135873000Y-97620000D01*
X135873000Y-99422000D01*
G37*
G36*
X132545512Y-97624927D02*
G01*
X132694812Y-97654624D01*
X132858784Y-97722544D01*
X133006354Y-97821147D01*
X133131853Y-97946646D01*
X133230456Y-98094216D01*
X133298376Y-98258188D01*
X133328073Y-98407488D01*
X133333000Y-98432258D01*
X133333000Y-98609742D01*
X133328073Y-98634512D01*
X133298376Y-98783812D01*
X133230456Y-98947784D01*
X133131853Y-99095354D01*
X133006354Y-99220853D01*
X132858784Y-99319456D01*
X132694812Y-99387376D01*
X132545512Y-99417073D01*
X132520742Y-99422000D01*
X132343258Y-99422000D01*
X132318488Y-99417073D01*
X132169188Y-99387376D01*
X132005216Y-99319456D01*
X131857646Y-99220853D01*
X131732147Y-99095354D01*
X131633544Y-98947784D01*
X131565624Y-98783812D01*
X131535927Y-98634512D01*
X131531000Y-98609742D01*
X131531000Y-98432258D01*
X131535927Y-98407488D01*
X131565624Y-98258188D01*
X131633544Y-98094216D01*
X131732147Y-97946646D01*
X131857646Y-97821147D01*
X132005216Y-97722544D01*
X132169188Y-97654624D01*
X132318488Y-97624927D01*
X132343258Y-97620000D01*
X132520742Y-97620000D01*
X132545512Y-97624927D01*
G37*
G36*
X176488512Y-95973927D02*
G01*
X176637812Y-96003624D01*
X176801784Y-96071544D01*
X176949354Y-96170147D01*
X177074853Y-96295646D01*
X177173456Y-96443216D01*
X177241376Y-96607188D01*
X177271073Y-96756488D01*
X177275642Y-96779456D01*
X177276000Y-96781259D01*
X177276000Y-96958741D01*
X177241376Y-97132812D01*
X177173456Y-97296784D01*
X177074853Y-97444354D01*
X176949354Y-97569853D01*
X176801784Y-97668456D01*
X176637812Y-97736376D01*
X176488512Y-97766073D01*
X176463742Y-97771000D01*
X176286258Y-97771000D01*
X176261488Y-97766073D01*
X176112188Y-97736376D01*
X175948216Y-97668456D01*
X175800646Y-97569853D01*
X175675147Y-97444354D01*
X175576544Y-97296784D01*
X175508624Y-97132812D01*
X175474000Y-96958741D01*
X175474000Y-96781259D01*
X175474359Y-96779456D01*
X175478927Y-96756488D01*
X175508624Y-96607188D01*
X175576544Y-96443216D01*
X175675147Y-96295646D01*
X175800646Y-96170147D01*
X175948216Y-96071544D01*
X176112188Y-96003624D01*
X176261488Y-95973927D01*
X176286258Y-95969000D01*
X176463742Y-95969000D01*
X176488512Y-95973927D01*
G37*
G36*
X173948512Y-95973927D02*
G01*
X174097812Y-96003624D01*
X174261784Y-96071544D01*
X174409354Y-96170147D01*
X174534853Y-96295646D01*
X174633456Y-96443216D01*
X174701376Y-96607188D01*
X174731073Y-96756488D01*
X174735642Y-96779456D01*
X174736000Y-96781259D01*
X174736000Y-96958741D01*
X174701376Y-97132812D01*
X174633456Y-97296784D01*
X174534853Y-97444354D01*
X174409354Y-97569853D01*
X174261784Y-97668456D01*
X174097812Y-97736376D01*
X173948512Y-97766073D01*
X173923742Y-97771000D01*
X173746258Y-97771000D01*
X173721488Y-97766073D01*
X173572188Y-97736376D01*
X173408216Y-97668456D01*
X173260646Y-97569853D01*
X173135147Y-97444354D01*
X173036544Y-97296784D01*
X172968624Y-97132812D01*
X172934000Y-96958741D01*
X172934000Y-96781259D01*
X172934359Y-96779456D01*
X172938927Y-96756488D01*
X172968624Y-96607188D01*
X173036544Y-96443216D01*
X173135147Y-96295646D01*
X173260646Y-96170147D01*
X173408216Y-96071544D01*
X173572188Y-96003624D01*
X173721488Y-95973927D01*
X173746258Y-95969000D01*
X173923742Y-95969000D01*
X173948512Y-95973927D01*
G37*
G36*
X135085512Y-95084927D02*
G01*
X135234812Y-95114624D01*
X135398784Y-95182544D01*
X135546354Y-95281147D01*
X135671853Y-95406646D01*
X135770456Y-95554216D01*
X135838376Y-95718188D01*
X135868073Y-95867488D01*
X135873000Y-95892258D01*
X135873000Y-96069742D01*
X135868073Y-96094512D01*
X135838376Y-96243812D01*
X135770456Y-96407784D01*
X135671853Y-96555354D01*
X135546354Y-96680853D01*
X135398784Y-96779456D01*
X135234812Y-96847376D01*
X135085512Y-96877073D01*
X135060742Y-96882000D01*
X134883258Y-96882000D01*
X134858488Y-96877073D01*
X134709188Y-96847376D01*
X134545216Y-96779456D01*
X134397646Y-96680853D01*
X134272147Y-96555354D01*
X134173544Y-96407784D01*
X134105624Y-96243812D01*
X134075927Y-96094512D01*
X134071000Y-96069742D01*
X134071000Y-95892258D01*
X134075927Y-95867488D01*
X134105624Y-95718188D01*
X134173544Y-95554216D01*
X134272147Y-95406646D01*
X134397646Y-95281147D01*
X134545216Y-95182544D01*
X134709188Y-95114624D01*
X134858488Y-95084927D01*
X134883258Y-95080000D01*
X135060742Y-95080000D01*
X135085512Y-95084927D01*
G37*
G36*
X132545512Y-95084927D02*
G01*
X132694812Y-95114624D01*
X132858784Y-95182544D01*
X133006354Y-95281147D01*
X133131853Y-95406646D01*
X133230456Y-95554216D01*
X133298376Y-95718188D01*
X133328073Y-95867488D01*
X133333000Y-95892258D01*
X133333000Y-96069742D01*
X133328073Y-96094512D01*
X133298376Y-96243812D01*
X133230456Y-96407784D01*
X133131853Y-96555354D01*
X133006354Y-96680853D01*
X132858784Y-96779456D01*
X132694812Y-96847376D01*
X132545512Y-96877073D01*
X132520742Y-96882000D01*
X132343258Y-96882000D01*
X132318488Y-96877073D01*
X132169188Y-96847376D01*
X132005216Y-96779456D01*
X131857646Y-96680853D01*
X131732147Y-96555354D01*
X131633544Y-96407784D01*
X131565624Y-96243812D01*
X131535927Y-96094512D01*
X131531000Y-96069742D01*
X131531000Y-95892258D01*
X131535927Y-95867488D01*
X131565624Y-95718188D01*
X131633544Y-95554216D01*
X131732147Y-95406646D01*
X131857646Y-95281147D01*
X132005216Y-95182544D01*
X132169188Y-95114624D01*
X132318488Y-95084927D01*
X132343258Y-95080000D01*
X132520742Y-95080000D01*
X132545512Y-95084927D01*
G37*
G36*
X173948512Y-93433927D02*
G01*
X174097812Y-93463624D01*
X174261784Y-93531544D01*
X174409354Y-93630147D01*
X174534853Y-93755646D01*
X174633456Y-93903216D01*
X174701376Y-94067188D01*
X174731073Y-94216488D01*
X174735642Y-94239456D01*
X174736000Y-94241259D01*
X174736000Y-94418741D01*
X174701376Y-94592812D01*
X174633456Y-94756784D01*
X174534853Y-94904354D01*
X174409354Y-95029853D01*
X174261784Y-95128456D01*
X174097812Y-95196376D01*
X173948512Y-95226073D01*
X173923742Y-95231000D01*
X173746258Y-95231000D01*
X173721488Y-95226073D01*
X173572188Y-95196376D01*
X173408216Y-95128456D01*
X173260646Y-95029853D01*
X173135147Y-94904354D01*
X173036544Y-94756784D01*
X172968624Y-94592812D01*
X172934000Y-94418741D01*
X172934000Y-94241259D01*
X172934359Y-94239456D01*
X172938927Y-94216488D01*
X172968624Y-94067188D01*
X173036544Y-93903216D01*
X173135147Y-93755646D01*
X173260646Y-93630147D01*
X173408216Y-93531544D01*
X173572188Y-93463624D01*
X173721488Y-93433927D01*
X173746258Y-93429000D01*
X173923742Y-93429000D01*
X173948512Y-93433927D01*
G37*
G36*
X176488512Y-93433927D02*
G01*
X176637812Y-93463624D01*
X176801784Y-93531544D01*
X176949354Y-93630147D01*
X177074853Y-93755646D01*
X177173456Y-93903216D01*
X177241376Y-94067188D01*
X177271073Y-94216488D01*
X177275642Y-94239456D01*
X177276000Y-94241259D01*
X177276000Y-94418741D01*
X177241376Y-94592812D01*
X177173456Y-94756784D01*
X177074853Y-94904354D01*
X176949354Y-95029853D01*
X176801784Y-95128456D01*
X176637812Y-95196376D01*
X176488512Y-95226073D01*
X176463742Y-95231000D01*
X176286258Y-95231000D01*
X176261488Y-95226073D01*
X176112188Y-95196376D01*
X175948216Y-95128456D01*
X175800646Y-95029853D01*
X175675147Y-94904354D01*
X175576544Y-94756784D01*
X175508624Y-94592812D01*
X175474000Y-94418741D01*
X175474000Y-94241259D01*
X175474359Y-94239456D01*
X175478927Y-94216488D01*
X175508624Y-94067188D01*
X175576544Y-93903216D01*
X175675147Y-93755646D01*
X175800646Y-93630147D01*
X175948216Y-93531544D01*
X176112188Y-93463624D01*
X176261488Y-93433927D01*
X176286258Y-93429000D01*
X176463742Y-93429000D01*
X176488512Y-93433927D01*
G37*
G36*
X132545512Y-92544927D02*
G01*
X132694812Y-92574624D01*
X132858784Y-92642544D01*
X133006354Y-92741147D01*
X133131853Y-92866646D01*
X133230456Y-93014216D01*
X133298376Y-93178188D01*
X133328073Y-93327488D01*
X133333000Y-93352258D01*
X133333000Y-93529742D01*
X133328073Y-93554512D01*
X133298376Y-93703812D01*
X133230456Y-93867784D01*
X133131853Y-94015354D01*
X133006354Y-94140853D01*
X132858784Y-94239456D01*
X132694812Y-94307376D01*
X132545512Y-94337073D01*
X132520742Y-94342000D01*
X132343258Y-94342000D01*
X132318488Y-94337073D01*
X132169188Y-94307376D01*
X132005216Y-94239456D01*
X131857646Y-94140853D01*
X131732147Y-94015354D01*
X131633544Y-93867784D01*
X131565624Y-93703812D01*
X131535927Y-93554512D01*
X131531000Y-93529742D01*
X131531000Y-93352258D01*
X131535927Y-93327488D01*
X131565624Y-93178188D01*
X131633544Y-93014216D01*
X131732147Y-92866646D01*
X131857646Y-92741147D01*
X132005216Y-92642544D01*
X132169188Y-92574624D01*
X132318488Y-92544927D01*
X132343258Y-92540000D01*
X132520742Y-92540000D01*
X132545512Y-92544927D01*
G37*
G36*
X135085512Y-92544927D02*
G01*
X135234812Y-92574624D01*
X135398784Y-92642544D01*
X135546354Y-92741147D01*
X135671853Y-92866646D01*
X135770456Y-93014216D01*
X135838376Y-93178188D01*
X135868073Y-93327488D01*
X135873000Y-93352258D01*
X135873000Y-93529742D01*
X135868073Y-93554512D01*
X135838376Y-93703812D01*
X135770456Y-93867784D01*
X135671853Y-94015354D01*
X135546354Y-94140853D01*
X135398784Y-94239456D01*
X135234812Y-94307376D01*
X135085512Y-94337073D01*
X135060742Y-94342000D01*
X134883258Y-94342000D01*
X134858488Y-94337073D01*
X134709188Y-94307376D01*
X134545216Y-94239456D01*
X134397646Y-94140853D01*
X134272147Y-94015354D01*
X134173544Y-93867784D01*
X134105624Y-93703812D01*
X134075927Y-93554512D01*
X134071000Y-93529742D01*
X134071000Y-93352258D01*
X134075927Y-93327488D01*
X134105624Y-93178188D01*
X134173544Y-93014216D01*
X134272147Y-92866646D01*
X134397646Y-92741147D01*
X134545216Y-92642544D01*
X134709188Y-92574624D01*
X134858488Y-92544927D01*
X134883258Y-92540000D01*
X135060742Y-92540000D01*
X135085512Y-92544927D01*
G37*
G36*
X176488512Y-90893927D02*
G01*
X176637812Y-90923624D01*
X176801784Y-90991544D01*
X176949354Y-91090147D01*
X177074853Y-91215646D01*
X177173456Y-91363216D01*
X177241376Y-91527188D01*
X177276000Y-91701259D01*
X177276000Y-91878741D01*
X177241376Y-92052812D01*
X177173456Y-92216784D01*
X177074853Y-92364354D01*
X176949354Y-92489853D01*
X176801784Y-92588456D01*
X176637812Y-92656376D01*
X176488512Y-92686073D01*
X176463742Y-92691000D01*
X176286258Y-92691000D01*
X176261488Y-92686073D01*
X176112188Y-92656376D01*
X175948216Y-92588456D01*
X175800646Y-92489853D01*
X175675147Y-92364354D01*
X175576544Y-92216784D01*
X175508624Y-92052812D01*
X175474000Y-91878741D01*
X175474000Y-91701259D01*
X175508624Y-91527188D01*
X175576544Y-91363216D01*
X175675147Y-91215646D01*
X175800646Y-91090147D01*
X175948216Y-90991544D01*
X176112188Y-90923624D01*
X176261488Y-90893927D01*
X176286258Y-90889000D01*
X176463742Y-90889000D01*
X176488512Y-90893927D01*
G37*
G36*
X173948512Y-90893927D02*
G01*
X174097812Y-90923624D01*
X174261784Y-90991544D01*
X174409354Y-91090147D01*
X174534853Y-91215646D01*
X174633456Y-91363216D01*
X174701376Y-91527188D01*
X174736000Y-91701259D01*
X174736000Y-91878741D01*
X174701376Y-92052812D01*
X174633456Y-92216784D01*
X174534853Y-92364354D01*
X174409354Y-92489853D01*
X174261784Y-92588456D01*
X174097812Y-92656376D01*
X173948512Y-92686073D01*
X173923742Y-92691000D01*
X173746258Y-92691000D01*
X173721488Y-92686073D01*
X173572188Y-92656376D01*
X173408216Y-92588456D01*
X173260646Y-92489853D01*
X173135147Y-92364354D01*
X173036544Y-92216784D01*
X172968624Y-92052812D01*
X172934000Y-91878741D01*
X172934000Y-91701259D01*
X172968624Y-91527188D01*
X173036544Y-91363216D01*
X173135147Y-91215646D01*
X173260646Y-91090147D01*
X173408216Y-90991544D01*
X173572188Y-90923624D01*
X173721488Y-90893927D01*
X173746258Y-90889000D01*
X173923742Y-90889000D01*
X173948512Y-90893927D01*
G37*
G36*
X176488512Y-88353927D02*
G01*
X176637812Y-88383624D01*
X176801784Y-88451544D01*
X176949354Y-88550147D01*
X177074853Y-88675646D01*
X177173456Y-88823216D01*
X177241376Y-88987188D01*
X177276000Y-89161259D01*
X177276000Y-89338741D01*
X177241376Y-89512812D01*
X177173456Y-89676784D01*
X177074853Y-89824354D01*
X176949354Y-89949853D01*
X176801784Y-90048456D01*
X176637812Y-90116376D01*
X176488512Y-90146073D01*
X176463742Y-90151000D01*
X176286258Y-90151000D01*
X176261488Y-90146073D01*
X176112188Y-90116376D01*
X175948216Y-90048456D01*
X175800646Y-89949853D01*
X175675147Y-89824354D01*
X175576544Y-89676784D01*
X175508624Y-89512812D01*
X175474000Y-89338741D01*
X175474000Y-89161259D01*
X175508624Y-88987188D01*
X175576544Y-88823216D01*
X175675147Y-88675646D01*
X175800646Y-88550147D01*
X175948216Y-88451544D01*
X176112188Y-88383624D01*
X176261488Y-88353927D01*
X176286258Y-88349000D01*
X176463742Y-88349000D01*
X176488512Y-88353927D01*
G37*
G36*
X173948512Y-88353927D02*
G01*
X174097812Y-88383624D01*
X174261784Y-88451544D01*
X174409354Y-88550147D01*
X174534853Y-88675646D01*
X174633456Y-88823216D01*
X174701376Y-88987188D01*
X174736000Y-89161259D01*
X174736000Y-89338741D01*
X174701376Y-89512812D01*
X174633456Y-89676784D01*
X174534853Y-89824354D01*
X174409354Y-89949853D01*
X174261784Y-90048456D01*
X174097812Y-90116376D01*
X173948512Y-90146073D01*
X173923742Y-90151000D01*
X173746258Y-90151000D01*
X173721488Y-90146073D01*
X173572188Y-90116376D01*
X173408216Y-90048456D01*
X173260646Y-89949853D01*
X173135147Y-89824354D01*
X173036544Y-89676784D01*
X172968624Y-89512812D01*
X172934000Y-89338741D01*
X172934000Y-89161259D01*
X172968624Y-88987188D01*
X173036544Y-88823216D01*
X173135147Y-88675646D01*
X173260646Y-88550147D01*
X173408216Y-88451544D01*
X173572188Y-88383624D01*
X173721488Y-88353927D01*
X173746258Y-88349000D01*
X173923742Y-88349000D01*
X173948512Y-88353927D01*
G37*
G36*
X173948512Y-85813927D02*
G01*
X174097812Y-85843624D01*
X174261784Y-85911544D01*
X174409354Y-86010147D01*
X174534853Y-86135646D01*
X174633456Y-86283216D01*
X174701376Y-86447188D01*
X174736000Y-86621259D01*
X174736000Y-86798741D01*
X174701376Y-86972812D01*
X174633456Y-87136784D01*
X174534853Y-87284354D01*
X174409354Y-87409853D01*
X174261784Y-87508456D01*
X174097812Y-87576376D01*
X173948512Y-87606073D01*
X173923742Y-87611000D01*
X173746258Y-87611000D01*
X173721488Y-87606073D01*
X173572188Y-87576376D01*
X173408216Y-87508456D01*
X173260646Y-87409853D01*
X173135147Y-87284354D01*
X173036544Y-87136784D01*
X172968624Y-86972812D01*
X172934000Y-86798741D01*
X172934000Y-86621259D01*
X172968624Y-86447188D01*
X173036544Y-86283216D01*
X173135147Y-86135646D01*
X173260646Y-86010147D01*
X173408216Y-85911544D01*
X173572188Y-85843624D01*
X173721488Y-85813927D01*
X173746258Y-85809000D01*
X173923742Y-85809000D01*
X173948512Y-85813927D01*
G37*
G36*
X176488512Y-85813927D02*
G01*
X176637812Y-85843624D01*
X176801784Y-85911544D01*
X176949354Y-86010147D01*
X177074853Y-86135646D01*
X177173456Y-86283216D01*
X177241376Y-86447188D01*
X177276000Y-86621259D01*
X177276000Y-86798741D01*
X177241376Y-86972812D01*
X177173456Y-87136784D01*
X177074853Y-87284354D01*
X176949354Y-87409853D01*
X176801784Y-87508456D01*
X176637812Y-87576376D01*
X176488512Y-87606073D01*
X176463742Y-87611000D01*
X176286258Y-87611000D01*
X176261488Y-87606073D01*
X176112188Y-87576376D01*
X175948216Y-87508456D01*
X175800646Y-87409853D01*
X175675147Y-87284354D01*
X175576544Y-87136784D01*
X175508624Y-86972812D01*
X175474000Y-86798741D01*
X175474000Y-86621259D01*
X175508624Y-86447188D01*
X175576544Y-86283216D01*
X175675147Y-86135646D01*
X175800646Y-86010147D01*
X175948216Y-85911544D01*
X176112188Y-85843624D01*
X176261488Y-85813927D01*
X176286258Y-85809000D01*
X176463742Y-85809000D01*
X176488512Y-85813927D01*
G37*
G36*
X173948512Y-83273927D02*
G01*
X174097812Y-83303624D01*
X174261784Y-83371544D01*
X174409354Y-83470147D01*
X174534853Y-83595646D01*
X174633456Y-83743216D01*
X174701376Y-83907188D01*
X174736000Y-84081259D01*
X174736000Y-84258741D01*
X174701376Y-84432812D01*
X174633456Y-84596784D01*
X174534853Y-84744354D01*
X174409354Y-84869853D01*
X174261784Y-84968456D01*
X174097812Y-85036376D01*
X173948512Y-85066073D01*
X173923742Y-85071000D01*
X173746258Y-85071000D01*
X173721488Y-85066073D01*
X173572188Y-85036376D01*
X173408216Y-84968456D01*
X173260646Y-84869853D01*
X173135147Y-84744354D01*
X173036544Y-84596784D01*
X172968624Y-84432812D01*
X172934000Y-84258741D01*
X172934000Y-84081259D01*
X172968624Y-83907188D01*
X173036544Y-83743216D01*
X173135147Y-83595646D01*
X173260646Y-83470147D01*
X173408216Y-83371544D01*
X173572188Y-83303624D01*
X173721488Y-83273927D01*
X173746258Y-83269000D01*
X173923742Y-83269000D01*
X173948512Y-83273927D01*
G37*
G36*
X176488512Y-83273927D02*
G01*
X176637812Y-83303624D01*
X176801784Y-83371544D01*
X176949354Y-83470147D01*
X177074853Y-83595646D01*
X177173456Y-83743216D01*
X177241376Y-83907188D01*
X177276000Y-84081259D01*
X177276000Y-84258741D01*
X177241376Y-84432812D01*
X177173456Y-84596784D01*
X177074853Y-84744354D01*
X176949354Y-84869853D01*
X176801784Y-84968456D01*
X176637812Y-85036376D01*
X176488512Y-85066073D01*
X176463742Y-85071000D01*
X176286258Y-85071000D01*
X176261488Y-85066073D01*
X176112188Y-85036376D01*
X175948216Y-84968456D01*
X175800646Y-84869853D01*
X175675147Y-84744354D01*
X175576544Y-84596784D01*
X175508624Y-84432812D01*
X175474000Y-84258741D01*
X175474000Y-84081259D01*
X175508624Y-83907188D01*
X175576544Y-83743216D01*
X175675147Y-83595646D01*
X175800646Y-83470147D01*
X175948216Y-83371544D01*
X176112188Y-83303624D01*
X176261488Y-83273927D01*
X176286258Y-83269000D01*
X176463742Y-83269000D01*
X176488512Y-83273927D01*
G37*
G36*
X173948512Y-80733927D02*
G01*
X174097812Y-80763624D01*
X174261784Y-80831544D01*
X174409354Y-80930147D01*
X174534853Y-81055646D01*
X174633456Y-81203216D01*
X174701376Y-81367188D01*
X174736000Y-81541259D01*
X174736000Y-81718741D01*
X174701376Y-81892812D01*
X174633456Y-82056784D01*
X174534853Y-82204354D01*
X174409354Y-82329853D01*
X174261784Y-82428456D01*
X174097812Y-82496376D01*
X173948512Y-82526073D01*
X173923742Y-82531000D01*
X173746258Y-82531000D01*
X173721488Y-82526073D01*
X173572188Y-82496376D01*
X173408216Y-82428456D01*
X173260646Y-82329853D01*
X173135147Y-82204354D01*
X173036544Y-82056784D01*
X172968624Y-81892812D01*
X172934000Y-81718741D01*
X172934000Y-81541259D01*
X172968624Y-81367188D01*
X173036544Y-81203216D01*
X173135147Y-81055646D01*
X173260646Y-80930147D01*
X173408216Y-80831544D01*
X173572188Y-80763624D01*
X173721488Y-80733927D01*
X173746258Y-80729000D01*
X173923742Y-80729000D01*
X173948512Y-80733927D01*
G37*
G36*
X176488512Y-80733927D02*
G01*
X176637812Y-80763624D01*
X176801784Y-80831544D01*
X176949354Y-80930147D01*
X177074853Y-81055646D01*
X177173456Y-81203216D01*
X177241376Y-81367188D01*
X177276000Y-81541259D01*
X177276000Y-81718741D01*
X177241376Y-81892812D01*
X177173456Y-82056784D01*
X177074853Y-82204354D01*
X176949354Y-82329853D01*
X176801784Y-82428456D01*
X176637812Y-82496376D01*
X176488512Y-82526073D01*
X176463742Y-82531000D01*
X176286258Y-82531000D01*
X176261488Y-82526073D01*
X176112188Y-82496376D01*
X175948216Y-82428456D01*
X175800646Y-82329853D01*
X175675147Y-82204354D01*
X175576544Y-82056784D01*
X175508624Y-81892812D01*
X175474000Y-81718741D01*
X175474000Y-81541259D01*
X175508624Y-81367188D01*
X175576544Y-81203216D01*
X175675147Y-81055646D01*
X175800646Y-80930147D01*
X175948216Y-80831544D01*
X176112188Y-80763624D01*
X176261488Y-80733927D01*
X176286258Y-80729000D01*
X176463742Y-80729000D01*
X176488512Y-80733927D01*
G37*
G36*
X173948512Y-78193927D02*
G01*
X174097812Y-78223624D01*
X174261784Y-78291544D01*
X174409354Y-78390147D01*
X174534853Y-78515646D01*
X174633456Y-78663216D01*
X174701376Y-78827188D01*
X174736000Y-79001259D01*
X174736000Y-79178741D01*
X174701376Y-79352812D01*
X174633456Y-79516784D01*
X174534853Y-79664354D01*
X174409354Y-79789853D01*
X174261784Y-79888456D01*
X174097812Y-79956376D01*
X173948512Y-79986073D01*
X173923742Y-79991000D01*
X173746258Y-79991000D01*
X173721488Y-79986073D01*
X173572188Y-79956376D01*
X173408216Y-79888456D01*
X173260646Y-79789853D01*
X173135147Y-79664354D01*
X173036544Y-79516784D01*
X172968624Y-79352812D01*
X172934000Y-79178741D01*
X172934000Y-79001259D01*
X172968624Y-78827188D01*
X173036544Y-78663216D01*
X173135147Y-78515646D01*
X173260646Y-78390147D01*
X173408216Y-78291544D01*
X173572188Y-78223624D01*
X173721488Y-78193927D01*
X173746258Y-78189000D01*
X173923742Y-78189000D01*
X173948512Y-78193927D01*
G37*
G36*
X176488512Y-78193927D02*
G01*
X176637812Y-78223624D01*
X176801784Y-78291544D01*
X176949354Y-78390147D01*
X177074853Y-78515646D01*
X177173456Y-78663216D01*
X177241376Y-78827188D01*
X177276000Y-79001259D01*
X177276000Y-79178741D01*
X177241376Y-79352812D01*
X177173456Y-79516784D01*
X177074853Y-79664354D01*
X176949354Y-79789853D01*
X176801784Y-79888456D01*
X176637812Y-79956376D01*
X176488512Y-79986073D01*
X176463742Y-79991000D01*
X176286258Y-79991000D01*
X176261488Y-79986073D01*
X176112188Y-79956376D01*
X175948216Y-79888456D01*
X175800646Y-79789853D01*
X175675147Y-79664354D01*
X175576544Y-79516784D01*
X175508624Y-79352812D01*
X175474000Y-79178741D01*
X175474000Y-79001259D01*
X175508624Y-78827188D01*
X175576544Y-78663216D01*
X175675147Y-78515646D01*
X175800646Y-78390147D01*
X175948216Y-78291544D01*
X176112188Y-78223624D01*
X176261488Y-78193927D01*
X176286258Y-78189000D01*
X176463742Y-78189000D01*
X176488512Y-78193927D01*
G37*
G36*
X173948512Y-75653927D02*
G01*
X174097812Y-75683624D01*
X174261784Y-75751544D01*
X174409354Y-75850147D01*
X174534853Y-75975646D01*
X174633456Y-76123216D01*
X174701376Y-76287188D01*
X174736000Y-76461259D01*
X174736000Y-76638741D01*
X174701376Y-76812812D01*
X174633456Y-76976784D01*
X174534853Y-77124354D01*
X174409354Y-77249853D01*
X174261784Y-77348456D01*
X174097812Y-77416376D01*
X173948512Y-77446073D01*
X173923742Y-77451000D01*
X173746258Y-77451000D01*
X173721488Y-77446073D01*
X173572188Y-77416376D01*
X173408216Y-77348456D01*
X173260646Y-77249853D01*
X173135147Y-77124354D01*
X173036544Y-76976784D01*
X172968624Y-76812812D01*
X172934000Y-76638741D01*
X172934000Y-76461259D01*
X172968624Y-76287188D01*
X173036544Y-76123216D01*
X173135147Y-75975646D01*
X173260646Y-75850147D01*
X173408216Y-75751544D01*
X173572188Y-75683624D01*
X173721488Y-75653927D01*
X173746258Y-75649000D01*
X173923742Y-75649000D01*
X173948512Y-75653927D01*
G37*
G36*
X176488512Y-75653927D02*
G01*
X176637812Y-75683624D01*
X176801784Y-75751544D01*
X176949354Y-75850147D01*
X177074853Y-75975646D01*
X177173456Y-76123216D01*
X177241376Y-76287188D01*
X177276000Y-76461259D01*
X177276000Y-76638741D01*
X177241376Y-76812812D01*
X177173456Y-76976784D01*
X177074853Y-77124354D01*
X176949354Y-77249853D01*
X176801784Y-77348456D01*
X176637812Y-77416376D01*
X176488512Y-77446073D01*
X176463742Y-77451000D01*
X176286258Y-77451000D01*
X176261488Y-77446073D01*
X176112188Y-77416376D01*
X175948216Y-77348456D01*
X175800646Y-77249853D01*
X175675147Y-77124354D01*
X175576544Y-76976784D01*
X175508624Y-76812812D01*
X175474000Y-76638741D01*
X175474000Y-76461259D01*
X175508624Y-76287188D01*
X175576544Y-76123216D01*
X175675147Y-75975646D01*
X175800646Y-75850147D01*
X175948216Y-75751544D01*
X176112188Y-75683624D01*
X176261488Y-75653927D01*
X176286258Y-75649000D01*
X176463742Y-75649000D01*
X176488512Y-75653927D01*
G37*
G36*
X176488512Y-73113927D02*
G01*
X176637812Y-73143624D01*
X176801784Y-73211544D01*
X176949354Y-73310147D01*
X177074853Y-73435646D01*
X177173456Y-73583216D01*
X177241376Y-73747188D01*
X177276000Y-73921259D01*
X177276000Y-74098741D01*
X177241376Y-74272812D01*
X177173456Y-74436784D01*
X177074853Y-74584354D01*
X176949354Y-74709853D01*
X176801784Y-74808456D01*
X176637812Y-74876376D01*
X176488512Y-74906073D01*
X176463742Y-74911000D01*
X176286258Y-74911000D01*
X176261488Y-74906073D01*
X176112188Y-74876376D01*
X175948216Y-74808456D01*
X175800646Y-74709853D01*
X175675147Y-74584354D01*
X175576544Y-74436784D01*
X175508624Y-74272812D01*
X175474000Y-74098741D01*
X175474000Y-73921259D01*
X175508624Y-73747188D01*
X175576544Y-73583216D01*
X175675147Y-73435646D01*
X175800646Y-73310147D01*
X175948216Y-73211544D01*
X176112188Y-73143624D01*
X176261488Y-73113927D01*
X176286258Y-73109000D01*
X176463742Y-73109000D01*
X176488512Y-73113927D01*
G37*
G36*
X173948512Y-73113927D02*
G01*
X174097812Y-73143624D01*
X174261784Y-73211544D01*
X174409354Y-73310147D01*
X174534853Y-73435646D01*
X174633456Y-73583216D01*
X174701376Y-73747188D01*
X174736000Y-73921259D01*
X174736000Y-74098741D01*
X174701376Y-74272812D01*
X174633456Y-74436784D01*
X174534853Y-74584354D01*
X174409354Y-74709853D01*
X174261784Y-74808456D01*
X174097812Y-74876376D01*
X173948512Y-74906073D01*
X173923742Y-74911000D01*
X173746258Y-74911000D01*
X173721488Y-74906073D01*
X173572188Y-74876376D01*
X173408216Y-74808456D01*
X173260646Y-74709853D01*
X173135147Y-74584354D01*
X173036544Y-74436784D01*
X172968624Y-74272812D01*
X172934000Y-74098741D01*
X172934000Y-73921259D01*
X172968624Y-73747188D01*
X173036544Y-73583216D01*
X173135147Y-73435646D01*
X173260646Y-73310147D01*
X173408216Y-73211544D01*
X173572188Y-73143624D01*
X173721488Y-73113927D01*
X173746258Y-73109000D01*
X173923742Y-73109000D01*
X173948512Y-73113927D01*
G37*
G36*
X176488512Y-70573927D02*
G01*
X176637812Y-70603624D01*
X176801784Y-70671544D01*
X176949354Y-70770147D01*
X177074853Y-70895646D01*
X177173456Y-71043216D01*
X177241376Y-71207188D01*
X177276000Y-71381259D01*
X177276000Y-71558741D01*
X177241376Y-71732812D01*
X177173456Y-71896784D01*
X177074853Y-72044354D01*
X176949354Y-72169853D01*
X176801784Y-72268456D01*
X176637812Y-72336376D01*
X176488512Y-72366073D01*
X176463742Y-72371000D01*
X176286258Y-72371000D01*
X176261488Y-72366073D01*
X176112188Y-72336376D01*
X175948216Y-72268456D01*
X175800646Y-72169853D01*
X175675147Y-72044354D01*
X175576544Y-71896784D01*
X175508624Y-71732812D01*
X175474000Y-71558741D01*
X175474000Y-71381259D01*
X175508624Y-71207188D01*
X175576544Y-71043216D01*
X175675147Y-70895646D01*
X175800646Y-70770147D01*
X175948216Y-70671544D01*
X176112188Y-70603624D01*
X176261488Y-70573927D01*
X176286258Y-70569000D01*
X176463742Y-70569000D01*
X176488512Y-70573927D01*
G37*
G36*
X173948512Y-70573927D02*
G01*
X174097812Y-70603624D01*
X174261784Y-70671544D01*
X174409354Y-70770147D01*
X174534853Y-70895646D01*
X174633456Y-71043216D01*
X174701376Y-71207188D01*
X174736000Y-71381259D01*
X174736000Y-71558741D01*
X174701376Y-71732812D01*
X174633456Y-71896784D01*
X174534853Y-72044354D01*
X174409354Y-72169853D01*
X174261784Y-72268456D01*
X174097812Y-72336376D01*
X173948512Y-72366073D01*
X173923742Y-72371000D01*
X173746258Y-72371000D01*
X173721488Y-72366073D01*
X173572188Y-72336376D01*
X173408216Y-72268456D01*
X173260646Y-72169853D01*
X173135147Y-72044354D01*
X173036544Y-71896784D01*
X172968624Y-71732812D01*
X172934000Y-71558741D01*
X172934000Y-71381259D01*
X172968624Y-71207188D01*
X173036544Y-71043216D01*
X173135147Y-70895646D01*
X173260646Y-70770147D01*
X173408216Y-70671544D01*
X173572188Y-70603624D01*
X173721488Y-70573927D01*
X173746258Y-70569000D01*
X173923742Y-70569000D01*
X173948512Y-70573927D01*
G37*
G36*
X173948512Y-68033927D02*
G01*
X174097812Y-68063624D01*
X174261784Y-68131544D01*
X174409354Y-68230147D01*
X174534853Y-68355646D01*
X174633456Y-68503216D01*
X174701376Y-68667188D01*
X174736000Y-68841259D01*
X174736000Y-69018741D01*
X174701376Y-69192812D01*
X174633456Y-69356784D01*
X174534853Y-69504354D01*
X174409354Y-69629853D01*
X174261784Y-69728456D01*
X174097812Y-69796376D01*
X173948512Y-69826073D01*
X173923742Y-69831000D01*
X173746258Y-69831000D01*
X173721488Y-69826073D01*
X173572188Y-69796376D01*
X173408216Y-69728456D01*
X173260646Y-69629853D01*
X173135147Y-69504354D01*
X173036544Y-69356784D01*
X172968624Y-69192812D01*
X172934000Y-69018741D01*
X172934000Y-68841259D01*
X172968624Y-68667188D01*
X173036544Y-68503216D01*
X173135147Y-68355646D01*
X173260646Y-68230147D01*
X173408216Y-68131544D01*
X173572188Y-68063624D01*
X173721488Y-68033927D01*
X173746258Y-68029000D01*
X173923742Y-68029000D01*
X173948512Y-68033927D01*
G37*
G36*
X176488512Y-68033927D02*
G01*
X176637812Y-68063624D01*
X176801784Y-68131544D01*
X176949354Y-68230147D01*
X177074853Y-68355646D01*
X177173456Y-68503216D01*
X177241376Y-68667188D01*
X177276000Y-68841259D01*
X177276000Y-69018741D01*
X177241376Y-69192812D01*
X177173456Y-69356784D01*
X177074853Y-69504354D01*
X176949354Y-69629853D01*
X176801784Y-69728456D01*
X176637812Y-69796376D01*
X176488512Y-69826073D01*
X176463742Y-69831000D01*
X176286258Y-69831000D01*
X176261488Y-69826073D01*
X176112188Y-69796376D01*
X175948216Y-69728456D01*
X175800646Y-69629853D01*
X175675147Y-69504354D01*
X175576544Y-69356784D01*
X175508624Y-69192812D01*
X175474000Y-69018741D01*
X175474000Y-68841259D01*
X175508624Y-68667188D01*
X175576544Y-68503216D01*
X175675147Y-68355646D01*
X175800646Y-68230147D01*
X175948216Y-68131544D01*
X176112188Y-68063624D01*
X176261488Y-68033927D01*
X176286258Y-68029000D01*
X176463742Y-68029000D01*
X176488512Y-68033927D01*
G37*
G36*
X176488512Y-65493927D02*
G01*
X176637812Y-65523624D01*
X176801784Y-65591544D01*
X176949354Y-65690147D01*
X177074853Y-65815646D01*
X177173456Y-65963216D01*
X177241376Y-66127188D01*
X177276000Y-66301259D01*
X177276000Y-66478741D01*
X177241376Y-66652812D01*
X177173456Y-66816784D01*
X177074853Y-66964354D01*
X176949354Y-67089853D01*
X176801784Y-67188456D01*
X176637812Y-67256376D01*
X176488512Y-67286073D01*
X176463742Y-67291000D01*
X176286258Y-67291000D01*
X176261488Y-67286073D01*
X176112188Y-67256376D01*
X175948216Y-67188456D01*
X175800646Y-67089853D01*
X175675147Y-66964354D01*
X175576544Y-66816784D01*
X175508624Y-66652812D01*
X175474000Y-66478741D01*
X175474000Y-66301259D01*
X175508624Y-66127188D01*
X175576544Y-65963216D01*
X175675147Y-65815646D01*
X175800646Y-65690147D01*
X175948216Y-65591544D01*
X176112188Y-65523624D01*
X176261488Y-65493927D01*
X176286258Y-65489000D01*
X176463742Y-65489000D01*
X176488512Y-65493927D01*
G37*
G36*
X173948512Y-65493927D02*
G01*
X174097812Y-65523624D01*
X174261784Y-65591544D01*
X174409354Y-65690147D01*
X174534853Y-65815646D01*
X174633456Y-65963216D01*
X174701376Y-66127188D01*
X174736000Y-66301259D01*
X174736000Y-66478741D01*
X174701376Y-66652812D01*
X174633456Y-66816784D01*
X174534853Y-66964354D01*
X174409354Y-67089853D01*
X174261784Y-67188456D01*
X174097812Y-67256376D01*
X173948512Y-67286073D01*
X173923742Y-67291000D01*
X173746258Y-67291000D01*
X173721488Y-67286073D01*
X173572188Y-67256376D01*
X173408216Y-67188456D01*
X173260646Y-67089853D01*
X173135147Y-66964354D01*
X173036544Y-66816784D01*
X172968624Y-66652812D01*
X172934000Y-66478741D01*
X172934000Y-66301259D01*
X172968624Y-66127188D01*
X173036544Y-65963216D01*
X173135147Y-65815646D01*
X173260646Y-65690147D01*
X173408216Y-65591544D01*
X173572188Y-65523624D01*
X173721488Y-65493927D01*
X173746258Y-65489000D01*
X173923742Y-65489000D01*
X173948512Y-65493927D01*
G37*
G36*
X176488512Y-62953927D02*
G01*
X176637812Y-62983624D01*
X176801784Y-63051544D01*
X176949354Y-63150147D01*
X177074853Y-63275646D01*
X177173456Y-63423216D01*
X177241376Y-63587188D01*
X177276000Y-63761259D01*
X177276000Y-63938741D01*
X177241376Y-64112812D01*
X177173456Y-64276784D01*
X177074853Y-64424354D01*
X176949354Y-64549853D01*
X176801784Y-64648456D01*
X176637812Y-64716376D01*
X176488512Y-64746073D01*
X176463742Y-64751000D01*
X176286258Y-64751000D01*
X176261488Y-64746073D01*
X176112188Y-64716376D01*
X175948216Y-64648456D01*
X175800646Y-64549853D01*
X175675147Y-64424354D01*
X175576544Y-64276784D01*
X175508624Y-64112812D01*
X175474000Y-63938741D01*
X175474000Y-63761259D01*
X175508624Y-63587188D01*
X175576544Y-63423216D01*
X175675147Y-63275646D01*
X175800646Y-63150147D01*
X175948216Y-63051544D01*
X176112188Y-62983624D01*
X176261488Y-62953927D01*
X176286258Y-62949000D01*
X176463742Y-62949000D01*
X176488512Y-62953927D01*
G37*
G36*
X173948512Y-62953927D02*
G01*
X174097812Y-62983624D01*
X174261784Y-63051544D01*
X174409354Y-63150147D01*
X174534853Y-63275646D01*
X174633456Y-63423216D01*
X174701376Y-63587188D01*
X174736000Y-63761259D01*
X174736000Y-63938741D01*
X174701376Y-64112812D01*
X174633456Y-64276784D01*
X174534853Y-64424354D01*
X174409354Y-64549853D01*
X174261784Y-64648456D01*
X174097812Y-64716376D01*
X173948512Y-64746073D01*
X173923742Y-64751000D01*
X173746258Y-64751000D01*
X173721488Y-64746073D01*
X173572188Y-64716376D01*
X173408216Y-64648456D01*
X173260646Y-64549853D01*
X173135147Y-64424354D01*
X173036544Y-64276784D01*
X172968624Y-64112812D01*
X172934000Y-63938741D01*
X172934000Y-63761259D01*
X172968624Y-63587188D01*
X173036544Y-63423216D01*
X173135147Y-63275646D01*
X173260646Y-63150147D01*
X173408216Y-63051544D01*
X173572188Y-62983624D01*
X173721488Y-62953927D01*
X173746258Y-62949000D01*
X173923742Y-62949000D01*
X173948512Y-62953927D01*
G37*
G36*
X173948512Y-60413927D02*
G01*
X174097812Y-60443624D01*
X174261784Y-60511544D01*
X174409354Y-60610147D01*
X174534853Y-60735646D01*
X174633456Y-60883216D01*
X174701376Y-61047188D01*
X174736000Y-61221259D01*
X174736000Y-61398741D01*
X174701376Y-61572812D01*
X174633456Y-61736784D01*
X174534853Y-61884354D01*
X174409354Y-62009853D01*
X174261784Y-62108456D01*
X174097812Y-62176376D01*
X173948512Y-62206073D01*
X173923742Y-62211000D01*
X173746258Y-62211000D01*
X173721488Y-62206073D01*
X173572188Y-62176376D01*
X173408216Y-62108456D01*
X173260646Y-62009853D01*
X173135147Y-61884354D01*
X173036544Y-61736784D01*
X172968624Y-61572812D01*
X172934000Y-61398741D01*
X172934000Y-61221259D01*
X172968624Y-61047188D01*
X173036544Y-60883216D01*
X173135147Y-60735646D01*
X173260646Y-60610147D01*
X173408216Y-60511544D01*
X173572188Y-60443624D01*
X173721488Y-60413927D01*
X173746258Y-60409000D01*
X173923742Y-60409000D01*
X173948512Y-60413927D01*
G37*
G36*
X176488512Y-60413927D02*
G01*
X176637812Y-60443624D01*
X176801784Y-60511544D01*
X176949354Y-60610147D01*
X177074853Y-60735646D01*
X177173456Y-60883216D01*
X177241376Y-61047188D01*
X177276000Y-61221259D01*
X177276000Y-61398741D01*
X177241376Y-61572812D01*
X177173456Y-61736784D01*
X177074853Y-61884354D01*
X176949354Y-62009853D01*
X176801784Y-62108456D01*
X176637812Y-62176376D01*
X176488512Y-62206073D01*
X176463742Y-62211000D01*
X176286258Y-62211000D01*
X176261488Y-62206073D01*
X176112188Y-62176376D01*
X175948216Y-62108456D01*
X175800646Y-62009853D01*
X175675147Y-61884354D01*
X175576544Y-61736784D01*
X175508624Y-61572812D01*
X175474000Y-61398741D01*
X175474000Y-61221259D01*
X175508624Y-61047188D01*
X175576544Y-60883216D01*
X175675147Y-60735646D01*
X175800646Y-60610147D01*
X175948216Y-60511544D01*
X176112188Y-60443624D01*
X176261488Y-60413927D01*
X176286258Y-60409000D01*
X176463742Y-60409000D01*
X176488512Y-60413927D01*
G37*
G36*
X176488512Y-57873927D02*
G01*
X176637812Y-57903624D01*
X176801784Y-57971544D01*
X176949354Y-58070147D01*
X177074853Y-58195646D01*
X177173456Y-58343216D01*
X177241376Y-58507188D01*
X177276000Y-58681259D01*
X177276000Y-58858741D01*
X177241376Y-59032812D01*
X177173456Y-59196784D01*
X177074853Y-59344354D01*
X176949354Y-59469853D01*
X176801784Y-59568456D01*
X176637812Y-59636376D01*
X176488512Y-59666073D01*
X176463742Y-59671000D01*
X176286258Y-59671000D01*
X176261488Y-59666073D01*
X176112188Y-59636376D01*
X175948216Y-59568456D01*
X175800646Y-59469853D01*
X175675147Y-59344354D01*
X175576544Y-59196784D01*
X175508624Y-59032812D01*
X175474000Y-58858741D01*
X175474000Y-58681259D01*
X175508624Y-58507188D01*
X175576544Y-58343216D01*
X175675147Y-58195646D01*
X175800646Y-58070147D01*
X175948216Y-57971544D01*
X176112188Y-57903624D01*
X176261488Y-57873927D01*
X176286258Y-57869000D01*
X176463742Y-57869000D01*
X176488512Y-57873927D01*
G37*
G36*
X173948512Y-57873927D02*
G01*
X174097812Y-57903624D01*
X174261784Y-57971544D01*
X174409354Y-58070147D01*
X174534853Y-58195646D01*
X174633456Y-58343216D01*
X174701376Y-58507188D01*
X174736000Y-58681259D01*
X174736000Y-58858741D01*
X174701376Y-59032812D01*
X174633456Y-59196784D01*
X174534853Y-59344354D01*
X174409354Y-59469853D01*
X174261784Y-59568456D01*
X174097812Y-59636376D01*
X173948512Y-59666073D01*
X173923742Y-59671000D01*
X173746258Y-59671000D01*
X173721488Y-59666073D01*
X173572188Y-59636376D01*
X173408216Y-59568456D01*
X173260646Y-59469853D01*
X173135147Y-59344354D01*
X173036544Y-59196784D01*
X172968624Y-59032812D01*
X172934000Y-58858741D01*
X172934000Y-58681259D01*
X172968624Y-58507188D01*
X173036544Y-58343216D01*
X173135147Y-58195646D01*
X173260646Y-58070147D01*
X173408216Y-57971544D01*
X173572188Y-57903624D01*
X173721488Y-57873927D01*
X173746258Y-57869000D01*
X173923742Y-57869000D01*
X173948512Y-57873927D01*
G37*
G36*
X176488512Y-55333927D02*
G01*
X176637812Y-55363624D01*
X176801784Y-55431544D01*
X176949354Y-55530147D01*
X177074853Y-55655646D01*
X177173456Y-55803216D01*
X177241376Y-55967188D01*
X177276000Y-56141259D01*
X177276000Y-56318741D01*
X177241376Y-56492812D01*
X177173456Y-56656784D01*
X177074853Y-56804354D01*
X176949354Y-56929853D01*
X176801784Y-57028456D01*
X176637812Y-57096376D01*
X176488512Y-57126073D01*
X176463742Y-57131000D01*
X176286258Y-57131000D01*
X176261488Y-57126073D01*
X176112188Y-57096376D01*
X175948216Y-57028456D01*
X175800646Y-56929853D01*
X175675147Y-56804354D01*
X175576544Y-56656784D01*
X175508624Y-56492812D01*
X175474000Y-56318741D01*
X175474000Y-56141259D01*
X175508624Y-55967188D01*
X175576544Y-55803216D01*
X175675147Y-55655646D01*
X175800646Y-55530147D01*
X175948216Y-55431544D01*
X176112188Y-55363624D01*
X176261488Y-55333927D01*
X176286258Y-55329000D01*
X176463742Y-55329000D01*
X176488512Y-55333927D01*
G37*
G36*
X173948512Y-55333927D02*
G01*
X174097812Y-55363624D01*
X174261784Y-55431544D01*
X174409354Y-55530147D01*
X174534853Y-55655646D01*
X174633456Y-55803216D01*
X174701376Y-55967188D01*
X174736000Y-56141259D01*
X174736000Y-56318741D01*
X174701376Y-56492812D01*
X174633456Y-56656784D01*
X174534853Y-56804354D01*
X174409354Y-56929853D01*
X174261784Y-57028456D01*
X174097812Y-57096376D01*
X173948512Y-57126073D01*
X173923742Y-57131000D01*
X173746258Y-57131000D01*
X173721488Y-57126073D01*
X173572188Y-57096376D01*
X173408216Y-57028456D01*
X173260646Y-56929853D01*
X173135147Y-56804354D01*
X173036544Y-56656784D01*
X172968624Y-56492812D01*
X172934000Y-56318741D01*
X172934000Y-56141259D01*
X172968624Y-55967188D01*
X173036544Y-55803216D01*
X173135147Y-55655646D01*
X173260646Y-55530147D01*
X173408216Y-55431544D01*
X173572188Y-55363624D01*
X173721488Y-55333927D01*
X173746258Y-55329000D01*
X173923742Y-55329000D01*
X173948512Y-55333927D01*
G37*
G36*
X176488512Y-52793927D02*
G01*
X176637812Y-52823624D01*
X176801784Y-52891544D01*
X176949354Y-52990147D01*
X177074853Y-53115646D01*
X177173456Y-53263216D01*
X177241376Y-53427188D01*
X177276000Y-53601259D01*
X177276000Y-53778741D01*
X177241376Y-53952812D01*
X177173456Y-54116784D01*
X177074853Y-54264354D01*
X176949354Y-54389853D01*
X176801784Y-54488456D01*
X176637812Y-54556376D01*
X176488512Y-54586073D01*
X176463742Y-54591000D01*
X176286258Y-54591000D01*
X176261488Y-54586073D01*
X176112188Y-54556376D01*
X175948216Y-54488456D01*
X175800646Y-54389853D01*
X175675147Y-54264354D01*
X175576544Y-54116784D01*
X175508624Y-53952812D01*
X175474000Y-53778741D01*
X175474000Y-53601259D01*
X175508624Y-53427188D01*
X175576544Y-53263216D01*
X175675147Y-53115646D01*
X175800646Y-52990147D01*
X175948216Y-52891544D01*
X176112188Y-52823624D01*
X176261488Y-52793927D01*
X176286258Y-52789000D01*
X176463742Y-52789000D01*
X176488512Y-52793927D01*
G37*
G36*
X173948512Y-52793927D02*
G01*
X174097812Y-52823624D01*
X174261784Y-52891544D01*
X174409354Y-52990147D01*
X174534853Y-53115646D01*
X174633456Y-53263216D01*
X174701376Y-53427188D01*
X174736000Y-53601259D01*
X174736000Y-53778741D01*
X174701376Y-53952812D01*
X174633456Y-54116784D01*
X174534853Y-54264354D01*
X174409354Y-54389853D01*
X174261784Y-54488456D01*
X174097812Y-54556376D01*
X173948512Y-54586073D01*
X173923742Y-54591000D01*
X173746258Y-54591000D01*
X173721488Y-54586073D01*
X173572188Y-54556376D01*
X173408216Y-54488456D01*
X173260646Y-54389853D01*
X173135147Y-54264354D01*
X173036544Y-54116784D01*
X172968624Y-53952812D01*
X172934000Y-53778741D01*
X172934000Y-53601259D01*
X172968624Y-53427188D01*
X173036544Y-53263216D01*
X173135147Y-53115646D01*
X173260646Y-52990147D01*
X173408216Y-52891544D01*
X173572188Y-52823624D01*
X173721488Y-52793927D01*
X173746258Y-52789000D01*
X173923742Y-52789000D01*
X173948512Y-52793927D01*
G37*
G36*
X174593600Y-50252989D02*
G01*
X174626652Y-50263015D01*
X174657103Y-50279292D01*
X174683799Y-50301201D01*
X174705708Y-50327897D01*
X174721985Y-50358348D01*
X174732011Y-50391400D01*
X174736000Y-50431903D01*
X174736000Y-51868097D01*
X174732011Y-51908600D01*
X174721985Y-51941652D01*
X174705708Y-51972103D01*
X174683799Y-51998799D01*
X174657103Y-52020708D01*
X174626652Y-52036985D01*
X174593600Y-52047011D01*
X174553097Y-52051000D01*
X173116903Y-52051000D01*
X173076400Y-52047011D01*
X173043348Y-52036985D01*
X173012897Y-52020708D01*
X172986201Y-51998799D01*
X172964292Y-51972103D01*
X172948015Y-51941652D01*
X172937989Y-51908600D01*
X172934000Y-51868097D01*
X172934000Y-50431903D01*
X172937989Y-50391400D01*
X172948015Y-50358348D01*
X172964292Y-50327897D01*
X172986201Y-50301201D01*
X173012897Y-50279292D01*
X173043348Y-50263015D01*
X173076400Y-50252989D01*
X173116903Y-50249000D01*
X174553097Y-50249000D01*
X174593600Y-50252989D01*
G37*
G36*
X176483796Y-50252989D02*
G01*
X176637812Y-50283624D01*
X176801784Y-50351544D01*
X176949354Y-50450147D01*
X177074853Y-50575646D01*
X177173456Y-50723216D01*
X177241376Y-50887188D01*
X177276000Y-51061259D01*
X177276000Y-51238741D01*
X177241376Y-51412812D01*
X177173456Y-51576784D01*
X177074853Y-51724354D01*
X176949354Y-51849853D01*
X176801784Y-51948456D01*
X176637812Y-52016376D01*
X176489341Y-52045908D01*
X176463742Y-52051000D01*
X176286258Y-52051000D01*
X176260659Y-52045908D01*
X176112188Y-52016376D01*
X175948216Y-51948456D01*
X175800646Y-51849853D01*
X175675147Y-51724354D01*
X175576544Y-51576784D01*
X175508624Y-51412812D01*
X175474000Y-51238741D01*
X175474000Y-51061259D01*
X175508624Y-50887188D01*
X175576544Y-50723216D01*
X175675147Y-50575646D01*
X175800646Y-50450147D01*
X175948216Y-50351544D01*
X176112188Y-50283624D01*
X176266204Y-50252989D01*
X176286258Y-50249000D01*
X176463742Y-50249000D01*
X176483796Y-50252989D01*
G37*
M02*
