G04 #@! TF.GenerationSoftware,KiCad,Pcbnew,5.1.6-c6e7f7d~86~ubuntu18.04.1*
G04 #@! TF.CreationDate,2020-07-07T21:11:44+12:00*
G04 #@! TF.ProjectId,M1 Control Card,4d312043-6f6e-4747-926f-6c2043617264,rev?*
G04 #@! TF.SameCoordinates,Original*
G04 #@! TF.FileFunction,Soldermask,Top*
G04 #@! TF.FilePolarity,Negative*
%FSLAX46Y46*%
G04 Gerber Fmt 4.6, Leading zero omitted, Abs format (unit mm)*
G04 Created by KiCad (PCBNEW 5.1.6-c6e7f7d~86~ubuntu18.04.1) date 2020-07-07 21:11:44*
%MOMM*%
%LPD*%
G01*
G04 APERTURE LIST*
%ADD10C,0.100000*%
G04 APERTURE END LIST*
D10*
G36*
X136790000Y-136912000D02*
G01*
X135788000Y-136912000D01*
X135788000Y-136010000D01*
X136790000Y-136010000D01*
X136790000Y-136912000D01*
G37*
G36*
X138951938Y-136092716D02*
G01*
X138972557Y-136098971D01*
X138991553Y-136109124D01*
X139008208Y-136122792D01*
X139021876Y-136139447D01*
X139032029Y-136158443D01*
X139038284Y-136179062D01*
X139041000Y-136206640D01*
X139041000Y-136715360D01*
X139038284Y-136742938D01*
X139032029Y-136763557D01*
X139021876Y-136782553D01*
X139008208Y-136799208D01*
X138991553Y-136812876D01*
X138972557Y-136823029D01*
X138951938Y-136829284D01*
X138924360Y-136832000D01*
X138465640Y-136832000D01*
X138438062Y-136829284D01*
X138417443Y-136823029D01*
X138398447Y-136812876D01*
X138381792Y-136799208D01*
X138368124Y-136782553D01*
X138357971Y-136763557D01*
X138351716Y-136742938D01*
X138349000Y-136715360D01*
X138349000Y-136206640D01*
X138351716Y-136179062D01*
X138357971Y-136158443D01*
X138368124Y-136139447D01*
X138381792Y-136122792D01*
X138398447Y-136109124D01*
X138417443Y-136098971D01*
X138438062Y-136092716D01*
X138465640Y-136090000D01*
X138924360Y-136090000D01*
X138951938Y-136092716D01*
G37*
G36*
X137981938Y-136092716D02*
G01*
X138002557Y-136098971D01*
X138021553Y-136109124D01*
X138038208Y-136122792D01*
X138051876Y-136139447D01*
X138062029Y-136158443D01*
X138068284Y-136179062D01*
X138071000Y-136206640D01*
X138071000Y-136715360D01*
X138068284Y-136742938D01*
X138062029Y-136763557D01*
X138051876Y-136782553D01*
X138038208Y-136799208D01*
X138021553Y-136812876D01*
X138002557Y-136823029D01*
X137981938Y-136829284D01*
X137954360Y-136832000D01*
X137495640Y-136832000D01*
X137468062Y-136829284D01*
X137447443Y-136823029D01*
X137428447Y-136812876D01*
X137411792Y-136799208D01*
X137398124Y-136782553D01*
X137387971Y-136763557D01*
X137381716Y-136742938D01*
X137379000Y-136715360D01*
X137379000Y-136206640D01*
X137381716Y-136179062D01*
X137387971Y-136158443D01*
X137398124Y-136139447D01*
X137411792Y-136122792D01*
X137428447Y-136109124D01*
X137447443Y-136098971D01*
X137468062Y-136092716D01*
X137495640Y-136090000D01*
X137954360Y-136090000D01*
X137981938Y-136092716D01*
G37*
G36*
X132989591Y-134989085D02*
G01*
X133023569Y-134999393D01*
X133054890Y-135016134D01*
X133082339Y-135038661D01*
X133104866Y-135066110D01*
X133121607Y-135097431D01*
X133131915Y-135131409D01*
X133136000Y-135172890D01*
X133136000Y-135849110D01*
X133131915Y-135890591D01*
X133121607Y-135924569D01*
X133104866Y-135955890D01*
X133082339Y-135983339D01*
X133054890Y-136005866D01*
X133023569Y-136022607D01*
X132989591Y-136032915D01*
X132948110Y-136037000D01*
X132346890Y-136037000D01*
X132305409Y-136032915D01*
X132271431Y-136022607D01*
X132240110Y-136005866D01*
X132212661Y-135983339D01*
X132190134Y-135955890D01*
X132173393Y-135924569D01*
X132163085Y-135890591D01*
X132159000Y-135849110D01*
X132159000Y-135172890D01*
X132163085Y-135131409D01*
X132173393Y-135097431D01*
X132190134Y-135066110D01*
X132212661Y-135038661D01*
X132240110Y-135016134D01*
X132271431Y-134999393D01*
X132305409Y-134989085D01*
X132346890Y-134985000D01*
X132948110Y-134985000D01*
X132989591Y-134989085D01*
G37*
G36*
X131414591Y-134989085D02*
G01*
X131448569Y-134999393D01*
X131479890Y-135016134D01*
X131507339Y-135038661D01*
X131529866Y-135066110D01*
X131546607Y-135097431D01*
X131556915Y-135131409D01*
X131561000Y-135172890D01*
X131561000Y-135849110D01*
X131556915Y-135890591D01*
X131546607Y-135924569D01*
X131529866Y-135955890D01*
X131507339Y-135983339D01*
X131479890Y-136005866D01*
X131448569Y-136022607D01*
X131414591Y-136032915D01*
X131373110Y-136037000D01*
X130771890Y-136037000D01*
X130730409Y-136032915D01*
X130696431Y-136022607D01*
X130665110Y-136005866D01*
X130637661Y-135983339D01*
X130615134Y-135955890D01*
X130598393Y-135924569D01*
X130588085Y-135890591D01*
X130584000Y-135849110D01*
X130584000Y-135172890D01*
X130588085Y-135131409D01*
X130598393Y-135097431D01*
X130615134Y-135066110D01*
X130637661Y-135038661D01*
X130665110Y-135016134D01*
X130696431Y-134999393D01*
X130730409Y-134989085D01*
X130771890Y-134985000D01*
X131373110Y-134985000D01*
X131414591Y-134989085D01*
G37*
G36*
X134790000Y-135962000D02*
G01*
X133788000Y-135962000D01*
X133788000Y-135060000D01*
X134790000Y-135060000D01*
X134790000Y-135962000D01*
G37*
G36*
X136790000Y-135012000D02*
G01*
X135788000Y-135012000D01*
X135788000Y-134110000D01*
X136790000Y-134110000D01*
X136790000Y-135012000D01*
G37*
G36*
X132601938Y-133618716D02*
G01*
X132622557Y-133624971D01*
X132641553Y-133635124D01*
X132658208Y-133648792D01*
X132671876Y-133665447D01*
X132682029Y-133684443D01*
X132688284Y-133705062D01*
X132691000Y-133732640D01*
X132691000Y-134241360D01*
X132688284Y-134268938D01*
X132682029Y-134289557D01*
X132671876Y-134308553D01*
X132658208Y-134325208D01*
X132641553Y-134338876D01*
X132622557Y-134349029D01*
X132601938Y-134355284D01*
X132574360Y-134358000D01*
X132115640Y-134358000D01*
X132088062Y-134355284D01*
X132067443Y-134349029D01*
X132048447Y-134338876D01*
X132031792Y-134325208D01*
X132018124Y-134308553D01*
X132007971Y-134289557D01*
X132001716Y-134268938D01*
X131999000Y-134241360D01*
X131999000Y-133732640D01*
X132001716Y-133705062D01*
X132007971Y-133684443D01*
X132018124Y-133665447D01*
X132031792Y-133648792D01*
X132048447Y-133635124D01*
X132067443Y-133624971D01*
X132088062Y-133618716D01*
X132115640Y-133616000D01*
X132574360Y-133616000D01*
X132601938Y-133618716D01*
G37*
G36*
X131631938Y-133618716D02*
G01*
X131652557Y-133624971D01*
X131671553Y-133635124D01*
X131688208Y-133648792D01*
X131701876Y-133665447D01*
X131712029Y-133684443D01*
X131718284Y-133705062D01*
X131721000Y-133732640D01*
X131721000Y-134241360D01*
X131718284Y-134268938D01*
X131712029Y-134289557D01*
X131701876Y-134308553D01*
X131688208Y-134325208D01*
X131671553Y-134338876D01*
X131652557Y-134349029D01*
X131631938Y-134355284D01*
X131604360Y-134358000D01*
X131145640Y-134358000D01*
X131118062Y-134355284D01*
X131097443Y-134349029D01*
X131078447Y-134338876D01*
X131061792Y-134325208D01*
X131048124Y-134308553D01*
X131037971Y-134289557D01*
X131031716Y-134268938D01*
X131029000Y-134241360D01*
X131029000Y-133732640D01*
X131031716Y-133705062D01*
X131037971Y-133684443D01*
X131048124Y-133665447D01*
X131061792Y-133648792D01*
X131078447Y-133635124D01*
X131097443Y-133624971D01*
X131118062Y-133618716D01*
X131145640Y-133616000D01*
X131604360Y-133616000D01*
X131631938Y-133618716D01*
G37*
G36*
X136790000Y-130881000D02*
G01*
X135788000Y-130881000D01*
X135788000Y-129979000D01*
X136790000Y-129979000D01*
X136790000Y-130881000D01*
G37*
G36*
X137981938Y-130061716D02*
G01*
X138002557Y-130067971D01*
X138021553Y-130078124D01*
X138038208Y-130091792D01*
X138051876Y-130108447D01*
X138062029Y-130127443D01*
X138068284Y-130148062D01*
X138071000Y-130175640D01*
X138071000Y-130684360D01*
X138068284Y-130711938D01*
X138062029Y-130732557D01*
X138051876Y-130751553D01*
X138038208Y-130768208D01*
X138021553Y-130781876D01*
X138002557Y-130792029D01*
X137981938Y-130798284D01*
X137954360Y-130801000D01*
X137495640Y-130801000D01*
X137468062Y-130798284D01*
X137447443Y-130792029D01*
X137428447Y-130781876D01*
X137411792Y-130768208D01*
X137398124Y-130751553D01*
X137387971Y-130732557D01*
X137381716Y-130711938D01*
X137379000Y-130684360D01*
X137379000Y-130175640D01*
X137381716Y-130148062D01*
X137387971Y-130127443D01*
X137398124Y-130108447D01*
X137411792Y-130091792D01*
X137428447Y-130078124D01*
X137447443Y-130067971D01*
X137468062Y-130061716D01*
X137495640Y-130059000D01*
X137954360Y-130059000D01*
X137981938Y-130061716D01*
G37*
G36*
X138951938Y-130061716D02*
G01*
X138972557Y-130067971D01*
X138991553Y-130078124D01*
X139008208Y-130091792D01*
X139021876Y-130108447D01*
X139032029Y-130127443D01*
X139038284Y-130148062D01*
X139041000Y-130175640D01*
X139041000Y-130684360D01*
X139038284Y-130711938D01*
X139032029Y-130732557D01*
X139021876Y-130751553D01*
X139008208Y-130768208D01*
X138991553Y-130781876D01*
X138972557Y-130792029D01*
X138951938Y-130798284D01*
X138924360Y-130801000D01*
X138465640Y-130801000D01*
X138438062Y-130798284D01*
X138417443Y-130792029D01*
X138398447Y-130781876D01*
X138381792Y-130768208D01*
X138368124Y-130751553D01*
X138357971Y-130732557D01*
X138351716Y-130711938D01*
X138349000Y-130684360D01*
X138349000Y-130175640D01*
X138351716Y-130148062D01*
X138357971Y-130127443D01*
X138368124Y-130108447D01*
X138381792Y-130091792D01*
X138398447Y-130078124D01*
X138417443Y-130067971D01*
X138438062Y-130061716D01*
X138465640Y-130059000D01*
X138924360Y-130059000D01*
X138951938Y-130061716D01*
G37*
G36*
X173948512Y-128993927D02*
G01*
X174097812Y-129023624D01*
X174261784Y-129091544D01*
X174409354Y-129190147D01*
X174534853Y-129315646D01*
X174633456Y-129463216D01*
X174701376Y-129627188D01*
X174728141Y-129761750D01*
X174736000Y-129801258D01*
X174736000Y-129978742D01*
X174734276Y-129987408D01*
X174701376Y-130152812D01*
X174633456Y-130316784D01*
X174534853Y-130464354D01*
X174409354Y-130589853D01*
X174261784Y-130688456D01*
X174097812Y-130756376D01*
X173948512Y-130786073D01*
X173923742Y-130791000D01*
X173746258Y-130791000D01*
X173721488Y-130786073D01*
X173572188Y-130756376D01*
X173408216Y-130688456D01*
X173260646Y-130589853D01*
X173135147Y-130464354D01*
X173036544Y-130316784D01*
X172968624Y-130152812D01*
X172935724Y-129987408D01*
X172934000Y-129978742D01*
X172934000Y-129801258D01*
X172941859Y-129761750D01*
X172968624Y-129627188D01*
X173036544Y-129463216D01*
X173135147Y-129315646D01*
X173260646Y-129190147D01*
X173408216Y-129091544D01*
X173572188Y-129023624D01*
X173721488Y-128993927D01*
X173746258Y-128989000D01*
X173923742Y-128989000D01*
X173948512Y-128993927D01*
G37*
G36*
X176488512Y-128993927D02*
G01*
X176637812Y-129023624D01*
X176801784Y-129091544D01*
X176949354Y-129190147D01*
X177074853Y-129315646D01*
X177173456Y-129463216D01*
X177241376Y-129627188D01*
X177268141Y-129761750D01*
X177276000Y-129801258D01*
X177276000Y-129978742D01*
X177274276Y-129987408D01*
X177241376Y-130152812D01*
X177173456Y-130316784D01*
X177074853Y-130464354D01*
X176949354Y-130589853D01*
X176801784Y-130688456D01*
X176637812Y-130756376D01*
X176488512Y-130786073D01*
X176463742Y-130791000D01*
X176286258Y-130791000D01*
X176261488Y-130786073D01*
X176112188Y-130756376D01*
X175948216Y-130688456D01*
X175800646Y-130589853D01*
X175675147Y-130464354D01*
X175576544Y-130316784D01*
X175508624Y-130152812D01*
X175475724Y-129987408D01*
X175474000Y-129978742D01*
X175474000Y-129801258D01*
X175481859Y-129761750D01*
X175508624Y-129627188D01*
X175576544Y-129463216D01*
X175675147Y-129315646D01*
X175800646Y-129190147D01*
X175948216Y-129091544D01*
X176112188Y-129023624D01*
X176261488Y-128993927D01*
X176286258Y-128989000D01*
X176463742Y-128989000D01*
X176488512Y-128993927D01*
G37*
G36*
X132989591Y-128958085D02*
G01*
X133023569Y-128968393D01*
X133054890Y-128985134D01*
X133082339Y-129007661D01*
X133104866Y-129035110D01*
X133121607Y-129066431D01*
X133131915Y-129100409D01*
X133136000Y-129141890D01*
X133136000Y-129818110D01*
X133131915Y-129859591D01*
X133121607Y-129893569D01*
X133104866Y-129924890D01*
X133082339Y-129952339D01*
X133054890Y-129974866D01*
X133023569Y-129991607D01*
X132989591Y-130001915D01*
X132948110Y-130006000D01*
X132346890Y-130006000D01*
X132305409Y-130001915D01*
X132271431Y-129991607D01*
X132240110Y-129974866D01*
X132212661Y-129952339D01*
X132190134Y-129924890D01*
X132173393Y-129893569D01*
X132163085Y-129859591D01*
X132159000Y-129818110D01*
X132159000Y-129141890D01*
X132163085Y-129100409D01*
X132173393Y-129066431D01*
X132190134Y-129035110D01*
X132212661Y-129007661D01*
X132240110Y-128985134D01*
X132271431Y-128968393D01*
X132305409Y-128958085D01*
X132346890Y-128954000D01*
X132948110Y-128954000D01*
X132989591Y-128958085D01*
G37*
G36*
X131414591Y-128958085D02*
G01*
X131448569Y-128968393D01*
X131479890Y-128985134D01*
X131507339Y-129007661D01*
X131529866Y-129035110D01*
X131546607Y-129066431D01*
X131556915Y-129100409D01*
X131561000Y-129141890D01*
X131561000Y-129818110D01*
X131556915Y-129859591D01*
X131546607Y-129893569D01*
X131529866Y-129924890D01*
X131507339Y-129952339D01*
X131479890Y-129974866D01*
X131448569Y-129991607D01*
X131414591Y-130001915D01*
X131373110Y-130006000D01*
X130771890Y-130006000D01*
X130730409Y-130001915D01*
X130696431Y-129991607D01*
X130665110Y-129974866D01*
X130637661Y-129952339D01*
X130615134Y-129924890D01*
X130598393Y-129893569D01*
X130588085Y-129859591D01*
X130584000Y-129818110D01*
X130584000Y-129141890D01*
X130588085Y-129100409D01*
X130598393Y-129066431D01*
X130615134Y-129035110D01*
X130637661Y-129007661D01*
X130665110Y-128985134D01*
X130696431Y-128968393D01*
X130730409Y-128958085D01*
X130771890Y-128954000D01*
X131373110Y-128954000D01*
X131414591Y-128958085D01*
G37*
G36*
X134790000Y-129931000D02*
G01*
X133788000Y-129931000D01*
X133788000Y-129029000D01*
X134790000Y-129029000D01*
X134790000Y-129931000D01*
G37*
G36*
X136790000Y-128981000D02*
G01*
X135788000Y-128981000D01*
X135788000Y-128079000D01*
X136790000Y-128079000D01*
X136790000Y-128981000D01*
G37*
G36*
X131631938Y-127587716D02*
G01*
X131652557Y-127593971D01*
X131671553Y-127604124D01*
X131688208Y-127617792D01*
X131701876Y-127634447D01*
X131712029Y-127653443D01*
X131718284Y-127674062D01*
X131721000Y-127701640D01*
X131721000Y-128210360D01*
X131718284Y-128237938D01*
X131712029Y-128258557D01*
X131701876Y-128277553D01*
X131688208Y-128294208D01*
X131671553Y-128307876D01*
X131652557Y-128318029D01*
X131631938Y-128324284D01*
X131604360Y-128327000D01*
X131145640Y-128327000D01*
X131118062Y-128324284D01*
X131097443Y-128318029D01*
X131078447Y-128307876D01*
X131061792Y-128294208D01*
X131048124Y-128277553D01*
X131037971Y-128258557D01*
X131031716Y-128237938D01*
X131029000Y-128210360D01*
X131029000Y-127701640D01*
X131031716Y-127674062D01*
X131037971Y-127653443D01*
X131048124Y-127634447D01*
X131061792Y-127617792D01*
X131078447Y-127604124D01*
X131097443Y-127593971D01*
X131118062Y-127587716D01*
X131145640Y-127585000D01*
X131604360Y-127585000D01*
X131631938Y-127587716D01*
G37*
G36*
X132601938Y-127587716D02*
G01*
X132622557Y-127593971D01*
X132641553Y-127604124D01*
X132658208Y-127617792D01*
X132671876Y-127634447D01*
X132682029Y-127653443D01*
X132688284Y-127674062D01*
X132691000Y-127701640D01*
X132691000Y-128210360D01*
X132688284Y-128237938D01*
X132682029Y-128258557D01*
X132671876Y-128277553D01*
X132658208Y-128294208D01*
X132641553Y-128307876D01*
X132622557Y-128318029D01*
X132601938Y-128324284D01*
X132574360Y-128327000D01*
X132115640Y-128327000D01*
X132088062Y-128324284D01*
X132067443Y-128318029D01*
X132048447Y-128307876D01*
X132031792Y-128294208D01*
X132018124Y-128277553D01*
X132007971Y-128258557D01*
X132001716Y-128237938D01*
X131999000Y-128210360D01*
X131999000Y-127701640D01*
X132001716Y-127674062D01*
X132007971Y-127653443D01*
X132018124Y-127634447D01*
X132031792Y-127617792D01*
X132048447Y-127604124D01*
X132067443Y-127593971D01*
X132088062Y-127587716D01*
X132115640Y-127585000D01*
X132574360Y-127585000D01*
X132601938Y-127587716D01*
G37*
G36*
X173948512Y-126453927D02*
G01*
X174097812Y-126483624D01*
X174261784Y-126551544D01*
X174409354Y-126650147D01*
X174534853Y-126775646D01*
X174633456Y-126923216D01*
X174701376Y-127087188D01*
X174736000Y-127261259D01*
X174736000Y-127438741D01*
X174701376Y-127612812D01*
X174633456Y-127776784D01*
X174534853Y-127924354D01*
X174409354Y-128049853D01*
X174261784Y-128148456D01*
X174097812Y-128216376D01*
X173948512Y-128246073D01*
X173923742Y-128251000D01*
X173746258Y-128251000D01*
X173721488Y-128246073D01*
X173572188Y-128216376D01*
X173408216Y-128148456D01*
X173260646Y-128049853D01*
X173135147Y-127924354D01*
X173036544Y-127776784D01*
X172968624Y-127612812D01*
X172934000Y-127438741D01*
X172934000Y-127261259D01*
X172968624Y-127087188D01*
X173036544Y-126923216D01*
X173135147Y-126775646D01*
X173260646Y-126650147D01*
X173408216Y-126551544D01*
X173572188Y-126483624D01*
X173721488Y-126453927D01*
X173746258Y-126449000D01*
X173923742Y-126449000D01*
X173948512Y-126453927D01*
G37*
G36*
X176488512Y-126453927D02*
G01*
X176637812Y-126483624D01*
X176801784Y-126551544D01*
X176949354Y-126650147D01*
X177074853Y-126775646D01*
X177173456Y-126923216D01*
X177241376Y-127087188D01*
X177276000Y-127261259D01*
X177276000Y-127438741D01*
X177241376Y-127612812D01*
X177173456Y-127776784D01*
X177074853Y-127924354D01*
X176949354Y-128049853D01*
X176801784Y-128148456D01*
X176637812Y-128216376D01*
X176488512Y-128246073D01*
X176463742Y-128251000D01*
X176286258Y-128251000D01*
X176261488Y-128246073D01*
X176112188Y-128216376D01*
X175948216Y-128148456D01*
X175800646Y-128049853D01*
X175675147Y-127924354D01*
X175576544Y-127776784D01*
X175508624Y-127612812D01*
X175474000Y-127438741D01*
X175474000Y-127261259D01*
X175508624Y-127087188D01*
X175576544Y-126923216D01*
X175675147Y-126775646D01*
X175800646Y-126650147D01*
X175948216Y-126551544D01*
X176112188Y-126483624D01*
X176261488Y-126453927D01*
X176286258Y-126449000D01*
X176463742Y-126449000D01*
X176488512Y-126453927D01*
G37*
G36*
X176488512Y-123913927D02*
G01*
X176637812Y-123943624D01*
X176801784Y-124011544D01*
X176949354Y-124110147D01*
X177074853Y-124235646D01*
X177173456Y-124383216D01*
X177241376Y-124547188D01*
X177276000Y-124721259D01*
X177276000Y-124898741D01*
X177241376Y-125072812D01*
X177173456Y-125236784D01*
X177074853Y-125384354D01*
X176949354Y-125509853D01*
X176801784Y-125608456D01*
X176637812Y-125676376D01*
X176488512Y-125706073D01*
X176463742Y-125711000D01*
X176286258Y-125711000D01*
X176261488Y-125706073D01*
X176112188Y-125676376D01*
X175948216Y-125608456D01*
X175800646Y-125509853D01*
X175675147Y-125384354D01*
X175576544Y-125236784D01*
X175508624Y-125072812D01*
X175474000Y-124898741D01*
X175474000Y-124721259D01*
X175508624Y-124547188D01*
X175576544Y-124383216D01*
X175675147Y-124235646D01*
X175800646Y-124110147D01*
X175948216Y-124011544D01*
X176112188Y-123943624D01*
X176261488Y-123913927D01*
X176286258Y-123909000D01*
X176463742Y-123909000D01*
X176488512Y-123913927D01*
G37*
G36*
X173948512Y-123913927D02*
G01*
X174097812Y-123943624D01*
X174261784Y-124011544D01*
X174409354Y-124110147D01*
X174534853Y-124235646D01*
X174633456Y-124383216D01*
X174701376Y-124547188D01*
X174736000Y-124721259D01*
X174736000Y-124898741D01*
X174701376Y-125072812D01*
X174633456Y-125236784D01*
X174534853Y-125384354D01*
X174409354Y-125509853D01*
X174261784Y-125608456D01*
X174097812Y-125676376D01*
X173948512Y-125706073D01*
X173923742Y-125711000D01*
X173746258Y-125711000D01*
X173721488Y-125706073D01*
X173572188Y-125676376D01*
X173408216Y-125608456D01*
X173260646Y-125509853D01*
X173135147Y-125384354D01*
X173036544Y-125236784D01*
X172968624Y-125072812D01*
X172934000Y-124898741D01*
X172934000Y-124721259D01*
X172968624Y-124547188D01*
X173036544Y-124383216D01*
X173135147Y-124235646D01*
X173260646Y-124110147D01*
X173408216Y-124011544D01*
X173572188Y-123943624D01*
X173721488Y-123913927D01*
X173746258Y-123909000D01*
X173923742Y-123909000D01*
X173948512Y-123913927D01*
G37*
G36*
X136790000Y-124907000D02*
G01*
X135788000Y-124907000D01*
X135788000Y-124005000D01*
X136790000Y-124005000D01*
X136790000Y-124907000D01*
G37*
G36*
X137981938Y-124087716D02*
G01*
X138002557Y-124093971D01*
X138021553Y-124104124D01*
X138038208Y-124117792D01*
X138051876Y-124134447D01*
X138062029Y-124153443D01*
X138068284Y-124174062D01*
X138071000Y-124201640D01*
X138071000Y-124710360D01*
X138068284Y-124737938D01*
X138062029Y-124758557D01*
X138051876Y-124777553D01*
X138038208Y-124794208D01*
X138021553Y-124807876D01*
X138002557Y-124818029D01*
X137981938Y-124824284D01*
X137954360Y-124827000D01*
X137495640Y-124827000D01*
X137468062Y-124824284D01*
X137447443Y-124818029D01*
X137428447Y-124807876D01*
X137411792Y-124794208D01*
X137398124Y-124777553D01*
X137387971Y-124758557D01*
X137381716Y-124737938D01*
X137379000Y-124710360D01*
X137379000Y-124201640D01*
X137381716Y-124174062D01*
X137387971Y-124153443D01*
X137398124Y-124134447D01*
X137411792Y-124117792D01*
X137428447Y-124104124D01*
X137447443Y-124093971D01*
X137468062Y-124087716D01*
X137495640Y-124085000D01*
X137954360Y-124085000D01*
X137981938Y-124087716D01*
G37*
G36*
X138951938Y-124087716D02*
G01*
X138972557Y-124093971D01*
X138991553Y-124104124D01*
X139008208Y-124117792D01*
X139021876Y-124134447D01*
X139032029Y-124153443D01*
X139038284Y-124174062D01*
X139041000Y-124201640D01*
X139041000Y-124710360D01*
X139038284Y-124737938D01*
X139032029Y-124758557D01*
X139021876Y-124777553D01*
X139008208Y-124794208D01*
X138991553Y-124807876D01*
X138972557Y-124818029D01*
X138951938Y-124824284D01*
X138924360Y-124827000D01*
X138465640Y-124827000D01*
X138438062Y-124824284D01*
X138417443Y-124818029D01*
X138398447Y-124807876D01*
X138381792Y-124794208D01*
X138368124Y-124777553D01*
X138357971Y-124758557D01*
X138351716Y-124737938D01*
X138349000Y-124710360D01*
X138349000Y-124201640D01*
X138351716Y-124174062D01*
X138357971Y-124153443D01*
X138368124Y-124134447D01*
X138381792Y-124117792D01*
X138398447Y-124104124D01*
X138417443Y-124093971D01*
X138438062Y-124087716D01*
X138465640Y-124085000D01*
X138924360Y-124085000D01*
X138951938Y-124087716D01*
G37*
G36*
X131414591Y-122984085D02*
G01*
X131448569Y-122994393D01*
X131479890Y-123011134D01*
X131507339Y-123033661D01*
X131529866Y-123061110D01*
X131546607Y-123092431D01*
X131556915Y-123126409D01*
X131561000Y-123167890D01*
X131561000Y-123844110D01*
X131556915Y-123885591D01*
X131546607Y-123919569D01*
X131529866Y-123950890D01*
X131507339Y-123978339D01*
X131479890Y-124000866D01*
X131448569Y-124017607D01*
X131414591Y-124027915D01*
X131373110Y-124032000D01*
X130771890Y-124032000D01*
X130730409Y-124027915D01*
X130696431Y-124017607D01*
X130665110Y-124000866D01*
X130637661Y-123978339D01*
X130615134Y-123950890D01*
X130598393Y-123919569D01*
X130588085Y-123885591D01*
X130584000Y-123844110D01*
X130584000Y-123167890D01*
X130588085Y-123126409D01*
X130598393Y-123092431D01*
X130615134Y-123061110D01*
X130637661Y-123033661D01*
X130665110Y-123011134D01*
X130696431Y-122994393D01*
X130730409Y-122984085D01*
X130771890Y-122980000D01*
X131373110Y-122980000D01*
X131414591Y-122984085D01*
G37*
G36*
X132989591Y-122984085D02*
G01*
X133023569Y-122994393D01*
X133054890Y-123011134D01*
X133082339Y-123033661D01*
X133104866Y-123061110D01*
X133121607Y-123092431D01*
X133131915Y-123126409D01*
X133136000Y-123167890D01*
X133136000Y-123844110D01*
X133131915Y-123885591D01*
X133121607Y-123919569D01*
X133104866Y-123950890D01*
X133082339Y-123978339D01*
X133054890Y-124000866D01*
X133023569Y-124017607D01*
X132989591Y-124027915D01*
X132948110Y-124032000D01*
X132346890Y-124032000D01*
X132305409Y-124027915D01*
X132271431Y-124017607D01*
X132240110Y-124000866D01*
X132212661Y-123978339D01*
X132190134Y-123950890D01*
X132173393Y-123919569D01*
X132163085Y-123885591D01*
X132159000Y-123844110D01*
X132159000Y-123167890D01*
X132163085Y-123126409D01*
X132173393Y-123092431D01*
X132190134Y-123061110D01*
X132212661Y-123033661D01*
X132240110Y-123011134D01*
X132271431Y-122994393D01*
X132305409Y-122984085D01*
X132346890Y-122980000D01*
X132948110Y-122980000D01*
X132989591Y-122984085D01*
G37*
G36*
X134790000Y-123957000D02*
G01*
X133788000Y-123957000D01*
X133788000Y-123055000D01*
X134790000Y-123055000D01*
X134790000Y-123957000D01*
G37*
G36*
X176488512Y-121373927D02*
G01*
X176637812Y-121403624D01*
X176801784Y-121471544D01*
X176949354Y-121570147D01*
X177074853Y-121695646D01*
X177173456Y-121843216D01*
X177241376Y-122007188D01*
X177276000Y-122181259D01*
X177276000Y-122358741D01*
X177241376Y-122532812D01*
X177173456Y-122696784D01*
X177074853Y-122844354D01*
X176949354Y-122969853D01*
X176801784Y-123068456D01*
X176637812Y-123136376D01*
X176488512Y-123166073D01*
X176463742Y-123171000D01*
X176286258Y-123171000D01*
X176261488Y-123166073D01*
X176112188Y-123136376D01*
X175948216Y-123068456D01*
X175800646Y-122969853D01*
X175675147Y-122844354D01*
X175576544Y-122696784D01*
X175508624Y-122532812D01*
X175474000Y-122358741D01*
X175474000Y-122181259D01*
X175508624Y-122007188D01*
X175576544Y-121843216D01*
X175675147Y-121695646D01*
X175800646Y-121570147D01*
X175948216Y-121471544D01*
X176112188Y-121403624D01*
X176261488Y-121373927D01*
X176286258Y-121369000D01*
X176463742Y-121369000D01*
X176488512Y-121373927D01*
G37*
G36*
X173948512Y-121373927D02*
G01*
X174097812Y-121403624D01*
X174261784Y-121471544D01*
X174409354Y-121570147D01*
X174534853Y-121695646D01*
X174633456Y-121843216D01*
X174701376Y-122007188D01*
X174736000Y-122181259D01*
X174736000Y-122358741D01*
X174701376Y-122532812D01*
X174633456Y-122696784D01*
X174534853Y-122844354D01*
X174409354Y-122969853D01*
X174261784Y-123068456D01*
X174097812Y-123136376D01*
X173948512Y-123166073D01*
X173923742Y-123171000D01*
X173746258Y-123171000D01*
X173721488Y-123166073D01*
X173572188Y-123136376D01*
X173408216Y-123068456D01*
X173260646Y-122969853D01*
X173135147Y-122844354D01*
X173036544Y-122696784D01*
X172968624Y-122532812D01*
X172934000Y-122358741D01*
X172934000Y-122181259D01*
X172968624Y-122007188D01*
X173036544Y-121843216D01*
X173135147Y-121695646D01*
X173260646Y-121570147D01*
X173408216Y-121471544D01*
X173572188Y-121403624D01*
X173721488Y-121373927D01*
X173746258Y-121369000D01*
X173923742Y-121369000D01*
X173948512Y-121373927D01*
G37*
G36*
X136790000Y-123007000D02*
G01*
X135788000Y-123007000D01*
X135788000Y-122105000D01*
X136790000Y-122105000D01*
X136790000Y-123007000D01*
G37*
G36*
X132601938Y-121613716D02*
G01*
X132622557Y-121619971D01*
X132641553Y-121630124D01*
X132658208Y-121643792D01*
X132671876Y-121660447D01*
X132682029Y-121679443D01*
X132688284Y-121700062D01*
X132691000Y-121727640D01*
X132691000Y-122236360D01*
X132688284Y-122263938D01*
X132682029Y-122284557D01*
X132671876Y-122303553D01*
X132658208Y-122320208D01*
X132641553Y-122333876D01*
X132622557Y-122344029D01*
X132601938Y-122350284D01*
X132574360Y-122353000D01*
X132115640Y-122353000D01*
X132088062Y-122350284D01*
X132067443Y-122344029D01*
X132048447Y-122333876D01*
X132031792Y-122320208D01*
X132018124Y-122303553D01*
X132007971Y-122284557D01*
X132001716Y-122263938D01*
X131999000Y-122236360D01*
X131999000Y-121727640D01*
X132001716Y-121700062D01*
X132007971Y-121679443D01*
X132018124Y-121660447D01*
X132031792Y-121643792D01*
X132048447Y-121630124D01*
X132067443Y-121619971D01*
X132088062Y-121613716D01*
X132115640Y-121611000D01*
X132574360Y-121611000D01*
X132601938Y-121613716D01*
G37*
G36*
X131631938Y-121613716D02*
G01*
X131652557Y-121619971D01*
X131671553Y-121630124D01*
X131688208Y-121643792D01*
X131701876Y-121660447D01*
X131712029Y-121679443D01*
X131718284Y-121700062D01*
X131721000Y-121727640D01*
X131721000Y-122236360D01*
X131718284Y-122263938D01*
X131712029Y-122284557D01*
X131701876Y-122303553D01*
X131688208Y-122320208D01*
X131671553Y-122333876D01*
X131652557Y-122344029D01*
X131631938Y-122350284D01*
X131604360Y-122353000D01*
X131145640Y-122353000D01*
X131118062Y-122350284D01*
X131097443Y-122344029D01*
X131078447Y-122333876D01*
X131061792Y-122320208D01*
X131048124Y-122303553D01*
X131037971Y-122284557D01*
X131031716Y-122263938D01*
X131029000Y-122236360D01*
X131029000Y-121727640D01*
X131031716Y-121700062D01*
X131037971Y-121679443D01*
X131048124Y-121660447D01*
X131061792Y-121643792D01*
X131078447Y-121630124D01*
X131097443Y-121619971D01*
X131118062Y-121613716D01*
X131145640Y-121611000D01*
X131604360Y-121611000D01*
X131631938Y-121613716D01*
G37*
G36*
X173948512Y-118833927D02*
G01*
X174097812Y-118863624D01*
X174261784Y-118931544D01*
X174409354Y-119030147D01*
X174534853Y-119155646D01*
X174633456Y-119303216D01*
X174701376Y-119467188D01*
X174736000Y-119641259D01*
X174736000Y-119818741D01*
X174701376Y-119992812D01*
X174633456Y-120156784D01*
X174534853Y-120304354D01*
X174409354Y-120429853D01*
X174261784Y-120528456D01*
X174097812Y-120596376D01*
X173948512Y-120626073D01*
X173923742Y-120631000D01*
X173746258Y-120631000D01*
X173721488Y-120626073D01*
X173572188Y-120596376D01*
X173408216Y-120528456D01*
X173260646Y-120429853D01*
X173135147Y-120304354D01*
X173036544Y-120156784D01*
X172968624Y-119992812D01*
X172934000Y-119818741D01*
X172934000Y-119641259D01*
X172968624Y-119467188D01*
X173036544Y-119303216D01*
X173135147Y-119155646D01*
X173260646Y-119030147D01*
X173408216Y-118931544D01*
X173572188Y-118863624D01*
X173721488Y-118833927D01*
X173746258Y-118829000D01*
X173923742Y-118829000D01*
X173948512Y-118833927D01*
G37*
G36*
X176488512Y-118833927D02*
G01*
X176637812Y-118863624D01*
X176801784Y-118931544D01*
X176949354Y-119030147D01*
X177074853Y-119155646D01*
X177173456Y-119303216D01*
X177241376Y-119467188D01*
X177276000Y-119641259D01*
X177276000Y-119818741D01*
X177241376Y-119992812D01*
X177173456Y-120156784D01*
X177074853Y-120304354D01*
X176949354Y-120429853D01*
X176801784Y-120528456D01*
X176637812Y-120596376D01*
X176488512Y-120626073D01*
X176463742Y-120631000D01*
X176286258Y-120631000D01*
X176261488Y-120626073D01*
X176112188Y-120596376D01*
X175948216Y-120528456D01*
X175800646Y-120429853D01*
X175675147Y-120304354D01*
X175576544Y-120156784D01*
X175508624Y-119992812D01*
X175474000Y-119818741D01*
X175474000Y-119641259D01*
X175508624Y-119467188D01*
X175576544Y-119303216D01*
X175675147Y-119155646D01*
X175800646Y-119030147D01*
X175948216Y-118931544D01*
X176112188Y-118863624D01*
X176261488Y-118833927D01*
X176286258Y-118829000D01*
X176463742Y-118829000D01*
X176488512Y-118833927D01*
G37*
G36*
X176488512Y-116293927D02*
G01*
X176637812Y-116323624D01*
X176801784Y-116391544D01*
X176949354Y-116490147D01*
X177074853Y-116615646D01*
X177173456Y-116763216D01*
X177241376Y-116927188D01*
X177276000Y-117101259D01*
X177276000Y-117278741D01*
X177241376Y-117452812D01*
X177173456Y-117616784D01*
X177074853Y-117764354D01*
X176949354Y-117889853D01*
X176801784Y-117988456D01*
X176637812Y-118056376D01*
X176488512Y-118086073D01*
X176463742Y-118091000D01*
X176286258Y-118091000D01*
X176261488Y-118086073D01*
X176112188Y-118056376D01*
X175948216Y-117988456D01*
X175800646Y-117889853D01*
X175675147Y-117764354D01*
X175576544Y-117616784D01*
X175508624Y-117452812D01*
X175474000Y-117278741D01*
X175474000Y-117101259D01*
X175508624Y-116927188D01*
X175576544Y-116763216D01*
X175675147Y-116615646D01*
X175800646Y-116490147D01*
X175948216Y-116391544D01*
X176112188Y-116323624D01*
X176261488Y-116293927D01*
X176286258Y-116289000D01*
X176463742Y-116289000D01*
X176488512Y-116293927D01*
G37*
G36*
X173948512Y-116293927D02*
G01*
X174097812Y-116323624D01*
X174261784Y-116391544D01*
X174409354Y-116490147D01*
X174534853Y-116615646D01*
X174633456Y-116763216D01*
X174701376Y-116927188D01*
X174736000Y-117101259D01*
X174736000Y-117278741D01*
X174701376Y-117452812D01*
X174633456Y-117616784D01*
X174534853Y-117764354D01*
X174409354Y-117889853D01*
X174261784Y-117988456D01*
X174097812Y-118056376D01*
X173948512Y-118086073D01*
X173923742Y-118091000D01*
X173746258Y-118091000D01*
X173721488Y-118086073D01*
X173572188Y-118056376D01*
X173408216Y-117988456D01*
X173260646Y-117889853D01*
X173135147Y-117764354D01*
X173036544Y-117616784D01*
X172968624Y-117452812D01*
X172934000Y-117278741D01*
X172934000Y-117101259D01*
X172968624Y-116927188D01*
X173036544Y-116763216D01*
X173135147Y-116615646D01*
X173260646Y-116490147D01*
X173408216Y-116391544D01*
X173572188Y-116323624D01*
X173721488Y-116293927D01*
X173746258Y-116289000D01*
X173923742Y-116289000D01*
X173948512Y-116293927D01*
G37*
G36*
X126335000Y-117156000D02*
G01*
X124683000Y-117156000D01*
X124683000Y-115754000D01*
X126335000Y-115754000D01*
X126335000Y-117156000D01*
G37*
G36*
X134295000Y-117156000D02*
G01*
X132643000Y-117156000D01*
X132643000Y-115754000D01*
X134295000Y-115754000D01*
X134295000Y-117156000D01*
G37*
G36*
X176488512Y-113753927D02*
G01*
X176637812Y-113783624D01*
X176801784Y-113851544D01*
X176949354Y-113950147D01*
X177074853Y-114075646D01*
X177173456Y-114223216D01*
X177241376Y-114387188D01*
X177276000Y-114561259D01*
X177276000Y-114738741D01*
X177241376Y-114912812D01*
X177173456Y-115076784D01*
X177074853Y-115224354D01*
X176949354Y-115349853D01*
X176801784Y-115448456D01*
X176637812Y-115516376D01*
X176488512Y-115546073D01*
X176463742Y-115551000D01*
X176286258Y-115551000D01*
X176261488Y-115546073D01*
X176112188Y-115516376D01*
X175948216Y-115448456D01*
X175800646Y-115349853D01*
X175675147Y-115224354D01*
X175576544Y-115076784D01*
X175508624Y-114912812D01*
X175474000Y-114738741D01*
X175474000Y-114561259D01*
X175508624Y-114387188D01*
X175576544Y-114223216D01*
X175675147Y-114075646D01*
X175800646Y-113950147D01*
X175948216Y-113851544D01*
X176112188Y-113783624D01*
X176261488Y-113753927D01*
X176286258Y-113749000D01*
X176463742Y-113749000D01*
X176488512Y-113753927D01*
G37*
G36*
X173948512Y-113753927D02*
G01*
X174097812Y-113783624D01*
X174261784Y-113851544D01*
X174409354Y-113950147D01*
X174534853Y-114075646D01*
X174633456Y-114223216D01*
X174701376Y-114387188D01*
X174736000Y-114561259D01*
X174736000Y-114738741D01*
X174701376Y-114912812D01*
X174633456Y-115076784D01*
X174534853Y-115224354D01*
X174409354Y-115349853D01*
X174261784Y-115448456D01*
X174097812Y-115516376D01*
X173948512Y-115546073D01*
X173923742Y-115551000D01*
X173746258Y-115551000D01*
X173721488Y-115546073D01*
X173572188Y-115516376D01*
X173408216Y-115448456D01*
X173260646Y-115349853D01*
X173135147Y-115224354D01*
X173036544Y-115076784D01*
X172968624Y-114912812D01*
X172934000Y-114738741D01*
X172934000Y-114561259D01*
X172968624Y-114387188D01*
X173036544Y-114223216D01*
X173135147Y-114075646D01*
X173260646Y-113950147D01*
X173408216Y-113851544D01*
X173572188Y-113783624D01*
X173721488Y-113753927D01*
X173746258Y-113749000D01*
X173923742Y-113749000D01*
X173948512Y-113753927D01*
G37*
G36*
X173948512Y-111213927D02*
G01*
X174097812Y-111243624D01*
X174261784Y-111311544D01*
X174409354Y-111410147D01*
X174534853Y-111535646D01*
X174633456Y-111683216D01*
X174701376Y-111847188D01*
X174736000Y-112021259D01*
X174736000Y-112198741D01*
X174701376Y-112372812D01*
X174633456Y-112536784D01*
X174534853Y-112684354D01*
X174409354Y-112809853D01*
X174261784Y-112908456D01*
X174097812Y-112976376D01*
X173948512Y-113006073D01*
X173923742Y-113011000D01*
X173746258Y-113011000D01*
X173721488Y-113006073D01*
X173572188Y-112976376D01*
X173408216Y-112908456D01*
X173260646Y-112809853D01*
X173135147Y-112684354D01*
X173036544Y-112536784D01*
X172968624Y-112372812D01*
X172934000Y-112198741D01*
X172934000Y-112021259D01*
X172968624Y-111847188D01*
X173036544Y-111683216D01*
X173135147Y-111535646D01*
X173260646Y-111410147D01*
X173408216Y-111311544D01*
X173572188Y-111243624D01*
X173721488Y-111213927D01*
X173746258Y-111209000D01*
X173923742Y-111209000D01*
X173948512Y-111213927D01*
G37*
G36*
X176488512Y-111213927D02*
G01*
X176637812Y-111243624D01*
X176801784Y-111311544D01*
X176949354Y-111410147D01*
X177074853Y-111535646D01*
X177173456Y-111683216D01*
X177241376Y-111847188D01*
X177276000Y-112021259D01*
X177276000Y-112198741D01*
X177241376Y-112372812D01*
X177173456Y-112536784D01*
X177074853Y-112684354D01*
X176949354Y-112809853D01*
X176801784Y-112908456D01*
X176637812Y-112976376D01*
X176488512Y-113006073D01*
X176463742Y-113011000D01*
X176286258Y-113011000D01*
X176261488Y-113006073D01*
X176112188Y-112976376D01*
X175948216Y-112908456D01*
X175800646Y-112809853D01*
X175675147Y-112684354D01*
X175576544Y-112536784D01*
X175508624Y-112372812D01*
X175474000Y-112198741D01*
X175474000Y-112021259D01*
X175508624Y-111847188D01*
X175576544Y-111683216D01*
X175675147Y-111535646D01*
X175800646Y-111410147D01*
X175948216Y-111311544D01*
X176112188Y-111243624D01*
X176261488Y-111213927D01*
X176286258Y-111209000D01*
X176463742Y-111209000D01*
X176488512Y-111213927D01*
G37*
G36*
X134295000Y-112656000D02*
G01*
X132643000Y-112656000D01*
X132643000Y-111254000D01*
X134295000Y-111254000D01*
X134295000Y-112656000D01*
G37*
G36*
X126335000Y-112656000D02*
G01*
X124683000Y-112656000D01*
X124683000Y-111254000D01*
X126335000Y-111254000D01*
X126335000Y-112656000D01*
G37*
G36*
X173948512Y-108673927D02*
G01*
X174097812Y-108703624D01*
X174261784Y-108771544D01*
X174409354Y-108870147D01*
X174534853Y-108995646D01*
X174633456Y-109143216D01*
X174701376Y-109307188D01*
X174736000Y-109481259D01*
X174736000Y-109658741D01*
X174701376Y-109832812D01*
X174633456Y-109996784D01*
X174534853Y-110144354D01*
X174409354Y-110269853D01*
X174261784Y-110368456D01*
X174097812Y-110436376D01*
X173948512Y-110466073D01*
X173923742Y-110471000D01*
X173746258Y-110471000D01*
X173721488Y-110466073D01*
X173572188Y-110436376D01*
X173408216Y-110368456D01*
X173260646Y-110269853D01*
X173135147Y-110144354D01*
X173036544Y-109996784D01*
X172968624Y-109832812D01*
X172934000Y-109658741D01*
X172934000Y-109481259D01*
X172968624Y-109307188D01*
X173036544Y-109143216D01*
X173135147Y-108995646D01*
X173260646Y-108870147D01*
X173408216Y-108771544D01*
X173572188Y-108703624D01*
X173721488Y-108673927D01*
X173746258Y-108669000D01*
X173923742Y-108669000D01*
X173948512Y-108673927D01*
G37*
G36*
X176488512Y-108673927D02*
G01*
X176637812Y-108703624D01*
X176801784Y-108771544D01*
X176949354Y-108870147D01*
X177074853Y-108995646D01*
X177173456Y-109143216D01*
X177241376Y-109307188D01*
X177276000Y-109481259D01*
X177276000Y-109658741D01*
X177241376Y-109832812D01*
X177173456Y-109996784D01*
X177074853Y-110144354D01*
X176949354Y-110269853D01*
X176801784Y-110368456D01*
X176637812Y-110436376D01*
X176488512Y-110466073D01*
X176463742Y-110471000D01*
X176286258Y-110471000D01*
X176261488Y-110466073D01*
X176112188Y-110436376D01*
X175948216Y-110368456D01*
X175800646Y-110269853D01*
X175675147Y-110144354D01*
X175576544Y-109996784D01*
X175508624Y-109832812D01*
X175474000Y-109658741D01*
X175474000Y-109481259D01*
X175508624Y-109307188D01*
X175576544Y-109143216D01*
X175675147Y-108995646D01*
X175800646Y-108870147D01*
X175948216Y-108771544D01*
X176112188Y-108703624D01*
X176261488Y-108673927D01*
X176286258Y-108669000D01*
X176463742Y-108669000D01*
X176488512Y-108673927D01*
G37*
G36*
X173948512Y-106133927D02*
G01*
X174097812Y-106163624D01*
X174261784Y-106231544D01*
X174409354Y-106330147D01*
X174534853Y-106455646D01*
X174633456Y-106603216D01*
X174701376Y-106767188D01*
X174736000Y-106941259D01*
X174736000Y-107118741D01*
X174701376Y-107292812D01*
X174633456Y-107456784D01*
X174534853Y-107604354D01*
X174409354Y-107729853D01*
X174261784Y-107828456D01*
X174097812Y-107896376D01*
X173948512Y-107926073D01*
X173923742Y-107931000D01*
X173746258Y-107931000D01*
X173721488Y-107926073D01*
X173572188Y-107896376D01*
X173408216Y-107828456D01*
X173260646Y-107729853D01*
X173135147Y-107604354D01*
X173036544Y-107456784D01*
X172968624Y-107292812D01*
X172934000Y-107118741D01*
X172934000Y-106941259D01*
X172968624Y-106767188D01*
X173036544Y-106603216D01*
X173135147Y-106455646D01*
X173260646Y-106330147D01*
X173408216Y-106231544D01*
X173572188Y-106163624D01*
X173721488Y-106133927D01*
X173746258Y-106129000D01*
X173923742Y-106129000D01*
X173948512Y-106133927D01*
G37*
G36*
X176488512Y-106133927D02*
G01*
X176637812Y-106163624D01*
X176801784Y-106231544D01*
X176949354Y-106330147D01*
X177074853Y-106455646D01*
X177173456Y-106603216D01*
X177241376Y-106767188D01*
X177276000Y-106941259D01*
X177276000Y-107118741D01*
X177241376Y-107292812D01*
X177173456Y-107456784D01*
X177074853Y-107604354D01*
X176949354Y-107729853D01*
X176801784Y-107828456D01*
X176637812Y-107896376D01*
X176488512Y-107926073D01*
X176463742Y-107931000D01*
X176286258Y-107931000D01*
X176261488Y-107926073D01*
X176112188Y-107896376D01*
X175948216Y-107828456D01*
X175800646Y-107729853D01*
X175675147Y-107604354D01*
X175576544Y-107456784D01*
X175508624Y-107292812D01*
X175474000Y-107118741D01*
X175474000Y-106941259D01*
X175508624Y-106767188D01*
X175576544Y-106603216D01*
X175675147Y-106455646D01*
X175800646Y-106330147D01*
X175948216Y-106231544D01*
X176112188Y-106163624D01*
X176261488Y-106133927D01*
X176286258Y-106129000D01*
X176463742Y-106129000D01*
X176488512Y-106133927D01*
G37*
G36*
X176488512Y-103593927D02*
G01*
X176637812Y-103623624D01*
X176801784Y-103691544D01*
X176949354Y-103790147D01*
X177074853Y-103915646D01*
X177173456Y-104063216D01*
X177241376Y-104227188D01*
X177276000Y-104401259D01*
X177276000Y-104578741D01*
X177241376Y-104752812D01*
X177173456Y-104916784D01*
X177074853Y-105064354D01*
X176949354Y-105189853D01*
X176801784Y-105288456D01*
X176637812Y-105356376D01*
X176488512Y-105386073D01*
X176463742Y-105391000D01*
X176286258Y-105391000D01*
X176261488Y-105386073D01*
X176112188Y-105356376D01*
X175948216Y-105288456D01*
X175800646Y-105189853D01*
X175675147Y-105064354D01*
X175576544Y-104916784D01*
X175508624Y-104752812D01*
X175474000Y-104578741D01*
X175474000Y-104401259D01*
X175508624Y-104227188D01*
X175576544Y-104063216D01*
X175675147Y-103915646D01*
X175800646Y-103790147D01*
X175948216Y-103691544D01*
X176112188Y-103623624D01*
X176261488Y-103593927D01*
X176286258Y-103589000D01*
X176463742Y-103589000D01*
X176488512Y-103593927D01*
G37*
G36*
X173948512Y-103593927D02*
G01*
X174097812Y-103623624D01*
X174261784Y-103691544D01*
X174409354Y-103790147D01*
X174534853Y-103915646D01*
X174633456Y-104063216D01*
X174701376Y-104227188D01*
X174736000Y-104401259D01*
X174736000Y-104578741D01*
X174701376Y-104752812D01*
X174633456Y-104916784D01*
X174534853Y-105064354D01*
X174409354Y-105189853D01*
X174261784Y-105288456D01*
X174097812Y-105356376D01*
X173948512Y-105386073D01*
X173923742Y-105391000D01*
X173746258Y-105391000D01*
X173721488Y-105386073D01*
X173572188Y-105356376D01*
X173408216Y-105288456D01*
X173260646Y-105189853D01*
X173135147Y-105064354D01*
X173036544Y-104916784D01*
X172968624Y-104752812D01*
X172934000Y-104578741D01*
X172934000Y-104401259D01*
X172968624Y-104227188D01*
X173036544Y-104063216D01*
X173135147Y-103915646D01*
X173260646Y-103790147D01*
X173408216Y-103691544D01*
X173572188Y-103623624D01*
X173721488Y-103593927D01*
X173746258Y-103589000D01*
X173923742Y-103589000D01*
X173948512Y-103593927D01*
G37*
G36*
X173948512Y-101053927D02*
G01*
X174097812Y-101083624D01*
X174261784Y-101151544D01*
X174409354Y-101250147D01*
X174534853Y-101375646D01*
X174633456Y-101523216D01*
X174701376Y-101687188D01*
X174736000Y-101861259D01*
X174736000Y-102038741D01*
X174701376Y-102212812D01*
X174633456Y-102376784D01*
X174534853Y-102524354D01*
X174409354Y-102649853D01*
X174261784Y-102748456D01*
X174097812Y-102816376D01*
X173948512Y-102846073D01*
X173923742Y-102851000D01*
X173746258Y-102851000D01*
X173721488Y-102846073D01*
X173572188Y-102816376D01*
X173408216Y-102748456D01*
X173260646Y-102649853D01*
X173135147Y-102524354D01*
X173036544Y-102376784D01*
X172968624Y-102212812D01*
X172934000Y-102038741D01*
X172934000Y-101861259D01*
X172968624Y-101687188D01*
X173036544Y-101523216D01*
X173135147Y-101375646D01*
X173260646Y-101250147D01*
X173408216Y-101151544D01*
X173572188Y-101083624D01*
X173721488Y-101053927D01*
X173746258Y-101049000D01*
X173923742Y-101049000D01*
X173948512Y-101053927D01*
G37*
G36*
X176488512Y-101053927D02*
G01*
X176637812Y-101083624D01*
X176801784Y-101151544D01*
X176949354Y-101250147D01*
X177074853Y-101375646D01*
X177173456Y-101523216D01*
X177241376Y-101687188D01*
X177276000Y-101861259D01*
X177276000Y-102038741D01*
X177241376Y-102212812D01*
X177173456Y-102376784D01*
X177074853Y-102524354D01*
X176949354Y-102649853D01*
X176801784Y-102748456D01*
X176637812Y-102816376D01*
X176488512Y-102846073D01*
X176463742Y-102851000D01*
X176286258Y-102851000D01*
X176261488Y-102846073D01*
X176112188Y-102816376D01*
X175948216Y-102748456D01*
X175800646Y-102649853D01*
X175675147Y-102524354D01*
X175576544Y-102376784D01*
X175508624Y-102212812D01*
X175474000Y-102038741D01*
X175474000Y-101861259D01*
X175508624Y-101687188D01*
X175576544Y-101523216D01*
X175675147Y-101375646D01*
X175800646Y-101250147D01*
X175948216Y-101151544D01*
X176112188Y-101083624D01*
X176261488Y-101053927D01*
X176286258Y-101049000D01*
X176463742Y-101049000D01*
X176488512Y-101053927D01*
G37*
G36*
X147478938Y-100122716D02*
G01*
X147499557Y-100128971D01*
X147518553Y-100139124D01*
X147535208Y-100152792D01*
X147548876Y-100169447D01*
X147559029Y-100188443D01*
X147565284Y-100209062D01*
X147568000Y-100236640D01*
X147568000Y-100695360D01*
X147565284Y-100722938D01*
X147559029Y-100743557D01*
X147548876Y-100762553D01*
X147535208Y-100779208D01*
X147518553Y-100792876D01*
X147499557Y-100803029D01*
X147478938Y-100809284D01*
X147451360Y-100812000D01*
X146942640Y-100812000D01*
X146915062Y-100809284D01*
X146894443Y-100803029D01*
X146875447Y-100792876D01*
X146858792Y-100779208D01*
X146845124Y-100762553D01*
X146834971Y-100743557D01*
X146828716Y-100722938D01*
X146826000Y-100695360D01*
X146826000Y-100236640D01*
X146828716Y-100209062D01*
X146834971Y-100188443D01*
X146845124Y-100169447D01*
X146858792Y-100152792D01*
X146875447Y-100139124D01*
X146894443Y-100128971D01*
X146915062Y-100122716D01*
X146942640Y-100120000D01*
X147451360Y-100120000D01*
X147478938Y-100122716D01*
G37*
G36*
X151669938Y-100122716D02*
G01*
X151690557Y-100128971D01*
X151709553Y-100139124D01*
X151726208Y-100152792D01*
X151739876Y-100169447D01*
X151750029Y-100188443D01*
X151756284Y-100209062D01*
X151759000Y-100236640D01*
X151759000Y-100695360D01*
X151756284Y-100722938D01*
X151750029Y-100743557D01*
X151739876Y-100762553D01*
X151726208Y-100779208D01*
X151709553Y-100792876D01*
X151690557Y-100803029D01*
X151669938Y-100809284D01*
X151642360Y-100812000D01*
X151133640Y-100812000D01*
X151106062Y-100809284D01*
X151085443Y-100803029D01*
X151066447Y-100792876D01*
X151049792Y-100779208D01*
X151036124Y-100762553D01*
X151025971Y-100743557D01*
X151019716Y-100722938D01*
X151017000Y-100695360D01*
X151017000Y-100236640D01*
X151019716Y-100209062D01*
X151025971Y-100188443D01*
X151036124Y-100169447D01*
X151049792Y-100152792D01*
X151066447Y-100139124D01*
X151085443Y-100128971D01*
X151106062Y-100122716D01*
X151133640Y-100120000D01*
X151642360Y-100120000D01*
X151669938Y-100122716D01*
G37*
G36*
X176488512Y-98513927D02*
G01*
X176637812Y-98543624D01*
X176801784Y-98611544D01*
X176949354Y-98710147D01*
X177074853Y-98835646D01*
X177173456Y-98983216D01*
X177241376Y-99147188D01*
X177259650Y-99239062D01*
X177275642Y-99319456D01*
X177276000Y-99321259D01*
X177276000Y-99498741D01*
X177241376Y-99672812D01*
X177173456Y-99836784D01*
X177074853Y-99984354D01*
X176949354Y-100109853D01*
X176801784Y-100208456D01*
X176637812Y-100276376D01*
X176488512Y-100306073D01*
X176463742Y-100311000D01*
X176286258Y-100311000D01*
X176261488Y-100306073D01*
X176112188Y-100276376D01*
X175948216Y-100208456D01*
X175800646Y-100109853D01*
X175675147Y-99984354D01*
X175576544Y-99836784D01*
X175508624Y-99672812D01*
X175474000Y-99498741D01*
X175474000Y-99321259D01*
X175474359Y-99319456D01*
X175490350Y-99239062D01*
X175508624Y-99147188D01*
X175576544Y-98983216D01*
X175675147Y-98835646D01*
X175800646Y-98710147D01*
X175948216Y-98611544D01*
X176112188Y-98543624D01*
X176261488Y-98513927D01*
X176286258Y-98509000D01*
X176463742Y-98509000D01*
X176488512Y-98513927D01*
G37*
G36*
X173948512Y-98513927D02*
G01*
X174097812Y-98543624D01*
X174261784Y-98611544D01*
X174409354Y-98710147D01*
X174534853Y-98835646D01*
X174633456Y-98983216D01*
X174701376Y-99147188D01*
X174719650Y-99239062D01*
X174735642Y-99319456D01*
X174736000Y-99321259D01*
X174736000Y-99498741D01*
X174701376Y-99672812D01*
X174633456Y-99836784D01*
X174534853Y-99984354D01*
X174409354Y-100109853D01*
X174261784Y-100208456D01*
X174097812Y-100276376D01*
X173948512Y-100306073D01*
X173923742Y-100311000D01*
X173746258Y-100311000D01*
X173721488Y-100306073D01*
X173572188Y-100276376D01*
X173408216Y-100208456D01*
X173260646Y-100109853D01*
X173135147Y-99984354D01*
X173036544Y-99836784D01*
X172968624Y-99672812D01*
X172934000Y-99498741D01*
X172934000Y-99321259D01*
X172934359Y-99319456D01*
X172950350Y-99239062D01*
X172968624Y-99147188D01*
X173036544Y-98983216D01*
X173135147Y-98835646D01*
X173260646Y-98710147D01*
X173408216Y-98611544D01*
X173572188Y-98543624D01*
X173721488Y-98513927D01*
X173746258Y-98509000D01*
X173923742Y-98509000D01*
X173948512Y-98513927D01*
G37*
G36*
X151669938Y-99152716D02*
G01*
X151690557Y-99158971D01*
X151709553Y-99169124D01*
X151726208Y-99182792D01*
X151739876Y-99199447D01*
X151750029Y-99218443D01*
X151756284Y-99239062D01*
X151759000Y-99266640D01*
X151759000Y-99725360D01*
X151756284Y-99752938D01*
X151750029Y-99773557D01*
X151739876Y-99792553D01*
X151726208Y-99809208D01*
X151709553Y-99822876D01*
X151690557Y-99833029D01*
X151669938Y-99839284D01*
X151642360Y-99842000D01*
X151133640Y-99842000D01*
X151106062Y-99839284D01*
X151085443Y-99833029D01*
X151066447Y-99822876D01*
X151049792Y-99809208D01*
X151036124Y-99792553D01*
X151025971Y-99773557D01*
X151019716Y-99752938D01*
X151017000Y-99725360D01*
X151017000Y-99266640D01*
X151019716Y-99239062D01*
X151025971Y-99218443D01*
X151036124Y-99199447D01*
X151049792Y-99182792D01*
X151066447Y-99169124D01*
X151085443Y-99158971D01*
X151106062Y-99152716D01*
X151133640Y-99150000D01*
X151642360Y-99150000D01*
X151669938Y-99152716D01*
G37*
G36*
X147478938Y-99152716D02*
G01*
X147499557Y-99158971D01*
X147518553Y-99169124D01*
X147535208Y-99182792D01*
X147548876Y-99199447D01*
X147559029Y-99218443D01*
X147565284Y-99239062D01*
X147568000Y-99266640D01*
X147568000Y-99725360D01*
X147565284Y-99752938D01*
X147559029Y-99773557D01*
X147548876Y-99792553D01*
X147535208Y-99809208D01*
X147518553Y-99822876D01*
X147499557Y-99833029D01*
X147478938Y-99839284D01*
X147451360Y-99842000D01*
X146942640Y-99842000D01*
X146915062Y-99839284D01*
X146894443Y-99833029D01*
X146875447Y-99822876D01*
X146858792Y-99809208D01*
X146845124Y-99792553D01*
X146834971Y-99773557D01*
X146828716Y-99752938D01*
X146826000Y-99725360D01*
X146826000Y-99266640D01*
X146828716Y-99239062D01*
X146834971Y-99218443D01*
X146845124Y-99199447D01*
X146858792Y-99182792D01*
X146875447Y-99169124D01*
X146894443Y-99158971D01*
X146915062Y-99152716D01*
X146942640Y-99150000D01*
X147451360Y-99150000D01*
X147478938Y-99152716D01*
G37*
G36*
X135873000Y-99422000D02*
G01*
X134071000Y-99422000D01*
X134071000Y-97620000D01*
X135873000Y-97620000D01*
X135873000Y-99422000D01*
G37*
G36*
X132545512Y-97624927D02*
G01*
X132694812Y-97654624D01*
X132858784Y-97722544D01*
X133006354Y-97821147D01*
X133131853Y-97946646D01*
X133230456Y-98094216D01*
X133298376Y-98258188D01*
X133328073Y-98407488D01*
X133333000Y-98432258D01*
X133333000Y-98609742D01*
X133328073Y-98634512D01*
X133298376Y-98783812D01*
X133230456Y-98947784D01*
X133131853Y-99095354D01*
X133006354Y-99220853D01*
X132858784Y-99319456D01*
X132694812Y-99387376D01*
X132545512Y-99417073D01*
X132520742Y-99422000D01*
X132343258Y-99422000D01*
X132318488Y-99417073D01*
X132169188Y-99387376D01*
X132005216Y-99319456D01*
X131857646Y-99220853D01*
X131732147Y-99095354D01*
X131633544Y-98947784D01*
X131565624Y-98783812D01*
X131535927Y-98634512D01*
X131531000Y-98609742D01*
X131531000Y-98432258D01*
X131535927Y-98407488D01*
X131565624Y-98258188D01*
X131633544Y-98094216D01*
X131732147Y-97946646D01*
X131857646Y-97821147D01*
X132005216Y-97722544D01*
X132169188Y-97654624D01*
X132318488Y-97624927D01*
X132343258Y-97620000D01*
X132520742Y-97620000D01*
X132545512Y-97624927D01*
G37*
G36*
X152366000Y-98209000D02*
G01*
X150364000Y-98209000D01*
X150364000Y-95707000D01*
X152366000Y-95707000D01*
X152366000Y-98209000D01*
G37*
G36*
X148266000Y-98209000D02*
G01*
X146264000Y-98209000D01*
X146264000Y-95707000D01*
X148266000Y-95707000D01*
X148266000Y-98209000D01*
G37*
G36*
X173948512Y-95973927D02*
G01*
X174097812Y-96003624D01*
X174261784Y-96071544D01*
X174409354Y-96170147D01*
X174534853Y-96295646D01*
X174633456Y-96443216D01*
X174701376Y-96607188D01*
X174731073Y-96756488D01*
X174735642Y-96779456D01*
X174736000Y-96781259D01*
X174736000Y-96958741D01*
X174701376Y-97132812D01*
X174633456Y-97296784D01*
X174534853Y-97444354D01*
X174409354Y-97569853D01*
X174261784Y-97668456D01*
X174097812Y-97736376D01*
X173948512Y-97766073D01*
X173923742Y-97771000D01*
X173746258Y-97771000D01*
X173721488Y-97766073D01*
X173572188Y-97736376D01*
X173408216Y-97668456D01*
X173260646Y-97569853D01*
X173135147Y-97444354D01*
X173036544Y-97296784D01*
X172968624Y-97132812D01*
X172934000Y-96958741D01*
X172934000Y-96781259D01*
X172934359Y-96779456D01*
X172938927Y-96756488D01*
X172968624Y-96607188D01*
X173036544Y-96443216D01*
X173135147Y-96295646D01*
X173260646Y-96170147D01*
X173408216Y-96071544D01*
X173572188Y-96003624D01*
X173721488Y-95973927D01*
X173746258Y-95969000D01*
X173923742Y-95969000D01*
X173948512Y-95973927D01*
G37*
G36*
X176488512Y-95973927D02*
G01*
X176637812Y-96003624D01*
X176801784Y-96071544D01*
X176949354Y-96170147D01*
X177074853Y-96295646D01*
X177173456Y-96443216D01*
X177241376Y-96607188D01*
X177271073Y-96756488D01*
X177275642Y-96779456D01*
X177276000Y-96781259D01*
X177276000Y-96958741D01*
X177241376Y-97132812D01*
X177173456Y-97296784D01*
X177074853Y-97444354D01*
X176949354Y-97569853D01*
X176801784Y-97668456D01*
X176637812Y-97736376D01*
X176488512Y-97766073D01*
X176463742Y-97771000D01*
X176286258Y-97771000D01*
X176261488Y-97766073D01*
X176112188Y-97736376D01*
X175948216Y-97668456D01*
X175800646Y-97569853D01*
X175675147Y-97444354D01*
X175576544Y-97296784D01*
X175508624Y-97132812D01*
X175474000Y-96958741D01*
X175474000Y-96781259D01*
X175474359Y-96779456D01*
X175478927Y-96756488D01*
X175508624Y-96607188D01*
X175576544Y-96443216D01*
X175675147Y-96295646D01*
X175800646Y-96170147D01*
X175948216Y-96071544D01*
X176112188Y-96003624D01*
X176261488Y-95973927D01*
X176286258Y-95969000D01*
X176463742Y-95969000D01*
X176488512Y-95973927D01*
G37*
G36*
X132545512Y-95084927D02*
G01*
X132694812Y-95114624D01*
X132858784Y-95182544D01*
X133006354Y-95281147D01*
X133131853Y-95406646D01*
X133230456Y-95554216D01*
X133298376Y-95718188D01*
X133328073Y-95867488D01*
X133333000Y-95892258D01*
X133333000Y-96069742D01*
X133328073Y-96094512D01*
X133298376Y-96243812D01*
X133230456Y-96407784D01*
X133131853Y-96555354D01*
X133006354Y-96680853D01*
X132858784Y-96779456D01*
X132694812Y-96847376D01*
X132545512Y-96877073D01*
X132520742Y-96882000D01*
X132343258Y-96882000D01*
X132318488Y-96877073D01*
X132169188Y-96847376D01*
X132005216Y-96779456D01*
X131857646Y-96680853D01*
X131732147Y-96555354D01*
X131633544Y-96407784D01*
X131565624Y-96243812D01*
X131535927Y-96094512D01*
X131531000Y-96069742D01*
X131531000Y-95892258D01*
X131535927Y-95867488D01*
X131565624Y-95718188D01*
X131633544Y-95554216D01*
X131732147Y-95406646D01*
X131857646Y-95281147D01*
X132005216Y-95182544D01*
X132169188Y-95114624D01*
X132318488Y-95084927D01*
X132343258Y-95080000D01*
X132520742Y-95080000D01*
X132545512Y-95084927D01*
G37*
G36*
X135085512Y-95084927D02*
G01*
X135234812Y-95114624D01*
X135398784Y-95182544D01*
X135546354Y-95281147D01*
X135671853Y-95406646D01*
X135770456Y-95554216D01*
X135838376Y-95718188D01*
X135868073Y-95867488D01*
X135873000Y-95892258D01*
X135873000Y-96069742D01*
X135868073Y-96094512D01*
X135838376Y-96243812D01*
X135770456Y-96407784D01*
X135671853Y-96555354D01*
X135546354Y-96680853D01*
X135398784Y-96779456D01*
X135234812Y-96847376D01*
X135085512Y-96877073D01*
X135060742Y-96882000D01*
X134883258Y-96882000D01*
X134858488Y-96877073D01*
X134709188Y-96847376D01*
X134545216Y-96779456D01*
X134397646Y-96680853D01*
X134272147Y-96555354D01*
X134173544Y-96407784D01*
X134105624Y-96243812D01*
X134075927Y-96094512D01*
X134071000Y-96069742D01*
X134071000Y-95892258D01*
X134075927Y-95867488D01*
X134105624Y-95718188D01*
X134173544Y-95554216D01*
X134272147Y-95406646D01*
X134397646Y-95281147D01*
X134545216Y-95182544D01*
X134709188Y-95114624D01*
X134858488Y-95084927D01*
X134883258Y-95080000D01*
X135060742Y-95080000D01*
X135085512Y-95084927D01*
G37*
G36*
X173948512Y-93433927D02*
G01*
X174097812Y-93463624D01*
X174261784Y-93531544D01*
X174409354Y-93630147D01*
X174534853Y-93755646D01*
X174633456Y-93903216D01*
X174701376Y-94067188D01*
X174731073Y-94216488D01*
X174735642Y-94239456D01*
X174736000Y-94241259D01*
X174736000Y-94418741D01*
X174701376Y-94592812D01*
X174633456Y-94756784D01*
X174534853Y-94904354D01*
X174409354Y-95029853D01*
X174261784Y-95128456D01*
X174097812Y-95196376D01*
X173948512Y-95226073D01*
X173923742Y-95231000D01*
X173746258Y-95231000D01*
X173721488Y-95226073D01*
X173572188Y-95196376D01*
X173408216Y-95128456D01*
X173260646Y-95029853D01*
X173135147Y-94904354D01*
X173036544Y-94756784D01*
X172968624Y-94592812D01*
X172934000Y-94418741D01*
X172934000Y-94241259D01*
X172934359Y-94239456D01*
X172938927Y-94216488D01*
X172968624Y-94067188D01*
X173036544Y-93903216D01*
X173135147Y-93755646D01*
X173260646Y-93630147D01*
X173408216Y-93531544D01*
X173572188Y-93463624D01*
X173721488Y-93433927D01*
X173746258Y-93429000D01*
X173923742Y-93429000D01*
X173948512Y-93433927D01*
G37*
G36*
X176488512Y-93433927D02*
G01*
X176637812Y-93463624D01*
X176801784Y-93531544D01*
X176949354Y-93630147D01*
X177074853Y-93755646D01*
X177173456Y-93903216D01*
X177241376Y-94067188D01*
X177271073Y-94216488D01*
X177275642Y-94239456D01*
X177276000Y-94241259D01*
X177276000Y-94418741D01*
X177241376Y-94592812D01*
X177173456Y-94756784D01*
X177074853Y-94904354D01*
X176949354Y-95029853D01*
X176801784Y-95128456D01*
X176637812Y-95196376D01*
X176488512Y-95226073D01*
X176463742Y-95231000D01*
X176286258Y-95231000D01*
X176261488Y-95226073D01*
X176112188Y-95196376D01*
X175948216Y-95128456D01*
X175800646Y-95029853D01*
X175675147Y-94904354D01*
X175576544Y-94756784D01*
X175508624Y-94592812D01*
X175474000Y-94418741D01*
X175474000Y-94241259D01*
X175474359Y-94239456D01*
X175478927Y-94216488D01*
X175508624Y-94067188D01*
X175576544Y-93903216D01*
X175675147Y-93755646D01*
X175800646Y-93630147D01*
X175948216Y-93531544D01*
X176112188Y-93463624D01*
X176261488Y-93433927D01*
X176286258Y-93429000D01*
X176463742Y-93429000D01*
X176488512Y-93433927D01*
G37*
G36*
X132545512Y-92544927D02*
G01*
X132694812Y-92574624D01*
X132858784Y-92642544D01*
X133006354Y-92741147D01*
X133131853Y-92866646D01*
X133230456Y-93014216D01*
X133298376Y-93178188D01*
X133325462Y-93314360D01*
X133333000Y-93352258D01*
X133333000Y-93529742D01*
X133328073Y-93554512D01*
X133298376Y-93703812D01*
X133230456Y-93867784D01*
X133131853Y-94015354D01*
X133006354Y-94140853D01*
X132858784Y-94239456D01*
X132694812Y-94307376D01*
X132545512Y-94337073D01*
X132520742Y-94342000D01*
X132343258Y-94342000D01*
X132318488Y-94337073D01*
X132169188Y-94307376D01*
X132005216Y-94239456D01*
X131857646Y-94140853D01*
X131732147Y-94015354D01*
X131633544Y-93867784D01*
X131565624Y-93703812D01*
X131535927Y-93554512D01*
X131531000Y-93529742D01*
X131531000Y-93352258D01*
X131538538Y-93314360D01*
X131565624Y-93178188D01*
X131633544Y-93014216D01*
X131732147Y-92866646D01*
X131857646Y-92741147D01*
X132005216Y-92642544D01*
X132169188Y-92574624D01*
X132318488Y-92544927D01*
X132343258Y-92540000D01*
X132520742Y-92540000D01*
X132545512Y-92544927D01*
G37*
G36*
X135085512Y-92544927D02*
G01*
X135234812Y-92574624D01*
X135398784Y-92642544D01*
X135546354Y-92741147D01*
X135671853Y-92866646D01*
X135770456Y-93014216D01*
X135838376Y-93178188D01*
X135865462Y-93314360D01*
X135873000Y-93352258D01*
X135873000Y-93529742D01*
X135868073Y-93554512D01*
X135838376Y-93703812D01*
X135770456Y-93867784D01*
X135671853Y-94015354D01*
X135546354Y-94140853D01*
X135398784Y-94239456D01*
X135234812Y-94307376D01*
X135085512Y-94337073D01*
X135060742Y-94342000D01*
X134883258Y-94342000D01*
X134858488Y-94337073D01*
X134709188Y-94307376D01*
X134545216Y-94239456D01*
X134397646Y-94140853D01*
X134272147Y-94015354D01*
X134173544Y-93867784D01*
X134105624Y-93703812D01*
X134075927Y-93554512D01*
X134071000Y-93529742D01*
X134071000Y-93352258D01*
X134078538Y-93314360D01*
X134105624Y-93178188D01*
X134173544Y-93014216D01*
X134272147Y-92866646D01*
X134397646Y-92741147D01*
X134545216Y-92642544D01*
X134709188Y-92574624D01*
X134858488Y-92544927D01*
X134883258Y-92540000D01*
X135060742Y-92540000D01*
X135085512Y-92544927D01*
G37*
G36*
X151135938Y-92691716D02*
G01*
X151156557Y-92697971D01*
X151175553Y-92708124D01*
X151192208Y-92721792D01*
X151205876Y-92738447D01*
X151216029Y-92757443D01*
X151222284Y-92778062D01*
X151225000Y-92805640D01*
X151225000Y-93314360D01*
X151222284Y-93341938D01*
X151216029Y-93362557D01*
X151205876Y-93381553D01*
X151192208Y-93398208D01*
X151175553Y-93411876D01*
X151156557Y-93422029D01*
X151135938Y-93428284D01*
X151108360Y-93431000D01*
X150649640Y-93431000D01*
X150622062Y-93428284D01*
X150601443Y-93422029D01*
X150582447Y-93411876D01*
X150565792Y-93398208D01*
X150552124Y-93381553D01*
X150541971Y-93362557D01*
X150535716Y-93341938D01*
X150533000Y-93314360D01*
X150533000Y-92805640D01*
X150535716Y-92778062D01*
X150541971Y-92757443D01*
X150552124Y-92738447D01*
X150565792Y-92721792D01*
X150582447Y-92708124D01*
X150601443Y-92697971D01*
X150622062Y-92691716D01*
X150649640Y-92689000D01*
X151108360Y-92689000D01*
X151135938Y-92691716D01*
G37*
G36*
X150165938Y-92691716D02*
G01*
X150186557Y-92697971D01*
X150205553Y-92708124D01*
X150222208Y-92721792D01*
X150235876Y-92738447D01*
X150246029Y-92757443D01*
X150252284Y-92778062D01*
X150255000Y-92805640D01*
X150255000Y-93314360D01*
X150252284Y-93341938D01*
X150246029Y-93362557D01*
X150235876Y-93381553D01*
X150222208Y-93398208D01*
X150205553Y-93411876D01*
X150186557Y-93422029D01*
X150165938Y-93428284D01*
X150138360Y-93431000D01*
X149679640Y-93431000D01*
X149652062Y-93428284D01*
X149631443Y-93422029D01*
X149612447Y-93411876D01*
X149595792Y-93398208D01*
X149582124Y-93381553D01*
X149571971Y-93362557D01*
X149565716Y-93341938D01*
X149563000Y-93314360D01*
X149563000Y-92805640D01*
X149565716Y-92778062D01*
X149571971Y-92757443D01*
X149582124Y-92738447D01*
X149595792Y-92721792D01*
X149612447Y-92708124D01*
X149631443Y-92697971D01*
X149652062Y-92691716D01*
X149679640Y-92689000D01*
X150138360Y-92689000D01*
X150165938Y-92691716D01*
G37*
G36*
X173948512Y-90893927D02*
G01*
X174097812Y-90923624D01*
X174261784Y-90991544D01*
X174409354Y-91090147D01*
X174534853Y-91215646D01*
X174633456Y-91363216D01*
X174701376Y-91527188D01*
X174736000Y-91701259D01*
X174736000Y-91878741D01*
X174701376Y-92052812D01*
X174633456Y-92216784D01*
X174534853Y-92364354D01*
X174409354Y-92489853D01*
X174261784Y-92588456D01*
X174097812Y-92656376D01*
X173948512Y-92686073D01*
X173923742Y-92691000D01*
X173746258Y-92691000D01*
X173721488Y-92686073D01*
X173572188Y-92656376D01*
X173408216Y-92588456D01*
X173260646Y-92489853D01*
X173135147Y-92364354D01*
X173036544Y-92216784D01*
X172968624Y-92052812D01*
X172934000Y-91878741D01*
X172934000Y-91701259D01*
X172968624Y-91527188D01*
X173036544Y-91363216D01*
X173135147Y-91215646D01*
X173260646Y-91090147D01*
X173408216Y-90991544D01*
X173572188Y-90923624D01*
X173721488Y-90893927D01*
X173746258Y-90889000D01*
X173923742Y-90889000D01*
X173948512Y-90893927D01*
G37*
G36*
X176488512Y-90893927D02*
G01*
X176637812Y-90923624D01*
X176801784Y-90991544D01*
X176949354Y-91090147D01*
X177074853Y-91215646D01*
X177173456Y-91363216D01*
X177241376Y-91527188D01*
X177276000Y-91701259D01*
X177276000Y-91878741D01*
X177241376Y-92052812D01*
X177173456Y-92216784D01*
X177074853Y-92364354D01*
X176949354Y-92489853D01*
X176801784Y-92588456D01*
X176637812Y-92656376D01*
X176488512Y-92686073D01*
X176463742Y-92691000D01*
X176286258Y-92691000D01*
X176261488Y-92686073D01*
X176112188Y-92656376D01*
X175948216Y-92588456D01*
X175800646Y-92489853D01*
X175675147Y-92364354D01*
X175576544Y-92216784D01*
X175508624Y-92052812D01*
X175474000Y-91878741D01*
X175474000Y-91701259D01*
X175508624Y-91527188D01*
X175576544Y-91363216D01*
X175675147Y-91215646D01*
X175800646Y-91090147D01*
X175948216Y-90991544D01*
X176112188Y-90923624D01*
X176261488Y-90893927D01*
X176286258Y-90889000D01*
X176463742Y-90889000D01*
X176488512Y-90893927D01*
G37*
G36*
X159241000Y-91956000D02*
G01*
X146589000Y-91956000D01*
X146589000Y-90354000D01*
X159241000Y-90354000D01*
X159241000Y-91956000D01*
G37*
G36*
X132203938Y-90659716D02*
G01*
X132224557Y-90665971D01*
X132243553Y-90676124D01*
X132260208Y-90689792D01*
X132273876Y-90706447D01*
X132284029Y-90725443D01*
X132290284Y-90746062D01*
X132293000Y-90773640D01*
X132293000Y-91282360D01*
X132290284Y-91309938D01*
X132284029Y-91330557D01*
X132273876Y-91349553D01*
X132260208Y-91366208D01*
X132243553Y-91379876D01*
X132224557Y-91390029D01*
X132203938Y-91396284D01*
X132176360Y-91399000D01*
X131717640Y-91399000D01*
X131690062Y-91396284D01*
X131669443Y-91390029D01*
X131650447Y-91379876D01*
X131633792Y-91366208D01*
X131620124Y-91349553D01*
X131609971Y-91330557D01*
X131603716Y-91309938D01*
X131601000Y-91282360D01*
X131601000Y-90773640D01*
X131603716Y-90746062D01*
X131609971Y-90725443D01*
X131620124Y-90706447D01*
X131633792Y-90689792D01*
X131650447Y-90676124D01*
X131669443Y-90665971D01*
X131690062Y-90659716D01*
X131717640Y-90657000D01*
X132176360Y-90657000D01*
X132203938Y-90659716D01*
G37*
G36*
X133173938Y-90659716D02*
G01*
X133194557Y-90665971D01*
X133213553Y-90676124D01*
X133230208Y-90689792D01*
X133243876Y-90706447D01*
X133254029Y-90725443D01*
X133260284Y-90746062D01*
X133263000Y-90773640D01*
X133263000Y-91282360D01*
X133260284Y-91309938D01*
X133254029Y-91330557D01*
X133243876Y-91349553D01*
X133230208Y-91366208D01*
X133213553Y-91379876D01*
X133194557Y-91390029D01*
X133173938Y-91396284D01*
X133146360Y-91399000D01*
X132687640Y-91399000D01*
X132660062Y-91396284D01*
X132639443Y-91390029D01*
X132620447Y-91379876D01*
X132603792Y-91366208D01*
X132590124Y-91349553D01*
X132579971Y-91330557D01*
X132573716Y-91309938D01*
X132571000Y-91282360D01*
X132571000Y-90773640D01*
X132573716Y-90746062D01*
X132579971Y-90725443D01*
X132590124Y-90706447D01*
X132603792Y-90689792D01*
X132620447Y-90676124D01*
X132639443Y-90665971D01*
X132660062Y-90659716D01*
X132687640Y-90657000D01*
X133146360Y-90657000D01*
X133173938Y-90659716D01*
G37*
G36*
X173948512Y-88353927D02*
G01*
X174097812Y-88383624D01*
X174261784Y-88451544D01*
X174409354Y-88550147D01*
X174534853Y-88675646D01*
X174633456Y-88823216D01*
X174701376Y-88987188D01*
X174736000Y-89161259D01*
X174736000Y-89338741D01*
X174701376Y-89512812D01*
X174633456Y-89676784D01*
X174534853Y-89824354D01*
X174409354Y-89949853D01*
X174261784Y-90048456D01*
X174097812Y-90116376D01*
X173948512Y-90146073D01*
X173923742Y-90151000D01*
X173746258Y-90151000D01*
X173721488Y-90146073D01*
X173572188Y-90116376D01*
X173408216Y-90048456D01*
X173260646Y-89949853D01*
X173135147Y-89824354D01*
X173036544Y-89676784D01*
X172968624Y-89512812D01*
X172934000Y-89338741D01*
X172934000Y-89161259D01*
X172968624Y-88987188D01*
X173036544Y-88823216D01*
X173135147Y-88675646D01*
X173260646Y-88550147D01*
X173408216Y-88451544D01*
X173572188Y-88383624D01*
X173721488Y-88353927D01*
X173746258Y-88349000D01*
X173923742Y-88349000D01*
X173948512Y-88353927D01*
G37*
G36*
X176488512Y-88353927D02*
G01*
X176637812Y-88383624D01*
X176801784Y-88451544D01*
X176949354Y-88550147D01*
X177074853Y-88675646D01*
X177173456Y-88823216D01*
X177241376Y-88987188D01*
X177276000Y-89161259D01*
X177276000Y-89338741D01*
X177241376Y-89512812D01*
X177173456Y-89676784D01*
X177074853Y-89824354D01*
X176949354Y-89949853D01*
X176801784Y-90048456D01*
X176637812Y-90116376D01*
X176488512Y-90146073D01*
X176463742Y-90151000D01*
X176286258Y-90151000D01*
X176261488Y-90146073D01*
X176112188Y-90116376D01*
X175948216Y-90048456D01*
X175800646Y-89949853D01*
X175675147Y-89824354D01*
X175576544Y-89676784D01*
X175508624Y-89512812D01*
X175474000Y-89338741D01*
X175474000Y-89161259D01*
X175508624Y-88987188D01*
X175576544Y-88823216D01*
X175675147Y-88675646D01*
X175800646Y-88550147D01*
X175948216Y-88451544D01*
X176112188Y-88383624D01*
X176261488Y-88353927D01*
X176286258Y-88349000D01*
X176463742Y-88349000D01*
X176488512Y-88353927D01*
G37*
G36*
X161416000Y-89781000D02*
G01*
X159814000Y-89781000D01*
X159814000Y-77129000D01*
X161416000Y-77129000D01*
X161416000Y-89781000D01*
G37*
G36*
X146016000Y-89781000D02*
G01*
X144414000Y-89781000D01*
X144414000Y-77129000D01*
X146016000Y-77129000D01*
X146016000Y-89781000D01*
G37*
G36*
X176488512Y-85813927D02*
G01*
X176637812Y-85843624D01*
X176801784Y-85911544D01*
X176949354Y-86010147D01*
X177074853Y-86135646D01*
X177173456Y-86283216D01*
X177241376Y-86447188D01*
X177276000Y-86621259D01*
X177276000Y-86798741D01*
X177241376Y-86972812D01*
X177173456Y-87136784D01*
X177074853Y-87284354D01*
X176949354Y-87409853D01*
X176801784Y-87508456D01*
X176637812Y-87576376D01*
X176488512Y-87606073D01*
X176463742Y-87611000D01*
X176286258Y-87611000D01*
X176261488Y-87606073D01*
X176112188Y-87576376D01*
X175948216Y-87508456D01*
X175800646Y-87409853D01*
X175675147Y-87284354D01*
X175576544Y-87136784D01*
X175508624Y-86972812D01*
X175474000Y-86798741D01*
X175474000Y-86621259D01*
X175508624Y-86447188D01*
X175576544Y-86283216D01*
X175675147Y-86135646D01*
X175800646Y-86010147D01*
X175948216Y-85911544D01*
X176112188Y-85843624D01*
X176261488Y-85813927D01*
X176286258Y-85809000D01*
X176463742Y-85809000D01*
X176488512Y-85813927D01*
G37*
G36*
X173948512Y-85813927D02*
G01*
X174097812Y-85843624D01*
X174261784Y-85911544D01*
X174409354Y-86010147D01*
X174534853Y-86135646D01*
X174633456Y-86283216D01*
X174701376Y-86447188D01*
X174736000Y-86621259D01*
X174736000Y-86798741D01*
X174701376Y-86972812D01*
X174633456Y-87136784D01*
X174534853Y-87284354D01*
X174409354Y-87409853D01*
X174261784Y-87508456D01*
X174097812Y-87576376D01*
X173948512Y-87606073D01*
X173923742Y-87611000D01*
X173746258Y-87611000D01*
X173721488Y-87606073D01*
X173572188Y-87576376D01*
X173408216Y-87508456D01*
X173260646Y-87409853D01*
X173135147Y-87284354D01*
X173036544Y-87136784D01*
X172968624Y-86972812D01*
X172934000Y-86798741D01*
X172934000Y-86621259D01*
X172968624Y-86447188D01*
X173036544Y-86283216D01*
X173135147Y-86135646D01*
X173260646Y-86010147D01*
X173408216Y-85911544D01*
X173572188Y-85843624D01*
X173721488Y-85813927D01*
X173746258Y-85809000D01*
X173923742Y-85809000D01*
X173948512Y-85813927D01*
G37*
G36*
X173948512Y-83273927D02*
G01*
X174097812Y-83303624D01*
X174261784Y-83371544D01*
X174409354Y-83470147D01*
X174534853Y-83595646D01*
X174633456Y-83743216D01*
X174701376Y-83907188D01*
X174736000Y-84081259D01*
X174736000Y-84258741D01*
X174701376Y-84432812D01*
X174633456Y-84596784D01*
X174534853Y-84744354D01*
X174409354Y-84869853D01*
X174261784Y-84968456D01*
X174097812Y-85036376D01*
X173948512Y-85066073D01*
X173923742Y-85071000D01*
X173746258Y-85071000D01*
X173721488Y-85066073D01*
X173572188Y-85036376D01*
X173408216Y-84968456D01*
X173260646Y-84869853D01*
X173135147Y-84744354D01*
X173036544Y-84596784D01*
X172968624Y-84432812D01*
X172934000Y-84258741D01*
X172934000Y-84081259D01*
X172968624Y-83907188D01*
X173036544Y-83743216D01*
X173135147Y-83595646D01*
X173260646Y-83470147D01*
X173408216Y-83371544D01*
X173572188Y-83303624D01*
X173721488Y-83273927D01*
X173746258Y-83269000D01*
X173923742Y-83269000D01*
X173948512Y-83273927D01*
G37*
G36*
X176488512Y-83273927D02*
G01*
X176637812Y-83303624D01*
X176801784Y-83371544D01*
X176949354Y-83470147D01*
X177074853Y-83595646D01*
X177173456Y-83743216D01*
X177241376Y-83907188D01*
X177276000Y-84081259D01*
X177276000Y-84258741D01*
X177241376Y-84432812D01*
X177173456Y-84596784D01*
X177074853Y-84744354D01*
X176949354Y-84869853D01*
X176801784Y-84968456D01*
X176637812Y-85036376D01*
X176488512Y-85066073D01*
X176463742Y-85071000D01*
X176286258Y-85071000D01*
X176261488Y-85066073D01*
X176112188Y-85036376D01*
X175948216Y-84968456D01*
X175800646Y-84869853D01*
X175675147Y-84744354D01*
X175576544Y-84596784D01*
X175508624Y-84432812D01*
X175474000Y-84258741D01*
X175474000Y-84081259D01*
X175508624Y-83907188D01*
X175576544Y-83743216D01*
X175675147Y-83595646D01*
X175800646Y-83470147D01*
X175948216Y-83371544D01*
X176112188Y-83303624D01*
X176261488Y-83273927D01*
X176286258Y-83269000D01*
X176463742Y-83269000D01*
X176488512Y-83273927D01*
G37*
G36*
X140814938Y-83041716D02*
G01*
X140835557Y-83047971D01*
X140854553Y-83058124D01*
X140871208Y-83071792D01*
X140884876Y-83088447D01*
X140895029Y-83107443D01*
X140901284Y-83128062D01*
X140904000Y-83155640D01*
X140904000Y-83614360D01*
X140901284Y-83641938D01*
X140895029Y-83662557D01*
X140884876Y-83681553D01*
X140871208Y-83698208D01*
X140854553Y-83711876D01*
X140835557Y-83722029D01*
X140814938Y-83728284D01*
X140787360Y-83731000D01*
X140278640Y-83731000D01*
X140251062Y-83728284D01*
X140230443Y-83722029D01*
X140211447Y-83711876D01*
X140194792Y-83698208D01*
X140181124Y-83681553D01*
X140170971Y-83662557D01*
X140164716Y-83641938D01*
X140162000Y-83614360D01*
X140162000Y-83155640D01*
X140164716Y-83128062D01*
X140170971Y-83107443D01*
X140181124Y-83088447D01*
X140194792Y-83071792D01*
X140211447Y-83058124D01*
X140230443Y-83047971D01*
X140251062Y-83041716D01*
X140278640Y-83039000D01*
X140787360Y-83039000D01*
X140814938Y-83041716D01*
G37*
G36*
X140814938Y-82071716D02*
G01*
X140835557Y-82077971D01*
X140854553Y-82088124D01*
X140871208Y-82101792D01*
X140884876Y-82118447D01*
X140895029Y-82137443D01*
X140901284Y-82158062D01*
X140904000Y-82185640D01*
X140904000Y-82644360D01*
X140901284Y-82671938D01*
X140895029Y-82692557D01*
X140884876Y-82711553D01*
X140871208Y-82728208D01*
X140854553Y-82741876D01*
X140835557Y-82752029D01*
X140814938Y-82758284D01*
X140787360Y-82761000D01*
X140278640Y-82761000D01*
X140251062Y-82758284D01*
X140230443Y-82752029D01*
X140211447Y-82741876D01*
X140194792Y-82728208D01*
X140181124Y-82711553D01*
X140170971Y-82692557D01*
X140164716Y-82671938D01*
X140162000Y-82644360D01*
X140162000Y-82185640D01*
X140164716Y-82158062D01*
X140170971Y-82137443D01*
X140181124Y-82118447D01*
X140194792Y-82101792D01*
X140211447Y-82088124D01*
X140230443Y-82077971D01*
X140251062Y-82071716D01*
X140278640Y-82069000D01*
X140787360Y-82069000D01*
X140814938Y-82071716D01*
G37*
G36*
X133982928Y-81993764D02*
G01*
X134004009Y-82000160D01*
X134023445Y-82010548D01*
X134040476Y-82024524D01*
X134054452Y-82041555D01*
X134064840Y-82060991D01*
X134071236Y-82082072D01*
X134074000Y-82110140D01*
X134074000Y-82573860D01*
X134071236Y-82601928D01*
X134064840Y-82623009D01*
X134054452Y-82642445D01*
X134040476Y-82659476D01*
X134023445Y-82673452D01*
X134004009Y-82683840D01*
X133982928Y-82690236D01*
X133954860Y-82693000D01*
X132141140Y-82693000D01*
X132113072Y-82690236D01*
X132091991Y-82683840D01*
X132072555Y-82673452D01*
X132055524Y-82659476D01*
X132041548Y-82642445D01*
X132031160Y-82623009D01*
X132024764Y-82601928D01*
X132022000Y-82573860D01*
X132022000Y-82110140D01*
X132024764Y-82082072D01*
X132031160Y-82060991D01*
X132041548Y-82041555D01*
X132055524Y-82024524D01*
X132072555Y-82010548D01*
X132091991Y-82000160D01*
X132113072Y-81993764D01*
X132141140Y-81991000D01*
X133954860Y-81991000D01*
X133982928Y-81993764D01*
G37*
G36*
X138932928Y-81993764D02*
G01*
X138954009Y-82000160D01*
X138973445Y-82010548D01*
X138990476Y-82024524D01*
X139004452Y-82041555D01*
X139014840Y-82060991D01*
X139021236Y-82082072D01*
X139024000Y-82110140D01*
X139024000Y-82573860D01*
X139021236Y-82601928D01*
X139014840Y-82623009D01*
X139004452Y-82642445D01*
X138990476Y-82659476D01*
X138973445Y-82673452D01*
X138954009Y-82683840D01*
X138932928Y-82690236D01*
X138904860Y-82693000D01*
X137091140Y-82693000D01*
X137063072Y-82690236D01*
X137041991Y-82683840D01*
X137022555Y-82673452D01*
X137005524Y-82659476D01*
X136991548Y-82642445D01*
X136981160Y-82623009D01*
X136974764Y-82601928D01*
X136972000Y-82573860D01*
X136972000Y-82110140D01*
X136974764Y-82082072D01*
X136981160Y-82060991D01*
X136991548Y-82041555D01*
X137005524Y-82024524D01*
X137022555Y-82010548D01*
X137041991Y-82000160D01*
X137063072Y-81993764D01*
X137091140Y-81991000D01*
X138904860Y-81991000D01*
X138932928Y-81993764D01*
G37*
G36*
X176488512Y-80733927D02*
G01*
X176637812Y-80763624D01*
X176801784Y-80831544D01*
X176949354Y-80930147D01*
X177074853Y-81055646D01*
X177173456Y-81203216D01*
X177241376Y-81367188D01*
X177276000Y-81541259D01*
X177276000Y-81718741D01*
X177241376Y-81892812D01*
X177173456Y-82056784D01*
X177074853Y-82204354D01*
X176949354Y-82329853D01*
X176801784Y-82428456D01*
X176637812Y-82496376D01*
X176488512Y-82526073D01*
X176463742Y-82531000D01*
X176286258Y-82531000D01*
X176261488Y-82526073D01*
X176112188Y-82496376D01*
X175948216Y-82428456D01*
X175800646Y-82329853D01*
X175675147Y-82204354D01*
X175576544Y-82056784D01*
X175508624Y-81892812D01*
X175474000Y-81718741D01*
X175474000Y-81541259D01*
X175508624Y-81367188D01*
X175576544Y-81203216D01*
X175675147Y-81055646D01*
X175800646Y-80930147D01*
X175948216Y-80831544D01*
X176112188Y-80763624D01*
X176261488Y-80733927D01*
X176286258Y-80729000D01*
X176463742Y-80729000D01*
X176488512Y-80733927D01*
G37*
G36*
X173948512Y-80733927D02*
G01*
X174097812Y-80763624D01*
X174261784Y-80831544D01*
X174409354Y-80930147D01*
X174534853Y-81055646D01*
X174633456Y-81203216D01*
X174701376Y-81367188D01*
X174736000Y-81541259D01*
X174736000Y-81718741D01*
X174701376Y-81892812D01*
X174633456Y-82056784D01*
X174534853Y-82204354D01*
X174409354Y-82329853D01*
X174261784Y-82428456D01*
X174097812Y-82496376D01*
X173948512Y-82526073D01*
X173923742Y-82531000D01*
X173746258Y-82531000D01*
X173721488Y-82526073D01*
X173572188Y-82496376D01*
X173408216Y-82428456D01*
X173260646Y-82329853D01*
X173135147Y-82204354D01*
X173036544Y-82056784D01*
X172968624Y-81892812D01*
X172934000Y-81718741D01*
X172934000Y-81541259D01*
X172968624Y-81367188D01*
X173036544Y-81203216D01*
X173135147Y-81055646D01*
X173260646Y-80930147D01*
X173408216Y-80831544D01*
X173572188Y-80763624D01*
X173721488Y-80733927D01*
X173746258Y-80729000D01*
X173923742Y-80729000D01*
X173948512Y-80733927D01*
G37*
G36*
X140814938Y-80755716D02*
G01*
X140835557Y-80761971D01*
X140854553Y-80772124D01*
X140871208Y-80785792D01*
X140884876Y-80802447D01*
X140895029Y-80821443D01*
X140901284Y-80842062D01*
X140904000Y-80869640D01*
X140904000Y-81328360D01*
X140901284Y-81355938D01*
X140895029Y-81376557D01*
X140884876Y-81395553D01*
X140871208Y-81412208D01*
X140854553Y-81425876D01*
X140835557Y-81436029D01*
X140814938Y-81442284D01*
X140787360Y-81445000D01*
X140278640Y-81445000D01*
X140251062Y-81442284D01*
X140230443Y-81436029D01*
X140211447Y-81425876D01*
X140194792Y-81412208D01*
X140181124Y-81395553D01*
X140170971Y-81376557D01*
X140164716Y-81355938D01*
X140162000Y-81328360D01*
X140162000Y-80869640D01*
X140164716Y-80842062D01*
X140170971Y-80821443D01*
X140181124Y-80802447D01*
X140194792Y-80785792D01*
X140211447Y-80772124D01*
X140230443Y-80761971D01*
X140251062Y-80755716D01*
X140278640Y-80753000D01*
X140787360Y-80753000D01*
X140814938Y-80755716D01*
G37*
G36*
X133982928Y-80723764D02*
G01*
X134004009Y-80730160D01*
X134023445Y-80740548D01*
X134040476Y-80754524D01*
X134054452Y-80771555D01*
X134064840Y-80790991D01*
X134071236Y-80812072D01*
X134074000Y-80840140D01*
X134074000Y-81303860D01*
X134071236Y-81331928D01*
X134064840Y-81353009D01*
X134054452Y-81372445D01*
X134040476Y-81389476D01*
X134023445Y-81403452D01*
X134004009Y-81413840D01*
X133982928Y-81420236D01*
X133954860Y-81423000D01*
X132141140Y-81423000D01*
X132113072Y-81420236D01*
X132091991Y-81413840D01*
X132072555Y-81403452D01*
X132055524Y-81389476D01*
X132041548Y-81372445D01*
X132031160Y-81353009D01*
X132024764Y-81331928D01*
X132022000Y-81303860D01*
X132022000Y-80840140D01*
X132024764Y-80812072D01*
X132031160Y-80790991D01*
X132041548Y-80771555D01*
X132055524Y-80754524D01*
X132072555Y-80740548D01*
X132091991Y-80730160D01*
X132113072Y-80723764D01*
X132141140Y-80721000D01*
X133954860Y-80721000D01*
X133982928Y-80723764D01*
G37*
G36*
X138932928Y-80723764D02*
G01*
X138954009Y-80730160D01*
X138973445Y-80740548D01*
X138990476Y-80754524D01*
X139004452Y-80771555D01*
X139014840Y-80790991D01*
X139021236Y-80812072D01*
X139024000Y-80840140D01*
X139024000Y-81303860D01*
X139021236Y-81331928D01*
X139014840Y-81353009D01*
X139004452Y-81372445D01*
X138990476Y-81389476D01*
X138973445Y-81403452D01*
X138954009Y-81413840D01*
X138932928Y-81420236D01*
X138904860Y-81423000D01*
X137091140Y-81423000D01*
X137063072Y-81420236D01*
X137041991Y-81413840D01*
X137022555Y-81403452D01*
X137005524Y-81389476D01*
X136991548Y-81372445D01*
X136981160Y-81353009D01*
X136974764Y-81331928D01*
X136972000Y-81303860D01*
X136972000Y-80840140D01*
X136974764Y-80812072D01*
X136981160Y-80790991D01*
X136991548Y-80771555D01*
X137005524Y-80754524D01*
X137022555Y-80740548D01*
X137041991Y-80730160D01*
X137063072Y-80723764D01*
X137091140Y-80721000D01*
X138904860Y-80721000D01*
X138932928Y-80723764D01*
G37*
G36*
X140814938Y-79785716D02*
G01*
X140835557Y-79791971D01*
X140854553Y-79802124D01*
X140871208Y-79815792D01*
X140884876Y-79832447D01*
X140895029Y-79851443D01*
X140901284Y-79872062D01*
X140904000Y-79899640D01*
X140904000Y-80358360D01*
X140901284Y-80385938D01*
X140895029Y-80406557D01*
X140884876Y-80425553D01*
X140871208Y-80442208D01*
X140854553Y-80455876D01*
X140835557Y-80466029D01*
X140814938Y-80472284D01*
X140787360Y-80475000D01*
X140278640Y-80475000D01*
X140251062Y-80472284D01*
X140230443Y-80466029D01*
X140211447Y-80455876D01*
X140194792Y-80442208D01*
X140181124Y-80425553D01*
X140170971Y-80406557D01*
X140164716Y-80385938D01*
X140162000Y-80358360D01*
X140162000Y-79899640D01*
X140164716Y-79872062D01*
X140170971Y-79851443D01*
X140181124Y-79832447D01*
X140194792Y-79815792D01*
X140211447Y-79802124D01*
X140230443Y-79791971D01*
X140251062Y-79785716D01*
X140278640Y-79783000D01*
X140787360Y-79783000D01*
X140814938Y-79785716D01*
G37*
G36*
X138932928Y-79453764D02*
G01*
X138954009Y-79460160D01*
X138973445Y-79470548D01*
X138990476Y-79484524D01*
X139004452Y-79501555D01*
X139014840Y-79520991D01*
X139021236Y-79542072D01*
X139024000Y-79570140D01*
X139024000Y-80033860D01*
X139021236Y-80061928D01*
X139014840Y-80083009D01*
X139004452Y-80102445D01*
X138990476Y-80119476D01*
X138973445Y-80133452D01*
X138954009Y-80143840D01*
X138932928Y-80150236D01*
X138904860Y-80153000D01*
X137091140Y-80153000D01*
X137063072Y-80150236D01*
X137041991Y-80143840D01*
X137022555Y-80133452D01*
X137005524Y-80119476D01*
X136991548Y-80102445D01*
X136981160Y-80083009D01*
X136974764Y-80061928D01*
X136972000Y-80033860D01*
X136972000Y-79570140D01*
X136974764Y-79542072D01*
X136981160Y-79520991D01*
X136991548Y-79501555D01*
X137005524Y-79484524D01*
X137022555Y-79470548D01*
X137041991Y-79460160D01*
X137063072Y-79453764D01*
X137091140Y-79451000D01*
X138904860Y-79451000D01*
X138932928Y-79453764D01*
G37*
G36*
X133982928Y-79453764D02*
G01*
X134004009Y-79460160D01*
X134023445Y-79470548D01*
X134040476Y-79484524D01*
X134054452Y-79501555D01*
X134064840Y-79520991D01*
X134071236Y-79542072D01*
X134074000Y-79570140D01*
X134074000Y-80033860D01*
X134071236Y-80061928D01*
X134064840Y-80083009D01*
X134054452Y-80102445D01*
X134040476Y-80119476D01*
X134023445Y-80133452D01*
X134004009Y-80143840D01*
X133982928Y-80150236D01*
X133954860Y-80153000D01*
X132141140Y-80153000D01*
X132113072Y-80150236D01*
X132091991Y-80143840D01*
X132072555Y-80133452D01*
X132055524Y-80119476D01*
X132041548Y-80102445D01*
X132031160Y-80083009D01*
X132024764Y-80061928D01*
X132022000Y-80033860D01*
X132022000Y-79570140D01*
X132024764Y-79542072D01*
X132031160Y-79520991D01*
X132041548Y-79501555D01*
X132055524Y-79484524D01*
X132072555Y-79470548D01*
X132091991Y-79460160D01*
X132113072Y-79453764D01*
X132141140Y-79451000D01*
X133954860Y-79451000D01*
X133982928Y-79453764D01*
G37*
G36*
X173948512Y-78193927D02*
G01*
X174097812Y-78223624D01*
X174261784Y-78291544D01*
X174409354Y-78390147D01*
X174534853Y-78515646D01*
X174633456Y-78663216D01*
X174701376Y-78827188D01*
X174736000Y-79001259D01*
X174736000Y-79178741D01*
X174701376Y-79352812D01*
X174633456Y-79516784D01*
X174534853Y-79664354D01*
X174409354Y-79789853D01*
X174261784Y-79888456D01*
X174097812Y-79956376D01*
X173948512Y-79986073D01*
X173923742Y-79991000D01*
X173746258Y-79991000D01*
X173721488Y-79986073D01*
X173572188Y-79956376D01*
X173408216Y-79888456D01*
X173260646Y-79789853D01*
X173135147Y-79664354D01*
X173036544Y-79516784D01*
X172968624Y-79352812D01*
X172934000Y-79178741D01*
X172934000Y-79001259D01*
X172968624Y-78827188D01*
X173036544Y-78663216D01*
X173135147Y-78515646D01*
X173260646Y-78390147D01*
X173408216Y-78291544D01*
X173572188Y-78223624D01*
X173721488Y-78193927D01*
X173746258Y-78189000D01*
X173923742Y-78189000D01*
X173948512Y-78193927D01*
G37*
G36*
X176488512Y-78193927D02*
G01*
X176637812Y-78223624D01*
X176801784Y-78291544D01*
X176949354Y-78390147D01*
X177074853Y-78515646D01*
X177173456Y-78663216D01*
X177241376Y-78827188D01*
X177276000Y-79001259D01*
X177276000Y-79178741D01*
X177241376Y-79352812D01*
X177173456Y-79516784D01*
X177074853Y-79664354D01*
X176949354Y-79789853D01*
X176801784Y-79888456D01*
X176637812Y-79956376D01*
X176488512Y-79986073D01*
X176463742Y-79991000D01*
X176286258Y-79991000D01*
X176261488Y-79986073D01*
X176112188Y-79956376D01*
X175948216Y-79888456D01*
X175800646Y-79789853D01*
X175675147Y-79664354D01*
X175576544Y-79516784D01*
X175508624Y-79352812D01*
X175474000Y-79178741D01*
X175474000Y-79001259D01*
X175508624Y-78827188D01*
X175576544Y-78663216D01*
X175675147Y-78515646D01*
X175800646Y-78390147D01*
X175948216Y-78291544D01*
X176112188Y-78223624D01*
X176261488Y-78193927D01*
X176286258Y-78189000D01*
X176463742Y-78189000D01*
X176488512Y-78193927D01*
G37*
G36*
X138932928Y-78183764D02*
G01*
X138954009Y-78190160D01*
X138973445Y-78200548D01*
X138990476Y-78214524D01*
X139004452Y-78231555D01*
X139014840Y-78250991D01*
X139021236Y-78272072D01*
X139024000Y-78300140D01*
X139024000Y-78763860D01*
X139021236Y-78791928D01*
X139014840Y-78813009D01*
X139004452Y-78832445D01*
X138990476Y-78849476D01*
X138973445Y-78863452D01*
X138954009Y-78873840D01*
X138932928Y-78880236D01*
X138904860Y-78883000D01*
X137091140Y-78883000D01*
X137063072Y-78880236D01*
X137041991Y-78873840D01*
X137022555Y-78863452D01*
X137005524Y-78849476D01*
X136991548Y-78832445D01*
X136981160Y-78813009D01*
X136974764Y-78791928D01*
X136972000Y-78763860D01*
X136972000Y-78300140D01*
X136974764Y-78272072D01*
X136981160Y-78250991D01*
X136991548Y-78231555D01*
X137005524Y-78214524D01*
X137022555Y-78200548D01*
X137041991Y-78190160D01*
X137063072Y-78183764D01*
X137091140Y-78181000D01*
X138904860Y-78181000D01*
X138932928Y-78183764D01*
G37*
G36*
X133982928Y-78183764D02*
G01*
X134004009Y-78190160D01*
X134023445Y-78200548D01*
X134040476Y-78214524D01*
X134054452Y-78231555D01*
X134064840Y-78250991D01*
X134071236Y-78272072D01*
X134074000Y-78300140D01*
X134074000Y-78763860D01*
X134071236Y-78791928D01*
X134064840Y-78813009D01*
X134054452Y-78832445D01*
X134040476Y-78849476D01*
X134023445Y-78863452D01*
X134004009Y-78873840D01*
X133982928Y-78880236D01*
X133954860Y-78883000D01*
X132141140Y-78883000D01*
X132113072Y-78880236D01*
X132091991Y-78873840D01*
X132072555Y-78863452D01*
X132055524Y-78849476D01*
X132041548Y-78832445D01*
X132031160Y-78813009D01*
X132024764Y-78791928D01*
X132022000Y-78763860D01*
X132022000Y-78300140D01*
X132024764Y-78272072D01*
X132031160Y-78250991D01*
X132041548Y-78231555D01*
X132055524Y-78214524D01*
X132072555Y-78200548D01*
X132091991Y-78190160D01*
X132113072Y-78183764D01*
X132141140Y-78181000D01*
X133954860Y-78181000D01*
X133982928Y-78183764D01*
G37*
G36*
X124440000Y-78535000D02*
G01*
X123038000Y-78535000D01*
X123038000Y-76783000D01*
X124440000Y-76783000D01*
X124440000Y-78535000D01*
G37*
G36*
X127140000Y-77535000D02*
G01*
X125488000Y-77535000D01*
X125488000Y-76008000D01*
X125533001Y-76008000D01*
X125557387Y-76005598D01*
X125580836Y-75998485D01*
X125602447Y-75986934D01*
X125621389Y-75971389D01*
X125636934Y-75952447D01*
X125648485Y-75930836D01*
X125655598Y-75907387D01*
X125658000Y-75883001D01*
X125658000Y-72684999D01*
X125655598Y-72660613D01*
X125648485Y-72637164D01*
X125636934Y-72615553D01*
X125621389Y-72596611D01*
X125602447Y-72581066D01*
X125580836Y-72569515D01*
X125557387Y-72562402D01*
X125533001Y-72560000D01*
X125488000Y-72560000D01*
X125488000Y-71033000D01*
X127140000Y-71033000D01*
X127140000Y-77535000D01*
G37*
G36*
X176488512Y-75653927D02*
G01*
X176637812Y-75683624D01*
X176801784Y-75751544D01*
X176949354Y-75850147D01*
X177074853Y-75975646D01*
X177173456Y-76123216D01*
X177241376Y-76287188D01*
X177276000Y-76461259D01*
X177276000Y-76638741D01*
X177241376Y-76812812D01*
X177173456Y-76976784D01*
X177074853Y-77124354D01*
X176949354Y-77249853D01*
X176801784Y-77348456D01*
X176637812Y-77416376D01*
X176488512Y-77446073D01*
X176463742Y-77451000D01*
X176286258Y-77451000D01*
X176261488Y-77446073D01*
X176112188Y-77416376D01*
X175948216Y-77348456D01*
X175800646Y-77249853D01*
X175675147Y-77124354D01*
X175576544Y-76976784D01*
X175508624Y-76812812D01*
X175474000Y-76638741D01*
X175474000Y-76461259D01*
X175508624Y-76287188D01*
X175576544Y-76123216D01*
X175675147Y-75975646D01*
X175800646Y-75850147D01*
X175948216Y-75751544D01*
X176112188Y-75683624D01*
X176261488Y-75653927D01*
X176286258Y-75649000D01*
X176463742Y-75649000D01*
X176488512Y-75653927D01*
G37*
G36*
X173948512Y-75653927D02*
G01*
X174097812Y-75683624D01*
X174261784Y-75751544D01*
X174409354Y-75850147D01*
X174534853Y-75975646D01*
X174633456Y-76123216D01*
X174701376Y-76287188D01*
X174736000Y-76461259D01*
X174736000Y-76638741D01*
X174701376Y-76812812D01*
X174633456Y-76976784D01*
X174534853Y-77124354D01*
X174409354Y-77249853D01*
X174261784Y-77348456D01*
X174097812Y-77416376D01*
X173948512Y-77446073D01*
X173923742Y-77451000D01*
X173746258Y-77451000D01*
X173721488Y-77446073D01*
X173572188Y-77416376D01*
X173408216Y-77348456D01*
X173260646Y-77249853D01*
X173135147Y-77124354D01*
X173036544Y-76976784D01*
X172968624Y-76812812D01*
X172934000Y-76638741D01*
X172934000Y-76461259D01*
X172968624Y-76287188D01*
X173036544Y-76123216D01*
X173135147Y-75975646D01*
X173260646Y-75850147D01*
X173408216Y-75751544D01*
X173572188Y-75683624D01*
X173721488Y-75653927D01*
X173746258Y-75649000D01*
X173923742Y-75649000D01*
X173948512Y-75653927D01*
G37*
G36*
X137083938Y-76689716D02*
G01*
X137104557Y-76695971D01*
X137123553Y-76706124D01*
X137140208Y-76719792D01*
X137153876Y-76736447D01*
X137164029Y-76755443D01*
X137170284Y-76776062D01*
X137173000Y-76803640D01*
X137173000Y-77312360D01*
X137170284Y-77339938D01*
X137164029Y-77360557D01*
X137153876Y-77379553D01*
X137140208Y-77396208D01*
X137123553Y-77409876D01*
X137104557Y-77420029D01*
X137083938Y-77426284D01*
X137056360Y-77429000D01*
X136597640Y-77429000D01*
X136570062Y-77426284D01*
X136549443Y-77420029D01*
X136530447Y-77409876D01*
X136513792Y-77396208D01*
X136500124Y-77379553D01*
X136489971Y-77360557D01*
X136483716Y-77339938D01*
X136481000Y-77312360D01*
X136481000Y-76803640D01*
X136483716Y-76776062D01*
X136489971Y-76755443D01*
X136500124Y-76736447D01*
X136513792Y-76719792D01*
X136530447Y-76706124D01*
X136549443Y-76695971D01*
X136570062Y-76689716D01*
X136597640Y-76687000D01*
X137056360Y-76687000D01*
X137083938Y-76689716D01*
G37*
G36*
X136113938Y-76689716D02*
G01*
X136134557Y-76695971D01*
X136153553Y-76706124D01*
X136170208Y-76719792D01*
X136183876Y-76736447D01*
X136194029Y-76755443D01*
X136200284Y-76776062D01*
X136203000Y-76803640D01*
X136203000Y-77312360D01*
X136200284Y-77339938D01*
X136194029Y-77360557D01*
X136183876Y-77379553D01*
X136170208Y-77396208D01*
X136153553Y-77409876D01*
X136134557Y-77420029D01*
X136113938Y-77426284D01*
X136086360Y-77429000D01*
X135627640Y-77429000D01*
X135600062Y-77426284D01*
X135579443Y-77420029D01*
X135560447Y-77409876D01*
X135543792Y-77396208D01*
X135530124Y-77379553D01*
X135519971Y-77360557D01*
X135513716Y-77339938D01*
X135511000Y-77312360D01*
X135511000Y-76803640D01*
X135513716Y-76776062D01*
X135519971Y-76755443D01*
X135530124Y-76736447D01*
X135543792Y-76719792D01*
X135560447Y-76706124D01*
X135579443Y-76695971D01*
X135600062Y-76689716D01*
X135627640Y-76687000D01*
X136086360Y-76687000D01*
X136113938Y-76689716D01*
G37*
G36*
X159241000Y-76556000D02*
G01*
X146589000Y-76556000D01*
X146589000Y-74954000D01*
X159241000Y-74954000D01*
X159241000Y-76556000D01*
G37*
G36*
X124740000Y-76385000D02*
G01*
X122738000Y-76385000D01*
X122738000Y-75283000D01*
X124740000Y-75283000D01*
X124740000Y-76385000D01*
G37*
G36*
X173948512Y-73113927D02*
G01*
X174097812Y-73143624D01*
X174261784Y-73211544D01*
X174409354Y-73310147D01*
X174534853Y-73435646D01*
X174633456Y-73583216D01*
X174701376Y-73747188D01*
X174736000Y-73921259D01*
X174736000Y-74098741D01*
X174701376Y-74272812D01*
X174633456Y-74436784D01*
X174534853Y-74584354D01*
X174409354Y-74709853D01*
X174261784Y-74808456D01*
X174097812Y-74876376D01*
X173948512Y-74906073D01*
X173923742Y-74911000D01*
X173746258Y-74911000D01*
X173721488Y-74906073D01*
X173572188Y-74876376D01*
X173408216Y-74808456D01*
X173260646Y-74709853D01*
X173135147Y-74584354D01*
X173036544Y-74436784D01*
X172968624Y-74272812D01*
X172934000Y-74098741D01*
X172934000Y-73921259D01*
X172968624Y-73747188D01*
X173036544Y-73583216D01*
X173135147Y-73435646D01*
X173260646Y-73310147D01*
X173408216Y-73211544D01*
X173572188Y-73143624D01*
X173721488Y-73113927D01*
X173746258Y-73109000D01*
X173923742Y-73109000D01*
X173948512Y-73113927D01*
G37*
G36*
X176488512Y-73113927D02*
G01*
X176637812Y-73143624D01*
X176801784Y-73211544D01*
X176949354Y-73310147D01*
X177074853Y-73435646D01*
X177173456Y-73583216D01*
X177241376Y-73747188D01*
X177276000Y-73921259D01*
X177276000Y-74098741D01*
X177241376Y-74272812D01*
X177173456Y-74436784D01*
X177074853Y-74584354D01*
X176949354Y-74709853D01*
X176801784Y-74808456D01*
X176637812Y-74876376D01*
X176488512Y-74906073D01*
X176463742Y-74911000D01*
X176286258Y-74911000D01*
X176261488Y-74906073D01*
X176112188Y-74876376D01*
X175948216Y-74808456D01*
X175800646Y-74709853D01*
X175675147Y-74584354D01*
X175576544Y-74436784D01*
X175508624Y-74272812D01*
X175474000Y-74098741D01*
X175474000Y-73921259D01*
X175508624Y-73747188D01*
X175576544Y-73583216D01*
X175675147Y-73435646D01*
X175800646Y-73310147D01*
X175948216Y-73211544D01*
X176112188Y-73143624D01*
X176261488Y-73113927D01*
X176286258Y-73109000D01*
X176463742Y-73109000D01*
X176488512Y-73113927D01*
G37*
G36*
X147095938Y-73831716D02*
G01*
X147116557Y-73837971D01*
X147135553Y-73848124D01*
X147152208Y-73861792D01*
X147165876Y-73878447D01*
X147176029Y-73897443D01*
X147182284Y-73918062D01*
X147185000Y-73945640D01*
X147185000Y-74454360D01*
X147182284Y-74481938D01*
X147176029Y-74502557D01*
X147165876Y-74521553D01*
X147152208Y-74538208D01*
X147135553Y-74551876D01*
X147116557Y-74562029D01*
X147095938Y-74568284D01*
X147068360Y-74571000D01*
X146609640Y-74571000D01*
X146582062Y-74568284D01*
X146561443Y-74562029D01*
X146542447Y-74551876D01*
X146525792Y-74538208D01*
X146512124Y-74521553D01*
X146501971Y-74502557D01*
X146495716Y-74481938D01*
X146493000Y-74454360D01*
X146493000Y-73945640D01*
X146495716Y-73918062D01*
X146501971Y-73897443D01*
X146512124Y-73878447D01*
X146525792Y-73861792D01*
X146542447Y-73848124D01*
X146561443Y-73837971D01*
X146582062Y-73831716D01*
X146609640Y-73829000D01*
X147068360Y-73829000D01*
X147095938Y-73831716D01*
G37*
G36*
X148065938Y-73831716D02*
G01*
X148086557Y-73837971D01*
X148105553Y-73848124D01*
X148122208Y-73861792D01*
X148135876Y-73878447D01*
X148146029Y-73897443D01*
X148152284Y-73918062D01*
X148155000Y-73945640D01*
X148155000Y-74454360D01*
X148152284Y-74481938D01*
X148146029Y-74502557D01*
X148135876Y-74521553D01*
X148122208Y-74538208D01*
X148105553Y-74551876D01*
X148086557Y-74562029D01*
X148065938Y-74568284D01*
X148038360Y-74571000D01*
X147579640Y-74571000D01*
X147552062Y-74568284D01*
X147531443Y-74562029D01*
X147512447Y-74551876D01*
X147495792Y-74538208D01*
X147482124Y-74521553D01*
X147471971Y-74502557D01*
X147465716Y-74481938D01*
X147463000Y-74454360D01*
X147463000Y-73945640D01*
X147465716Y-73918062D01*
X147471971Y-73897443D01*
X147482124Y-73878447D01*
X147495792Y-73861792D01*
X147512447Y-73848124D01*
X147531443Y-73837971D01*
X147552062Y-73831716D01*
X147579640Y-73829000D01*
X148038360Y-73829000D01*
X148065938Y-73831716D01*
G37*
G36*
X124740000Y-74085000D02*
G01*
X122738000Y-74085000D01*
X122738000Y-72183000D01*
X124740000Y-72183000D01*
X124740000Y-74085000D01*
G37*
G36*
X156644938Y-73262716D02*
G01*
X156665557Y-73268971D01*
X156684553Y-73279124D01*
X156701208Y-73292792D01*
X156714876Y-73309447D01*
X156725029Y-73328443D01*
X156731284Y-73349062D01*
X156734000Y-73376640D01*
X156734000Y-73835360D01*
X156731284Y-73862938D01*
X156725029Y-73883557D01*
X156714876Y-73902553D01*
X156701208Y-73919208D01*
X156684553Y-73932876D01*
X156665557Y-73943029D01*
X156644938Y-73949284D01*
X156617360Y-73952000D01*
X156108640Y-73952000D01*
X156081062Y-73949284D01*
X156060443Y-73943029D01*
X156041447Y-73932876D01*
X156024792Y-73919208D01*
X156011124Y-73902553D01*
X156000971Y-73883557D01*
X155994716Y-73862938D01*
X155992000Y-73835360D01*
X155992000Y-73376640D01*
X155994716Y-73349062D01*
X156000971Y-73328443D01*
X156011124Y-73309447D01*
X156024792Y-73292792D01*
X156041447Y-73279124D01*
X156060443Y-73268971D01*
X156081062Y-73262716D01*
X156108640Y-73260000D01*
X156617360Y-73260000D01*
X156644938Y-73262716D01*
G37*
G36*
X156644938Y-72292716D02*
G01*
X156665557Y-72298971D01*
X156684553Y-72309124D01*
X156701208Y-72322792D01*
X156714876Y-72339447D01*
X156725029Y-72358443D01*
X156731284Y-72379062D01*
X156734000Y-72406640D01*
X156734000Y-72865360D01*
X156731284Y-72892938D01*
X156725029Y-72913557D01*
X156714876Y-72932553D01*
X156701208Y-72949208D01*
X156684553Y-72962876D01*
X156665557Y-72973029D01*
X156644938Y-72979284D01*
X156617360Y-72982000D01*
X156108640Y-72982000D01*
X156081062Y-72979284D01*
X156060443Y-72973029D01*
X156041447Y-72962876D01*
X156024792Y-72949208D01*
X156011124Y-72932553D01*
X156000971Y-72913557D01*
X155994716Y-72892938D01*
X155992000Y-72865360D01*
X155992000Y-72406640D01*
X155994716Y-72379062D01*
X156000971Y-72358443D01*
X156011124Y-72339447D01*
X156024792Y-72322792D01*
X156041447Y-72309124D01*
X156060443Y-72298971D01*
X156081062Y-72292716D01*
X156108640Y-72290000D01*
X156617360Y-72290000D01*
X156644938Y-72292716D01*
G37*
G36*
X173948512Y-70573927D02*
G01*
X174097812Y-70603624D01*
X174261784Y-70671544D01*
X174409354Y-70770147D01*
X174534853Y-70895646D01*
X174633456Y-71043216D01*
X174701376Y-71207188D01*
X174736000Y-71381259D01*
X174736000Y-71558741D01*
X174701376Y-71732812D01*
X174633456Y-71896784D01*
X174534853Y-72044354D01*
X174409354Y-72169853D01*
X174261784Y-72268456D01*
X174097812Y-72336376D01*
X173948512Y-72366073D01*
X173923742Y-72371000D01*
X173746258Y-72371000D01*
X173721488Y-72366073D01*
X173572188Y-72336376D01*
X173408216Y-72268456D01*
X173260646Y-72169853D01*
X173135147Y-72044354D01*
X173036544Y-71896784D01*
X172968624Y-71732812D01*
X172934000Y-71558741D01*
X172934000Y-71381259D01*
X172968624Y-71207188D01*
X173036544Y-71043216D01*
X173135147Y-70895646D01*
X173260646Y-70770147D01*
X173408216Y-70671544D01*
X173572188Y-70603624D01*
X173721488Y-70573927D01*
X173746258Y-70569000D01*
X173923742Y-70569000D01*
X173948512Y-70573927D01*
G37*
G36*
X176488512Y-70573927D02*
G01*
X176637812Y-70603624D01*
X176801784Y-70671544D01*
X176949354Y-70770147D01*
X177074853Y-70895646D01*
X177173456Y-71043216D01*
X177241376Y-71207188D01*
X177276000Y-71381259D01*
X177276000Y-71558741D01*
X177241376Y-71732812D01*
X177173456Y-71896784D01*
X177074853Y-72044354D01*
X176949354Y-72169853D01*
X176801784Y-72268456D01*
X176637812Y-72336376D01*
X176488512Y-72366073D01*
X176463742Y-72371000D01*
X176286258Y-72371000D01*
X176261488Y-72366073D01*
X176112188Y-72336376D01*
X175948216Y-72268456D01*
X175800646Y-72169853D01*
X175675147Y-72044354D01*
X175576544Y-71896784D01*
X175508624Y-71732812D01*
X175474000Y-71558741D01*
X175474000Y-71381259D01*
X175508624Y-71207188D01*
X175576544Y-71043216D01*
X175675147Y-70895646D01*
X175800646Y-70770147D01*
X175948216Y-70671544D01*
X176112188Y-70603624D01*
X176261488Y-70573927D01*
X176286258Y-70569000D01*
X176463742Y-70569000D01*
X176488512Y-70573927D01*
G37*
G36*
X124440000Y-71785000D02*
G01*
X123038000Y-71785000D01*
X123038000Y-70033000D01*
X124440000Y-70033000D01*
X124440000Y-71785000D01*
G37*
G36*
X135583591Y-70448085D02*
G01*
X135617569Y-70458393D01*
X135648890Y-70475134D01*
X135676339Y-70497661D01*
X135698866Y-70525110D01*
X135715607Y-70556431D01*
X135725915Y-70590409D01*
X135730000Y-70631890D01*
X135730000Y-71308110D01*
X135725915Y-71349591D01*
X135715607Y-71383569D01*
X135698866Y-71414890D01*
X135676339Y-71442339D01*
X135648890Y-71464866D01*
X135617569Y-71481607D01*
X135583591Y-71491915D01*
X135542110Y-71496000D01*
X134940890Y-71496000D01*
X134899409Y-71491915D01*
X134865431Y-71481607D01*
X134834110Y-71464866D01*
X134806661Y-71442339D01*
X134784134Y-71414890D01*
X134767393Y-71383569D01*
X134757085Y-71349591D01*
X134753000Y-71308110D01*
X134753000Y-70631890D01*
X134757085Y-70590409D01*
X134767393Y-70556431D01*
X134784134Y-70525110D01*
X134806661Y-70497661D01*
X134834110Y-70475134D01*
X134865431Y-70458393D01*
X134899409Y-70448085D01*
X134940890Y-70444000D01*
X135542110Y-70444000D01*
X135583591Y-70448085D01*
G37*
G36*
X137158591Y-70448085D02*
G01*
X137192569Y-70458393D01*
X137223890Y-70475134D01*
X137251339Y-70497661D01*
X137273866Y-70525110D01*
X137290607Y-70556431D01*
X137300915Y-70590409D01*
X137305000Y-70631890D01*
X137305000Y-71308110D01*
X137300915Y-71349591D01*
X137290607Y-71383569D01*
X137273866Y-71414890D01*
X137251339Y-71442339D01*
X137223890Y-71464866D01*
X137192569Y-71481607D01*
X137158591Y-71491915D01*
X137117110Y-71496000D01*
X136515890Y-71496000D01*
X136474409Y-71491915D01*
X136440431Y-71481607D01*
X136409110Y-71464866D01*
X136381661Y-71442339D01*
X136359134Y-71414890D01*
X136342393Y-71383569D01*
X136332085Y-71349591D01*
X136328000Y-71308110D01*
X136328000Y-70631890D01*
X136332085Y-70590409D01*
X136342393Y-70556431D01*
X136359134Y-70525110D01*
X136381661Y-70497661D01*
X136409110Y-70475134D01*
X136440431Y-70458393D01*
X136474409Y-70448085D01*
X136515890Y-70444000D01*
X137117110Y-70444000D01*
X137158591Y-70448085D01*
G37*
G36*
X176488512Y-68033927D02*
G01*
X176637812Y-68063624D01*
X176801784Y-68131544D01*
X176949354Y-68230147D01*
X177074853Y-68355646D01*
X177173456Y-68503216D01*
X177241376Y-68667188D01*
X177276000Y-68841259D01*
X177276000Y-69018741D01*
X177241376Y-69192812D01*
X177173456Y-69356784D01*
X177074853Y-69504354D01*
X176949354Y-69629853D01*
X176801784Y-69728456D01*
X176637812Y-69796376D01*
X176488512Y-69826073D01*
X176463742Y-69831000D01*
X176286258Y-69831000D01*
X176261488Y-69826073D01*
X176112188Y-69796376D01*
X175948216Y-69728456D01*
X175800646Y-69629853D01*
X175675147Y-69504354D01*
X175576544Y-69356784D01*
X175508624Y-69192812D01*
X175474000Y-69018741D01*
X175474000Y-68841259D01*
X175508624Y-68667188D01*
X175576544Y-68503216D01*
X175675147Y-68355646D01*
X175800646Y-68230147D01*
X175948216Y-68131544D01*
X176112188Y-68063624D01*
X176261488Y-68033927D01*
X176286258Y-68029000D01*
X176463742Y-68029000D01*
X176488512Y-68033927D01*
G37*
G36*
X173948512Y-68033927D02*
G01*
X174097812Y-68063624D01*
X174261784Y-68131544D01*
X174409354Y-68230147D01*
X174534853Y-68355646D01*
X174633456Y-68503216D01*
X174701376Y-68667188D01*
X174736000Y-68841259D01*
X174736000Y-69018741D01*
X174701376Y-69192812D01*
X174633456Y-69356784D01*
X174534853Y-69504354D01*
X174409354Y-69629853D01*
X174261784Y-69728456D01*
X174097812Y-69796376D01*
X173948512Y-69826073D01*
X173923742Y-69831000D01*
X173746258Y-69831000D01*
X173721488Y-69826073D01*
X173572188Y-69796376D01*
X173408216Y-69728456D01*
X173260646Y-69629853D01*
X173135147Y-69504354D01*
X173036544Y-69356784D01*
X172968624Y-69192812D01*
X172934000Y-69018741D01*
X172934000Y-68841259D01*
X172968624Y-68667188D01*
X173036544Y-68503216D01*
X173135147Y-68355646D01*
X173260646Y-68230147D01*
X173408216Y-68131544D01*
X173572188Y-68063624D01*
X173721488Y-68033927D01*
X173746258Y-68029000D01*
X173923742Y-68029000D01*
X173948512Y-68033927D01*
G37*
G36*
X135583591Y-67648085D02*
G01*
X135617569Y-67658393D01*
X135648890Y-67675134D01*
X135676339Y-67697661D01*
X135698866Y-67725110D01*
X135715607Y-67756431D01*
X135725915Y-67790409D01*
X135730000Y-67831890D01*
X135730000Y-68508110D01*
X135725915Y-68549591D01*
X135715607Y-68583569D01*
X135698866Y-68614890D01*
X135676339Y-68642339D01*
X135648890Y-68664866D01*
X135617569Y-68681607D01*
X135583591Y-68691915D01*
X135542110Y-68696000D01*
X134940890Y-68696000D01*
X134899409Y-68691915D01*
X134865431Y-68681607D01*
X134834110Y-68664866D01*
X134806661Y-68642339D01*
X134784134Y-68614890D01*
X134767393Y-68583569D01*
X134757085Y-68549591D01*
X134753000Y-68508110D01*
X134753000Y-67831890D01*
X134757085Y-67790409D01*
X134767393Y-67756431D01*
X134784134Y-67725110D01*
X134806661Y-67697661D01*
X134834110Y-67675134D01*
X134865431Y-67658393D01*
X134899409Y-67648085D01*
X134940890Y-67644000D01*
X135542110Y-67644000D01*
X135583591Y-67648085D01*
G37*
G36*
X137158591Y-67648085D02*
G01*
X137192569Y-67658393D01*
X137223890Y-67675134D01*
X137251339Y-67697661D01*
X137273866Y-67725110D01*
X137290607Y-67756431D01*
X137300915Y-67790409D01*
X137305000Y-67831890D01*
X137305000Y-68508110D01*
X137300915Y-68549591D01*
X137290607Y-68583569D01*
X137273866Y-68614890D01*
X137251339Y-68642339D01*
X137223890Y-68664866D01*
X137192569Y-68681607D01*
X137158591Y-68691915D01*
X137117110Y-68696000D01*
X136515890Y-68696000D01*
X136474409Y-68691915D01*
X136440431Y-68681607D01*
X136409110Y-68664866D01*
X136381661Y-68642339D01*
X136359134Y-68614890D01*
X136342393Y-68583569D01*
X136332085Y-68549591D01*
X136328000Y-68508110D01*
X136328000Y-67831890D01*
X136332085Y-67790409D01*
X136342393Y-67756431D01*
X136359134Y-67725110D01*
X136381661Y-67697661D01*
X136409110Y-67675134D01*
X136440431Y-67658393D01*
X136474409Y-67648085D01*
X136515890Y-67644000D01*
X137117110Y-67644000D01*
X137158591Y-67648085D01*
G37*
G36*
X173948512Y-65493927D02*
G01*
X174097812Y-65523624D01*
X174261784Y-65591544D01*
X174409354Y-65690147D01*
X174534853Y-65815646D01*
X174633456Y-65963216D01*
X174701376Y-66127188D01*
X174736000Y-66301259D01*
X174736000Y-66478741D01*
X174701376Y-66652812D01*
X174633456Y-66816784D01*
X174534853Y-66964354D01*
X174409354Y-67089853D01*
X174261784Y-67188456D01*
X174097812Y-67256376D01*
X173948512Y-67286073D01*
X173923742Y-67291000D01*
X173746258Y-67291000D01*
X173721488Y-67286073D01*
X173572188Y-67256376D01*
X173408216Y-67188456D01*
X173260646Y-67089853D01*
X173135147Y-66964354D01*
X173036544Y-66816784D01*
X172968624Y-66652812D01*
X172934000Y-66478741D01*
X172934000Y-66301259D01*
X172968624Y-66127188D01*
X173036544Y-65963216D01*
X173135147Y-65815646D01*
X173260646Y-65690147D01*
X173408216Y-65591544D01*
X173572188Y-65523624D01*
X173721488Y-65493927D01*
X173746258Y-65489000D01*
X173923742Y-65489000D01*
X173948512Y-65493927D01*
G37*
G36*
X176488512Y-65493927D02*
G01*
X176637812Y-65523624D01*
X176801784Y-65591544D01*
X176949354Y-65690147D01*
X177074853Y-65815646D01*
X177173456Y-65963216D01*
X177241376Y-66127188D01*
X177276000Y-66301259D01*
X177276000Y-66478741D01*
X177241376Y-66652812D01*
X177173456Y-66816784D01*
X177074853Y-66964354D01*
X176949354Y-67089853D01*
X176801784Y-67188456D01*
X176637812Y-67256376D01*
X176488512Y-67286073D01*
X176463742Y-67291000D01*
X176286258Y-67291000D01*
X176261488Y-67286073D01*
X176112188Y-67256376D01*
X175948216Y-67188456D01*
X175800646Y-67089853D01*
X175675147Y-66964354D01*
X175576544Y-66816784D01*
X175508624Y-66652812D01*
X175474000Y-66478741D01*
X175474000Y-66301259D01*
X175508624Y-66127188D01*
X175576544Y-65963216D01*
X175675147Y-65815646D01*
X175800646Y-65690147D01*
X175948216Y-65591544D01*
X176112188Y-65523624D01*
X176261488Y-65493927D01*
X176286258Y-65489000D01*
X176463742Y-65489000D01*
X176488512Y-65493927D01*
G37*
G36*
X138161938Y-64566716D02*
G01*
X138182557Y-64572971D01*
X138201553Y-64583124D01*
X138218208Y-64596792D01*
X138231876Y-64613447D01*
X138242029Y-64632443D01*
X138248284Y-64653062D01*
X138251000Y-64680640D01*
X138251000Y-65139360D01*
X138248284Y-65166938D01*
X138242029Y-65187557D01*
X138231876Y-65206553D01*
X138218208Y-65223208D01*
X138201553Y-65236876D01*
X138182557Y-65247029D01*
X138161938Y-65253284D01*
X138134360Y-65256000D01*
X137625640Y-65256000D01*
X137598062Y-65253284D01*
X137577443Y-65247029D01*
X137558447Y-65236876D01*
X137541792Y-65223208D01*
X137528124Y-65206553D01*
X137517971Y-65187557D01*
X137511716Y-65166938D01*
X137509000Y-65139360D01*
X137509000Y-64680640D01*
X137511716Y-64653062D01*
X137517971Y-64632443D01*
X137528124Y-64613447D01*
X137541792Y-64596792D01*
X137558447Y-64583124D01*
X137577443Y-64572971D01*
X137598062Y-64566716D01*
X137625640Y-64564000D01*
X138134360Y-64564000D01*
X138161938Y-64566716D01*
G37*
G36*
X139431938Y-64566716D02*
G01*
X139452557Y-64572971D01*
X139471553Y-64583124D01*
X139488208Y-64596792D01*
X139501876Y-64613447D01*
X139512029Y-64632443D01*
X139518284Y-64653062D01*
X139521000Y-64680640D01*
X139521000Y-65139360D01*
X139518284Y-65166938D01*
X139512029Y-65187557D01*
X139501876Y-65206553D01*
X139488208Y-65223208D01*
X139471553Y-65236876D01*
X139452557Y-65247029D01*
X139431938Y-65253284D01*
X139404360Y-65256000D01*
X138895640Y-65256000D01*
X138868062Y-65253284D01*
X138847443Y-65247029D01*
X138828447Y-65236876D01*
X138811792Y-65223208D01*
X138798124Y-65206553D01*
X138787971Y-65187557D01*
X138781716Y-65166938D01*
X138779000Y-65139360D01*
X138779000Y-64680640D01*
X138781716Y-64653062D01*
X138787971Y-64632443D01*
X138798124Y-64613447D01*
X138811792Y-64596792D01*
X138828447Y-64583124D01*
X138847443Y-64572971D01*
X138868062Y-64566716D01*
X138895640Y-64564000D01*
X139404360Y-64564000D01*
X139431938Y-64566716D01*
G37*
G36*
X173948512Y-62953927D02*
G01*
X174097812Y-62983624D01*
X174261784Y-63051544D01*
X174409354Y-63150147D01*
X174534853Y-63275646D01*
X174633456Y-63423216D01*
X174701376Y-63587188D01*
X174736000Y-63761259D01*
X174736000Y-63938741D01*
X174701376Y-64112812D01*
X174633456Y-64276784D01*
X174534853Y-64424354D01*
X174409354Y-64549853D01*
X174261784Y-64648456D01*
X174097812Y-64716376D01*
X173948512Y-64746073D01*
X173923742Y-64751000D01*
X173746258Y-64751000D01*
X173721488Y-64746073D01*
X173572188Y-64716376D01*
X173408216Y-64648456D01*
X173260646Y-64549853D01*
X173135147Y-64424354D01*
X173036544Y-64276784D01*
X172968624Y-64112812D01*
X172934000Y-63938741D01*
X172934000Y-63761259D01*
X172968624Y-63587188D01*
X173036544Y-63423216D01*
X173135147Y-63275646D01*
X173260646Y-63150147D01*
X173408216Y-63051544D01*
X173572188Y-62983624D01*
X173721488Y-62953927D01*
X173746258Y-62949000D01*
X173923742Y-62949000D01*
X173948512Y-62953927D01*
G37*
G36*
X176488512Y-62953927D02*
G01*
X176637812Y-62983624D01*
X176801784Y-63051544D01*
X176949354Y-63150147D01*
X177074853Y-63275646D01*
X177173456Y-63423216D01*
X177241376Y-63587188D01*
X177276000Y-63761259D01*
X177276000Y-63938741D01*
X177241376Y-64112812D01*
X177173456Y-64276784D01*
X177074853Y-64424354D01*
X176949354Y-64549853D01*
X176801784Y-64648456D01*
X176637812Y-64716376D01*
X176488512Y-64746073D01*
X176463742Y-64751000D01*
X176286258Y-64751000D01*
X176261488Y-64746073D01*
X176112188Y-64716376D01*
X175948216Y-64648456D01*
X175800646Y-64549853D01*
X175675147Y-64424354D01*
X175576544Y-64276784D01*
X175508624Y-64112812D01*
X175474000Y-63938741D01*
X175474000Y-63761259D01*
X175508624Y-63587188D01*
X175576544Y-63423216D01*
X175675147Y-63275646D01*
X175800646Y-63150147D01*
X175948216Y-63051544D01*
X176112188Y-62983624D01*
X176261488Y-62953927D01*
X176286258Y-62949000D01*
X176463742Y-62949000D01*
X176488512Y-62953927D01*
G37*
G36*
X139431938Y-63596716D02*
G01*
X139452557Y-63602971D01*
X139471553Y-63613124D01*
X139488208Y-63626792D01*
X139501876Y-63643447D01*
X139512029Y-63662443D01*
X139518284Y-63683062D01*
X139521000Y-63710640D01*
X139521000Y-64169360D01*
X139518284Y-64196938D01*
X139512029Y-64217557D01*
X139501876Y-64236553D01*
X139488208Y-64253208D01*
X139471553Y-64266876D01*
X139452557Y-64277029D01*
X139431938Y-64283284D01*
X139404360Y-64286000D01*
X138895640Y-64286000D01*
X138868062Y-64283284D01*
X138847443Y-64277029D01*
X138828447Y-64266876D01*
X138811792Y-64253208D01*
X138798124Y-64236553D01*
X138787971Y-64217557D01*
X138781716Y-64196938D01*
X138779000Y-64169360D01*
X138779000Y-63710640D01*
X138781716Y-63683062D01*
X138787971Y-63662443D01*
X138798124Y-63643447D01*
X138811792Y-63626792D01*
X138828447Y-63613124D01*
X138847443Y-63602971D01*
X138868062Y-63596716D01*
X138895640Y-63594000D01*
X139404360Y-63594000D01*
X139431938Y-63596716D01*
G37*
G36*
X138161938Y-63596716D02*
G01*
X138182557Y-63602971D01*
X138201553Y-63613124D01*
X138218208Y-63626792D01*
X138231876Y-63643447D01*
X138242029Y-63662443D01*
X138248284Y-63683062D01*
X138251000Y-63710640D01*
X138251000Y-64169360D01*
X138248284Y-64196938D01*
X138242029Y-64217557D01*
X138231876Y-64236553D01*
X138218208Y-64253208D01*
X138201553Y-64266876D01*
X138182557Y-64277029D01*
X138161938Y-64283284D01*
X138134360Y-64286000D01*
X137625640Y-64286000D01*
X137598062Y-64283284D01*
X137577443Y-64277029D01*
X137558447Y-64266876D01*
X137541792Y-64253208D01*
X137528124Y-64236553D01*
X137517971Y-64217557D01*
X137511716Y-64196938D01*
X137509000Y-64169360D01*
X137509000Y-63710640D01*
X137511716Y-63683062D01*
X137517971Y-63662443D01*
X137528124Y-63643447D01*
X137541792Y-63626792D01*
X137558447Y-63613124D01*
X137577443Y-63602971D01*
X137598062Y-63596716D01*
X137625640Y-63594000D01*
X138134360Y-63594000D01*
X138161938Y-63596716D01*
G37*
G36*
X134287938Y-62598716D02*
G01*
X134308557Y-62604971D01*
X134327553Y-62615124D01*
X134344208Y-62628792D01*
X134357876Y-62645447D01*
X134368029Y-62664443D01*
X134374284Y-62685062D01*
X134377000Y-62712640D01*
X134377000Y-63171360D01*
X134374284Y-63198938D01*
X134368029Y-63219557D01*
X134357876Y-63238553D01*
X134344208Y-63255208D01*
X134327553Y-63268876D01*
X134308557Y-63279029D01*
X134287938Y-63285284D01*
X134260360Y-63288000D01*
X133751640Y-63288000D01*
X133724062Y-63285284D01*
X133703443Y-63279029D01*
X133684447Y-63268876D01*
X133667792Y-63255208D01*
X133654124Y-63238553D01*
X133643971Y-63219557D01*
X133637716Y-63198938D01*
X133635000Y-63171360D01*
X133635000Y-62712640D01*
X133637716Y-62685062D01*
X133643971Y-62664443D01*
X133654124Y-62645447D01*
X133667792Y-62628792D01*
X133684447Y-62615124D01*
X133703443Y-62604971D01*
X133724062Y-62598716D01*
X133751640Y-62596000D01*
X134260360Y-62596000D01*
X134287938Y-62598716D01*
G37*
G36*
X132337938Y-62090716D02*
G01*
X132358557Y-62096971D01*
X132377553Y-62107124D01*
X132394208Y-62120792D01*
X132407876Y-62137447D01*
X132418029Y-62156443D01*
X132424284Y-62177062D01*
X132427000Y-62204640D01*
X132427000Y-62663360D01*
X132424284Y-62690938D01*
X132418029Y-62711557D01*
X132407876Y-62730553D01*
X132394208Y-62747208D01*
X132377553Y-62760876D01*
X132358557Y-62771029D01*
X132337938Y-62777284D01*
X132310360Y-62780000D01*
X131801640Y-62780000D01*
X131774062Y-62777284D01*
X131753443Y-62771029D01*
X131734447Y-62760876D01*
X131717792Y-62747208D01*
X131704124Y-62730553D01*
X131693971Y-62711557D01*
X131687716Y-62690938D01*
X131685000Y-62663360D01*
X131685000Y-62204640D01*
X131687716Y-62177062D01*
X131693971Y-62156443D01*
X131704124Y-62137447D01*
X131717792Y-62120792D01*
X131734447Y-62107124D01*
X131753443Y-62096971D01*
X131774062Y-62090716D01*
X131801640Y-62088000D01*
X132310360Y-62088000D01*
X132337938Y-62090716D01*
G37*
G36*
X134287938Y-61628716D02*
G01*
X134308557Y-61634971D01*
X134327553Y-61645124D01*
X134344208Y-61658792D01*
X134357876Y-61675447D01*
X134368029Y-61694443D01*
X134374284Y-61715062D01*
X134377000Y-61742640D01*
X134377000Y-62201360D01*
X134374284Y-62228938D01*
X134368029Y-62249557D01*
X134357876Y-62268553D01*
X134344208Y-62285208D01*
X134327553Y-62298876D01*
X134308557Y-62309029D01*
X134287938Y-62315284D01*
X134260360Y-62318000D01*
X133751640Y-62318000D01*
X133724062Y-62315284D01*
X133703443Y-62309029D01*
X133684447Y-62298876D01*
X133667792Y-62285208D01*
X133654124Y-62268553D01*
X133643971Y-62249557D01*
X133637716Y-62228938D01*
X133635000Y-62201360D01*
X133635000Y-61742640D01*
X133637716Y-61715062D01*
X133643971Y-61694443D01*
X133654124Y-61675447D01*
X133667792Y-61658792D01*
X133684447Y-61645124D01*
X133703443Y-61634971D01*
X133724062Y-61628716D01*
X133751640Y-61626000D01*
X134260360Y-61626000D01*
X134287938Y-61628716D01*
G37*
G36*
X173948512Y-60413927D02*
G01*
X174097812Y-60443624D01*
X174261784Y-60511544D01*
X174409354Y-60610147D01*
X174534853Y-60735646D01*
X174633456Y-60883216D01*
X174701376Y-61047188D01*
X174736000Y-61221259D01*
X174736000Y-61398741D01*
X174701376Y-61572812D01*
X174633456Y-61736784D01*
X174534853Y-61884354D01*
X174409354Y-62009853D01*
X174261784Y-62108456D01*
X174097812Y-62176376D01*
X173948512Y-62206073D01*
X173923742Y-62211000D01*
X173746258Y-62211000D01*
X173721488Y-62206073D01*
X173572188Y-62176376D01*
X173408216Y-62108456D01*
X173260646Y-62009853D01*
X173135147Y-61884354D01*
X173036544Y-61736784D01*
X172968624Y-61572812D01*
X172934000Y-61398741D01*
X172934000Y-61221259D01*
X172968624Y-61047188D01*
X173036544Y-60883216D01*
X173135147Y-60735646D01*
X173260646Y-60610147D01*
X173408216Y-60511544D01*
X173572188Y-60443624D01*
X173721488Y-60413927D01*
X173746258Y-60409000D01*
X173923742Y-60409000D01*
X173948512Y-60413927D01*
G37*
G36*
X176488512Y-60413927D02*
G01*
X176637812Y-60443624D01*
X176801784Y-60511544D01*
X176949354Y-60610147D01*
X177074853Y-60735646D01*
X177173456Y-60883216D01*
X177241376Y-61047188D01*
X177276000Y-61221259D01*
X177276000Y-61398741D01*
X177241376Y-61572812D01*
X177173456Y-61736784D01*
X177074853Y-61884354D01*
X176949354Y-62009853D01*
X176801784Y-62108456D01*
X176637812Y-62176376D01*
X176488512Y-62206073D01*
X176463742Y-62211000D01*
X176286258Y-62211000D01*
X176261488Y-62206073D01*
X176112188Y-62176376D01*
X175948216Y-62108456D01*
X175800646Y-62009853D01*
X175675147Y-61884354D01*
X175576544Y-61736784D01*
X175508624Y-61572812D01*
X175474000Y-61398741D01*
X175474000Y-61221259D01*
X175508624Y-61047188D01*
X175576544Y-60883216D01*
X175675147Y-60735646D01*
X175800646Y-60610147D01*
X175948216Y-60511544D01*
X176112188Y-60443624D01*
X176261488Y-60413927D01*
X176286258Y-60409000D01*
X176463742Y-60409000D01*
X176488512Y-60413927D01*
G37*
G36*
X132337938Y-61120716D02*
G01*
X132358557Y-61126971D01*
X132377553Y-61137124D01*
X132394208Y-61150792D01*
X132407876Y-61167447D01*
X132418029Y-61186443D01*
X132424284Y-61207062D01*
X132427000Y-61234640D01*
X132427000Y-61693360D01*
X132424284Y-61720938D01*
X132418029Y-61741557D01*
X132407876Y-61760553D01*
X132394208Y-61777208D01*
X132377553Y-61790876D01*
X132358557Y-61801029D01*
X132337938Y-61807284D01*
X132310360Y-61810000D01*
X131801640Y-61810000D01*
X131774062Y-61807284D01*
X131753443Y-61801029D01*
X131734447Y-61790876D01*
X131717792Y-61777208D01*
X131704124Y-61760553D01*
X131693971Y-61741557D01*
X131687716Y-61720938D01*
X131685000Y-61693360D01*
X131685000Y-61234640D01*
X131687716Y-61207062D01*
X131693971Y-61186443D01*
X131704124Y-61167447D01*
X131717792Y-61150792D01*
X131734447Y-61137124D01*
X131753443Y-61126971D01*
X131774062Y-61120716D01*
X131801640Y-61118000D01*
X132310360Y-61118000D01*
X132337938Y-61120716D01*
G37*
G36*
X139482000Y-60633000D02*
G01*
X130480000Y-60633000D01*
X130480000Y-58781000D01*
X139482000Y-58781000D01*
X139482000Y-60633000D01*
G37*
G36*
X176488512Y-57873927D02*
G01*
X176637812Y-57903624D01*
X176801784Y-57971544D01*
X176949354Y-58070147D01*
X177074853Y-58195646D01*
X177173456Y-58343216D01*
X177241376Y-58507188D01*
X177276000Y-58681259D01*
X177276000Y-58858741D01*
X177241376Y-59032812D01*
X177173456Y-59196784D01*
X177074853Y-59344354D01*
X176949354Y-59469853D01*
X176801784Y-59568456D01*
X176637812Y-59636376D01*
X176488512Y-59666073D01*
X176463742Y-59671000D01*
X176286258Y-59671000D01*
X176261488Y-59666073D01*
X176112188Y-59636376D01*
X175948216Y-59568456D01*
X175800646Y-59469853D01*
X175675147Y-59344354D01*
X175576544Y-59196784D01*
X175508624Y-59032812D01*
X175474000Y-58858741D01*
X175474000Y-58681259D01*
X175508624Y-58507188D01*
X175576544Y-58343216D01*
X175675147Y-58195646D01*
X175800646Y-58070147D01*
X175948216Y-57971544D01*
X176112188Y-57903624D01*
X176261488Y-57873927D01*
X176286258Y-57869000D01*
X176463742Y-57869000D01*
X176488512Y-57873927D01*
G37*
G36*
X173948512Y-57873927D02*
G01*
X174097812Y-57903624D01*
X174261784Y-57971544D01*
X174409354Y-58070147D01*
X174534853Y-58195646D01*
X174633456Y-58343216D01*
X174701376Y-58507188D01*
X174736000Y-58681259D01*
X174736000Y-58858741D01*
X174701376Y-59032812D01*
X174633456Y-59196784D01*
X174534853Y-59344354D01*
X174409354Y-59469853D01*
X174261784Y-59568456D01*
X174097812Y-59636376D01*
X173948512Y-59666073D01*
X173923742Y-59671000D01*
X173746258Y-59671000D01*
X173721488Y-59666073D01*
X173572188Y-59636376D01*
X173408216Y-59568456D01*
X173260646Y-59469853D01*
X173135147Y-59344354D01*
X173036544Y-59196784D01*
X172968624Y-59032812D01*
X172934000Y-58858741D01*
X172934000Y-58681259D01*
X172968624Y-58507188D01*
X173036544Y-58343216D01*
X173135147Y-58195646D01*
X173260646Y-58070147D01*
X173408216Y-57971544D01*
X173572188Y-57903624D01*
X173721488Y-57873927D01*
X173746258Y-57869000D01*
X173923742Y-57869000D01*
X173948512Y-57873927D01*
G37*
G36*
X141687938Y-58089716D02*
G01*
X141708557Y-58095971D01*
X141727553Y-58106124D01*
X141744208Y-58119792D01*
X141757876Y-58136447D01*
X141768029Y-58155443D01*
X141774284Y-58176062D01*
X141777000Y-58203640D01*
X141777000Y-58662360D01*
X141774284Y-58689938D01*
X141768029Y-58710557D01*
X141757876Y-58729553D01*
X141744208Y-58746208D01*
X141727553Y-58759876D01*
X141708557Y-58770029D01*
X141687938Y-58776284D01*
X141660360Y-58779000D01*
X141151640Y-58779000D01*
X141124062Y-58776284D01*
X141103443Y-58770029D01*
X141084447Y-58759876D01*
X141067792Y-58746208D01*
X141054124Y-58729553D01*
X141043971Y-58710557D01*
X141037716Y-58689938D01*
X141035000Y-58662360D01*
X141035000Y-58203640D01*
X141037716Y-58176062D01*
X141043971Y-58155443D01*
X141054124Y-58136447D01*
X141067792Y-58119792D01*
X141084447Y-58106124D01*
X141103443Y-58095971D01*
X141124062Y-58089716D01*
X141151640Y-58087000D01*
X141660360Y-58087000D01*
X141687938Y-58089716D01*
G37*
G36*
X145497938Y-58089716D02*
G01*
X145518557Y-58095971D01*
X145537553Y-58106124D01*
X145554208Y-58119792D01*
X145567876Y-58136447D01*
X145578029Y-58155443D01*
X145584284Y-58176062D01*
X145587000Y-58203640D01*
X145587000Y-58662360D01*
X145584284Y-58689938D01*
X145578029Y-58710557D01*
X145567876Y-58729553D01*
X145554208Y-58746208D01*
X145537553Y-58759876D01*
X145518557Y-58770029D01*
X145497938Y-58776284D01*
X145470360Y-58779000D01*
X144961640Y-58779000D01*
X144934062Y-58776284D01*
X144913443Y-58770029D01*
X144894447Y-58759876D01*
X144877792Y-58746208D01*
X144864124Y-58729553D01*
X144853971Y-58710557D01*
X144847716Y-58689938D01*
X144845000Y-58662360D01*
X144845000Y-58203640D01*
X144847716Y-58176062D01*
X144853971Y-58155443D01*
X144864124Y-58136447D01*
X144877792Y-58119792D01*
X144894447Y-58106124D01*
X144913443Y-58095971D01*
X144934062Y-58089716D01*
X144961640Y-58087000D01*
X145470360Y-58087000D01*
X145497938Y-58089716D01*
G37*
G36*
X143535938Y-58042716D02*
G01*
X143556557Y-58048971D01*
X143575553Y-58059124D01*
X143592208Y-58072792D01*
X143605876Y-58089447D01*
X143616029Y-58108443D01*
X143622284Y-58129062D01*
X143625000Y-58156640D01*
X143625000Y-58615360D01*
X143622284Y-58642938D01*
X143616029Y-58663557D01*
X143605876Y-58682553D01*
X143592208Y-58699208D01*
X143575553Y-58712876D01*
X143556557Y-58723029D01*
X143535938Y-58729284D01*
X143508360Y-58732000D01*
X142999640Y-58732000D01*
X142972062Y-58729284D01*
X142951443Y-58723029D01*
X142932447Y-58712876D01*
X142915792Y-58699208D01*
X142902124Y-58682553D01*
X142891971Y-58663557D01*
X142885716Y-58642938D01*
X142883000Y-58615360D01*
X142883000Y-58156640D01*
X142885716Y-58129062D01*
X142891971Y-58108443D01*
X142902124Y-58089447D01*
X142915792Y-58072792D01*
X142932447Y-58059124D01*
X142951443Y-58048971D01*
X142972062Y-58042716D01*
X142999640Y-58040000D01*
X143508360Y-58040000D01*
X143535938Y-58042716D01*
G37*
G36*
X145497938Y-57119716D02*
G01*
X145518557Y-57125971D01*
X145537553Y-57136124D01*
X145554208Y-57149792D01*
X145567876Y-57166447D01*
X145578029Y-57185443D01*
X145584284Y-57206062D01*
X145587000Y-57233640D01*
X145587000Y-57692360D01*
X145584284Y-57719938D01*
X145578029Y-57740557D01*
X145567876Y-57759553D01*
X145554208Y-57776208D01*
X145537553Y-57789876D01*
X145518557Y-57800029D01*
X145497938Y-57806284D01*
X145470360Y-57809000D01*
X144961640Y-57809000D01*
X144934062Y-57806284D01*
X144913443Y-57800029D01*
X144894447Y-57789876D01*
X144877792Y-57776208D01*
X144864124Y-57759553D01*
X144853971Y-57740557D01*
X144847716Y-57719938D01*
X144845000Y-57692360D01*
X144845000Y-57233640D01*
X144847716Y-57206062D01*
X144853971Y-57185443D01*
X144864124Y-57166447D01*
X144877792Y-57149792D01*
X144894447Y-57136124D01*
X144913443Y-57125971D01*
X144934062Y-57119716D01*
X144961640Y-57117000D01*
X145470360Y-57117000D01*
X145497938Y-57119716D01*
G37*
G36*
X141687938Y-57119716D02*
G01*
X141708557Y-57125971D01*
X141727553Y-57136124D01*
X141744208Y-57149792D01*
X141757876Y-57166447D01*
X141768029Y-57185443D01*
X141774284Y-57206062D01*
X141777000Y-57233640D01*
X141777000Y-57692360D01*
X141774284Y-57719938D01*
X141768029Y-57740557D01*
X141757876Y-57759553D01*
X141744208Y-57776208D01*
X141727553Y-57789876D01*
X141708557Y-57800029D01*
X141687938Y-57806284D01*
X141660360Y-57809000D01*
X141151640Y-57809000D01*
X141124062Y-57806284D01*
X141103443Y-57800029D01*
X141084447Y-57789876D01*
X141067792Y-57776208D01*
X141054124Y-57759553D01*
X141043971Y-57740557D01*
X141037716Y-57719938D01*
X141035000Y-57692360D01*
X141035000Y-57233640D01*
X141037716Y-57206062D01*
X141043971Y-57185443D01*
X141054124Y-57166447D01*
X141067792Y-57149792D01*
X141084447Y-57136124D01*
X141103443Y-57125971D01*
X141124062Y-57119716D01*
X141151640Y-57117000D01*
X141660360Y-57117000D01*
X141687938Y-57119716D01*
G37*
G36*
X143535938Y-57072716D02*
G01*
X143556557Y-57078971D01*
X143575553Y-57089124D01*
X143592208Y-57102792D01*
X143605876Y-57119447D01*
X143616029Y-57138443D01*
X143622284Y-57159062D01*
X143625000Y-57186640D01*
X143625000Y-57645360D01*
X143622284Y-57672938D01*
X143616029Y-57693557D01*
X143605876Y-57712553D01*
X143592208Y-57729208D01*
X143575553Y-57742876D01*
X143556557Y-57753029D01*
X143535938Y-57759284D01*
X143508360Y-57762000D01*
X142999640Y-57762000D01*
X142972062Y-57759284D01*
X142951443Y-57753029D01*
X142932447Y-57742876D01*
X142915792Y-57729208D01*
X142902124Y-57712553D01*
X142891971Y-57693557D01*
X142885716Y-57672938D01*
X142883000Y-57645360D01*
X142883000Y-57186640D01*
X142885716Y-57159062D01*
X142891971Y-57138443D01*
X142902124Y-57119447D01*
X142915792Y-57102792D01*
X142932447Y-57089124D01*
X142951443Y-57078971D01*
X142972062Y-57072716D01*
X142999640Y-57070000D01*
X143508360Y-57070000D01*
X143535938Y-57072716D01*
G37*
G36*
X129010591Y-56410085D02*
G01*
X129044569Y-56420393D01*
X129075890Y-56437134D01*
X129103339Y-56459661D01*
X129125866Y-56487110D01*
X129142607Y-56518431D01*
X129152915Y-56552409D01*
X129157000Y-56593890D01*
X129157000Y-57195110D01*
X129152915Y-57236591D01*
X129142607Y-57270569D01*
X129125866Y-57301890D01*
X129103339Y-57329339D01*
X129075890Y-57351866D01*
X129044569Y-57368607D01*
X129010591Y-57378915D01*
X128969110Y-57383000D01*
X128292890Y-57383000D01*
X128251409Y-57378915D01*
X128217431Y-57368607D01*
X128186110Y-57351866D01*
X128158661Y-57329339D01*
X128136134Y-57301890D01*
X128119393Y-57270569D01*
X128109085Y-57236591D01*
X128105000Y-57195110D01*
X128105000Y-56593890D01*
X128109085Y-56552409D01*
X128119393Y-56518431D01*
X128136134Y-56487110D01*
X128158661Y-56459661D01*
X128186110Y-56437134D01*
X128217431Y-56420393D01*
X128251409Y-56410085D01*
X128292890Y-56406000D01*
X128969110Y-56406000D01*
X129010591Y-56410085D01*
G37*
G36*
X176488512Y-55333927D02*
G01*
X176637812Y-55363624D01*
X176801784Y-55431544D01*
X176949354Y-55530147D01*
X177074853Y-55655646D01*
X177173456Y-55803216D01*
X177241376Y-55967188D01*
X177276000Y-56141259D01*
X177276000Y-56318741D01*
X177241376Y-56492812D01*
X177173456Y-56656784D01*
X177074853Y-56804354D01*
X176949354Y-56929853D01*
X176801784Y-57028456D01*
X176637812Y-57096376D01*
X176489024Y-57125971D01*
X176463742Y-57131000D01*
X176286258Y-57131000D01*
X176260976Y-57125971D01*
X176112188Y-57096376D01*
X175948216Y-57028456D01*
X175800646Y-56929853D01*
X175675147Y-56804354D01*
X175576544Y-56656784D01*
X175508624Y-56492812D01*
X175474000Y-56318741D01*
X175474000Y-56141259D01*
X175508624Y-55967188D01*
X175576544Y-55803216D01*
X175675147Y-55655646D01*
X175800646Y-55530147D01*
X175948216Y-55431544D01*
X176112188Y-55363624D01*
X176261488Y-55333927D01*
X176286258Y-55329000D01*
X176463742Y-55329000D01*
X176488512Y-55333927D01*
G37*
G36*
X173948512Y-55333927D02*
G01*
X174097812Y-55363624D01*
X174261784Y-55431544D01*
X174409354Y-55530147D01*
X174534853Y-55655646D01*
X174633456Y-55803216D01*
X174701376Y-55967188D01*
X174736000Y-56141259D01*
X174736000Y-56318741D01*
X174701376Y-56492812D01*
X174633456Y-56656784D01*
X174534853Y-56804354D01*
X174409354Y-56929853D01*
X174261784Y-57028456D01*
X174097812Y-57096376D01*
X173949024Y-57125971D01*
X173923742Y-57131000D01*
X173746258Y-57131000D01*
X173720976Y-57125971D01*
X173572188Y-57096376D01*
X173408216Y-57028456D01*
X173260646Y-56929853D01*
X173135147Y-56804354D01*
X173036544Y-56656784D01*
X172968624Y-56492812D01*
X172934000Y-56318741D01*
X172934000Y-56141259D01*
X172968624Y-55967188D01*
X173036544Y-55803216D01*
X173135147Y-55655646D01*
X173260646Y-55530147D01*
X173408216Y-55431544D01*
X173572188Y-55363624D01*
X173721488Y-55333927D01*
X173746258Y-55329000D01*
X173923742Y-55329000D01*
X173948512Y-55333927D01*
G37*
G36*
X129010591Y-54835085D02*
G01*
X129044569Y-54845393D01*
X129075890Y-54862134D01*
X129103339Y-54884661D01*
X129125866Y-54912110D01*
X129142607Y-54943431D01*
X129152915Y-54977409D01*
X129157000Y-55018890D01*
X129157000Y-55620110D01*
X129152915Y-55661591D01*
X129142607Y-55695569D01*
X129125866Y-55726890D01*
X129103339Y-55754339D01*
X129075890Y-55776866D01*
X129044569Y-55793607D01*
X129010591Y-55803915D01*
X128969110Y-55808000D01*
X128292890Y-55808000D01*
X128251409Y-55803915D01*
X128217431Y-55793607D01*
X128186110Y-55776866D01*
X128158661Y-55754339D01*
X128136134Y-55726890D01*
X128119393Y-55695569D01*
X128109085Y-55661591D01*
X128105000Y-55620110D01*
X128105000Y-55018890D01*
X128109085Y-54977409D01*
X128119393Y-54943431D01*
X128136134Y-54912110D01*
X128158661Y-54884661D01*
X128186110Y-54862134D01*
X128217431Y-54845393D01*
X128251409Y-54835085D01*
X128292890Y-54831000D01*
X128969110Y-54831000D01*
X129010591Y-54835085D01*
G37*
G36*
X176488512Y-52793927D02*
G01*
X176637812Y-52823624D01*
X176801784Y-52891544D01*
X176949354Y-52990147D01*
X177074853Y-53115646D01*
X177173456Y-53263216D01*
X177241376Y-53427188D01*
X177276000Y-53601259D01*
X177276000Y-53778741D01*
X177241376Y-53952812D01*
X177173456Y-54116784D01*
X177074853Y-54264354D01*
X176949354Y-54389853D01*
X176801784Y-54488456D01*
X176637812Y-54556376D01*
X176488512Y-54586073D01*
X176463742Y-54591000D01*
X176286258Y-54591000D01*
X176261488Y-54586073D01*
X176112188Y-54556376D01*
X175948216Y-54488456D01*
X175800646Y-54389853D01*
X175675147Y-54264354D01*
X175576544Y-54116784D01*
X175508624Y-53952812D01*
X175474000Y-53778741D01*
X175474000Y-53601259D01*
X175508624Y-53427188D01*
X175576544Y-53263216D01*
X175675147Y-53115646D01*
X175800646Y-52990147D01*
X175948216Y-52891544D01*
X176112188Y-52823624D01*
X176261488Y-52793927D01*
X176286258Y-52789000D01*
X176463742Y-52789000D01*
X176488512Y-52793927D01*
G37*
G36*
X173948512Y-52793927D02*
G01*
X174097812Y-52823624D01*
X174261784Y-52891544D01*
X174409354Y-52990147D01*
X174534853Y-53115646D01*
X174633456Y-53263216D01*
X174701376Y-53427188D01*
X174736000Y-53601259D01*
X174736000Y-53778741D01*
X174701376Y-53952812D01*
X174633456Y-54116784D01*
X174534853Y-54264354D01*
X174409354Y-54389853D01*
X174261784Y-54488456D01*
X174097812Y-54556376D01*
X173948512Y-54586073D01*
X173923742Y-54591000D01*
X173746258Y-54591000D01*
X173721488Y-54586073D01*
X173572188Y-54556376D01*
X173408216Y-54488456D01*
X173260646Y-54389853D01*
X173135147Y-54264354D01*
X173036544Y-54116784D01*
X172968624Y-53952812D01*
X172934000Y-53778741D01*
X172934000Y-53601259D01*
X172968624Y-53427188D01*
X173036544Y-53263216D01*
X173135147Y-53115646D01*
X173260646Y-52990147D01*
X173408216Y-52891544D01*
X173572188Y-52823624D01*
X173721488Y-52793927D01*
X173746258Y-52789000D01*
X173923742Y-52789000D01*
X173948512Y-52793927D01*
G37*
G36*
X139482000Y-53433000D02*
G01*
X130480000Y-53433000D01*
X130480000Y-51581000D01*
X139482000Y-51581000D01*
X139482000Y-53433000D01*
G37*
G36*
X176483796Y-50252989D02*
G01*
X176637812Y-50283624D01*
X176801784Y-50351544D01*
X176949354Y-50450147D01*
X177074853Y-50575646D01*
X177173456Y-50723216D01*
X177241376Y-50887188D01*
X177276000Y-51061259D01*
X177276000Y-51238741D01*
X177241376Y-51412812D01*
X177173456Y-51576784D01*
X177074853Y-51724354D01*
X176949354Y-51849853D01*
X176801784Y-51948456D01*
X176637812Y-52016376D01*
X176489341Y-52045908D01*
X176463742Y-52051000D01*
X176286258Y-52051000D01*
X176260659Y-52045908D01*
X176112188Y-52016376D01*
X175948216Y-51948456D01*
X175800646Y-51849853D01*
X175675147Y-51724354D01*
X175576544Y-51576784D01*
X175508624Y-51412812D01*
X175474000Y-51238741D01*
X175474000Y-51061259D01*
X175508624Y-50887188D01*
X175576544Y-50723216D01*
X175675147Y-50575646D01*
X175800646Y-50450147D01*
X175948216Y-50351544D01*
X176112188Y-50283624D01*
X176266204Y-50252989D01*
X176286258Y-50249000D01*
X176463742Y-50249000D01*
X176483796Y-50252989D01*
G37*
G36*
X174593600Y-50252989D02*
G01*
X174626652Y-50263015D01*
X174657103Y-50279292D01*
X174683799Y-50301201D01*
X174705708Y-50327897D01*
X174721985Y-50358348D01*
X174732011Y-50391400D01*
X174736000Y-50431903D01*
X174736000Y-51868097D01*
X174732011Y-51908600D01*
X174721985Y-51941652D01*
X174705708Y-51972103D01*
X174683799Y-51998799D01*
X174657103Y-52020708D01*
X174626652Y-52036985D01*
X174593600Y-52047011D01*
X174553097Y-52051000D01*
X173116903Y-52051000D01*
X173076400Y-52047011D01*
X173043348Y-52036985D01*
X173012897Y-52020708D01*
X172986201Y-51998799D01*
X172964292Y-51972103D01*
X172948015Y-51941652D01*
X172937989Y-51908600D01*
X172934000Y-51868097D01*
X172934000Y-50431903D01*
X172937989Y-50391400D01*
X172948015Y-50358348D01*
X172964292Y-50327897D01*
X172986201Y-50301201D01*
X173012897Y-50279292D01*
X173043348Y-50263015D01*
X173076400Y-50252989D01*
X173116903Y-50249000D01*
X174553097Y-50249000D01*
X174593600Y-50252989D01*
G37*
M02*
