G04 #@! TF.GenerationSoftware,KiCad,Pcbnew,5.1.6-c6e7f7d~86~ubuntu18.04.1*
G04 #@! TF.CreationDate,2020-07-07T21:11:44+12:00*
G04 #@! TF.ProjectId,M1 Control Card,4d312043-6f6e-4747-926f-6c2043617264,rev?*
G04 #@! TF.SameCoordinates,Original*
G04 #@! TF.FileFunction,Copper,L2,Inr*
G04 #@! TF.FilePolarity,Positive*
%FSLAX46Y46*%
G04 Gerber Fmt 4.6, Leading zero omitted, Abs format (unit mm)*
G04 Created by KiCad (PCBNEW 5.1.6-c6e7f7d~86~ubuntu18.04.1) date 2020-07-07 21:11:44*
%MOMM*%
%LPD*%
G01*
G04 APERTURE LIST*
G04 #@! TA.AperFunction,ViaPad*
%ADD10C,1.700000*%
G04 #@! TD*
G04 #@! TA.AperFunction,ViaPad*
%ADD11R,1.700000X1.700000*%
G04 #@! TD*
G04 #@! TA.AperFunction,ViaPad*
%ADD12O,1.700000X1.700000*%
G04 #@! TD*
G04 #@! TA.AperFunction,ViaPad*
%ADD13C,0.762000*%
G04 #@! TD*
G04 #@! TA.AperFunction,Conductor*
%ADD14C,0.254000*%
G04 #@! TD*
G04 APERTURE END LIST*
G04 #@! TA.AperFunction,ViaPad*
G36*
G01*
X172985000Y-51750000D02*
X172985000Y-50550000D01*
G75*
G02*
X173235000Y-50300000I250000J0D01*
G01*
X174435000Y-50300000D01*
G75*
G02*
X174685000Y-50550000I0J-250000D01*
G01*
X174685000Y-51750000D01*
G75*
G02*
X174435000Y-52000000I-250000J0D01*
G01*
X173235000Y-52000000D01*
G75*
G02*
X172985000Y-51750000I0J250000D01*
G01*
G37*
G04 #@! TD.AperFunction*
D10*
X173835000Y-53690000D03*
X173835000Y-56230000D03*
X173835000Y-58770000D03*
X173835000Y-61310000D03*
X173835000Y-63850000D03*
X173835000Y-66390000D03*
X173835000Y-68930000D03*
X173835000Y-71470000D03*
X173835000Y-74010000D03*
X173835000Y-76550000D03*
X173835000Y-79090000D03*
X173835000Y-81630000D03*
X173835000Y-84170000D03*
X173835000Y-86710000D03*
X173835000Y-89250000D03*
X173835000Y-91790000D03*
X173835000Y-94330000D03*
X173835000Y-96870000D03*
X173835000Y-99410000D03*
X173835000Y-101950000D03*
X173835000Y-104490000D03*
X173835000Y-107030000D03*
X173835000Y-109570000D03*
X173835000Y-112110000D03*
X173835000Y-114650000D03*
X173835000Y-117190000D03*
X173835000Y-119730000D03*
X173835000Y-122270000D03*
X173835000Y-124810000D03*
X173835000Y-127350000D03*
X173835000Y-129890000D03*
X176375000Y-51150000D03*
X176375000Y-53690000D03*
X176375000Y-56230000D03*
X176375000Y-58770000D03*
X176375000Y-61310000D03*
X176375000Y-63850000D03*
X176375000Y-66390000D03*
X176375000Y-68930000D03*
X176375000Y-71470000D03*
X176375000Y-74010000D03*
X176375000Y-76550000D03*
X176375000Y-79090000D03*
X176375000Y-81630000D03*
X176375000Y-84170000D03*
X176375000Y-86710000D03*
X176375000Y-89250000D03*
X176375000Y-91790000D03*
X176375000Y-94330000D03*
X176375000Y-96870000D03*
X176375000Y-99410000D03*
X176375000Y-101950000D03*
X176375000Y-104490000D03*
X176375000Y-107030000D03*
X176375000Y-109570000D03*
X176375000Y-112110000D03*
X176375000Y-114650000D03*
X176375000Y-117190000D03*
X176375000Y-119730000D03*
X176375000Y-122270000D03*
X176375000Y-124810000D03*
X176375000Y-127350000D03*
X176375000Y-129890000D03*
D11*
X134972000Y-98521000D03*
D12*
X132432000Y-98521000D03*
X134972000Y-95981000D03*
X132432000Y-95981000D03*
X134972000Y-93441000D03*
X132432000Y-93441000D03*
D13*
X155728000Y-76931000D03*
X147197000Y-101251000D03*
X151388000Y-101251000D03*
X124304000Y-116491000D03*
X134696000Y-116491000D03*
X147832000Y-73438000D03*
X127606000Y-75584000D03*
X132706000Y-58266000D03*
X134656000Y-58266000D03*
X137256000Y-58266000D03*
X137902000Y-61187000D03*
X135306000Y-51217000D03*
X128631000Y-54456000D03*
X134006000Y-63727000D03*
X132056000Y-63219000D03*
X137194000Y-122490000D03*
X137194000Y-128464000D03*
X137194000Y-134495000D03*
X135072000Y-77058000D03*
X131643000Y-78582000D03*
X131643000Y-82392000D03*
X131643000Y-81122000D03*
X131643000Y-79852000D03*
X150902000Y-93822000D03*
X156363000Y-71851000D03*
X143254000Y-59171000D03*
X144425000Y-92806000D03*
X146816000Y-73438000D03*
X134324000Y-68170000D03*
X134324000Y-70970000D03*
X128631000Y-57758000D03*
X134006000Y-61187000D03*
X137256000Y-51217000D03*
X133130000Y-121982000D03*
X133130000Y-127956000D03*
X133130000Y-133987000D03*
X131162000Y-91028000D03*
X140533000Y-84170000D03*
X140533000Y-79344000D03*
X137612000Y-77058000D03*
X149886000Y-93822000D03*
X156363000Y-74391000D03*
D14*
G36*
X186515001Y-29793382D02*
G01*
X186515000Y-90487581D01*
X186515000Y-90487582D01*
X186515001Y-151246618D01*
X185401620Y-152360000D01*
X127204392Y-152360000D01*
X126406917Y-152288827D01*
X125663110Y-152085344D01*
X124967096Y-151753363D01*
X124340870Y-151303374D01*
X123804223Y-150749597D01*
X123374129Y-150109549D01*
X123064171Y-149403447D01*
X122882935Y-148648543D01*
X122835000Y-147995793D01*
X122835000Y-133886933D01*
X132114000Y-133886933D01*
X132114000Y-134087067D01*
X132153044Y-134283356D01*
X132229632Y-134468256D01*
X132340821Y-134634662D01*
X132482338Y-134776179D01*
X132648744Y-134887368D01*
X132833644Y-134963956D01*
X133029933Y-135003000D01*
X133230067Y-135003000D01*
X133426356Y-134963956D01*
X133611256Y-134887368D01*
X133777662Y-134776179D01*
X133919179Y-134634662D01*
X134030368Y-134468256D01*
X134106956Y-134283356D01*
X134146000Y-134087067D01*
X134146000Y-133886933D01*
X134106956Y-133690644D01*
X134030368Y-133505744D01*
X133919179Y-133339338D01*
X133777662Y-133197821D01*
X133611256Y-133086632D01*
X133426356Y-133010044D01*
X133230067Y-132971000D01*
X133029933Y-132971000D01*
X132833644Y-133010044D01*
X132648744Y-133086632D01*
X132482338Y-133197821D01*
X132340821Y-133339338D01*
X132229632Y-133505744D01*
X132153044Y-133690644D01*
X132114000Y-133886933D01*
X122835000Y-133886933D01*
X122835000Y-130918397D01*
X172986208Y-130918397D01*
X173063843Y-131167472D01*
X173327883Y-131293371D01*
X173611411Y-131365339D01*
X173903531Y-131380611D01*
X174193019Y-131338599D01*
X174468747Y-131240919D01*
X174606157Y-131167472D01*
X174683792Y-130918397D01*
X175526208Y-130918397D01*
X175603843Y-131167472D01*
X175867883Y-131293371D01*
X176151411Y-131365339D01*
X176443531Y-131380611D01*
X176733019Y-131338599D01*
X177008747Y-131240919D01*
X177146157Y-131167472D01*
X177223792Y-130918397D01*
X176375000Y-130069605D01*
X175526208Y-130918397D01*
X174683792Y-130918397D01*
X173835000Y-130069605D01*
X172986208Y-130918397D01*
X122835000Y-130918397D01*
X122835000Y-129958531D01*
X172344389Y-129958531D01*
X172386401Y-130248019D01*
X172484081Y-130523747D01*
X172557528Y-130661157D01*
X172806603Y-130738792D01*
X173655395Y-129890000D01*
X174014605Y-129890000D01*
X174863397Y-130738792D01*
X175105000Y-130663486D01*
X175346603Y-130738792D01*
X176195395Y-129890000D01*
X176554605Y-129890000D01*
X177403397Y-130738792D01*
X177652472Y-130661157D01*
X177778371Y-130397117D01*
X177850339Y-130113589D01*
X177865611Y-129821469D01*
X177823599Y-129531981D01*
X177725919Y-129256253D01*
X177652472Y-129118843D01*
X177403397Y-129041208D01*
X176554605Y-129890000D01*
X176195395Y-129890000D01*
X175346603Y-129041208D01*
X175105000Y-129116514D01*
X174863397Y-129041208D01*
X174014605Y-129890000D01*
X173655395Y-129890000D01*
X172806603Y-129041208D01*
X172557528Y-129118843D01*
X172431629Y-129382883D01*
X172359661Y-129666411D01*
X172344389Y-129958531D01*
X122835000Y-129958531D01*
X122835000Y-127855933D01*
X132114000Y-127855933D01*
X132114000Y-128056067D01*
X132153044Y-128252356D01*
X132229632Y-128437256D01*
X132340821Y-128603662D01*
X132482338Y-128745179D01*
X132648744Y-128856368D01*
X132833644Y-128932956D01*
X133029933Y-128972000D01*
X133230067Y-128972000D01*
X133426356Y-128932956D01*
X133611256Y-128856368D01*
X133777662Y-128745179D01*
X133919179Y-128603662D01*
X134030368Y-128437256D01*
X134106956Y-128252356D01*
X134146000Y-128056067D01*
X134146000Y-127855933D01*
X134106956Y-127659644D01*
X134030368Y-127474744D01*
X133919179Y-127308338D01*
X133777662Y-127166821D01*
X133611256Y-127055632D01*
X133426356Y-126979044D01*
X133230067Y-126940000D01*
X133029933Y-126940000D01*
X132833644Y-126979044D01*
X132648744Y-127055632D01*
X132482338Y-127166821D01*
X132340821Y-127308338D01*
X132229632Y-127474744D01*
X132153044Y-127659644D01*
X132114000Y-127855933D01*
X122835000Y-127855933D01*
X122835000Y-121881933D01*
X132114000Y-121881933D01*
X132114000Y-122082067D01*
X132153044Y-122278356D01*
X132229632Y-122463256D01*
X132340821Y-122629662D01*
X132482338Y-122771179D01*
X132648744Y-122882368D01*
X132833644Y-122958956D01*
X133029933Y-122998000D01*
X133230067Y-122998000D01*
X133426356Y-122958956D01*
X133611256Y-122882368D01*
X133777662Y-122771179D01*
X133919179Y-122629662D01*
X134030368Y-122463256D01*
X134106956Y-122278356D01*
X134146000Y-122082067D01*
X134146000Y-121881933D01*
X134106956Y-121685644D01*
X134030368Y-121500744D01*
X133919179Y-121334338D01*
X133777662Y-121192821D01*
X133611256Y-121081632D01*
X133426356Y-121005044D01*
X133230067Y-120966000D01*
X133029933Y-120966000D01*
X132833644Y-121005044D01*
X132648744Y-121081632D01*
X132482338Y-121192821D01*
X132340821Y-121334338D01*
X132229632Y-121500744D01*
X132153044Y-121685644D01*
X132114000Y-121881933D01*
X122835000Y-121881933D01*
X122835000Y-119583740D01*
X172350000Y-119583740D01*
X172350000Y-119876260D01*
X172407068Y-120163158D01*
X172519010Y-120433411D01*
X172681525Y-120676632D01*
X172888368Y-120883475D01*
X173062760Y-121000000D01*
X172888368Y-121116525D01*
X172681525Y-121323368D01*
X172519010Y-121566589D01*
X172407068Y-121836842D01*
X172350000Y-122123740D01*
X172350000Y-122416260D01*
X172407068Y-122703158D01*
X172519010Y-122973411D01*
X172681525Y-123216632D01*
X172888368Y-123423475D01*
X173062760Y-123540000D01*
X172888368Y-123656525D01*
X172681525Y-123863368D01*
X172519010Y-124106589D01*
X172407068Y-124376842D01*
X172350000Y-124663740D01*
X172350000Y-124956260D01*
X172407068Y-125243158D01*
X172519010Y-125513411D01*
X172681525Y-125756632D01*
X172888368Y-125963475D01*
X173062760Y-126080000D01*
X172888368Y-126196525D01*
X172681525Y-126403368D01*
X172519010Y-126646589D01*
X172407068Y-126916842D01*
X172350000Y-127203740D01*
X172350000Y-127496260D01*
X172407068Y-127783158D01*
X172519010Y-128053411D01*
X172681525Y-128296632D01*
X172888368Y-128503475D01*
X173061729Y-128619311D01*
X172986208Y-128861603D01*
X173835000Y-129710395D01*
X174683792Y-128861603D01*
X174608271Y-128619311D01*
X174781632Y-128503475D01*
X174988475Y-128296632D01*
X175105000Y-128122240D01*
X175221525Y-128296632D01*
X175428368Y-128503475D01*
X175601729Y-128619311D01*
X175526208Y-128861603D01*
X176375000Y-129710395D01*
X177223792Y-128861603D01*
X177148271Y-128619311D01*
X177321632Y-128503475D01*
X177528475Y-128296632D01*
X177690990Y-128053411D01*
X177802932Y-127783158D01*
X177860000Y-127496260D01*
X177860000Y-127203740D01*
X177802932Y-126916842D01*
X177690990Y-126646589D01*
X177528475Y-126403368D01*
X177321632Y-126196525D01*
X177147240Y-126080000D01*
X177321632Y-125963475D01*
X177528475Y-125756632D01*
X177690990Y-125513411D01*
X177802932Y-125243158D01*
X177860000Y-124956260D01*
X177860000Y-124663740D01*
X177802932Y-124376842D01*
X177690990Y-124106589D01*
X177528475Y-123863368D01*
X177321632Y-123656525D01*
X177147240Y-123540000D01*
X177321632Y-123423475D01*
X177528475Y-123216632D01*
X177690990Y-122973411D01*
X177802932Y-122703158D01*
X177860000Y-122416260D01*
X177860000Y-122123740D01*
X177802932Y-121836842D01*
X177690990Y-121566589D01*
X177528475Y-121323368D01*
X177321632Y-121116525D01*
X177147240Y-121000000D01*
X177321632Y-120883475D01*
X177528475Y-120676632D01*
X177690990Y-120433411D01*
X177802932Y-120163158D01*
X177860000Y-119876260D01*
X177860000Y-119583740D01*
X177802932Y-119296842D01*
X177690990Y-119026589D01*
X177528475Y-118783368D01*
X177321632Y-118576525D01*
X177148271Y-118460689D01*
X177223792Y-118218397D01*
X176375000Y-117369605D01*
X175526208Y-118218397D01*
X175601729Y-118460689D01*
X175428368Y-118576525D01*
X175221525Y-118783368D01*
X175105000Y-118957760D01*
X174988475Y-118783368D01*
X174781632Y-118576525D01*
X174608271Y-118460689D01*
X174683792Y-118218397D01*
X173835000Y-117369605D01*
X172986208Y-118218397D01*
X173061729Y-118460689D01*
X172888368Y-118576525D01*
X172681525Y-118783368D01*
X172519010Y-119026589D01*
X172407068Y-119296842D01*
X172350000Y-119583740D01*
X122835000Y-119583740D01*
X122835000Y-117258531D01*
X172344389Y-117258531D01*
X172386401Y-117548019D01*
X172484081Y-117823747D01*
X172557528Y-117961157D01*
X172806603Y-118038792D01*
X173655395Y-117190000D01*
X174014605Y-117190000D01*
X174863397Y-118038792D01*
X175105000Y-117963486D01*
X175346603Y-118038792D01*
X176195395Y-117190000D01*
X176554605Y-117190000D01*
X177403397Y-118038792D01*
X177652472Y-117961157D01*
X177778371Y-117697117D01*
X177850339Y-117413589D01*
X177865611Y-117121469D01*
X177823599Y-116831981D01*
X177725919Y-116556253D01*
X177652472Y-116418843D01*
X177403397Y-116341208D01*
X176554605Y-117190000D01*
X176195395Y-117190000D01*
X175346603Y-116341208D01*
X175105000Y-116416514D01*
X174863397Y-116341208D01*
X174014605Y-117190000D01*
X173655395Y-117190000D01*
X172806603Y-116341208D01*
X172557528Y-116418843D01*
X172431629Y-116682883D01*
X172359661Y-116966411D01*
X172344389Y-117258531D01*
X122835000Y-117258531D01*
X122835000Y-115678397D01*
X172986208Y-115678397D01*
X173061514Y-115920000D01*
X172986208Y-116161603D01*
X173835000Y-117010395D01*
X174683792Y-116161603D01*
X174608486Y-115920000D01*
X174683792Y-115678397D01*
X175526208Y-115678397D01*
X175601514Y-115920000D01*
X175526208Y-116161603D01*
X176375000Y-117010395D01*
X177223792Y-116161603D01*
X177148486Y-115920000D01*
X177223792Y-115678397D01*
X176375000Y-114829605D01*
X175526208Y-115678397D01*
X174683792Y-115678397D01*
X173835000Y-114829605D01*
X172986208Y-115678397D01*
X122835000Y-115678397D01*
X122835000Y-114718531D01*
X172344389Y-114718531D01*
X172386401Y-115008019D01*
X172484081Y-115283747D01*
X172557528Y-115421157D01*
X172806603Y-115498792D01*
X173655395Y-114650000D01*
X174014605Y-114650000D01*
X174863397Y-115498792D01*
X175105000Y-115423486D01*
X175346603Y-115498792D01*
X176195395Y-114650000D01*
X176554605Y-114650000D01*
X177403397Y-115498792D01*
X177652472Y-115421157D01*
X177778371Y-115157117D01*
X177850339Y-114873589D01*
X177865611Y-114581469D01*
X177823599Y-114291981D01*
X177725919Y-114016253D01*
X177652472Y-113878843D01*
X177403397Y-113801208D01*
X176554605Y-114650000D01*
X176195395Y-114650000D01*
X175346603Y-113801208D01*
X175105000Y-113876514D01*
X174863397Y-113801208D01*
X174014605Y-114650000D01*
X173655395Y-114650000D01*
X172806603Y-113801208D01*
X172557528Y-113878843D01*
X172431629Y-114142883D01*
X172359661Y-114426411D01*
X172344389Y-114718531D01*
X122835000Y-114718531D01*
X122835000Y-104343740D01*
X172350000Y-104343740D01*
X172350000Y-104636260D01*
X172407068Y-104923158D01*
X172519010Y-105193411D01*
X172681525Y-105436632D01*
X172888368Y-105643475D01*
X173062760Y-105760000D01*
X172888368Y-105876525D01*
X172681525Y-106083368D01*
X172519010Y-106326589D01*
X172407068Y-106596842D01*
X172350000Y-106883740D01*
X172350000Y-107176260D01*
X172407068Y-107463158D01*
X172519010Y-107733411D01*
X172681525Y-107976632D01*
X172888368Y-108183475D01*
X173062760Y-108300000D01*
X172888368Y-108416525D01*
X172681525Y-108623368D01*
X172519010Y-108866589D01*
X172407068Y-109136842D01*
X172350000Y-109423740D01*
X172350000Y-109716260D01*
X172407068Y-110003158D01*
X172519010Y-110273411D01*
X172681525Y-110516632D01*
X172888368Y-110723475D01*
X173062760Y-110840000D01*
X172888368Y-110956525D01*
X172681525Y-111163368D01*
X172519010Y-111406589D01*
X172407068Y-111676842D01*
X172350000Y-111963740D01*
X172350000Y-112256260D01*
X172407068Y-112543158D01*
X172519010Y-112813411D01*
X172681525Y-113056632D01*
X172888368Y-113263475D01*
X173061729Y-113379311D01*
X172986208Y-113621603D01*
X173835000Y-114470395D01*
X174683792Y-113621603D01*
X174608271Y-113379311D01*
X174781632Y-113263475D01*
X174988475Y-113056632D01*
X175105000Y-112882240D01*
X175221525Y-113056632D01*
X175428368Y-113263475D01*
X175601729Y-113379311D01*
X175526208Y-113621603D01*
X176375000Y-114470395D01*
X177223792Y-113621603D01*
X177148271Y-113379311D01*
X177321632Y-113263475D01*
X177528475Y-113056632D01*
X177690990Y-112813411D01*
X177802932Y-112543158D01*
X177860000Y-112256260D01*
X177860000Y-111963740D01*
X177802932Y-111676842D01*
X177690990Y-111406589D01*
X177528475Y-111163368D01*
X177321632Y-110956525D01*
X177147240Y-110840000D01*
X177321632Y-110723475D01*
X177528475Y-110516632D01*
X177690990Y-110273411D01*
X177802932Y-110003158D01*
X177860000Y-109716260D01*
X177860000Y-109423740D01*
X177802932Y-109136842D01*
X177690990Y-108866589D01*
X177528475Y-108623368D01*
X177321632Y-108416525D01*
X177147240Y-108300000D01*
X177321632Y-108183475D01*
X177528475Y-107976632D01*
X177690990Y-107733411D01*
X177802932Y-107463158D01*
X177860000Y-107176260D01*
X177860000Y-106883740D01*
X177802932Y-106596842D01*
X177690990Y-106326589D01*
X177528475Y-106083368D01*
X177321632Y-105876525D01*
X177147240Y-105760000D01*
X177321632Y-105643475D01*
X177528475Y-105436632D01*
X177690990Y-105193411D01*
X177802932Y-104923158D01*
X177860000Y-104636260D01*
X177860000Y-104343740D01*
X177802932Y-104056842D01*
X177690990Y-103786589D01*
X177528475Y-103543368D01*
X177321632Y-103336525D01*
X177148271Y-103220689D01*
X177223792Y-102978397D01*
X176375000Y-102129605D01*
X175526208Y-102978397D01*
X175601729Y-103220689D01*
X175428368Y-103336525D01*
X175221525Y-103543368D01*
X175105000Y-103717760D01*
X174988475Y-103543368D01*
X174781632Y-103336525D01*
X174608271Y-103220689D01*
X174683792Y-102978397D01*
X173835000Y-102129605D01*
X172986208Y-102978397D01*
X173061729Y-103220689D01*
X172888368Y-103336525D01*
X172681525Y-103543368D01*
X172519010Y-103786589D01*
X172407068Y-104056842D01*
X172350000Y-104343740D01*
X122835000Y-104343740D01*
X122835000Y-102018531D01*
X172344389Y-102018531D01*
X172386401Y-102308019D01*
X172484081Y-102583747D01*
X172557528Y-102721157D01*
X172806603Y-102798792D01*
X173655395Y-101950000D01*
X174014605Y-101950000D01*
X174863397Y-102798792D01*
X175105000Y-102723486D01*
X175346603Y-102798792D01*
X176195395Y-101950000D01*
X176554605Y-101950000D01*
X177403397Y-102798792D01*
X177652472Y-102721157D01*
X177778371Y-102457117D01*
X177850339Y-102173589D01*
X177865611Y-101881469D01*
X177823599Y-101591981D01*
X177725919Y-101316253D01*
X177652472Y-101178843D01*
X177403397Y-101101208D01*
X176554605Y-101950000D01*
X176195395Y-101950000D01*
X175346603Y-101101208D01*
X175105000Y-101176514D01*
X174863397Y-101101208D01*
X174014605Y-101950000D01*
X173655395Y-101950000D01*
X172806603Y-101101208D01*
X172557528Y-101178843D01*
X172431629Y-101442883D01*
X172359661Y-101726411D01*
X172344389Y-102018531D01*
X122835000Y-102018531D01*
X122835000Y-100438397D01*
X172986208Y-100438397D01*
X173061514Y-100680000D01*
X172986208Y-100921603D01*
X173835000Y-101770395D01*
X174683792Y-100921603D01*
X174608486Y-100680000D01*
X174683792Y-100438397D01*
X173835000Y-99589605D01*
X172986208Y-100438397D01*
X122835000Y-100438397D01*
X122835000Y-95834740D01*
X130947000Y-95834740D01*
X130947000Y-96127260D01*
X131004068Y-96414158D01*
X131116010Y-96684411D01*
X131278525Y-96927632D01*
X131485368Y-97134475D01*
X131659760Y-97251000D01*
X131485368Y-97367525D01*
X131278525Y-97574368D01*
X131116010Y-97817589D01*
X131004068Y-98087842D01*
X130947000Y-98374740D01*
X130947000Y-98667260D01*
X131004068Y-98954158D01*
X131116010Y-99224411D01*
X131278525Y-99467632D01*
X131485368Y-99674475D01*
X131728589Y-99836990D01*
X131998842Y-99948932D01*
X132285740Y-100006000D01*
X132578260Y-100006000D01*
X132865158Y-99948932D01*
X133135411Y-99836990D01*
X133378632Y-99674475D01*
X133510487Y-99542620D01*
X133532498Y-99615180D01*
X133591463Y-99725494D01*
X133670815Y-99822185D01*
X133767506Y-99901537D01*
X133877820Y-99960502D01*
X133997518Y-99996812D01*
X134122000Y-100009072D01*
X135822000Y-100009072D01*
X135946482Y-99996812D01*
X136066180Y-99960502D01*
X136176494Y-99901537D01*
X136273185Y-99822185D01*
X136352537Y-99725494D01*
X136411502Y-99615180D01*
X136447812Y-99495482D01*
X136449481Y-99478531D01*
X172344389Y-99478531D01*
X172386401Y-99768019D01*
X172484081Y-100043747D01*
X172557528Y-100181157D01*
X172806603Y-100258792D01*
X173655395Y-99410000D01*
X172806603Y-98561208D01*
X172557528Y-98638843D01*
X172431629Y-98902883D01*
X172359661Y-99186411D01*
X172344389Y-99478531D01*
X136449481Y-99478531D01*
X136460072Y-99371000D01*
X136460072Y-97671000D01*
X136447812Y-97546518D01*
X136411502Y-97426820D01*
X136352537Y-97316506D01*
X136273185Y-97219815D01*
X136176494Y-97140463D01*
X136066180Y-97081498D01*
X135993620Y-97059487D01*
X136125475Y-96927632D01*
X136287990Y-96684411D01*
X136399932Y-96414158D01*
X136457000Y-96127260D01*
X136457000Y-95834740D01*
X136399932Y-95547842D01*
X136287990Y-95277589D01*
X136125475Y-95034368D01*
X135918632Y-94827525D01*
X135744240Y-94711000D01*
X135918632Y-94594475D01*
X136125475Y-94387632D01*
X136287990Y-94144411D01*
X136399932Y-93874158D01*
X136457000Y-93587260D01*
X136457000Y-93294740D01*
X136399932Y-93007842D01*
X136287990Y-92737589D01*
X136266839Y-92705933D01*
X143409000Y-92705933D01*
X143409000Y-92906067D01*
X143448044Y-93102356D01*
X143524632Y-93287256D01*
X143635821Y-93453662D01*
X143777338Y-93595179D01*
X143943744Y-93706368D01*
X144128644Y-93782956D01*
X144324933Y-93822000D01*
X144525067Y-93822000D01*
X144721356Y-93782956D01*
X144868678Y-93721933D01*
X148870000Y-93721933D01*
X148870000Y-93922067D01*
X148909044Y-94118356D01*
X148985632Y-94303256D01*
X149096821Y-94469662D01*
X149238338Y-94611179D01*
X149404744Y-94722368D01*
X149589644Y-94798956D01*
X149785933Y-94838000D01*
X149986067Y-94838000D01*
X150182356Y-94798956D01*
X150367256Y-94722368D01*
X150533662Y-94611179D01*
X150675179Y-94469662D01*
X150786368Y-94303256D01*
X150862956Y-94118356D01*
X150902000Y-93922067D01*
X150902000Y-93721933D01*
X150862956Y-93525644D01*
X150786368Y-93340744D01*
X150675179Y-93174338D01*
X150533662Y-93032821D01*
X150367256Y-92921632D01*
X150182356Y-92845044D01*
X149986067Y-92806000D01*
X149785933Y-92806000D01*
X149589644Y-92845044D01*
X149404744Y-92921632D01*
X149238338Y-93032821D01*
X149096821Y-93174338D01*
X148985632Y-93340744D01*
X148909044Y-93525644D01*
X148870000Y-93721933D01*
X144868678Y-93721933D01*
X144906256Y-93706368D01*
X145072662Y-93595179D01*
X145214179Y-93453662D01*
X145325368Y-93287256D01*
X145401956Y-93102356D01*
X145441000Y-92906067D01*
X145441000Y-92705933D01*
X145401956Y-92509644D01*
X145325368Y-92324744D01*
X145214179Y-92158338D01*
X145072662Y-92016821D01*
X144906256Y-91905632D01*
X144721356Y-91829044D01*
X144525067Y-91790000D01*
X144324933Y-91790000D01*
X144128644Y-91829044D01*
X143943744Y-91905632D01*
X143777338Y-92016821D01*
X143635821Y-92158338D01*
X143524632Y-92324744D01*
X143448044Y-92509644D01*
X143409000Y-92705933D01*
X136266839Y-92705933D01*
X136125475Y-92494368D01*
X135918632Y-92287525D01*
X135675411Y-92125010D01*
X135405158Y-92013068D01*
X135118260Y-91956000D01*
X134825740Y-91956000D01*
X134538842Y-92013068D01*
X134268589Y-92125010D01*
X134025368Y-92287525D01*
X133818525Y-92494368D01*
X133700900Y-92670406D01*
X133529588Y-92440731D01*
X133313355Y-92245822D01*
X133063252Y-92096843D01*
X132788891Y-91999519D01*
X132559000Y-92120186D01*
X132559000Y-93314000D01*
X132579000Y-93314000D01*
X132579000Y-93568000D01*
X132559000Y-93568000D01*
X132559000Y-93588000D01*
X132305000Y-93588000D01*
X132305000Y-93568000D01*
X131111845Y-93568000D01*
X130990524Y-93797890D01*
X131035175Y-93945099D01*
X131160359Y-94207920D01*
X131334412Y-94441269D01*
X131550645Y-94636178D01*
X131667534Y-94705805D01*
X131485368Y-94827525D01*
X131278525Y-95034368D01*
X131116010Y-95277589D01*
X131004068Y-95547842D01*
X130947000Y-95834740D01*
X122835000Y-95834740D01*
X122835000Y-93084110D01*
X130990524Y-93084110D01*
X131111845Y-93314000D01*
X132305000Y-93314000D01*
X132305000Y-92120186D01*
X132075109Y-91999519D01*
X131800748Y-92096843D01*
X131550645Y-92245822D01*
X131334412Y-92440731D01*
X131160359Y-92674080D01*
X131035175Y-92936901D01*
X130990524Y-93084110D01*
X122835000Y-93084110D01*
X122835000Y-90927933D01*
X130146000Y-90927933D01*
X130146000Y-91128067D01*
X130185044Y-91324356D01*
X130261632Y-91509256D01*
X130372821Y-91675662D01*
X130514338Y-91817179D01*
X130680744Y-91928368D01*
X130865644Y-92004956D01*
X131061933Y-92044000D01*
X131262067Y-92044000D01*
X131458356Y-92004956D01*
X131643256Y-91928368D01*
X131809662Y-91817179D01*
X131951179Y-91675662D01*
X132062368Y-91509256D01*
X132138956Y-91324356D01*
X132178000Y-91128067D01*
X132178000Y-90927933D01*
X132138956Y-90731644D01*
X132062368Y-90546744D01*
X131951179Y-90380338D01*
X131809662Y-90238821D01*
X131643256Y-90127632D01*
X131458356Y-90051044D01*
X131262067Y-90012000D01*
X131061933Y-90012000D01*
X130865644Y-90051044D01*
X130680744Y-90127632D01*
X130514338Y-90238821D01*
X130372821Y-90380338D01*
X130261632Y-90546744D01*
X130185044Y-90731644D01*
X130146000Y-90927933D01*
X122835000Y-90927933D01*
X122835000Y-86563740D01*
X172350000Y-86563740D01*
X172350000Y-86856260D01*
X172407068Y-87143158D01*
X172519010Y-87413411D01*
X172681525Y-87656632D01*
X172888368Y-87863475D01*
X173062760Y-87980000D01*
X172888368Y-88096525D01*
X172681525Y-88303368D01*
X172519010Y-88546589D01*
X172407068Y-88816842D01*
X172350000Y-89103740D01*
X172350000Y-89396260D01*
X172407068Y-89683158D01*
X172519010Y-89953411D01*
X172681525Y-90196632D01*
X172888368Y-90403475D01*
X173062760Y-90520000D01*
X172888368Y-90636525D01*
X172681525Y-90843368D01*
X172519010Y-91086589D01*
X172407068Y-91356842D01*
X172350000Y-91643740D01*
X172350000Y-91936260D01*
X172407068Y-92223158D01*
X172519010Y-92493411D01*
X172681525Y-92736632D01*
X172888368Y-92943475D01*
X173062760Y-93060000D01*
X172888368Y-93176525D01*
X172681525Y-93383368D01*
X172519010Y-93626589D01*
X172407068Y-93896842D01*
X172350000Y-94183740D01*
X172350000Y-94476260D01*
X172407068Y-94763158D01*
X172519010Y-95033411D01*
X172681525Y-95276632D01*
X172888368Y-95483475D01*
X173062760Y-95600000D01*
X172888368Y-95716525D01*
X172681525Y-95923368D01*
X172519010Y-96166589D01*
X172407068Y-96436842D01*
X172350000Y-96723740D01*
X172350000Y-97016260D01*
X172407068Y-97303158D01*
X172519010Y-97573411D01*
X172681525Y-97816632D01*
X172888368Y-98023475D01*
X173061729Y-98139311D01*
X172986208Y-98381603D01*
X173835000Y-99230395D01*
X174683792Y-98381603D01*
X174608271Y-98139311D01*
X174781632Y-98023475D01*
X174988475Y-97816632D01*
X175105000Y-97642240D01*
X175221525Y-97816632D01*
X175428368Y-98023475D01*
X175602760Y-98140000D01*
X175428368Y-98256525D01*
X175221525Y-98463368D01*
X175105689Y-98636729D01*
X174863397Y-98561208D01*
X174014605Y-99410000D01*
X174863397Y-100258792D01*
X175105689Y-100183271D01*
X175221525Y-100356632D01*
X175428368Y-100563475D01*
X175601729Y-100679311D01*
X175526208Y-100921603D01*
X176375000Y-101770395D01*
X177223792Y-100921603D01*
X177148271Y-100679311D01*
X177321632Y-100563475D01*
X177528475Y-100356632D01*
X177690990Y-100113411D01*
X177802932Y-99843158D01*
X177860000Y-99556260D01*
X177860000Y-99263740D01*
X177802932Y-98976842D01*
X177690990Y-98706589D01*
X177528475Y-98463368D01*
X177321632Y-98256525D01*
X177147240Y-98140000D01*
X177321632Y-98023475D01*
X177528475Y-97816632D01*
X177690990Y-97573411D01*
X177802932Y-97303158D01*
X177860000Y-97016260D01*
X177860000Y-96723740D01*
X177802932Y-96436842D01*
X177690990Y-96166589D01*
X177528475Y-95923368D01*
X177321632Y-95716525D01*
X177147240Y-95600000D01*
X177321632Y-95483475D01*
X177528475Y-95276632D01*
X177690990Y-95033411D01*
X177802932Y-94763158D01*
X177860000Y-94476260D01*
X177860000Y-94183740D01*
X177802932Y-93896842D01*
X177690990Y-93626589D01*
X177528475Y-93383368D01*
X177321632Y-93176525D01*
X177147240Y-93060000D01*
X177321632Y-92943475D01*
X177528475Y-92736632D01*
X177690990Y-92493411D01*
X177802932Y-92223158D01*
X177860000Y-91936260D01*
X177860000Y-91643740D01*
X177802932Y-91356842D01*
X177690990Y-91086589D01*
X177528475Y-90843368D01*
X177321632Y-90636525D01*
X177147240Y-90520000D01*
X177321632Y-90403475D01*
X177528475Y-90196632D01*
X177690990Y-89953411D01*
X177802932Y-89683158D01*
X177860000Y-89396260D01*
X177860000Y-89103740D01*
X177802932Y-88816842D01*
X177690990Y-88546589D01*
X177528475Y-88303368D01*
X177321632Y-88096525D01*
X177147240Y-87980000D01*
X177321632Y-87863475D01*
X177528475Y-87656632D01*
X177690990Y-87413411D01*
X177802932Y-87143158D01*
X177860000Y-86856260D01*
X177860000Y-86563740D01*
X177802932Y-86276842D01*
X177690990Y-86006589D01*
X177528475Y-85763368D01*
X177321632Y-85556525D01*
X177148271Y-85440689D01*
X177223792Y-85198397D01*
X176375000Y-84349605D01*
X175526208Y-85198397D01*
X175601729Y-85440689D01*
X175428368Y-85556525D01*
X175221525Y-85763368D01*
X175105000Y-85937760D01*
X174988475Y-85763368D01*
X174781632Y-85556525D01*
X174608271Y-85440689D01*
X174683792Y-85198397D01*
X173835000Y-84349605D01*
X172986208Y-85198397D01*
X173061729Y-85440689D01*
X172888368Y-85556525D01*
X172681525Y-85763368D01*
X172519010Y-86006589D01*
X172407068Y-86276842D01*
X172350000Y-86563740D01*
X122835000Y-86563740D01*
X122835000Y-84069933D01*
X139517000Y-84069933D01*
X139517000Y-84270067D01*
X139556044Y-84466356D01*
X139632632Y-84651256D01*
X139743821Y-84817662D01*
X139885338Y-84959179D01*
X140051744Y-85070368D01*
X140236644Y-85146956D01*
X140432933Y-85186000D01*
X140633067Y-85186000D01*
X140829356Y-85146956D01*
X141014256Y-85070368D01*
X141180662Y-84959179D01*
X141322179Y-84817662D01*
X141433368Y-84651256D01*
X141509956Y-84466356D01*
X141549000Y-84270067D01*
X141549000Y-84238531D01*
X172344389Y-84238531D01*
X172386401Y-84528019D01*
X172484081Y-84803747D01*
X172557528Y-84941157D01*
X172806603Y-85018792D01*
X173655395Y-84170000D01*
X174014605Y-84170000D01*
X174863397Y-85018792D01*
X175105000Y-84943486D01*
X175346603Y-85018792D01*
X176195395Y-84170000D01*
X176554605Y-84170000D01*
X177403397Y-85018792D01*
X177652472Y-84941157D01*
X177778371Y-84677117D01*
X177850339Y-84393589D01*
X177865611Y-84101469D01*
X177823599Y-83811981D01*
X177725919Y-83536253D01*
X177652472Y-83398843D01*
X177403397Y-83321208D01*
X176554605Y-84170000D01*
X176195395Y-84170000D01*
X175346603Y-83321208D01*
X175105000Y-83396514D01*
X174863397Y-83321208D01*
X174014605Y-84170000D01*
X173655395Y-84170000D01*
X172806603Y-83321208D01*
X172557528Y-83398843D01*
X172431629Y-83662883D01*
X172359661Y-83946411D01*
X172344389Y-84238531D01*
X141549000Y-84238531D01*
X141549000Y-84069933D01*
X141509956Y-83873644D01*
X141433368Y-83688744D01*
X141322179Y-83522338D01*
X141180662Y-83380821D01*
X141014256Y-83269632D01*
X140829356Y-83193044D01*
X140633067Y-83154000D01*
X140432933Y-83154000D01*
X140236644Y-83193044D01*
X140051744Y-83269632D01*
X139885338Y-83380821D01*
X139743821Y-83522338D01*
X139632632Y-83688744D01*
X139556044Y-83873644D01*
X139517000Y-84069933D01*
X122835000Y-84069933D01*
X122835000Y-81483740D01*
X172350000Y-81483740D01*
X172350000Y-81776260D01*
X172407068Y-82063158D01*
X172519010Y-82333411D01*
X172681525Y-82576632D01*
X172888368Y-82783475D01*
X173061729Y-82899311D01*
X172986208Y-83141603D01*
X173835000Y-83990395D01*
X174683792Y-83141603D01*
X174608271Y-82899311D01*
X174781632Y-82783475D01*
X174988475Y-82576632D01*
X175105000Y-82402240D01*
X175221525Y-82576632D01*
X175428368Y-82783475D01*
X175601729Y-82899311D01*
X175526208Y-83141603D01*
X176375000Y-83990395D01*
X177223792Y-83141603D01*
X177148271Y-82899311D01*
X177321632Y-82783475D01*
X177528475Y-82576632D01*
X177690990Y-82333411D01*
X177802932Y-82063158D01*
X177860000Y-81776260D01*
X177860000Y-81483740D01*
X177802932Y-81196842D01*
X177690990Y-80926589D01*
X177528475Y-80683368D01*
X177321632Y-80476525D01*
X177148271Y-80360689D01*
X177223792Y-80118397D01*
X176375000Y-79269605D01*
X175526208Y-80118397D01*
X175601729Y-80360689D01*
X175428368Y-80476525D01*
X175221525Y-80683368D01*
X175105000Y-80857760D01*
X174988475Y-80683368D01*
X174781632Y-80476525D01*
X174608271Y-80360689D01*
X174683792Y-80118397D01*
X173835000Y-79269605D01*
X172986208Y-80118397D01*
X173061729Y-80360689D01*
X172888368Y-80476525D01*
X172681525Y-80683368D01*
X172519010Y-80926589D01*
X172407068Y-81196842D01*
X172350000Y-81483740D01*
X122835000Y-81483740D01*
X122835000Y-79243933D01*
X139517000Y-79243933D01*
X139517000Y-79444067D01*
X139556044Y-79640356D01*
X139632632Y-79825256D01*
X139743821Y-79991662D01*
X139885338Y-80133179D01*
X140051744Y-80244368D01*
X140236644Y-80320956D01*
X140432933Y-80360000D01*
X140633067Y-80360000D01*
X140829356Y-80320956D01*
X141014256Y-80244368D01*
X141180662Y-80133179D01*
X141322179Y-79991662D01*
X141433368Y-79825256D01*
X141509956Y-79640356D01*
X141549000Y-79444067D01*
X141549000Y-79243933D01*
X141532013Y-79158531D01*
X172344389Y-79158531D01*
X172386401Y-79448019D01*
X172484081Y-79723747D01*
X172557528Y-79861157D01*
X172806603Y-79938792D01*
X173655395Y-79090000D01*
X174014605Y-79090000D01*
X174863397Y-79938792D01*
X175105000Y-79863486D01*
X175346603Y-79938792D01*
X176195395Y-79090000D01*
X176554605Y-79090000D01*
X177403397Y-79938792D01*
X177652472Y-79861157D01*
X177778371Y-79597117D01*
X177850339Y-79313589D01*
X177865611Y-79021469D01*
X177823599Y-78731981D01*
X177725919Y-78456253D01*
X177652472Y-78318843D01*
X177403397Y-78241208D01*
X176554605Y-79090000D01*
X176195395Y-79090000D01*
X175346603Y-78241208D01*
X175105000Y-78316514D01*
X174863397Y-78241208D01*
X174014605Y-79090000D01*
X173655395Y-79090000D01*
X172806603Y-78241208D01*
X172557528Y-78318843D01*
X172431629Y-78582883D01*
X172359661Y-78866411D01*
X172344389Y-79158531D01*
X141532013Y-79158531D01*
X141509956Y-79047644D01*
X141433368Y-78862744D01*
X141322179Y-78696338D01*
X141180662Y-78554821D01*
X141014256Y-78443632D01*
X140829356Y-78367044D01*
X140633067Y-78328000D01*
X140432933Y-78328000D01*
X140236644Y-78367044D01*
X140051744Y-78443632D01*
X139885338Y-78554821D01*
X139743821Y-78696338D01*
X139632632Y-78862744D01*
X139556044Y-79047644D01*
X139517000Y-79243933D01*
X122835000Y-79243933D01*
X122835000Y-76957933D01*
X136596000Y-76957933D01*
X136596000Y-77158067D01*
X136635044Y-77354356D01*
X136711632Y-77539256D01*
X136822821Y-77705662D01*
X136964338Y-77847179D01*
X137130744Y-77958368D01*
X137315644Y-78034956D01*
X137511933Y-78074000D01*
X137712067Y-78074000D01*
X137908356Y-78034956D01*
X138093256Y-77958368D01*
X138259662Y-77847179D01*
X138401179Y-77705662D01*
X138512368Y-77539256D01*
X138588956Y-77354356D01*
X138628000Y-77158067D01*
X138628000Y-76957933D01*
X138588956Y-76761644D01*
X138512368Y-76576744D01*
X138401179Y-76410338D01*
X138259662Y-76268821D01*
X138093256Y-76157632D01*
X137908356Y-76081044D01*
X137712067Y-76042000D01*
X137511933Y-76042000D01*
X137315644Y-76081044D01*
X137130744Y-76157632D01*
X136964338Y-76268821D01*
X136822821Y-76410338D01*
X136711632Y-76576744D01*
X136635044Y-76761644D01*
X136596000Y-76957933D01*
X122835000Y-76957933D01*
X122835000Y-73337933D01*
X145800000Y-73337933D01*
X145800000Y-73538067D01*
X145839044Y-73734356D01*
X145915632Y-73919256D01*
X146026821Y-74085662D01*
X146168338Y-74227179D01*
X146334744Y-74338368D01*
X146519644Y-74414956D01*
X146715933Y-74454000D01*
X146916067Y-74454000D01*
X147112356Y-74414956D01*
X147297256Y-74338368D01*
X147368247Y-74290933D01*
X155347000Y-74290933D01*
X155347000Y-74491067D01*
X155386044Y-74687356D01*
X155462632Y-74872256D01*
X155573821Y-75038662D01*
X155715338Y-75180179D01*
X155881744Y-75291368D01*
X156066644Y-75367956D01*
X156262933Y-75407000D01*
X156463067Y-75407000D01*
X156659356Y-75367956D01*
X156844256Y-75291368D01*
X157010662Y-75180179D01*
X157152179Y-75038662D01*
X157263368Y-74872256D01*
X157339956Y-74687356D01*
X157379000Y-74491067D01*
X157379000Y-74290933D01*
X157339956Y-74094644D01*
X157263368Y-73909744D01*
X157152179Y-73743338D01*
X157010662Y-73601821D01*
X156844256Y-73490632D01*
X156659356Y-73414044D01*
X156463067Y-73375000D01*
X156262933Y-73375000D01*
X156066644Y-73414044D01*
X155881744Y-73490632D01*
X155715338Y-73601821D01*
X155573821Y-73743338D01*
X155462632Y-73909744D01*
X155386044Y-74094644D01*
X155347000Y-74290933D01*
X147368247Y-74290933D01*
X147463662Y-74227179D01*
X147605179Y-74085662D01*
X147716368Y-73919256D01*
X147792956Y-73734356D01*
X147832000Y-73538067D01*
X147832000Y-73337933D01*
X147792956Y-73141644D01*
X147716368Y-72956744D01*
X147605179Y-72790338D01*
X147463662Y-72648821D01*
X147297256Y-72537632D01*
X147112356Y-72461044D01*
X146916067Y-72422000D01*
X146715933Y-72422000D01*
X146519644Y-72461044D01*
X146334744Y-72537632D01*
X146168338Y-72648821D01*
X146026821Y-72790338D01*
X145915632Y-72956744D01*
X145839044Y-73141644D01*
X145800000Y-73337933D01*
X122835000Y-73337933D01*
X122835000Y-70869933D01*
X133308000Y-70869933D01*
X133308000Y-71070067D01*
X133347044Y-71266356D01*
X133423632Y-71451256D01*
X133534821Y-71617662D01*
X133676338Y-71759179D01*
X133842744Y-71870368D01*
X134027644Y-71946956D01*
X134223933Y-71986000D01*
X134424067Y-71986000D01*
X134620356Y-71946956D01*
X134805256Y-71870368D01*
X134971662Y-71759179D01*
X135113179Y-71617662D01*
X135224368Y-71451256D01*
X135300956Y-71266356D01*
X135340000Y-71070067D01*
X135340000Y-70869933D01*
X135300956Y-70673644D01*
X135224368Y-70488744D01*
X135113179Y-70322338D01*
X134971662Y-70180821D01*
X134805256Y-70069632D01*
X134620356Y-69993044D01*
X134424067Y-69954000D01*
X134223933Y-69954000D01*
X134027644Y-69993044D01*
X133842744Y-70069632D01*
X133676338Y-70180821D01*
X133534821Y-70322338D01*
X133423632Y-70488744D01*
X133347044Y-70673644D01*
X133308000Y-70869933D01*
X122835000Y-70869933D01*
X122835000Y-68069933D01*
X133308000Y-68069933D01*
X133308000Y-68270067D01*
X133347044Y-68466356D01*
X133423632Y-68651256D01*
X133534821Y-68817662D01*
X133676338Y-68959179D01*
X133842744Y-69070368D01*
X134027644Y-69146956D01*
X134223933Y-69186000D01*
X134424067Y-69186000D01*
X134620356Y-69146956D01*
X134805256Y-69070368D01*
X134971662Y-68959179D01*
X135113179Y-68817662D01*
X135135844Y-68783740D01*
X172350000Y-68783740D01*
X172350000Y-69076260D01*
X172407068Y-69363158D01*
X172519010Y-69633411D01*
X172681525Y-69876632D01*
X172888368Y-70083475D01*
X173062760Y-70200000D01*
X172888368Y-70316525D01*
X172681525Y-70523368D01*
X172519010Y-70766589D01*
X172407068Y-71036842D01*
X172350000Y-71323740D01*
X172350000Y-71616260D01*
X172407068Y-71903158D01*
X172519010Y-72173411D01*
X172681525Y-72416632D01*
X172888368Y-72623475D01*
X173062760Y-72740000D01*
X172888368Y-72856525D01*
X172681525Y-73063368D01*
X172519010Y-73306589D01*
X172407068Y-73576842D01*
X172350000Y-73863740D01*
X172350000Y-74156260D01*
X172407068Y-74443158D01*
X172519010Y-74713411D01*
X172681525Y-74956632D01*
X172888368Y-75163475D01*
X173062760Y-75280000D01*
X172888368Y-75396525D01*
X172681525Y-75603368D01*
X172519010Y-75846589D01*
X172407068Y-76116842D01*
X172350000Y-76403740D01*
X172350000Y-76696260D01*
X172407068Y-76983158D01*
X172519010Y-77253411D01*
X172681525Y-77496632D01*
X172888368Y-77703475D01*
X173061729Y-77819311D01*
X172986208Y-78061603D01*
X173835000Y-78910395D01*
X174683792Y-78061603D01*
X174608271Y-77819311D01*
X174781632Y-77703475D01*
X174988475Y-77496632D01*
X175105000Y-77322240D01*
X175221525Y-77496632D01*
X175428368Y-77703475D01*
X175601729Y-77819311D01*
X175526208Y-78061603D01*
X176375000Y-78910395D01*
X177223792Y-78061603D01*
X177148271Y-77819311D01*
X177321632Y-77703475D01*
X177528475Y-77496632D01*
X177690990Y-77253411D01*
X177802932Y-76983158D01*
X177860000Y-76696260D01*
X177860000Y-76403740D01*
X177802932Y-76116842D01*
X177690990Y-75846589D01*
X177528475Y-75603368D01*
X177321632Y-75396525D01*
X177147240Y-75280000D01*
X177321632Y-75163475D01*
X177528475Y-74956632D01*
X177690990Y-74713411D01*
X177802932Y-74443158D01*
X177860000Y-74156260D01*
X177860000Y-73863740D01*
X177802932Y-73576842D01*
X177690990Y-73306589D01*
X177528475Y-73063368D01*
X177321632Y-72856525D01*
X177147240Y-72740000D01*
X177321632Y-72623475D01*
X177528475Y-72416632D01*
X177690990Y-72173411D01*
X177802932Y-71903158D01*
X177860000Y-71616260D01*
X177860000Y-71323740D01*
X177802932Y-71036842D01*
X177690990Y-70766589D01*
X177528475Y-70523368D01*
X177321632Y-70316525D01*
X177147240Y-70200000D01*
X177321632Y-70083475D01*
X177528475Y-69876632D01*
X177690990Y-69633411D01*
X177802932Y-69363158D01*
X177860000Y-69076260D01*
X177860000Y-68783740D01*
X177802932Y-68496842D01*
X177690990Y-68226589D01*
X177528475Y-67983368D01*
X177321632Y-67776525D01*
X177148271Y-67660689D01*
X177223792Y-67418397D01*
X176375000Y-66569605D01*
X175526208Y-67418397D01*
X175601729Y-67660689D01*
X175428368Y-67776525D01*
X175221525Y-67983368D01*
X175105000Y-68157760D01*
X174988475Y-67983368D01*
X174781632Y-67776525D01*
X174608271Y-67660689D01*
X174683792Y-67418397D01*
X173835000Y-66569605D01*
X172986208Y-67418397D01*
X173061729Y-67660689D01*
X172888368Y-67776525D01*
X172681525Y-67983368D01*
X172519010Y-68226589D01*
X172407068Y-68496842D01*
X172350000Y-68783740D01*
X135135844Y-68783740D01*
X135224368Y-68651256D01*
X135300956Y-68466356D01*
X135340000Y-68270067D01*
X135340000Y-68069933D01*
X135300956Y-67873644D01*
X135224368Y-67688744D01*
X135113179Y-67522338D01*
X134971662Y-67380821D01*
X134805256Y-67269632D01*
X134620356Y-67193044D01*
X134424067Y-67154000D01*
X134223933Y-67154000D01*
X134027644Y-67193044D01*
X133842744Y-67269632D01*
X133676338Y-67380821D01*
X133534821Y-67522338D01*
X133423632Y-67688744D01*
X133347044Y-67873644D01*
X133308000Y-68069933D01*
X122835000Y-68069933D01*
X122835000Y-66458531D01*
X172344389Y-66458531D01*
X172386401Y-66748019D01*
X172484081Y-67023747D01*
X172557528Y-67161157D01*
X172806603Y-67238792D01*
X173655395Y-66390000D01*
X174014605Y-66390000D01*
X174863397Y-67238792D01*
X175105000Y-67163486D01*
X175346603Y-67238792D01*
X176195395Y-66390000D01*
X176554605Y-66390000D01*
X177403397Y-67238792D01*
X177652472Y-67161157D01*
X177778371Y-66897117D01*
X177850339Y-66613589D01*
X177865611Y-66321469D01*
X177823599Y-66031981D01*
X177725919Y-65756253D01*
X177652472Y-65618843D01*
X177403397Y-65541208D01*
X176554605Y-66390000D01*
X176195395Y-66390000D01*
X175346603Y-65541208D01*
X175105000Y-65616514D01*
X174863397Y-65541208D01*
X174014605Y-66390000D01*
X173655395Y-66390000D01*
X172806603Y-65541208D01*
X172557528Y-65618843D01*
X172431629Y-65882883D01*
X172359661Y-66166411D01*
X172344389Y-66458531D01*
X122835000Y-66458531D01*
X122835000Y-64878397D01*
X172986208Y-64878397D01*
X173061514Y-65120000D01*
X172986208Y-65361603D01*
X173835000Y-66210395D01*
X174683792Y-65361603D01*
X174608486Y-65120000D01*
X174683792Y-64878397D01*
X175526208Y-64878397D01*
X175601514Y-65120000D01*
X175526208Y-65361603D01*
X176375000Y-66210395D01*
X177223792Y-65361603D01*
X177148486Y-65120000D01*
X177223792Y-64878397D01*
X176375000Y-64029605D01*
X175526208Y-64878397D01*
X174683792Y-64878397D01*
X173835000Y-64029605D01*
X172986208Y-64878397D01*
X122835000Y-64878397D01*
X122835000Y-63918531D01*
X172344389Y-63918531D01*
X172386401Y-64208019D01*
X172484081Y-64483747D01*
X172557528Y-64621157D01*
X172806603Y-64698792D01*
X173655395Y-63850000D01*
X174014605Y-63850000D01*
X174863397Y-64698792D01*
X175105000Y-64623486D01*
X175346603Y-64698792D01*
X176195395Y-63850000D01*
X176554605Y-63850000D01*
X177403397Y-64698792D01*
X177652472Y-64621157D01*
X177778371Y-64357117D01*
X177850339Y-64073589D01*
X177865611Y-63781469D01*
X177823599Y-63491981D01*
X177725919Y-63216253D01*
X177652472Y-63078843D01*
X177403397Y-63001208D01*
X176554605Y-63850000D01*
X176195395Y-63850000D01*
X175346603Y-63001208D01*
X175105000Y-63076514D01*
X174863397Y-63001208D01*
X174014605Y-63850000D01*
X173655395Y-63850000D01*
X172806603Y-63001208D01*
X172557528Y-63078843D01*
X172431629Y-63342883D01*
X172359661Y-63626411D01*
X172344389Y-63918531D01*
X122835000Y-63918531D01*
X122835000Y-61086933D01*
X132990000Y-61086933D01*
X132990000Y-61287067D01*
X133029044Y-61483356D01*
X133105632Y-61668256D01*
X133216821Y-61834662D01*
X133358338Y-61976179D01*
X133524744Y-62087368D01*
X133709644Y-62163956D01*
X133905933Y-62203000D01*
X134106067Y-62203000D01*
X134302356Y-62163956D01*
X134487256Y-62087368D01*
X134653662Y-61976179D01*
X134795179Y-61834662D01*
X134906368Y-61668256D01*
X134982956Y-61483356D01*
X135022000Y-61287067D01*
X135022000Y-61086933D01*
X134982956Y-60890644D01*
X134906368Y-60705744D01*
X134795179Y-60539338D01*
X134653662Y-60397821D01*
X134487256Y-60286632D01*
X134302356Y-60210044D01*
X134106067Y-60171000D01*
X133905933Y-60171000D01*
X133709644Y-60210044D01*
X133524744Y-60286632D01*
X133358338Y-60397821D01*
X133216821Y-60539338D01*
X133105632Y-60705744D01*
X133029044Y-60890644D01*
X132990000Y-61086933D01*
X122835000Y-61086933D01*
X122835000Y-59070933D01*
X142238000Y-59070933D01*
X142238000Y-59271067D01*
X142277044Y-59467356D01*
X142353632Y-59652256D01*
X142464821Y-59818662D01*
X142606338Y-59960179D01*
X142772744Y-60071368D01*
X142957644Y-60147956D01*
X143153933Y-60187000D01*
X143354067Y-60187000D01*
X143550356Y-60147956D01*
X143735256Y-60071368D01*
X143901662Y-59960179D01*
X144043179Y-59818662D01*
X144154368Y-59652256D01*
X144230956Y-59467356D01*
X144270000Y-59271067D01*
X144270000Y-59070933D01*
X144230956Y-58874644D01*
X144154368Y-58689744D01*
X144043179Y-58523338D01*
X143901662Y-58381821D01*
X143735256Y-58270632D01*
X143550356Y-58194044D01*
X143354067Y-58155000D01*
X143153933Y-58155000D01*
X142957644Y-58194044D01*
X142772744Y-58270632D01*
X142606338Y-58381821D01*
X142464821Y-58523338D01*
X142353632Y-58689744D01*
X142277044Y-58874644D01*
X142238000Y-59070933D01*
X122835000Y-59070933D01*
X122835000Y-57657933D01*
X127615000Y-57657933D01*
X127615000Y-57858067D01*
X127654044Y-58054356D01*
X127730632Y-58239256D01*
X127841821Y-58405662D01*
X127983338Y-58547179D01*
X128149744Y-58658368D01*
X128334644Y-58734956D01*
X128530933Y-58774000D01*
X128731067Y-58774000D01*
X128927356Y-58734956D01*
X129112256Y-58658368D01*
X129278662Y-58547179D01*
X129420179Y-58405662D01*
X129531368Y-58239256D01*
X129607956Y-58054356D01*
X129647000Y-57858067D01*
X129647000Y-57657933D01*
X129607956Y-57461644D01*
X129531368Y-57276744D01*
X129420179Y-57110338D01*
X129278662Y-56968821D01*
X129112256Y-56857632D01*
X128927356Y-56781044D01*
X128731067Y-56742000D01*
X128530933Y-56742000D01*
X128334644Y-56781044D01*
X128149744Y-56857632D01*
X127983338Y-56968821D01*
X127841821Y-57110338D01*
X127730632Y-57276744D01*
X127654044Y-57461644D01*
X127615000Y-57657933D01*
X122835000Y-57657933D01*
X122835000Y-51116933D01*
X136240000Y-51116933D01*
X136240000Y-51317067D01*
X136279044Y-51513356D01*
X136355632Y-51698256D01*
X136466821Y-51864662D01*
X136608338Y-52006179D01*
X136774744Y-52117368D01*
X136959644Y-52193956D01*
X137155933Y-52233000D01*
X137356067Y-52233000D01*
X137552356Y-52193956D01*
X137737256Y-52117368D01*
X137903662Y-52006179D01*
X137909841Y-52000000D01*
X172346928Y-52000000D01*
X172359188Y-52124482D01*
X172395498Y-52244180D01*
X172454463Y-52354494D01*
X172533815Y-52451185D01*
X172630506Y-52530537D01*
X172740820Y-52589502D01*
X172813380Y-52611513D01*
X172681525Y-52743368D01*
X172519010Y-52986589D01*
X172407068Y-53256842D01*
X172350000Y-53543740D01*
X172350000Y-53836260D01*
X172407068Y-54123158D01*
X172519010Y-54393411D01*
X172681525Y-54636632D01*
X172888368Y-54843475D01*
X173062760Y-54960000D01*
X172888368Y-55076525D01*
X172681525Y-55283368D01*
X172519010Y-55526589D01*
X172407068Y-55796842D01*
X172350000Y-56083740D01*
X172350000Y-56376260D01*
X172407068Y-56663158D01*
X172519010Y-56933411D01*
X172681525Y-57176632D01*
X172888368Y-57383475D01*
X173062760Y-57500000D01*
X172888368Y-57616525D01*
X172681525Y-57823368D01*
X172519010Y-58066589D01*
X172407068Y-58336842D01*
X172350000Y-58623740D01*
X172350000Y-58916260D01*
X172407068Y-59203158D01*
X172519010Y-59473411D01*
X172681525Y-59716632D01*
X172888368Y-59923475D01*
X173062760Y-60040000D01*
X172888368Y-60156525D01*
X172681525Y-60363368D01*
X172519010Y-60606589D01*
X172407068Y-60876842D01*
X172350000Y-61163740D01*
X172350000Y-61456260D01*
X172407068Y-61743158D01*
X172519010Y-62013411D01*
X172681525Y-62256632D01*
X172888368Y-62463475D01*
X173061729Y-62579311D01*
X172986208Y-62821603D01*
X173835000Y-63670395D01*
X174683792Y-62821603D01*
X174608271Y-62579311D01*
X174781632Y-62463475D01*
X174988475Y-62256632D01*
X175105000Y-62082240D01*
X175221525Y-62256632D01*
X175428368Y-62463475D01*
X175601729Y-62579311D01*
X175526208Y-62821603D01*
X176375000Y-63670395D01*
X177223792Y-62821603D01*
X177148271Y-62579311D01*
X177321632Y-62463475D01*
X177528475Y-62256632D01*
X177690990Y-62013411D01*
X177802932Y-61743158D01*
X177860000Y-61456260D01*
X177860000Y-61163740D01*
X177802932Y-60876842D01*
X177690990Y-60606589D01*
X177528475Y-60363368D01*
X177321632Y-60156525D01*
X177147240Y-60040000D01*
X177321632Y-59923475D01*
X177528475Y-59716632D01*
X177690990Y-59473411D01*
X177802932Y-59203158D01*
X177860000Y-58916260D01*
X177860000Y-58623740D01*
X177802932Y-58336842D01*
X177690990Y-58066589D01*
X177528475Y-57823368D01*
X177321632Y-57616525D01*
X177147240Y-57500000D01*
X177321632Y-57383475D01*
X177528475Y-57176632D01*
X177690990Y-56933411D01*
X177802932Y-56663158D01*
X177860000Y-56376260D01*
X177860000Y-56083740D01*
X177802932Y-55796842D01*
X177690990Y-55526589D01*
X177528475Y-55283368D01*
X177321632Y-55076525D01*
X177147240Y-54960000D01*
X177321632Y-54843475D01*
X177528475Y-54636632D01*
X177690990Y-54393411D01*
X177802932Y-54123158D01*
X177860000Y-53836260D01*
X177860000Y-53543740D01*
X177802932Y-53256842D01*
X177690990Y-52986589D01*
X177528475Y-52743368D01*
X177321632Y-52536525D01*
X177148271Y-52420689D01*
X177223792Y-52178397D01*
X176375000Y-51329605D01*
X175526208Y-52178397D01*
X175601729Y-52420689D01*
X175428368Y-52536525D01*
X175221525Y-52743368D01*
X175105000Y-52917760D01*
X174988475Y-52743368D01*
X174856620Y-52611513D01*
X174929180Y-52589502D01*
X175039494Y-52530537D01*
X175136185Y-52451185D01*
X175215537Y-52354494D01*
X175274502Y-52244180D01*
X175310812Y-52124482D01*
X175323072Y-52000000D01*
X175323025Y-51991443D01*
X175346603Y-51998792D01*
X176195395Y-51150000D01*
X176554605Y-51150000D01*
X177403397Y-51998792D01*
X177652472Y-51921157D01*
X177778371Y-51657117D01*
X177850339Y-51373589D01*
X177865611Y-51081469D01*
X177823599Y-50791981D01*
X177725919Y-50516253D01*
X177652472Y-50378843D01*
X177403397Y-50301208D01*
X176554605Y-51150000D01*
X176195395Y-51150000D01*
X175346603Y-50301208D01*
X175323025Y-50308557D01*
X175323072Y-50300000D01*
X175310812Y-50175518D01*
X175294458Y-50121603D01*
X175526208Y-50121603D01*
X176375000Y-50970395D01*
X177223792Y-50121603D01*
X177146157Y-49872528D01*
X176882117Y-49746629D01*
X176598589Y-49674661D01*
X176306469Y-49659389D01*
X176016981Y-49701401D01*
X175741253Y-49799081D01*
X175603843Y-49872528D01*
X175526208Y-50121603D01*
X175294458Y-50121603D01*
X175274502Y-50055820D01*
X175215537Y-49945506D01*
X175136185Y-49848815D01*
X175039494Y-49769463D01*
X174929180Y-49710498D01*
X174809482Y-49674188D01*
X174685000Y-49661928D01*
X174120750Y-49665000D01*
X173962000Y-49823750D01*
X173962000Y-51023000D01*
X173982000Y-51023000D01*
X173982000Y-51277000D01*
X173962000Y-51277000D01*
X173962000Y-51297000D01*
X173708000Y-51297000D01*
X173708000Y-51277000D01*
X172508750Y-51277000D01*
X172350000Y-51435750D01*
X172346928Y-52000000D01*
X137909841Y-52000000D01*
X138045179Y-51864662D01*
X138156368Y-51698256D01*
X138232956Y-51513356D01*
X138272000Y-51317067D01*
X138272000Y-51116933D01*
X138232956Y-50920644D01*
X138156368Y-50735744D01*
X138045179Y-50569338D01*
X137903662Y-50427821D01*
X137737256Y-50316632D01*
X137697103Y-50300000D01*
X172346928Y-50300000D01*
X172350000Y-50864250D01*
X172508750Y-51023000D01*
X173708000Y-51023000D01*
X173708000Y-49823750D01*
X173549250Y-49665000D01*
X172985000Y-49661928D01*
X172860518Y-49674188D01*
X172740820Y-49710498D01*
X172630506Y-49769463D01*
X172533815Y-49848815D01*
X172454463Y-49945506D01*
X172395498Y-50055820D01*
X172359188Y-50175518D01*
X172346928Y-50300000D01*
X137697103Y-50300000D01*
X137552356Y-50240044D01*
X137356067Y-50201000D01*
X137155933Y-50201000D01*
X136959644Y-50240044D01*
X136774744Y-50316632D01*
X136608338Y-50427821D01*
X136466821Y-50569338D01*
X136355632Y-50735744D01*
X136279044Y-50920644D01*
X136240000Y-51116933D01*
X122835000Y-51116933D01*
X122835000Y-33049392D01*
X122906173Y-32251917D01*
X123109656Y-31508109D01*
X123441638Y-30812095D01*
X123891626Y-30185870D01*
X124445403Y-29649223D01*
X125085451Y-29219129D01*
X125791553Y-28909171D01*
X126546457Y-28727935D01*
X127199207Y-28680000D01*
X185401620Y-28680000D01*
X186515001Y-29793382D01*
G37*
X186515001Y-29793382D02*
X186515000Y-90487581D01*
X186515000Y-90487582D01*
X186515001Y-151246618D01*
X185401620Y-152360000D01*
X127204392Y-152360000D01*
X126406917Y-152288827D01*
X125663110Y-152085344D01*
X124967096Y-151753363D01*
X124340870Y-151303374D01*
X123804223Y-150749597D01*
X123374129Y-150109549D01*
X123064171Y-149403447D01*
X122882935Y-148648543D01*
X122835000Y-147995793D01*
X122835000Y-133886933D01*
X132114000Y-133886933D01*
X132114000Y-134087067D01*
X132153044Y-134283356D01*
X132229632Y-134468256D01*
X132340821Y-134634662D01*
X132482338Y-134776179D01*
X132648744Y-134887368D01*
X132833644Y-134963956D01*
X133029933Y-135003000D01*
X133230067Y-135003000D01*
X133426356Y-134963956D01*
X133611256Y-134887368D01*
X133777662Y-134776179D01*
X133919179Y-134634662D01*
X134030368Y-134468256D01*
X134106956Y-134283356D01*
X134146000Y-134087067D01*
X134146000Y-133886933D01*
X134106956Y-133690644D01*
X134030368Y-133505744D01*
X133919179Y-133339338D01*
X133777662Y-133197821D01*
X133611256Y-133086632D01*
X133426356Y-133010044D01*
X133230067Y-132971000D01*
X133029933Y-132971000D01*
X132833644Y-133010044D01*
X132648744Y-133086632D01*
X132482338Y-133197821D01*
X132340821Y-133339338D01*
X132229632Y-133505744D01*
X132153044Y-133690644D01*
X132114000Y-133886933D01*
X122835000Y-133886933D01*
X122835000Y-130918397D01*
X172986208Y-130918397D01*
X173063843Y-131167472D01*
X173327883Y-131293371D01*
X173611411Y-131365339D01*
X173903531Y-131380611D01*
X174193019Y-131338599D01*
X174468747Y-131240919D01*
X174606157Y-131167472D01*
X174683792Y-130918397D01*
X175526208Y-130918397D01*
X175603843Y-131167472D01*
X175867883Y-131293371D01*
X176151411Y-131365339D01*
X176443531Y-131380611D01*
X176733019Y-131338599D01*
X177008747Y-131240919D01*
X177146157Y-131167472D01*
X177223792Y-130918397D01*
X176375000Y-130069605D01*
X175526208Y-130918397D01*
X174683792Y-130918397D01*
X173835000Y-130069605D01*
X172986208Y-130918397D01*
X122835000Y-130918397D01*
X122835000Y-129958531D01*
X172344389Y-129958531D01*
X172386401Y-130248019D01*
X172484081Y-130523747D01*
X172557528Y-130661157D01*
X172806603Y-130738792D01*
X173655395Y-129890000D01*
X174014605Y-129890000D01*
X174863397Y-130738792D01*
X175105000Y-130663486D01*
X175346603Y-130738792D01*
X176195395Y-129890000D01*
X176554605Y-129890000D01*
X177403397Y-130738792D01*
X177652472Y-130661157D01*
X177778371Y-130397117D01*
X177850339Y-130113589D01*
X177865611Y-129821469D01*
X177823599Y-129531981D01*
X177725919Y-129256253D01*
X177652472Y-129118843D01*
X177403397Y-129041208D01*
X176554605Y-129890000D01*
X176195395Y-129890000D01*
X175346603Y-129041208D01*
X175105000Y-129116514D01*
X174863397Y-129041208D01*
X174014605Y-129890000D01*
X173655395Y-129890000D01*
X172806603Y-129041208D01*
X172557528Y-129118843D01*
X172431629Y-129382883D01*
X172359661Y-129666411D01*
X172344389Y-129958531D01*
X122835000Y-129958531D01*
X122835000Y-127855933D01*
X132114000Y-127855933D01*
X132114000Y-128056067D01*
X132153044Y-128252356D01*
X132229632Y-128437256D01*
X132340821Y-128603662D01*
X132482338Y-128745179D01*
X132648744Y-128856368D01*
X132833644Y-128932956D01*
X133029933Y-128972000D01*
X133230067Y-128972000D01*
X133426356Y-128932956D01*
X133611256Y-128856368D01*
X133777662Y-128745179D01*
X133919179Y-128603662D01*
X134030368Y-128437256D01*
X134106956Y-128252356D01*
X134146000Y-128056067D01*
X134146000Y-127855933D01*
X134106956Y-127659644D01*
X134030368Y-127474744D01*
X133919179Y-127308338D01*
X133777662Y-127166821D01*
X133611256Y-127055632D01*
X133426356Y-126979044D01*
X133230067Y-126940000D01*
X133029933Y-126940000D01*
X132833644Y-126979044D01*
X132648744Y-127055632D01*
X132482338Y-127166821D01*
X132340821Y-127308338D01*
X132229632Y-127474744D01*
X132153044Y-127659644D01*
X132114000Y-127855933D01*
X122835000Y-127855933D01*
X122835000Y-121881933D01*
X132114000Y-121881933D01*
X132114000Y-122082067D01*
X132153044Y-122278356D01*
X132229632Y-122463256D01*
X132340821Y-122629662D01*
X132482338Y-122771179D01*
X132648744Y-122882368D01*
X132833644Y-122958956D01*
X133029933Y-122998000D01*
X133230067Y-122998000D01*
X133426356Y-122958956D01*
X133611256Y-122882368D01*
X133777662Y-122771179D01*
X133919179Y-122629662D01*
X134030368Y-122463256D01*
X134106956Y-122278356D01*
X134146000Y-122082067D01*
X134146000Y-121881933D01*
X134106956Y-121685644D01*
X134030368Y-121500744D01*
X133919179Y-121334338D01*
X133777662Y-121192821D01*
X133611256Y-121081632D01*
X133426356Y-121005044D01*
X133230067Y-120966000D01*
X133029933Y-120966000D01*
X132833644Y-121005044D01*
X132648744Y-121081632D01*
X132482338Y-121192821D01*
X132340821Y-121334338D01*
X132229632Y-121500744D01*
X132153044Y-121685644D01*
X132114000Y-121881933D01*
X122835000Y-121881933D01*
X122835000Y-119583740D01*
X172350000Y-119583740D01*
X172350000Y-119876260D01*
X172407068Y-120163158D01*
X172519010Y-120433411D01*
X172681525Y-120676632D01*
X172888368Y-120883475D01*
X173062760Y-121000000D01*
X172888368Y-121116525D01*
X172681525Y-121323368D01*
X172519010Y-121566589D01*
X172407068Y-121836842D01*
X172350000Y-122123740D01*
X172350000Y-122416260D01*
X172407068Y-122703158D01*
X172519010Y-122973411D01*
X172681525Y-123216632D01*
X172888368Y-123423475D01*
X173062760Y-123540000D01*
X172888368Y-123656525D01*
X172681525Y-123863368D01*
X172519010Y-124106589D01*
X172407068Y-124376842D01*
X172350000Y-124663740D01*
X172350000Y-124956260D01*
X172407068Y-125243158D01*
X172519010Y-125513411D01*
X172681525Y-125756632D01*
X172888368Y-125963475D01*
X173062760Y-126080000D01*
X172888368Y-126196525D01*
X172681525Y-126403368D01*
X172519010Y-126646589D01*
X172407068Y-126916842D01*
X172350000Y-127203740D01*
X172350000Y-127496260D01*
X172407068Y-127783158D01*
X172519010Y-128053411D01*
X172681525Y-128296632D01*
X172888368Y-128503475D01*
X173061729Y-128619311D01*
X172986208Y-128861603D01*
X173835000Y-129710395D01*
X174683792Y-128861603D01*
X174608271Y-128619311D01*
X174781632Y-128503475D01*
X174988475Y-128296632D01*
X175105000Y-128122240D01*
X175221525Y-128296632D01*
X175428368Y-128503475D01*
X175601729Y-128619311D01*
X175526208Y-128861603D01*
X176375000Y-129710395D01*
X177223792Y-128861603D01*
X177148271Y-128619311D01*
X177321632Y-128503475D01*
X177528475Y-128296632D01*
X177690990Y-128053411D01*
X177802932Y-127783158D01*
X177860000Y-127496260D01*
X177860000Y-127203740D01*
X177802932Y-126916842D01*
X177690990Y-126646589D01*
X177528475Y-126403368D01*
X177321632Y-126196525D01*
X177147240Y-126080000D01*
X177321632Y-125963475D01*
X177528475Y-125756632D01*
X177690990Y-125513411D01*
X177802932Y-125243158D01*
X177860000Y-124956260D01*
X177860000Y-124663740D01*
X177802932Y-124376842D01*
X177690990Y-124106589D01*
X177528475Y-123863368D01*
X177321632Y-123656525D01*
X177147240Y-123540000D01*
X177321632Y-123423475D01*
X177528475Y-123216632D01*
X177690990Y-122973411D01*
X177802932Y-122703158D01*
X177860000Y-122416260D01*
X177860000Y-122123740D01*
X177802932Y-121836842D01*
X177690990Y-121566589D01*
X177528475Y-121323368D01*
X177321632Y-121116525D01*
X177147240Y-121000000D01*
X177321632Y-120883475D01*
X177528475Y-120676632D01*
X177690990Y-120433411D01*
X177802932Y-120163158D01*
X177860000Y-119876260D01*
X177860000Y-119583740D01*
X177802932Y-119296842D01*
X177690990Y-119026589D01*
X177528475Y-118783368D01*
X177321632Y-118576525D01*
X177148271Y-118460689D01*
X177223792Y-118218397D01*
X176375000Y-117369605D01*
X175526208Y-118218397D01*
X175601729Y-118460689D01*
X175428368Y-118576525D01*
X175221525Y-118783368D01*
X175105000Y-118957760D01*
X174988475Y-118783368D01*
X174781632Y-118576525D01*
X174608271Y-118460689D01*
X174683792Y-118218397D01*
X173835000Y-117369605D01*
X172986208Y-118218397D01*
X173061729Y-118460689D01*
X172888368Y-118576525D01*
X172681525Y-118783368D01*
X172519010Y-119026589D01*
X172407068Y-119296842D01*
X172350000Y-119583740D01*
X122835000Y-119583740D01*
X122835000Y-117258531D01*
X172344389Y-117258531D01*
X172386401Y-117548019D01*
X172484081Y-117823747D01*
X172557528Y-117961157D01*
X172806603Y-118038792D01*
X173655395Y-117190000D01*
X174014605Y-117190000D01*
X174863397Y-118038792D01*
X175105000Y-117963486D01*
X175346603Y-118038792D01*
X176195395Y-117190000D01*
X176554605Y-117190000D01*
X177403397Y-118038792D01*
X177652472Y-117961157D01*
X177778371Y-117697117D01*
X177850339Y-117413589D01*
X177865611Y-117121469D01*
X177823599Y-116831981D01*
X177725919Y-116556253D01*
X177652472Y-116418843D01*
X177403397Y-116341208D01*
X176554605Y-117190000D01*
X176195395Y-117190000D01*
X175346603Y-116341208D01*
X175105000Y-116416514D01*
X174863397Y-116341208D01*
X174014605Y-117190000D01*
X173655395Y-117190000D01*
X172806603Y-116341208D01*
X172557528Y-116418843D01*
X172431629Y-116682883D01*
X172359661Y-116966411D01*
X172344389Y-117258531D01*
X122835000Y-117258531D01*
X122835000Y-115678397D01*
X172986208Y-115678397D01*
X173061514Y-115920000D01*
X172986208Y-116161603D01*
X173835000Y-117010395D01*
X174683792Y-116161603D01*
X174608486Y-115920000D01*
X174683792Y-115678397D01*
X175526208Y-115678397D01*
X175601514Y-115920000D01*
X175526208Y-116161603D01*
X176375000Y-117010395D01*
X177223792Y-116161603D01*
X177148486Y-115920000D01*
X177223792Y-115678397D01*
X176375000Y-114829605D01*
X175526208Y-115678397D01*
X174683792Y-115678397D01*
X173835000Y-114829605D01*
X172986208Y-115678397D01*
X122835000Y-115678397D01*
X122835000Y-114718531D01*
X172344389Y-114718531D01*
X172386401Y-115008019D01*
X172484081Y-115283747D01*
X172557528Y-115421157D01*
X172806603Y-115498792D01*
X173655395Y-114650000D01*
X174014605Y-114650000D01*
X174863397Y-115498792D01*
X175105000Y-115423486D01*
X175346603Y-115498792D01*
X176195395Y-114650000D01*
X176554605Y-114650000D01*
X177403397Y-115498792D01*
X177652472Y-115421157D01*
X177778371Y-115157117D01*
X177850339Y-114873589D01*
X177865611Y-114581469D01*
X177823599Y-114291981D01*
X177725919Y-114016253D01*
X177652472Y-113878843D01*
X177403397Y-113801208D01*
X176554605Y-114650000D01*
X176195395Y-114650000D01*
X175346603Y-113801208D01*
X175105000Y-113876514D01*
X174863397Y-113801208D01*
X174014605Y-114650000D01*
X173655395Y-114650000D01*
X172806603Y-113801208D01*
X172557528Y-113878843D01*
X172431629Y-114142883D01*
X172359661Y-114426411D01*
X172344389Y-114718531D01*
X122835000Y-114718531D01*
X122835000Y-104343740D01*
X172350000Y-104343740D01*
X172350000Y-104636260D01*
X172407068Y-104923158D01*
X172519010Y-105193411D01*
X172681525Y-105436632D01*
X172888368Y-105643475D01*
X173062760Y-105760000D01*
X172888368Y-105876525D01*
X172681525Y-106083368D01*
X172519010Y-106326589D01*
X172407068Y-106596842D01*
X172350000Y-106883740D01*
X172350000Y-107176260D01*
X172407068Y-107463158D01*
X172519010Y-107733411D01*
X172681525Y-107976632D01*
X172888368Y-108183475D01*
X173062760Y-108300000D01*
X172888368Y-108416525D01*
X172681525Y-108623368D01*
X172519010Y-108866589D01*
X172407068Y-109136842D01*
X172350000Y-109423740D01*
X172350000Y-109716260D01*
X172407068Y-110003158D01*
X172519010Y-110273411D01*
X172681525Y-110516632D01*
X172888368Y-110723475D01*
X173062760Y-110840000D01*
X172888368Y-110956525D01*
X172681525Y-111163368D01*
X172519010Y-111406589D01*
X172407068Y-111676842D01*
X172350000Y-111963740D01*
X172350000Y-112256260D01*
X172407068Y-112543158D01*
X172519010Y-112813411D01*
X172681525Y-113056632D01*
X172888368Y-113263475D01*
X173061729Y-113379311D01*
X172986208Y-113621603D01*
X173835000Y-114470395D01*
X174683792Y-113621603D01*
X174608271Y-113379311D01*
X174781632Y-113263475D01*
X174988475Y-113056632D01*
X175105000Y-112882240D01*
X175221525Y-113056632D01*
X175428368Y-113263475D01*
X175601729Y-113379311D01*
X175526208Y-113621603D01*
X176375000Y-114470395D01*
X177223792Y-113621603D01*
X177148271Y-113379311D01*
X177321632Y-113263475D01*
X177528475Y-113056632D01*
X177690990Y-112813411D01*
X177802932Y-112543158D01*
X177860000Y-112256260D01*
X177860000Y-111963740D01*
X177802932Y-111676842D01*
X177690990Y-111406589D01*
X177528475Y-111163368D01*
X177321632Y-110956525D01*
X177147240Y-110840000D01*
X177321632Y-110723475D01*
X177528475Y-110516632D01*
X177690990Y-110273411D01*
X177802932Y-110003158D01*
X177860000Y-109716260D01*
X177860000Y-109423740D01*
X177802932Y-109136842D01*
X177690990Y-108866589D01*
X177528475Y-108623368D01*
X177321632Y-108416525D01*
X177147240Y-108300000D01*
X177321632Y-108183475D01*
X177528475Y-107976632D01*
X177690990Y-107733411D01*
X177802932Y-107463158D01*
X177860000Y-107176260D01*
X177860000Y-106883740D01*
X177802932Y-106596842D01*
X177690990Y-106326589D01*
X177528475Y-106083368D01*
X177321632Y-105876525D01*
X177147240Y-105760000D01*
X177321632Y-105643475D01*
X177528475Y-105436632D01*
X177690990Y-105193411D01*
X177802932Y-104923158D01*
X177860000Y-104636260D01*
X177860000Y-104343740D01*
X177802932Y-104056842D01*
X177690990Y-103786589D01*
X177528475Y-103543368D01*
X177321632Y-103336525D01*
X177148271Y-103220689D01*
X177223792Y-102978397D01*
X176375000Y-102129605D01*
X175526208Y-102978397D01*
X175601729Y-103220689D01*
X175428368Y-103336525D01*
X175221525Y-103543368D01*
X175105000Y-103717760D01*
X174988475Y-103543368D01*
X174781632Y-103336525D01*
X174608271Y-103220689D01*
X174683792Y-102978397D01*
X173835000Y-102129605D01*
X172986208Y-102978397D01*
X173061729Y-103220689D01*
X172888368Y-103336525D01*
X172681525Y-103543368D01*
X172519010Y-103786589D01*
X172407068Y-104056842D01*
X172350000Y-104343740D01*
X122835000Y-104343740D01*
X122835000Y-102018531D01*
X172344389Y-102018531D01*
X172386401Y-102308019D01*
X172484081Y-102583747D01*
X172557528Y-102721157D01*
X172806603Y-102798792D01*
X173655395Y-101950000D01*
X174014605Y-101950000D01*
X174863397Y-102798792D01*
X175105000Y-102723486D01*
X175346603Y-102798792D01*
X176195395Y-101950000D01*
X176554605Y-101950000D01*
X177403397Y-102798792D01*
X177652472Y-102721157D01*
X177778371Y-102457117D01*
X177850339Y-102173589D01*
X177865611Y-101881469D01*
X177823599Y-101591981D01*
X177725919Y-101316253D01*
X177652472Y-101178843D01*
X177403397Y-101101208D01*
X176554605Y-101950000D01*
X176195395Y-101950000D01*
X175346603Y-101101208D01*
X175105000Y-101176514D01*
X174863397Y-101101208D01*
X174014605Y-101950000D01*
X173655395Y-101950000D01*
X172806603Y-101101208D01*
X172557528Y-101178843D01*
X172431629Y-101442883D01*
X172359661Y-101726411D01*
X172344389Y-102018531D01*
X122835000Y-102018531D01*
X122835000Y-100438397D01*
X172986208Y-100438397D01*
X173061514Y-100680000D01*
X172986208Y-100921603D01*
X173835000Y-101770395D01*
X174683792Y-100921603D01*
X174608486Y-100680000D01*
X174683792Y-100438397D01*
X173835000Y-99589605D01*
X172986208Y-100438397D01*
X122835000Y-100438397D01*
X122835000Y-95834740D01*
X130947000Y-95834740D01*
X130947000Y-96127260D01*
X131004068Y-96414158D01*
X131116010Y-96684411D01*
X131278525Y-96927632D01*
X131485368Y-97134475D01*
X131659760Y-97251000D01*
X131485368Y-97367525D01*
X131278525Y-97574368D01*
X131116010Y-97817589D01*
X131004068Y-98087842D01*
X130947000Y-98374740D01*
X130947000Y-98667260D01*
X131004068Y-98954158D01*
X131116010Y-99224411D01*
X131278525Y-99467632D01*
X131485368Y-99674475D01*
X131728589Y-99836990D01*
X131998842Y-99948932D01*
X132285740Y-100006000D01*
X132578260Y-100006000D01*
X132865158Y-99948932D01*
X133135411Y-99836990D01*
X133378632Y-99674475D01*
X133510487Y-99542620D01*
X133532498Y-99615180D01*
X133591463Y-99725494D01*
X133670815Y-99822185D01*
X133767506Y-99901537D01*
X133877820Y-99960502D01*
X133997518Y-99996812D01*
X134122000Y-100009072D01*
X135822000Y-100009072D01*
X135946482Y-99996812D01*
X136066180Y-99960502D01*
X136176494Y-99901537D01*
X136273185Y-99822185D01*
X136352537Y-99725494D01*
X136411502Y-99615180D01*
X136447812Y-99495482D01*
X136449481Y-99478531D01*
X172344389Y-99478531D01*
X172386401Y-99768019D01*
X172484081Y-100043747D01*
X172557528Y-100181157D01*
X172806603Y-100258792D01*
X173655395Y-99410000D01*
X172806603Y-98561208D01*
X172557528Y-98638843D01*
X172431629Y-98902883D01*
X172359661Y-99186411D01*
X172344389Y-99478531D01*
X136449481Y-99478531D01*
X136460072Y-99371000D01*
X136460072Y-97671000D01*
X136447812Y-97546518D01*
X136411502Y-97426820D01*
X136352537Y-97316506D01*
X136273185Y-97219815D01*
X136176494Y-97140463D01*
X136066180Y-97081498D01*
X135993620Y-97059487D01*
X136125475Y-96927632D01*
X136287990Y-96684411D01*
X136399932Y-96414158D01*
X136457000Y-96127260D01*
X136457000Y-95834740D01*
X136399932Y-95547842D01*
X136287990Y-95277589D01*
X136125475Y-95034368D01*
X135918632Y-94827525D01*
X135744240Y-94711000D01*
X135918632Y-94594475D01*
X136125475Y-94387632D01*
X136287990Y-94144411D01*
X136399932Y-93874158D01*
X136457000Y-93587260D01*
X136457000Y-93294740D01*
X136399932Y-93007842D01*
X136287990Y-92737589D01*
X136266839Y-92705933D01*
X143409000Y-92705933D01*
X143409000Y-92906067D01*
X143448044Y-93102356D01*
X143524632Y-93287256D01*
X143635821Y-93453662D01*
X143777338Y-93595179D01*
X143943744Y-93706368D01*
X144128644Y-93782956D01*
X144324933Y-93822000D01*
X144525067Y-93822000D01*
X144721356Y-93782956D01*
X144868678Y-93721933D01*
X148870000Y-93721933D01*
X148870000Y-93922067D01*
X148909044Y-94118356D01*
X148985632Y-94303256D01*
X149096821Y-94469662D01*
X149238338Y-94611179D01*
X149404744Y-94722368D01*
X149589644Y-94798956D01*
X149785933Y-94838000D01*
X149986067Y-94838000D01*
X150182356Y-94798956D01*
X150367256Y-94722368D01*
X150533662Y-94611179D01*
X150675179Y-94469662D01*
X150786368Y-94303256D01*
X150862956Y-94118356D01*
X150902000Y-93922067D01*
X150902000Y-93721933D01*
X150862956Y-93525644D01*
X150786368Y-93340744D01*
X150675179Y-93174338D01*
X150533662Y-93032821D01*
X150367256Y-92921632D01*
X150182356Y-92845044D01*
X149986067Y-92806000D01*
X149785933Y-92806000D01*
X149589644Y-92845044D01*
X149404744Y-92921632D01*
X149238338Y-93032821D01*
X149096821Y-93174338D01*
X148985632Y-93340744D01*
X148909044Y-93525644D01*
X148870000Y-93721933D01*
X144868678Y-93721933D01*
X144906256Y-93706368D01*
X145072662Y-93595179D01*
X145214179Y-93453662D01*
X145325368Y-93287256D01*
X145401956Y-93102356D01*
X145441000Y-92906067D01*
X145441000Y-92705933D01*
X145401956Y-92509644D01*
X145325368Y-92324744D01*
X145214179Y-92158338D01*
X145072662Y-92016821D01*
X144906256Y-91905632D01*
X144721356Y-91829044D01*
X144525067Y-91790000D01*
X144324933Y-91790000D01*
X144128644Y-91829044D01*
X143943744Y-91905632D01*
X143777338Y-92016821D01*
X143635821Y-92158338D01*
X143524632Y-92324744D01*
X143448044Y-92509644D01*
X143409000Y-92705933D01*
X136266839Y-92705933D01*
X136125475Y-92494368D01*
X135918632Y-92287525D01*
X135675411Y-92125010D01*
X135405158Y-92013068D01*
X135118260Y-91956000D01*
X134825740Y-91956000D01*
X134538842Y-92013068D01*
X134268589Y-92125010D01*
X134025368Y-92287525D01*
X133818525Y-92494368D01*
X133700900Y-92670406D01*
X133529588Y-92440731D01*
X133313355Y-92245822D01*
X133063252Y-92096843D01*
X132788891Y-91999519D01*
X132559000Y-92120186D01*
X132559000Y-93314000D01*
X132579000Y-93314000D01*
X132579000Y-93568000D01*
X132559000Y-93568000D01*
X132559000Y-93588000D01*
X132305000Y-93588000D01*
X132305000Y-93568000D01*
X131111845Y-93568000D01*
X130990524Y-93797890D01*
X131035175Y-93945099D01*
X131160359Y-94207920D01*
X131334412Y-94441269D01*
X131550645Y-94636178D01*
X131667534Y-94705805D01*
X131485368Y-94827525D01*
X131278525Y-95034368D01*
X131116010Y-95277589D01*
X131004068Y-95547842D01*
X130947000Y-95834740D01*
X122835000Y-95834740D01*
X122835000Y-93084110D01*
X130990524Y-93084110D01*
X131111845Y-93314000D01*
X132305000Y-93314000D01*
X132305000Y-92120186D01*
X132075109Y-91999519D01*
X131800748Y-92096843D01*
X131550645Y-92245822D01*
X131334412Y-92440731D01*
X131160359Y-92674080D01*
X131035175Y-92936901D01*
X130990524Y-93084110D01*
X122835000Y-93084110D01*
X122835000Y-90927933D01*
X130146000Y-90927933D01*
X130146000Y-91128067D01*
X130185044Y-91324356D01*
X130261632Y-91509256D01*
X130372821Y-91675662D01*
X130514338Y-91817179D01*
X130680744Y-91928368D01*
X130865644Y-92004956D01*
X131061933Y-92044000D01*
X131262067Y-92044000D01*
X131458356Y-92004956D01*
X131643256Y-91928368D01*
X131809662Y-91817179D01*
X131951179Y-91675662D01*
X132062368Y-91509256D01*
X132138956Y-91324356D01*
X132178000Y-91128067D01*
X132178000Y-90927933D01*
X132138956Y-90731644D01*
X132062368Y-90546744D01*
X131951179Y-90380338D01*
X131809662Y-90238821D01*
X131643256Y-90127632D01*
X131458356Y-90051044D01*
X131262067Y-90012000D01*
X131061933Y-90012000D01*
X130865644Y-90051044D01*
X130680744Y-90127632D01*
X130514338Y-90238821D01*
X130372821Y-90380338D01*
X130261632Y-90546744D01*
X130185044Y-90731644D01*
X130146000Y-90927933D01*
X122835000Y-90927933D01*
X122835000Y-86563740D01*
X172350000Y-86563740D01*
X172350000Y-86856260D01*
X172407068Y-87143158D01*
X172519010Y-87413411D01*
X172681525Y-87656632D01*
X172888368Y-87863475D01*
X173062760Y-87980000D01*
X172888368Y-88096525D01*
X172681525Y-88303368D01*
X172519010Y-88546589D01*
X172407068Y-88816842D01*
X172350000Y-89103740D01*
X172350000Y-89396260D01*
X172407068Y-89683158D01*
X172519010Y-89953411D01*
X172681525Y-90196632D01*
X172888368Y-90403475D01*
X173062760Y-90520000D01*
X172888368Y-90636525D01*
X172681525Y-90843368D01*
X172519010Y-91086589D01*
X172407068Y-91356842D01*
X172350000Y-91643740D01*
X172350000Y-91936260D01*
X172407068Y-92223158D01*
X172519010Y-92493411D01*
X172681525Y-92736632D01*
X172888368Y-92943475D01*
X173062760Y-93060000D01*
X172888368Y-93176525D01*
X172681525Y-93383368D01*
X172519010Y-93626589D01*
X172407068Y-93896842D01*
X172350000Y-94183740D01*
X172350000Y-94476260D01*
X172407068Y-94763158D01*
X172519010Y-95033411D01*
X172681525Y-95276632D01*
X172888368Y-95483475D01*
X173062760Y-95600000D01*
X172888368Y-95716525D01*
X172681525Y-95923368D01*
X172519010Y-96166589D01*
X172407068Y-96436842D01*
X172350000Y-96723740D01*
X172350000Y-97016260D01*
X172407068Y-97303158D01*
X172519010Y-97573411D01*
X172681525Y-97816632D01*
X172888368Y-98023475D01*
X173061729Y-98139311D01*
X172986208Y-98381603D01*
X173835000Y-99230395D01*
X174683792Y-98381603D01*
X174608271Y-98139311D01*
X174781632Y-98023475D01*
X174988475Y-97816632D01*
X175105000Y-97642240D01*
X175221525Y-97816632D01*
X175428368Y-98023475D01*
X175602760Y-98140000D01*
X175428368Y-98256525D01*
X175221525Y-98463368D01*
X175105689Y-98636729D01*
X174863397Y-98561208D01*
X174014605Y-99410000D01*
X174863397Y-100258792D01*
X175105689Y-100183271D01*
X175221525Y-100356632D01*
X175428368Y-100563475D01*
X175601729Y-100679311D01*
X175526208Y-100921603D01*
X176375000Y-101770395D01*
X177223792Y-100921603D01*
X177148271Y-100679311D01*
X177321632Y-100563475D01*
X177528475Y-100356632D01*
X177690990Y-100113411D01*
X177802932Y-99843158D01*
X177860000Y-99556260D01*
X177860000Y-99263740D01*
X177802932Y-98976842D01*
X177690990Y-98706589D01*
X177528475Y-98463368D01*
X177321632Y-98256525D01*
X177147240Y-98140000D01*
X177321632Y-98023475D01*
X177528475Y-97816632D01*
X177690990Y-97573411D01*
X177802932Y-97303158D01*
X177860000Y-97016260D01*
X177860000Y-96723740D01*
X177802932Y-96436842D01*
X177690990Y-96166589D01*
X177528475Y-95923368D01*
X177321632Y-95716525D01*
X177147240Y-95600000D01*
X177321632Y-95483475D01*
X177528475Y-95276632D01*
X177690990Y-95033411D01*
X177802932Y-94763158D01*
X177860000Y-94476260D01*
X177860000Y-94183740D01*
X177802932Y-93896842D01*
X177690990Y-93626589D01*
X177528475Y-93383368D01*
X177321632Y-93176525D01*
X177147240Y-93060000D01*
X177321632Y-92943475D01*
X177528475Y-92736632D01*
X177690990Y-92493411D01*
X177802932Y-92223158D01*
X177860000Y-91936260D01*
X177860000Y-91643740D01*
X177802932Y-91356842D01*
X177690990Y-91086589D01*
X177528475Y-90843368D01*
X177321632Y-90636525D01*
X177147240Y-90520000D01*
X177321632Y-90403475D01*
X177528475Y-90196632D01*
X177690990Y-89953411D01*
X177802932Y-89683158D01*
X177860000Y-89396260D01*
X177860000Y-89103740D01*
X177802932Y-88816842D01*
X177690990Y-88546589D01*
X177528475Y-88303368D01*
X177321632Y-88096525D01*
X177147240Y-87980000D01*
X177321632Y-87863475D01*
X177528475Y-87656632D01*
X177690990Y-87413411D01*
X177802932Y-87143158D01*
X177860000Y-86856260D01*
X177860000Y-86563740D01*
X177802932Y-86276842D01*
X177690990Y-86006589D01*
X177528475Y-85763368D01*
X177321632Y-85556525D01*
X177148271Y-85440689D01*
X177223792Y-85198397D01*
X176375000Y-84349605D01*
X175526208Y-85198397D01*
X175601729Y-85440689D01*
X175428368Y-85556525D01*
X175221525Y-85763368D01*
X175105000Y-85937760D01*
X174988475Y-85763368D01*
X174781632Y-85556525D01*
X174608271Y-85440689D01*
X174683792Y-85198397D01*
X173835000Y-84349605D01*
X172986208Y-85198397D01*
X173061729Y-85440689D01*
X172888368Y-85556525D01*
X172681525Y-85763368D01*
X172519010Y-86006589D01*
X172407068Y-86276842D01*
X172350000Y-86563740D01*
X122835000Y-86563740D01*
X122835000Y-84069933D01*
X139517000Y-84069933D01*
X139517000Y-84270067D01*
X139556044Y-84466356D01*
X139632632Y-84651256D01*
X139743821Y-84817662D01*
X139885338Y-84959179D01*
X140051744Y-85070368D01*
X140236644Y-85146956D01*
X140432933Y-85186000D01*
X140633067Y-85186000D01*
X140829356Y-85146956D01*
X141014256Y-85070368D01*
X141180662Y-84959179D01*
X141322179Y-84817662D01*
X141433368Y-84651256D01*
X141509956Y-84466356D01*
X141549000Y-84270067D01*
X141549000Y-84238531D01*
X172344389Y-84238531D01*
X172386401Y-84528019D01*
X172484081Y-84803747D01*
X172557528Y-84941157D01*
X172806603Y-85018792D01*
X173655395Y-84170000D01*
X174014605Y-84170000D01*
X174863397Y-85018792D01*
X175105000Y-84943486D01*
X175346603Y-85018792D01*
X176195395Y-84170000D01*
X176554605Y-84170000D01*
X177403397Y-85018792D01*
X177652472Y-84941157D01*
X177778371Y-84677117D01*
X177850339Y-84393589D01*
X177865611Y-84101469D01*
X177823599Y-83811981D01*
X177725919Y-83536253D01*
X177652472Y-83398843D01*
X177403397Y-83321208D01*
X176554605Y-84170000D01*
X176195395Y-84170000D01*
X175346603Y-83321208D01*
X175105000Y-83396514D01*
X174863397Y-83321208D01*
X174014605Y-84170000D01*
X173655395Y-84170000D01*
X172806603Y-83321208D01*
X172557528Y-83398843D01*
X172431629Y-83662883D01*
X172359661Y-83946411D01*
X172344389Y-84238531D01*
X141549000Y-84238531D01*
X141549000Y-84069933D01*
X141509956Y-83873644D01*
X141433368Y-83688744D01*
X141322179Y-83522338D01*
X141180662Y-83380821D01*
X141014256Y-83269632D01*
X140829356Y-83193044D01*
X140633067Y-83154000D01*
X140432933Y-83154000D01*
X140236644Y-83193044D01*
X140051744Y-83269632D01*
X139885338Y-83380821D01*
X139743821Y-83522338D01*
X139632632Y-83688744D01*
X139556044Y-83873644D01*
X139517000Y-84069933D01*
X122835000Y-84069933D01*
X122835000Y-81483740D01*
X172350000Y-81483740D01*
X172350000Y-81776260D01*
X172407068Y-82063158D01*
X172519010Y-82333411D01*
X172681525Y-82576632D01*
X172888368Y-82783475D01*
X173061729Y-82899311D01*
X172986208Y-83141603D01*
X173835000Y-83990395D01*
X174683792Y-83141603D01*
X174608271Y-82899311D01*
X174781632Y-82783475D01*
X174988475Y-82576632D01*
X175105000Y-82402240D01*
X175221525Y-82576632D01*
X175428368Y-82783475D01*
X175601729Y-82899311D01*
X175526208Y-83141603D01*
X176375000Y-83990395D01*
X177223792Y-83141603D01*
X177148271Y-82899311D01*
X177321632Y-82783475D01*
X177528475Y-82576632D01*
X177690990Y-82333411D01*
X177802932Y-82063158D01*
X177860000Y-81776260D01*
X177860000Y-81483740D01*
X177802932Y-81196842D01*
X177690990Y-80926589D01*
X177528475Y-80683368D01*
X177321632Y-80476525D01*
X177148271Y-80360689D01*
X177223792Y-80118397D01*
X176375000Y-79269605D01*
X175526208Y-80118397D01*
X175601729Y-80360689D01*
X175428368Y-80476525D01*
X175221525Y-80683368D01*
X175105000Y-80857760D01*
X174988475Y-80683368D01*
X174781632Y-80476525D01*
X174608271Y-80360689D01*
X174683792Y-80118397D01*
X173835000Y-79269605D01*
X172986208Y-80118397D01*
X173061729Y-80360689D01*
X172888368Y-80476525D01*
X172681525Y-80683368D01*
X172519010Y-80926589D01*
X172407068Y-81196842D01*
X172350000Y-81483740D01*
X122835000Y-81483740D01*
X122835000Y-79243933D01*
X139517000Y-79243933D01*
X139517000Y-79444067D01*
X139556044Y-79640356D01*
X139632632Y-79825256D01*
X139743821Y-79991662D01*
X139885338Y-80133179D01*
X140051744Y-80244368D01*
X140236644Y-80320956D01*
X140432933Y-80360000D01*
X140633067Y-80360000D01*
X140829356Y-80320956D01*
X141014256Y-80244368D01*
X141180662Y-80133179D01*
X141322179Y-79991662D01*
X141433368Y-79825256D01*
X141509956Y-79640356D01*
X141549000Y-79444067D01*
X141549000Y-79243933D01*
X141532013Y-79158531D01*
X172344389Y-79158531D01*
X172386401Y-79448019D01*
X172484081Y-79723747D01*
X172557528Y-79861157D01*
X172806603Y-79938792D01*
X173655395Y-79090000D01*
X174014605Y-79090000D01*
X174863397Y-79938792D01*
X175105000Y-79863486D01*
X175346603Y-79938792D01*
X176195395Y-79090000D01*
X176554605Y-79090000D01*
X177403397Y-79938792D01*
X177652472Y-79861157D01*
X177778371Y-79597117D01*
X177850339Y-79313589D01*
X177865611Y-79021469D01*
X177823599Y-78731981D01*
X177725919Y-78456253D01*
X177652472Y-78318843D01*
X177403397Y-78241208D01*
X176554605Y-79090000D01*
X176195395Y-79090000D01*
X175346603Y-78241208D01*
X175105000Y-78316514D01*
X174863397Y-78241208D01*
X174014605Y-79090000D01*
X173655395Y-79090000D01*
X172806603Y-78241208D01*
X172557528Y-78318843D01*
X172431629Y-78582883D01*
X172359661Y-78866411D01*
X172344389Y-79158531D01*
X141532013Y-79158531D01*
X141509956Y-79047644D01*
X141433368Y-78862744D01*
X141322179Y-78696338D01*
X141180662Y-78554821D01*
X141014256Y-78443632D01*
X140829356Y-78367044D01*
X140633067Y-78328000D01*
X140432933Y-78328000D01*
X140236644Y-78367044D01*
X140051744Y-78443632D01*
X139885338Y-78554821D01*
X139743821Y-78696338D01*
X139632632Y-78862744D01*
X139556044Y-79047644D01*
X139517000Y-79243933D01*
X122835000Y-79243933D01*
X122835000Y-76957933D01*
X136596000Y-76957933D01*
X136596000Y-77158067D01*
X136635044Y-77354356D01*
X136711632Y-77539256D01*
X136822821Y-77705662D01*
X136964338Y-77847179D01*
X137130744Y-77958368D01*
X137315644Y-78034956D01*
X137511933Y-78074000D01*
X137712067Y-78074000D01*
X137908356Y-78034956D01*
X138093256Y-77958368D01*
X138259662Y-77847179D01*
X138401179Y-77705662D01*
X138512368Y-77539256D01*
X138588956Y-77354356D01*
X138628000Y-77158067D01*
X138628000Y-76957933D01*
X138588956Y-76761644D01*
X138512368Y-76576744D01*
X138401179Y-76410338D01*
X138259662Y-76268821D01*
X138093256Y-76157632D01*
X137908356Y-76081044D01*
X137712067Y-76042000D01*
X137511933Y-76042000D01*
X137315644Y-76081044D01*
X137130744Y-76157632D01*
X136964338Y-76268821D01*
X136822821Y-76410338D01*
X136711632Y-76576744D01*
X136635044Y-76761644D01*
X136596000Y-76957933D01*
X122835000Y-76957933D01*
X122835000Y-73337933D01*
X145800000Y-73337933D01*
X145800000Y-73538067D01*
X145839044Y-73734356D01*
X145915632Y-73919256D01*
X146026821Y-74085662D01*
X146168338Y-74227179D01*
X146334744Y-74338368D01*
X146519644Y-74414956D01*
X146715933Y-74454000D01*
X146916067Y-74454000D01*
X147112356Y-74414956D01*
X147297256Y-74338368D01*
X147368247Y-74290933D01*
X155347000Y-74290933D01*
X155347000Y-74491067D01*
X155386044Y-74687356D01*
X155462632Y-74872256D01*
X155573821Y-75038662D01*
X155715338Y-75180179D01*
X155881744Y-75291368D01*
X156066644Y-75367956D01*
X156262933Y-75407000D01*
X156463067Y-75407000D01*
X156659356Y-75367956D01*
X156844256Y-75291368D01*
X157010662Y-75180179D01*
X157152179Y-75038662D01*
X157263368Y-74872256D01*
X157339956Y-74687356D01*
X157379000Y-74491067D01*
X157379000Y-74290933D01*
X157339956Y-74094644D01*
X157263368Y-73909744D01*
X157152179Y-73743338D01*
X157010662Y-73601821D01*
X156844256Y-73490632D01*
X156659356Y-73414044D01*
X156463067Y-73375000D01*
X156262933Y-73375000D01*
X156066644Y-73414044D01*
X155881744Y-73490632D01*
X155715338Y-73601821D01*
X155573821Y-73743338D01*
X155462632Y-73909744D01*
X155386044Y-74094644D01*
X155347000Y-74290933D01*
X147368247Y-74290933D01*
X147463662Y-74227179D01*
X147605179Y-74085662D01*
X147716368Y-73919256D01*
X147792956Y-73734356D01*
X147832000Y-73538067D01*
X147832000Y-73337933D01*
X147792956Y-73141644D01*
X147716368Y-72956744D01*
X147605179Y-72790338D01*
X147463662Y-72648821D01*
X147297256Y-72537632D01*
X147112356Y-72461044D01*
X146916067Y-72422000D01*
X146715933Y-72422000D01*
X146519644Y-72461044D01*
X146334744Y-72537632D01*
X146168338Y-72648821D01*
X146026821Y-72790338D01*
X145915632Y-72956744D01*
X145839044Y-73141644D01*
X145800000Y-73337933D01*
X122835000Y-73337933D01*
X122835000Y-70869933D01*
X133308000Y-70869933D01*
X133308000Y-71070067D01*
X133347044Y-71266356D01*
X133423632Y-71451256D01*
X133534821Y-71617662D01*
X133676338Y-71759179D01*
X133842744Y-71870368D01*
X134027644Y-71946956D01*
X134223933Y-71986000D01*
X134424067Y-71986000D01*
X134620356Y-71946956D01*
X134805256Y-71870368D01*
X134971662Y-71759179D01*
X135113179Y-71617662D01*
X135224368Y-71451256D01*
X135300956Y-71266356D01*
X135340000Y-71070067D01*
X135340000Y-70869933D01*
X135300956Y-70673644D01*
X135224368Y-70488744D01*
X135113179Y-70322338D01*
X134971662Y-70180821D01*
X134805256Y-70069632D01*
X134620356Y-69993044D01*
X134424067Y-69954000D01*
X134223933Y-69954000D01*
X134027644Y-69993044D01*
X133842744Y-70069632D01*
X133676338Y-70180821D01*
X133534821Y-70322338D01*
X133423632Y-70488744D01*
X133347044Y-70673644D01*
X133308000Y-70869933D01*
X122835000Y-70869933D01*
X122835000Y-68069933D01*
X133308000Y-68069933D01*
X133308000Y-68270067D01*
X133347044Y-68466356D01*
X133423632Y-68651256D01*
X133534821Y-68817662D01*
X133676338Y-68959179D01*
X133842744Y-69070368D01*
X134027644Y-69146956D01*
X134223933Y-69186000D01*
X134424067Y-69186000D01*
X134620356Y-69146956D01*
X134805256Y-69070368D01*
X134971662Y-68959179D01*
X135113179Y-68817662D01*
X135135844Y-68783740D01*
X172350000Y-68783740D01*
X172350000Y-69076260D01*
X172407068Y-69363158D01*
X172519010Y-69633411D01*
X172681525Y-69876632D01*
X172888368Y-70083475D01*
X173062760Y-70200000D01*
X172888368Y-70316525D01*
X172681525Y-70523368D01*
X172519010Y-70766589D01*
X172407068Y-71036842D01*
X172350000Y-71323740D01*
X172350000Y-71616260D01*
X172407068Y-71903158D01*
X172519010Y-72173411D01*
X172681525Y-72416632D01*
X172888368Y-72623475D01*
X173062760Y-72740000D01*
X172888368Y-72856525D01*
X172681525Y-73063368D01*
X172519010Y-73306589D01*
X172407068Y-73576842D01*
X172350000Y-73863740D01*
X172350000Y-74156260D01*
X172407068Y-74443158D01*
X172519010Y-74713411D01*
X172681525Y-74956632D01*
X172888368Y-75163475D01*
X173062760Y-75280000D01*
X172888368Y-75396525D01*
X172681525Y-75603368D01*
X172519010Y-75846589D01*
X172407068Y-76116842D01*
X172350000Y-76403740D01*
X172350000Y-76696260D01*
X172407068Y-76983158D01*
X172519010Y-77253411D01*
X172681525Y-77496632D01*
X172888368Y-77703475D01*
X173061729Y-77819311D01*
X172986208Y-78061603D01*
X173835000Y-78910395D01*
X174683792Y-78061603D01*
X174608271Y-77819311D01*
X174781632Y-77703475D01*
X174988475Y-77496632D01*
X175105000Y-77322240D01*
X175221525Y-77496632D01*
X175428368Y-77703475D01*
X175601729Y-77819311D01*
X175526208Y-78061603D01*
X176375000Y-78910395D01*
X177223792Y-78061603D01*
X177148271Y-77819311D01*
X177321632Y-77703475D01*
X177528475Y-77496632D01*
X177690990Y-77253411D01*
X177802932Y-76983158D01*
X177860000Y-76696260D01*
X177860000Y-76403740D01*
X177802932Y-76116842D01*
X177690990Y-75846589D01*
X177528475Y-75603368D01*
X177321632Y-75396525D01*
X177147240Y-75280000D01*
X177321632Y-75163475D01*
X177528475Y-74956632D01*
X177690990Y-74713411D01*
X177802932Y-74443158D01*
X177860000Y-74156260D01*
X177860000Y-73863740D01*
X177802932Y-73576842D01*
X177690990Y-73306589D01*
X177528475Y-73063368D01*
X177321632Y-72856525D01*
X177147240Y-72740000D01*
X177321632Y-72623475D01*
X177528475Y-72416632D01*
X177690990Y-72173411D01*
X177802932Y-71903158D01*
X177860000Y-71616260D01*
X177860000Y-71323740D01*
X177802932Y-71036842D01*
X177690990Y-70766589D01*
X177528475Y-70523368D01*
X177321632Y-70316525D01*
X177147240Y-70200000D01*
X177321632Y-70083475D01*
X177528475Y-69876632D01*
X177690990Y-69633411D01*
X177802932Y-69363158D01*
X177860000Y-69076260D01*
X177860000Y-68783740D01*
X177802932Y-68496842D01*
X177690990Y-68226589D01*
X177528475Y-67983368D01*
X177321632Y-67776525D01*
X177148271Y-67660689D01*
X177223792Y-67418397D01*
X176375000Y-66569605D01*
X175526208Y-67418397D01*
X175601729Y-67660689D01*
X175428368Y-67776525D01*
X175221525Y-67983368D01*
X175105000Y-68157760D01*
X174988475Y-67983368D01*
X174781632Y-67776525D01*
X174608271Y-67660689D01*
X174683792Y-67418397D01*
X173835000Y-66569605D01*
X172986208Y-67418397D01*
X173061729Y-67660689D01*
X172888368Y-67776525D01*
X172681525Y-67983368D01*
X172519010Y-68226589D01*
X172407068Y-68496842D01*
X172350000Y-68783740D01*
X135135844Y-68783740D01*
X135224368Y-68651256D01*
X135300956Y-68466356D01*
X135340000Y-68270067D01*
X135340000Y-68069933D01*
X135300956Y-67873644D01*
X135224368Y-67688744D01*
X135113179Y-67522338D01*
X134971662Y-67380821D01*
X134805256Y-67269632D01*
X134620356Y-67193044D01*
X134424067Y-67154000D01*
X134223933Y-67154000D01*
X134027644Y-67193044D01*
X133842744Y-67269632D01*
X133676338Y-67380821D01*
X133534821Y-67522338D01*
X133423632Y-67688744D01*
X133347044Y-67873644D01*
X133308000Y-68069933D01*
X122835000Y-68069933D01*
X122835000Y-66458531D01*
X172344389Y-66458531D01*
X172386401Y-66748019D01*
X172484081Y-67023747D01*
X172557528Y-67161157D01*
X172806603Y-67238792D01*
X173655395Y-66390000D01*
X174014605Y-66390000D01*
X174863397Y-67238792D01*
X175105000Y-67163486D01*
X175346603Y-67238792D01*
X176195395Y-66390000D01*
X176554605Y-66390000D01*
X177403397Y-67238792D01*
X177652472Y-67161157D01*
X177778371Y-66897117D01*
X177850339Y-66613589D01*
X177865611Y-66321469D01*
X177823599Y-66031981D01*
X177725919Y-65756253D01*
X177652472Y-65618843D01*
X177403397Y-65541208D01*
X176554605Y-66390000D01*
X176195395Y-66390000D01*
X175346603Y-65541208D01*
X175105000Y-65616514D01*
X174863397Y-65541208D01*
X174014605Y-66390000D01*
X173655395Y-66390000D01*
X172806603Y-65541208D01*
X172557528Y-65618843D01*
X172431629Y-65882883D01*
X172359661Y-66166411D01*
X172344389Y-66458531D01*
X122835000Y-66458531D01*
X122835000Y-64878397D01*
X172986208Y-64878397D01*
X173061514Y-65120000D01*
X172986208Y-65361603D01*
X173835000Y-66210395D01*
X174683792Y-65361603D01*
X174608486Y-65120000D01*
X174683792Y-64878397D01*
X175526208Y-64878397D01*
X175601514Y-65120000D01*
X175526208Y-65361603D01*
X176375000Y-66210395D01*
X177223792Y-65361603D01*
X177148486Y-65120000D01*
X177223792Y-64878397D01*
X176375000Y-64029605D01*
X175526208Y-64878397D01*
X174683792Y-64878397D01*
X173835000Y-64029605D01*
X172986208Y-64878397D01*
X122835000Y-64878397D01*
X122835000Y-63918531D01*
X172344389Y-63918531D01*
X172386401Y-64208019D01*
X172484081Y-64483747D01*
X172557528Y-64621157D01*
X172806603Y-64698792D01*
X173655395Y-63850000D01*
X174014605Y-63850000D01*
X174863397Y-64698792D01*
X175105000Y-64623486D01*
X175346603Y-64698792D01*
X176195395Y-63850000D01*
X176554605Y-63850000D01*
X177403397Y-64698792D01*
X177652472Y-64621157D01*
X177778371Y-64357117D01*
X177850339Y-64073589D01*
X177865611Y-63781469D01*
X177823599Y-63491981D01*
X177725919Y-63216253D01*
X177652472Y-63078843D01*
X177403397Y-63001208D01*
X176554605Y-63850000D01*
X176195395Y-63850000D01*
X175346603Y-63001208D01*
X175105000Y-63076514D01*
X174863397Y-63001208D01*
X174014605Y-63850000D01*
X173655395Y-63850000D01*
X172806603Y-63001208D01*
X172557528Y-63078843D01*
X172431629Y-63342883D01*
X172359661Y-63626411D01*
X172344389Y-63918531D01*
X122835000Y-63918531D01*
X122835000Y-61086933D01*
X132990000Y-61086933D01*
X132990000Y-61287067D01*
X133029044Y-61483356D01*
X133105632Y-61668256D01*
X133216821Y-61834662D01*
X133358338Y-61976179D01*
X133524744Y-62087368D01*
X133709644Y-62163956D01*
X133905933Y-62203000D01*
X134106067Y-62203000D01*
X134302356Y-62163956D01*
X134487256Y-62087368D01*
X134653662Y-61976179D01*
X134795179Y-61834662D01*
X134906368Y-61668256D01*
X134982956Y-61483356D01*
X135022000Y-61287067D01*
X135022000Y-61086933D01*
X134982956Y-60890644D01*
X134906368Y-60705744D01*
X134795179Y-60539338D01*
X134653662Y-60397821D01*
X134487256Y-60286632D01*
X134302356Y-60210044D01*
X134106067Y-60171000D01*
X133905933Y-60171000D01*
X133709644Y-60210044D01*
X133524744Y-60286632D01*
X133358338Y-60397821D01*
X133216821Y-60539338D01*
X133105632Y-60705744D01*
X133029044Y-60890644D01*
X132990000Y-61086933D01*
X122835000Y-61086933D01*
X122835000Y-59070933D01*
X142238000Y-59070933D01*
X142238000Y-59271067D01*
X142277044Y-59467356D01*
X142353632Y-59652256D01*
X142464821Y-59818662D01*
X142606338Y-59960179D01*
X142772744Y-60071368D01*
X142957644Y-60147956D01*
X143153933Y-60187000D01*
X143354067Y-60187000D01*
X143550356Y-60147956D01*
X143735256Y-60071368D01*
X143901662Y-59960179D01*
X144043179Y-59818662D01*
X144154368Y-59652256D01*
X144230956Y-59467356D01*
X144270000Y-59271067D01*
X144270000Y-59070933D01*
X144230956Y-58874644D01*
X144154368Y-58689744D01*
X144043179Y-58523338D01*
X143901662Y-58381821D01*
X143735256Y-58270632D01*
X143550356Y-58194044D01*
X143354067Y-58155000D01*
X143153933Y-58155000D01*
X142957644Y-58194044D01*
X142772744Y-58270632D01*
X142606338Y-58381821D01*
X142464821Y-58523338D01*
X142353632Y-58689744D01*
X142277044Y-58874644D01*
X142238000Y-59070933D01*
X122835000Y-59070933D01*
X122835000Y-57657933D01*
X127615000Y-57657933D01*
X127615000Y-57858067D01*
X127654044Y-58054356D01*
X127730632Y-58239256D01*
X127841821Y-58405662D01*
X127983338Y-58547179D01*
X128149744Y-58658368D01*
X128334644Y-58734956D01*
X128530933Y-58774000D01*
X128731067Y-58774000D01*
X128927356Y-58734956D01*
X129112256Y-58658368D01*
X129278662Y-58547179D01*
X129420179Y-58405662D01*
X129531368Y-58239256D01*
X129607956Y-58054356D01*
X129647000Y-57858067D01*
X129647000Y-57657933D01*
X129607956Y-57461644D01*
X129531368Y-57276744D01*
X129420179Y-57110338D01*
X129278662Y-56968821D01*
X129112256Y-56857632D01*
X128927356Y-56781044D01*
X128731067Y-56742000D01*
X128530933Y-56742000D01*
X128334644Y-56781044D01*
X128149744Y-56857632D01*
X127983338Y-56968821D01*
X127841821Y-57110338D01*
X127730632Y-57276744D01*
X127654044Y-57461644D01*
X127615000Y-57657933D01*
X122835000Y-57657933D01*
X122835000Y-51116933D01*
X136240000Y-51116933D01*
X136240000Y-51317067D01*
X136279044Y-51513356D01*
X136355632Y-51698256D01*
X136466821Y-51864662D01*
X136608338Y-52006179D01*
X136774744Y-52117368D01*
X136959644Y-52193956D01*
X137155933Y-52233000D01*
X137356067Y-52233000D01*
X137552356Y-52193956D01*
X137737256Y-52117368D01*
X137903662Y-52006179D01*
X137909841Y-52000000D01*
X172346928Y-52000000D01*
X172359188Y-52124482D01*
X172395498Y-52244180D01*
X172454463Y-52354494D01*
X172533815Y-52451185D01*
X172630506Y-52530537D01*
X172740820Y-52589502D01*
X172813380Y-52611513D01*
X172681525Y-52743368D01*
X172519010Y-52986589D01*
X172407068Y-53256842D01*
X172350000Y-53543740D01*
X172350000Y-53836260D01*
X172407068Y-54123158D01*
X172519010Y-54393411D01*
X172681525Y-54636632D01*
X172888368Y-54843475D01*
X173062760Y-54960000D01*
X172888368Y-55076525D01*
X172681525Y-55283368D01*
X172519010Y-55526589D01*
X172407068Y-55796842D01*
X172350000Y-56083740D01*
X172350000Y-56376260D01*
X172407068Y-56663158D01*
X172519010Y-56933411D01*
X172681525Y-57176632D01*
X172888368Y-57383475D01*
X173062760Y-57500000D01*
X172888368Y-57616525D01*
X172681525Y-57823368D01*
X172519010Y-58066589D01*
X172407068Y-58336842D01*
X172350000Y-58623740D01*
X172350000Y-58916260D01*
X172407068Y-59203158D01*
X172519010Y-59473411D01*
X172681525Y-59716632D01*
X172888368Y-59923475D01*
X173062760Y-60040000D01*
X172888368Y-60156525D01*
X172681525Y-60363368D01*
X172519010Y-60606589D01*
X172407068Y-60876842D01*
X172350000Y-61163740D01*
X172350000Y-61456260D01*
X172407068Y-61743158D01*
X172519010Y-62013411D01*
X172681525Y-62256632D01*
X172888368Y-62463475D01*
X173061729Y-62579311D01*
X172986208Y-62821603D01*
X173835000Y-63670395D01*
X174683792Y-62821603D01*
X174608271Y-62579311D01*
X174781632Y-62463475D01*
X174988475Y-62256632D01*
X175105000Y-62082240D01*
X175221525Y-62256632D01*
X175428368Y-62463475D01*
X175601729Y-62579311D01*
X175526208Y-62821603D01*
X176375000Y-63670395D01*
X177223792Y-62821603D01*
X177148271Y-62579311D01*
X177321632Y-62463475D01*
X177528475Y-62256632D01*
X177690990Y-62013411D01*
X177802932Y-61743158D01*
X177860000Y-61456260D01*
X177860000Y-61163740D01*
X177802932Y-60876842D01*
X177690990Y-60606589D01*
X177528475Y-60363368D01*
X177321632Y-60156525D01*
X177147240Y-60040000D01*
X177321632Y-59923475D01*
X177528475Y-59716632D01*
X177690990Y-59473411D01*
X177802932Y-59203158D01*
X177860000Y-58916260D01*
X177860000Y-58623740D01*
X177802932Y-58336842D01*
X177690990Y-58066589D01*
X177528475Y-57823368D01*
X177321632Y-57616525D01*
X177147240Y-57500000D01*
X177321632Y-57383475D01*
X177528475Y-57176632D01*
X177690990Y-56933411D01*
X177802932Y-56663158D01*
X177860000Y-56376260D01*
X177860000Y-56083740D01*
X177802932Y-55796842D01*
X177690990Y-55526589D01*
X177528475Y-55283368D01*
X177321632Y-55076525D01*
X177147240Y-54960000D01*
X177321632Y-54843475D01*
X177528475Y-54636632D01*
X177690990Y-54393411D01*
X177802932Y-54123158D01*
X177860000Y-53836260D01*
X177860000Y-53543740D01*
X177802932Y-53256842D01*
X177690990Y-52986589D01*
X177528475Y-52743368D01*
X177321632Y-52536525D01*
X177148271Y-52420689D01*
X177223792Y-52178397D01*
X176375000Y-51329605D01*
X175526208Y-52178397D01*
X175601729Y-52420689D01*
X175428368Y-52536525D01*
X175221525Y-52743368D01*
X175105000Y-52917760D01*
X174988475Y-52743368D01*
X174856620Y-52611513D01*
X174929180Y-52589502D01*
X175039494Y-52530537D01*
X175136185Y-52451185D01*
X175215537Y-52354494D01*
X175274502Y-52244180D01*
X175310812Y-52124482D01*
X175323072Y-52000000D01*
X175323025Y-51991443D01*
X175346603Y-51998792D01*
X176195395Y-51150000D01*
X176554605Y-51150000D01*
X177403397Y-51998792D01*
X177652472Y-51921157D01*
X177778371Y-51657117D01*
X177850339Y-51373589D01*
X177865611Y-51081469D01*
X177823599Y-50791981D01*
X177725919Y-50516253D01*
X177652472Y-50378843D01*
X177403397Y-50301208D01*
X176554605Y-51150000D01*
X176195395Y-51150000D01*
X175346603Y-50301208D01*
X175323025Y-50308557D01*
X175323072Y-50300000D01*
X175310812Y-50175518D01*
X175294458Y-50121603D01*
X175526208Y-50121603D01*
X176375000Y-50970395D01*
X177223792Y-50121603D01*
X177146157Y-49872528D01*
X176882117Y-49746629D01*
X176598589Y-49674661D01*
X176306469Y-49659389D01*
X176016981Y-49701401D01*
X175741253Y-49799081D01*
X175603843Y-49872528D01*
X175526208Y-50121603D01*
X175294458Y-50121603D01*
X175274502Y-50055820D01*
X175215537Y-49945506D01*
X175136185Y-49848815D01*
X175039494Y-49769463D01*
X174929180Y-49710498D01*
X174809482Y-49674188D01*
X174685000Y-49661928D01*
X174120750Y-49665000D01*
X173962000Y-49823750D01*
X173962000Y-51023000D01*
X173982000Y-51023000D01*
X173982000Y-51277000D01*
X173962000Y-51277000D01*
X173962000Y-51297000D01*
X173708000Y-51297000D01*
X173708000Y-51277000D01*
X172508750Y-51277000D01*
X172350000Y-51435750D01*
X172346928Y-52000000D01*
X137909841Y-52000000D01*
X138045179Y-51864662D01*
X138156368Y-51698256D01*
X138232956Y-51513356D01*
X138272000Y-51317067D01*
X138272000Y-51116933D01*
X138232956Y-50920644D01*
X138156368Y-50735744D01*
X138045179Y-50569338D01*
X137903662Y-50427821D01*
X137737256Y-50316632D01*
X137697103Y-50300000D01*
X172346928Y-50300000D01*
X172350000Y-50864250D01*
X172508750Y-51023000D01*
X173708000Y-51023000D01*
X173708000Y-49823750D01*
X173549250Y-49665000D01*
X172985000Y-49661928D01*
X172860518Y-49674188D01*
X172740820Y-49710498D01*
X172630506Y-49769463D01*
X172533815Y-49848815D01*
X172454463Y-49945506D01*
X172395498Y-50055820D01*
X172359188Y-50175518D01*
X172346928Y-50300000D01*
X137697103Y-50300000D01*
X137552356Y-50240044D01*
X137356067Y-50201000D01*
X137155933Y-50201000D01*
X136959644Y-50240044D01*
X136774744Y-50316632D01*
X136608338Y-50427821D01*
X136466821Y-50569338D01*
X136355632Y-50735744D01*
X136279044Y-50920644D01*
X136240000Y-51116933D01*
X122835000Y-51116933D01*
X122835000Y-33049392D01*
X122906173Y-32251917D01*
X123109656Y-31508109D01*
X123441638Y-30812095D01*
X123891626Y-30185870D01*
X124445403Y-29649223D01*
X125085451Y-29219129D01*
X125791553Y-28909171D01*
X126546457Y-28727935D01*
X127199207Y-28680000D01*
X185401620Y-28680000D01*
X186515001Y-29793382D01*
M02*
