G04 #@! TF.GenerationSoftware,KiCad,Pcbnew,5.1.6-c6e7f7d~86~ubuntu18.04.1*
G04 #@! TF.CreationDate,2020-07-07T21:11:44+12:00*
G04 #@! TF.ProjectId,M1 Control Card,4d312043-6f6e-4747-926f-6c2043617264,rev?*
G04 #@! TF.SameCoordinates,Original*
G04 #@! TF.FileFunction,Copper,L4,Bot*
G04 #@! TF.FilePolarity,Positive*
%FSLAX46Y46*%
G04 Gerber Fmt 4.6, Leading zero omitted, Abs format (unit mm)*
G04 Created by KiCad (PCBNEW 5.1.6-c6e7f7d~86~ubuntu18.04.1) date 2020-07-07 21:11:44*
%MOMM*%
%LPD*%
G01*
G04 APERTURE LIST*
G04 #@! TA.AperFunction,ComponentPad*
%ADD10C,1.700000*%
G04 #@! TD*
G04 #@! TA.AperFunction,ComponentPad*
%ADD11R,1.700000X1.700000*%
G04 #@! TD*
G04 #@! TA.AperFunction,ComponentPad*
%ADD12O,1.700000X1.700000*%
G04 #@! TD*
G04 #@! TA.AperFunction,ViaPad*
%ADD13C,0.762000*%
G04 #@! TD*
G04 #@! TA.AperFunction,Conductor*
%ADD14C,0.406400*%
G04 #@! TD*
G04 APERTURE END LIST*
G04 #@! TA.AperFunction,ComponentPad*
G36*
G01*
X172985000Y-51750000D02*
X172985000Y-50550000D01*
G75*
G02*
X173235000Y-50300000I250000J0D01*
G01*
X174435000Y-50300000D01*
G75*
G02*
X174685000Y-50550000I0J-250000D01*
G01*
X174685000Y-51750000D01*
G75*
G02*
X174435000Y-52000000I-250000J0D01*
G01*
X173235000Y-52000000D01*
G75*
G02*
X172985000Y-51750000I0J250000D01*
G01*
G37*
G04 #@! TD.AperFunction*
D10*
X173835000Y-53690000D03*
X173835000Y-56230000D03*
X173835000Y-58770000D03*
X173835000Y-61310000D03*
X173835000Y-63850000D03*
X173835000Y-66390000D03*
X173835000Y-68930000D03*
X173835000Y-71470000D03*
X173835000Y-74010000D03*
X173835000Y-76550000D03*
X173835000Y-79090000D03*
X173835000Y-81630000D03*
X173835000Y-84170000D03*
X173835000Y-86710000D03*
X173835000Y-89250000D03*
X173835000Y-91790000D03*
X173835000Y-94330000D03*
X173835000Y-96870000D03*
X173835000Y-99410000D03*
X173835000Y-101950000D03*
X173835000Y-104490000D03*
X173835000Y-107030000D03*
X173835000Y-109570000D03*
X173835000Y-112110000D03*
X173835000Y-114650000D03*
X173835000Y-117190000D03*
X173835000Y-119730000D03*
X173835000Y-122270000D03*
X173835000Y-124810000D03*
X173835000Y-127350000D03*
X173835000Y-129890000D03*
X176375000Y-51150000D03*
X176375000Y-53690000D03*
X176375000Y-56230000D03*
X176375000Y-58770000D03*
X176375000Y-61310000D03*
X176375000Y-63850000D03*
X176375000Y-66390000D03*
X176375000Y-68930000D03*
X176375000Y-71470000D03*
X176375000Y-74010000D03*
X176375000Y-76550000D03*
X176375000Y-79090000D03*
X176375000Y-81630000D03*
X176375000Y-84170000D03*
X176375000Y-86710000D03*
X176375000Y-89250000D03*
X176375000Y-91790000D03*
X176375000Y-94330000D03*
X176375000Y-96870000D03*
X176375000Y-99410000D03*
X176375000Y-101950000D03*
X176375000Y-104490000D03*
X176375000Y-107030000D03*
X176375000Y-109570000D03*
X176375000Y-112110000D03*
X176375000Y-114650000D03*
X176375000Y-117190000D03*
X176375000Y-119730000D03*
X176375000Y-122270000D03*
X176375000Y-124810000D03*
X176375000Y-127350000D03*
X176375000Y-129890000D03*
D11*
X134972000Y-98521000D03*
D12*
X132432000Y-98521000D03*
X134972000Y-95981000D03*
X132432000Y-95981000D03*
X134972000Y-93441000D03*
X132432000Y-93441000D03*
D13*
X155728000Y-76931000D03*
X147197000Y-101251000D03*
X151388000Y-101251000D03*
X124304000Y-116491000D03*
X134696000Y-116491000D03*
X147832000Y-73438000D03*
X127606000Y-75584000D03*
X132706000Y-58266000D03*
X134656000Y-58266000D03*
X137256000Y-58266000D03*
X137902000Y-61187000D03*
X135306000Y-51217000D03*
X128631000Y-54456000D03*
X134006000Y-63727000D03*
X132056000Y-63219000D03*
X137194000Y-122490000D03*
X137194000Y-128464000D03*
X137194000Y-134495000D03*
X135072000Y-77058000D03*
X131643000Y-78582000D03*
X131643000Y-82392000D03*
X131643000Y-81122000D03*
X131643000Y-79852000D03*
X150902000Y-93822000D03*
X156363000Y-71851000D03*
X143254000Y-59171000D03*
X144425000Y-92806000D03*
X146816000Y-73438000D03*
X134324000Y-68170000D03*
X134324000Y-70970000D03*
X128631000Y-57758000D03*
X134006000Y-61187000D03*
X137256000Y-51217000D03*
X133130000Y-121982000D03*
X133130000Y-127956000D03*
X133130000Y-133987000D03*
X131162000Y-91028000D03*
X140533000Y-84170000D03*
X140533000Y-79344000D03*
X137612000Y-77058000D03*
X149886000Y-93822000D03*
X156363000Y-74391000D03*
D14*
X143790000Y-93441000D02*
X144425000Y-92806000D01*
X144425000Y-92806000D02*
X144425000Y-92806000D01*
X143790000Y-93441000D02*
X134972000Y-93441000D01*
X143254000Y-91635000D02*
X144425000Y-92806000D01*
X143254000Y-59171000D02*
X143254000Y-91635000D01*
M02*
