G04 #@! TF.GenerationSoftware,KiCad,Pcbnew,5.1.6-c6e7f7d~86~ubuntu18.04.1*
G04 #@! TF.CreationDate,2020-07-07T21:11:44+12:00*
G04 #@! TF.ProjectId,M1 Control Card,4d312043-6f6e-4747-926f-6c2043617264,rev?*
G04 #@! TF.SameCoordinates,Original*
G04 #@! TF.FileFunction,Copper,L1,Top*
G04 #@! TF.FilePolarity,Positive*
%FSLAX46Y46*%
G04 Gerber Fmt 4.6, Leading zero omitted, Abs format (unit mm)*
G04 Created by KiCad (PCBNEW 5.1.6-c6e7f7d~86~ubuntu18.04.1) date 2020-07-07 21:11:44*
%MOMM*%
%LPD*%
G01*
G04 APERTURE LIST*
G04 #@! TA.AperFunction,SMDPad,CuDef*
%ADD10R,0.900000X0.800000*%
G04 #@! TD*
G04 #@! TA.AperFunction,SMDPad,CuDef*
%ADD11R,0.450000X1.750000*%
G04 #@! TD*
G04 #@! TA.AperFunction,SMDPad,CuDef*
%ADD12R,1.500000X0.550000*%
G04 #@! TD*
G04 #@! TA.AperFunction,SMDPad,CuDef*
%ADD13R,0.550000X1.500000*%
G04 #@! TD*
G04 #@! TA.AperFunction,SMDPad,CuDef*
%ADD14R,1.380000X0.450000*%
G04 #@! TD*
G04 #@! TA.AperFunction,SMDPad,CuDef*
%ADD15R,1.550000X1.425000*%
G04 #@! TD*
G04 #@! TA.AperFunction,SMDPad,CuDef*
%ADD16R,1.300000X1.650000*%
G04 #@! TD*
G04 #@! TA.AperFunction,SMDPad,CuDef*
%ADD17R,1.900000X1.800000*%
G04 #@! TD*
G04 #@! TA.AperFunction,SMDPad,CuDef*
%ADD18R,1.900000X1.000000*%
G04 #@! TD*
G04 #@! TA.AperFunction,SMDPad,CuDef*
%ADD19R,1.900000X2.400000*%
G04 #@! TD*
G04 #@! TA.AperFunction,SMDPad,CuDef*
%ADD20R,1.550000X1.300000*%
G04 #@! TD*
G04 #@! TA.AperFunction,ComponentPad*
%ADD21C,1.700000*%
G04 #@! TD*
G04 #@! TA.AperFunction,ComponentPad*
%ADD22R,1.700000X1.700000*%
G04 #@! TD*
G04 #@! TA.AperFunction,ComponentPad*
%ADD23O,1.700000X1.700000*%
G04 #@! TD*
G04 #@! TA.AperFunction,ViaPad*
%ADD24C,0.762000*%
G04 #@! TD*
G04 #@! TA.AperFunction,Conductor*
%ADD25C,0.406400*%
G04 #@! TD*
G04 APERTURE END LIST*
G04 #@! TA.AperFunction,SMDPad,CuDef*
G36*
G01*
X145043500Y-57168000D02*
X145388500Y-57168000D01*
G75*
G02*
X145536000Y-57315500I0J-147500D01*
G01*
X145536000Y-57610500D01*
G75*
G02*
X145388500Y-57758000I-147500J0D01*
G01*
X145043500Y-57758000D01*
G75*
G02*
X144896000Y-57610500I0J147500D01*
G01*
X144896000Y-57315500D01*
G75*
G02*
X145043500Y-57168000I147500J0D01*
G01*
G37*
G04 #@! TD.AperFunction*
G04 #@! TA.AperFunction,SMDPad,CuDef*
G36*
G01*
X145043500Y-58138000D02*
X145388500Y-58138000D01*
G75*
G02*
X145536000Y-58285500I0J-147500D01*
G01*
X145536000Y-58580500D01*
G75*
G02*
X145388500Y-58728000I-147500J0D01*
G01*
X145043500Y-58728000D01*
G75*
G02*
X144896000Y-58580500I0J147500D01*
G01*
X144896000Y-58285500D01*
G75*
G02*
X145043500Y-58138000I147500J0D01*
G01*
G37*
G04 #@! TD.AperFunction*
G04 #@! TA.AperFunction,SMDPad,CuDef*
G36*
G01*
X133085000Y-123249750D02*
X133085000Y-123762250D01*
G75*
G02*
X132866250Y-123981000I-218750J0D01*
G01*
X132428750Y-123981000D01*
G75*
G02*
X132210000Y-123762250I0J218750D01*
G01*
X132210000Y-123249750D01*
G75*
G02*
X132428750Y-123031000I218750J0D01*
G01*
X132866250Y-123031000D01*
G75*
G02*
X133085000Y-123249750I0J-218750D01*
G01*
G37*
G04 #@! TD.AperFunction*
G04 #@! TA.AperFunction,SMDPad,CuDef*
G36*
G01*
X131510000Y-123249750D02*
X131510000Y-123762250D01*
G75*
G02*
X131291250Y-123981000I-218750J0D01*
G01*
X130853750Y-123981000D01*
G75*
G02*
X130635000Y-123762250I0J218750D01*
G01*
X130635000Y-123249750D01*
G75*
G02*
X130853750Y-123031000I218750J0D01*
G01*
X131291250Y-123031000D01*
G75*
G02*
X131510000Y-123249750I0J-218750D01*
G01*
G37*
G04 #@! TD.AperFunction*
G04 #@! TA.AperFunction,SMDPad,CuDef*
G36*
G01*
X131510000Y-129223750D02*
X131510000Y-129736250D01*
G75*
G02*
X131291250Y-129955000I-218750J0D01*
G01*
X130853750Y-129955000D01*
G75*
G02*
X130635000Y-129736250I0J218750D01*
G01*
X130635000Y-129223750D01*
G75*
G02*
X130853750Y-129005000I218750J0D01*
G01*
X131291250Y-129005000D01*
G75*
G02*
X131510000Y-129223750I0J-218750D01*
G01*
G37*
G04 #@! TD.AperFunction*
G04 #@! TA.AperFunction,SMDPad,CuDef*
G36*
G01*
X133085000Y-129223750D02*
X133085000Y-129736250D01*
G75*
G02*
X132866250Y-129955000I-218750J0D01*
G01*
X132428750Y-129955000D01*
G75*
G02*
X132210000Y-129736250I0J218750D01*
G01*
X132210000Y-129223750D01*
G75*
G02*
X132428750Y-129005000I218750J0D01*
G01*
X132866250Y-129005000D01*
G75*
G02*
X133085000Y-129223750I0J-218750D01*
G01*
G37*
G04 #@! TD.AperFunction*
G04 #@! TA.AperFunction,SMDPad,CuDef*
G36*
G01*
X137254000Y-70713750D02*
X137254000Y-71226250D01*
G75*
G02*
X137035250Y-71445000I-218750J0D01*
G01*
X136597750Y-71445000D01*
G75*
G02*
X136379000Y-71226250I0J218750D01*
G01*
X136379000Y-70713750D01*
G75*
G02*
X136597750Y-70495000I218750J0D01*
G01*
X137035250Y-70495000D01*
G75*
G02*
X137254000Y-70713750I0J-218750D01*
G01*
G37*
G04 #@! TD.AperFunction*
G04 #@! TA.AperFunction,SMDPad,CuDef*
G36*
G01*
X135679000Y-70713750D02*
X135679000Y-71226250D01*
G75*
G02*
X135460250Y-71445000I-218750J0D01*
G01*
X135022750Y-71445000D01*
G75*
G02*
X134804000Y-71226250I0J218750D01*
G01*
X134804000Y-70713750D01*
G75*
G02*
X135022750Y-70495000I218750J0D01*
G01*
X135460250Y-70495000D01*
G75*
G02*
X135679000Y-70713750I0J-218750D01*
G01*
G37*
G04 #@! TD.AperFunction*
G04 #@! TA.AperFunction,SMDPad,CuDef*
G36*
G01*
X135679000Y-67913750D02*
X135679000Y-68426250D01*
G75*
G02*
X135460250Y-68645000I-218750J0D01*
G01*
X135022750Y-68645000D01*
G75*
G02*
X134804000Y-68426250I0J218750D01*
G01*
X134804000Y-67913750D01*
G75*
G02*
X135022750Y-67695000I218750J0D01*
G01*
X135460250Y-67695000D01*
G75*
G02*
X135679000Y-67913750I0J-218750D01*
G01*
G37*
G04 #@! TD.AperFunction*
G04 #@! TA.AperFunction,SMDPad,CuDef*
G36*
G01*
X137254000Y-67913750D02*
X137254000Y-68426250D01*
G75*
G02*
X137035250Y-68645000I-218750J0D01*
G01*
X136597750Y-68645000D01*
G75*
G02*
X136379000Y-68426250I0J218750D01*
G01*
X136379000Y-67913750D01*
G75*
G02*
X136597750Y-67695000I218750J0D01*
G01*
X137035250Y-67695000D01*
G75*
G02*
X137254000Y-67913750I0J-218750D01*
G01*
G37*
G04 #@! TD.AperFunction*
G04 #@! TA.AperFunction,SMDPad,CuDef*
G36*
G01*
X133085000Y-135254750D02*
X133085000Y-135767250D01*
G75*
G02*
X132866250Y-135986000I-218750J0D01*
G01*
X132428750Y-135986000D01*
G75*
G02*
X132210000Y-135767250I0J218750D01*
G01*
X132210000Y-135254750D01*
G75*
G02*
X132428750Y-135036000I218750J0D01*
G01*
X132866250Y-135036000D01*
G75*
G02*
X133085000Y-135254750I0J-218750D01*
G01*
G37*
G04 #@! TD.AperFunction*
G04 #@! TA.AperFunction,SMDPad,CuDef*
G36*
G01*
X131510000Y-135254750D02*
X131510000Y-135767250D01*
G75*
G02*
X131291250Y-135986000I-218750J0D01*
G01*
X130853750Y-135986000D01*
G75*
G02*
X130635000Y-135767250I0J218750D01*
G01*
X130635000Y-135254750D01*
G75*
G02*
X130853750Y-135036000I218750J0D01*
G01*
X131291250Y-135036000D01*
G75*
G02*
X131510000Y-135254750I0J-218750D01*
G01*
G37*
G04 #@! TD.AperFunction*
D10*
X136289000Y-124456000D03*
X136289000Y-122556000D03*
X134289000Y-123506000D03*
X136289000Y-130430000D03*
X136289000Y-128530000D03*
X134289000Y-129480000D03*
X134289000Y-135511000D03*
X136289000Y-134561000D03*
X136289000Y-136461000D03*
D11*
X139206000Y-52507000D03*
X138556000Y-52507000D03*
X137906000Y-52507000D03*
X137256000Y-52507000D03*
X136606000Y-52507000D03*
X135956000Y-52507000D03*
X135306000Y-52507000D03*
X134656000Y-52507000D03*
X134006000Y-52507000D03*
X133356000Y-52507000D03*
X132706000Y-52507000D03*
X132056000Y-52507000D03*
X131406000Y-52507000D03*
X130756000Y-52507000D03*
X130756000Y-59707000D03*
X131406000Y-59707000D03*
X132056000Y-59707000D03*
X132706000Y-59707000D03*
X133356000Y-59707000D03*
X134006000Y-59707000D03*
X134656000Y-59707000D03*
X135306000Y-59707000D03*
X135956000Y-59707000D03*
X136606000Y-59707000D03*
X137256000Y-59707000D03*
X137906000Y-59707000D03*
X138556000Y-59707000D03*
X139206000Y-59707000D03*
G04 #@! TA.AperFunction,SMDPad,CuDef*
G36*
G01*
X132073000Y-78682000D02*
X132073000Y-78382000D01*
G75*
G02*
X132223000Y-78232000I150000J0D01*
G01*
X133873000Y-78232000D01*
G75*
G02*
X134023000Y-78382000I0J-150000D01*
G01*
X134023000Y-78682000D01*
G75*
G02*
X133873000Y-78832000I-150000J0D01*
G01*
X132223000Y-78832000D01*
G75*
G02*
X132073000Y-78682000I0J150000D01*
G01*
G37*
G04 #@! TD.AperFunction*
G04 #@! TA.AperFunction,SMDPad,CuDef*
G36*
G01*
X132073000Y-79952000D02*
X132073000Y-79652000D01*
G75*
G02*
X132223000Y-79502000I150000J0D01*
G01*
X133873000Y-79502000D01*
G75*
G02*
X134023000Y-79652000I0J-150000D01*
G01*
X134023000Y-79952000D01*
G75*
G02*
X133873000Y-80102000I-150000J0D01*
G01*
X132223000Y-80102000D01*
G75*
G02*
X132073000Y-79952000I0J150000D01*
G01*
G37*
G04 #@! TD.AperFunction*
G04 #@! TA.AperFunction,SMDPad,CuDef*
G36*
G01*
X132073000Y-81222000D02*
X132073000Y-80922000D01*
G75*
G02*
X132223000Y-80772000I150000J0D01*
G01*
X133873000Y-80772000D01*
G75*
G02*
X134023000Y-80922000I0J-150000D01*
G01*
X134023000Y-81222000D01*
G75*
G02*
X133873000Y-81372000I-150000J0D01*
G01*
X132223000Y-81372000D01*
G75*
G02*
X132073000Y-81222000I0J150000D01*
G01*
G37*
G04 #@! TD.AperFunction*
G04 #@! TA.AperFunction,SMDPad,CuDef*
G36*
G01*
X132073000Y-82492000D02*
X132073000Y-82192000D01*
G75*
G02*
X132223000Y-82042000I150000J0D01*
G01*
X133873000Y-82042000D01*
G75*
G02*
X134023000Y-82192000I0J-150000D01*
G01*
X134023000Y-82492000D01*
G75*
G02*
X133873000Y-82642000I-150000J0D01*
G01*
X132223000Y-82642000D01*
G75*
G02*
X132073000Y-82492000I0J150000D01*
G01*
G37*
G04 #@! TD.AperFunction*
G04 #@! TA.AperFunction,SMDPad,CuDef*
G36*
G01*
X137023000Y-82492000D02*
X137023000Y-82192000D01*
G75*
G02*
X137173000Y-82042000I150000J0D01*
G01*
X138823000Y-82042000D01*
G75*
G02*
X138973000Y-82192000I0J-150000D01*
G01*
X138973000Y-82492000D01*
G75*
G02*
X138823000Y-82642000I-150000J0D01*
G01*
X137173000Y-82642000D01*
G75*
G02*
X137023000Y-82492000I0J150000D01*
G01*
G37*
G04 #@! TD.AperFunction*
G04 #@! TA.AperFunction,SMDPad,CuDef*
G36*
G01*
X137023000Y-81222000D02*
X137023000Y-80922000D01*
G75*
G02*
X137173000Y-80772000I150000J0D01*
G01*
X138823000Y-80772000D01*
G75*
G02*
X138973000Y-80922000I0J-150000D01*
G01*
X138973000Y-81222000D01*
G75*
G02*
X138823000Y-81372000I-150000J0D01*
G01*
X137173000Y-81372000D01*
G75*
G02*
X137023000Y-81222000I0J150000D01*
G01*
G37*
G04 #@! TD.AperFunction*
G04 #@! TA.AperFunction,SMDPad,CuDef*
G36*
G01*
X137023000Y-79952000D02*
X137023000Y-79652000D01*
G75*
G02*
X137173000Y-79502000I150000J0D01*
G01*
X138823000Y-79502000D01*
G75*
G02*
X138973000Y-79652000I0J-150000D01*
G01*
X138973000Y-79952000D01*
G75*
G02*
X138823000Y-80102000I-150000J0D01*
G01*
X137173000Y-80102000D01*
G75*
G02*
X137023000Y-79952000I0J150000D01*
G01*
G37*
G04 #@! TD.AperFunction*
G04 #@! TA.AperFunction,SMDPad,CuDef*
G36*
G01*
X137023000Y-78682000D02*
X137023000Y-78382000D01*
G75*
G02*
X137173000Y-78232000I150000J0D01*
G01*
X138823000Y-78232000D01*
G75*
G02*
X138973000Y-78382000I0J-150000D01*
G01*
X138973000Y-78682000D01*
G75*
G02*
X138823000Y-78832000I-150000J0D01*
G01*
X137173000Y-78832000D01*
G75*
G02*
X137023000Y-78682000I0J150000D01*
G01*
G37*
G04 #@! TD.AperFunction*
D12*
X145215000Y-77455000D03*
X145215000Y-78255000D03*
X145215000Y-79055000D03*
X145215000Y-79855000D03*
X145215000Y-80655000D03*
X145215000Y-81455000D03*
X145215000Y-82255000D03*
X145215000Y-83055000D03*
X145215000Y-83855000D03*
X145215000Y-84655000D03*
X145215000Y-85455000D03*
X145215000Y-86255000D03*
X145215000Y-87055000D03*
X145215000Y-87855000D03*
X145215000Y-88655000D03*
X145215000Y-89455000D03*
D13*
X146915000Y-91155000D03*
X147715000Y-91155000D03*
X148515000Y-91155000D03*
X149315000Y-91155000D03*
X150115000Y-91155000D03*
X150915000Y-91155000D03*
X151715000Y-91155000D03*
X152515000Y-91155000D03*
X153315000Y-91155000D03*
X154115000Y-91155000D03*
X154915000Y-91155000D03*
X155715000Y-91155000D03*
X156515000Y-91155000D03*
X157315000Y-91155000D03*
X158115000Y-91155000D03*
X158915000Y-91155000D03*
D12*
X160615000Y-89455000D03*
X160615000Y-88655000D03*
X160615000Y-87855000D03*
X160615000Y-87055000D03*
X160615000Y-86255000D03*
X160615000Y-85455000D03*
X160615000Y-84655000D03*
X160615000Y-83855000D03*
X160615000Y-83055000D03*
X160615000Y-82255000D03*
X160615000Y-81455000D03*
X160615000Y-80655000D03*
X160615000Y-79855000D03*
X160615000Y-79055000D03*
X160615000Y-78255000D03*
X160615000Y-77455000D03*
D13*
X158915000Y-75755000D03*
X158115000Y-75755000D03*
X157315000Y-75755000D03*
X156515000Y-75755000D03*
X155715000Y-75755000D03*
X154915000Y-75755000D03*
X154115000Y-75755000D03*
X153315000Y-75755000D03*
X152515000Y-75755000D03*
X151715000Y-75755000D03*
X150915000Y-75755000D03*
X150115000Y-75755000D03*
X149315000Y-75755000D03*
X148515000Y-75755000D03*
X147715000Y-75755000D03*
X146915000Y-75755000D03*
D14*
X126399000Y-72984000D03*
X126399000Y-73634000D03*
X126399000Y-74284000D03*
X126399000Y-74934000D03*
X126399000Y-75584000D03*
D15*
X126314000Y-71796500D03*
X126314000Y-76771500D03*
D16*
X123739000Y-70909000D03*
X123739000Y-77659000D03*
D17*
X123739000Y-73134000D03*
D18*
X123739000Y-75834000D03*
G04 #@! TA.AperFunction,SMDPad,CuDef*
G36*
G01*
X133833500Y-61677000D02*
X134178500Y-61677000D01*
G75*
G02*
X134326000Y-61824500I0J-147500D01*
G01*
X134326000Y-62119500D01*
G75*
G02*
X134178500Y-62267000I-147500J0D01*
G01*
X133833500Y-62267000D01*
G75*
G02*
X133686000Y-62119500I0J147500D01*
G01*
X133686000Y-61824500D01*
G75*
G02*
X133833500Y-61677000I147500J0D01*
G01*
G37*
G04 #@! TD.AperFunction*
G04 #@! TA.AperFunction,SMDPad,CuDef*
G36*
G01*
X133833500Y-62647000D02*
X134178500Y-62647000D01*
G75*
G02*
X134326000Y-62794500I0J-147500D01*
G01*
X134326000Y-63089500D01*
G75*
G02*
X134178500Y-63237000I-147500J0D01*
G01*
X133833500Y-63237000D01*
G75*
G02*
X133686000Y-63089500I0J147500D01*
G01*
X133686000Y-62794500D01*
G75*
G02*
X133833500Y-62647000I147500J0D01*
G01*
G37*
G04 #@! TD.AperFunction*
G04 #@! TA.AperFunction,SMDPad,CuDef*
G36*
G01*
X128887250Y-57332000D02*
X128374750Y-57332000D01*
G75*
G02*
X128156000Y-57113250I0J218750D01*
G01*
X128156000Y-56675750D01*
G75*
G02*
X128374750Y-56457000I218750J0D01*
G01*
X128887250Y-56457000D01*
G75*
G02*
X129106000Y-56675750I0J-218750D01*
G01*
X129106000Y-57113250D01*
G75*
G02*
X128887250Y-57332000I-218750J0D01*
G01*
G37*
G04 #@! TD.AperFunction*
G04 #@! TA.AperFunction,SMDPad,CuDef*
G36*
G01*
X128887250Y-55757000D02*
X128374750Y-55757000D01*
G75*
G02*
X128156000Y-55538250I0J218750D01*
G01*
X128156000Y-55100750D01*
G75*
G02*
X128374750Y-54882000I218750J0D01*
G01*
X128887250Y-54882000D01*
G75*
G02*
X129106000Y-55100750I0J-218750D01*
G01*
X129106000Y-55538250D01*
G75*
G02*
X128887250Y-55757000I-218750J0D01*
G01*
G37*
G04 #@! TD.AperFunction*
G04 #@! TA.AperFunction,SMDPad,CuDef*
G36*
G01*
X131883500Y-62139000D02*
X132228500Y-62139000D01*
G75*
G02*
X132376000Y-62286500I0J-147500D01*
G01*
X132376000Y-62581500D01*
G75*
G02*
X132228500Y-62729000I-147500J0D01*
G01*
X131883500Y-62729000D01*
G75*
G02*
X131736000Y-62581500I0J147500D01*
G01*
X131736000Y-62286500D01*
G75*
G02*
X131883500Y-62139000I147500J0D01*
G01*
G37*
G04 #@! TD.AperFunction*
G04 #@! TA.AperFunction,SMDPad,CuDef*
G36*
G01*
X131883500Y-61169000D02*
X132228500Y-61169000D01*
G75*
G02*
X132376000Y-61316500I0J-147500D01*
G01*
X132376000Y-61611500D01*
G75*
G02*
X132228500Y-61759000I-147500J0D01*
G01*
X131883500Y-61759000D01*
G75*
G02*
X131736000Y-61611500I0J147500D01*
G01*
X131736000Y-61316500D01*
G75*
G02*
X131883500Y-61169000I147500J0D01*
G01*
G37*
G04 #@! TD.AperFunction*
G04 #@! TA.AperFunction,SMDPad,CuDef*
G36*
G01*
X143426500Y-58681000D02*
X143081500Y-58681000D01*
G75*
G02*
X142934000Y-58533500I0J147500D01*
G01*
X142934000Y-58238500D01*
G75*
G02*
X143081500Y-58091000I147500J0D01*
G01*
X143426500Y-58091000D01*
G75*
G02*
X143574000Y-58238500I0J-147500D01*
G01*
X143574000Y-58533500D01*
G75*
G02*
X143426500Y-58681000I-147500J0D01*
G01*
G37*
G04 #@! TD.AperFunction*
G04 #@! TA.AperFunction,SMDPad,CuDef*
G36*
G01*
X143426500Y-57711000D02*
X143081500Y-57711000D01*
G75*
G02*
X142934000Y-57563500I0J147500D01*
G01*
X142934000Y-57268500D01*
G75*
G02*
X143081500Y-57121000I147500J0D01*
G01*
X143426500Y-57121000D01*
G75*
G02*
X143574000Y-57268500I0J-147500D01*
G01*
X143574000Y-57563500D01*
G75*
G02*
X143426500Y-57711000I-147500J0D01*
G01*
G37*
G04 #@! TD.AperFunction*
G04 #@! TA.AperFunction,SMDPad,CuDef*
G36*
G01*
X151215500Y-100171000D02*
X151560500Y-100171000D01*
G75*
G02*
X151708000Y-100318500I0J-147500D01*
G01*
X151708000Y-100613500D01*
G75*
G02*
X151560500Y-100761000I-147500J0D01*
G01*
X151215500Y-100761000D01*
G75*
G02*
X151068000Y-100613500I0J147500D01*
G01*
X151068000Y-100318500D01*
G75*
G02*
X151215500Y-100171000I147500J0D01*
G01*
G37*
G04 #@! TD.AperFunction*
G04 #@! TA.AperFunction,SMDPad,CuDef*
G36*
G01*
X151215500Y-99201000D02*
X151560500Y-99201000D01*
G75*
G02*
X151708000Y-99348500I0J-147500D01*
G01*
X151708000Y-99643500D01*
G75*
G02*
X151560500Y-99791000I-147500J0D01*
G01*
X151215500Y-99791000D01*
G75*
G02*
X151068000Y-99643500I0J147500D01*
G01*
X151068000Y-99348500D01*
G75*
G02*
X151215500Y-99201000I147500J0D01*
G01*
G37*
G04 #@! TD.AperFunction*
G04 #@! TA.AperFunction,SMDPad,CuDef*
G36*
G01*
X147024500Y-99201000D02*
X147369500Y-99201000D01*
G75*
G02*
X147517000Y-99348500I0J-147500D01*
G01*
X147517000Y-99643500D01*
G75*
G02*
X147369500Y-99791000I-147500J0D01*
G01*
X147024500Y-99791000D01*
G75*
G02*
X146877000Y-99643500I0J147500D01*
G01*
X146877000Y-99348500D01*
G75*
G02*
X147024500Y-99201000I147500J0D01*
G01*
G37*
G04 #@! TD.AperFunction*
G04 #@! TA.AperFunction,SMDPad,CuDef*
G36*
G01*
X147024500Y-100171000D02*
X147369500Y-100171000D01*
G75*
G02*
X147517000Y-100318500I0J-147500D01*
G01*
X147517000Y-100613500D01*
G75*
G02*
X147369500Y-100761000I-147500J0D01*
G01*
X147024500Y-100761000D01*
G75*
G02*
X146877000Y-100613500I0J147500D01*
G01*
X146877000Y-100318500D01*
G75*
G02*
X147024500Y-100171000I147500J0D01*
G01*
G37*
G04 #@! TD.AperFunction*
G04 #@! TA.AperFunction,SMDPad,CuDef*
G36*
G01*
X136532000Y-77230500D02*
X136532000Y-76885500D01*
G75*
G02*
X136679500Y-76738000I147500J0D01*
G01*
X136974500Y-76738000D01*
G75*
G02*
X137122000Y-76885500I0J-147500D01*
G01*
X137122000Y-77230500D01*
G75*
G02*
X136974500Y-77378000I-147500J0D01*
G01*
X136679500Y-77378000D01*
G75*
G02*
X136532000Y-77230500I0J147500D01*
G01*
G37*
G04 #@! TD.AperFunction*
G04 #@! TA.AperFunction,SMDPad,CuDef*
G36*
G01*
X135562000Y-77230500D02*
X135562000Y-76885500D01*
G75*
G02*
X135709500Y-76738000I147500J0D01*
G01*
X136004500Y-76738000D01*
G75*
G02*
X136152000Y-76885500I0J-147500D01*
G01*
X136152000Y-77230500D01*
G75*
G02*
X136004500Y-77378000I-147500J0D01*
G01*
X135709500Y-77378000D01*
G75*
G02*
X135562000Y-77230500I0J147500D01*
G01*
G37*
G04 #@! TD.AperFunction*
G04 #@! TA.AperFunction,SMDPad,CuDef*
G36*
G01*
X151174000Y-92887500D02*
X151174000Y-93232500D01*
G75*
G02*
X151026500Y-93380000I-147500J0D01*
G01*
X150731500Y-93380000D01*
G75*
G02*
X150584000Y-93232500I0J147500D01*
G01*
X150584000Y-92887500D01*
G75*
G02*
X150731500Y-92740000I147500J0D01*
G01*
X151026500Y-92740000D01*
G75*
G02*
X151174000Y-92887500I0J-147500D01*
G01*
G37*
G04 #@! TD.AperFunction*
G04 #@! TA.AperFunction,SMDPad,CuDef*
G36*
G01*
X150204000Y-92887500D02*
X150204000Y-93232500D01*
G75*
G02*
X150056500Y-93380000I-147500J0D01*
G01*
X149761500Y-93380000D01*
G75*
G02*
X149614000Y-93232500I0J147500D01*
G01*
X149614000Y-92887500D01*
G75*
G02*
X149761500Y-92740000I147500J0D01*
G01*
X150056500Y-92740000D01*
G75*
G02*
X150204000Y-92887500I0J-147500D01*
G01*
G37*
G04 #@! TD.AperFunction*
G04 #@! TA.AperFunction,SMDPad,CuDef*
G36*
G01*
X138990000Y-124283500D02*
X138990000Y-124628500D01*
G75*
G02*
X138842500Y-124776000I-147500J0D01*
G01*
X138547500Y-124776000D01*
G75*
G02*
X138400000Y-124628500I0J147500D01*
G01*
X138400000Y-124283500D01*
G75*
G02*
X138547500Y-124136000I147500J0D01*
G01*
X138842500Y-124136000D01*
G75*
G02*
X138990000Y-124283500I0J-147500D01*
G01*
G37*
G04 #@! TD.AperFunction*
G04 #@! TA.AperFunction,SMDPad,CuDef*
G36*
G01*
X138020000Y-124283500D02*
X138020000Y-124628500D01*
G75*
G02*
X137872500Y-124776000I-147500J0D01*
G01*
X137577500Y-124776000D01*
G75*
G02*
X137430000Y-124628500I0J147500D01*
G01*
X137430000Y-124283500D01*
G75*
G02*
X137577500Y-124136000I147500J0D01*
G01*
X137872500Y-124136000D01*
G75*
G02*
X138020000Y-124283500I0J-147500D01*
G01*
G37*
G04 #@! TD.AperFunction*
G04 #@! TA.AperFunction,SMDPad,CuDef*
G36*
G01*
X131670000Y-121809500D02*
X131670000Y-122154500D01*
G75*
G02*
X131522500Y-122302000I-147500J0D01*
G01*
X131227500Y-122302000D01*
G75*
G02*
X131080000Y-122154500I0J147500D01*
G01*
X131080000Y-121809500D01*
G75*
G02*
X131227500Y-121662000I147500J0D01*
G01*
X131522500Y-121662000D01*
G75*
G02*
X131670000Y-121809500I0J-147500D01*
G01*
G37*
G04 #@! TD.AperFunction*
G04 #@! TA.AperFunction,SMDPad,CuDef*
G36*
G01*
X132640000Y-121809500D02*
X132640000Y-122154500D01*
G75*
G02*
X132492500Y-122302000I-147500J0D01*
G01*
X132197500Y-122302000D01*
G75*
G02*
X132050000Y-122154500I0J147500D01*
G01*
X132050000Y-121809500D01*
G75*
G02*
X132197500Y-121662000I147500J0D01*
G01*
X132492500Y-121662000D01*
G75*
G02*
X132640000Y-121809500I0J-147500D01*
G01*
G37*
G04 #@! TD.AperFunction*
G04 #@! TA.AperFunction,SMDPad,CuDef*
G36*
G01*
X138020000Y-130257500D02*
X138020000Y-130602500D01*
G75*
G02*
X137872500Y-130750000I-147500J0D01*
G01*
X137577500Y-130750000D01*
G75*
G02*
X137430000Y-130602500I0J147500D01*
G01*
X137430000Y-130257500D01*
G75*
G02*
X137577500Y-130110000I147500J0D01*
G01*
X137872500Y-130110000D01*
G75*
G02*
X138020000Y-130257500I0J-147500D01*
G01*
G37*
G04 #@! TD.AperFunction*
G04 #@! TA.AperFunction,SMDPad,CuDef*
G36*
G01*
X138990000Y-130257500D02*
X138990000Y-130602500D01*
G75*
G02*
X138842500Y-130750000I-147500J0D01*
G01*
X138547500Y-130750000D01*
G75*
G02*
X138400000Y-130602500I0J147500D01*
G01*
X138400000Y-130257500D01*
G75*
G02*
X138547500Y-130110000I147500J0D01*
G01*
X138842500Y-130110000D01*
G75*
G02*
X138990000Y-130257500I0J-147500D01*
G01*
G37*
G04 #@! TD.AperFunction*
G04 #@! TA.AperFunction,SMDPad,CuDef*
G36*
G01*
X132640000Y-127783500D02*
X132640000Y-128128500D01*
G75*
G02*
X132492500Y-128276000I-147500J0D01*
G01*
X132197500Y-128276000D01*
G75*
G02*
X132050000Y-128128500I0J147500D01*
G01*
X132050000Y-127783500D01*
G75*
G02*
X132197500Y-127636000I147500J0D01*
G01*
X132492500Y-127636000D01*
G75*
G02*
X132640000Y-127783500I0J-147500D01*
G01*
G37*
G04 #@! TD.AperFunction*
G04 #@! TA.AperFunction,SMDPad,CuDef*
G36*
G01*
X131670000Y-127783500D02*
X131670000Y-128128500D01*
G75*
G02*
X131522500Y-128276000I-147500J0D01*
G01*
X131227500Y-128276000D01*
G75*
G02*
X131080000Y-128128500I0J147500D01*
G01*
X131080000Y-127783500D01*
G75*
G02*
X131227500Y-127636000I147500J0D01*
G01*
X131522500Y-127636000D01*
G75*
G02*
X131670000Y-127783500I0J-147500D01*
G01*
G37*
G04 #@! TD.AperFunction*
G04 #@! TA.AperFunction,SMDPad,CuDef*
G36*
G01*
X131652000Y-91200500D02*
X131652000Y-90855500D01*
G75*
G02*
X131799500Y-90708000I147500J0D01*
G01*
X132094500Y-90708000D01*
G75*
G02*
X132242000Y-90855500I0J-147500D01*
G01*
X132242000Y-91200500D01*
G75*
G02*
X132094500Y-91348000I-147500J0D01*
G01*
X131799500Y-91348000D01*
G75*
G02*
X131652000Y-91200500I0J147500D01*
G01*
G37*
G04 #@! TD.AperFunction*
G04 #@! TA.AperFunction,SMDPad,CuDef*
G36*
G01*
X132622000Y-91200500D02*
X132622000Y-90855500D01*
G75*
G02*
X132769500Y-90708000I147500J0D01*
G01*
X133064500Y-90708000D01*
G75*
G02*
X133212000Y-90855500I0J-147500D01*
G01*
X133212000Y-91200500D01*
G75*
G02*
X133064500Y-91348000I-147500J0D01*
G01*
X132769500Y-91348000D01*
G75*
G02*
X132622000Y-91200500I0J147500D01*
G01*
G37*
G04 #@! TD.AperFunction*
G04 #@! TA.AperFunction,SMDPad,CuDef*
G36*
G01*
X141233500Y-58138000D02*
X141578500Y-58138000D01*
G75*
G02*
X141726000Y-58285500I0J-147500D01*
G01*
X141726000Y-58580500D01*
G75*
G02*
X141578500Y-58728000I-147500J0D01*
G01*
X141233500Y-58728000D01*
G75*
G02*
X141086000Y-58580500I0J147500D01*
G01*
X141086000Y-58285500D01*
G75*
G02*
X141233500Y-58138000I147500J0D01*
G01*
G37*
G04 #@! TD.AperFunction*
G04 #@! TA.AperFunction,SMDPad,CuDef*
G36*
G01*
X141233500Y-57168000D02*
X141578500Y-57168000D01*
G75*
G02*
X141726000Y-57315500I0J-147500D01*
G01*
X141726000Y-57610500D01*
G75*
G02*
X141578500Y-57758000I-147500J0D01*
G01*
X141233500Y-57758000D01*
G75*
G02*
X141086000Y-57610500I0J147500D01*
G01*
X141086000Y-57315500D01*
G75*
G02*
X141233500Y-57168000I147500J0D01*
G01*
G37*
G04 #@! TD.AperFunction*
G04 #@! TA.AperFunction,SMDPad,CuDef*
G36*
G01*
X138977500Y-63645000D02*
X139322500Y-63645000D01*
G75*
G02*
X139470000Y-63792500I0J-147500D01*
G01*
X139470000Y-64087500D01*
G75*
G02*
X139322500Y-64235000I-147500J0D01*
G01*
X138977500Y-64235000D01*
G75*
G02*
X138830000Y-64087500I0J147500D01*
G01*
X138830000Y-63792500D01*
G75*
G02*
X138977500Y-63645000I147500J0D01*
G01*
G37*
G04 #@! TD.AperFunction*
G04 #@! TA.AperFunction,SMDPad,CuDef*
G36*
G01*
X138977500Y-64615000D02*
X139322500Y-64615000D01*
G75*
G02*
X139470000Y-64762500I0J-147500D01*
G01*
X139470000Y-65057500D01*
G75*
G02*
X139322500Y-65205000I-147500J0D01*
G01*
X138977500Y-65205000D01*
G75*
G02*
X138830000Y-65057500I0J147500D01*
G01*
X138830000Y-64762500D01*
G75*
G02*
X138977500Y-64615000I147500J0D01*
G01*
G37*
G04 #@! TD.AperFunction*
G04 #@! TA.AperFunction,SMDPad,CuDef*
G36*
G01*
X137707500Y-64615000D02*
X138052500Y-64615000D01*
G75*
G02*
X138200000Y-64762500I0J-147500D01*
G01*
X138200000Y-65057500D01*
G75*
G02*
X138052500Y-65205000I-147500J0D01*
G01*
X137707500Y-65205000D01*
G75*
G02*
X137560000Y-65057500I0J147500D01*
G01*
X137560000Y-64762500D01*
G75*
G02*
X137707500Y-64615000I147500J0D01*
G01*
G37*
G04 #@! TD.AperFunction*
G04 #@! TA.AperFunction,SMDPad,CuDef*
G36*
G01*
X137707500Y-63645000D02*
X138052500Y-63645000D01*
G75*
G02*
X138200000Y-63792500I0J-147500D01*
G01*
X138200000Y-64087500D01*
G75*
G02*
X138052500Y-64235000I-147500J0D01*
G01*
X137707500Y-64235000D01*
G75*
G02*
X137560000Y-64087500I0J147500D01*
G01*
X137560000Y-63792500D01*
G75*
G02*
X137707500Y-63645000I147500J0D01*
G01*
G37*
G04 #@! TD.AperFunction*
G04 #@! TA.AperFunction,SMDPad,CuDef*
G36*
G01*
X138990000Y-136288500D02*
X138990000Y-136633500D01*
G75*
G02*
X138842500Y-136781000I-147500J0D01*
G01*
X138547500Y-136781000D01*
G75*
G02*
X138400000Y-136633500I0J147500D01*
G01*
X138400000Y-136288500D01*
G75*
G02*
X138547500Y-136141000I147500J0D01*
G01*
X138842500Y-136141000D01*
G75*
G02*
X138990000Y-136288500I0J-147500D01*
G01*
G37*
G04 #@! TD.AperFunction*
G04 #@! TA.AperFunction,SMDPad,CuDef*
G36*
G01*
X138020000Y-136288500D02*
X138020000Y-136633500D01*
G75*
G02*
X137872500Y-136781000I-147500J0D01*
G01*
X137577500Y-136781000D01*
G75*
G02*
X137430000Y-136633500I0J147500D01*
G01*
X137430000Y-136288500D01*
G75*
G02*
X137577500Y-136141000I147500J0D01*
G01*
X137872500Y-136141000D01*
G75*
G02*
X138020000Y-136288500I0J-147500D01*
G01*
G37*
G04 #@! TD.AperFunction*
G04 #@! TA.AperFunction,SMDPad,CuDef*
G36*
G01*
X131670000Y-133814500D02*
X131670000Y-134159500D01*
G75*
G02*
X131522500Y-134307000I-147500J0D01*
G01*
X131227500Y-134307000D01*
G75*
G02*
X131080000Y-134159500I0J147500D01*
G01*
X131080000Y-133814500D01*
G75*
G02*
X131227500Y-133667000I147500J0D01*
G01*
X131522500Y-133667000D01*
G75*
G02*
X131670000Y-133814500I0J-147500D01*
G01*
G37*
G04 #@! TD.AperFunction*
G04 #@! TA.AperFunction,SMDPad,CuDef*
G36*
G01*
X132640000Y-133814500D02*
X132640000Y-134159500D01*
G75*
G02*
X132492500Y-134307000I-147500J0D01*
G01*
X132197500Y-134307000D01*
G75*
G02*
X132050000Y-134159500I0J147500D01*
G01*
X132050000Y-133814500D01*
G75*
G02*
X132197500Y-133667000I147500J0D01*
G01*
X132492500Y-133667000D01*
G75*
G02*
X132640000Y-133814500I0J-147500D01*
G01*
G37*
G04 #@! TD.AperFunction*
G04 #@! TA.AperFunction,SMDPad,CuDef*
G36*
G01*
X140705500Y-83680000D02*
X140360500Y-83680000D01*
G75*
G02*
X140213000Y-83532500I0J147500D01*
G01*
X140213000Y-83237500D01*
G75*
G02*
X140360500Y-83090000I147500J0D01*
G01*
X140705500Y-83090000D01*
G75*
G02*
X140853000Y-83237500I0J-147500D01*
G01*
X140853000Y-83532500D01*
G75*
G02*
X140705500Y-83680000I-147500J0D01*
G01*
G37*
G04 #@! TD.AperFunction*
G04 #@! TA.AperFunction,SMDPad,CuDef*
G36*
G01*
X140705500Y-82710000D02*
X140360500Y-82710000D01*
G75*
G02*
X140213000Y-82562500I0J147500D01*
G01*
X140213000Y-82267500D01*
G75*
G02*
X140360500Y-82120000I147500J0D01*
G01*
X140705500Y-82120000D01*
G75*
G02*
X140853000Y-82267500I0J-147500D01*
G01*
X140853000Y-82562500D01*
G75*
G02*
X140705500Y-82710000I-147500J0D01*
G01*
G37*
G04 #@! TD.AperFunction*
G04 #@! TA.AperFunction,SMDPad,CuDef*
G36*
G01*
X140360500Y-80804000D02*
X140705500Y-80804000D01*
G75*
G02*
X140853000Y-80951500I0J-147500D01*
G01*
X140853000Y-81246500D01*
G75*
G02*
X140705500Y-81394000I-147500J0D01*
G01*
X140360500Y-81394000D01*
G75*
G02*
X140213000Y-81246500I0J147500D01*
G01*
X140213000Y-80951500D01*
G75*
G02*
X140360500Y-80804000I147500J0D01*
G01*
G37*
G04 #@! TD.AperFunction*
G04 #@! TA.AperFunction,SMDPad,CuDef*
G36*
G01*
X140360500Y-79834000D02*
X140705500Y-79834000D01*
G75*
G02*
X140853000Y-79981500I0J-147500D01*
G01*
X140853000Y-80276500D01*
G75*
G02*
X140705500Y-80424000I-147500J0D01*
G01*
X140360500Y-80424000D01*
G75*
G02*
X140213000Y-80276500I0J147500D01*
G01*
X140213000Y-79981500D01*
G75*
G02*
X140360500Y-79834000I147500J0D01*
G01*
G37*
G04 #@! TD.AperFunction*
G04 #@! TA.AperFunction,SMDPad,CuDef*
G36*
G01*
X156190500Y-72341000D02*
X156535500Y-72341000D01*
G75*
G02*
X156683000Y-72488500I0J-147500D01*
G01*
X156683000Y-72783500D01*
G75*
G02*
X156535500Y-72931000I-147500J0D01*
G01*
X156190500Y-72931000D01*
G75*
G02*
X156043000Y-72783500I0J147500D01*
G01*
X156043000Y-72488500D01*
G75*
G02*
X156190500Y-72341000I147500J0D01*
G01*
G37*
G04 #@! TD.AperFunction*
G04 #@! TA.AperFunction,SMDPad,CuDef*
G36*
G01*
X156190500Y-73311000D02*
X156535500Y-73311000D01*
G75*
G02*
X156683000Y-73458500I0J-147500D01*
G01*
X156683000Y-73753500D01*
G75*
G02*
X156535500Y-73901000I-147500J0D01*
G01*
X156190500Y-73901000D01*
G75*
G02*
X156043000Y-73753500I0J147500D01*
G01*
X156043000Y-73458500D01*
G75*
G02*
X156190500Y-73311000I147500J0D01*
G01*
G37*
G04 #@! TD.AperFunction*
D19*
X151365000Y-96958000D03*
X147265000Y-96958000D03*
G04 #@! TA.AperFunction,SMDPad,CuDef*
G36*
G01*
X148104000Y-74027500D02*
X148104000Y-74372500D01*
G75*
G02*
X147956500Y-74520000I-147500J0D01*
G01*
X147661500Y-74520000D01*
G75*
G02*
X147514000Y-74372500I0J147500D01*
G01*
X147514000Y-74027500D01*
G75*
G02*
X147661500Y-73880000I147500J0D01*
G01*
X147956500Y-73880000D01*
G75*
G02*
X148104000Y-74027500I0J-147500D01*
G01*
G37*
G04 #@! TD.AperFunction*
G04 #@! TA.AperFunction,SMDPad,CuDef*
G36*
G01*
X147134000Y-74027500D02*
X147134000Y-74372500D01*
G75*
G02*
X146986500Y-74520000I-147500J0D01*
G01*
X146691500Y-74520000D01*
G75*
G02*
X146544000Y-74372500I0J147500D01*
G01*
X146544000Y-74027500D01*
G75*
G02*
X146691500Y-73880000I147500J0D01*
G01*
X146986500Y-73880000D01*
G75*
G02*
X147134000Y-74027500I0J-147500D01*
G01*
G37*
G04 #@! TD.AperFunction*
D20*
X133469000Y-111955000D03*
X133469000Y-116455000D03*
X125509000Y-116455000D03*
X125509000Y-111955000D03*
G04 #@! TA.AperFunction,ComponentPad*
G36*
G01*
X172985000Y-51750000D02*
X172985000Y-50550000D01*
G75*
G02*
X173235000Y-50300000I250000J0D01*
G01*
X174435000Y-50300000D01*
G75*
G02*
X174685000Y-50550000I0J-250000D01*
G01*
X174685000Y-51750000D01*
G75*
G02*
X174435000Y-52000000I-250000J0D01*
G01*
X173235000Y-52000000D01*
G75*
G02*
X172985000Y-51750000I0J250000D01*
G01*
G37*
G04 #@! TD.AperFunction*
D21*
X173835000Y-53690000D03*
X173835000Y-56230000D03*
X173835000Y-58770000D03*
X173835000Y-61310000D03*
X173835000Y-63850000D03*
X173835000Y-66390000D03*
X173835000Y-68930000D03*
X173835000Y-71470000D03*
X173835000Y-74010000D03*
X173835000Y-76550000D03*
X173835000Y-79090000D03*
X173835000Y-81630000D03*
X173835000Y-84170000D03*
X173835000Y-86710000D03*
X173835000Y-89250000D03*
X173835000Y-91790000D03*
X173835000Y-94330000D03*
X173835000Y-96870000D03*
X173835000Y-99410000D03*
X173835000Y-101950000D03*
X173835000Y-104490000D03*
X173835000Y-107030000D03*
X173835000Y-109570000D03*
X173835000Y-112110000D03*
X173835000Y-114650000D03*
X173835000Y-117190000D03*
X173835000Y-119730000D03*
X173835000Y-122270000D03*
X173835000Y-124810000D03*
X173835000Y-127350000D03*
X173835000Y-129890000D03*
X176375000Y-51150000D03*
X176375000Y-53690000D03*
X176375000Y-56230000D03*
X176375000Y-58770000D03*
X176375000Y-61310000D03*
X176375000Y-63850000D03*
X176375000Y-66390000D03*
X176375000Y-68930000D03*
X176375000Y-71470000D03*
X176375000Y-74010000D03*
X176375000Y-76550000D03*
X176375000Y-79090000D03*
X176375000Y-81630000D03*
X176375000Y-84170000D03*
X176375000Y-86710000D03*
X176375000Y-89250000D03*
X176375000Y-91790000D03*
X176375000Y-94330000D03*
X176375000Y-96870000D03*
X176375000Y-99410000D03*
X176375000Y-101950000D03*
X176375000Y-104490000D03*
X176375000Y-107030000D03*
X176375000Y-109570000D03*
X176375000Y-112110000D03*
X176375000Y-114650000D03*
X176375000Y-117190000D03*
X176375000Y-119730000D03*
X176375000Y-122270000D03*
X176375000Y-124810000D03*
X176375000Y-127350000D03*
X176375000Y-129890000D03*
D22*
X134972000Y-98521000D03*
D23*
X132432000Y-98521000D03*
X134972000Y-95981000D03*
X132432000Y-95981000D03*
X134972000Y-93441000D03*
X132432000Y-93441000D03*
D24*
X155728000Y-76931000D03*
X147197000Y-101251000D03*
X151388000Y-101251000D03*
X124304000Y-116491000D03*
X134696000Y-116491000D03*
X147832000Y-73438000D03*
X127606000Y-75584000D03*
X132706000Y-58266000D03*
X134656000Y-58266000D03*
X137256000Y-58266000D03*
X137902000Y-61187000D03*
X135306000Y-51217000D03*
X128631000Y-54456000D03*
X134006000Y-63727000D03*
X132056000Y-63219000D03*
X137194000Y-122490000D03*
X137194000Y-128464000D03*
X137194000Y-134495000D03*
X135072000Y-77058000D03*
X131643000Y-78582000D03*
X131643000Y-82392000D03*
X131643000Y-81122000D03*
X131643000Y-79852000D03*
X150902000Y-93822000D03*
X156363000Y-71851000D03*
X143254000Y-59171000D03*
X144425000Y-92806000D03*
X146816000Y-73438000D03*
X134324000Y-68170000D03*
X134324000Y-70970000D03*
X128631000Y-57758000D03*
X134006000Y-61187000D03*
X137256000Y-51217000D03*
X133130000Y-121982000D03*
X133130000Y-127956000D03*
X133130000Y-133987000D03*
X131162000Y-91028000D03*
X140533000Y-84170000D03*
X140533000Y-79344000D03*
X137612000Y-77058000D03*
X149886000Y-93822000D03*
X156363000Y-74391000D03*
D25*
X135857000Y-77058000D02*
X135072000Y-77058000D01*
X131693000Y-78532000D02*
X131643000Y-78582000D01*
X133048000Y-78532000D02*
X131693000Y-78532000D01*
X131693000Y-79802000D02*
X131643000Y-79852000D01*
X133048000Y-79802000D02*
X131693000Y-79802000D01*
X131693000Y-81072000D02*
X131643000Y-81122000D01*
X133048000Y-81072000D02*
X131693000Y-81072000D01*
X131693000Y-82342000D02*
X131643000Y-82392000D01*
X133048000Y-82342000D02*
X131693000Y-82342000D01*
X132706000Y-59707000D02*
X132706000Y-58266000D01*
X134656000Y-59707000D02*
X134656000Y-58266000D01*
X137256000Y-59707000D02*
X137256000Y-58266000D01*
X137906000Y-61183000D02*
X137902000Y-61187000D01*
X137906000Y-59707000D02*
X137906000Y-61183000D01*
X132056000Y-62434000D02*
X132056000Y-63219000D01*
X134006000Y-63727000D02*
X134006000Y-62942000D01*
X126399000Y-75584000D02*
X127606000Y-75584000D01*
X128631000Y-55319500D02*
X128631000Y-54456000D01*
X147832000Y-74177000D02*
X147809000Y-74200000D01*
X147832000Y-73438000D02*
X147832000Y-74177000D01*
X147715000Y-74294000D02*
X147809000Y-74200000D01*
X147715000Y-75755000D02*
X147715000Y-74294000D01*
X150879000Y-93799000D02*
X150902000Y-93822000D01*
X150879000Y-93060000D02*
X150879000Y-93799000D01*
X150915000Y-93024000D02*
X150879000Y-93060000D01*
X150915000Y-91155000D02*
X150915000Y-93024000D01*
X151388000Y-100466000D02*
X151388000Y-101251000D01*
X147197000Y-100466000D02*
X147197000Y-101251000D01*
X137128000Y-122556000D02*
X137194000Y-122490000D01*
X136289000Y-122556000D02*
X137128000Y-122556000D01*
X137128000Y-128530000D02*
X137194000Y-128464000D01*
X136289000Y-128530000D02*
X137128000Y-128530000D01*
X137128000Y-134561000D02*
X137194000Y-134495000D01*
X136289000Y-134561000D02*
X137128000Y-134561000D01*
X124340000Y-116455000D02*
X124304000Y-116491000D01*
X125509000Y-116455000D02*
X124340000Y-116455000D01*
X134660000Y-116455000D02*
X134696000Y-116491000D01*
X133469000Y-116455000D02*
X134660000Y-116455000D01*
X155715000Y-76918000D02*
X155728000Y-76931000D01*
X155715000Y-75755000D02*
X155715000Y-76918000D01*
X156363000Y-72636000D02*
X156363000Y-71851000D01*
X135306000Y-52507000D02*
X135306000Y-51217000D01*
X132056000Y-59707000D02*
X132056000Y-61464000D01*
X132917000Y-91028000D02*
X133956000Y-91028000D01*
X134972000Y-92044000D02*
X134972000Y-93441000D01*
X133956000Y-91028000D02*
X134972000Y-92044000D01*
X143254000Y-58386000D02*
X143254000Y-59171000D01*
X125509000Y-111955000D02*
X133469000Y-111955000D01*
X148820400Y-92806000D02*
X144425000Y-92806000D01*
X149315000Y-91155000D02*
X149315000Y-92311400D01*
X149315000Y-92311400D02*
X148820400Y-92806000D01*
X125509000Y-111955000D02*
X125509000Y-111664000D01*
X125509000Y-111664000D02*
X125066000Y-111221000D01*
X131162000Y-94711000D02*
X125066000Y-100807000D01*
X133702000Y-94711000D02*
X131162000Y-94711000D01*
X125066000Y-100807000D02*
X125066000Y-103011000D01*
X134972000Y-93441000D02*
X133702000Y-94711000D01*
X125066000Y-111221000D02*
X125066000Y-103011000D01*
X138556000Y-52507000D02*
X138556000Y-54336000D01*
X138556000Y-54336000D02*
X139247000Y-55027000D01*
X139247000Y-55027000D02*
X141914000Y-55027000D01*
X143254000Y-56367000D02*
X143254000Y-57416000D01*
X141914000Y-55027000D02*
X143254000Y-56367000D01*
X151410000Y-96913000D02*
X151365000Y-96958000D01*
X151410000Y-95473000D02*
X151410000Y-96913000D01*
X152515000Y-91155000D02*
X152515000Y-94368000D01*
X152515000Y-94368000D02*
X151410000Y-95473000D01*
X151365000Y-99473000D02*
X151388000Y-99496000D01*
X151365000Y-96958000D02*
X151365000Y-99473000D01*
X151715000Y-91155000D02*
X151715000Y-94152000D01*
X151715000Y-94152000D02*
X151156000Y-94711000D01*
X147265000Y-96958000D02*
X147265000Y-95681000D01*
X148235000Y-94711000D02*
X148489000Y-94711000D01*
X147265000Y-95681000D02*
X148235000Y-94711000D01*
X151156000Y-94711000D02*
X148489000Y-94711000D01*
X147265000Y-99428000D02*
X147197000Y-99496000D01*
X147265000Y-96958000D02*
X147265000Y-99428000D01*
X136827000Y-77058000D02*
X137612000Y-77058000D01*
X136827000Y-78051000D02*
X136827000Y-77058000D01*
X137998000Y-78532000D02*
X137308000Y-78532000D01*
X137308000Y-78532000D02*
X136827000Y-78051000D01*
X140533000Y-80129000D02*
X140533000Y-79344000D01*
X140533000Y-83385000D02*
X140533000Y-84170000D01*
X131162000Y-91028000D02*
X131947000Y-91028000D01*
X134006000Y-59704000D02*
X133987401Y-59685401D01*
X134006000Y-59707000D02*
X134006000Y-59704000D01*
X134006000Y-61972000D02*
X134006000Y-61187000D01*
X134006000Y-61187000D02*
X134006000Y-59707000D01*
X128631000Y-56894500D02*
X128631000Y-57758000D01*
X135241500Y-68170000D02*
X134324000Y-68170000D01*
X135241500Y-70970000D02*
X134324000Y-70970000D01*
X146816000Y-74177000D02*
X146839000Y-74200000D01*
X146816000Y-73438000D02*
X146816000Y-74177000D01*
X146915000Y-74276000D02*
X146839000Y-74200000D01*
X146915000Y-75755000D02*
X146915000Y-74276000D01*
X149909000Y-93799000D02*
X149886000Y-93822000D01*
X149909000Y-93060000D02*
X149909000Y-93799000D01*
X150115000Y-91155000D02*
X150115000Y-92491000D01*
X149909000Y-92697000D02*
X149909000Y-93060000D01*
X150115000Y-92491000D02*
X149909000Y-92697000D01*
X133130000Y-121982000D02*
X132345000Y-121982000D01*
X133130000Y-127956000D02*
X132345000Y-127956000D01*
X133130000Y-133987000D02*
X132345000Y-133987000D01*
X156515000Y-74543000D02*
X156363000Y-74391000D01*
X156515000Y-75755000D02*
X156515000Y-74543000D01*
X156363000Y-73606000D02*
X156363000Y-74391000D01*
X137256000Y-52507000D02*
X137256000Y-51217000D01*
X132647500Y-123506000D02*
X134289000Y-123506000D01*
X130688000Y-121982000D02*
X131375000Y-121982000D01*
X130400000Y-122270000D02*
X130688000Y-121982000D01*
X130400000Y-122905000D02*
X130400000Y-122270000D01*
X131072500Y-123506000D02*
X131001000Y-123506000D01*
X131001000Y-123506000D02*
X130400000Y-122905000D01*
X130400000Y-128874000D02*
X130400000Y-128366000D01*
X130810000Y-127956000D02*
X131375000Y-127956000D01*
X131072500Y-129480000D02*
X131006000Y-129480000D01*
X130400000Y-128366000D02*
X130810000Y-127956000D01*
X131006000Y-129480000D02*
X130400000Y-128874000D01*
X134289000Y-129480000D02*
X132647500Y-129480000D01*
X139150000Y-64910000D02*
X139150000Y-70394000D01*
X138574000Y-70970000D02*
X136816500Y-70970000D01*
X139150000Y-70394000D02*
X138574000Y-70970000D01*
X137880000Y-64910000D02*
X137880000Y-67727000D01*
X137437000Y-68170000D02*
X136816500Y-68170000D01*
X137880000Y-67727000D02*
X137437000Y-68170000D01*
X134289000Y-135511000D02*
X132647500Y-135511000D01*
X131068000Y-135511000D02*
X131072500Y-135511000D01*
X130400000Y-134843000D02*
X131068000Y-135511000D01*
X131375000Y-133987000D02*
X130748000Y-133987000D01*
X130400000Y-134335000D02*
X130400000Y-134843000D01*
X130748000Y-133987000D02*
X130400000Y-134335000D01*
X137512000Y-98521000D02*
X134972000Y-98521000D01*
X141486000Y-87055000D02*
X140815000Y-87726000D01*
X145215000Y-87055000D02*
X141486000Y-87055000D01*
X140815000Y-87726000D02*
X140815000Y-97886000D01*
X140180000Y-98521000D02*
X137512000Y-98521000D01*
X140815000Y-97886000D02*
X140180000Y-98521000D01*
X136242000Y-95981000D02*
X134972000Y-95981000D01*
X140038000Y-85455000D02*
X139291000Y-86202000D01*
X145215000Y-85455000D02*
X140038000Y-85455000D01*
X139291000Y-86202000D02*
X139291000Y-95346000D01*
X138656000Y-95981000D02*
X136242000Y-95981000D01*
X139291000Y-95346000D02*
X138656000Y-95981000D01*
X133702000Y-97251000D02*
X132432000Y-95981000D01*
X140762000Y-86255000D02*
X140053000Y-86964000D01*
X145215000Y-86255000D02*
X140762000Y-86255000D01*
X140053000Y-86964000D02*
X140053000Y-96616000D01*
X139418000Y-97251000D02*
X133702000Y-97251000D01*
X140053000Y-96616000D02*
X139418000Y-97251000D01*
X137725000Y-124456000D02*
X136289000Y-124456000D01*
X137725000Y-130430000D02*
X136289000Y-130430000D01*
X137725000Y-136461000D02*
X136289000Y-136461000D01*
X142210000Y-87855000D02*
X145215000Y-87855000D01*
X141577000Y-123794000D02*
X140915000Y-124456000D01*
X142210000Y-87855000D02*
X141577000Y-88488000D01*
X140361000Y-124456000D02*
X138695000Y-124456000D01*
X140915000Y-124456000D02*
X140361000Y-124456000D01*
X141577000Y-88488000D02*
X141577000Y-123794000D01*
X140293000Y-130430000D02*
X138695000Y-130430000D01*
X141609000Y-130430000D02*
X140293000Y-130430000D01*
X142339000Y-129700000D02*
X141609000Y-130430000D01*
X142934000Y-88655000D02*
X142339000Y-89250000D01*
X142339000Y-89250000D02*
X142339000Y-129700000D01*
X145215000Y-88655000D02*
X142934000Y-88655000D01*
X139206000Y-53788400D02*
X139682600Y-54265000D01*
X139206000Y-52507000D02*
X139206000Y-53788400D01*
X139682600Y-54265000D02*
X143819000Y-54265000D01*
X145216000Y-55662000D02*
X145216000Y-57463000D01*
X143819000Y-54265000D02*
X145216000Y-55662000D01*
X145215000Y-79055000D02*
X142104000Y-79055000D01*
X141406000Y-77991000D02*
X141406000Y-78245000D01*
X141406000Y-78357000D02*
X142104000Y-79055000D01*
X141406000Y-77991000D02*
X141406000Y-78357000D01*
X141406000Y-58433000D02*
X141406000Y-77991000D01*
X142847000Y-72740000D02*
X142847000Y-77420000D01*
X145216000Y-70371000D02*
X142847000Y-72740000D01*
X145216000Y-58433000D02*
X145216000Y-70371000D01*
X145215000Y-78255000D02*
X143682000Y-78255000D01*
X142847000Y-77420000D02*
X143682000Y-78255000D01*
X136606000Y-53788400D02*
X138733600Y-55916000D01*
X136606000Y-52507000D02*
X136606000Y-53788400D01*
X138733600Y-55916000D02*
X140517000Y-55916000D01*
X141406000Y-56805000D02*
X141406000Y-57463000D01*
X140517000Y-55916000D02*
X141406000Y-56805000D01*
X135956000Y-59707000D02*
X135956000Y-61358000D01*
X136589500Y-61991500D02*
X138452500Y-61991500D01*
X135956000Y-61358000D02*
X136589500Y-61991500D01*
X139150000Y-62689000D02*
X139150000Y-63940000D01*
X138452500Y-61991500D02*
X139150000Y-62689000D01*
X135306000Y-59707000D02*
X135306000Y-61978000D01*
X135306000Y-61978000D02*
X136102000Y-62774000D01*
X136102000Y-62774000D02*
X137203000Y-62774000D01*
X137880000Y-63451000D02*
X137880000Y-63940000D01*
X137203000Y-62774000D02*
X137880000Y-63451000D01*
X138695000Y-136461000D02*
X140548000Y-136461000D01*
X143814000Y-89455000D02*
X143814000Y-89553000D01*
X143814000Y-89455000D02*
X145215000Y-89455000D01*
X143814000Y-89553000D02*
X143101000Y-90266000D01*
X143101000Y-90266000D02*
X143101000Y-135732000D01*
X142372000Y-136461000D02*
X140548000Y-136461000D01*
X143101000Y-135732000D02*
X142372000Y-136461000D01*
X140460000Y-82342000D02*
X140533000Y-82415000D01*
X137998000Y-82342000D02*
X140460000Y-82342000D01*
X145215000Y-82255000D02*
X142276000Y-82255000D01*
X142116000Y-82415000D02*
X140533000Y-82415000D01*
X142276000Y-82255000D02*
X142116000Y-82415000D01*
X140506000Y-81072000D02*
X140533000Y-81099000D01*
X137998000Y-81072000D02*
X140506000Y-81072000D01*
X145215000Y-81455000D02*
X142218000Y-81455000D01*
X141862000Y-81099000D02*
X140533000Y-81099000D01*
X142218000Y-81455000D02*
X141862000Y-81099000D01*
X130756000Y-73401000D02*
X129873000Y-74284000D01*
X130756000Y-59707000D02*
X130756000Y-73401000D01*
X126399000Y-74284000D02*
X129873000Y-74284000D01*
X129551000Y-72828000D02*
X128745000Y-73634000D01*
X129551000Y-58490400D02*
X129551000Y-72828000D01*
X130029400Y-58012000D02*
X129551000Y-58490400D01*
X126399000Y-73634000D02*
X128745000Y-73634000D01*
X131406000Y-59707000D02*
X131406000Y-58425600D01*
X131406000Y-58425600D02*
X130992400Y-58012000D01*
X130992400Y-58012000D02*
X130029400Y-58012000D01*
X150115000Y-75755000D02*
X150115000Y-54604000D01*
X150115000Y-54604000D02*
X151029000Y-53690000D01*
X151029000Y-53690000D02*
X173635000Y-53690000D01*
X149315000Y-75755000D02*
X149315000Y-53372000D01*
X149315000Y-53372000D02*
X150267000Y-52420000D01*
X175105000Y-52420000D02*
X176375000Y-53690000D01*
X174515000Y-52420000D02*
X175105000Y-52420000D01*
X174515000Y-52420000D02*
X174905000Y-52420000D01*
X150267000Y-52420000D02*
X174515000Y-52420000D01*
X151715000Y-75755000D02*
X151715000Y-57068000D01*
X152553000Y-56230000D02*
X173635000Y-56230000D01*
X151715000Y-57068000D02*
X152553000Y-56230000D01*
X150915000Y-75755000D02*
X150915000Y-55836000D01*
X150915000Y-55836000D02*
X151791000Y-54960000D01*
X175105000Y-54960000D02*
X176375000Y-56230000D01*
X174689000Y-54960000D02*
X175105000Y-54960000D01*
X174689000Y-54960000D02*
X174905000Y-54960000D01*
X151791000Y-54960000D02*
X174689000Y-54960000D01*
X153315000Y-75755000D02*
X153315000Y-59532000D01*
X154077000Y-58770000D02*
X173635000Y-58770000D01*
X153315000Y-59532000D02*
X154077000Y-58770000D01*
X152515000Y-75755000D02*
X152515000Y-58300000D01*
X152515000Y-58300000D02*
X153315000Y-57500000D01*
X175105000Y-57500000D02*
X176375000Y-58770000D01*
X174435000Y-57500000D02*
X175105000Y-57500000D01*
X174435000Y-57500000D02*
X174905000Y-57500000D01*
X153315000Y-57500000D02*
X174435000Y-57500000D01*
X154915000Y-75755000D02*
X154915000Y-61996000D01*
X154915000Y-61996000D02*
X155601000Y-61310000D01*
X155601000Y-61310000D02*
X173635000Y-61310000D01*
X154115000Y-75755000D02*
X154115000Y-60764000D01*
X154115000Y-60764000D02*
X154839000Y-60040000D01*
X174689000Y-60040000D02*
X175105000Y-60040000D01*
X175105000Y-60040000D02*
X176375000Y-61310000D01*
X174689000Y-60040000D02*
X174905000Y-60040000D01*
X154839000Y-60040000D02*
X174689000Y-60040000D01*
X158115000Y-75755000D02*
X158115000Y-69718000D01*
X158903000Y-68930000D02*
X173635000Y-68930000D01*
X158115000Y-69718000D02*
X158903000Y-68930000D01*
X157315000Y-75755000D02*
X157315000Y-68486000D01*
X157315000Y-68486000D02*
X158141000Y-67660000D01*
X175105000Y-67660000D02*
X176375000Y-68930000D01*
X174689000Y-67660000D02*
X175105000Y-67660000D01*
X174689000Y-67660000D02*
X174905000Y-67660000D01*
X158141000Y-67660000D02*
X174689000Y-67660000D01*
X160615000Y-77455000D02*
X162062000Y-77455000D01*
X162062000Y-77455000D02*
X162713000Y-76804000D01*
X162713000Y-76804000D02*
X162713000Y-72232000D01*
X162713000Y-72232000D02*
X163475000Y-71470000D01*
X163475000Y-71470000D02*
X173635000Y-71470000D01*
X158915000Y-75755000D02*
X158915000Y-70950000D01*
X158915000Y-70950000D02*
X159665000Y-70200000D01*
X175105000Y-70200000D02*
X176375000Y-71470000D01*
X174689000Y-70200000D02*
X175105000Y-70200000D01*
X174689000Y-70200000D02*
X174905000Y-70200000D01*
X159665000Y-70200000D02*
X174689000Y-70200000D01*
X160615000Y-79055000D02*
X163440000Y-79055000D01*
X163440000Y-79055000D02*
X164167000Y-78328000D01*
X164167000Y-78328000D02*
X164167000Y-74842000D01*
X164167000Y-74842000D02*
X164999000Y-74010000D01*
X164999000Y-74010000D02*
X173635000Y-74010000D01*
X160615000Y-78255000D02*
X162786000Y-78255000D01*
X162786000Y-78255000D02*
X163475000Y-77566000D01*
X163475000Y-77566000D02*
X163475000Y-73502000D01*
X163475000Y-73502000D02*
X164237000Y-72740000D01*
X175105000Y-72740000D02*
X176375000Y-74010000D01*
X174515000Y-72740000D02*
X175105000Y-72740000D01*
X174515000Y-72740000D02*
X174905000Y-72740000D01*
X164237000Y-72740000D02*
X174515000Y-72740000D01*
X160615000Y-80655000D02*
X164958000Y-80655000D01*
X164958000Y-80655000D02*
X165761000Y-79852000D01*
X165761000Y-79852000D02*
X165761000Y-77312000D01*
X165761000Y-77312000D02*
X166523000Y-76550000D01*
X166523000Y-76550000D02*
X173635000Y-76550000D01*
X160615000Y-79855000D02*
X164234000Y-79855000D01*
X164234000Y-79855000D02*
X164999000Y-79090000D01*
X164999000Y-79090000D02*
X164999000Y-76042000D01*
X164999000Y-76042000D02*
X165761000Y-75280000D01*
X175105000Y-75280000D02*
X176375000Y-76550000D01*
X174689000Y-75280000D02*
X175105000Y-75280000D01*
X174689000Y-75280000D02*
X174905000Y-75280000D01*
X165761000Y-75280000D02*
X174689000Y-75280000D01*
X160615000Y-83055000D02*
X169980000Y-83055000D01*
X169980000Y-83055000D02*
X170841000Y-83916000D01*
X170841000Y-83916000D02*
X170841000Y-85948000D01*
X171603000Y-86710000D02*
X173635000Y-86710000D01*
X170841000Y-85948000D02*
X171603000Y-86710000D01*
X160615000Y-82255000D02*
X170958000Y-82255000D01*
X170958000Y-82255000D02*
X171603000Y-82900000D01*
X171603000Y-82900000D02*
X171603000Y-84678000D01*
X171603000Y-84678000D02*
X172365000Y-85440000D01*
X175105000Y-85440000D02*
X176375000Y-86710000D01*
X174515000Y-85440000D02*
X174905000Y-85440000D01*
X174515000Y-85440000D02*
X175105000Y-85440000D01*
X172365000Y-85440000D02*
X174515000Y-85440000D01*
X168532000Y-84655000D02*
X169317000Y-85440000D01*
X160615000Y-84655000D02*
X168532000Y-84655000D01*
X170079000Y-89250000D02*
X173635000Y-89250000D01*
X169317000Y-88488000D02*
X170079000Y-89250000D01*
X169317000Y-85440000D02*
X169317000Y-88488000D01*
X169256000Y-83855000D02*
X170079000Y-84678000D01*
X160615000Y-83855000D02*
X169256000Y-83855000D01*
X170079000Y-87218000D02*
X170841000Y-87980000D01*
X170079000Y-84678000D02*
X170079000Y-87218000D01*
X175105000Y-87980000D02*
X176375000Y-89250000D01*
X174515000Y-87980000D02*
X175105000Y-87980000D01*
X174515000Y-87980000D02*
X174905000Y-87980000D01*
X170841000Y-87980000D02*
X174515000Y-87980000D01*
X160615000Y-86255000D02*
X167084000Y-86255000D01*
X167084000Y-86255000D02*
X167793000Y-86964000D01*
X167793000Y-86964000D02*
X167793000Y-91028000D01*
X167793000Y-91028000D02*
X168555000Y-91790000D01*
X168555000Y-91790000D02*
X173635000Y-91790000D01*
X160615000Y-85455000D02*
X167808000Y-85455000D01*
X167808000Y-85455000D02*
X168555000Y-86202000D01*
X168555000Y-86202000D02*
X168555000Y-89758000D01*
X168555000Y-89758000D02*
X169317000Y-90520000D01*
X175105000Y-90520000D02*
X176375000Y-91790000D01*
X174435000Y-90520000D02*
X175105000Y-90520000D01*
X174435000Y-90520000D02*
X174905000Y-90520000D01*
X169317000Y-90520000D02*
X174435000Y-90520000D01*
X160615000Y-87855000D02*
X165636000Y-87855000D01*
X165636000Y-87855000D02*
X166269000Y-88488000D01*
X166269000Y-88488000D02*
X166269000Y-93568000D01*
X166269000Y-93568000D02*
X167031000Y-94330000D01*
X167031000Y-94330000D02*
X173635000Y-94330000D01*
X160615000Y-87055000D02*
X166360000Y-87055000D01*
X166360000Y-87055000D02*
X167031000Y-87726000D01*
X167031000Y-87726000D02*
X167031000Y-92298000D01*
X167031000Y-92298000D02*
X167793000Y-93060000D01*
X175105000Y-93060000D02*
X176375000Y-94330000D01*
X174515000Y-93060000D02*
X175105000Y-93060000D01*
X174515000Y-93060000D02*
X174905000Y-93060000D01*
X167793000Y-93060000D02*
X174515000Y-93060000D01*
X160615000Y-88655000D02*
X164912000Y-88655000D01*
X164912000Y-88655000D02*
X165507000Y-89250000D01*
X165507000Y-89250000D02*
X165507000Y-94838000D01*
X165507000Y-94838000D02*
X166269000Y-95600000D01*
X175105000Y-95600000D02*
X176375000Y-96870000D01*
X174515000Y-95600000D02*
X175105000Y-95600000D01*
X174515000Y-95600000D02*
X174905000Y-95600000D01*
X166269000Y-95600000D02*
X174515000Y-95600000D01*
X160615000Y-89455000D02*
X163934000Y-89455000D01*
X163934000Y-89455000D02*
X164745000Y-90266000D01*
X164745000Y-90266000D02*
X164745000Y-97378000D01*
X164745000Y-97378000D02*
X165507000Y-98140000D01*
X175105000Y-98140000D02*
X176375000Y-99410000D01*
X174515000Y-98140000D02*
X175105000Y-98140000D01*
X174515000Y-98140000D02*
X174905000Y-98140000D01*
X165507000Y-98140000D02*
X174515000Y-98140000D01*
X173635000Y-104490000D02*
X173000000Y-104490000D01*
X171857000Y-119730000D02*
X173635000Y-119730000D01*
X170587000Y-105506000D02*
X170587000Y-118460000D01*
X158115000Y-93034000D02*
X170587000Y-105506000D01*
X170587000Y-118460000D02*
X171857000Y-119730000D01*
X158115000Y-91155000D02*
X158115000Y-93034000D01*
X158915000Y-91155000D02*
X158915000Y-92818000D01*
X158915000Y-92818000D02*
X171349000Y-105252000D01*
X171349000Y-105252000D02*
X171349000Y-117190000D01*
X171349000Y-117190000D02*
X172619000Y-118460000D01*
X174515000Y-118460000D02*
X175105000Y-118460000D01*
X174515000Y-118460000D02*
X174905000Y-118460000D01*
X175105000Y-118460000D02*
X176375000Y-119730000D01*
X172619000Y-118460000D02*
X174515000Y-118460000D01*
X169063000Y-121000000D02*
X170333000Y-122270000D01*
X169063000Y-106014000D02*
X169063000Y-121000000D01*
X170333000Y-122270000D02*
X173635000Y-122270000D01*
X156515000Y-93466000D02*
X169063000Y-106014000D01*
X156515000Y-91155000D02*
X156515000Y-93466000D01*
X169825000Y-119730000D02*
X171095000Y-121000000D01*
X169825000Y-105760000D02*
X169825000Y-119730000D01*
X157315000Y-93250000D02*
X169825000Y-105760000D01*
X157315000Y-91155000D02*
X157315000Y-93250000D01*
X175105000Y-121000000D02*
X176375000Y-122270000D01*
X174689000Y-121000000D02*
X175105000Y-121000000D01*
X174689000Y-121000000D02*
X174905000Y-121000000D01*
X171095000Y-121000000D02*
X174689000Y-121000000D01*
X167539000Y-123540000D02*
X168809000Y-124810000D01*
X167539000Y-106522000D02*
X167539000Y-123540000D01*
X168809000Y-124810000D02*
X173635000Y-124810000D01*
X154915000Y-93898000D02*
X167539000Y-106522000D01*
X154915000Y-91155000D02*
X154915000Y-93898000D01*
X168301000Y-106268000D02*
X168301000Y-122270000D01*
X155715000Y-93682000D02*
X168301000Y-106268000D01*
X168301000Y-122270000D02*
X169571000Y-123540000D01*
X155715000Y-91155000D02*
X155715000Y-93682000D01*
X175105000Y-123540000D02*
X176375000Y-124810000D01*
X174515000Y-123540000D02*
X175105000Y-123540000D01*
X174515000Y-123540000D02*
X174905000Y-123540000D01*
X169571000Y-123540000D02*
X174515000Y-123540000D01*
X167285000Y-127350000D02*
X173635000Y-127350000D01*
X166015000Y-126080000D02*
X167285000Y-127350000D01*
X166015000Y-107030000D02*
X166015000Y-126080000D01*
X153315000Y-94330000D02*
X166015000Y-107030000D01*
X153315000Y-91155000D02*
X153315000Y-94330000D01*
X166777000Y-124810000D02*
X168047000Y-126080000D01*
X166777000Y-106776000D02*
X166777000Y-124810000D01*
X154115000Y-94114000D02*
X166777000Y-106776000D01*
X154115000Y-91155000D02*
X154115000Y-94114000D01*
X175105000Y-126080000D02*
X176375000Y-127350000D01*
X174515000Y-126080000D02*
X175105000Y-126080000D01*
X174515000Y-126080000D02*
X174905000Y-126080000D01*
X168047000Y-126080000D02*
X174515000Y-126080000D01*
M02*
