M48
; DRILL file {KiCad 5.1.6-c6e7f7d~86~ubuntu18.04.1} date Tue Jun 23 20:17:44 2020
; FORMAT={-:-/ absolute / inch / decimal}
; #@! TF.CreationDate,2020-06-23T20:17:44+12:00
; #@! TF.GenerationSoftware,Kicad,Pcbnew,5.1.6-c6e7f7d~86~ubuntu18.04.1
FMAT,2
INCH
T1C0.0140
T2C0.0315
T3C0.0394
T4C0.0787
T5C0.1457
%
G90
G05
T1
X3.726Y-9.8238
X3.726Y-9.8538
X3.726Y-9.8838
X3.766Y-9.7638
X3.796Y-9.7638
X3.826Y-9.7638
X3.856Y-9.7638
X3.896Y-9.8238
X3.896Y-9.8538
X3.896Y-9.8838
X4.086Y-10.0838
X4.086Y-10.3538
X4.116Y-10.0838
X4.116Y-10.3538
X4.146Y-10.0838
X4.146Y-10.3538
X4.186Y-10.1738
X4.186Y-10.2038
X4.186Y-10.2338
X4.186Y-10.2638
T2
X5.257Y-12.5741
X5.657Y-12.5741
X5.257Y-12.4541
X5.657Y-12.4541
X6.297Y-12.3341
X6.697Y-12.3341
X6.297Y-12.4541
X6.697Y-12.4541
X5.257Y-12.3341
X5.657Y-12.3341
T3
X4.2967Y-11.2854
X4.2967Y-11.3854
X4.3967Y-11.2854
X4.3967Y-11.3854
X4.4967Y-11.2854
X4.4967Y-11.3854
X4.5967Y-11.2854
X4.5967Y-11.3854
X4.6967Y-11.2854
X4.6967Y-11.3854
X4.7967Y-11.2854
X4.7967Y-11.3854
X4.8967Y-11.2854
X4.8967Y-11.3854
X4.9967Y-11.2854
X4.9967Y-11.3854
X5.0967Y-11.2854
X5.0967Y-11.3854
X5.1967Y-11.2854
X5.1967Y-11.3854
X5.2967Y-11.2854
X5.2967Y-11.3854
X5.3967Y-11.2854
X5.3967Y-11.3854
X5.4967Y-11.2854
X5.4967Y-11.3854
X5.5967Y-11.2854
X5.5967Y-11.3854
X5.6967Y-11.2854
X5.6967Y-11.3854
X5.7967Y-11.2854
X5.7967Y-11.3854
X5.8967Y-11.2854
X5.8967Y-11.3854
X5.9967Y-11.2854
X5.9967Y-11.3854
X6.0967Y-11.2854
X6.0967Y-11.3854
X6.1967Y-11.2854
X6.1967Y-11.3854
X6.2967Y-11.2854
X6.2967Y-11.3854
X6.3967Y-11.2854
X6.3967Y-11.3854
X6.4967Y-11.2854
X6.4967Y-11.3854
X6.5967Y-11.2854
X6.5967Y-11.3854
X6.6967Y-11.2854
X6.6967Y-11.3854
X6.7967Y-11.2854
X6.7967Y-11.3854
X6.8967Y-11.2854
X6.8967Y-11.3854
X6.9967Y-11.2854
X6.9967Y-11.3854
X7.0967Y-11.2854
X7.0967Y-11.3854
X7.1967Y-11.2854
X7.1967Y-11.3854
X7.2967Y-11.2854
X7.2967Y-11.3854
X7.3967Y-11.2854
X7.3967Y-11.3854
X4.2967Y-8.8854
X4.2967Y-8.9854
X4.3967Y-8.8854
X4.3967Y-8.9854
X4.4967Y-8.8854
X4.4967Y-8.9854
X4.5967Y-8.8854
X4.5967Y-8.9854
X4.6967Y-8.8854
X4.6967Y-8.9854
X4.7967Y-8.8854
X4.7967Y-8.9854
X4.8967Y-8.8854
X4.8967Y-8.9854
X4.9967Y-8.8854
X4.9967Y-8.9854
X5.0967Y-8.8854
X5.0967Y-8.9854
X5.1967Y-8.8854
X5.1967Y-8.9854
X5.2967Y-8.8854
X5.2967Y-8.9854
X5.3967Y-8.8854
X5.3967Y-8.9854
X5.4967Y-8.8854
X5.4967Y-8.9854
X5.5967Y-8.8854
X5.5967Y-8.9854
X5.6967Y-8.8854
X5.6967Y-8.9854
X5.7967Y-8.8854
X5.7967Y-8.9854
X5.8967Y-8.8854
X5.8967Y-8.9854
X5.9967Y-8.8854
X5.9967Y-8.9854
X6.0967Y-8.8854
X6.0967Y-8.9854
X6.1967Y-8.8854
X6.1967Y-8.9854
X6.2967Y-8.8854
X6.2967Y-8.9854
X6.3967Y-8.8854
X6.3967Y-8.9854
X6.4967Y-8.8854
X6.4967Y-8.9854
X6.5967Y-8.8854
X6.5967Y-8.9854
X6.6967Y-8.8854
X6.6967Y-8.9854
X6.7967Y-8.8854
X6.7967Y-8.9854
X6.8967Y-8.8854
X6.8967Y-8.9854
X6.9967Y-8.8854
X6.9967Y-8.9854
X7.0967Y-8.8854
X7.0967Y-8.9854
X7.1967Y-8.8854
X7.1967Y-8.9854
X7.2967Y-8.8854
X7.2967Y-8.9854
X7.3967Y-8.8854
X7.3967Y-8.9854
X4.2967Y-8.0854
X4.2967Y-8.1854
X4.3967Y-8.0854
X4.3967Y-8.1854
X4.4967Y-8.0854
X4.4967Y-8.1854
X4.5967Y-8.0854
X4.5967Y-8.1854
X4.6967Y-8.0854
X4.6967Y-8.1854
X4.7967Y-8.0854
X4.7967Y-8.1854
X4.8967Y-8.0854
X4.8967Y-8.1854
X4.9967Y-8.0854
X4.9967Y-8.1854
X5.0967Y-8.0854
X5.0967Y-8.1854
X5.1967Y-8.0854
X5.1967Y-8.1854
X5.2967Y-8.0854
X5.2967Y-8.1854
X5.3967Y-8.0854
X5.3967Y-8.1854
X5.4967Y-8.0854
X5.4967Y-8.1854
X5.5967Y-8.0854
X5.5967Y-8.1854
X5.6967Y-8.0854
X5.6967Y-8.1854
X5.7967Y-8.0854
X5.7967Y-8.1854
X5.8967Y-8.0854
X5.8967Y-8.1854
X5.9967Y-8.0854
X5.9967Y-8.1854
X6.0967Y-8.0854
X6.0967Y-8.1854
X6.1967Y-8.0854
X6.1967Y-8.1854
X6.2967Y-8.0854
X6.2967Y-8.1854
X6.3967Y-8.0854
X6.3967Y-8.1854
X6.4967Y-8.0854
X6.4967Y-8.1854
X6.5967Y-8.0854
X6.5967Y-8.1854
X6.6967Y-8.0854
X6.6967Y-8.1854
X6.7967Y-8.0854
X6.7967Y-8.1854
X6.8967Y-8.0854
X6.8967Y-8.1854
X6.9967Y-8.0854
X6.9967Y-8.1854
X7.0967Y-8.0854
X7.0967Y-8.1854
X7.1967Y-8.0854
X7.1967Y-8.1854
X7.2967Y-8.0854
X7.2967Y-8.1854
X7.3967Y-8.0854
X7.3967Y-8.1854
X4.2967Y-6.4854
X4.2967Y-6.5854
X4.3967Y-6.4854
X4.3967Y-6.5854
X4.4967Y-6.4854
X4.4967Y-6.5854
X4.5967Y-6.4854
X4.5967Y-6.5854
X4.6967Y-6.4854
X4.6967Y-6.5854
X4.7967Y-6.4854
X4.7967Y-6.5854
X4.8967Y-6.4854
X4.8967Y-6.5854
X4.9967Y-6.4854
X4.9967Y-6.5854
X5.0967Y-6.4854
X5.0967Y-6.5854
X5.1967Y-6.4854
X5.1967Y-6.5854
X5.2967Y-6.4854
X5.2967Y-6.5854
X5.3967Y-6.4854
X5.3967Y-6.5854
X5.4967Y-6.4854
X5.4967Y-6.5854
X5.5967Y-6.4854
X5.5967Y-6.5854
X5.6967Y-6.4854
X5.6967Y-6.5854
X5.7967Y-6.4854
X5.7967Y-6.5854
X5.8967Y-6.4854
X5.8967Y-6.5854
X5.9967Y-6.4854
X5.9967Y-6.5854
X6.0967Y-6.4854
X6.0967Y-6.5854
X6.1967Y-6.4854
X6.1967Y-6.5854
X6.2967Y-6.4854
X6.2967Y-6.5854
X6.3967Y-6.4854
X6.3967Y-6.5854
X6.4967Y-6.4854
X6.4967Y-6.5854
X6.5967Y-6.4854
X6.5967Y-6.5854
X6.6967Y-6.4854
X6.6967Y-6.5854
X6.7967Y-6.4854
X6.7967Y-6.5854
X6.8967Y-6.4854
X6.8967Y-6.5854
X6.9967Y-6.4854
X6.9967Y-6.5854
X7.0967Y-6.4854
X7.0967Y-6.5854
X7.1967Y-6.4854
X7.1967Y-6.5854
X7.2967Y-6.4854
X7.2967Y-6.5854
X7.3967Y-6.4854
X7.3967Y-6.5854
X4.2967Y-5.6854
X4.2967Y-5.7854
X4.3967Y-5.6854
X4.3967Y-5.7854
X4.4967Y-5.6854
X4.4967Y-5.7854
X4.5967Y-5.6854
X4.5967Y-5.7854
X4.6967Y-5.6854
X4.6967Y-5.7854
X4.7967Y-5.6854
X4.7967Y-5.7854
X4.8967Y-5.6854
X4.8967Y-5.7854
X4.9967Y-5.6854
X4.9967Y-5.7854
X5.0967Y-5.6854
X5.0967Y-5.7854
X5.1967Y-5.6854
X5.1967Y-5.7854
X5.2967Y-5.6854
X5.2967Y-5.7854
X5.3967Y-5.6854
X5.3967Y-5.7854
X5.4967Y-5.6854
X5.4967Y-5.7854
X5.5967Y-5.6854
X5.5967Y-5.7854
X5.6967Y-5.6854
X5.6967Y-5.7854
X5.7967Y-5.6854
X5.7967Y-5.7854
X5.8967Y-5.6854
X5.8967Y-5.7854
X5.9967Y-5.6854
X5.9967Y-5.7854
X6.0967Y-5.6854
X6.0967Y-5.7854
X6.1967Y-5.6854
X6.1967Y-5.7854
X6.2967Y-5.6854
X6.2967Y-5.7854
X6.3967Y-5.6854
X6.3967Y-5.7854
X6.4967Y-5.6854
X6.4967Y-5.7854
X6.5967Y-5.6854
X6.5967Y-5.7854
X6.6967Y-5.6854
X6.6967Y-5.7854
X6.7967Y-5.6854
X6.7967Y-5.7854
X6.8967Y-5.6854
X6.8967Y-5.7854
X6.9967Y-5.6854
X6.9967Y-5.7854
X7.0967Y-5.6854
X7.0967Y-5.7854
X7.1967Y-5.6854
X7.1967Y-5.7854
X7.2967Y-5.6854
X7.2967Y-5.7854
X7.3967Y-5.6854
X7.3967Y-5.7854
X4.2967Y-12.0854
X4.2967Y-12.1854
X4.3967Y-12.0854
X4.3967Y-12.1854
X4.4967Y-12.0854
X4.4967Y-12.1854
X4.5967Y-12.0854
X4.5967Y-12.1854
X4.6967Y-12.0854
X4.6967Y-12.1854
X4.7967Y-12.0854
X4.7967Y-12.1854
X4.8967Y-12.0854
X4.8967Y-12.1854
X4.9967Y-12.0854
X4.9967Y-12.1854
X5.0967Y-12.0854
X5.0967Y-12.1854
X5.1967Y-12.0854
X5.1967Y-12.1854
X5.2967Y-12.0854
X5.2967Y-12.1854
X5.3967Y-12.0854
X5.3967Y-12.1854
X5.4967Y-12.0854
X5.4967Y-12.1854
X5.5967Y-12.0854
X5.5967Y-12.1854
X5.6967Y-12.0854
X5.6967Y-12.1854
X5.7967Y-12.0854
X5.7967Y-12.1854
X5.8967Y-12.0854
X5.8967Y-12.1854
X5.9967Y-12.0854
X5.9967Y-12.1854
X6.0967Y-12.0854
X6.0967Y-12.1854
X6.1967Y-12.0854
X6.1967Y-12.1854
X6.2967Y-12.0854
X6.2967Y-12.1854
X6.3967Y-12.0854
X6.3967Y-12.1854
X6.4967Y-12.0854
X6.4967Y-12.1854
X6.5967Y-12.0854
X6.5967Y-12.1854
X6.6967Y-12.0854
X6.6967Y-12.1854
X6.7967Y-12.0854
X6.7967Y-12.1854
X6.8967Y-12.0854
X6.8967Y-12.1854
X6.9967Y-12.0854
X6.9967Y-12.1854
X7.0967Y-12.0854
X7.0967Y-12.1854
X7.1967Y-12.0854
X7.1967Y-12.1854
X7.2967Y-12.0854
X7.2967Y-12.1854
X7.3967Y-12.0854
X7.3967Y-12.1854
X4.2967Y-7.2854
X4.2967Y-7.3854
X4.3967Y-7.2854
X4.3967Y-7.3854
X4.4967Y-7.2854
X4.4967Y-7.3854
X4.5967Y-7.2854
X4.5967Y-7.3854
X4.6967Y-7.2854
X4.6967Y-7.3854
X4.7967Y-7.2854
X4.7967Y-7.3854
X4.8967Y-7.2854
X4.8967Y-7.3854
X4.9967Y-7.2854
X4.9967Y-7.3854
X5.0967Y-7.2854
X5.0967Y-7.3854
X5.1967Y-7.2854
X5.1967Y-7.3854
X5.2967Y-7.2854
X5.2967Y-7.3854
X5.3967Y-7.2854
X5.3967Y-7.3854
X5.4967Y-7.2854
X5.4967Y-7.3854
X5.5967Y-7.2854
X5.5967Y-7.3854
X5.6967Y-7.2854
X5.6967Y-7.3854
X5.7967Y-7.2854
X5.7967Y-7.3854
X5.8967Y-7.2854
X5.8967Y-7.3854
X5.9967Y-7.2854
X5.9967Y-7.3854
X6.0967Y-7.2854
X6.0967Y-7.3854
X6.1967Y-7.2854
X6.1967Y-7.3854
X6.2967Y-7.2854
X6.2967Y-7.3854
X6.3967Y-7.2854
X6.3967Y-7.3854
X6.4967Y-7.2854
X6.4967Y-7.3854
X6.5967Y-7.2854
X6.5967Y-7.3854
X6.6967Y-7.2854
X6.6967Y-7.3854
X6.7967Y-7.2854
X6.7967Y-7.3854
X6.8967Y-7.2854
X6.8967Y-7.3854
X6.9967Y-7.2854
X6.9967Y-7.3854
X7.0967Y-7.2854
X7.0967Y-7.3854
X7.1967Y-7.2854
X7.1967Y-7.3854
X7.2967Y-7.2854
X7.2967Y-7.3854
X7.3967Y-7.2854
X7.3967Y-7.3854
X4.2967Y-9.6854
X4.2967Y-9.7854
X4.3967Y-9.6854
X4.3967Y-9.7854
X4.4967Y-9.6854
X4.4967Y-9.7854
X4.5967Y-9.6854
X4.5967Y-9.7854
X4.6967Y-9.6854
X4.6967Y-9.7854
X4.7967Y-9.6854
X4.7967Y-9.7854
X4.8967Y-9.6854
X4.8967Y-9.7854
X4.9967Y-9.6854
X4.9967Y-9.7854
X5.0967Y-9.6854
X5.0967Y-9.7854
X5.1967Y-9.6854
X5.1967Y-9.7854
X5.2967Y-9.6854
X5.2967Y-9.7854
X5.3967Y-9.6854
X5.3967Y-9.7854
X5.4967Y-9.6854
X5.4967Y-9.7854
X5.5967Y-9.6854
X5.5967Y-9.7854
X5.6967Y-9.6854
X5.6967Y-9.7854
X5.7967Y-9.6854
X5.7967Y-9.7854
X5.8967Y-9.6854
X5.8967Y-9.7854
X5.9967Y-9.6854
X5.9967Y-9.7854
X6.0967Y-9.6854
X6.0967Y-9.7854
X6.1967Y-9.6854
X6.1967Y-9.7854
X6.2967Y-9.6854
X6.2967Y-9.7854
X6.3967Y-9.6854
X6.3967Y-9.7854
X6.4967Y-9.6854
X6.4967Y-9.7854
X6.5967Y-9.6854
X6.5967Y-9.7854
X6.6967Y-9.6854
X6.6967Y-9.7854
X6.7967Y-9.6854
X6.7967Y-9.7854
X6.8967Y-9.6854
X6.8967Y-9.7854
X6.9967Y-9.6854
X6.9967Y-9.7854
X7.0967Y-9.6854
X7.0967Y-9.7854
X7.1967Y-9.6854
X7.1967Y-9.7854
X7.2967Y-9.6854
X7.2967Y-9.7854
X7.3967Y-9.6854
X7.3967Y-9.7854
X4.2967Y-4.8854
X4.2967Y-4.9854
X4.3967Y-4.8854
X4.3967Y-4.9854
X4.4967Y-4.8854
X4.4967Y-4.9854
X4.5967Y-4.8854
X4.5967Y-4.9854
X4.6967Y-4.8854
X4.6967Y-4.9854
X4.7967Y-4.8854
X4.7967Y-4.9854
X4.8967Y-4.8854
X4.8967Y-4.9854
X4.9967Y-4.8854
X4.9967Y-4.9854
X5.0967Y-4.8854
X5.0967Y-4.9854
X5.1967Y-4.8854
X5.1967Y-4.9854
X5.2967Y-4.8854
X5.2967Y-4.9854
X5.3967Y-4.8854
X5.3967Y-4.9854
X5.4967Y-4.8854
X5.4967Y-4.9854
X5.5967Y-4.8854
X5.5967Y-4.9854
X5.6967Y-4.8854
X5.6967Y-4.9854
X5.7967Y-4.8854
X5.7967Y-4.9854
X5.8967Y-4.8854
X5.8967Y-4.9854
X5.9967Y-4.8854
X5.9967Y-4.9854
X6.0967Y-4.8854
X6.0967Y-4.9854
X6.1967Y-4.8854
X6.1967Y-4.9854
X6.2967Y-4.8854
X6.2967Y-4.9854
X6.3967Y-4.8854
X6.3967Y-4.9854
X6.4967Y-4.8854
X6.4967Y-4.9854
X6.5967Y-4.8854
X6.5967Y-4.9854
X6.6967Y-4.8854
X6.6967Y-4.9854
X6.7967Y-4.8854
X6.7967Y-4.9854
X6.8967Y-4.8854
X6.8967Y-4.9854
X6.9967Y-4.8854
X6.9967Y-4.9854
X7.0967Y-4.8854
X7.0967Y-4.9854
X7.1967Y-4.8854
X7.1967Y-4.9854
X7.2967Y-4.8854
X7.2967Y-4.9854
X7.3967Y-4.8854
X7.3967Y-4.9854
X4.2967Y-10.4854
X4.2967Y-10.5854
X4.3967Y-10.4854
X4.3967Y-10.5854
X4.4967Y-10.4854
X4.4967Y-10.5854
X4.5967Y-10.4854
X4.5967Y-10.5854
X4.6967Y-10.4854
X4.6967Y-10.5854
X4.7967Y-10.4854
X4.7967Y-10.5854
X4.8967Y-10.4854
X4.8967Y-10.5854
X4.9967Y-10.4854
X4.9967Y-10.5854
X5.0967Y-10.4854
X5.0967Y-10.5854
X5.1967Y-10.4854
X5.1967Y-10.5854
X5.2967Y-10.4854
X5.2967Y-10.5854
X5.3967Y-10.4854
X5.3967Y-10.5854
X5.4967Y-10.4854
X5.4967Y-10.5854
X5.5967Y-10.4854
X5.5967Y-10.5854
X5.6967Y-10.4854
X5.6967Y-10.5854
X5.7967Y-10.4854
X5.7967Y-10.5854
X5.8967Y-10.4854
X5.8967Y-10.5854
X5.9967Y-10.4854
X5.9967Y-10.5854
X6.0967Y-10.4854
X6.0967Y-10.5854
X6.1967Y-10.4854
X6.1967Y-10.5854
X6.2967Y-10.4854
X6.2967Y-10.5854
X6.3967Y-10.4854
X6.3967Y-10.5854
X6.4967Y-10.4854
X6.4967Y-10.5854
X6.5967Y-10.4854
X6.5967Y-10.5854
X6.6967Y-10.4854
X6.6967Y-10.5854
X6.7967Y-10.4854
X6.7967Y-10.5854
X6.8967Y-10.4854
X6.8967Y-10.5854
X6.9967Y-10.4854
X6.9967Y-10.5854
X7.0967Y-10.4854
X7.0967Y-10.5854
X7.1967Y-10.4854
X7.1967Y-10.5854
X7.2967Y-10.4854
X7.2967Y-10.5854
X7.3967Y-10.4854
X7.3967Y-10.5854
T4
X3.8388Y-10.3673
T5
X3.1648Y-9.9283
X3.4443Y-9.9283
X3.1648Y-8.3283
X3.4443Y-8.3283
X3.1648Y-10.7283
X3.4443Y-10.7283
X3.1648Y-6.7283
X3.4443Y-6.7283
X3.1648Y-11.5283
X3.4443Y-11.5283
X8.2484Y-5.1283
X8.528Y-5.1283
X8.2484Y-10.7283
X8.528Y-10.7283
X8.2484Y-8.3283
X8.528Y-8.3283
X3.1648Y-9.1283
X3.4443Y-9.1283
X3.1648Y-5.1283
X3.4443Y-5.1283
X8.2484Y-5.9283
X8.528Y-5.9283
X3.1648Y-12.3283
X3.4443Y-12.3283
X8.2484Y-6.7283
X8.528Y-6.7283
X8.2484Y-9.9283
X8.528Y-9.9283
X3.1648Y-7.5283
X3.4443Y-7.5283
X8.2484Y-7.5283
X8.528Y-7.5283
X3.1648Y-5.9283
X3.4443Y-5.9283
X8.2484Y-9.1283
X8.528Y-9.1283
X8.2484Y-12.3283
X8.528Y-12.3283
X8.2484Y-11.5283
X8.528Y-11.5283
T0
M30
